<svg width="16896" height="9873" viewBox="0 0 16896 9873" fill="none" xmlns="http://www.w3.org/2000/svg">
<path d="M8661.66 4390.94C8442.96 4244.2 8180.88 4176.15 7918.42 4197.97C7655.96 4219.79 7408.71 4330.17 7217.24 4511.01C7025.77 4691.85 6901.47 4932.4 6864.71 5193.19C6827.96 5453.98 6880.94 5719.52 7014.96 5946.23" stroke="#263238" stroke-width="0.969642" stroke-linecap="round" stroke-linejoin="round"/>
<path d="M9074.53 4883.51C9051.91 4832.66 9025.76 4783.46 8996.25 4736.27" stroke="#263238" stroke-width="0.969642" stroke-linecap="round" stroke-linejoin="round"/>
<path d="M8975.49 6002.79C9062.05 5873.99 9122 5729.19 9151.84 5576.91C9181.67 5424.62 9180.78 5267.9 9149.22 5115.96" stroke="#263238" stroke-width="0.969642" stroke-linecap="round" stroke-linejoin="round"/>
<path d="M6860.08 4200.97C6781.12 4280.2 6710.36 4367.19 6648.87 4460.62" stroke="#263238" stroke-width="0.969642" stroke-linecap="round" stroke-linejoin="round"/>
<path d="M9301.72 6351.46C9535.38 6049.43 9655.6 5674.96 9641.42 5293.37C9627.23 4911.77 9479.54 4547.26 9224.1 4263.42C8968.66 3979.57 8621.69 3794.4 8243.69 3740.2C7865.7 3686 7480.67 3766.22 7155.77 3966.85" stroke="#263238" stroke-width="0.969642" stroke-linecap="round" stroke-linejoin="round"/>
<path d="M6720.95 6351.46C6559.76 6142.83 6451.44 5898.3 6405.23 5638.73C6359.02 5379.17 6376.29 5112.28 6455.57 4860.84" stroke="#263238" stroke-width="0.969642" stroke-linecap="round" stroke-linejoin="round"/>
<path d="M6209.99 6763.61C6311.42 6893.14 6426.47 7011.4 6553.18 7116.34" stroke="#263238" stroke-width="0.969642" stroke-linecap="round" stroke-linejoin="round"/>
<path d="M9307.45 3466.16C8898.89 3186.38 8410.63 3046.61 7915.91 3067.81C7421.19 3089.01 6946.68 3270.03 6563.55 3583.74C6180.42 3897.44 5909.33 4326.91 5790.93 4807.73C5672.54 5288.54 5713.24 5794.78 5906.91 6250.51" stroke="#263238" stroke-width="0.969642" stroke-linecap="round" stroke-linejoin="round"/>
<path d="M10147.5 4526.97C10086 4368.4 10007 4217.2 9911.96 4076.16" stroke="#263238" stroke-width="0.969642" stroke-linecap="round" stroke-linejoin="round"/>
<path d="M9594.79 7007.27C9818.46 6793.89 9996.43 6537.28 10117.9 6253.02C10239.4 5968.76 10301.8 5662.78 10301.4 5353.66" stroke="#263238" stroke-width="0.969642" stroke-linecap="round" stroke-linejoin="round"/>
<path d="M4814.6 5353.66C4814.6 6113.09 5083.51 6847.98 5573.65 7428.07C6063.79 8008.15 6743.49 8395.95 7492.27 8522.71" stroke="#263238" stroke-width="0.969642" stroke-linecap="round" stroke-linejoin="round"/>
<path d="M10594.7 7265.97C10986.2 6736.21 11205.6 6098.98 11223 5440.48C11240.5 4781.99 11055.3 4134.02 10692.4 3584.26C10329.5 3034.49 9806.52 2609.46 9194.17 2366.68C8581.81 2123.9 7909.66 2075.09 7268.65 2226.85" stroke="#263238" stroke-width="0.969642" stroke-linecap="round" stroke-linejoin="round"/>
<path d="M4814.6 5353.66C4814.63 4633.23 5056.65 3933.69 5501.84 3367.29C5947.03 2800.88 6569.58 2400.43 7269.61 2230.19" stroke="#263238" stroke-width="0.969642" stroke-linecap="round" stroke-linejoin="round"/>
<path d="M9911.96 7944.93C9993.57 7884.95 10072.1 7821.31 10147.5 7754.01" stroke="#263238" stroke-width="0.969642" stroke-linecap="round" stroke-linejoin="round"/>
<path d="M8547.35 8522.71C8912.81 8461.52 9264.83 8337.15 9587.63 8155.18" stroke="#263238" stroke-width="0.969642" stroke-linecap="round" stroke-linejoin="round"/>
<path d="M8012.77 8234.9C7687.3 8234.52 7375.27 8105.06 7145.13 7874.91C6914.98 7644.77 6785.52 7332.74 6785.14 7007.27V6593.93C6785.14 6576.21 6792.18 6559.21 6804.72 6546.68C6817.25 6534.15 6834.24 6527.11 6851.97 6527.11H7019.02C7036.75 6527.11 7053.74 6534.15 7066.27 6546.68C7078.81 6559.21 7085.85 6576.21 7085.85 6593.93C7085.85 6611.65 7078.81 6628.65 7066.27 6641.18C7053.74 6653.71 7036.75 6660.75 7019.02 6660.75H6919.51V7007.27C6919.51 7297.41 7034.76 7575.67 7239.92 7780.83C7445.09 7985.99 7723.34 8101.25 8013.48 8101.25C8303.62 8101.25 8581.88 7985.99 8787.04 7780.83C8992.2 7575.67 9107.46 7297.41 9107.46 7007.27V6660.75H9007.23C8989.51 6660.75 8972.51 6653.71 8959.98 6641.18C8947.45 6628.65 8940.41 6611.65 8940.41 6593.93C8940.41 6576.21 8947.45 6559.21 8959.98 6546.68C8972.51 6534.15 8989.51 6527.11 9007.23 6527.11H9174.28C9192.01 6527.11 9209 6534.15 9221.53 6546.68C9234.07 6559.21 9241.11 6576.21 9241.11 6593.93V7007.27C9240.73 7332.87 9111.17 7645 8880.87 7875.17C8650.58 8105.33 8338.36 8234.71 8012.77 8234.9Z" fill="#263238"/>
<path d="M9307.21 9262.05V9128.41C9307.24 9110.85 9303.81 9093.45 9297.1 9077.23C9290.4 9061 9280.56 9046.25 9268.14 9033.84C9255.72 9021.42 9240.98 9011.58 9224.75 9004.87C9208.52 8998.17 9191.13 8994.73 9173.57 8994.76H6851.97C6834.41 8994.73 6817.02 8998.17 6800.79 9004.87C6784.56 9011.58 6769.81 9021.42 6757.4 9033.84C6744.98 9046.25 6735.14 9061 6728.43 9077.23C6721.73 9093.45 6718.29 9110.85 6718.32 9128.41V9262.05H9307.21Z" fill="#263238"/>
<path d="M8143.07 9157.52C8145.28 9147.98 8146.4 9138.21 8146.41 9128.41V8168.07H7879.12V9128.41C7879.13 9138.21 7880.25 9147.98 7882.46 9157.52H8143.07Z" fill="#263238"/>
<path d="M8839.46 5353.65C8841.32 5243.89 8821.31 5134.86 8780.6 5032.92C8739.88 4930.97 8679.28 4838.15 8602.32 4759.87C8525.36 4681.59 8433.58 4619.42 8332.34 4576.98C8231.1 4534.54 8122.42 4512.68 8012.65 4512.68C7902.87 4512.68 7794.19 4534.54 7692.95 4576.98C7591.71 4619.42 7499.94 4681.59 7422.98 4759.87C7346.02 4838.15 7285.41 4930.97 7244.7 5032.92C7203.98 5134.86 7183.98 5243.89 7185.84 5353.65V7007.27C7189.52 7224.12 7278.25 7430.84 7432.91 7582.89C7587.57 7734.94 7795.77 7820.15 8012.65 7820.15C8229.53 7820.15 8437.73 7734.94 8592.39 7582.89C8747.04 7430.84 8835.77 7224.12 8839.46 7007.27V5353.65Z" stroke="#263238" stroke-width="0.969642" stroke-linecap="round" stroke-linejoin="round"/>
<path d="M8839.46 5353.65C8841.32 5243.89 8821.31 5134.86 8780.6 5032.92C8739.88 4930.97 8679.28 4838.15 8602.32 4759.87C8525.36 4681.59 8433.58 4619.42 8332.34 4576.98C8231.1 4534.54 8122.42 4512.68 8012.65 4512.68C7902.87 4512.68 7794.19 4534.54 7692.95 4576.98C7591.71 4619.42 7499.94 4681.59 7422.98 4759.87C7346.02 4838.15 7285.41 4930.97 7244.7 5032.92C7203.98 5134.86 7183.98 5243.89 7185.84 5353.65V7007.27C7189.52 7224.12 7278.25 7430.84 7432.91 7582.89C7587.57 7734.94 7795.77 7820.15 8012.65 7820.15C8229.53 7820.15 8437.73 7734.94 8592.39 7582.89C8747.04 7430.84 8835.77 7224.12 8839.46 7007.27V5353.65Z" fill="#4CA3FF"/>
<mask id="mask0_2020_8637" style="mask-type:luminance" maskUnits="userSpaceOnUse" x="7185" y="4512" width="1655" height="3309">
<path d="M8839.46 5353.65C8841.32 5243.89 8821.31 5134.86 8780.6 5032.92C8739.88 4930.97 8679.28 4838.15 8602.32 4759.87C8525.36 4681.59 8433.58 4619.42 8332.34 4576.98C8231.1 4534.54 8122.42 4512.68 8012.65 4512.68C7902.87 4512.68 7794.19 4534.54 7692.95 4576.98C7591.71 4619.42 7499.94 4681.59 7422.98 4759.87C7346.02 4838.15 7285.41 4930.97 7244.7 5032.92C7203.98 5134.86 7183.98 5243.89 7185.84 5353.65V7007.27C7189.52 7224.12 7278.25 7430.84 7432.91 7582.89C7587.57 7734.94 7795.77 7820.15 8012.65 7820.15C8229.53 7820.15 8437.73 7734.94 8592.39 7582.89C8747.04 7430.84 8835.77 7224.12 8839.46 7007.27V5353.65Z" fill="white"/>
</mask>
<g mask="url(#mask0_2020_8637)">
<path d="M7670.3 5440.76H7185.84V5641.23H7670.3C7696.89 5641.23 7722.38 5630.67 7741.18 5611.87C7759.98 5593.07 7770.54 5567.58 7770.54 5540.99C7770.54 5514.41 7759.98 5488.92 7741.18 5470.12C7722.38 5451.32 7696.89 5440.76 7670.3 5440.76Z" fill="white"/>
<path d="M8839.46 5440.76H8355.23C8328.65 5440.76 8303.15 5451.32 8284.36 5470.12C8265.56 5488.92 8255 5514.41 8255 5540.99C8255 5567.58 8265.56 5593.07 8284.36 5611.87C8303.15 5630.67 8328.65 5641.23 8355.23 5641.23H8839.46V5440.76Z" fill="white"/>
<path d="M8012.77 5440.76C7992.94 5440.76 7973.56 5446.64 7957.08 5457.65C7940.6 5468.67 7927.75 5484.32 7920.16 5502.64C7912.58 5520.95 7910.59 5541.11 7914.46 5560.55C7918.33 5579.99 7927.87 5597.85 7941.89 5611.87C7955.91 5625.89 7973.77 5635.44 7993.21 5639.3C8012.66 5643.17 8032.81 5641.19 8051.12 5633.6C8069.44 5626.01 8085.09 5613.17 8096.11 5596.68C8107.12 5580.2 8113 5560.82 8113 5540.99C8113 5514.41 8102.44 5488.92 8083.64 5470.12C8064.85 5451.32 8039.35 5440.76 8012.77 5440.76Z" fill="white"/>
<path d="M8012.77 5845.99C7992.94 5845.99 7973.56 5851.87 7957.08 5862.88C7940.6 5873.9 7927.75 5889.55 7920.16 5907.87C7912.58 5926.18 7910.59 5946.34 7914.46 5965.78C7918.33 5985.22 7927.87 6003.08 7941.89 6017.1C7955.91 6031.12 7973.77 6040.67 7993.21 6044.53C8012.66 6048.4 8032.81 6046.42 8051.12 6038.83C8069.44 6031.24 8085.09 6018.4 8096.11 6001.91C8107.12 5985.43 8113 5966.05 8113 5946.23C8113 5919.64 8102.44 5894.15 8083.64 5875.35C8064.85 5856.55 8039.35 5845.99 8012.77 5845.99Z" fill="white"/>
<path d="M8012.77 6250.5C7992.94 6250.5 7973.56 6256.38 7957.08 6267.4C7940.6 6278.41 7927.75 6294.06 7920.16 6312.38C7912.58 6330.7 7910.59 6350.85 7914.46 6370.29C7918.33 6389.74 7927.87 6407.6 7941.89 6421.61C7955.91 6435.63 7973.77 6445.18 7993.21 6449.05C8012.66 6452.91 8032.81 6450.93 8051.12 6443.34C8069.44 6435.75 8085.09 6422.91 8096.11 6406.42C8107.12 6389.94 8113 6370.56 8113 6350.74C8113 6324.15 8102.44 6298.66 8083.64 6279.86C8064.85 6261.06 8039.35 6250.5 8012.77 6250.5Z" fill="white"/>
<path d="M7670.3 5845.99H7185.84V6046.46H7670.3C7696.89 6046.46 7722.38 6035.9 7741.18 6017.1C7759.98 5998.3 7770.54 5972.81 7770.54 5946.23C7770.54 5919.64 7759.98 5894.15 7741.18 5875.35C7722.38 5856.55 7696.89 5845.99 7670.3 5845.99Z" fill="white"/>
<path d="M8839.46 5845.99H8355.23C8328.65 5845.99 8303.15 5856.55 8284.36 5875.35C8265.56 5894.15 8255 5919.64 8255 5946.23C8255 5972.81 8265.56 5998.3 8284.36 6017.1C8303.15 6035.9 8328.65 6046.46 8355.23 6046.46H8839.46V5845.99Z" fill="white"/>
<path d="M7670.3 6250.5H7185.84V6450.97H7670.3C7696.89 6450.97 7722.38 6440.41 7741.18 6421.61C7759.98 6402.82 7770.54 6377.32 7770.54 6350.74C7770.54 6324.15 7759.98 6298.66 7741.18 6279.86C7722.38 6261.06 7696.89 6250.5 7670.3 6250.5Z" fill="white"/>
<path d="M8839.46 6250.5H8355.23C8328.65 6250.5 8303.15 6261.06 8284.36 6279.86C8265.56 6298.66 8255 6324.15 8255 6350.74C8255 6377.32 8265.56 6402.82 8284.36 6421.61C8303.15 6440.41 8328.65 6450.97 8355.23 6450.97H8839.46V6250.5Z" fill="white"/>
</g>
<path d="M8839.46 5353.65C8841.32 5243.89 8821.31 5134.86 8780.6 5032.92C8739.88 4930.97 8679.28 4838.15 8602.32 4759.87C8525.36 4681.59 8433.58 4619.42 8332.34 4576.98C8231.1 4534.54 8122.42 4512.68 8012.65 4512.68C7902.87 4512.68 7794.19 4534.54 7692.95 4576.98C7591.71 4619.42 7499.94 4681.59 7422.98 4759.87C7346.02 4838.15 7285.41 4930.97 7244.7 5032.92C7203.98 5134.86 7183.98 5243.89 7185.84 5353.65V7007.27C7189.52 7224.12 7278.25 7430.84 7432.91 7582.89C7587.57 7734.94 7795.77 7820.15 8012.65 7820.15C8229.53 7820.15 8437.73 7734.94 8592.39 7582.89C8747.04 7430.84 8835.77 7224.12 8839.46 7007.27V5353.65Z" stroke="#263238" stroke-width="0.969642" stroke-miterlimit="10"/>
<path d="M7185.84 7007.27C7189.52 7224.12 7278.25 7430.85 7432.91 7582.9C7587.57 7734.95 7795.77 7820.15 8012.65 7820.15C8229.53 7820.15 8437.73 7734.95 8592.39 7582.9C8747.04 7430.85 8835.77 7224.12 8839.46 7007.27H7185.84Z" fill="#263238" stroke="#263238" stroke-width="0.969642" stroke-miterlimit="10"/>
<path d="M15026 6590.78C16058.4 5558.31 16058.4 3884.37 15026 2851.9C13993.5 1819.44 12319.6 1819.44 11287.1 2851.91C10254.7 3884.37 10254.7 5558.31 11287.1 6590.77C12319.6 7623.24 13993.5 7623.24 15026 6590.78Z" fill="#4CA3FF"/>
<path d="M12777.4 3627.49H10930.5C10837.5 3627.49 10762 3702.92 10762 3795.98V5642.9C10762 5735.95 10837.5 5811.39 10930.5 5811.39H12777.4C12870.5 5811.39 12945.9 5735.95 12945.9 5642.9V3795.98C12945.9 3702.92 12870.5 3627.49 12777.4 3627.49Z" fill="white"/>
<g opacity="0.1">
<path d="M10968 5811.63H11696.8L12161.2 3627.49H11402.8L10939.1 5809.24C10948.7 5810.75 10958.3 5811.55 10968 5811.63Z" fill="black"/>
<path d="M12470.1 3627.49H12287.7L11823.6 5811.63H12005.9L12470.1 3627.49Z" fill="black"/>
</g>
<path d="M12740 5866.04H10968C10899.1 5865.92 10833 5838.51 10784.2 5789.81C10735.4 5741.11 10707.9 5675.08 10707.6 5606.15V3833.45C10707.7 3764.43 10735.2 3698.28 10784 3649.48C10832.8 3600.68 10899 3573.2 10968 3573.08H12740C12809 3573.14 12875.2 3600.59 12924.1 3649.39C12973 3698.2 13000.5 3764.39 13000.6 3833.45V5606.15C13000.3 5675.12 12972.8 5741.19 12923.9 5789.89C12875.1 5838.6 12808.9 5865.98 12740 5866.04ZM10968 3682.14C10927.8 3682.14 10889.3 3698.08 10860.9 3726.44C10832.5 3754.81 10816.5 3793.3 10816.4 3833.45V5606.15C10816.4 5646.36 10832.4 5684.93 10860.8 5713.39C10889.2 5741.85 10927.8 5757.87 10968 5757.93H12740C12759.9 5757.93 12779.6 5754 12798 5746.37C12816.4 5738.74 12833.1 5727.56 12847.2 5713.46C12861.3 5699.36 12872.4 5682.63 12880.1 5664.22C12887.7 5645.8 12891.5 5626.07 12891.5 5606.15V3833.45C12891.5 3813.56 12887.6 3793.86 12880 3775.49C12872.4 3757.12 12861.2 3740.43 12847.1 3726.37C12833 3712.32 12816.3 3701.18 12797.9 3693.59C12779.6 3686 12759.9 3682.11 12740 3682.14H10968Z" fill="white" stroke="#263238" stroke-width="0.932567" stroke-miterlimit="10"/>
<path d="M15346 3627.49H13499.1C13406.1 3627.49 13330.6 3702.92 13330.6 3795.98V5642.9C13330.6 5735.95 13406.1 5811.39 13499.1 5811.39H15346C15439.1 5811.39 15514.5 5735.95 15514.5 5642.9V3795.98C15514.5 3702.92 15439.1 3627.49 15346 3627.49Z" fill="white"/>
<g opacity="0.1">
<path d="M13727.3 5811.63H14456.1L14920.3 3627.49H14162.1L13697.2 5809.24C13707.2 5810.8 13717.2 5811.6 13727.3 5811.63Z" fill="black"/>
<path d="M15229.3 3627.49H15047L14582.6 5811.63H14765.2L15229.3 3627.49Z" fill="black"/>
</g>
<path d="M15308.6 5866.04H13536.6C13467.7 5865.92 13401.6 5838.51 13352.8 5789.81C13304 5741.11 13276.5 5675.08 13276.2 5606.15V3833.45C13276.3 3764.43 13303.8 3698.28 13352.6 3649.48C13401.4 3600.68 13467.6 3573.2 13536.6 3573.08H15308.6C15377.6 3573.14 15443.8 3600.59 15492.7 3649.39C15541.6 3698.2 15569.1 3764.39 15569.2 3833.45V5606.15C15568.9 5675.12 15541.4 5741.19 15492.5 5789.89C15443.7 5838.6 15377.6 5865.98 15308.6 5866.04ZM13536.6 3682.14C13496.4 3682.14 13457.9 3698.08 13429.5 3726.44C13401.1 3754.81 13385.1 3793.3 13385 3833.45V5606.15C13385 5646.36 13401 5684.93 13429.4 5713.39C13457.8 5741.85 13496.4 5757.87 13536.6 5757.93H15308.6C15328.5 5757.93 15348.2 5754 15366.6 5746.37C15385 5738.74 15401.7 5727.56 15415.8 5713.46C15429.9 5699.36 15441.1 5682.63 15448.7 5664.22C15456.3 5645.8 15460.2 5626.07 15460.1 5606.15V3833.45C15460.1 3813.56 15456.2 3793.86 15448.6 3775.49C15441 3757.12 15429.8 3740.43 15415.7 3726.37C15401.6 3712.32 15384.9 3701.18 15366.6 3693.59C15348.2 3686 15328.5 3682.11 15308.6 3682.14H13536.6Z" fill="white" stroke="#263238" stroke-width="0.932567" stroke-miterlimit="10"/>
<path d="M13228 9817.63C13884.8 9817.63 14417.2 9739.31 14417.2 9642.7C14417.2 9546.09 13884.8 9467.77 13228 9467.77C12571.2 9467.77 12038.8 9546.09 12038.8 9642.7C12038.8 9739.31 12571.2 9817.63 13228 9817.63Z" fill="#4CA3FF"/>
<path d="M13753.5 8623.66C13753.5 8623.66 13750.4 9113.61 13698.6 9194.27C13636.8 9289.73 13592.9 9423.14 13756.6 9459.41C13920.3 9495.69 14017.7 9676.35 14212.7 9688.28C14407.7 9700.21 14427.5 9616.68 14342.5 9549.62C14257.6 9482.56 14041.8 9296.65 14013.4 9206.2C13985 9115.76 14040.1 8623.66 14040.1 8623.66H13753.5Z" fill="white"/>
<mask id="mask1_2020_8637" style="mask-type:luminance" maskUnits="userSpaceOnUse" x="13642" y="8623" width="749" height="1067">
<path d="M13753.5 8623.66C13753.5 8623.66 13750.4 9113.61 13698.6 9194.27C13636.8 9289.73 13592.9 9423.14 13756.6 9459.41C13920.3 9495.69 14017.7 9676.35 14212.7 9688.28C14407.7 9700.21 14427.5 9616.68 14342.5 9549.62C14257.6 9482.56 14041.8 9296.65 14013.4 9206.2C13985 9115.76 14040.1 8623.66 14040.1 8623.66H13753.5Z" fill="white"/>
</mask>
<g mask="url(#mask1_2020_8637)">
<path opacity="0.1" d="M14014.1 8908.13C14024.6 8763.74 14040.1 8623.66 14040.1 8623.66H13753.8C13753.8 8623.66 13753.8 8748.95 13745.4 8883.31C13834.1 8899.01 13924 8907.31 14014.1 8908.13Z" fill="black"/>
</g>
<path d="M13753.5 8623.66C13753.5 8623.66 13750.4 9113.61 13698.6 9194.27C13636.8 9289.73 13592.9 9423.14 13756.6 9459.41C13920.3 9495.69 14017.7 9676.35 14212.7 9688.28C14407.7 9700.21 14427.5 9616.68 14342.5 9549.62C14257.6 9482.56 14041.8 9296.65 14013.4 9206.2C13985 9115.76 14040.1 8623.66 14040.1 8623.66H13753.5Z" stroke="#263238" stroke-width="0.932567" stroke-linecap="round" stroke-linejoin="round"/>
<path d="M14341.6 9549.62C14262 9486.57 14186.4 9418.58 14115.3 9346.05C14047.3 9397.6 13848 9348.92 13789.3 9302.62C13717.7 9246.3 13732.8 9217.42 13698.9 9192.12L13697.7 9194.27C13635.9 9289.73 13592 9423.14 13755.7 9459.41C13919.4 9495.69 14016.8 9676.35 14211.7 9688.28C14406.7 9700.21 14427 9615.49 14341.6 9549.62Z" fill="#BFBFBF" stroke="#263238" stroke-width="0.932567" stroke-miterlimit="10"/>
<path d="M12652.6 8446.1C12652.6 8446.1 12437.8 8894.29 12356.7 8948.94C12258.6 9014.33 12161.2 9119.58 12295.6 9213.37C12430 9307.16 12441.9 9509.05 12615.4 9592.34C12788.9 9675.63 12843.1 9605.23 12794.1 9513.35C12745.2 9421.47 12627.1 9169.93 12640.2 9076.38C12653.3 8982.83 12917.5 8541.56 12917.5 8541.56L12652.6 8446.1Z" fill="white"/>
<mask id="mask2_2020_8637" style="mask-type:luminance" maskUnits="userSpaceOnUse" x="12229" y="8446" width="689" height="1184">
<path d="M12652.6 8446.1C12652.6 8446.1 12437.8 8894.29 12356.7 8948.94C12258.6 9014.33 12161.2 9119.58 12295.6 9213.37C12430 9307.16 12441.9 9509.05 12615.4 9592.34C12788.9 9675.63 12843.1 9605.23 12794.1 9513.35C12745.2 9421.47 12627.1 9169.93 12640.2 9076.38C12653.3 8982.83 12917.5 8541.56 12917.5 8541.56L12652.6 8446.1Z" fill="white"/>
</mask>
<g mask="url(#mask2_2020_8637)">
<path opacity="0.1" d="M12652.6 8446.1C12652.6 8446.1 12575.8 8606.95 12496.8 8747.52C12560.6 8810.75 12634 8863.36 12714.4 8903.36C12796.8 8743.94 12917.5 8542.28 12917.5 8542.28L12652.6 8446.1Z" fill="black"/>
</g>
<path d="M12652.6 8446.1C12652.6 8446.1 12437.8 8894.29 12356.7 8948.94C12258.6 9014.33 12161.2 9119.58 12295.6 9213.37C12430 9307.16 12441.9 9509.05 12615.4 9592.34C12788.9 9675.63 12843.1 9605.23 12794.1 9513.35C12745.2 9421.47 12627.1 9169.93 12640.2 9076.38C12653.3 8982.83 12917.5 8541.56 12917.5 8541.56L12652.6 8446.1Z" stroke="#263238" stroke-width="0.932567" stroke-linecap="round" stroke-linejoin="round"/>
<path d="M12794.1 9512.16C12748.4 9424.69 12708.6 9334.28 12674.8 9241.52C12590.1 9263.72 12414 9150.36 12394.6 9081.15C12357.2 8947.74 12379.4 8982.11 12359.1 8946.31L12357.2 8947.74C12259.1 9013.13 12161.7 9118.38 12296.1 9212.17C12430.4 9305.96 12442.4 9507.86 12615.9 9591.15C12789.4 9674.44 12843.1 9604.04 12794.1 9512.16Z" fill="#BFBFBF" stroke="#263238" stroke-width="0.932567" stroke-miterlimit="10"/>
<path d="M13788.1 5274.66C13788.1 5274.66 14116.8 6849.76 14138.7 7363.58C14160.7 7877.4 14075.2 8793.82 14075.2 8793.82L13710.3 8769.95C13710.3 8769.95 13707.9 8499.08 13671.4 8122.01C13649.7 7897.92 13581.5 7636.36 13589.1 7371.93C13589.1 7371.93 13242.3 6343.58 13255 5892.29C13267.6 5441 13255 5311.18 13255 5311.18L13788.1 5274.66Z" fill="#263238" stroke="#263238" stroke-width="0.932567" stroke-linecap="round" stroke-linejoin="round"/>
<path d="M12909.7 5274.66C12909.7 5274.66 12568.9 5556.27 12766.5 6124.02C12844.3 6349.31 13144.5 7379.81 13144.5 7379.81C13062 7474.13 12992.2 7578.83 12936.9 7691.25C12799.9 7961.88 12700.1 8383.34 12531.2 8625.09L12781.3 8793.82C12781.3 8793.82 13588.9 7781.46 13640.4 7460C13692 7138.53 13449.5 5853.16 13449.5 5853.16L13371.9 5330.75L12909.7 5274.66Z" fill="#263238" stroke="#263238" stroke-width="0.932567" stroke-linecap="round" stroke-linejoin="round"/>
<path d="M14421 4207.17C14416.5 4153.83 14398.6 4102.5 14368.8 4058.02C14393.8 4025.09 14415.4 3989.76 14433.4 3952.53C14451.6 3908.86 14427.5 3847.05 14377.1 3921.03C14326.8 3995.01 14271.4 4048.95 14291.4 4141.31C14302 4200.93 14291.2 4262.36 14260.9 4314.81L14377.1 4405.73L14608.9 4221.97L14421 4207.17Z" fill="white" stroke="#263238" stroke-width="0.932567" stroke-linecap="round" stroke-linejoin="round"/>
<path d="M14530.2 3735.1L14335.4 3788.07C14317.4 3792.95 14306.9 3811.44 14311.7 3829.37L14422.7 4237.68C14427.6 4255.61 14446.1 4266.2 14464 4261.32L14658.9 4208.35C14676.8 4203.47 14687.4 4184.98 14682.5 4167.05L14571.5 3758.74C14566.6 3740.81 14548.1 3730.22 14530.2 3735.1Z" fill="#263238" stroke="#263238" stroke-width="0.932567" stroke-linecap="round" stroke-linejoin="round"/>
<path d="M14572.9 3763.81L14313.1 3834.43L14421.4 4232.84L14681.2 4162.21L14572.9 3763.81Z" fill="#4CA3FF" stroke="#263238" stroke-width="0.932567" stroke-linecap="round" stroke-linejoin="round"/>
<path d="M14520.8 3901.7C14517.6 3889.42 14509.7 3878.9 14498.8 3872.46C14487.9 3866.01 14474.8 3864.17 14462.6 3867.33C14450.3 3870.5 14439.8 3878.41 14433.3 3889.33C14426.9 3900.25 14425 3913.29 14428.2 3925.56C14431.3 3937.5 14446.8 3993.58 14452.1 4013.39L14544.7 3988.33C14539.4 3969.95 14523.7 3911.72 14520.8 3901.7Z" fill="#263238"/>
<path d="M14512.2 4053.01C14523.7 4049.91 14533.6 4042.64 14540 4032.62C14546.4 4022.6 14548.8 4010.55 14546.8 3998.83L14454.9 4022.7C14458.9 4034.03 14467 4043.44 14477.6 4049.06C14488.2 4054.68 14500.6 4056.09 14512.2 4053.01Z" fill="#263238"/>
<path d="M14598.6 4102.65L14538.5 4119.11L14526 4073.77C14543.1 4067.11 14557.2 4054.36 14565.5 4037.97C14573.8 4021.58 14575.7 4002.72 14570.9 3984.99L14564.2 3961.13C14564.1 3960.62 14563.9 3960.13 14563.6 3959.71C14563.3 3959.29 14562.9 3958.93 14562.5 3958.66C14562 3958.39 14561.5 3958.22 14561 3958.15C14560.5 3958.08 14560 3958.12 14559.5 3958.26L14549.4 3960.89C14548.9 3961.02 14548.4 3961.26 14548 3961.59C14547.6 3961.92 14547.3 3962.34 14547 3962.81C14546.8 3963.28 14546.6 3963.8 14546.6 3964.33C14546.5 3964.87 14546.6 3965.4 14546.8 3965.9C14546.9 3966.41 14547.1 3966.89 14547.4 3967.31C14547.7 3967.74 14548.1 3968.09 14548.6 3968.36C14549 3968.63 14549.5 3968.81 14550 3968.87C14550.6 3968.94 14551.1 3968.9 14551.6 3968.76L14557.5 3967.09L14563 3987.38C14565.3 3995.79 14565.9 4004.58 14564.8 4013.22C14563.7 4021.87 14560.9 4030.22 14556.6 4037.79C14552.3 4045.36 14546.5 4052 14539.6 4057.33C14532.7 4062.67 14524.8 4066.59 14516.4 4068.88C14508 4071.16 14499.2 4071.77 14490.5 4070.67C14481.9 4069.56 14473.5 4066.76 14466 4062.43C14458.4 4058.1 14451.8 4052.31 14446.4 4045.42C14441.1 4038.52 14437.2 4030.64 14434.9 4022.22L14429.1 4001.94L14435.1 4000.5C14436.1 4000.17 14437 3999.48 14437.5 3998.55C14438 3997.62 14438.2 3996.53 14438 3995.49C14437.8 3994.97 14437.6 3994.49 14437.3 3994.06C14436.9 3993.64 14436.5 3993.28 14436.1 3993.01C14435.6 3992.75 14435.1 3992.58 14434.6 3992.51C14434 3992.44 14433.5 3992.48 14433 3992.63L14423.2 3995.25C14422.7 3995.39 14422.2 3995.63 14421.8 3995.96C14421.3 3996.29 14421 3996.69 14420.7 3997.16C14420.4 3997.63 14420.3 3998.14 14420.2 3998.67C14420.1 3999.21 14420.2 3999.75 14420.3 4000.26L14427 4024.13C14431.8 4041.83 14443 4057.13 14458.4 4067.08C14473.9 4077.04 14492.4 4080.95 14510.5 4078.07L14522.7 4123.41L14462.6 4139.64C14461.5 4139.91 14460.6 4140.39 14459.7 4141.05C14458.8 4141.7 14458.1 4142.52 14457.6 4143.45C14457.1 4144.38 14456.7 4145.41 14456.6 4146.48C14456.5 4147.54 14456.5 4148.63 14456.8 4149.66L14459 4157.54L14610.8 4116.25L14608.6 4108.37C14608.3 4107.34 14607.9 4106.36 14607.2 4105.51C14606.5 4104.66 14605.7 4103.95 14604.8 4103.42C14603.9 4102.88 14602.8 4102.54 14601.8 4102.41C14600.7 4102.28 14599.6 4102.36 14598.6 4102.65Z" fill="#263238"/>
<path d="M14623.2 3856.83C14599.3 3859.46 14579.5 3896.93 14586.9 3949.67C14594.3 4002.41 14642.7 3945.13 14645.6 3928.43C14648.5 3911.72 14668.8 3852.3 14623.2 3856.83Z" fill="white" stroke="#263238" stroke-width="0.932567" stroke-linecap="round" stroke-linejoin="round"/>
<path d="M14675.7 3935.59C14669.3 3935.49 14663 3936.83 14657.2 3939.49C14651.5 3942.16 14646.4 3946.09 14642.3 3950.99C14638.2 3955.89 14635.3 3961.64 14633.8 3967.81C14632.3 3973.99 14632.1 3980.43 14633.4 3986.66C14638 4037.97 14648 4026.04 14648 4026.04C14648.2 4047.18 14652.5 4068.08 14660.6 4087.61C14672.6 4110.28 14704.1 4075.91 14704.1 4055.39C14704.1 4034.87 14700.7 3927 14675.7 3935.59Z" fill="white" stroke="#263238" stroke-width="0.932567" stroke-linecap="round" stroke-linejoin="round"/>
<path d="M14648.2 4025.09C14648.2 4025.09 14689.5 4012.91 14699.3 3982.84Z" fill="white"/>
<path d="M14648.2 4025.09C14648.2 4025.09 14689.5 4012.91 14699.3 3982.84" stroke="#263238" stroke-width="0.932567" stroke-linecap="round" stroke-linejoin="round"/>
<path d="M14289.5 4242.02C14297.5 4208.99 14298.2 4174.61 14291.4 4141.31C14271.4 4048.95 14326.5 3994.77 14377.1 3921.03C14427.7 3847.29 14451.6 3908.86 14433.4 3952.53C14415.4 3989.76 14393.8 4025.09 14368.8 4058.02C14401 4101.22 14419.3 4153.28 14421 4207.17C14421 4224.6 14421 4276.62 14421 4276.62" fill="white"/>
<path d="M14289.5 4242.02C14297.5 4208.99 14298.2 4174.61 14291.4 4141.31C14271.4 4048.95 14326.5 3994.77 14377.1 3921.03C14427.7 3847.29 14451.6 3908.86 14433.4 3952.53C14415.4 3989.76 14393.8 4025.09 14368.8 4058.02C14401 4101.22 14419.3 4153.28 14421 4207.17C14421 4224.6 14421 4276.62 14421 4276.62" stroke="#263238" stroke-width="0.932567" stroke-linecap="round" stroke-linejoin="round"/>
<path d="M13649.5 3665.2C13732.5 3647.77 13758.1 3626.53 13758.1 3626.53C13695.8 3375.71 13919.2 2532.08 13215.1 2493.18C12511.1 2454.28 12904.9 3649.68 12904.9 3649.68L12981.5 3659.47L12942.1 3419.15L13033.8 3665.43C13304.9 3694.79 13478.6 3689.3 13587.9 3675.46C13573.1 3567.07 13571.5 3457.27 13583.4 3348.51C13597.1 3455.63 13619.2 3561.51 13649.5 3665.2Z" fill="#263238"/>
<path d="M13214.9 2508.21C13187.5 2481.06 13151.8 2463.94 13113.6 2459.6C13075.3 2455.27 13036.6 2463.99 13003.9 2484.35" stroke="#263238" stroke-width="0.932567" stroke-linecap="round" stroke-linejoin="round"/>
<path d="M13751.1 3818.17V3810.54C13749.7 3813.88 13748.3 3816.26 13751.1 3818.17Z" fill="white" stroke="#263238" stroke-width="0.932567" stroke-linecap="round" stroke-linejoin="round"/>
<path d="M14260.9 4314.81L13926.8 4625.05L13933 4160.16C13934.1 4089.95 13917.4 4020.6 13884.6 3958.55C13851.7 3896.51 13803.7 3843.79 13744.9 3805.29L13757.6 5028.85C14085.7 5049.61 14378.1 4405.73 14378.1 4405.73C14366.2 4383.09 14349.5 4363.26 14329.3 4347.58C14309.1 4331.9 14285.8 4320.72 14260.9 4314.81Z" fill="white"/>
<mask id="mask3_2020_8637" style="mask-type:luminance" maskUnits="userSpaceOnUse" x="13744" y="3805" width="635" height="1225">
<path d="M14260.9 4314.81L13926.8 4625.05L13933 4160.16C13934.1 4089.95 13917.4 4020.6 13884.6 3958.55C13851.7 3896.51 13803.7 3843.79 13744.9 3805.29L13757.6 5028.85C14085.7 5049.61 14378.1 4405.73 14378.1 4405.73C14366.2 4383.09 14349.5 4363.26 14329.3 4347.58C14309.1 4331.9 14285.8 4320.72 14260.9 4314.81Z" fill="white"/>
</mask>
<g mask="url(#mask3_2020_8637)">
<path opacity="0.1" d="M13875.5 4878.74C13825.8 4883.27 13814.6 4788.29 13815.3 4695.93C13801.5 4730.68 13792.2 4767.11 13787.9 4804.28C13783.6 4909.53 13783.6 5013.82 13785.3 5103.07C14159 4933.63 14163.5 4782.56 14259.5 4628.39C14198.4 4705.96 13971.2 4869.91 13875.5 4878.74Z" fill="black"/>
</g>
<path d="M14260.9 4314.81L13926.8 4625.05L13933 4160.16C13934.1 4089.95 13917.4 4020.6 13884.6 3958.55C13851.7 3896.51 13803.7 3843.79 13744.9 3805.29L13757.6 5028.85C14085.7 5049.61 14378.1 4405.73 14378.1 4405.73C14366.2 4383.09 14349.5 4363.26 14329.3 4347.58C14309.1 4331.9 14285.8 4320.72 14260.9 4314.81Z" stroke="#263238" stroke-width="0.932567" stroke-linecap="round" stroke-linejoin="round"/>
<path d="M14190 4354.9L14263.3 4285.45L14423.9 4395.71L14377.1 4473.51L14190 4354.9Z" fill="#4CA3FF" stroke="#263238" stroke-width="0.932567" stroke-linecap="round" stroke-linejoin="round"/>
<path d="M13876.9 4389.03C13742.3 4985.66 13809.1 5377.76 13809.1 5377.76C13809.1 5377.76 13484.3 5608.06 12801.5 5412.84C12801.5 5412.84 12925.6 5104.27 12892.2 4868.96C12871.9 4724.09 12735.9 4203.36 12735.9 4203.36C12735.9 4203.36 12671.5 3975.68 12701.1 3791.92C12758.1 3754.93 12880.3 3710.3 13096.3 3694.55C13099.9 3682.47 13102.3 3670.09 13103.7 3657.56C13110.5 3596.88 13112.1 3535.71 13108.2 3474.75C13105.1 3403.16 13099.1 3346.12 13099.1 3346.12H13359.8C13359.8 3346.12 13363.1 3411.99 13371.4 3489.31C13376 3534.89 13382.4 3584.77 13390.5 3627.73C13394.6 3649.23 13399.7 3670.5 13406.1 3691.45C13666.2 3730.59 13764 3798.37 13782.9 3857.31C13871.4 4123.17 13905.5 4261.59 13876.9 4389.03Z" fill="white" stroke="#263238" stroke-width="0.932567" stroke-linecap="round" stroke-linejoin="round"/>
<path d="M13372.2 3531.32C13350.9 3579.05 13324.4 3616.75 13232.6 3616.27C13164.3 3616.27 13102.7 3555.9 13095.8 3532.75C13103.2 3480.48 13095.8 3461.15 13092.7 3401.97C13180.5 3399.49 13268.3 3404.6 13355.2 3417.24C13358.9 3455.53 13364.6 3493.6 13372.2 3531.32Z" fill="#263238"/>
<path d="M13545.4 3020.36C13545.4 2985.04 13545.4 2963.32 13545.4 2963.32C13526.1 2870.73 13411.5 2865.95 13358.8 2866.19C13303.2 2867.99 13247.8 2858.32 13196 2837.79C13213 2878.31 13241 2913.22 13276.9 2938.5C13080.8 2894.83 13065.5 2791.25 13072.9 2735.41C13003.2 2979.07 12912.8 2989.34 12912.8 2989.34C12912.8 2989.34 12912.8 3011.05 12916.8 3046.13C12893.4 3051.51 12872.7 3065.17 12858.5 3084.59C12844.4 3104.02 12837.7 3127.9 12839.7 3151.86C12839.5 3177.66 12849.3 3202.54 12867.1 3221.18C12885 3239.82 12909.4 3250.74 12935.2 3251.61C12940.3 3251.38 12945.5 3250.66 12950.5 3249.47C12992 3410.79 13077.2 3586.2 13251.6 3579.28C13426.1 3572.36 13497.2 3390.51 13525.4 3226.32C13530.5 3226.79 13535.7 3226.79 13540.9 3226.32C13566.7 3223.72 13590.5 3210.99 13607 3190.91C13623.5 3170.83 13631.4 3145.03 13628.9 3119.16C13629 3095.45 13620.7 3072.49 13605.4 3054.38C13590.1 3036.28 13568.8 3024.22 13545.4 3020.36Z" fill="white" stroke="#263238" stroke-width="0.932567" stroke-linecap="round" stroke-linejoin="round"/>
<path d="M13196 3293.62L13226.1 3315.33C13229.9 3318.16 13234.5 3319.69 13239.2 3319.69C13244 3319.69 13248.6 3318.16 13252.4 3315.33L13280 3294.09" stroke="#263238" stroke-width="0.932567" stroke-linecap="round" stroke-linejoin="round"/>
<path d="M13310.6 3157.82C13310.6 3157.82 13347.8 3108.66 13422 3143.27" stroke="#263238" stroke-width="0.932567" stroke-linecap="round" stroke-linejoin="round"/>
<path d="M13148.3 3157.82C13148.3 3157.82 13111.3 3108.66 13036.9 3143.27" stroke="#263238" stroke-width="0.932567" stroke-linecap="round" stroke-linejoin="round"/>
<path d="M13312 3380.25C13291.3 3396.63 13266 3406.03 13239.6 3407.11C13213.2 3408.18 13187.2 3400.86 13165.3 3386.21" stroke="#263238" stroke-width="0.932567" stroke-linecap="round" stroke-linejoin="round"/>
<path d="M13627.3 7512.26C13618.8 7538.45 13608.9 7564.18 13597.7 7589.34" stroke="white" stroke-width="0.932567" stroke-linecap="round" stroke-linejoin="round"/>
<path d="M13278.8 5773.2L13356.6 5842.89C13426.1 5905.04 13471.7 5989.42 13485.8 6081.54C13552.3 6505.15 13659.3 6940.69 13646.1 7400.81" stroke="white" stroke-width="0.932567" stroke-linecap="round" stroke-linejoin="round"/>
<path d="M13573.3 5785.61L13450 5961.98L13465.5 5940.26" stroke="white" stroke-width="0.932567" stroke-linecap="round" stroke-linejoin="round"/>
<path d="M13085.8 5078.01L13121.1 5114.29" stroke="#263238" stroke-width="0.932567" stroke-linecap="round" stroke-linejoin="round"/>
<path d="M12830.2 4578.04C12867.3 4730.27 12933.5 4873.93 13024.9 5001.17" stroke="#263238" stroke-width="0.932567" stroke-linecap="round" stroke-linejoin="round"/>
<path d="M12837 2964.19L12810.6 2965.26L12814.4 3059.45L12840.8 3058.39L12837 2964.19Z" fill="white" stroke="#263238" stroke-width="0.932567" stroke-linecap="round" stroke-linejoin="round"/>
<path d="M13644.9 2930.19L13618.4 2931.26L13622.2 3025.45L13648.7 3024.38L13644.9 2930.19Z" fill="white" stroke="#263238" stroke-width="0.932567" stroke-linecap="round" stroke-linejoin="round"/>
<path d="M13211.1 2536.61C13098.7 2541.18 12992.4 2589.13 12914.6 2670.39C12836.8 2751.65 12793.6 2859.9 12793.9 2972.39C12793.9 2974.5 12794.4 2976.58 12795.2 2978.51C12796.1 2980.45 12797.3 2982.19 12798.9 2983.63C12800.4 2985.08 12802.2 2986.2 12804.2 2986.94C12806.2 2987.67 12808.3 2988 12810.4 2987.9H12838.3C12842.4 2987.72 12846.3 2985.94 12849.1 2982.96C12851.9 2979.97 12853.4 2976.01 12853.3 2971.91C12854 2875.41 12891.8 2782.86 12958.9 2713.5C13026 2644.13 13117.2 2603.27 13213.7 2599.4C13310.1 2595.53 13404.3 2628.95 13476.8 2692.72C13549.2 2756.48 13594.3 2845.7 13602.7 2941.84C13602.9 2945.92 13604.8 2949.73 13607.8 2952.45C13610.9 2955.18 13614.9 2956.6 13618.9 2956.4H13646.9C13649 2956.34 13651 2955.86 13652.9 2954.98C13654.8 2954.09 13656.5 2952.83 13657.9 2951.27C13659.4 2949.71 13660.4 2947.88 13661.1 2945.89C13661.8 2943.9 13662 2941.79 13661.9 2939.7C13653.9 2827.1 13602.3 2722.05 13518.1 2646.81C13434 2571.57 13323.9 2532.05 13211.1 2536.61Z" fill="#4CA3FF" stroke="#263238" stroke-width="0.932567" stroke-linecap="round" stroke-linejoin="round"/>
<path d="M12885.8 3021.79H12879.6C12861.6 3022.53 12843.9 3026.8 12827.6 3034.37C12811.3 3041.93 12796.6 3052.64 12784.4 3065.88C12759.7 3092.62 12746.7 3128.06 12748.2 3164.39C12749.7 3200.72 12765.6 3234.97 12792.3 3259.61C12819 3284.25 12854.5 3297.25 12890.8 3295.76H12896.8L12885.8 3021.79Z" fill="#4CA3FF" stroke="#263238" stroke-width="0.932567" stroke-linecap="round" stroke-linejoin="round"/>
<path d="M12922.8 3157.11C12926.8 3258.78 12934 3324.17 12898.9 3326.31C12863.8 3328.46 12849 3262.12 12845 3159.26C12840.9 3056.4 12850.2 2992.2 12885.3 2989.81C12920.4 2987.43 12918.7 3055.44 12922.8 3157.11Z" fill="white" stroke="#263238" stroke-width="0.932567" stroke-linecap="round" stroke-linejoin="round"/>
<path d="M13575.5 2994.11H13581.7C13599.7 2993.39 13617.6 2996.22 13634.5 3002.44C13651.4 3008.65 13666.9 3018.14 13680.2 3030.35C13693.4 3042.56 13704.1 3057.26 13711.6 3073.6C13719.2 3089.95 13723.5 3107.62 13724.2 3125.61C13724.9 3143.6 13722.1 3161.55 13715.8 3178.45C13709.6 3195.34 13700.1 3210.85 13687.9 3224.08C13675.7 3237.31 13661 3248 13644.7 3255.55C13628.3 3263.1 13610.7 3267.36 13592.7 3268.08H13586.5L13575.5 2994.11Z" fill="#4CA3FF" stroke="#263238" stroke-width="0.932567" stroke-linecap="round" stroke-linejoin="round"/>
<path d="M13548.3 3132.05C13552.3 3233.72 13550.7 3299.11 13585.8 3299.11C13620.8 3299.11 13630.1 3231.09 13626.1 3129.43C13622 3027.76 13607.2 2962.37 13572.4 2963.56C13537.5 2964.76 13544.2 3030.39 13548.3 3132.05Z" fill="white" stroke="#263238" stroke-width="0.932567" stroke-linecap="round" stroke-linejoin="round"/>
<path d="M12985.3 3067.61C12985.3 3067.61 13076.2 2992.44 13162.4 3060.46" stroke="#263238" stroke-width="0.932567" stroke-linecap="round" stroke-linejoin="round"/>
<path d="M13484.3 3052.58C13484.3 3052.58 13388.9 2985.04 13307.2 3059.74" stroke="#263238" stroke-width="0.932567" stroke-linecap="round" stroke-linejoin="round"/>
<path d="M13061.9 3661.38C13061.9 3661.38 13116.3 3797.89 13318.2 3828.43C13318.2 3828.43 13237.6 3995.49 13127.3 3929.86C12995.3 3851.58 12970 3689.06 12970 3689.06L13061.9 3661.38Z" fill="#4CA3FF" stroke="#263238" stroke-width="0.932567" stroke-linecap="round" stroke-linejoin="round"/>
<path d="M13431.8 3678.32C13432.6 3714.66 13420.5 3750.11 13397.7 3778.43C13374.9 3806.75 13342.9 3826.15 13307.2 3833.21C13307.2 3833.21 13405.3 3994.06 13485.8 3904.8C13566.2 3815.55 13503.7 3694.08 13503.7 3694.08L13431.8 3678.32Z" fill="#4CA3FF" stroke="#263238" stroke-width="0.932567" stroke-linecap="round" stroke-linejoin="round"/>
<path d="M13387 4152.04C13387 4156.76 13385.6 4161.38 13382.9 4165.3C13380.3 4169.23 13376.6 4172.29 13372.2 4174.09C13367.9 4175.9 13363.1 4176.37 13358.4 4175.45C13353.8 4174.53 13349.6 4172.26 13346.2 4168.92C13342.9 4165.58 13340.6 4161.33 13339.7 4156.7C13338.8 4152.07 13339.2 4147.27 13341 4142.91C13342.9 4138.55 13345.9 4134.82 13349.8 4132.2C13353.8 4129.58 13358.4 4128.18 13363.1 4128.18C13369.4 4128.18 13375.5 4130.69 13380 4135.17C13384.4 4139.65 13387 4145.72 13387 4152.04Z" fill="#4CA3FF" stroke="#263238" stroke-width="0.932567" stroke-linecap="round" stroke-linejoin="round"/>
<path d="M13419.4 4621.95C13419.4 4626.67 13418 4631.29 13415.4 4635.21C13412.8 4639.13 13409 4642.19 13404.7 4644C13400.3 4645.81 13395.5 4646.28 13390.9 4645.36C13386.3 4644.44 13382 4642.16 13378.7 4638.83C13375.3 4635.49 13373.1 4631.24 13372.1 4626.61C13371.2 4621.98 13371.7 4617.18 13373.5 4612.82C13375.3 4608.46 13378.4 4604.73 13382.3 4602.11C13386.2 4599.49 13390.8 4598.09 13395.5 4598.09C13401.9 4598.09 13407.9 4600.6 13412.4 4605.08C13416.9 4609.55 13419.4 4615.62 13419.4 4621.95Z" fill="#4CA3FF" stroke="#263238" stroke-width="0.932567" stroke-linecap="round" stroke-linejoin="round"/>
<path d="M13450 5103.07C13450 5107.79 13448.6 5112.41 13445.9 5116.33C13443.3 5120.26 13439.6 5123.31 13435.2 5125.12C13430.9 5126.93 13426.1 5127.4 13421.4 5126.48C13416.8 5125.56 13412.6 5123.28 13409.2 5119.95C13405.9 5116.61 13403.6 5112.36 13402.7 5107.73C13401.8 5103.1 13402.2 5098.3 13404 5093.94C13405.9 5089.58 13408.9 5085.85 13412.8 5083.23C13416.8 5080.61 13421.4 5079.21 13426.1 5079.21C13432.4 5079.21 13438.5 5081.72 13443 5086.2C13447.4 5090.67 13450 5096.74 13450 5103.07Z" fill="#4CA3FF" stroke="#263238" stroke-width="0.932567" stroke-linecap="round" stroke-linejoin="round"/>
<path d="M15553 1903.47H10717.4C10695 1903.47 10676.8 1921.64 10676.8 1944.04V2031.15C10676.8 2053.56 10695 2071.72 10717.4 2071.72H15553C15575.4 2071.72 15593.5 2053.56 15593.5 2031.15V1944.04C15593.5 1921.64 15575.4 1903.47 15553 1903.47Z" fill="white"/>
<path d="M15544.8 2071.72H10725.5" stroke="#263238" stroke-width="0.932567" stroke-linecap="round" stroke-linejoin="round"/>
<path d="M10725.5 1903.47H15544.8" stroke="#263238" stroke-width="0.932567" stroke-linecap="round" stroke-linejoin="round"/>
<path d="M12225.7 3035.63C12225.7 3035.63 12026.4 3007.71 12015.7 3061.17C12004.9 3114.63 12010.9 3200.3 12045.3 3228.22C12110.2 3281.2 12098.2 3380.25 12098.2 3380.25L12265.3 3364.02L12269.6 3280.49C12278.2 3253.24 12293.5 3228.61 12314.2 3208.89C12374.4 3152.33 12350.5 3089.57 12340.2 3013.92C12330 2938.26 12280.1 2971.91 12276 3011.05C12274.8 3045.95 12277.7 3080.87 12284.6 3115.1L12225.7 3035.63Z" fill="white" stroke="#263238" stroke-width="0.932567" stroke-linecap="round" stroke-linejoin="round"/>
<path d="M12272.5 3109.14C12272.5 3109.14 12224.7 3118.93 12187 3186.46Z" fill="white"/>
<path d="M12272.5 3109.14C12272.5 3109.14 12224.7 3118.93 12187 3186.46" stroke="#263238" stroke-width="0.932567" stroke-linecap="round" stroke-linejoin="round"/>
<path d="M12272.5 3126.8H12030.9C12014.2 3127.31 11997.6 3123.8 11982.5 3116.58C11967.4 3109.35 11954.2 3098.62 11944.1 3085.27C11935.4 3073.15 11930.8 3058.63 11930.8 3043.75C11930.8 3028.86 11935.4 3014.35 11944.1 3002.22L12064.8 2824.9C12075.3 2811.74 12088.5 2801.1 12103.7 2793.79C12118.8 2786.47 12135.4 2782.68 12152.2 2782.68C12169 2782.68 12185.6 2786.47 12200.7 2793.79C12215.8 2801.1 12229.1 2811.74 12239.5 2824.9L12360.5 3002.22C12369.2 3014.35 12373.8 3028.86 12373.8 3043.75C12373.8 3058.63 12369.2 3073.15 12360.5 3085.27C12350.3 3098.82 12337 3109.68 12321.6 3116.91C12306.3 3124.15 12289.4 3127.54 12272.5 3126.8ZM11986.1 3021.79C11981.5 3028.12 11979.1 3035.72 11979.1 3043.51C11979.1 3051.3 11981.5 3058.9 11986.1 3065.23C11991.3 3072.13 11998.2 3077.69 12006 3081.42C12013.9 3085.16 12022.5 3086.97 12031.2 3086.7H12272.5C12281.1 3086.99 12289.8 3085.18 12297.6 3081.45C12305.5 3077.71 12312.3 3072.15 12317.6 3065.23C12322.1 3058.91 12324.6 3051.31 12324.6 3043.51C12324.6 3035.71 12322.1 3028.11 12317.6 3021.79L12196.8 2844.71C12191.6 2837.63 12184.7 2831.94 12176.7 2828.11C12168.8 2824.29 12160 2822.45 12151.2 2822.76C12142.4 2822.43 12133.7 2824.26 12125.8 2828.09C12117.9 2831.91 12111.1 2837.62 12105.9 2844.71L11984.9 3022.03L11986.1 3021.79Z" fill="#263238"/>
<path d="M12079.4 3038.02C12091.8 3101.02 12084.2 3123.46 12055.5 3120.12C12026.9 3116.78 11998 3039.45 12037.6 3021.79C12077.2 3004.13 12109.2 2990.53 12109.2 2990.53C12121.9 2983.67 12136 2979.86 12150.4 2979.41C12164.8 2978.95 12179.2 2981.86 12192.3 2987.9C12249.1 2968.1 12259.1 3009.38 12259.1 3009.38C12259.1 3009.38 12300.1 3128.71 12266 3132.76C12231.9 3136.82 12203.7 3033.25 12203.7 3033.25C12203.7 3033.25 12246.4 3146.85 12207.3 3148.75C12168.2 3150.66 12145.5 3038.5 12145.5 3038.5C12145.5 3038.5 12171 3137.06 12134 3140.4C12097 3143.74 12079.4 3038.02 12079.4 3038.02Z" fill="white" stroke="#263238" stroke-width="0.932567" stroke-linecap="round" stroke-linejoin="round"/>
<path d="M12169.6 2026.62H12130.5V2810.11H12169.6V2026.62Z" fill="white" stroke="#263238" stroke-width="0.932567" stroke-linecap="round" stroke-linejoin="round"/>
<path d="M12191.3 2797.94L12165.8 2835.41C12164.1 2837.54 12162 2839.26 12159.5 2840.45C12157.1 2841.64 12154.4 2842.25 12151.7 2842.25C12149 2842.25 12146.3 2841.64 12143.9 2840.45C12141.4 2839.26 12139.3 2837.54 12137.6 2835.41L12112.3 2797.94C12106.1 2789.11 12114 2778.13 12126.2 2778.13H12177.2C12189.6 2778.13 12197.3 2790.06 12191.3 2797.94Z" fill="white" stroke="#263238" stroke-width="0.932567" stroke-linecap="round" stroke-linejoin="round"/>
<path d="M12172.7 2534.95H12130.9C12119.5 2534.95 12110.2 2544.24 12110.2 2555.71V2729.45C12110.2 2740.91 12119.5 2750.21 12130.9 2750.21H12172.7C12184.2 2750.21 12193.5 2740.91 12193.5 2729.45V2555.71C12193.5 2544.24 12184.2 2534.95 12172.7 2534.95Z" fill="white" stroke="#263238" stroke-width="0.932567" stroke-linecap="round" stroke-linejoin="round"/>
<path d="M12172.7 1876.5H12130.9C12119.5 1876.5 12110.2 1885.8 12110.2 1897.27V2071C12110.2 2082.47 12119.5 2091.77 12130.9 2091.77H12172.7C12184.2 2091.77 12193.5 2082.47 12193.5 2071V1897.27C12193.5 1885.8 12184.2 1876.5 12172.7 1876.5Z" fill="white" stroke="#263238" stroke-width="0.932567" stroke-linecap="round" stroke-linejoin="round"/>
<path d="M11704.7 3126.8H11463.2C11446.4 3127.31 11429.8 3123.8 11414.7 3116.58C11399.6 3109.36 11386.4 3098.62 11376.3 3085.27C11367.7 3073.15 11363 3058.63 11363 3043.75C11363 3028.86 11367.7 3014.35 11376.3 3002.22L11497.1 2824.9C11507.5 2811.73 11520.8 2801.1 11536 2793.78C11551.1 2786.47 11567.7 2782.67 11584.5 2782.67C11601.4 2782.67 11618 2786.47 11633.1 2793.78C11648.3 2801.1 11661.6 2811.73 11672 2824.9L11792.8 3002.22C11801.4 3014.35 11806 3028.86 11806 3043.75C11806 3058.63 11801.4 3073.15 11792.8 3085.27C11782.6 3098.82 11769.2 3109.68 11753.9 3116.91C11738.5 3124.15 11721.7 3127.54 11704.7 3126.8ZM11418.3 3021.79C11413.8 3028.12 11411.3 3035.72 11411.3 3043.51C11411.3 3051.3 11413.8 3058.9 11418.3 3065.23C11423.6 3072.13 11430.4 3077.69 11438.3 3081.42C11446.1 3085.16 11454.7 3086.97 11463.4 3086.71H11704.9C11713.7 3086.97 11722.3 3085.16 11730.2 3081.42C11738.1 3077.69 11745 3072.14 11750.3 3065.23C11754.8 3058.9 11757.3 3051.3 11757.3 3043.51C11757.3 3035.72 11754.8 3028.12 11750.3 3021.79L11629.5 2844.71C11624.3 2837.64 11617.4 2831.94 11609.4 2828.11C11601.5 2824.29 11592.8 2822.45 11583.9 2822.76C11575.2 2822.43 11566.4 2824.26 11558.5 2828.09C11550.6 2831.91 11543.8 2837.62 11538.6 2844.71L11417.6 3022.03L11418.3 3021.79Z" fill="#263238"/>
<path d="M11601.8 2026.62H11562.7V2810.11H11601.8V2026.62Z" fill="white" stroke="#263238" stroke-width="0.932567" stroke-linecap="round" stroke-linejoin="round"/>
<path d="M11623.6 2797.94L11597.1 2835.41C11595.4 2837.54 11593.3 2839.26 11590.8 2840.45C11588.4 2841.64 11585.7 2842.25 11583 2842.25C11580.3 2842.25 11577.6 2841.64 11575.2 2840.45C11572.7 2839.26 11570.6 2837.54 11568.9 2835.41L11543.6 2797.94C11537.4 2789.11 11545.3 2778.13 11557.5 2778.13H11608.5C11620.9 2778.13 11629.5 2790.06 11623.6 2797.94Z" fill="white" stroke="#263238" stroke-width="0.932567" stroke-linecap="round" stroke-linejoin="round"/>
<path d="M11604.9 2534.95H11563.2C11551.7 2534.95 11542.4 2544.24 11542.4 2555.71V2729.45C11542.4 2740.91 11551.7 2750.21 11563.2 2750.21H11604.9C11616.4 2750.21 11625.7 2740.91 11625.7 2729.45V2555.71C11625.7 2544.24 11616.4 2534.95 11604.9 2534.95Z" fill="white" stroke="#263238" stroke-width="0.932567" stroke-linecap="round" stroke-linejoin="round"/>
<path d="M11604.9 1876.5H11563.2C11551.7 1876.5 11542.4 1885.8 11542.4 1897.27V2071C11542.4 2082.47 11551.7 2091.77 11563.2 2091.77H11604.9C11616.4 2091.77 11625.7 2082.47 11625.7 2071V1897.27C11625.7 1885.8 11616.4 1876.5 11604.9 1876.5Z" fill="white" stroke="#263238" stroke-width="0.932567" stroke-linecap="round" stroke-linejoin="round"/>
<path d="M14165.2 3126.8H13923.7C13906.9 3127.35 13890.3 3123.86 13875.2 3116.63C13860.1 3109.41 13846.9 3098.65 13836.8 3085.27C13828.2 3073.15 13823.5 3058.63 13823.5 3043.75C13823.5 3028.86 13828.2 3014.35 13836.8 3002.22L13957.6 2824.9C13968 2811.74 13981.3 2801.1 13996.4 2793.79C14011.5 2786.47 14028.1 2782.68 14044.9 2782.68C14061.7 2782.68 14078.3 2786.47 14093.4 2793.79C14108.6 2801.1 14121.8 2811.74 14132.3 2824.9L14253 3002.22C14261.7 3014.35 14266.3 3028.86 14266.3 3043.75C14266.3 3058.63 14261.7 3073.15 14253 3085.27C14242.8 3098.79 14229.5 3109.62 14214.2 3116.86C14198.9 3124.09 14182.1 3127.5 14165.2 3126.8ZM13878.8 3021.79C13874.2 3028.11 13871.8 3035.71 13871.8 3043.51C13871.8 3051.31 13874.2 3058.91 13878.8 3065.23C13884.1 3072.15 13890.9 3077.71 13898.8 3081.45C13906.6 3085.18 13915.2 3086.99 13923.9 3086.7H14165.4C14174.1 3086.99 14182.8 3085.18 14190.6 3081.45C14198.4 3077.71 14205.3 3072.15 14210.5 3065.23C14215.1 3058.91 14217.6 3051.31 14217.6 3043.51C14217.6 3035.71 14215.1 3028.11 14210.5 3021.79L14089.8 2844.71C14084.3 2837.85 14077.4 2832.31 14069.5 2828.5C14061.6 2824.7 14053 2822.72 14044.2 2822.72C14035.4 2822.72 14026.8 2824.7 14018.9 2828.5C14011 2832.31 14004.1 2837.85 13998.6 2844.71L13877.9 3022.03L13878.8 3021.79Z" fill="#263238"/>
<path d="M14062.1 2026.62H14023V2810.11H14062.1V2026.62Z" fill="white" stroke="#263238" stroke-width="0.932567" stroke-linecap="round" stroke-linejoin="round"/>
<path d="M14083.8 2797.94L14058.5 2835.41C14056.8 2837.54 14054.7 2839.26 14052.3 2840.45C14049.8 2841.64 14047.2 2842.25 14044.4 2842.25C14041.7 2842.25 14039.1 2841.64 14036.6 2840.45C14034.2 2839.26 14032 2837.54 14030.4 2835.41L14005.1 2797.94C13998.9 2789.11 14006.7 2778.13 14018.9 2778.13H14070C14082.1 2778.13 14090 2790.06 14083.8 2797.94Z" fill="white" stroke="#263238" stroke-width="0.932567" stroke-linecap="round" stroke-linejoin="round"/>
<path d="M14065.4 2534.95H14023.7C14012.2 2534.95 14002.9 2544.24 14002.9 2555.71V2729.45C14002.9 2740.91 14012.2 2750.21 14023.7 2750.21H14065.4C14076.9 2750.21 14086.2 2740.91 14086.2 2729.45V2555.71C14086.2 2544.24 14076.9 2534.95 14065.4 2534.95Z" fill="white" stroke="#263238" stroke-width="0.932567" stroke-linecap="round" stroke-linejoin="round"/>
<path d="M14065.4 1876.5H14023.7C14012.2 1876.5 14002.9 1885.8 14002.9 1897.27V2071C14002.9 2082.47 14012.2 2091.77 14023.7 2091.77H14065.4C14076.9 2091.77 14086.2 2082.47 14086.2 2071V1897.27C14086.2 1885.8 14076.9 1876.5 14065.4 1876.5Z" fill="white" stroke="#263238" stroke-width="0.932567" stroke-linecap="round" stroke-linejoin="round"/>
<path d="M14706.2 3126.8H14464.7C14448 3127.31 14431.3 3123.8 14416.2 3116.58C14401.1 3109.36 14388 3098.62 14377.8 3085.27C14369.2 3073.15 14364.6 3058.63 14364.6 3043.75C14364.6 3028.86 14369.2 3014.35 14377.8 3002.22L14498.6 2824.9C14509.1 2811.73 14522.4 2801.1 14537.5 2793.78C14552.6 2786.47 14569.2 2782.67 14586.1 2782.67C14602.9 2782.67 14619.5 2786.47 14634.6 2793.78C14649.8 2801.1 14663.1 2811.73 14673.5 2824.9L14794.3 3002.22C14802.9 3014.35 14807.6 3028.86 14807.6 3043.75C14807.6 3058.63 14802.9 3073.15 14794.3 3085.27C14784.1 3098.82 14770.7 3109.68 14755.4 3116.91C14740 3124.15 14723.2 3127.54 14706.2 3126.8ZM14419.8 3021.79C14415.3 3028.12 14412.9 3035.72 14412.9 3043.51C14412.9 3051.3 14415.3 3058.9 14419.8 3065.23C14425.1 3072.13 14432 3077.69 14439.8 3081.42C14447.6 3085.16 14456.3 3086.97 14464.9 3086.71H14706.5C14715.2 3086.97 14723.8 3085.16 14731.7 3081.42C14739.6 3077.69 14746.5 3072.14 14751.8 3065.23C14756.4 3058.9 14758.8 3051.3 14758.8 3043.51C14758.8 3035.72 14756.4 3028.12 14751.8 3021.79L14631 2844.71C14625.8 2837.64 14618.9 2831.94 14611 2828.11C14603 2824.29 14594.3 2822.45 14585.5 2822.76C14576.7 2822.43 14568 2824.26 14560.1 2828.09C14552.2 2831.91 14545.3 2837.62 14540.1 2844.71L14419.1 3022.03L14419.8 3021.79Z" fill="#263238"/>
<path d="M14603.4 2026.62H14564.2V2810.11H14603.4V2026.62Z" fill="white" stroke="#263238" stroke-width="0.932567" stroke-linecap="round" stroke-linejoin="round"/>
<path d="M14625.1 2797.94L14599.5 2835.41C14597.9 2837.54 14595.7 2839.26 14593.3 2840.45C14590.9 2841.64 14588.2 2842.25 14585.5 2842.25C14582.8 2842.25 14580.1 2841.64 14577.6 2840.45C14575.2 2839.26 14573.1 2837.54 14571.4 2835.41L14546.1 2797.94C14539.9 2789.11 14547.8 2778.13 14559.9 2778.13H14611C14623.4 2778.13 14631 2790.06 14625.1 2797.94Z" fill="white" stroke="#263238" stroke-width="0.932567" stroke-linecap="round" stroke-linejoin="round"/>
<path d="M14606.5 2534.95H14564.7C14553.2 2534.95 14543.9 2544.24 14543.9 2555.71V2729.45C14543.9 2740.91 14553.2 2750.21 14564.7 2750.21H14606.5C14617.9 2750.21 14627.2 2740.91 14627.2 2729.45V2555.71C14627.2 2544.24 14617.9 2534.95 14606.5 2534.95Z" fill="white" stroke="#263238" stroke-width="0.932567" stroke-linecap="round" stroke-linejoin="round"/>
<path d="M14606.5 1876.5H14564.7C14553.2 1876.5 14543.9 1885.8 14543.9 1897.27V2071C14543.9 2082.47 14553.2 2091.77 14564.7 2091.77H14606.5C14617.9 2091.77 14627.2 2082.47 14627.2 2071V1897.27C14627.2 1885.8 14617.9 1876.5 14606.5 1876.5Z" fill="white" stroke="#263238" stroke-width="0.932567" stroke-linecap="round" stroke-linejoin="round"/>
<path d="M12291.1 3326.31L12303.7 3428.22L12044.1 3440.39L12065.8 3338.25L12291.1 3326.31Z" fill="#4CA3FF" stroke="#263238" stroke-width="0.932567" stroke-linecap="round" stroke-linejoin="round"/>
<path d="M12731.4 4182.83C12731.4 4182.83 12280.6 4597.37 12176.5 4603.81C12151 4605.48 12128.8 4621.47 12107.3 4606.92C12059.6 4574.46 11990.6 4505.73 12000.6 4226.51C12005.9 4073.77 12098.2 3437.28 12098.2 3437.28L12265.3 3429.89L12305.9 4145.84C12449.1 3997.4 12698 3791.68 12698.2 3791.68C12776 4040.36 12731.4 4182.83 12731.4 4182.83Z" fill="white" stroke="#263238" stroke-width="0.932567" stroke-linecap="round" stroke-linejoin="round"/>
<path d="M13868.3 4759.18C13879.6 4709.67 13900.9 4663.03 13931.1 4622.19Z" fill="white"/>
<path d="M13868.3 4759.18C13879.6 4709.67 13900.9 4663.03 13931.1 4622.19" stroke="#263238" stroke-width="0.932567" stroke-linecap="round" stroke-linejoin="round"/>
<path d="M12254.8 4314.33C12272.2 4306.45 12313.7 4228.89 12305.2 4096.44" stroke="#263238" stroke-width="0.932567" stroke-linecap="round" stroke-linejoin="round"/>
<path d="M12414.9 2614.18V2328.99C12415 2315.21 12420.5 2302.01 12430.2 2292.27C12440 2282.53 12453.2 2277.02 12467 2276.96H12914.7C12928.4 2277.02 12941.6 2282.53 12951.4 2292.27C12961.1 2302.01 12966.6 2315.21 12966.7 2328.99V2614.18C12966.7 2627.97 12961.2 2641.21 12951.5 2650.96C12941.7 2660.72 12928.5 2666.2 12914.7 2666.2H12758.8L12771.2 2774.79H12690.8V2877.41L12595.4 2710.35H12673.4L12665.3 2666.44H12466.7C12459.9 2666.41 12453.1 2665.03 12446.8 2662.39C12440.5 2659.75 12434.8 2655.89 12430 2651.03C12425.2 2646.18 12421.4 2640.43 12418.8 2634.1C12416.2 2627.78 12414.9 2621.01 12414.9 2614.18Z" fill="white" stroke="#263238" stroke-width="0.932567" stroke-linecap="round" stroke-linejoin="round"/>
<path d="M12803 2374.57H12500.4" stroke="#263238" stroke-width="0.932567" stroke-linecap="round" stroke-linejoin="round"/>
<path d="M12881.3 2455.47H12500.4" stroke="#263238" stroke-width="0.932567" stroke-linecap="round" stroke-linejoin="round"/>
<path d="M12822.5 2536.14H12500.4" stroke="#263238" stroke-width="0.932567" stroke-linecap="round" stroke-linejoin="round"/>
<path d="M2457.68 9672.77C3073.07 9672.77 3571.94 9599.37 3571.94 9508.82C3571.94 9418.27 3073.07 9344.86 2457.68 9344.86C1842.29 9344.86 1343.42 9418.27 1343.42 9508.82C1343.42 9599.37 1842.29 9672.77 2457.68 9672.77Z" fill="#4CA3FF"/>
<path d="M2360.07 6896.06C3431.76 6896.06 4300.54 6027.28 4300.54 4955.59C4300.54 3883.89 3431.76 3015.11 2360.07 3015.11C1288.37 3015.11 419.595 3883.89 419.595 4955.59C419.595 6027.28 1288.37 6896.06 2360.07 6896.06Z" fill="#4CA3FF"/>
<path d="M1465.13 6224.5C1465.13 6224.5 1514.53 6510.88 1347.71 6832.82H3433.76C3433.76 6832.82 3338.3 6682.71 3238.31 6224.5H1465.13Z" fill="white" stroke="#263238" stroke-width="0.87381" stroke-linecap="round" stroke-linejoin="round"/>
<path d="M1940.76 6290.6C1826.57 6299.75 1717.13 6340.24 1624.49 6407.61C1531.85 6474.99 1459.61 6566.63 1415.73 6672.44C1393.29 6726.86 1369.91 6781.99 1347.71 6833.53C1220.75 7127.31 1340.79 7554.74 1665.36 7554.74H3153.59C3447.84 7554.74 3528.27 7182.2 3457.87 6901.55C3412.52 6721.13 3321.12 6539.99 3165.04 6413.03C2956.46 6242.4 2346.94 6258.15 1940.76 6290.6Z" fill="#263238" stroke="#263238" stroke-width="0.87381" stroke-linecap="round" stroke-linejoin="round"/>
<path d="M519.829 5975.34C519.829 5975.34 253.017 6136.67 244.187 6224.49H571.378L701.443 6131.18L657.531 6224.97H757.048C757.048 6224.97 862.771 6142.88 868.499 6051.95L857.759 5975.34L666.838 5890.38L519.829 5975.34Z" fill="white" stroke="#263238" stroke-width="0.87381" stroke-linecap="round" stroke-linejoin="round"/>
<path d="M3645.21 5382.77C3645.21 5382.77 3602.49 5101.88 3508.7 4697.37C3414.91 4292.85 3231.62 4261.11 3231.62 4261.11H3229.95C2991.3 4158.49 2370.81 4103.12 2370.81 4103.12H2342.17C2342.17 4103.12 1720.24 4158.49 1483.03 4261.11H1481.35C1481.35 4261.11 1296.4 4293.57 1202.61 4697.37C1108.82 5101.17 1065.86 5382.77 1065.86 5382.77C1065.86 5382.77 896.42 5428.6 591.424 5812.35C543.539 5873.2 502.782 5939.34 469.95 6009.47C469.95 6009.47 704.306 5932.39 868.498 6050.52C868.498 6050.52 1406.42 5822.37 1433.39 5581.81C1433.39 5573.22 1435.53 5563.67 1436.73 5553.41C1452 5918.55 1465.13 6223.54 1465.13 6223.54H3245.94C3245.94 6223.54 3259.31 5918.55 3274.58 5553.41C3274.58 5563.67 3276.73 5573.22 3277.68 5581.81C3304.89 5822.37 3900.33 6092.05 3900.33 6092.05C4063.56 5840.98 4300.54 5979.64 4300.54 5979.64L3645.21 5382.77Z" fill="white"/>
<mask id="mask4_2020_8637" style="mask-type:luminance" maskUnits="userSpaceOnUse" x="469" y="4103" width="3832" height="2121">
<path d="M3645.21 5382.77C3645.21 5382.77 3602.49 5101.88 3508.7 4697.37C3414.91 4292.85 3231.62 4261.11 3231.62 4261.11H3229.95C2991.3 4158.49 2370.81 4103.12 2370.81 4103.12H2342.17C2342.17 4103.12 1720.24 4158.49 1483.03 4261.11H1481.35C1481.35 4261.11 1296.4 4293.57 1202.61 4697.37C1108.82 5101.17 1065.86 5382.77 1065.86 5382.77C1065.86 5382.77 896.42 5428.6 591.424 5812.35C543.539 5873.2 502.782 5939.34 469.95 6009.47C469.95 6009.47 704.306 5932.39 868.498 6050.52C868.498 6050.52 1406.42 5822.37 1433.39 5581.81C1433.39 5573.22 1435.53 5563.67 1436.73 5553.41C1452 5918.55 1465.13 6223.54 1465.13 6223.54H3245.94C3245.94 6223.54 3259.31 5918.55 3274.58 5553.41C3274.58 5563.67 3276.73 5573.22 3277.68 5581.81C3304.89 5822.37 3900.33 6092.05 3900.33 6092.05C4063.56 5840.98 4300.54 5979.64 4300.54 5979.64L3645.21 5382.77Z" fill="white"/>
</mask>
<g mask="url(#mask4_2020_8637)">
<path opacity="0.3" d="M1433.39 5582.29C1433.39 5575.13 1435.3 5567.01 1436.25 5558.42L1397.35 4713.36C1397.35 4713.36 1289.96 4735.31 1320.74 4994.73C1351.53 5254.14 1416.2 5209.51 1380.17 5309.51C1344.13 5409.5 1204.28 5294.95 1157.98 5381.1C1111.68 5467.26 1416.68 5448.88 1290.67 5670.82C1164.66 5892.77 868.498 6052.67 868.498 6052.67C868.498 6052.67 1406.66 5823.32 1433.39 5582.29Z" fill="black"/>
<g opacity="0.3">
<path d="M3286.04 5582.29C3356.2 5587.54 3286.04 5575.13 3286.04 5582.29L3307.28 4858.93C3307.28 4858.93 3302.03 5208.8 3339.5 5309.51C3376.96 5410.22 3515.38 5294.95 3561.44 5381.1C3607.5 5467.26 3302.74 5448.88 3428.99 5670.83C3555.24 5892.77 3850.92 6052.67 3850.92 6052.67C3850.92 6052.67 3313.24 5823.32 3286.04 5582.29Z" fill="black"/>
</g>
<path opacity="0.3" d="M3258.83 5746.95C3247.14 6020.69 3238.31 6224.26 3238.31 6224.26H1637.19C2711.13 6224.26 3260.02 5746.95 3260.02 5746.95H3258.83Z" fill="black"/>
</g>
<path d="M3645.21 5382.77C3645.21 5382.77 3602.49 5101.88 3508.7 4697.37C3414.91 4292.85 3231.62 4261.11 3231.62 4261.11H3229.95C2991.3 4158.49 2370.81 4103.12 2370.81 4103.12H2342.17C2342.17 4103.12 1720.24 4158.49 1483.03 4261.11H1481.35C1481.35 4261.11 1296.4 4293.57 1202.61 4697.37C1108.82 5101.17 1065.86 5382.77 1065.86 5382.77C1065.86 5382.77 896.42 5428.6 591.424 5812.35C543.539 5873.2 502.782 5939.34 469.95 6009.47C469.95 6009.47 704.306 5932.39 868.498 6050.52C868.498 6050.52 1406.42 5822.37 1433.39 5581.81C1433.39 5573.22 1435.53 5563.67 1436.73 5553.41C1452 5918.55 1465.13 6223.54 1465.13 6223.54H3245.94C3245.94 6223.54 3259.31 5918.55 3274.58 5553.41C3274.58 5563.67 3276.73 5573.22 3277.68 5581.81C3304.89 5822.37 3900.33 6092.05 3900.33 6092.05C4063.56 5840.98 4300.54 5979.64 4300.54 5979.64L3645.21 5382.77Z" stroke="#263238" stroke-width="0.87381" stroke-linecap="round" stroke-linejoin="round"/>
<path d="M1122.9 5381.1C1208.78 5376.79 1292.94 5406.16 1357.49 5462.96" stroke="#263238" stroke-width="0.87381" stroke-linecap="round" stroke-linejoin="round"/>
<path d="M1290.67 4738.65C1290.67 4738.65 1400.93 4762.52 1426.23 5298.53L1393.05 4594.98" stroke="#263238" stroke-width="0.87381" stroke-linecap="round" stroke-linejoin="round"/>
<path d="M1427.66 5372.99L1432.67 5481.57" stroke="#263238" stroke-width="0.87381" stroke-linecap="round" stroke-linejoin="round"/>
<path d="M3588.41 5381.1C3502.7 5376.46 3418.55 5405.39 3353.81 5461.76" stroke="#263238" stroke-width="0.87381" stroke-linecap="round" stroke-linejoin="round"/>
<path d="M3311.57 4738.65C3313.64 4690.92 3315.87 4643.19 3318.26 4595.46" stroke="#263238" stroke-width="0.87381" stroke-linecap="round" stroke-linejoin="round"/>
<path d="M2689.89 4141.78C2661.01 4286.41 2521.16 4338.67 2352.67 4338.67C2184.18 4338.67 2044.81 4286.65 2015.46 4142.5H2022.14C2039.59 4140.12 2055.91 4132.51 2068.95 4120.66C2081.99 4108.82 2091.13 4093.3 2095.17 4076.16C2097.5 4069.32 2098.71 4062.14 2098.75 4054.92V3885.23H2614.23V4054.92C2614.17 4065.53 2616.12 4076.05 2619.96 4085.94C2625.52 4100.68 2634.95 4113.64 2647.25 4123.47C2659.56 4133.29 2674.29 4139.62 2689.89 4141.78Z" fill="white"/>
<mask id="mask5_2020_8637" style="mask-type:luminance" maskUnits="userSpaceOnUse" x="2015" y="3885" width="675" height="454">
<path d="M2689.89 4141.78C2661.01 4286.41 2521.16 4338.67 2352.67 4338.67C2184.18 4338.67 2044.81 4286.65 2015.46 4142.5H2022.14C2039.59 4140.12 2055.91 4132.51 2068.95 4120.66C2081.99 4108.82 2091.13 4093.3 2095.17 4076.16C2097.5 4069.32 2098.71 4062.14 2098.75 4054.92V3885.23H2614.23V4054.92C2614.17 4065.53 2616.12 4076.05 2619.96 4085.94C2625.52 4100.68 2634.95 4113.64 2647.25 4123.47C2659.56 4133.29 2674.29 4139.62 2689.89 4141.78Z" fill="white"/>
</mask>
<g mask="url(#mask5_2020_8637)">
<path d="M2609.94 4012.2C2524.5 4096.2 2429.28 4148.47 2337.4 4152.52C2241.94 4156.82 2131.2 4078.54 2086.1 4001.69C2087.96 3995.02 2088.85 3988.1 2088.72 3981.17V3929.14L2604.21 3934.63V3981.17C2604.21 3992.15 2617.34 4005.04 2609.94 4012.2Z" fill="#263238"/>
</g>
<path d="M2689.89 4141.78C2661.01 4286.41 2521.16 4338.67 2352.67 4338.67C2184.18 4338.67 2044.81 4286.65 2015.46 4142.5H2022.14C2039.59 4140.12 2055.91 4132.51 2068.95 4120.66C2081.99 4108.82 2091.13 4093.3 2095.17 4076.16C2097.5 4069.32 2098.71 4062.14 2098.75 4054.92V3885.23H2614.23V4054.92C2614.17 4065.53 2616.12 4076.05 2619.96 4085.94C2625.52 4100.68 2634.95 4113.64 2647.25 4123.47C2659.56 4133.29 2674.29 4139.62 2689.89 4141.78Z" stroke="#263238" stroke-width="0.87381" stroke-linecap="round" stroke-linejoin="round"/>
<path d="M1976.08 3520.81C1976.08 3520.81 1797.33 3318.68 1820.72 3040.17C1844.11 2761.66 2072.73 2761.66 2072.73 2761.66C2072.73 2761.66 2348.38 2518.48 2656 2670.74C2963.62 2823 2942.38 3350.89 2714.71 3482.15L1976.08 3520.81Z" fill="#263238"/>
<path d="M2764.11 3384.78C2766.49 3338.48 2766.25 3309.84 2766.25 3309.84C2745.73 3186.7 2595.14 3174.29 2525.93 3172.14C2235.97 3162.36 2159.6 2984.56 2159.6 2984.56C1983.72 2931.82 1933.84 3309.84 1933.84 3309.84C1933.84 3309.84 1933.84 3338.48 1936.22 3384.78C1905.16 3390.71 1877.26 3407.62 1857.63 3432.42C1838 3457.22 1827.95 3488.26 1829.31 3519.86C1829.31 3595.27 1883.72 3656.13 1951.02 3656.13C1957.83 3656.1 1964.62 3655.46 1971.31 3654.22L2002.81 3831.78C2008.77 3871.63 2046.24 3965.9 2079.89 3988.33C2151.49 4036.06 2264.85 4104.08 2350.05 4104.08C2423.55 4104.08 2526.65 4043.46 2602.78 4002.17C2645.26 3978.31 2692.03 3886.9 2696.09 3838.93L2715.9 3659.47C2727.09 3658.93 2738.24 3657.82 2749.31 3656.13C2816.37 3656.13 2871.02 3595.27 2871.02 3519.86C2872.39 3488.26 2862.33 3457.22 2842.7 3432.42C2823.07 3407.62 2795.18 3390.71 2764.11 3384.78Z" fill="white" stroke="#263238" stroke-width="0.87381" stroke-linecap="round" stroke-linejoin="round"/>
<path d="M1876.08 3270.23H1844.58V3382.4H1876.08V3270.23Z" fill="white" stroke="#263238" stroke-width="0.87381" stroke-linecap="round" stroke-linejoin="round"/>
<path d="M2838.57 3270.23H2807.06V3382.4H2838.57V3270.23Z" fill="white" stroke="#263238" stroke-width="0.87381" stroke-linecap="round" stroke-linejoin="round"/>
<path d="M2341.45 2780.28C2207.48 2780.25 2078.72 2832.19 1982.26 2925.18C1885.81 3018.16 1829.18 3144.93 1824.3 3278.82C1824.2 3281.31 1824.61 3283.8 1825.51 3286.13C1826.4 3288.46 1827.76 3290.58 1829.5 3292.37C1831.24 3294.15 1833.33 3295.57 1835.64 3296.52C1837.94 3297.47 1840.42 3297.95 1842.91 3297.91H1876.32C1881.18 3297.91 1885.84 3296.02 1889.32 3292.63C1892.8 3289.24 1894.81 3284.63 1894.94 3279.77C1900.25 3164.92 1949.61 3056.53 2032.77 2977.13C2115.93 2897.74 2226.48 2853.43 2341.45 2853.43C2456.43 2853.43 2566.98 2897.74 2650.14 2977.13C2733.3 3056.53 2782.66 3164.92 2787.97 3279.77C2788.16 3284.65 2790.22 3289.26 2793.74 3292.65C2797.26 3296.03 2801.95 3297.92 2806.83 3297.91H2840C2842.5 3297.95 2844.99 3297.47 2847.31 3296.52C2849.63 3295.57 2851.73 3294.16 2853.49 3292.38C2855.25 3290.6 2856.63 3288.48 2857.55 3286.15C2858.47 3283.82 2858.92 3281.32 2858.85 3278.82C2853.91 3144.91 2797.23 3018.14 2700.74 2925.16C2604.24 2832.18 2475.45 2780.25 2341.45 2780.28Z" fill="white" stroke="#263238" stroke-width="0.87381" stroke-linecap="round" stroke-linejoin="round"/>
<path d="M1929.78 3342.06H1922.62C1880.38 3343.68 1840.4 3361.59 1811.08 3392.05C1781.77 3422.51 1765.39 3463.14 1765.39 3505.42C1765.39 3547.69 1781.77 3588.33 1811.08 3618.79C1840.4 3649.24 1880.38 3667.16 1922.62 3668.78H1929.78V3342.06Z" fill="#263238" stroke="#263238" stroke-width="0.87381" stroke-miterlimit="10"/>
<path d="M1968.68 3506.02C1968.68 3627.01 1973.93 3705.77 1932.17 3705.77C1890.4 3705.77 1876.08 3627.01 1876.08 3506.02C1876.08 3385.02 1890.4 3306.03 1932.17 3306.03C1973.93 3306.03 1968.68 3383.83 1968.68 3506.02Z" fill="white" stroke="#263238" stroke-width="0.87381" stroke-linecap="round" stroke-linejoin="round"/>
<path d="M2753.37 3342.06H2760.53C2802.77 3343.68 2842.75 3361.59 2872.06 3392.05C2901.38 3422.51 2917.76 3463.14 2917.76 3505.42C2917.76 3547.69 2901.38 3588.33 2872.06 3618.79C2842.75 3649.24 2802.77 3667.16 2760.53 3668.78H2753.37V3342.06Z" fill="#263238" stroke="#263238" stroke-width="0.87381" stroke-miterlimit="10"/>
<path d="M2714.23 3506.02C2714.23 3627.01 2709.22 3705.77 2750.98 3705.77C2792.75 3705.77 2807.06 3627.01 2807.06 3506.02C2807.06 3385.02 2792.75 3306.03 2750.98 3306.03C2709.22 3306.03 2714.23 3383.83 2714.23 3506.02Z" fill="white" stroke="#263238" stroke-width="0.87381" stroke-linecap="round" stroke-linejoin="round"/>
<path d="M2062.23 3535.37C2062.23 3535.37 2130.25 3619.14 2257.69 3553.03" stroke="#263238" stroke-width="0.87381" stroke-linecap="round" stroke-linejoin="round"/>
<path d="M2257.69 3861.13C2285.82 3881.57 2319.69 3892.57 2354.46 3892.57C2389.23 3892.57 2423.1 3881.57 2451.23 3861.13" stroke="#263238" stroke-width="0.75" stroke-linecap="round" stroke-linejoin="round"/>
<path d="M2043.38 3422.97C2043.38 3422.97 2166.76 3328.94 2276.54 3422.97" stroke="#263238" stroke-width="0.87381" stroke-linecap="round" stroke-linejoin="round"/>
<path d="M2649.32 3426.07C2649.32 3426.07 2525.93 3330.61 2416.15 3426.07" stroke="#263238" stroke-width="0.87381" stroke-linecap="round" stroke-linejoin="round"/>
<path d="M2444.08 3729.39C2444.08 3729.39 2455.05 3790.49 2343.13 3789.06C2315.68 3789.06 2265.8 3769.49 2264.13 3729.39" stroke="#263238" stroke-width="0.75" stroke-linecap="round" stroke-linejoin="round"/>
<path d="M2088.96 3557.57C2099.22 3577.85 2122.37 3601.24 2174.16 3602.43C2225.95 3603.63 2235.02 3583.1 2235.97 3563.06C2212.89 3574.25 2187.42 3579.61 2161.78 3578.65C2136.15 3577.7 2111.14 3570.46 2088.96 3557.57Z" fill="#263238"/>
<path d="M2631.42 3535.37C2631.42 3535.37 2563.4 3619.14 2435.96 3553.03" stroke="#263238" stroke-width="0.87381" stroke-linecap="round" stroke-linejoin="round"/>
<path d="M2604.69 3557.57C2594.43 3577.85 2571.28 3601.24 2519.49 3602.43C2467.7 3603.63 2458.63 3583.1 2457.68 3563.06C2480.75 3574.27 2506.23 3579.64 2531.87 3578.69C2557.51 3577.73 2582.52 3570.48 2604.69 3557.57Z" fill="#263238"/>
<path d="M2131.44 2645.44C2131.44 2645.44 2068.68 2680.52 2075.6 2780.28C2075.6 2780.28 2053.64 2712.98 1972.98 2742.33" stroke="#263238" stroke-width="0.87381" stroke-linecap="round" stroke-linejoin="round"/>
<path d="M2355.54 4412.89C2437.79 4412.88 2518.03 4387.44 2585.28 4340.06C2652.52 4292.68 2703.48 4225.68 2731.17 4148.23C2709.46 4144.89 2687.98 4142.02 2667.21 4139.16C2634.51 4192.42 2588.7 4236.4 2534.15 4266.92C2479.61 4297.43 2418.15 4313.45 2355.65 4313.45C2293.16 4313.45 2231.7 4297.43 2177.16 4266.92C2122.61 4236.4 2076.8 4192.42 2044.1 4139.16C2023.33 4142.02 2001.85 4144.89 1980.14 4148.23C2007.82 4225.64 2058.74 4292.62 2125.94 4339.99C2193.13 4387.36 2273.32 4412.83 2355.54 4412.89Z" fill="#263238" stroke="#263238" stroke-width="0.87381" stroke-linecap="round" stroke-linejoin="round"/>
<path d="M3274.58 5554.36C3285.08 5321.76 3295.66 5089.07 3306.32 4856.31" stroke="#263238" stroke-width="0.87381" stroke-linecap="round" stroke-linejoin="round"/>
<path d="M3282.46 3176.92V2919.89C3282.46 2907.23 3277.43 2895.09 3268.48 2886.14C3259.53 2877.19 3247.39 2872.16 3234.73 2872.16H2832.36C2819.7 2872.16 2807.56 2877.19 2798.61 2886.14C2789.66 2895.09 2784.63 2907.23 2784.63 2919.89V3176.92C2784.63 3189.58 2789.66 3201.72 2798.61 3210.67C2807.56 3219.62 2819.7 3224.65 2832.36 3224.65H2972.69L2961.47 3322.5H3033.07V3414.85L3118.74 3264.26H3048.34L3055.74 3224.65H3234.49C3240.78 3224.68 3247.01 3223.47 3252.83 3221.08C3258.65 3218.7 3263.94 3215.19 3268.39 3210.75C3272.85 3206.32 3276.39 3201.05 3278.8 3195.24C3281.22 3189.43 3282.46 3183.21 3282.46 3176.92Z" fill="white" stroke="#263238" stroke-width="0.87381" stroke-linecap="round" stroke-linejoin="round"/>
<path d="M2862.43 2961.18H3135.21" stroke="#263238" stroke-width="0.87381" stroke-linecap="round" stroke-linejoin="round"/>
<path d="M2862.43 3033.96H3205.37" stroke="#263238" stroke-width="0.87381" stroke-linecap="round" stroke-linejoin="round"/>
<path d="M2862.43 3106.75H3152.63" stroke="#263238" stroke-width="0.87381" stroke-linecap="round" stroke-linejoin="round"/>
<path d="M4518.67 6100.16C4518.67 6176.05 4399.35 6223.54 4252.81 6223.54C4106.28 6223.54 3986.96 6175.81 3986.96 6100.16C3986.96 6024.51 4106.28 5962.46 4252.81 5962.46C4399.35 5962.46 4518.67 6024.03 4518.67 6100.16Z" fill="white" stroke="#263238" stroke-width="0.87381" stroke-linecap="round" stroke-linejoin="round"/>
<path d="M4080.75 6196.1C4087.91 6194.43 4093.63 6154.33 4028.96 6124.5C3984.09 6103.98 3982.9 6082.26 4008.67 6055.53C4034.45 6028.8 4078.36 6006.37 4112.25 6016.15C4167.38 6031.9 4203.89 6146.7 4228.47 6121.88C4265.46 6112.33 4220.83 6007.09 4154.73 5972.48C4274.05 6002.07 4279.78 6139.54 4334.67 6128.56C4376.67 6120.44 4304.12 5983.94 4241.36 5943.6C4281.58 5962.35 4316.76 5990.41 4343.98 6025.46C4383.83 6083.45 4388.37 6103.02 4415.57 6094.67C4450.89 6083.45 4366.65 5956.01 4356.15 5942.17C4409.13 5963.17 4419.15 6007.56 4435.38 6025.46C4451.61 6043.36 4459.25 6073.19 4481.68 6061.5C4504.11 6049.8 4483.35 6008.28 4468.32 5983.94C4396.72 5868.19 4277.4 5848.86 4163.8 5863.18C4074.06 5874.63 3970.97 5912.34 3916.32 5983.94C3902.41 6001.78 3894.24 6023.41 3892.87 6045.99C3891.51 6068.57 3897.02 6091.04 3908.68 6110.42C3927.77 6150.75 3996.03 6215.19 4080.75 6196.1Z" fill="white" stroke="#263238" stroke-width="0.87381" stroke-linecap="round" stroke-linejoin="round"/>
<path d="M4588.36 6224.5H196.456C183.407 6224.5 172.829 6235.07 172.829 6248.12V6286.07C172.829 6299.12 183.407 6309.69 196.456 6309.69H4588.36C4601.41 6309.69 4611.98 6299.12 4611.98 6286.07V6248.12C4611.98 6235.07 4601.41 6224.5 4588.36 6224.5Z" fill="#BFBFBF" stroke="#263238" stroke-width="0.87381" stroke-miterlimit="10"/>
<path d="M325.328 6224.49L2.19379 5242.44C0.975954 5238.62 0.659869 5234.56 1.2703 5230.6C1.88073 5226.63 3.40103 5222.86 5.71233 5219.57C8.02363 5216.29 11.0632 5213.59 14.593 5211.68C18.1228 5209.77 22.0472 5208.7 26.0589 5208.55H1046.77L1410.24 6224.49H325.328Z" fill="#263238"/>
<path d="M1074.69 5208.55L1408.8 6167.46H2303.75V6201.11C2303.75 6207.44 2301.23 6213.51 2296.76 6217.98C2292.28 6222.46 2286.21 6224.97 2279.88 6224.97H1351.53L1030.07 5248.17C1028.64 5243.78 1028.27 5239.12 1028.98 5234.57C1029.69 5230.01 1031.47 5225.68 1034.17 5221.94C1036.86 5218.2 1040.4 5215.15 1044.5 5213.03C1048.6 5210.91 1053.14 5209.78 1057.75 5209.75L1074.69 5208.55Z" fill="white" stroke="#263238" stroke-width="0.87381" stroke-linecap="round" stroke-linejoin="round"/>
<path d="M600.732 5716.65C597.579 5699.96 589.807 5684.5 578.299 5672.02C583.295 5666.12 589.56 5661.42 596.627 5658.28C603.693 5655.14 611.379 5653.63 619.108 5653.88C637.146 5654.65 654.44 5661.29 668.356 5672.79C682.271 5684.29 692.047 5700.03 696.193 5717.6C698.399 5725.21 698.761 5733.24 697.248 5741.02C695.735 5748.79 692.391 5756.1 687.493 5762.33C682.594 5768.56 676.282 5773.53 669.08 5776.83C661.877 5780.13 653.992 5781.67 646.076 5781.32C627.774 5780.9 610.203 5774.06 596.436 5761.99C603.319 5747.9 604.846 5731.78 600.732 5716.65Z" fill="white"/>
<path d="M2668.65 6224.49H2994.88C3038.34 6192.68 3073.56 6150.93 3097.6 6102.73C3121.64 6054.53 3133.8 6001.28 3133.06 5947.42V5793.97C3133.06 5788.14 3131.91 5782.37 3129.68 5776.98C3127.45 5771.59 3124.18 5766.7 3120.06 5762.58C3115.94 5758.46 3111.05 5755.19 3105.66 5752.96C3100.27 5750.73 3094.5 5749.58 3088.67 5749.58H2576.05C2570.23 5749.58 2564.47 5750.73 2559.1 5752.96C2553.73 5755.19 2548.85 5758.47 2544.75 5762.59C2540.64 5766.72 2537.4 5771.61 2535.19 5777C2532.99 5782.38 2531.87 5788.15 2531.9 5793.97V5947.42C2530.98 6001.16 2542.91 6054.33 2566.7 6102.53C2590.48 6150.72 2625.44 6192.54 2668.65 6224.49Z" fill="white" stroke="#263238" stroke-width="0.87381" stroke-linecap="round" stroke-linejoin="round"/>
<path d="M3225.66 5814.97C3211.91 5806.31 3196.15 5801.37 3179.93 5800.62C3163.7 5799.86 3147.55 5803.33 3133.06 5810.67V5866.04C3147.2 5863.67 3161.71 5866.56 3173.87 5874.15C3219.93 5900.88 3210.15 5955.53 3177.93 6011.14C3163.19 6042.66 3137.85 6068 3106.33 6082.73C3096.91 6105.7 3084.99 6127.55 3070.77 6147.89C3132.11 6161.25 3188.19 6109.22 3232.1 6033.33C3283.65 5944.08 3299.16 5857.45 3225.66 5814.97Z" fill="white" stroke="#263238" stroke-width="0.87381" stroke-linecap="round" stroke-linejoin="round"/>
<path d="M2838.57 5507.83C2850.42 5469.17 2856.3 5428.93 2855.99 5388.5C2855.99 5164.17 2645.02 5137.68 2645.02 4882.8" stroke="#263238" stroke-width="0.87381" stroke-linecap="round" stroke-linejoin="round"/>
<path d="M2688.93 5705.67C2727.14 5681.87 2760.18 5650.62 2786.06 5613.79" stroke="#263238" stroke-width="0.87381" stroke-linecap="round" stroke-linejoin="round"/>
<path d="M2820.19 5096.63C2808.4 5074.73 2803.49 5049.77 2806.11 5025.04" stroke="#263238" stroke-width="0.87381" stroke-linecap="round" stroke-linejoin="round"/>
<path d="M2984.62 5411.65C2973.88 5341.48 2933.55 5275.62 2893.69 5215.71" stroke="#263238" stroke-width="0.87381" stroke-linecap="round" stroke-linejoin="round"/>
<path d="M2862.43 5708.29C2862.43 5708.29 2932.12 5678.94 2970.3 5546.49" stroke="#263238" stroke-width="0.87381" stroke-linecap="round" stroke-linejoin="round"/>
<path d="M3288.66 7554.02H1501.64C1371.16 7554.02 1265.38 7659.8 1265.38 7790.29V8971.61C1265.38 9102.1 1371.16 9207.88 1501.64 9207.88H3288.66C3419.15 9207.88 3524.93 9102.1 3524.93 8971.61V7790.29C3524.93 7659.8 3419.15 7554.02 3288.66 7554.02Z" fill="white" stroke="#263238" stroke-width="0.87381" stroke-miterlimit="10"/>
<path d="M1830.26 8691.91L1857.23 9163.73L1860.33 9167.79C1881.69 9196.45 1909.52 9219.66 1941.55 9235.51C1973.58 9251.37 2008.91 9259.43 2044.65 9259.04C2080.39 9258.64 2115.53 9249.8 2147.21 9233.24C2178.88 9216.67 2206.19 9192.86 2226.9 9163.73L2236.93 8691.91H1830.26Z" fill="white" stroke="#263238" stroke-width="0.87381" stroke-linecap="round" stroke-linejoin="round"/>
<path d="M2326.18 9624.8C2145.15 9656.54 1959.98 9656.54 1778.95 9624.8C1762.05 9608.08 1747.52 9589.13 1735.76 9568.48C1717.46 9535.91 1707.12 9499.47 1705.59 9462.14C1704.05 9424.82 1711.37 9387.66 1726.93 9353.69L1835.99 9159.19L2268.19 9163.96L2365.56 9341.52C2388.92 9383.66 2398.99 9431.88 2394.43 9479.84C2389.88 9527.8 2370.91 9573.26 2340.02 9610.24C2335.67 9615.33 2331.05 9620.19 2326.18 9624.8Z" fill="#BFBFBF" stroke="#263238" stroke-width="0.87381" stroke-miterlimit="10"/>
<path d="M2219.98 9379.95C2246.72 9391.71 2272.22 9406.1 2296.11 9422.9Z" fill="#BFBFBF"/>
<path d="M2219.98 9379.95C2246.72 9391.71 2272.22 9406.1 2296.11 9422.9" stroke="#263238" stroke-width="0.87381" stroke-miterlimit="10"/>
<path d="M1812.37 9422.9C1859.8 9390.43 1913.21 9367.7 1969.5 9356.02C2025.79 9344.35 2083.83 9343.96 2140.27 9354.89" fill="#BFBFBF"/>
<path d="M1812.37 9422.9C1859.8 9390.43 1913.21 9367.7 1969.5 9356.02C2025.79 9344.35 2083.83 9343.96 2140.27 9354.89" stroke="#263238" stroke-width="0.87381" stroke-miterlimit="10"/>
<path d="M1597.58 6744.76L1788.5 8932.71H2282.27C2282.27 8932.71 2331.19 7596.26 2362.22 6728.53C2364.25 6677.05 2355.84 6625.7 2337.5 6577.56C2319.16 6529.42 2291.27 6485.49 2255.51 6448.41C2219.74 6411.33 2176.85 6381.87 2129.4 6361.8C2081.95 6341.74 2030.94 6331.48 1979.42 6331.65C1926.53 6331.47 1874.19 6342.28 1825.7 6363.4C1777.21 6384.51 1733.63 6415.47 1697.73 6454.31C1661.84 6493.14 1634.4 6539.02 1617.16 6589.01C1599.92 6639.01 1593.25 6692.05 1597.58 6744.76Z" fill="#263238"/>
<path d="M2088.96 6347.16C2053.01 6336.61 2015.7 6331.38 1978.23 6331.65C1925.44 6331.64 1873.23 6342.57 1824.88 6363.76C1776.53 6384.95 1733.1 6415.93 1697.33 6454.75C1661.56 6493.57 1634.23 6539.38 1617.06 6589.3C1599.89 6639.21 1593.26 6692.15 1597.58 6744.76L1665.36 7554.02" stroke="white" stroke-width="0.87381" stroke-linecap="round" stroke-linejoin="round"/>
<path d="M2295.16 6496.32C2275.6 6468.54 2252.58 6443.36 2226.66 6421.38C2226.66 6421.38 2196.83 6397.52 2183.47 6389.88" stroke="white" stroke-width="0.87381" stroke-linecap="round" stroke-linejoin="round"/>
<path d="M2329.52 7554.02C2339.31 7283.15 2354.58 6966.22 2362.93 6728.53C2365.22 6669.52 2353.78 6610.78 2329.52 6556.94" stroke="white" stroke-width="0.87381" stroke-linecap="round" stroke-linejoin="round"/>
<path d="M2633.56 8691.91L2660.53 9163.73L2663.63 9167.79C2684.99 9196.45 2712.82 9219.66 2744.85 9235.51C2776.88 9251.37 2812.21 9259.43 2847.95 9259.04C2883.69 9258.64 2918.83 9249.8 2950.51 9233.24C2982.18 9216.67 3009.49 9192.86 3030.2 9163.73L3040.23 8691.91H2633.56Z" fill="white" stroke="#263238" stroke-width="0.87381" stroke-linecap="round" stroke-linejoin="round"/>
<path d="M3129.48 9624.8C2948.45 9656.54 2763.28 9656.54 2582.25 9624.8C2565.39 9608.11 2550.93 9589.15 2539.3 9568.48C2520.91 9535.95 2510.49 9499.51 2508.92 9462.18C2507.34 9424.84 2514.64 9387.66 2530.23 9353.69L2639.53 9159.19L3071.49 9163.96L3168.86 9341.52C3192.23 9383.66 3202.29 9431.88 3197.73 9479.84C3193.18 9527.8 3174.21 9573.26 3143.32 9610.24C3138.97 9615.33 3134.35 9620.19 3129.48 9624.8Z" fill="#BFBFBF" stroke="#263238" stroke-width="0.87381" stroke-miterlimit="10"/>
<path d="M3023.28 9379.95C3050.04 9391.66 3075.55 9406.05 3099.41 9422.9Z" fill="#BFBFBF"/>
<path d="M3023.28 9379.95C3050.04 9391.66 3075.55 9406.05 3099.41 9422.9" stroke="#263238" stroke-width="0.87381" stroke-miterlimit="10"/>
<path d="M2616.14 9422.9C2663.58 9390.44 2717 9367.72 2773.28 9356.04C2829.57 9344.37 2887.61 9343.97 2944.05 9354.89" fill="#BFBFBF"/>
<path d="M2616.14 9422.9C2663.58 9390.44 2717 9367.72 2773.28 9356.04C2829.57 9344.37 2887.61 9343.97 2944.05 9354.89" stroke="#263238" stroke-width="0.87381" stroke-miterlimit="10"/>
<path d="M2401.59 6744.75L2592.52 8932.71H3086.29C3086.29 8932.71 3135.21 7596.26 3166.47 6728.53C3168.34 6676.93 3159.76 6625.49 3141.24 6577.3C3122.72 6529.11 3094.65 6485.15 3058.72 6448.08C3022.78 6411.01 2979.73 6381.59 2932.13 6361.58C2884.54 6341.57 2833.39 6331.39 2781.77 6331.65C2729.02 6331.7 2676.86 6342.68 2628.57 6363.9C2580.27 6385.12 2536.9 6416.11 2501.18 6454.92C2465.47 6493.73 2438.18 6539.52 2421.04 6589.41C2403.9 6639.29 2397.28 6692.19 2401.59 6744.75Z" fill="#263238"/>
<path d="M2939.28 6364.59C2889.71 6342.54 2836.01 6331.32 2781.77 6331.65C2729.02 6331.71 2676.86 6342.69 2628.57 6363.9C2580.27 6385.12 2536.9 6416.11 2501.18 6454.92C2465.47 6493.74 2438.18 6539.53 2421.04 6589.41C2403.9 6639.29 2397.28 6692.19 2401.59 6744.76L2473.19 7554.02" stroke="white" stroke-width="0.87381" stroke-linecap="round" stroke-linejoin="round"/>
<path d="M3098.46 6496.32C3079.03 6468.43 3056 6443.24 3029.96 6421.38" stroke="white" stroke-width="0.87381" stroke-linecap="round" stroke-linejoin="round"/>
<path d="M3153.59 7554.02C3163.37 7283.15 3157.88 6966.22 3166.47 6728.53C3168.41 6676.31 3159.63 6624.25 3140.7 6575.55" stroke="white" stroke-width="0.87381" stroke-linecap="round" stroke-linejoin="round"/>
<path d="M9001.74 3020.84V2002.51C9001.74 1953.27 8982.18 1906.05 8947.36 1871.23C8912.54 1836.41 8865.31 1816.84 8816.07 1816.84H7218.54C7169.29 1816.84 7122.07 1836.41 7087.25 1871.23C7052.43 1906.05 7032.87 1953.27 7032.87 2002.51V3020.84C7032.87 3070.08 7052.43 3117.31 7087.25 3152.13C7122.07 3186.95 7169.29 3206.51 7218.54 3206.51H7774.83L7730.92 3594.08H8017.3V3959.46L8357.14 3362.83H8078.4L8107.75 3206.27H8816.07C8865.27 3206.27 8912.46 3186.74 8947.27 3151.97C8982.09 3117.21 9001.68 3070.04 9001.74 3020.84Z" fill="white" stroke="#263238" stroke-width="1.02547" stroke-linecap="round" stroke-linejoin="round"/>
<path d="M7337.86 2165.27H8418" stroke="#263238" stroke-width="1.02547" stroke-linecap="round" stroke-linejoin="round"/>
<path d="M7337.86 2453.8H8696.74" stroke="#263238" stroke-width="1.02547" stroke-linecap="round" stroke-linejoin="round"/>
<path d="M7337.86 2742.34H8487.68" stroke="#263238" stroke-width="1.02547" stroke-linecap="round" stroke-linejoin="round"/>
<path d="M10222 7381.24L11187.1 7702.94L10947.7 7942.55L11394.5 8389.31L10429.4 8067.6L10668.7 7828L10222 7381.24Z" fill="#4CA3FF" stroke="#263238" stroke-width="1.02547" stroke-linecap="round" stroke-linejoin="round"/>
<path d="M5812.64 7381.24L4847.53 7702.94L5086.9 7942.55L4640.15 8389.31L5605.25 8067.6L5365.88 7828L5812.64 7381.24Z" fill="#4CA3FF" stroke="#263238" stroke-width="1.02547" stroke-linecap="round" stroke-linejoin="round"/>
<path d="M7990.34 1.18359L7535.23 911.4H7874.11V1543.35L8328.98 633.133H7990.34V1.18359Z" fill="#4CA3FF" stroke="#263238" stroke-width="1.02547" stroke-linecap="round" stroke-linejoin="round"/>
</svg>
