<svg width="1464" height="1313" viewBox="0 0 1464 1313" fill="none" xmlns="http://www.w3.org/2000/svg">
<path d="M312.998 550.797C331.395 509.165 312.559 460.502 270.926 442.105C229.294 423.708 180.631 442.544 162.235 484.176C143.838 525.809 162.674 574.472 204.306 592.868C245.938 611.265 294.601 592.429 312.998 550.797Z" stroke="#263238" stroke-linecap="round" stroke-linejoin="round"/>
<path d="M248.284 584.991C285.543 579.11 310.98 544.137 305.099 506.878C299.217 469.619 264.245 444.182 226.985 450.063C189.726 455.944 164.289 490.917 170.17 528.176C176.052 565.436 211.024 590.873 248.284 584.991Z" stroke="#263238" stroke-linecap="round" stroke-linejoin="round"/>
<path d="M194.084 517.53H237.631V580.369" stroke="#263238" stroke-linecap="round" stroke-linejoin="round"/>
<path d="M582.994 33.0504L569.766 0H355.01V33.0504V139.259V915.766H1195.21V33.0504H582.994Z" fill="#A3A3A3"/>
<path d="M1178.68 54.292H366.783V906.333H1178.68V54.292Z" fill="white"/>
<path d="M1178.68 54.292H366.783V89.6829H1178.68V54.292Z" fill="#4CA3FF"/>
<path d="M933.321 126.741H636.328C633.354 126.741 630.409 127.327 627.662 128.466C624.915 129.605 622.419 131.275 620.318 133.38C618.216 135.484 616.55 137.983 615.416 140.732C614.281 143.481 613.699 146.427 613.704 149.401V271.035L640.477 242.665H933.321C936.303 242.665 939.255 242.077 942.009 240.934C944.763 239.79 947.264 238.115 949.369 236.003C951.474 233.892 953.142 231.385 954.277 228.628C955.411 225.87 955.991 222.916 955.981 219.934V149.401C955.981 143.391 953.594 137.627 949.344 133.378C945.095 129.128 939.331 126.741 933.321 126.741Z" fill="#A3A3A3"/>
<path d="M674.308 208.374C691.895 208.374 706.153 194.116 706.153 176.529C706.153 158.942 691.895 144.684 674.308 144.684C656.721 144.684 642.463 158.942 642.463 176.529C642.463 194.116 656.721 208.374 674.308 208.374Z" fill="white"/>
<path d="M690.372 174.366C690.372 174.366 693.706 169.898 694.45 174.366C695.195 178.834 688.741 184.366 688.741 184.366L690.372 174.366Z" fill="white" stroke="#263238" stroke-linecap="round" stroke-linejoin="round"/>
<path d="M658.35 174.366C658.35 174.366 655.017 169.898 654.272 174.366C653.527 178.834 659.981 184.366 659.981 184.366L658.35 174.366Z" fill="white" stroke="#263238" stroke-linecap="round" stroke-linejoin="round"/>
<path d="M675.478 152.557C675.478 152.557 662.889 151.564 659.981 159.968C657.987 168.027 657.987 176.45 659.981 184.508C660.939 187.097 669.024 199.686 671.294 200.679C672.718 201.159 674.225 201.347 675.724 201.231C677.223 201.116 678.683 200.698 680.017 200.005C680.975 198.728 689.06 186.778 689.698 182.593C689.929 176.421 689.81 170.241 689.344 164.082C689.229 161.91 688.502 159.816 687.247 158.04C685.992 156.264 684.26 154.88 682.251 154.046C680.093 153.175 677.803 152.671 675.478 152.557Z" fill="white" stroke="#263238" stroke-linecap="round" stroke-linejoin="round"/>
<path d="M689.344 163.94C689.229 161.769 688.502 159.674 687.247 157.898C685.992 156.122 684.26 154.738 682.251 153.904C680.093 153.033 677.803 152.529 675.478 152.415C675.478 152.415 662.889 151.422 659.981 159.827C658.608 164.615 658.127 169.616 658.563 174.579C659.166 175.323 661.293 177.557 660.974 174.579C660.655 171.6 660.23 161.21 662.818 159.011C665.407 156.812 665.797 154.897 669.485 157.876C673.173 160.855 672.854 163.444 676.577 161.422C680.301 159.401 681.046 155.465 684.379 156.954C687.712 158.444 686.613 165.5 686.613 168.834C686.613 172.167 686.613 178.479 688.847 175.536C689.255 174.903 689.589 174.225 689.84 173.515C689.698 170.288 689.486 166.742 689.344 163.94Z" fill="#263238" stroke="#263238" stroke-linecap="round" stroke-linejoin="round"/>
<path d="M724.912 153.798H790.871" stroke="white" stroke-width="2" stroke-linecap="round" stroke-linejoin="round"/>
<path d="M724.912 176.777H926.796" stroke="white" stroke-linecap="round" stroke-linejoin="round"/>
<path d="M724.912 195.749H926.796" stroke="white" stroke-linecap="round" stroke-linejoin="round"/>
<path d="M724.912 216.743H926.796" stroke="white" stroke-linecap="round" stroke-linejoin="round"/>
<path d="M933.321 604.731H636.328C633.356 604.726 630.412 605.308 627.665 606.443C624.918 607.579 622.422 609.245 620.32 611.347C618.218 613.449 616.552 615.945 615.416 618.692C614.281 621.439 613.699 624.383 613.704 627.355V748.989L640.477 720.62H933.321C939.325 720.62 945.083 718.237 949.332 713.996C953.58 709.754 955.972 703.999 955.981 697.995V627.355C955.981 624.381 955.395 621.436 954.256 618.689C953.116 615.942 951.447 613.446 949.342 611.345C947.237 609.243 944.739 607.578 941.99 606.443C939.241 605.308 936.295 604.726 933.321 604.731Z" fill="#A3A3A3"/>
<path d="M702.01 675.171C714.849 663.035 715.419 642.79 703.284 629.951C691.149 617.112 670.903 616.542 658.064 628.677C645.226 640.813 644.655 661.058 656.791 673.897C668.926 686.736 689.171 687.306 702.01 675.171Z" fill="white"/>
<path d="M690.372 652.32C690.372 652.32 693.706 647.852 694.45 652.32C695.195 656.789 688.741 662.356 688.741 662.356L690.372 652.32Z" fill="white" stroke="#263238" stroke-linecap="round" stroke-linejoin="round"/>
<path d="M658.35 652.32C658.35 652.32 655.017 647.852 654.272 652.32C653.527 656.789 659.981 662.356 659.981 662.356L658.35 652.32Z" fill="white" stroke="#263238" stroke-linecap="round" stroke-linejoin="round"/>
<path d="M675.478 630.37C675.478 630.37 662.889 629.412 659.981 637.781C657.987 645.851 657.987 654.286 659.981 662.356C660.939 664.909 669.024 677.534 671.294 678.491C672.717 678.969 674.222 679.159 675.72 679.049C677.217 678.94 678.678 678.533 680.017 677.853C680.975 676.541 689.06 664.59 689.698 660.406C689.929 654.234 689.81 648.053 689.344 641.895C689.22 639.725 688.49 637.634 687.236 635.86C685.982 634.086 684.255 632.699 682.251 631.859C680.088 631.004 677.801 630.501 675.478 630.37Z" fill="white" stroke="#263238" stroke-linecap="round" stroke-linejoin="round"/>
<path d="M689.344 641.93C689.22 639.761 688.49 637.67 687.236 635.896C685.982 634.121 684.255 632.735 682.251 631.894C680.088 631.039 677.801 630.536 675.478 630.405C675.478 630.405 662.889 629.448 659.981 637.817C658.608 642.605 658.127 647.606 658.563 652.569C659.166 653.313 661.293 655.583 660.974 652.569C660.655 649.554 660.23 639.2 662.818 636.965C665.407 634.731 665.797 632.887 669.485 635.831C673.173 638.774 672.854 641.434 676.577 639.554C680.301 637.675 681.046 633.632 684.379 635.121C687.712 636.611 686.613 643.632 686.613 647.001C686.613 650.37 686.613 656.647 688.847 653.668C689.262 653.039 689.596 652.36 689.84 651.647C689.698 648.384 689.486 644.732 689.344 641.93Z" fill="#263238" stroke="#263238" stroke-linecap="round" stroke-linejoin="round"/>
<path d="M724.912 631.753H790.871" stroke="white" stroke-width="2" stroke-linecap="round" stroke-linejoin="round"/>
<path d="M724.912 654.732H926.796" stroke="white" stroke-linecap="round" stroke-linejoin="round"/>
<path d="M724.912 673.74H926.796" stroke="white" stroke-linecap="round" stroke-linejoin="round"/>
<path d="M724.912 694.733H926.796" stroke="white" stroke-linecap="round" stroke-linejoin="round"/>
<path d="M1090.74 447.422H793.85C787.849 447.422 782.095 449.806 777.852 454.049C773.609 458.292 771.225 464.046 771.225 470.047V540.687C771.225 546.687 773.609 552.442 777.852 556.685C782.095 560.928 787.849 563.311 793.85 563.311H1086.73L1113.5 591.681V470.047C1113.5 467.064 1112.91 464.11 1111.77 461.356C1110.62 458.601 1108.94 456.101 1106.83 453.998C1104.71 451.895 1102.2 450.232 1099.44 449.103C1096.68 447.975 1093.72 447.403 1090.74 447.422Z" fill="#A3A3A3"/>
<path d="M831.865 529.055C849.452 529.055 863.71 514.798 863.71 497.21C863.71 479.623 849.452 465.366 831.865 465.366C814.278 465.366 800.02 479.623 800.02 497.21C800.02 514.798 814.278 529.055 831.865 529.055Z" fill="white"/>
<path d="M847.894 495.012C847.894 495.012 851.44 490.579 851.972 495.012C852.504 499.445 846.298 505.048 846.298 505.048L847.894 495.012Z" fill="white" stroke="#263238" stroke-linecap="round" stroke-linejoin="round"/>
<path d="M815.907 495.012C815.907 495.012 812.574 490.579 811.829 495.012C811.084 499.445 817.68 505.048 817.68 505.048L815.907 495.012Z" fill="white" stroke="#263238" stroke-linecap="round" stroke-linejoin="round"/>
<path d="M833.035 473.061C833.035 473.061 820.446 472.103 817.538 480.472C815.525 488.54 815.525 496.979 817.538 505.047C818.496 507.601 826.581 520.225 828.815 521.182C830.239 521.66 831.743 521.85 833.241 521.741C834.739 521.631 836.2 521.224 837.539 520.544C838.532 519.232 846.582 507.281 847.22 503.097C847.486 496.925 847.367 490.743 846.865 484.586C846.75 482.414 846.023 480.32 844.768 478.544C843.513 476.768 841.781 475.383 839.773 474.55C837.623 473.69 835.347 473.187 833.035 473.061Z" fill="white" stroke="#263238" stroke-linecap="round" stroke-linejoin="round"/>
<path d="M846.865 484.586C846.75 482.414 846.023 480.32 844.768 478.544C843.513 476.768 841.781 475.383 839.773 474.55C837.623 473.69 835.347 473.187 833.035 473.061C833.035 473.061 820.446 472.103 817.538 480.472C816.171 485.262 815.679 490.26 816.084 495.224C816.723 495.969 818.815 498.239 818.496 495.402C818.141 491.856 817.751 482.033 820.375 479.799C822.999 477.564 823.319 475.72 827.042 478.699C830.766 481.678 830.376 484.267 834.134 482.245C837.893 480.224 838.603 476.323 841.936 477.813C845.269 479.302 844.17 486.324 844.17 489.692C844.17 493.061 844.17 499.338 846.369 496.359C846.798 495.738 847.133 495.057 847.362 494.338C847.22 491.111 847.043 487.423 846.865 484.586Z" fill="#263238" stroke="#263238" stroke-linecap="round" stroke-linejoin="round"/>
<path d="M820.375 479.799C821.802 481.893 823.66 483.657 825.825 484.972C827.991 486.287 830.413 487.123 832.929 487.423C835.323 487.912 837.792 487.913 840.186 487.426C842.581 486.938 844.853 485.973 846.865 484.586C846.865 484.586 850.908 484.586 850.908 479.799C850.908 475.011 852.255 477.033 845.376 477.033C838.496 477.033 822.219 464.195 820.375 479.799Z" fill="#263238" stroke="#263238" stroke-linecap="round" stroke-linejoin="round"/>
<path d="M831.368 497.068H818.85L820.198 501.218C820.325 501.607 820.571 501.948 820.902 502.189C821.233 502.431 821.632 502.563 822.042 502.565H828.496C828.93 502.562 829.351 502.413 829.692 502.143C830.032 501.874 830.273 501.498 830.375 501.076L831.368 497.068Z" fill="white" stroke="#263238" stroke-linecap="round" stroke-linejoin="round"/>
<path d="M845.234 497.068H832.716L834.064 501.218C834.19 501.607 834.437 501.948 834.768 502.189C835.099 502.431 835.498 502.563 835.908 502.565H842.503C842.939 502.568 843.363 502.422 843.705 502.151C844.047 501.88 844.286 501.501 844.383 501.076L845.234 497.068Z" fill="white" stroke="#263238" stroke-linecap="round" stroke-linejoin="round"/>
<path d="M882.433 474.444H948.392" stroke="white" stroke-width="2" stroke-linecap="round" stroke-linejoin="round"/>
<path d="M882.433 497.423H1084.32" stroke="white" stroke-linecap="round" stroke-linejoin="round"/>
<path d="M882.433 516.431H1084.32" stroke="white" stroke-linecap="round" stroke-linejoin="round"/>
<path d="M882.433 537.424H1084.32" stroke="white" stroke-linecap="round" stroke-linejoin="round"/>
<path d="M937.541 293.695H640.548C634.538 293.695 628.775 296.082 624.525 300.332C620.276 304.582 617.888 310.345 617.888 316.355V437.989L644.662 409.62H937.541C943.542 409.62 949.296 407.236 953.539 402.993C957.782 398.75 960.166 392.996 960.166 386.995V316.355C960.17 313.381 959.589 310.435 958.454 307.686C957.319 304.937 955.653 302.439 953.552 300.334C951.45 298.229 948.955 296.56 946.207 295.421C943.46 294.281 940.515 293.695 937.541 293.695Z" fill="#4CA3FF"/>
<path d="M682.371 383.656C699.715 380.741 711.412 364.318 708.497 346.974C705.582 329.63 689.159 317.933 671.815 320.848C654.471 323.763 642.774 340.186 645.689 357.53C648.604 374.874 665.027 386.571 682.371 383.656Z" fill="white"/>
<path d="M673.102 328.058C671.594 327.445 669.978 327.143 668.351 327.17C666.724 327.198 665.118 327.553 663.632 328.215C662.145 328.877 660.807 329.833 659.699 331.025C658.59 332.216 657.733 333.619 657.18 335.15C652.818 346.675 658.279 362.562 658.279 369.122C658.279 375.683 664.875 381.215 672.003 381.747C679.131 382.279 688.457 383.378 693.918 374.654C699.38 365.931 697.216 346.711 695.018 335.646C692.819 324.582 680.762 327.49 673.102 328.058Z" fill="white" stroke="#263238" stroke-linecap="round" stroke-linejoin="round"/>
<path d="M693.138 350.044C693.138 350.044 696.684 345.576 697.252 350.044C697.819 354.512 691.542 360.079 691.542 360.079L693.138 350.044Z" fill="white" stroke="#263238" stroke-linecap="round" stroke-linejoin="round"/>
<path d="M661.152 350.044C661.152 350.044 657.818 345.576 657.073 350.044C656.329 354.512 662.783 360.079 662.783 360.079L661.152 350.044Z" fill="white" stroke="#263238" stroke-linecap="round" stroke-linejoin="round"/>
<path d="M678.28 328.093C678.28 328.093 665.691 327.135 662.783 335.504C660.769 343.572 660.769 352.012 662.783 360.079C663.74 362.633 671.826 375.257 674.06 376.215C675.483 376.693 676.988 376.882 678.486 376.773C679.983 376.663 681.444 376.256 682.783 375.576C683.776 374.264 691.826 362.314 692.5 358.129C692.73 351.957 692.612 345.777 692.145 339.618C692.018 337.45 691.286 335.361 690.033 333.587C688.779 331.813 687.054 330.426 685.053 329.582C682.892 328.719 680.604 328.216 678.28 328.093Z" fill="white" stroke="#263238" stroke-linecap="round" stroke-linejoin="round"/>
<path d="M668.74 331.355C668.74 331.355 689.095 350.044 693.174 350.044C697.252 350.044 697.784 336.284 693.422 329.689C689.06 323.093 668.173 319.227 668.74 331.355Z" fill="white" stroke="#263238" stroke-linecap="round" stroke-linejoin="round"/>
<path d="M725.196 318.625H791.155" stroke="#263238" stroke-width="2" stroke-linecap="round" stroke-linejoin="round"/>
<path d="M725.196 341.604H927.08" stroke="#263238" stroke-linecap="round" stroke-linejoin="round"/>
<path d="M725.196 360.576H927.08" stroke="#263238" stroke-linecap="round" stroke-linejoin="round"/>
<path d="M725.196 381.569H927.08" stroke="#263238" stroke-linecap="round" stroke-linejoin="round"/>
<path d="M581.15 122.06H455.615V898.177H581.15V122.06Z" fill="#4CA3FF"/>
<path d="M543.341 374.034C559.031 358.343 559.031 332.904 543.341 317.213C527.65 301.523 502.211 301.522 486.52 317.213C470.829 332.904 470.829 358.343 486.52 374.034C502.211 389.724 527.65 389.724 543.341 374.034Z" fill="white"/>
<path d="M509.907 315.114C509.907 315.114 495.367 309.582 489.835 324.121C484.303 338.661 491.218 358.697 491.218 366.995C491.218 375.293 499.516 382.208 508.524 382.917C517.531 383.626 529.269 384.974 536.184 373.91C543.099 362.846 540.333 338.625 537.567 324.795C534.801 310.965 519.588 314.405 509.907 315.114Z" fill="white" stroke="#263238" stroke-linecap="round" stroke-linejoin="round"/>
<path d="M535.191 342.845C535.191 342.845 539.411 337.242 540.369 342.845C541.326 348.448 533.276 355.505 533.276 355.505L535.191 342.845Z" fill="white" stroke="#263238" stroke-linecap="round" stroke-linejoin="round"/>
<path d="M494.977 342.845C494.977 342.845 490.757 337.242 489.8 342.845C488.842 348.448 496.892 355.505 496.892 355.505L494.977 342.845Z" fill="white" stroke="#263238" stroke-linecap="round" stroke-linejoin="round"/>
<path d="M516.432 315.149C516.432 315.149 500.545 313.944 496.857 324.511C493.169 335.079 495.651 352.242 496.857 355.505C498.063 358.767 508.276 374.654 511.042 375.86C513.808 377.066 520.829 376.676 522.07 375.044C523.311 373.413 533.489 358.342 534.269 353.058C534.636 345.329 534.541 337.584 533.985 329.866C533.83 327.126 532.906 324.486 531.319 322.247C529.732 320.008 527.547 318.261 525.014 317.206C522.284 316.059 519.385 315.364 516.432 315.149Z" fill="white" stroke="#263238" stroke-linecap="round" stroke-linejoin="round"/>
<path d="M504.375 319.227C504.375 319.227 530.049 342.81 535.191 342.81C540.333 342.81 541.007 325.469 535.475 317.135C529.943 308.802 503.666 304.05 504.375 319.227Z" fill="white" stroke="#263238" stroke-linecap="round" stroke-linejoin="round"/>
<path d="M524.147 249.814C545.749 244.739 559.147 223.114 554.073 201.512C548.998 179.91 527.372 166.512 505.771 171.587C484.169 176.661 470.771 198.287 475.846 219.889C480.92 241.49 502.546 254.888 524.147 249.814Z" fill="white"/>
<path d="M535.191 207.984C535.191 207.984 539.411 202.345 540.369 207.984C541.326 213.622 533.276 220.608 533.276 220.608L535.191 207.984Z" fill="white" stroke="#263238" stroke-linecap="round" stroke-linejoin="round"/>
<path d="M494.977 207.984C494.977 207.984 490.757 202.345 489.8 207.984C488.842 213.622 496.892 220.608 496.892 220.608L494.977 207.984Z" fill="white" stroke="#263238" stroke-linecap="round" stroke-linejoin="round"/>
<path d="M516.432 180.288C516.432 180.288 500.545 179.047 496.857 189.65C493.169 200.253 495.651 217.346 496.857 220.608C498.063 223.87 508.276 239.757 511.042 240.999C513.808 242.24 520.829 241.814 522.07 240.183C523.311 238.552 533.489 223.48 534.269 218.161C534.596 210.382 534.453 202.59 533.844 194.827C533.696 192.085 532.775 189.441 531.188 187.2C529.6 184.96 527.41 183.215 524.872 182.167C522.181 181.079 519.33 180.444 516.432 180.288Z" fill="white" stroke="#263238" stroke-linecap="round" stroke-linejoin="round"/>
<path d="M533.985 194.827C533.838 192.085 532.917 189.441 531.33 187.2C529.742 184.96 527.552 183.215 525.014 182.167C522.301 181.071 519.425 180.436 516.503 180.288C516.503 180.288 500.616 179.047 496.928 189.65C495.207 195.696 494.594 202.003 495.119 208.267C495.935 209.189 498.665 212.026 498.169 208.267C497.708 204.047 497.247 191.423 500.509 188.586C503.772 185.749 504.268 183.444 508.949 187.203C513.63 190.962 513.169 194.295 517.85 191.884C522.531 189.472 523.453 184.366 527.673 186.245C531.893 188.125 530.51 196.884 530.51 201.246C530.51 205.608 530.51 213.409 533.312 209.686C533.83 208.89 534.247 208.032 534.553 207.133C534.34 203.019 533.985 198.373 533.985 194.827Z" fill="#263238" stroke="#263238" stroke-linecap="round" stroke-linejoin="round"/>
<path d="M514.942 519.906C537.132 519.906 555.121 501.917 555.121 479.728C555.121 457.538 537.132 439.549 514.942 439.549C492.753 439.549 474.764 457.538 474.764 479.728C474.764 501.917 492.753 519.906 514.942 519.906Z" fill="white"/>
<path d="M535.191 476.962C535.191 476.962 539.411 471.359 540.369 476.962C541.326 482.565 533.276 489.622 533.276 489.622L535.191 476.962Z" fill="white" stroke="#263238" stroke-linecap="round" stroke-linejoin="round"/>
<path d="M494.977 476.962C494.977 476.962 490.757 471.359 489.8 476.962C488.842 482.565 496.892 489.622 496.892 489.622L494.977 476.962Z" fill="white" stroke="#263238" stroke-linecap="round" stroke-linejoin="round"/>
<path d="M516.432 449.266C516.432 449.266 500.545 448.025 496.857 458.628C493.169 469.231 495.651 486.359 496.857 489.622C498.063 492.884 508.276 508.771 511.042 509.977C513.808 511.182 520.829 510.792 522.07 509.161C523.311 507.53 533.489 492.459 534.269 487.175C534.596 479.384 534.454 471.58 533.844 463.805C533.696 461.063 532.775 458.419 531.188 456.179C529.6 453.938 527.41 452.193 524.872 451.146C522.176 450.074 519.327 449.439 516.432 449.266Z" fill="white" stroke="#263238" stroke-linecap="round" stroke-linejoin="round"/>
<path d="M533.985 463.805C533.838 461.063 532.917 458.419 531.33 456.179C529.742 453.938 527.552 452.193 525.014 451.146C522.296 450.066 519.422 449.432 516.503 449.266C516.503 449.266 500.616 448.025 496.928 458.628C495.208 464.674 494.595 470.981 495.119 477.245C495.935 478.167 498.665 481.04 498.169 477.423C497.708 473.238 497.247 460.578 500.51 457.777C503.772 454.975 504.268 452.6 508.949 456.358C513.63 460.117 513.169 463.451 517.85 461.039C522.531 458.628 523.453 453.557 527.673 455.436C531.893 457.316 530.51 466.075 530.51 470.401C530.51 474.728 530.51 482.6 533.312 478.841C533.824 478.054 534.24 477.209 534.553 476.324C534.34 472.033 533.985 467.387 533.985 463.805Z" fill="#263238" stroke="#263238" stroke-linecap="round" stroke-linejoin="round"/>
<path d="M500.438 457.777C504.239 462.806 509.794 466.219 515.998 467.336C522.202 468.453 528.598 467.193 533.914 463.805C533.914 463.805 538.95 463.805 538.95 457.777C538.95 451.748 540.723 454.231 531.858 454.231C522.992 454.231 502.779 438.095 500.438 457.777Z" fill="#263238" stroke="#263238" stroke-linecap="round" stroke-linejoin="round"/>
<path d="M514.34 479.586H498.524L500.19 484.799C500.355 485.288 500.67 485.712 501.09 486.012C501.51 486.311 502.015 486.47 502.531 486.465H510.652C511.196 486.466 511.726 486.286 512.156 485.952C512.587 485.618 512.893 485.149 513.027 484.621L514.34 479.586Z" fill="white" stroke="#263238" stroke-linecap="round" stroke-linejoin="round"/>
<path d="M531.822 479.586H516.042L517.708 484.799C517.878 485.285 518.194 485.706 518.613 486.005C519.032 486.304 519.534 486.465 520.049 486.465H528.205C528.747 486.471 529.275 486.291 529.7 485.956C530.126 485.62 530.424 485.15 530.546 484.621L531.822 479.586Z" fill="white" stroke="#263238" stroke-linecap="round" stroke-linejoin="round"/>
<path d="M489.233 270.857H540.936" stroke="#263238" stroke-width="2" stroke-linecap="round" stroke-linejoin="round"/>
<path d="M489.233 403.024H540.936" stroke="#263238" stroke-width="2" stroke-linecap="round" stroke-linejoin="round"/>
<path d="M489.233 535.226H540.936" stroke="#263238" stroke-width="2" stroke-linecap="round" stroke-linejoin="round"/>
<path d="M147.451 793.813C147.451 793.813 147.451 781.508 130.252 764.274C113.053 747.039 101.883 737.216 101.883 737.216C101.883 737.216 93.2656 765.586 109.259 782.749C121.046 794.855 133.821 805.958 147.451 815.942V793.813Z" fill="#4CA3FF"/>
<path d="M122.628 870.624C122.628 870.624 122.628 858.318 105.429 841.12C88.23 823.921 77.0595 814.027 77.0595 814.027C77.0595 814.027 68.4423 842.396 84.4356 859.56C96.2223 871.665 108.997 882.768 122.628 892.752V870.624Z" fill="#4CA3FF"/>
<path d="M146.458 814.771C146.458 814.771 147.735 802.537 166.707 787.217C185.679 771.898 197.665 763.316 197.665 763.316C197.665 763.316 203.268 792.359 185.537 807.785C172.562 818.579 158.707 828.271 144.118 836.758L146.458 814.771Z" fill="#4CA3FF"/>
<path d="M116.245 905.483C116.245 905.483 118.834 893.461 139.295 880.234C159.757 867.007 172.629 859.701 172.629 859.701C172.629 859.701 175.112 889.17 155.856 902.646C141.82 912.015 127.029 920.2 111.635 927.114L116.245 905.483Z" fill="#4CA3FF"/>
<path d="M121.919 1004.39C121.919 1004.39 121.919 992.08 139.153 974.881C156.388 957.682 167.523 947.789 167.523 947.789C167.523 947.789 176.14 976.158 160.147 993.322C148.374 1005.43 135.611 1016.53 121.99 1026.51L121.919 1004.39Z" fill="#4CA3FF"/>
<path d="M121.635 1028.46C121.635 1028.46 123.408 1016.27 108.798 996.797C94.1876 977.328 84.6484 965.98 84.6484 965.98C84.6484 965.98 72.0949 992.754 85.464 1012.08C95.3955 1025.74 106.451 1038.56 118.514 1050.38L121.635 1028.46Z" fill="#4CA3FF"/>
<path d="M104.649 1100.1C104.649 1100.1 104.649 1087.79 121.883 1070.56C139.118 1053.32 150.253 1043.5 150.253 1043.5C150.253 1043.5 158.87 1071.87 142.877 1089C131.111 1101.12 118.347 1112.24 104.72 1122.23L104.649 1100.1Z" fill="#4CA3FF"/>
<path d="M116.174 1164.96C116.174 1164.96 113.053 1153.04 125.359 1132.05C137.664 1111.05 145.856 1098.68 145.856 1098.68C145.856 1098.68 161.352 1123.89 150.253 1144.57C141.978 1159.27 132.488 1173.25 121.883 1186.38L116.174 1164.96Z" fill="#4CA3FF"/>
<path d="M149.083 790.657C148.227 803.466 146.652 816.217 144.366 828.85C137.557 864.028 120.536 886.617 113.727 918.533C106.918 950.448 126.493 991.229 121.245 1032.01C115.997 1072.79 99.9679 1095.49 104.649 1122.72C109.33 1149.96 133.018 1223.68 133.018 1223.68" stroke="#263238" stroke-width="0.5" stroke-linecap="round" stroke-linejoin="round"/>
<path d="M146.281 822.928L164.828 808.672" stroke="#263238" stroke-width="0.5" stroke-linecap="round" stroke-linejoin="round"/>
<path d="M147.132 806.544L139.366 792.714" stroke="#263238" stroke-width="0.5" stroke-linecap="round" stroke-linejoin="round"/>
<path d="M114.755 917.008C114.755 917.008 130.323 905.376 146.281 893.709" stroke="#263238" stroke-width="0.5" stroke-linecap="round" stroke-linejoin="round"/>
<path d="M122.628 892.752C114.882 877.789 105.638 863.65 95.0387 850.552" stroke="#263238" stroke-width="0.5" stroke-linecap="round" stroke-linejoin="round"/>
<path d="M122.628 1021.87C131.488 1005.52 142.682 990.554 155.856 977.435" stroke="#263238" stroke-width="0.5" stroke-linecap="round" stroke-linejoin="round"/>
<path d="M119.507 1039.1C114.795 1028.02 109.173 1017.34 102.698 1007.19C93.6202 993.783 92.3436 992.08 92.3436 992.08" stroke="#263238" stroke-width="0.5" stroke-linecap="round" stroke-linejoin="round"/>
<path d="M104.649 1122.69C108.591 1112.89 113.273 1103.4 118.656 1094.32C124.045 1085.94 130.118 1078.03 136.813 1070.66" stroke="#263238" stroke-width="0.5" stroke-linecap="round" stroke-linejoin="round"/>
<path d="M121.777 1186.38C120.883 1177.05 122.486 1167.65 126.422 1159.14C132.912 1146.62 140.253 1130.2 143.267 1123.68" stroke="#263238" stroke-width="0.5" stroke-linecap="round" stroke-linejoin="round"/>
<path d="M34.7536 958.143C34.7536 958.143 33.4415 950.413 42.3424 937.753C51.2433 925.093 57.1654 917.717 57.1654 917.717C57.1654 917.717 65.6408 934.526 57.4846 947.044C51.4216 955.875 44.6243 964.179 37.165 971.867L34.7536 958.143Z" fill="#4CA3FF"/>
<path d="M58.7967 1003.64C58.7967 1003.64 57.4846 995.946 66.421 983.286C75.3574 970.626 81.2086 963.25 81.2086 963.25C81.2086 963.25 89.684 980.059 81.5278 992.577C75.4543 1001.4 68.6576 1009.7 61.2081 1017.4L58.7967 1003.64Z" fill="#4CA3FF"/>
<path d="M37.7324 971.158C37.7324 971.158 35.5692 963.604 22.0228 956.087C8.47637 948.569 0.000977109 944.455 0.000977109 944.455C0.000977109 944.455 -0.353633 963.25 12.4481 971.016C21.7534 976.384 31.4922 980.963 41.5623 984.704L37.7324 971.158Z" fill="#4CA3FF"/>
<path d="M66.4919 1024.92C66.4919 1024.92 63.5841 1017.83 49.3284 1011.55C35.0728 1005.27 26.2073 1002.29 26.2073 1002.29C26.2073 1002.29 27.8385 1021.05 41.3495 1027.44C51.1795 1031.82 61.3566 1035.38 71.7757 1038.07L66.4919 1024.92Z" fill="#4CA3FF"/>
<path d="M73.6907 1087.4C73.6907 1087.4 72.3431 1079.67 59.506 1070.77C46.6688 1061.87 39.009 1056.83 39.009 1056.83C39.009 1056.83 36.6685 1075.49 48.5483 1084.57C57.2358 1090.89 66.4413 1096.46 76.0666 1101.23L73.6907 1087.4Z" fill="#4CA3FF"/>
<path d="M76.5276 1102.51C76.5276 1102.51 74.0808 1095.06 81.1377 1081.23C88.1946 1067.4 92.9464 1059.28 92.9464 1059.28C92.9464 1059.28 103.585 1074.71 97.4146 1088.29C92.6782 1097.93 87.1384 1107.16 80.854 1115.88L76.5276 1102.51Z" fill="#4CA3FF"/>
<path d="M98.0884 1164.71C98.0884 1164.71 98.975 1156.94 111.138 1147.3C123.302 1137.65 130.962 1132.26 130.962 1132.26C130.962 1132.26 134.508 1150.77 123.018 1160.63C114.694 1167.43 105.821 1173.52 96.4926 1178.86L98.0884 1164.71Z" fill="#4CA3FF"/>
<path d="M94.8969 1145.49C94.8969 1145.49 93.5493 1137.79 80.7121 1128.86C67.8749 1119.92 60.0379 1114.96 60.0379 1114.96C60.0379 1114.96 57.6974 1133.64 69.6126 1142.69C78.2983 1149.02 87.5039 1154.61 97.1309 1159.39L94.8969 1145.49Z" fill="#4CA3FF"/>
<path d="M94.7196 1187.48C94.7196 1187.48 95.3933 1179.67 85.3931 1167.83C75.3929 1155.99 68.9033 1149.03 68.9033 1149.03C68.9033 1149.03 61.811 1166.52 71.1374 1178.29C77.9531 1186.61 85.4497 1194.34 93.5493 1201.41L94.7196 1187.48Z" fill="#4CA3FF"/>
<path d="M33.4415 956.335C35.3814 964.27 37.749 972.095 40.5339 979.775C48.6191 1001.05 61.811 1013.46 69.4707 1032.65C77.1305 1051.83 69.4707 1079.6 77.095 1104.64C84.7193 1129.67 97.2373 1142.16 97.3437 1159.71C97.4501 1177.26 90.7124 1226.09 90.7124 1226.09" stroke="#263238" stroke-width="0.5" stroke-linecap="round" stroke-linejoin="round"/>
<path d="M38.7253 976.264L25.5335 969.349" stroke="#263238" stroke-width="0.5" stroke-linecap="round" stroke-linejoin="round"/>
<path d="M36.3848 966.052L39.7537 956.548" stroke="#263238" stroke-width="0.5" stroke-linecap="round" stroke-linejoin="round"/>
<path d="M68.6906 1032.01C68.6906 1032.01 57.6619 1026.41 46.3851 1020.8" stroke="#263238" stroke-width="0.5" stroke-linecap="round" stroke-linejoin="round"/>
<path d="M61.1726 1017.47C64.403 1007.24 68.6687 997.367 73.9034 988.002" stroke="#263238" stroke-width="0.5" stroke-linecap="round" stroke-linejoin="round"/>
<path d="M75.1801 1098.43C67.8467 1089.15 59.2111 1080.98 49.5412 1074.17" stroke="#263238" stroke-width="0.5" stroke-linecap="round" stroke-linejoin="round"/>
<path d="M78.9745 1108.93C80.7157 1101.46 83.0883 1094.15 86.0669 1087.08C90.2868 1077.72 90.9251 1076.44 90.9251 1076.44" stroke="#263238" stroke-width="0.5" stroke-linecap="round" stroke-linejoin="round"/>
<path d="M96.7409 1173.04C101.029 1167.73 105.776 1162.81 110.926 1158.33C114.206 1155.9 117.289 1153.22 120.146 1150.31" stroke="#263238" stroke-width="0.5" stroke-linecap="round" stroke-linejoin="round"/>
<path d="M97.3437 1159.67C93.8179 1153.96 89.8582 1148.53 85.4995 1143.43C81.209 1138.76 76.5484 1134.44 71.563 1130.52" stroke="#263238" stroke-width="0.5" stroke-linecap="round" stroke-linejoin="round"/>
<path d="M93.5493 1201.52C93.1016 1195.56 91.0692 1189.83 87.6626 1184.92C82.237 1177.83 75.8539 1168.29 73.2651 1164.57" stroke="#263238" stroke-width="0.5" stroke-linecap="round" stroke-linejoin="round"/>
<path d="M55.2505 1217.58H167.984V1300.17C167.984 1302.99 166.863 1305.7 164.868 1307.7C162.873 1309.69 160.167 1310.81 157.345 1310.81H66.1373C63.3158 1310.81 60.6098 1309.69 58.6147 1307.7C56.6196 1305.7 55.4987 1302.99 55.4987 1300.17V1217.58H55.2505Z" fill="#263238"/>
<path d="M167.026 1232.3H55.2506C52.9333 1232.27 50.7199 1231.33 49.0879 1229.69C47.4559 1228.04 46.5361 1225.82 46.5269 1223.5C46.5174 1221.17 47.429 1218.94 49.063 1217.28C50.697 1215.61 52.921 1214.67 55.2506 1214.64H167.026C168.186 1214.64 169.333 1214.88 170.403 1215.32C171.472 1215.77 172.443 1216.43 173.26 1217.25C174.076 1218.07 174.723 1219.05 175.162 1220.12C175.602 1221.2 175.825 1222.34 175.821 1223.5C175.811 1225.83 174.882 1228.07 173.235 1229.71C171.587 1231.36 169.356 1232.29 167.026 1232.3Z" fill="#263238"/>
<path d="M1225.74 822.183H1051.73C1038.78 822.183 1038.32 823.743 1038.32 835.516V1066.27H1239.07V835.516C1239.14 823.743 1238.68 822.183 1225.74 822.183Z" fill="#4CA3FF" stroke="#263238" stroke-linecap="round" stroke-linejoin="round"/>
<path d="M1144.74 1131.2H1128.64V1261.2H1144.74V1131.2Z" fill="#263238"/>
<path d="M1154.39 1156.55H1118.96V1264.43H1154.39V1156.55Z" fill="#263238"/>
<path d="M1193.04 1102.19H1080.31V1140.84H1193.04V1102.19Z" fill="#263238"/>
<path d="M1021.02 1312.16C1025.37 1312.16 1028.89 1308.63 1028.89 1304.29C1028.89 1299.94 1025.37 1296.41 1021.02 1296.41C1016.67 1296.41 1013.15 1299.94 1013.15 1304.29C1013.15 1308.63 1016.67 1312.16 1021.02 1312.16Z" fill="#263238"/>
<path d="M1260.21 1304.29C1260.21 1302.73 1259.75 1301.21 1258.88 1299.91C1258.02 1298.62 1256.79 1297.61 1255.35 1297.01C1253.91 1296.42 1252.33 1296.26 1250.8 1296.57C1249.27 1296.87 1247.87 1297.62 1246.77 1298.72C1245.67 1299.82 1244.92 1301.22 1244.61 1302.75C1244.31 1304.28 1244.47 1305.86 1245.06 1307.3C1245.66 1308.74 1246.67 1309.97 1247.96 1310.83C1249.26 1311.7 1250.78 1312.16 1252.34 1312.16C1254.42 1312.16 1256.43 1311.33 1257.9 1309.85C1259.38 1308.38 1260.21 1306.37 1260.21 1304.29Z" fill="#263238"/>
<path d="M1118.96 1264.43L1012.22 1289.92V1297.34L1135.42 1287.16V1263.97L1118.96 1264.43Z" fill="#263238"/>
<path d="M1154.39 1264.43L1261.17 1289.92V1297.34L1137.94 1287.16V1263.97L1154.39 1264.43Z" fill="#263238"/>
<path d="M1137.12 1312.16C1136.37 1312.16 1135.63 1312.01 1134.94 1311.72C1134.24 1311.44 1133.61 1311.02 1133.08 1310.49C1132.55 1309.96 1132.13 1309.33 1131.85 1308.63C1131.56 1307.94 1131.41 1307.2 1131.41 1306.45V1282.69C1131.41 1281.17 1132.01 1279.72 1133.08 1278.64C1134.15 1277.56 1135.6 1276.95 1137.12 1276.95C1138.64 1276.95 1140.09 1277.56 1141.16 1278.64C1142.23 1279.72 1142.83 1281.17 1142.83 1282.69V1306.45C1142.83 1307.2 1142.68 1307.94 1142.39 1308.63C1142.11 1309.33 1141.69 1309.96 1141.16 1310.49C1140.63 1311.02 1140 1311.44 1139.31 1311.72C1138.61 1312.01 1137.87 1312.16 1137.12 1312.16Z" fill="#263238"/>
<path d="M1128.61 1299.18H1145.6V1263.97H1128.61V1299.18Z" fill="#263238"/>
<path d="M1240.49 1049.24H1036.37C1031.97 1049.24 1028.39 1052.82 1028.39 1057.22V1098.18C1028.39 1102.59 1031.97 1106.16 1036.37 1106.16H1240.49C1244.9 1106.16 1248.47 1102.59 1248.47 1098.18V1057.22C1248.47 1052.82 1244.9 1049.24 1240.49 1049.24Z" fill="#4CA3FF" stroke="#263238" stroke-linecap="round" stroke-linejoin="round"/>
<path d="M1077.01 973.25L1063.82 999.811L1099.18 1048.22H1199.92L1223.75 1007.44L1212.05 973.25H1077.01Z" fill="#263238" stroke="#263238" stroke-linecap="round" stroke-linejoin="round"/>
<path d="M1063.82 999.811C1063.82 999.811 1044.28 1012.08 1039.71 1032.19C1037.47 1042.05 1056.91 1076.69 1068.08 1080.42C1078.71 1083.96 1138.43 1041.69 1138.43 1041.69" fill="#263238"/>
<path d="M1063.82 999.811C1063.82 999.811 1044.28 1012.08 1039.71 1032.19C1037.47 1042.05 1056.91 1076.69 1068.08 1080.42C1078.71 1083.96 1138.43 1041.69 1138.43 1041.69" stroke="#263238" stroke-linecap="round" stroke-linejoin="round"/>
<path d="M1068.25 1010.13C1068.25 1010.13 1045.2 1006.58 1039.46 1023.22C1035.45 1034.88 1040.7 1069.32 1042.01 1073.25C1043.32 1077.19 1065.63 1268.29 1065.63 1268.29H1097.05L1107.69 1027.15" fill="#263238"/>
<path d="M1068.25 1010.13C1068.25 1010.13 1045.2 1006.58 1039.46 1023.22C1035.45 1034.88 1040.7 1069.32 1042.01 1073.25C1043.32 1077.19 1065.63 1268.29 1065.63 1268.29H1097.05L1107.69 1027.15" stroke="#263238" stroke-linecap="round" stroke-linejoin="round"/>
<path d="M1065.63 1268.29L1062.08 1282.94L1027.61 1303.61C1027.61 1303.61 1028.71 1310.14 1033.93 1310.14H1093.64C1094.75 1310.17 1095.84 1309.96 1096.85 1309.52C1097.86 1309.09 1098.77 1308.44 1099.51 1307.62C1100.24 1306.8 1100.79 1305.83 1101.11 1304.78C1101.43 1303.72 1101.52 1302.61 1101.37 1301.52L1097.19 1268.15L1065.63 1268.29Z" fill="white" stroke="#263238" stroke-linecap="round" stroke-linejoin="round"/>
<path d="M1027.79 1304.07C1028.15 1305.53 1029.6 1310.14 1034 1310.14H1093.71C1095.45 1310.13 1097.14 1309.52 1098.48 1308.42C1099.83 1307.31 1100.75 1305.78 1101.09 1304.07H1027.79Z" fill="white" stroke="#263238" stroke-linecap="round" stroke-linejoin="round"/>
<path d="M1062.15 1282.94C1070.54 1282.41 1078.96 1282.98 1087.19 1284.64" stroke="#263238" stroke-linecap="round" stroke-linejoin="round"/>
<path d="M1085.38 1296.52L1075.31 1309.29" stroke="#263238" stroke-linecap="round" stroke-linejoin="round"/>
<path d="M1218.4 999.811C1218.4 999.811 1237.94 1012.08 1242.51 1032.19C1244.75 1042.05 1225.31 1076.69 1214.14 1080.42C1203.5 1083.96 1143.79 1041.69 1143.79 1041.69" fill="#263238"/>
<path d="M1218.4 999.811C1218.4 999.811 1237.94 1012.08 1242.51 1032.19C1244.75 1042.05 1225.31 1076.69 1214.14 1080.42C1203.5 1083.96 1143.79 1041.69 1143.79 1041.69" stroke="#263238" stroke-linecap="round" stroke-linejoin="round"/>
<path d="M1213.82 1010.13C1213.82 1010.13 1236.87 1006.58 1242.62 1023.22C1246.63 1034.88 1241.38 1069.32 1240.07 1073.25C1238.75 1077.19 1216.45 1268.29 1216.45 1268.29H1185.03L1174.57 1027.15" fill="#263238"/>
<path d="M1213.82 1010.13C1213.82 1010.13 1236.87 1006.58 1242.62 1023.22C1246.63 1034.88 1241.38 1069.32 1240.07 1073.25C1238.75 1077.19 1216.45 1268.29 1216.45 1268.29H1185.03L1174.57 1027.15" stroke="#263238" stroke-linecap="round" stroke-linejoin="round"/>
<path d="M1216.45 1268.29L1219.99 1282.94L1254.46 1303.61C1254.46 1303.61 1253.36 1310.14 1248.15 1310.14H1188.36C1187.29 1310.13 1186.24 1309.91 1185.26 1309.47C1184.29 1309.03 1183.41 1308.39 1182.7 1307.58C1181.99 1306.78 1181.46 1305.84 1181.14 1304.82C1180.82 1303.8 1180.72 1302.72 1180.84 1301.66L1185.03 1268.29H1216.45Z" fill="white" stroke="#263238" stroke-linecap="round" stroke-linejoin="round"/>
<path d="M1254.29 1304.07C1253.93 1305.53 1252.48 1310.14 1248.08 1310.14H1188.36C1186.62 1310.13 1184.94 1309.52 1183.59 1308.42C1182.25 1307.31 1181.33 1305.78 1180.99 1304.07H1254.29Z" fill="white" stroke="#263238" stroke-linecap="round" stroke-linejoin="round"/>
<path d="M1219.92 1282.94C1211.54 1282.41 1203.12 1282.98 1194.89 1284.64" stroke="#263238" stroke-linecap="round" stroke-linejoin="round"/>
<path d="M1196.7 1296.52L1206.77 1309.29" stroke="#263238" stroke-linecap="round" stroke-linejoin="round"/>
<path d="M1163.5 763.387L1159.57 765.373L1124.21 764.451L1120.45 767.713V765.373L1116.52 763.387L1045.88 796.26L1077.01 973.25H1212.05L1233.51 796.26L1163.5 763.387Z" fill="white" stroke="#263238" stroke-linecap="round" stroke-linejoin="round"/>
<path d="M1114.64 757.145C1114.64 757.145 1100.13 766.898 1100.13 769.947C1100.13 772.997 1098.08 805.409 1098.08 805.409L1116.38 799.31L1141.2 820.587L1165.31 800.232L1187.69 805.338L1180.6 767.713L1153.15 749.415L1114.64 757.145Z" fill="white" stroke="#263238" stroke-linecap="round" stroke-linejoin="round"/>
<path d="M1233.51 796.26L1295.28 900.979L1249 906.298L1224.53 872.148L1233.51 796.26Z" fill="white" stroke="#263238" stroke-linecap="round" stroke-linejoin="round"/>
<path d="M1046.55 796.26L985.131 900.979L1031.41 906.298L1066.69 866.581L1046.55 796.26Z" fill="white" stroke="#263238" stroke-linecap="round" stroke-linejoin="round"/>
<path d="M1167.3 778.884L1141.09 820.8L1115.45 778.884V717.748H1167.3V778.884Z" fill="white" stroke="#263238" stroke-linecap="round" stroke-linejoin="round"/>
<path d="M1109.81 701.506C1109.81 701.506 1100.2 698.988 1101.16 705.726C1102.12 712.464 1105.03 724.982 1109.81 727.854L1114.64 730.727L1109.81 701.506Z" fill="white" stroke="#263238" stroke-linecap="round" stroke-linejoin="round"/>
<path d="M1174.21 701.506C1174.21 701.506 1183.82 698.988 1182.87 705.726C1181.91 712.464 1179 724.982 1174.21 727.854L1169.39 730.727L1174.21 701.506Z" fill="white" stroke="#263238" stroke-linecap="round" stroke-linejoin="round"/>
<path d="M1178.72 690.336C1178.42 680.841 1174.44 671.834 1167.62 665.222C1160.8 658.61 1151.67 654.913 1142.17 654.913C1132.67 654.913 1123.55 658.61 1116.73 665.222C1109.91 671.834 1105.93 680.841 1105.63 690.336C1105.64 694.126 1106.23 697.892 1107.37 701.506L1116.69 745.266L1133.68 769.096H1150.06L1166.55 748.351L1176.62 702.534C1178.01 698.617 1178.72 694.491 1178.72 690.336Z" fill="white" stroke="#263238" stroke-linecap="round" stroke-linejoin="round"/>
<path d="M1170.88 687.463C1168.82 692.032 1167.51 696.907 1167.01 701.896C1167.83 707.857 1169.45 713.678 1171.84 719.202C1171.84 719.202 1183.36 695.158 1182.48 686.506C1181.59 677.853 1169.89 684.484 1170.88 687.463Z" fill="#263238" stroke="#263238" stroke-linecap="round" stroke-linejoin="round"/>
<path d="M1110.28 717.287C1110.28 717.287 1110.28 715.762 1110.52 713.528C1111.06 707.322 1112.51 695.336 1116.06 693.243C1120.84 690.336 1120.35 675.158 1120.35 675.158C1120.35 675.158 1113.64 682.747 1136.73 690.442C1159.82 698.137 1178.54 695.158 1191.06 678.81C1203.58 662.463 1192.02 650.902 1190.1 656.682C1188.19 662.463 1184.32 670.158 1177.58 664.377C1170.84 658.597 1160.28 647.072 1141.06 647.072C1121.84 647.072 1113.15 664.377 1113.15 664.377C1110.06 665.878 1107.43 668.193 1105.56 671.073C1103.68 673.954 1102.63 677.291 1102.51 680.725C1102.58 692.251 1110.28 717.287 1110.28 717.287Z" fill="#263238" stroke="#263238" stroke-linecap="round" stroke-linejoin="round"/>
<path d="M1177.94 686.825C1164.32 687.392 1152.72 678.208 1140.91 670.122C1129.11 662.037 1121.06 670.122 1121.06 670.122C1121.98 665.727 1124.32 661.757 1127.72 658.827C1131.13 655.898 1135.4 654.172 1139.89 653.916C1155.95 652.888 1161.16 674.945 1176.16 676.86" stroke="white" stroke-width="0.5" stroke-linecap="round" stroke-linejoin="round"/>
<path d="M1139.57 716.4H1107.37L1110.91 727.039C1111.21 728.059 1111.83 728.956 1112.68 729.595C1113.53 730.235 1114.57 730.582 1115.63 730.585H1132.26C1133.37 730.58 1134.44 730.209 1135.31 729.528C1136.19 728.848 1136.81 727.898 1137.08 726.826L1139.57 716.4Z" fill="white" stroke="#263238" stroke-linecap="round" stroke-linejoin="round"/>
<path d="M1175.24 716.4H1143.08L1146.62 727.039C1146.93 728.059 1147.56 728.954 1148.42 729.592C1149.27 730.23 1150.31 730.578 1151.38 730.585H1168.01C1169.11 730.58 1170.19 730.209 1171.06 729.528C1171.93 728.848 1172.56 727.898 1172.83 726.826L1175.24 716.4Z" fill="white" stroke="#263238" stroke-linecap="round" stroke-linejoin="round"/>
<path d="M1107.37 716.471L1105.74 700.761" stroke="#263238" stroke-linecap="round" stroke-linejoin="round"/>
<path d="M1175.24 716.471L1178.93 701.577" stroke="#263238" stroke-linecap="round" stroke-linejoin="round"/>
<path d="M1139.57 716.471H1143.08" stroke="#263238" stroke-linecap="round" stroke-linejoin="round"/>
<path d="M1138.68 721.471H1144.35" stroke="#263238" stroke-linecap="round" stroke-linejoin="round"/>
<path d="M1148.01 741.791C1148.01 741.791 1145.6 745.337 1142.72 745.337C1139.85 745.337 1137.44 741.791 1137.44 741.791" stroke="#263238" stroke-linecap="round" stroke-linejoin="round"/>
<path d="M1174.36 893.284C1174.36 893.284 1160.92 881.546 1157.51 882.645C1154.11 883.745 1150.13 898.497 1153.04 902.256C1155.95 906.015 1162.37 893.177 1162.37 893.177L1174.46 909.88L1174.36 893.284Z" fill="white" stroke="#263238" stroke-linecap="round" stroke-linejoin="round"/>
<path d="M1172.3 898.497L1159.85 902.965C1156.98 906.459 1153.43 909.341 1149.43 911.44C1143.72 913.958 1140.81 916.653 1147.12 919.419C1153.43 922.185 1162.51 912.327 1162.51 912.327L1176.7 913.781C1177.45 912.498 1177.94 911.075 1178.12 909.599C1178.31 908.122 1178.19 906.624 1177.78 905.193C1177.37 903.763 1176.67 902.432 1175.73 901.281C1174.79 900.129 1173.62 899.182 1172.3 898.497Z" fill="white" stroke="#263238" stroke-linecap="round" stroke-linejoin="round"/>
<path d="M1184.5 922.469C1188.28 924.558 1192.65 925.296 1196.91 924.561C1203.79 923.284 1214.85 908.922 1214.85 908.922L1209.29 898.638L1188.01 898.106L1184.5 922.469Z" fill="white" stroke="#263238" stroke-linecap="round" stroke-linejoin="round"/>
<path d="M1172.9 888.177C1172.9 888.177 1165.03 908.78 1165.99 912.149C1166.94 915.518 1180.17 923.674 1184.5 922.469C1187.3 921.688 1193.04 914.525 1196.73 909.702C1197.62 908.523 1198 907.044 1197.8 905.583C1197.6 904.123 1196.84 902.8 1195.67 901.901C1188.82 896.688 1175.84 887.326 1172.9 888.177Z" fill="white" stroke="#263238" stroke-linecap="round" stroke-linejoin="round"/>
<path d="M1172.37 917.079L1182.05 893.248" stroke="#263238" stroke-linecap="round" stroke-linejoin="round"/>
<path d="M1192.16 900.908L1178.82 921.157" stroke="#263238" stroke-linecap="round" stroke-linejoin="round"/>
<path d="M1199.99 897.61C1203.32 906.044 1204.36 915.206 1203.01 924.171L1202.83 925.164L1286.06 932.256C1289.9 931.719 1293.42 929.79 1295.93 926.836C1298.45 923.882 1299.79 920.107 1299.71 916.228V910.093C1299.67 907.968 1299.21 905.872 1298.34 903.931C1297.47 901.99 1296.23 900.243 1294.67 898.794C1293.12 897.345 1291.29 896.224 1289.29 895.496C1287.29 894.769 1285.17 894.451 1283.05 894.56L1199.99 897.61Z" fill="white" stroke="#263238" stroke-linecap="round" stroke-linejoin="round"/>
<path d="M1081.66 893.284C1081.66 893.284 1095.06 881.546 1098.47 882.645C1101.87 883.745 1105.88 898.497 1102.97 902.256C1100.06 906.015 1093.64 893.177 1093.64 893.177L1081.52 909.88L1081.66 893.284Z" fill="white" stroke="#263238" stroke-linecap="round" stroke-linejoin="round"/>
<path d="M1083.82 898.497L1096.3 902.965C1099.17 906.469 1102.71 909.353 1106.73 911.44C1112.4 913.958 1115.31 916.653 1109.03 919.419C1102.76 922.185 1093.64 912.327 1093.64 912.327L1079.46 913.781C1078.71 912.499 1078.22 911.078 1078.04 909.605C1077.85 908.131 1077.97 906.635 1078.37 905.206C1078.78 903.778 1079.47 902.447 1080.41 901.294C1081.35 900.14 1082.51 899.189 1083.82 898.497Z" fill="white" stroke="#263238" stroke-linecap="round" stroke-linejoin="round"/>
<path d="M1071.48 922.469C1067.7 924.558 1063.32 925.296 1059.07 924.561C1052.19 923.284 1041.12 908.922 1041.12 908.922L1046.69 898.638L1067.97 898.106L1071.48 922.469Z" fill="white" stroke="#263238" stroke-linecap="round" stroke-linejoin="round"/>
<path d="M1083.11 888.177C1083.11 888.177 1090.98 908.78 1089.99 912.149C1089 915.518 1075.81 923.674 1071.48 922.469C1068.71 921.688 1062.93 914.525 1059.28 909.702C1058.4 908.523 1058.01 907.044 1058.21 905.583C1058.41 904.123 1059.18 902.8 1060.35 901.901C1067.15 896.688 1080.1 887.326 1083.11 888.177Z" fill="white" stroke="#263238" stroke-linecap="round" stroke-linejoin="round"/>
<path d="M1083.61 917.079L1073.93 893.248" stroke="#263238" stroke-linecap="round" stroke-linejoin="round"/>
<path d="M1063.86 900.908L1077.19 921.157" stroke="#263238" stroke-linecap="round" stroke-linejoin="round"/>
<path d="M1055.98 897.61C1053.48 906.227 1052.72 915.257 1053.75 924.171V925.164L990.947 932.256C984.953 931.121 980.521 924.277 980.627 916.227V910.092C980.627 901.121 986.443 894.099 993.181 894.56L1055.98 897.61Z" fill="white" stroke="#263238" stroke-linecap="round" stroke-linejoin="round"/>
<path d="M1202.33 912.752H1014.39V919.419H1202.33V912.752Z" fill="white" stroke="#263238" stroke-linecap="round" stroke-linejoin="round"/>
<path d="M1307.23 913.462H1213.54V918.71H1307.23V913.462Z" fill="white" stroke="#263238" stroke-linecap="round" stroke-linejoin="round"/>
<path d="M1381.77 735.408H1163.22V876.333H1381.77V735.408Z" fill="white" stroke="#263238" stroke-linecap="round" stroke-linejoin="round"/>
<path d="M1381.77 735.408H1169.53V876.333H1381.77V735.408Z" fill="#263238" stroke="#263238" stroke-linecap="round" stroke-linejoin="round"/>
<path d="M1309.82 800.374H1256.77V921.086H1309.82V800.374Z" fill="white" stroke="#263238" stroke-linecap="round" stroke-linejoin="round"/>
<path d="M1314.71 800.374H1261.66V921.086H1314.71V800.374Z" fill="#263238" stroke="#263238" stroke-linecap="round" stroke-linejoin="round"/>
<path d="M1258.15 801.792H1315.95V884.454" stroke="white" stroke-linecap="round" stroke-linejoin="round"/>
<path d="M831.404 878.283H792.112V923.887H831.404V878.283Z" fill="white" stroke="#263238" stroke-linecap="round" stroke-linejoin="round"/>
<path d="M900.484 746.33H717.961V883.213H900.484V746.33Z" fill="#263238" stroke="#263238" stroke-linecap="round" stroke-linejoin="round"/>
<path d="M890.944 753.493H727.501V876.085H890.944V753.493Z" fill="white" stroke="#263238" stroke-linecap="round" stroke-linejoin="round"/>
<path d="M710.869 1097.01L748.352 1263.04L765.374 1258.29L764.239 1089.88L710.869 1097.01Z" fill="white" stroke="#263238" stroke-linecap="round" stroke-linejoin="round"/>
<path d="M748.352 1263.04L725.657 1303.51L721.082 1311.84H746.083L765.374 1284.46V1310.67H773.778V1266.63L765.374 1258.29L748.352 1263.04Z" fill="white" stroke="#263238" stroke-linecap="round" stroke-linejoin="round"/>
<path d="M852.114 1097.01L814.631 1263.04L797.609 1258.29L798.744 1089.88L852.114 1097.01Z" fill="white" stroke="#263238" stroke-linecap="round" stroke-linejoin="round"/>
<path d="M814.63 1263.04L837.361 1303.51L841.901 1311.84H816.9L797.609 1284.46V1310.67H789.24V1266.63L797.609 1258.29L814.63 1263.04Z" fill="white" stroke="#263238" stroke-linecap="round" stroke-linejoin="round"/>
<path d="M828.531 891.298H788.743V937.505H828.531V891.298Z" fill="white" stroke="#263238" stroke-linecap="round" stroke-linejoin="round"/>
<path d="M777.112 1041.69C777.112 1051.13 774.312 1060.36 769.068 1068.21C763.823 1076.06 756.368 1082.18 747.646 1085.79C738.924 1089.4 729.327 1090.35 720.068 1088.51C710.809 1086.66 702.304 1082.12 695.629 1075.44C688.953 1068.77 684.407 1060.26 682.566 1051C680.724 1041.74 681.669 1032.15 685.282 1023.43C688.895 1014.7 695.012 1007.25 702.862 1002C710.711 996.759 719.94 993.96 729.38 993.96C735.648 993.96 741.855 995.195 747.646 997.593C753.437 999.992 758.699 1003.51 763.131 1007.94C767.564 1012.37 771.08 1017.63 773.478 1023.43C775.877 1029.22 777.112 1035.42 777.112 1041.69Z" fill="#263238" stroke="#263238" stroke-linecap="round" stroke-linejoin="round"/>
<path d="M781.615 1041.69C781.615 1051.13 784.415 1060.36 789.66 1068.21C794.904 1076.06 802.359 1082.18 811.081 1085.79C819.803 1089.4 829.4 1090.35 838.659 1088.51C847.918 1086.66 856.423 1082.12 863.098 1075.44C869.774 1068.77 874.32 1060.26 876.162 1051C878.003 1041.74 877.058 1032.15 873.445 1023.43C869.833 1014.7 863.715 1007.25 855.865 1002C848.016 996.759 838.787 993.96 829.347 993.96C816.688 993.96 804.547 998.989 795.596 1007.94C786.644 1016.89 781.615 1029.03 781.615 1041.69Z" fill="#263238" stroke="#263238" stroke-linecap="round" stroke-linejoin="round"/>
<path d="M763.211 746.507L765.587 774.629L792.538 776.969L793.708 750.018C793.708 750.018 771.58 735.94 763.211 746.507Z" fill="white" stroke="#263238" stroke-linecap="round" stroke-linejoin="round"/>
<path d="M744.026 777.04C749.457 771.619 756.716 768.42 764.381 768.068C778.388 766.756 799.595 767.536 807.148 772.713C812.167 776.441 816.408 781.115 819.63 786.473L734.203 785.019L744.026 777.04Z" fill="white" stroke="#263238" stroke-linecap="round" stroke-linejoin="round"/>
<path d="M867.646 803.707C858.532 793.352 848.496 785.693 837.751 784.771C805.02 781.898 769.842 776.792 736.721 784.168C723.174 787.146 708.351 791.26 697.713 800.374C687.074 809.487 683.528 823.282 676.045 834.985L651.931 873.425C641.86 889.312 631.813 905.317 621.789 921.441C621.789 921.441 617.463 934.42 633.669 940.909C649.875 947.399 659.627 937.647 659.627 937.647L697.925 879.525L710.266 991.052H844.347L858.532 868.39C863.107 876.617 900.023 942.044 913.25 943.214C927.435 944.526 935.059 940.661 940.165 926.547C945.839 910.908 913.356 873.177 905.555 861.581C896.476 847.822 883.426 821.686 867.646 803.707Z" fill="white" stroke="#263238" stroke-linecap="round" stroke-linejoin="round"/>
<path d="M870.093 795.196L913.959 860.481L854.49 889.737L713.139 891.688L657.57 844.914L694.628 792.253C694.628 792.253 727.784 775.692 783.282 774.699C838.78 773.706 870.093 795.196 870.093 795.196Z" fill="white" stroke="#263238" stroke-linecap="round" stroke-linejoin="round"/>
<path d="M710.266 990.91L700.124 1031.55C698.353 1038.65 699.236 1046.15 702.606 1052.65L721.685 1089.42H837.964L856.369 1055.06C858.757 1050.6 860.146 1045.67 860.44 1040.62C860.734 1035.57 859.926 1030.51 858.071 1025.8L844.347 990.91H710.266Z" fill="#263238" stroke="#263238" stroke-linecap="round" stroke-linejoin="round"/>
<path d="M795.02 1063.68H770.693V1156.48H795.02V1063.68Z" fill="#263238" stroke="#263238" stroke-linecap="round" stroke-linejoin="round"/>
<path d="M801.155 1141.87H764.487V1267.76H801.155V1141.87Z" fill="#263238" stroke="#263238" stroke-linecap="round" stroke-linejoin="round"/>
<path d="M800.41 1264.68L783.424 1260.1V1259.29L781.864 1259.68L780.339 1259.29V1260.1L763.353 1264.68L647.534 1286.31V1294.78H780.339H783.424H916.229V1286.31L800.41 1264.68Z" fill="#263238" stroke="#263238" stroke-linecap="round" stroke-linejoin="round"/>
<path d="M657.57 1308.33C662.055 1308.33 665.691 1304.69 665.691 1300.21C665.691 1295.72 662.055 1292.09 657.57 1292.09C653.085 1292.09 649.449 1295.72 649.449 1300.21C649.449 1304.69 653.085 1308.33 657.57 1308.33Z" fill="#263238" stroke="#263238" stroke-linecap="round" stroke-linejoin="round"/>
<path d="M789.984 1300.21C789.984 1301.81 789.508 1303.38 788.616 1304.72C787.724 1306.06 786.455 1307.1 784.971 1307.71C783.487 1308.33 781.855 1308.49 780.279 1308.17C778.704 1307.86 777.257 1307.09 776.121 1305.95C774.986 1304.81 774.212 1303.37 773.899 1301.79C773.586 1300.22 773.746 1298.58 774.361 1297.1C774.976 1295.62 776.017 1294.35 777.352 1293.46C778.687 1292.56 780.258 1292.09 781.864 1292.09C782.931 1292.08 783.99 1292.29 784.977 1292.7C785.964 1293.1 786.861 1293.7 787.616 1294.46C788.371 1295.21 788.969 1296.11 789.376 1297.1C789.782 1298.08 789.989 1299.14 789.984 1300.21Z" fill="#263238" stroke="#263238" stroke-linecap="round" stroke-linejoin="round"/>
<path d="M915.058 1300.21C915.058 1301.82 914.581 1303.39 913.687 1304.72C912.793 1306.06 911.523 1307.1 910.037 1307.71C908.551 1308.33 906.916 1308.49 905.34 1308.17C903.764 1307.85 902.317 1307.08 901.183 1305.94C900.049 1304.8 899.278 1303.35 898.969 1301.77C898.659 1300.19 898.825 1298.56 899.445 1297.08C900.065 1295.59 901.112 1294.33 902.452 1293.44C903.792 1292.55 905.365 1292.08 906.973 1292.09C908.038 1292.09 909.092 1292.3 910.075 1292.71C911.059 1293.11 911.952 1293.71 912.703 1294.47C913.454 1295.22 914.049 1296.12 914.453 1297.1C914.857 1298.09 915.063 1299.14 915.058 1300.21Z" fill="#263238" stroke="#263238" stroke-linecap="round" stroke-linejoin="round"/>
<path d="M857.362 1093H708.422C704.276 1093.01 700.17 1092.2 696.339 1090.61C692.508 1089.03 689.026 1086.7 686.095 1083.77C683.163 1080.84 680.839 1077.36 679.254 1073.53C677.67 1069.7 676.857 1065.59 676.861 1061.44L694.592 838.602C694.592 831.629 697.36 824.942 702.286 820.008C707.213 815.075 713.897 812.298 720.869 812.289H844.986C848.44 812.289 851.859 812.97 855.05 814.293C858.24 815.615 861.139 817.554 863.579 819.998C866.02 822.442 867.955 825.343 869.273 828.535C870.592 831.727 871.268 835.148 871.263 838.602L888.994 1061.44C888.999 1065.6 888.183 1069.71 886.594 1073.54C885.005 1077.38 882.674 1080.86 879.735 1083.8C876.796 1086.73 873.307 1089.05 869.467 1090.63C865.628 1092.21 861.514 1093.02 857.362 1093Z" fill="#4CA3FF" stroke="#263238" stroke-linecap="round" stroke-linejoin="round"/>
<path d="M857.362 1104.74H708.422C704.276 1104.75 700.17 1103.93 696.339 1102.35C692.508 1100.77 689.026 1098.44 686.095 1095.51C683.163 1092.58 680.839 1089.1 679.254 1085.27C677.67 1081.43 676.857 1077.33 676.861 1073.18L694.592 850.339C694.592 843.367 697.36 836.68 702.286 831.746C707.213 826.813 713.897 824.036 720.869 824.027H844.986C848.44 824.027 851.859 824.708 855.05 826.03C858.24 827.353 861.139 829.292 863.579 831.736C866.02 834.18 867.955 837.081 869.273 840.273C870.592 843.465 871.268 846.886 871.263 850.339L888.994 1073.18C888.999 1077.33 888.183 1081.45 886.594 1085.28C885.005 1089.12 882.674 1092.6 879.735 1095.53C876.796 1098.47 873.307 1100.79 869.467 1102.37C865.628 1103.95 861.514 1104.76 857.362 1104.74Z" fill="#4CA3FF" stroke="#263238" stroke-linecap="round" stroke-linejoin="round"/>
<path d="M777.892 761.969C771.406 761.967 765.125 759.692 760.143 755.539C755.16 751.386 751.791 745.618 750.622 739.238C749.806 734.699 749.132 730.159 747.962 725.691L741.898 693.315C741.898 683.765 745.689 674.606 752.438 667.851C759.187 661.095 768.342 657.295 777.892 657.285C787.447 657.285 796.612 661.081 803.368 667.838C810.125 674.595 813.921 683.759 813.921 693.315L807.857 725.691C806.687 730.159 806.013 734.699 805.198 739.238C804.027 745.624 800.653 751.396 795.663 755.55C790.673 759.704 784.384 761.975 777.892 761.969Z" fill="#263238" stroke="#263238" stroke-linecap="round" stroke-linejoin="round"/>
<path d="M755.445 664.626C750.408 666.729 746.044 670.171 742.825 674.578C739.605 678.985 737.654 684.189 737.182 689.626C735.728 708.35 741.508 729.024 742.466 742.5C743.423 755.975 739.097 766.543 727.572 784.806C716.046 803.069 723.245 829.984 751.118 844.878C778.991 859.772 816.262 850.73 828.531 835.268C851.688 806.048 821.794 766.543 817.893 745.869C813.992 725.195 823.177 698.279 812.148 677.605C801.119 656.931 786.19 650.193 773.672 650.193C761.154 650.193 755.445 664.626 755.445 664.626Z" fill="white" stroke="#263238" stroke-linecap="round" stroke-linejoin="round"/>
<path d="M813.567 724.024C813.567 724.024 807.715 762.04 816.474 791.402C825.233 820.764 811.616 847.928 779.417 848.886C747.217 849.843 739.451 807.963 757.005 806.97C774.559 805.977 774.558 824.523 770.658 825.516" stroke="#263238" stroke-linecap="round" stroke-linejoin="round"/>
<path d="M755.445 664.626C755.445 664.626 770.658 675.265 771.651 690.868" stroke="#263238" stroke-linecap="round" stroke-linejoin="round"/>
<path d="M549.482 874.524H506.963V923.887H549.482V874.524Z" fill="white" stroke="#263238" stroke-linecap="round" stroke-linejoin="round"/>
<path d="M624.307 731.684H426.749V879.844H624.307V731.684Z" fill="#263238" stroke="#263238" stroke-linecap="round" stroke-linejoin="round"/>
<path d="M613.952 739.45H437.068V872.113H613.952V739.45Z" fill="white" stroke="#263238" stroke-linecap="round" stroke-linejoin="round"/>
<path d="M579.66 914.312H394.514V922.54H579.66V914.312Z" fill="white" stroke="#263238" stroke-linecap="round" stroke-linejoin="round"/>
<path d="M159.863 1310.6H150.111L143.054 931.299H166.884L159.863 1310.6Z" fill="white" stroke="#263238" stroke-linecap="round" stroke-linejoin="round"/>
<path d="M242.17 1310.6H232.418L225.361 931.299H249.227L242.17 1310.6Z" fill="#263238" stroke="#263238" stroke-linecap="round" stroke-linejoin="round"/>
<path d="M841.369 1310.6H831.617L824.56 931.299H848.426L841.369 1310.6Z" fill="#263238" stroke="#263238" stroke-linecap="round" stroke-linejoin="round"/>
<path d="M947.116 1310.6H937.328L930.307 931.299H954.137L947.116 1310.6Z" fill="#263238" stroke="#263238" stroke-linecap="round" stroke-linejoin="round"/>
<path d="M917.009 1310.6H907.257L900.2 931.299H924.066L917.009 1310.6Z" fill="#263238" stroke="#263238" stroke-linecap="round" stroke-linejoin="round"/>
<path d="M1295.24 1310.6H1285.49L1278.44 931.299H1302.27L1295.24 1310.6Z" fill="#263238" stroke="#263238" stroke-linecap="round" stroke-linejoin="round"/>
<path d="M344.548 1310.6H334.761L327.739 931.299H351.57L344.548 1310.6Z" fill="#263238" stroke="#263238" stroke-linecap="round" stroke-linejoin="round"/>
<path d="M418.451 1310.6H408.699L401.642 931.299H425.508L418.451 1310.6Z" fill="#263238" stroke="#263238" stroke-linecap="round" stroke-linejoin="round"/>
<path d="M1319.32 1310.6H1309.54L1302.51 931.299H1326.34L1319.32 1310.6Z" fill="#263238" stroke="#263238" stroke-linecap="round" stroke-linejoin="round"/>
<path d="M1354.43 1310.6H1344.68L1337.62 931.299H1361.49L1354.43 1310.6Z" fill="#263238" stroke="#263238" stroke-linecap="round" stroke-linejoin="round"/>
<path d="M802.68 1310.6H792.928L785.906 931.299H809.737L802.68 1310.6Z" fill="white" stroke="#263238" stroke-linecap="round" stroke-linejoin="round"/>
<path d="M1391.2 1310.6H1381.45L1374.4 931.299H1398.23L1391.2 1310.6Z" fill="white" stroke="#263238" stroke-linecap="round" stroke-linejoin="round"/>
<path d="M1418.83 920.093H134.437V1018.18H1418.83V920.093Z" fill="white" stroke="#263238" stroke-linecap="round" stroke-linejoin="round"/>
<path d="M1418.83 920.093H134.437V945.022H1418.83V920.093Z" fill="#263238" stroke="#263238" stroke-linecap="round" stroke-linejoin="round"/>
<path d="M1427.8 920.093H125.43V933.71H1427.8V920.093Z" fill="white" stroke="#263238" stroke-linecap="round" stroke-linejoin="round"/>
<path d="M270.078 1264.14L239.936 1302.3C239.936 1302.3 234.936 1308.33 243.943 1309.39C252.95 1310.46 298.2 1309.39 298.2 1309.39L296.746 1271.7L270.078 1264.14Z" fill="white" stroke="#263238" stroke-linecap="round" stroke-linejoin="round"/>
<path d="M267.419 1035.27L265.646 1269.78C265.636 1271.26 265.919 1272.72 266.478 1274.09C267.037 1275.46 267.861 1276.7 268.903 1277.75C269.944 1278.8 271.183 1279.63 272.547 1280.2C273.911 1280.77 275.374 1281.06 276.852 1281.06H285.752C288.415 1281.05 290.989 1280.1 293.015 1278.37C295.041 1276.64 296.388 1274.25 296.817 1271.63L330.541 1058.47L267.419 1035.27Z" fill="#263238" stroke="#263238" stroke-linecap="round" stroke-linejoin="round"/>
<path d="M368.084 1047.18C374.601 1019.77 357.657 992.255 330.238 985.738C302.819 979.221 275.308 996.166 268.791 1023.58C262.274 1051 279.219 1078.51 306.638 1085.03C334.057 1091.55 361.568 1074.6 368.084 1047.18Z" fill="#263238" stroke="#263238" stroke-linecap="round" stroke-linejoin="round"/>
<path d="M473.7 1264.14L503.807 1302.3C503.807 1302.3 508.843 1308.33 499.8 1309.39C490.757 1310.46 445.579 1309.39 445.579 1309.39L446.962 1268.43L473.7 1264.14Z" fill="white" stroke="#263238" stroke-linecap="round" stroke-linejoin="round"/>
<path d="M476.324 1035.27L478.097 1269.78C478.107 1271.26 477.824 1272.72 477.265 1274.09C476.706 1275.46 475.882 1276.7 474.84 1277.75C473.799 1278.8 472.56 1279.63 471.196 1280.2C469.832 1280.77 468.369 1281.06 466.892 1281.06H458.061C455.395 1281.07 452.814 1280.12 450.785 1278.39C448.756 1276.66 447.412 1274.26 446.997 1271.63L413.415 1058.47L476.324 1035.27Z" fill="#263238" stroke="#263238" stroke-linecap="round" stroke-linejoin="round"/>
<path d="M461.375 1071.35C481.303 1051.42 481.303 1019.11 461.375 999.18C441.447 979.252 409.137 979.252 389.208 999.18C369.28 1019.11 369.28 1051.42 389.208 1071.35C409.137 1091.28 441.447 1091.28 461.375 1071.35Z" fill="#263238" stroke="#263238" stroke-linecap="round" stroke-linejoin="round"/>
<path d="M354.619 719.734L357.102 749.805L385.932 752.288L387.173 723.493C387.173 723.493 363.378 708.457 354.619 719.734Z" fill="white" stroke="#263238" stroke-linecap="round" stroke-linejoin="round"/>
<path d="M340.151 711.861C338.586 712.041 337.013 711.594 335.777 710.617C334.54 709.64 333.742 708.213 333.555 706.648L331.676 690.761C331.587 689.984 331.652 689.196 331.868 688.443C332.083 687.691 332.445 686.988 332.933 686.376C333.42 685.763 334.024 685.253 334.708 684.873C335.393 684.494 336.146 684.254 336.924 684.165C338.489 683.986 340.062 684.433 341.298 685.41C342.534 686.387 343.333 687.814 343.52 689.378L345.399 705.23C345.493 706.01 345.432 706.802 345.218 707.558C345.005 708.315 344.644 709.022 344.156 709.638C343.668 710.255 343.063 710.768 342.376 711.15C341.688 711.531 340.932 711.773 340.151 711.861Z" fill="white" stroke="#263238" stroke-linecap="round" stroke-linejoin="round"/>
<path d="M401.039 709.84C399.47 709.704 398.018 708.953 397.001 707.75C395.985 706.547 395.486 704.991 395.613 703.421L396.925 687.499C396.988 686.715 397.205 685.952 397.564 685.253C397.922 684.554 398.416 683.932 399.016 683.425C399.616 682.917 400.31 682.533 401.059 682.295C401.808 682.057 402.597 681.97 403.379 682.038C404.16 682.105 404.919 682.325 405.614 682.685C406.309 683.046 406.926 683.54 407.43 684.14C407.934 684.739 408.315 685.432 408.551 686.179C408.787 686.926 408.873 687.712 408.805 688.492L407.493 704.414C407.426 705.194 407.206 705.954 406.845 706.649C406.484 707.344 405.99 707.961 405.391 708.465C404.791 708.969 404.099 709.35 403.352 709.586C402.605 709.821 401.819 709.908 401.039 709.84Z" fill="white" stroke="#263238" stroke-linecap="round" stroke-linejoin="round"/>
<path d="M370.294 736.259C363.361 736.257 356.649 733.825 351.323 729.387C345.998 724.95 342.396 718.786 341.144 711.967C340.257 707.109 339.548 702.251 338.307 697.499L331.853 662.853C331.853 652.648 335.907 642.862 343.122 635.646C350.338 628.43 360.125 624.377 370.329 624.377C380.531 624.386 390.312 628.443 397.525 635.656C404.739 642.87 408.796 652.651 408.805 662.853L402.316 697.499C401.074 702.251 400.33 707.109 399.479 711.967C398.225 718.792 394.618 724.96 389.285 729.399C383.953 733.837 377.232 736.265 370.294 736.259Z" fill="#263238" stroke="#263238" stroke-linecap="round" stroke-linejoin="round"/>
<path d="M327.42 753.351C333.216 747.552 340.968 744.125 349.158 743.741C364.123 742.358 389.017 738.812 397.067 744.344C405.735 751.052 414.023 758.238 421.89 765.869L317.065 761.898L327.42 753.351Z" fill="white" stroke="#263238" stroke-linecap="round" stroke-linejoin="round"/>
<path d="M277.986 767.253L203.516 906.724C203.516 906.724 198.906 920.59 216.247 927.505C233.588 934.42 243.978 923.958 243.978 923.958L287.703 857.432L277.986 767.253Z" fill="#263238" stroke="#263238" stroke-linecap="round" stroke-linejoin="round"/>
<path d="M453.097 762.749C453.097 762.749 549.305 896.936 543.844 912.043C538.383 927.15 530.12 931.228 515.049 929.774C499.977 928.32 455.969 848.956 455.969 848.956L453.097 762.749Z" fill="#263238" stroke="#263238" stroke-linecap="round" stroke-linejoin="round"/>
<path d="M444.799 761.579C444.799 761.579 384.691 755.798 351.18 755.798C317.668 755.798 277.986 767.252 277.986 767.252L297.987 980.981H441.324L453.097 762.749L444.799 761.579Z" fill="#263238" stroke="#263238" stroke-linecap="round" stroke-linejoin="round"/>
<path d="M297.987 980.981L287.348 1024.42C285.456 1032.01 286.402 1040.03 290.008 1046.98L310.363 1086.3H434.657L454.161 1049.74C456.718 1044.97 458.207 1039.71 458.525 1034.31C458.844 1028.9 457.984 1023.5 456.005 1018.46L441.324 981.158L297.987 980.981Z" fill="#263238" stroke="#263238" stroke-linecap="round" stroke-linejoin="round"/>
<path d="M388.556 1058.75H362.563V1157.94H388.556V1058.75Z" fill="#263238" stroke="#263238" stroke-linecap="round" stroke-linejoin="round"/>
<path d="M395.188 1142.37H355.967V1267.83H395.188V1142.37Z" fill="#263238" stroke="#263238" stroke-linecap="round" stroke-linejoin="round"/>
<path d="M394.372 1264.5L376.18 1259.64V1258.75L374.549 1259.18L372.882 1258.75V1259.64L354.726 1264.5L230.928 1287.62V1296.7H372.882H376.18H518.169V1287.62L394.372 1264.5Z" fill="#263238" stroke="#263238" stroke-linecap="round" stroke-linejoin="round"/>
<path d="M241.673 1311.13C246.452 1311.13 250.326 1307.26 250.326 1302.48C250.326 1297.7 246.452 1293.83 241.673 1293.83C236.895 1293.83 233.021 1297.7 233.021 1302.48C233.021 1307.26 236.895 1311.13 241.673 1311.13Z" fill="#263238" stroke="#263238" stroke-linecap="round" stroke-linejoin="round"/>
<path d="M383.202 1302.48C383.202 1304.19 382.694 1305.86 381.743 1307.29C380.793 1308.71 379.441 1309.82 377.86 1310.47C376.279 1311.13 374.539 1311.3 372.861 1310.96C371.182 1310.63 369.641 1309.81 368.431 1308.6C367.22 1307.39 366.396 1305.84 366.062 1304.17C365.729 1302.49 365.9 1300.75 366.555 1299.17C367.21 1297.59 368.319 1296.23 369.742 1295.28C371.165 1294.33 372.838 1293.83 374.549 1293.83C376.844 1293.83 379.045 1294.74 380.667 1296.36C382.29 1297.98 383.202 1300.18 383.202 1302.48Z" fill="#263238" stroke="#263238" stroke-linecap="round" stroke-linejoin="round"/>
<path d="M516.928 1302.48C516.935 1304.2 516.432 1305.88 515.481 1307.31C514.531 1308.75 513.176 1309.87 511.589 1310.53C510.003 1311.19 508.255 1311.37 506.567 1311.04C504.879 1310.71 503.328 1309.88 502.109 1308.67C500.891 1307.46 500.06 1305.91 499.721 1304.22C499.383 1302.54 499.553 1300.79 500.21 1299.2C500.866 1297.61 501.98 1296.25 503.409 1295.29C504.839 1294.34 506.52 1293.83 508.24 1293.83C510.538 1293.83 512.743 1294.74 514.371 1296.36C515.999 1297.98 516.919 1300.18 516.928 1302.48Z" fill="#263238" stroke="#263238" stroke-linecap="round" stroke-linejoin="round"/>
<path d="M250.291 963.64H276V1075.1H275.078C268.495 1075.1 262.181 1072.48 257.526 1067.83C252.87 1063.17 250.255 1056.86 250.255 1050.27V963.64H250.291Z" fill="#4CA3FF" stroke="#263238" stroke-linecap="round" stroke-linejoin="round"/>
<path d="M275.894 940.377H235.468V961.193H275.894V940.377Z" fill="#4CA3FF" stroke="#263238" stroke-linecap="round" stroke-linejoin="round"/>
<path d="M476.182 1075.1C479.575 1075.12 482.939 1074.48 486.081 1073.2C489.223 1071.92 492.08 1070.03 494.487 1067.64C496.894 1065.25 498.804 1062.41 500.105 1059.27C501.407 1056.14 502.074 1052.78 502.07 1049.39V963.64H476.182V1075.1Z" fill="#4CA3FF" stroke="#263238" stroke-linecap="round" stroke-linejoin="round"/>
<path d="M476.182 961.229H516.609V940.413H476.182V961.229Z" fill="#4CA3FF" stroke="#263238" stroke-linecap="round" stroke-linejoin="round"/>
<path d="M455.26 1090.13H295.93C291.498 1090.14 287.109 1089.27 283.013 1087.58C278.918 1085.88 275.196 1083.4 272.06 1080.27C268.925 1077.14 266.438 1073.42 264.741 1069.32C263.044 1065.23 262.17 1060.84 262.17 1056.41L281.071 818.176C281.071 810.717 284.034 803.565 289.308 798.291C294.582 793.017 301.735 790.054 309.193 790.054H441.962C445.661 790.045 449.325 790.766 452.745 792.175C456.165 793.584 459.274 795.654 461.892 798.266C464.511 800.878 466.589 803.981 468.007 807.398C469.424 810.814 470.154 814.477 470.154 818.176L489.055 1056.41C489.055 1060.84 488.181 1065.23 486.481 1069.33C484.782 1073.43 482.292 1077.15 479.153 1080.28C476.013 1083.41 472.287 1085.9 468.188 1087.59C464.088 1089.28 459.695 1090.14 455.26 1090.13Z" fill="#4CA3FF" stroke="#263238" stroke-linecap="round" stroke-linejoin="round"/>
<path d="M455.26 1102.65H295.93C291.498 1102.66 287.109 1101.79 283.013 1100.09C278.918 1098.4 275.196 1095.92 272.06 1092.79C268.925 1089.65 266.438 1085.93 264.741 1081.84C263.044 1077.75 262.17 1073.36 262.17 1068.93L281.071 830.694C281.081 823.242 284.048 816.098 289.321 810.832C294.593 805.566 301.741 802.608 309.193 802.608H441.962C449.414 802.608 456.561 805.566 461.834 810.832C467.107 816.098 470.074 823.242 470.083 830.694L488.984 1068.93C488.984 1077.87 485.431 1086.45 479.107 1092.77C472.782 1099.1 464.204 1102.65 455.26 1102.65Z" fill="#4CA3FF" stroke="#263238" stroke-linecap="round" stroke-linejoin="round"/>
<path d="M5.21387 1310.95H1451.17" stroke="#263238" stroke-linecap="round" stroke-linejoin="round"/>
</svg>
