<svg class="animated" id="freepik_stories-mission-impossible" xmlns="http://www.w3.org/2000/svg" xmlns:xlink="http://www.w3.org/1999/xlink" viewBox="0 0 500 500" version="1.1" xmlns:svgjs="http://svgjs.com/svgjs"><style>svg#freepik_stories-mission-impossible:not(.animated) .animable {opacity: 0;}svg#freepik_stories-mission-impossible.animated #freepik--background-simple--inject-29 {animation: 1s 1 forwards cubic-bezier(.36,-0.01,.5,1.38) slideRight;animation-delay: 0s;}svg#freepik_stories-mission-impossible.animated #freepik--Character--inject-29 {animation: 1s 1 forwards cubic-bezier(.36,-0.01,.5,1.38) zoomIn;animation-delay: 0s;}svg#freepik_stories-mission-impossible.animated #freepik--Graphics--inject-29 {animation: 1s 1 forwards cubic-bezier(.36,-0.01,.5,1.38) slideLeft;animation-delay: 0s;}            @keyframes slideRight {                0% {                    opacity: 0;                    transform: translateX(30px);                }                100% {                    opacity: 1;                    transform: translateX(0);                }            }                    @keyframes zoomIn {                0% {                    opacity: 0;                    transform: scale(0.5);                }                100% {                    opacity: 1;                    transform: scale(1);                }            }                    @keyframes slideLeft {                0% {                    opacity: 0;                    transform: translateX(-30px);                }                100% {                    opacity: 1;                    transform: translateX(0);                }            }        </style><g id="freepik--background-simple--inject-29" class="animable" style="transform-origin: 248.509px 249.248px;"><path d="M82.64,319.36s-3.59-18.09,1.56-27.66,20.6.74,19.13-12.5-11.77-73.56,19.86-88.27,78.71,3.67,92.69-36.79,12.5-69.88,59.58-70.61S410.08,196.81,415.23,232.12,369.41,298.3,368,316.7s29.53,61.07,20,76.52-11.77,19.12-11.77,19.12Z" style="fill: rgb(76, 163, 255); transform-origin: 248.509px 247.933px;" id="elj5qbwv0s0ah" class="animable"></path><g id="elos67c5320kl"><path d="M82.64,319.36s-3.59-18.09,1.56-27.66,20.6.74,19.13-12.5-11.77-73.56,19.86-88.27,78.71,3.67,92.69-36.79,12.5-69.88,59.58-70.61S410.08,196.81,415.23,232.12,369.41,298.3,368,316.7s29.53,61.07,20,76.52-11.77,19.12-11.77,19.12Z" style="fill: rgb(255, 255, 255); opacity: 0.7; transform-origin: 248.509px 247.933px;" class="animable"></path></g><line x1="370" y1="410.61" x2="383.87" y2="414.97" style="fill: none; stroke: rgb(38, 50, 56); stroke-linecap: round; stroke-linejoin: round; transform-origin: 376.935px 412.79px;" id="elt34deedz3q" class="animable"></line><line x1="102.65" y1="326.66" x2="359.97" y2="407.46" style="fill: none; stroke: rgb(38, 50, 56); stroke-linecap: round; stroke-linejoin: round; transform-origin: 231.31px 367.06px;" id="elswp6yl2muu" class="animable"></line></g><g id="freepik--Character--inject-29" class="animable" style="transform-origin: 253.717px 247.355px;"><polygon points="230.99 421.17 262.22 386.6 163.59 353.27 135.48 387.84 230.99 421.17" style="fill: rgb(76, 163, 255); stroke: rgb(38, 50, 56); stroke-linecap: round; stroke-linejoin: round; transform-origin: 198.85px 387.22px;" id="el9efrr7jlxqt" class="animable"></polygon><polygon points="228.01 411.98 248.98 389.36 173.95 362.87 152.98 387.15 228.01 411.98" style="fill: rgb(38, 50, 56); stroke: rgb(38, 50, 56); stroke-linecap: round; stroke-linejoin: round; transform-origin: 200.98px 387.425px;" id="el2eawh3jcrtn" class="animable"></polygon><path d="M217,258.2s-15.48,4.1-22,10.26S185.48,286,185.48,286s-8.77,7.46-12.88,9.7a28.23,28.23,0,0,0-14.17,16.6c-3.36,10.08-7.46,32.84-7.46,32.84L161.41,350s.19-6,9.52-15.11,15.1-24.63,15.85-25,17.16-11.19,17.16-11.19,12.69,8.76,27.05,11.19,30.22-.19,30.22-.19l-4.48,13.81s-10.26,4.47-12.87,9.88-14.92,25.93-14.92,25.93l8.77,7.09a151.65,151.65,0,0,1,22-13.62c12.87-6.53,16-11.19,19.77-18.84a173.62,173.62,0,0,0,8.58-23.5c.19-1.31,3.92-4.66,4.48-12.69l.56-8,19.58-17.53a85.7,85.7,0,0,0,28.36-20.33c12.87-14.18,14.92-21.08,16.23-33.77s6.53-62.86,6.71-63.61,1.87-4.47,4.11-4.85,14.55,10.45,16.23,11.57,5,1.68,5.4-1.87-2.61-12.31-12.12-21.82-16.42-11-18.65-8.58-.75,7.64-2.24,15.29-10.82,35.26-15.49,48.32-3.17,30.78-3.17,30.78a47.29,47.29,0,0,0-10.82,5.59c-4.47,3.36-11.37,8-11.37,8L314,236s10.45-10.45,13.62-16.42,4.1-6.34,2.42-9.88S314.75,189,308.78,181.34,295.53,160.82,294,157.09a13.46,13.46,0,0,1-.19-10.07c1.12-2.61,11.57-7.83,11.76-15.85s-5-5.79-9.89-4.11-17.91,14.37-20.89,22.39-.38,10.63,4.85,15.48S291.24,179.67,294.6,189s7.65,18.28,14.55,20.71c0,0-11,5.22-18.28,10.44s-10.82,7.65-10.82,7.65-9.89,2.8-13.62,7.65a49.15,49.15,0,0,0-5.22,8S227.45,249.24,217,258.2Z" style="fill: rgb(255, 255, 255); transform-origin: 270.362px 245.926px;" id="elffedahpgn4q" class="animable"></path><g style="clip-path: url(&quot;#freepik--clip-path--inject-29&quot;); transform-origin: 232.275px 321.14px;" id="ela68js4aaqga" class="animable"><g id="elxzfh361s2s"><path d="M306.25,275.89l-15.93,7.39s.77,12.05-3.5,18.27-5.83,8.16-5.83,8.16-.39,9.33-3.11,15.16-7,7.77-7,7.77a15.89,15.89,0,0,1-5.05,11.66c-5.44,5.06-19,13.22-27.6,18.66-.89.57-1.74,1.17-2.56,1.79l2,1.64a151.65,151.65,0,0,1,22-13.62c12.87-6.53,16-11.19,19.77-18.84a173.62,173.62,0,0,0,8.58-23.5c.19-1.31,3.92-4.66,4.48-12.69l.56-8,14.32-12.82Z" style="opacity: 0.2; transform-origin: 271.525px 321.14px;" class="animable"></path></g><g id="el4u29ydd50oj"><path d="M231,309.87c13,2.2,27.26.26,29.82-.12.82-2.15,1.34-4.56,0-5.48-2.33-1.56-1.55-5.83-1.55-5.83s-1.94,4.27-17.49,4.27-36.54-13.21-36.54-13.21-1.55,4.66-5.83,6.22-15.94,8.16-15.94,8.16-.39,10.88-8.16,17.49-16.73,22-16.73,22L157.17,348l4.24,2s.19-6,9.52-15.11,15.1-24.63,15.85-25,17.16-11.19,17.16-11.19S216.63,307.44,231,309.87Z" style="opacity: 0.2; transform-origin: 209.406px 319.75px;" class="animable"></path></g></g><path d="M217,258.2s-15.48,4.1-22,10.26S185.48,286,185.48,286s-8.77,7.46-12.88,9.7a28.23,28.23,0,0,0-14.17,16.6c-3.36,10.08-7.46,32.84-7.46,32.84L161.41,350s.19-6,9.52-15.11,15.1-24.63,15.85-25,17.16-11.19,17.16-11.19,12.69,8.76,27.05,11.19,30.22-.19,30.22-.19l-4.48,13.81s-10.26,4.47-12.87,9.88-14.92,25.93-14.92,25.93l8.77,7.09a151.65,151.65,0,0,1,22-13.62c12.87-6.53,16-11.19,19.77-18.84a173.62,173.62,0,0,0,8.58-23.5c.19-1.31,3.92-4.66,4.48-12.69l.56-8,19.58-17.53a85.7,85.7,0,0,0,28.36-20.33c12.87-14.18,14.92-21.08,16.23-33.77s6.53-62.86,6.71-63.61,1.87-4.47,4.11-4.85,14.55,10.45,16.23,11.57,5,1.68,5.4-1.87-2.61-12.31-12.12-21.82-16.42-11-18.65-8.58-.75,7.64-2.24,15.29-10.82,35.26-15.49,48.32-3.17,30.78-3.17,30.78a47.29,47.29,0,0,0-10.82,5.59c-4.47,3.36-11.37,8-11.37,8L314,236s10.45-10.45,13.62-16.42,4.1-6.34,2.42-9.88S314.75,189,308.78,181.34,295.53,160.82,294,157.09a13.46,13.46,0,0,1-.19-10.07c1.12-2.61,11.57-7.83,11.76-15.85s-5-5.79-9.89-4.11-17.91,14.37-20.89,22.39-.38,10.63,4.85,15.48S291.24,179.67,294.6,189s7.65,18.28,14.55,20.71c0,0-11,5.22-18.28,10.44s-10.82,7.65-10.82,7.65-9.89,2.8-13.62,7.65a49.15,49.15,0,0,0-5.22,8S227.45,249.24,217,258.2Z" style="fill: none; stroke: rgb(38, 50, 56); stroke-linecap: round; stroke-linejoin: round; transform-origin: 270.362px 245.926px;" id="elj5qrotrky1" class="animable"></path><path d="M273,236.93c-2.35,0-5.26.22-8,.5a43.75,43.75,0,0,0-3.75,6S227.45,249.24,217,258.2c0,0-15.48,4.1-22,10.26S185.48,286,185.48,286s-4.65,3.95-8.76,7c3.23-.23,8.66-.1,11.55,2.92s2.73,8.44,2.31,11.56c5.06-3.29,13.36-8.76,13.36-8.76s12.69,8.76,27.05,11.19,30.22-.19,30.22-.19l-.72,2.22c2.69-2,8.5-5,16.95-1.66a13,13,0,0,1,8.07,8.41c1.44-4.23,2.48-7.62,2.56-8.22.19-1.31,3.92-4.66,4.48-12.69l.56-8L309.61,275c.35-3.59-.1-9.11-3.44-16.75C299.64,243.27,278.74,236.93,273,236.93Z" style="fill: rgb(76, 163, 255); transform-origin: 243.215px 277.81px;" id="eloom1bb54dfg" class="animable"></path><g style="clip-path: url(&quot;#freepik--clip-path-2--inject-29&quot;); transform-origin: 232.275px 321.14px;" id="elb4ugeqxtm9h" class="animable"><g id="elo4mlctw24bf"><path d="M231,309.87c13,2.2,27.26.26,29.82-.12.82-2.15,1.34-4.56,0-5.48-2.33-1.56-1.55-5.83-1.55-5.83s-1.94,4.27-17.49,4.27-36.54-13.21-36.54-13.21-1.55,4.66-5.83,6.22-15.94,8.16-15.94,8.16-.39,10.88-8.16,17.49-16.73,22-16.73,22L157.17,348l4.24,2s.19-6,9.52-15.11,15.1-24.63,15.85-25,17.16-11.19,17.16-11.19S216.63,307.44,231,309.87Z" style="opacity: 0.2; transform-origin: 209.406px 319.75px;" class="animable"></path></g><g id="elul4c6qae4rb"><path d="M306.25,275.89l-15.93,7.39s.77,12.05-3.5,18.27-5.83,8.16-5.83,8.16-.39,9.33-3.11,15.16-7,7.77-7,7.77a15.89,15.89,0,0,1-5.05,11.66c-5.44,5.06-19,13.22-27.6,18.66-.89.57-1.74,1.17-2.56,1.79l2,1.64a151.65,151.65,0,0,1,22-13.62c12.87-6.53,16-11.19,19.77-18.84a173.62,173.62,0,0,0,8.58-23.5c.19-1.31,3.92-4.66,4.48-12.69l.56-8,14.32-12.82Z" style="opacity: 0.2; transform-origin: 271.525px 321.14px;" class="animable"></path></g></g><path d="M273,236.93c-2.35,0-5.26.22-8,.5a43.75,43.75,0,0,0-3.75,6S227.45,249.24,217,258.2c0,0-15.48,4.1-22,10.26S185.48,286,185.48,286s-4.65,3.95-8.76,7c3.23-.23,8.66-.1,11.55,2.92s2.73,8.44,2.31,11.56c5.06-3.29,13.36-8.76,13.36-8.76s12.69,8.76,27.05,11.19,30.22-.19,30.22-.19l-.72,2.22c2.69-2,8.5-5,16.95-1.66a13,13,0,0,1,8.07,8.41c1.44-4.23,2.48-7.62,2.56-8.22.19-1.31,3.92-4.66,4.48-12.69l.56-8L309.61,275c.35-3.59-.1-9.11-3.44-16.75C299.64,243.27,278.74,236.93,273,236.93Z" style="fill: none; stroke: rgb(38, 50, 56); stroke-linecap: round; stroke-linejoin: round; transform-origin: 243.215px 277.81px;" id="el1oxys4nrhyy" class="animable"></path><path d="M267.55,285.43a18.44,18.44,0,0,0-7.46,10.64c-1.86,7.27.19,11.56.19,11.56" style="fill: none; stroke: rgb(38, 50, 56); stroke-linecap: round; stroke-linejoin: round; transform-origin: 263.43px 296.53px;" id="elxqrjwhwsuw" class="animable"></path><path d="M209.72,255.36s-8.37,3.76-11.3,2.09-2.51-8.79,1-12.77,10.47-4.4,8.17-5-6.7-1.89-1.89-5.65,18.84-7.12,30.36-3.77,15.7,9.63,16.53,12.56a17.52,17.52,0,0,1,.84,4s5-2.09,5.86-.41a2.21,2.21,0,0,1-.42,2.72s1.89,1.88,2.3,6.28-2.51,8.37-4.18,10-4.19,2.1-7.12-.41-4.6-11.1-6.49-11.1-9.84.42-10-1l-.2-1.46-21.36,5.44Z" style="fill: rgb(38, 50, 56); stroke: rgb(38, 50, 56); stroke-linecap: round; stroke-linejoin: round; transform-origin: 228.842px 247.821px;" id="elbd8kqgp41hj" class="animable"></path><path d="M253.38,273.68s1.49,17.91-3.55,26.86-14.18,2.61-16.23.56,9.52-10.63,12.13-17.35S252.44,270,253.38,273.68Z" style="fill: rgb(255, 255, 255); transform-origin: 243.472px 288.931px;" id="el3xyj16z4agc" class="animable"></path><g style="clip-path: url(&quot;#freepik--clip-path-3--inject-29&quot;); transform-origin: 243.472px 288.931px;" id="elk8qfrifwwg9" class="animable"><g id="elxz4nk5cette"><path d="M253.38,273.68s1.49,17.91-3.55,26.86-14.18,2.61-16.23.56,9.52-10.63,12.13-17.35S252.44,270,253.38,273.68Z" style="opacity: 0.2; transform-origin: 243.472px 288.931px;" class="animable"></path></g></g><path d="M253.38,273.68s1.49,17.91-3.55,26.86-14.18,2.61-16.23.56,9.52-10.63,12.13-17.35S252.44,270,253.38,273.68Z" style="fill: none; stroke: rgb(38, 50, 56); stroke-linecap: round; stroke-linejoin: round; transform-origin: 243.472px 288.931px;" id="elcj6xya48sf" class="animable"></path><path d="M209.72,255.36a103.87,103.87,0,0,0,5.86,29.09c5.44,14.86,14.65,19.89,18.63,20.1s11.51-7.33,14.86-14.45a114.8,114.8,0,0,0,5.66-15.28s4.81-1.67,6.07-6.07,1-8.37-2.31-8.79-4.81,4.4-4.81,4.4a16,16,0,0,1-5.86-8.17c-1.68-5.44,1.67-9.63,0-8.58s-5,4.4-6.7,3.77,1-5.44,1-5.44S215,253.05,209.72,255.36Z" style="fill: rgb(255, 255, 255); stroke: rgb(38, 50, 56); stroke-linecap: round; stroke-linejoin: round; transform-origin: 235.609px 275.247px;" id="elx2hpmmyhrof" class="animable"></path><line x1="245.31" y1="266.45" x2="254.52" y2="262.89" style="fill: none; stroke: rgb(38, 50, 56); stroke-linecap: round; stroke-linejoin: round; transform-origin: 249.915px 264.67px;" id="elm96yrfk7tkh" class="animable"></line><path d="M223.54,267.5l-18.42-3.35s.21,5.86,3.14,9.21,9,3.77,11.3,2.93,1.88-7.33,4.4-6.7,2.09,3.35,3.14,5.86,2.09,2.3,6.69,2.93,9,.21,10.68-2.09,2.51-9.42.84-9.84-7.33.42-13.4.63S223.54,267.5,223.54,267.5Z" style="fill: rgb(255, 255, 255); transform-origin: 225.671px 271.397px;" id="elwuxu7xmn1go" class="animable"></path><g style="clip-path: url(&quot;#freepik--clip-path-4--inject-29&quot;); transform-origin: 227.736px 272.847px;" id="elp1s1tp9ohki" class="animable"><path d="M233.79,278.38c4.61.63,9,.21,10.68-2.09,1.21-1.67,2-5.85,1.68-8.2l-18,9C229.06,277.91,230.54,277.94,233.79,278.38Z" style="fill: rgb(76, 163, 255); transform-origin: 237.186px 273.367px;" id="elm5weguffbxl" class="animable"></path><path d="M219.56,276.29c2.3-.84,1.88-7.33,4.4-6.7,1.49.38,1.95,1.5,2.3,2.88l6.34-5.42-.69,0c-1.8.06-3.27.12-4.44.18l-18.22,7A12.76,12.76,0,0,0,219.56,276.29Z" style="fill: rgb(76, 163, 255); transform-origin: 220.925px 271.834px;" id="el5kaks4vmgz" class="animable"></path></g><path d="M223.54,267.5l-18.42-3.35s.21,5.86,3.14,9.21,9,3.77,11.3,2.93,1.88-7.33,4.4-6.7,2.09,3.35,3.14,5.86,2.09,2.3,6.69,2.93,9,.21,10.68-2.09,2.51-9.42.84-9.84-7.33.42-13.4.63S223.54,267.5,223.54,267.5Z" style="fill: none; stroke: rgb(38, 50, 56); stroke-linecap: round; stroke-linejoin: round; transform-origin: 225.671px 271.397px;" id="elwzgl7hobso" class="animable"></path><path d="M222.28,274.2s-.21,5.44-.21,8.79,1.26,3.35,3.56,3.14a6.86,6.86,0,0,0,3.56-1.26" style="fill: none; stroke: rgb(38, 50, 56); stroke-linecap: round; stroke-linejoin: round; transform-origin: 225.63px 280.203px;" id="eld97autfd5ng" class="animable"></path><path d="M229.61,292s4.39-5.86,8.79-5.24,4.39,4.61,2.09,6.08-8.16,2.3-9.63,1.88S228.77,292.83,229.61,292Z" style="fill: none; stroke: rgb(38, 50, 56); stroke-linecap: round; stroke-linejoin: round; transform-origin: 235.625px 290.771px;" id="elbi0zkooho4m" class="animable"></path><path d="M240.7,288.22s-5.44,4.61-10.88,4.81" style="fill: none; stroke: rgb(38, 50, 56); stroke-linecap: round; stroke-linejoin: round; transform-origin: 235.26px 290.625px;" id="elb62erhbb5w" class="animable"></path><path d="M224.58,262.68s2.72,2.93,3.77,2.1,4.82-4.61,9.21-5,5,.42,4.4-.42-3.56-2.3-7.12-1.88-6.07,4-7.33,4.6A7.59,7.59,0,0,1,224.58,262.68Z" style="fill: rgb(38, 50, 56); stroke: rgb(38, 50, 56); stroke-linecap: round; stroke-linejoin: round; transform-origin: 233.367px 261.167px;" id="el1wvl3f6r4bt" class="animable"></path><path d="M219.77,261.85s-.42,1.67-1.05,1.88-.84.21-4.39-.84-4.61-1.25-4.61-1.25-.21-1.68,2.3-1.89,5.66,1.68,5.66,1.68S219.14,262.47,219.77,261.85Z" style="fill: rgb(38, 50, 56); stroke: rgb(38, 50, 56); stroke-linecap: round; stroke-linejoin: round; transform-origin: 214.743px 261.787px;" id="el603gyeq6aiq" class="animable"></path><path d="M244.26,233.59s9.42,4,10.26,19.67l1.88-.21a34.87,34.87,0,0,0-2.93-14C250.33,232.33,244.26,233.59,244.26,233.59Z" style="fill: rgb(255, 255, 255); stroke: rgb(38, 50, 56); stroke-linecap: round; stroke-linejoin: round; transform-origin: 250.33px 243.378px;" id="elg1w5e0budqe" class="animable"></path><path d="M252.48,259.84a3,3,0,0,1-1-5.8l8.81-3.15a3,3,0,0,1,2,5.62l-8.81,3.15A2.94,2.94,0,0,1,252.48,259.84Z" style="fill: rgb(255, 255, 255); stroke: rgb(38, 50, 56); stroke-miterlimit: 10; transform-origin: 256.771px 255.324px;" id="el33jubh873yx" class="animable"></path><path d="M253.38,256.48c.48,1.29.1,2.63-.86,3s-2.13-.39-2.62-1.69-.1-2.63.86-3S252.89,255.19,253.38,256.48Z" style="fill: rgb(255, 255, 255); stroke: rgb(38, 50, 56); stroke-linecap: round; stroke-linejoin: round; transform-origin: 251.638px 257.135px;" id="ely3x0srtlnl" class="animable"></path><path d="M252.33,273.14a2,2,0,0,1-4,0c0-1.11,2-5.53,2-5.53S252.33,272,252.33,273.14Z" style="fill: none; stroke: rgb(38, 50, 56); stroke-linecap: round; stroke-linejoin: round; transform-origin: 250.33px 271.375px;" id="el6aaic0jcm5n" class="animable"></path><path d="M359,128.93c-2.24,2.42-.75,7.64-2.24,15.29s-10.82,35.26-15.49,48.32-3.17,30.78-3.17,30.78a47.29,47.29,0,0,0-10.82,5.59c-4.47,3.36-11.37,8-11.37,8L314,236s10.45-10.45,13.62-16.42,4.1-6.34,2.42-9.88S314.75,189,308.78,181.34,295.53,160.82,294,157.09a13.46,13.46,0,0,1-.19-10.07c1.12-2.61,11.57-7.83,11.76-15.85s-5-5.79-9.89-4.11-17.91,14.37-20.89,22.39-.38,10.63,4.85,15.48S291.24,179.67,294.6,189s7.65,18.28,14.55,20.71c0,0-11,5.22-18.28,10.44s-10.82,7.65-10.82,7.65-9.89,2.8-13.62,7.65A57.28,57.28,0,0,0,262,242c4.26-1.56,14.58-3.95,26.63,3.14,14.95,8.79,18.12,23.38,18.12,32.37l5.94-5.32a85.7,85.7,0,0,0,28.36-20.33c12.87-14.18,14.92-21.08,16.23-33.77s6.53-62.86,6.71-63.61,1.87-4.47,4.11-4.85,14.55,10.45,16.23,11.57,5,1.68,5.4-1.87-2.61-12.31-12.12-21.82S361.19,126.5,359,128.93Z" style="fill: rgb(38, 50, 56); stroke: rgb(38, 50, 56); stroke-linecap: round; stroke-linejoin: round; transform-origin: 325.882px 201.476px;" id="el8i3wmh2giar" class="animable"></path><path d="M294.41,229.28s19.78,2.62,30.22,18.66" style="fill: none; stroke: rgb(255, 255, 255); stroke-linecap: round; stroke-linejoin: round; transform-origin: 309.52px 238.61px;" id="el2cyx03uh7wr" class="animable"></path><path d="M389.73,159.33c.38-3.54-2.61-12.31-12.12-21.82s-16.42-11-18.65-8.58-.75,7.64-2.24,15.29c-.2,1-.55,2.42-1,4.08a8.72,8.72,0,0,1,6.22,1.52,12.87,12.87,0,0,1,3,2.66c.74-1.25,1.85-2.63,3.17-2.85,2.23-.37,14.55,10.45,16.23,11.57S389.36,162.88,389.73,159.33Z" style="fill: rgb(38, 50, 56); stroke: rgb(38, 50, 56); stroke-linecap: round; stroke-linejoin: round; transform-origin: 372.741px 144.979px;" id="el5j0p4dlxq0j" class="animable"></path><path d="M279.68,164.93a37.59,37.59,0,0,1,3.2,3.43,14.6,14.6,0,0,0,12.92-7.61c-.81-1.55-1.43-2.84-1.76-3.66a13.46,13.46,0,0,1-.19-10.07c1.12-2.61,11.57-7.83,11.76-15.85s-5-5.79-9.89-4.11-17.91,14.37-20.89,22.39S274.45,160.08,279.68,164.93Z" style="fill: rgb(38, 50, 56); stroke: rgb(38, 50, 56); stroke-linecap: round; stroke-linejoin: round; transform-origin: 289.594px 146.901px;" id="elcbh9pzpllgw" class="animable"></path><path d="M295.72,127.06c-4.85,1.68-17.91,14.37-20.89,22.39-2.35,6.29-1.23,9.26,1.88,12.58a10.87,10.87,0,0,0,3.9-1.95c4.48-3.36,6.34-9.33,9.14-11.38,1.59-1.17,4.45-3,7.35-4.95,3.46-2.93,8.38-7.1,8.51-12.58C305.79,123.14,300.57,125.38,295.72,127.06Z" style="fill: rgb(255, 255, 255); stroke: rgb(38, 50, 56); stroke-linecap: round; stroke-linejoin: round; transform-origin: 289.593px 143.734px;" id="el55ipn8lc6eg" class="animable"></path><path d="M295.72,127.06c-4.85,1.68-17.91,14.37-20.89,22.39-1.67,4.47-1.59,7.26-.29,9.7a7,7,0,0,0,5.7-1.5c6.15-4.47,3.91-9.14,9.32-11.75a56.91,56.91,0,0,0,15.09-10.76,10.3,10.3,0,0,0,1-4C305.79,123.14,300.57,125.38,295.72,127.06Z" style="fill: rgb(255, 255, 255); stroke: rgb(38, 50, 56); stroke-linecap: round; stroke-linejoin: round; transform-origin: 289.611px 142.348px;" id="elhn4yt68ip9" class="animable"></path><path d="M389.73,159.33c.38-3.54-2.61-12.31-12.12-21.82s-16.42-11-18.65-8.58a5.2,5.2,0,0,0-1.17,2.8c1.76-.63,4.72-1,8.63.74,6.53,3,18.46,17.91,20.33,22,1.09,2.4.78,5.35.52,7.55C388.47,162,389.53,161.24,389.73,159.33Z" style="fill: rgb(255, 255, 255); stroke: rgb(38, 50, 56); stroke-linecap: round; stroke-linejoin: round; transform-origin: 373.776px 144.963px;" id="eldy518kj93i" class="animable"></path><path d="M315.17,263.92,306.44,271a.73.73,0,0,0-.26.59l.3,7.72a.73.73,0,0,0,1.18.53l9-7.26A.73.73,0,0,0,317,272l-.6-7.57A.72.72,0,0,0,315.17,263.92Z" style="fill: rgb(38, 50, 56); stroke: rgb(38, 50, 56); stroke-linecap: round; stroke-linejoin: round; transform-origin: 311.59px 271.852px;" id="elp34y9y2io3h" class="animable"></path><path d="M311.2,184.66q-.4-56.24,0-111.12" style="fill: none; stroke: rgb(38, 50, 56); stroke-linecap: round; stroke-linejoin: round; transform-origin: 311.1px 129.1px;" id="el7el2nl0exob" class="animable"></path><line x1="311.2" y1="266.97" x2="311.2" y2="184.66" style="fill: none; stroke: rgb(255, 255, 255); stroke-linecap: round; stroke-linejoin: round; transform-origin: 311.2px 225.815px;" id="eltogy2x0axhe" class="animable"></line><path d="M256.73,244.21c.2-57,.2-114,0-170.64" style="fill: none; stroke: rgb(38, 50, 56); stroke-linecap: round; stroke-linejoin: round; transform-origin: 256.805px 158.89px;" id="elwociww3i7ti" class="animable"></path><path d="M247.78,343.59c-4.33-2.31-6.72-2.79-8-2.81-1.62,2.84-3.46,6-5.17,8.9,3.08.5,7.68,1.65,10.52,4.19a24.71,24.71,0,0,1,4.13,4.72c2.38-1.45,5-3,7.92-4.52C255.62,351,252.52,346.12,247.78,343.59Z" style="fill: rgb(38, 50, 56); stroke: rgb(38, 50, 56); stroke-linecap: round; stroke-linejoin: round; transform-origin: 245.895px 349.685px;" id="elkr0a1yh1f89" class="animable"></path><polygon points="248.82 337.56 234.18 355.18 243.13 360.88 260.48 343.52 248.82 337.56" style="fill: rgb(38, 50, 56); stroke: rgb(38, 50, 56); stroke-linecap: round; stroke-linejoin: round; transform-origin: 247.33px 349.22px;" id="elxtnx04ffa0f" class="animable"></polygon><polygon points="249.63 340.63 238.61 353.65 242.94 356.18 255.6 343.34 249.63 340.63" style="fill: rgb(255, 255, 255); stroke: rgb(38, 50, 56); stroke-linecap: round; stroke-linejoin: round; transform-origin: 247.105px 348.405px;" id="el8ca7lodv0bk" class="animable"></polygon><path d="M152.47,359c.1-4.6-2-11.33-2.51-12.79-1.17-3.61-3.77-5.1-5.83-3.23-1.64,1.51-.65,4.9-.26,6.72a70.47,70.47,0,0,0,2.32,9.64c.45,1.26,1,3.65,2.55,4C151.47,363.92,152.4,361.88,152.47,359Z" style="fill: rgb(255, 255, 255); stroke: rgb(38, 50, 56); stroke-linecap: round; stroke-linejoin: round; transform-origin: 147.845px 352.805px;" id="elkq378ya75w" class="animable"></path><path d="M146.74,362.86c.08-3.46-1.53-8.51-1.88-9.61-.89-2.71-2.84-3.83-4.38-2.42-1.24,1.13-.49,3.68-.2,5.05a53,53,0,0,0,1.74,7.24c.34.94.75,2.73,1.92,3C146,366.54,146.69,365,146.74,362.86Z" style="fill: rgb(255, 255, 255); stroke: rgb(38, 50, 56); stroke-linecap: round; stroke-linejoin: round; transform-origin: 143.266px 358.204px;" id="eloqeqcbxs3m" class="animable"></path><path d="M163.8,347.67s4.24,5.22,7.82,5.71a8.54,8.54,0,0,1,6.53,4.07c1.14,1.8-2.61,7.83-2.78,9.95s-1.63,2.45-3.58,1.31-2.61-4.24-2-6.53,1-2.93.49-3.1a48.65,48.65,0,0,1-5.87-1.95C163.31,356.48,163.8,347.67,163.8,347.67Z" style="fill: rgb(255, 255, 255); stroke: rgb(38, 50, 56); stroke-linecap: round; stroke-linejoin: round; transform-origin: 171.028px 358.513px;" id="elp10rrbtekf" class="animable"></path><path d="M159.05,357.58c.1-4.6-2-11.33-2.51-12.79-1.17-3.61-3.78-5.1-5.83-3.23-1.64,1.51-.65,4.9-.26,6.72a70.47,70.47,0,0,0,2.32,9.64c.45,1.26,1,3.65,2.55,4C158.05,362.48,159,360.44,159.05,357.58Z" style="fill: rgb(255, 255, 255); stroke: rgb(38, 50, 56); stroke-linecap: round; stroke-linejoin: round; transform-origin: 154.425px 351.382px;" id="eldklzpr2gn7u" class="animable"></path><path d="M166.87,359.42c.1-4.6-2-11.34-2.51-12.79-1.17-3.61-3.78-5.1-5.83-3.23-1.64,1.5-.65,4.9-.27,6.72a70.5,70.5,0,0,0,2.33,9.64c.45,1.25,1,3.65,2.55,4C165.87,364.32,166.8,362.28,166.87,359.42Z" style="fill: rgb(255, 255, 255); stroke: rgb(38, 50, 56); stroke-linecap: round; stroke-linejoin: round; transform-origin: 162.244px 353.222px;" id="eljghge179ja" class="animable"></path><path d="M228.48,380.41c1.41-5.09,5.86-11.39,6.84-12.75,2.41-3.35,5.62-3.67,7.14-.59,1.22,2.48-.94,5.7-1.94,7.5a73.82,73.82,0,0,1-5.61,9.38c-.88,1.14-2.24,3.5-4,3.07C227.9,386.27,227.6,383.57,228.48,380.41Z" style="fill: rgb(255, 255, 255); stroke: rgb(38, 50, 56); stroke-linecap: round; stroke-linejoin: round; transform-origin: 235.435px 376.007px;" id="elnf36fbqlg1o" class="animable"></path><path d="M236.07,383.6c1.06-3.82,4.4-8.55,5.13-9.57,1.82-2.52,4.22-2.76,5.36-.44.92,1.86-.7,4.27-1.45,5.62a54.47,54.47,0,0,1-4.21,7.05c-.67.86-1.68,2.63-3,2.3C235.63,388,235.41,386,236.07,383.6Z" style="fill: rgb(255, 255, 255); stroke: rgb(38, 50, 56); stroke-linecap: round; stroke-linejoin: round; transform-origin: 241.29px 380.293px;" id="elzghuuqfqdzg" class="animable"></path><path d="M223.3,358.36s-6.14,3.58-10.05,2.3-6.36-.21-8.14,1.17.13,9.89-.4,12.3.9,3.5,3.31,3.23,4.12-3.32,4.2-6.15-.05-3.71.51-3.64,5.36,1,6.77.82S223.3,358.36,223.3,358.36Z" style="fill: rgb(255, 255, 255); stroke: rgb(38, 50, 56); stroke-linecap: round; stroke-linejoin: round; transform-origin: 213.816px 367.88px;" id="elrggr6rxzqen" class="animable"></path><path d="M225,371.61c1.41-5.09,5.85-11.39,6.83-12.75,2.42-3.35,5.62-3.67,7.14-.58,1.22,2.47-.93,5.69-1.94,7.49a72.61,72.61,0,0,1-5.6,9.38c-.89,1.15-2.24,3.5-4,3.07C224.4,377.47,224.1,374.78,225,371.61Z" style="fill: rgb(255, 255, 255); stroke: rgb(38, 50, 56); stroke-linecap: round; stroke-linejoin: round; transform-origin: 231.945px 367.208px;" id="el43jlwaibe16" class="animable"></path><path d="M216.22,369.68c1.41-5.09,5.86-11.39,6.84-12.75,2.41-3.35,5.62-3.67,7.14-.59,1.22,2.48-.94,5.7-1.94,7.5a73.82,73.82,0,0,1-5.61,9.38c-.88,1.14-2.24,3.5-4,3.07C215.64,375.54,215.34,372.84,216.22,369.68Z" style="fill: rgb(255, 255, 255); stroke: rgb(38, 50, 56); stroke-linecap: round; stroke-linejoin: round; transform-origin: 223.175px 365.277px;" id="elv5ltoq0nvik" class="animable"></path><polygon points="117.67 339.15 135.48 387.84 230.99 421.17 225.52 374.66 117.67 339.15" style="fill: rgb(76, 163, 255); stroke: rgb(38, 50, 56); stroke-linecap: round; stroke-linejoin: round; transform-origin: 174.33px 380.16px;" id="el8huv2stavv3" class="animable"></polygon></g><g id="freepik--Graphics--inject-29" class="animable" style="transform-origin: 263.145px 252.13px;"><line x1="332.92" y1="311.42" x2="363.27" y2="311.42" style="fill: none; stroke: rgb(38, 50, 56); stroke-linecap: round; stroke-linejoin: round; transform-origin: 348.095px 311.42px;" id="el0gd33gpo3w5m" class="animable"></line><line x1="311.25" y1="311.42" x2="321.85" y2="311.42" style="fill: none; stroke: rgb(38, 50, 56); stroke-linecap: round; stroke-linejoin: round; transform-origin: 316.55px 311.42px;" id="eliwppyprzync" class="animable"></line><line x1="357.97" y1="316.96" x2="363.27" y2="316.96" style="fill: none; stroke: rgb(38, 50, 56); stroke-linecap: round; stroke-linejoin: round; transform-origin: 360.62px 316.96px;" id="el91r94ehd4yf" class="animable"></line><line x1="343.04" y1="316.96" x2="353.64" y2="316.96" style="fill: none; stroke: rgb(38, 50, 56); stroke-linecap: round; stroke-linejoin: round; transform-origin: 348.34px 316.96px;" id="elxiz13jct40g" class="animable"></line><line x1="311.25" y1="316.96" x2="335.81" y2="316.96" style="fill: none; stroke: rgb(38, 50, 56); stroke-linecap: round; stroke-linejoin: round; transform-origin: 323.53px 316.96px;" id="elbsbtng1tl9e" class="animable"></line><line x1="336.3" y1="322.49" x2="363.27" y2="322.49" style="fill: none; stroke: rgb(38, 50, 56); stroke-linecap: round; stroke-linejoin: round; transform-origin: 349.785px 322.49px;" id="el929q474wuy6" class="animable"></line><line x1="311.25" y1="322.49" x2="330.52" y2="322.49" style="fill: none; stroke: rgb(38, 50, 56); stroke-linecap: round; stroke-linejoin: round; transform-origin: 320.885px 322.49px;" id="elp4vn7ocpti" class="animable"></line><line x1="351.71" y1="328.03" x2="363.27" y2="328.03" style="fill: none; stroke: rgb(38, 50, 56); stroke-linecap: round; stroke-linejoin: round; transform-origin: 357.49px 328.03px;" id="el0obgqlzylc1f" class="animable"></line><line x1="322.81" y1="328.03" x2="346.89" y2="328.03" style="fill: none; stroke: rgb(38, 50, 56); stroke-linecap: round; stroke-linejoin: round; transform-origin: 334.85px 328.03px;" id="elfpew921w3il" class="animable"></line><line x1="311.25" y1="328.03" x2="317.51" y2="328.03" style="fill: none; stroke: rgb(38, 50, 56); stroke-linecap: round; stroke-linejoin: round; transform-origin: 314.38px 328.03px;" id="elq3ttc6cbz5q" class="animable"></line><line x1="332.92" y1="332.87" x2="363.27" y2="332.87" style="fill: none; stroke: rgb(38, 50, 56); stroke-linecap: round; stroke-linejoin: round; transform-origin: 348.095px 332.87px;" id="elx6c6uhqah1i" class="animable"></line><line x1="311.25" y1="332.87" x2="321.85" y2="332.87" style="fill: none; stroke: rgb(38, 50, 56); stroke-linecap: round; stroke-linejoin: round; transform-origin: 316.55px 332.87px;" id="elwyamzhfamtj" class="animable"></line><line x1="357.97" y1="338.41" x2="363.27" y2="338.41" style="fill: none; stroke: rgb(38, 50, 56); stroke-linecap: round; stroke-linejoin: round; transform-origin: 360.62px 338.41px;" id="elri9ugnhqb2" class="animable"></line><line x1="343.04" y1="338.41" x2="353.64" y2="338.41" style="fill: none; stroke: rgb(38, 50, 56); stroke-linecap: round; stroke-linejoin: round; transform-origin: 348.34px 338.41px;" id="el3ncnu6cblkw" class="animable"></line><line x1="311.25" y1="338.41" x2="335.81" y2="338.41" style="fill: none; stroke: rgb(38, 50, 56); stroke-linecap: round; stroke-linejoin: round; transform-origin: 323.53px 338.41px;" id="elxkwpc4nhbi" class="animable"></line><line x1="336.3" y1="343.94" x2="363.27" y2="343.94" style="fill: none; stroke: rgb(38, 50, 56); stroke-linecap: round; stroke-linejoin: round; transform-origin: 349.785px 343.94px;" id="ely84imwjiz9" class="animable"></line><line x1="311.25" y1="343.94" x2="330.52" y2="343.94" style="fill: none; stroke: rgb(38, 50, 56); stroke-linecap: round; stroke-linejoin: round; transform-origin: 320.885px 343.94px;" id="elxphwe4o4s29" class="animable"></line><line x1="357.97" y1="354.34" x2="363.27" y2="354.34" style="fill: none; stroke: rgb(38, 50, 56); stroke-linecap: round; stroke-linejoin: round; transform-origin: 360.62px 354.34px;" id="el7l1wymjlbju" class="animable"></line><line x1="343.04" y1="354.34" x2="353.64" y2="354.34" style="fill: none; stroke: rgb(38, 50, 56); stroke-linecap: round; stroke-linejoin: round; transform-origin: 348.34px 354.34px;" id="eloljppysnlx" class="animable"></line><line x1="311.25" y1="354.34" x2="335.81" y2="354.34" style="fill: none; stroke: rgb(38, 50, 56); stroke-linecap: round; stroke-linejoin: round; transform-origin: 323.53px 354.34px;" id="elha33wbgyhd" class="animable"></line><line x1="336.3" y1="359.87" x2="363.27" y2="359.87" style="fill: none; stroke: rgb(38, 50, 56); stroke-linecap: round; stroke-linejoin: round; transform-origin: 349.785px 359.87px;" id="elv7xg34mro1" class="animable"></line><line x1="311.25" y1="359.87" x2="330.52" y2="359.87" style="fill: none; stroke: rgb(38, 50, 56); stroke-linecap: round; stroke-linejoin: round; transform-origin: 320.885px 359.87px;" id="elf2yrtwveehg" class="animable"></line><line x1="351.71" y1="365.41" x2="363.27" y2="365.41" style="fill: none; stroke: rgb(38, 50, 56); stroke-linecap: round; stroke-linejoin: round; transform-origin: 357.49px 365.41px;" id="elykmnylbbpd8" class="animable"></line><line x1="322.81" y1="365.41" x2="346.89" y2="365.41" style="fill: none; stroke: rgb(38, 50, 56); stroke-linecap: round; stroke-linejoin: round; transform-origin: 334.85px 365.41px;" id="elbv2m0t58r0g" class="animable"></line><line x1="311.25" y1="365.41" x2="317.51" y2="365.41" style="fill: none; stroke: rgb(38, 50, 56); stroke-linecap: round; stroke-linejoin: round; transform-origin: 314.38px 365.41px;" id="elnzmw7k11kc" class="animable"></line><line x1="332.92" y1="370.25" x2="363.27" y2="370.25" style="fill: none; stroke: rgb(38, 50, 56); stroke-linecap: round; stroke-linejoin: round; transform-origin: 348.095px 370.25px;" id="el14gxb1a6n3w" class="animable"></line><line x1="311.25" y1="370.25" x2="321.85" y2="370.25" style="fill: none; stroke: rgb(38, 50, 56); stroke-linecap: round; stroke-linejoin: round; transform-origin: 316.55px 370.25px;" id="elvmeo7yj62q" class="animable"></line><line x1="357.97" y1="375.78" x2="363.27" y2="375.78" style="fill: none; stroke: rgb(38, 50, 56); stroke-linecap: round; stroke-linejoin: round; transform-origin: 360.62px 375.78px;" id="eli5s8qgol93a" class="animable"></line><line x1="343.04" y1="375.78" x2="353.64" y2="375.78" style="fill: none; stroke: rgb(38, 50, 56); stroke-linecap: round; stroke-linejoin: round; transform-origin: 348.34px 375.78px;" id="elmnaqw8w4sl7" class="animable"></line><line x1="311.25" y1="375.78" x2="335.81" y2="375.78" style="fill: none; stroke: rgb(38, 50, 56); stroke-linecap: round; stroke-linejoin: round; transform-origin: 323.53px 375.78px;" id="elllm3lsl66k" class="animable"></line><polyline points="369.6 385.88 373.5 368.3 377.41 379.37 382.62 331.85 389.78 368.3 398.24 305.15 407.36 378.06 411.26 370.9 413.21 385.23" style="fill: none; stroke: rgb(38, 50, 56); stroke-linecap: round; stroke-linejoin: round; transform-origin: 391.405px 345.515px;" id="el1jotud647vn" class="animable"></polyline><polyline points="315.34 300.73 337.73 278.35 354.2 293.13 368.14 280.46 388.83 296.09 411.22 272.43" style="fill: none; stroke: rgb(38, 50, 56); stroke-linecap: round; stroke-linejoin: round; transform-origin: 363.28px 286.58px;" id="elgez3tp7132u" class="animable"></polyline><path d="M340.68,278.35a3,3,0,1,0-2.95,2.95A3,3,0,0,0,340.68,278.35Z" style="fill: rgb(76, 163, 255); stroke: rgb(38, 50, 56); stroke-linecap: round; stroke-linejoin: round; transform-origin: 337.68px 278.3px;" id="el23rwg8joaoc" class="animable"></path><path d="M371.09,280.46a3,3,0,1,0-2.95,3A3,3,0,0,0,371.09,280.46Z" style="fill: rgb(76, 163, 255); stroke: rgb(38, 50, 56); stroke-linecap: round; stroke-linejoin: round; transform-origin: 368.09px 280.46px;" id="eleqhd8hgt9ol" class="animable"></path><circle cx="388.83" cy="296.09" r="2.96" style="fill: rgb(76, 163, 255); stroke: rgb(38, 50, 56); stroke-linecap: round; stroke-linejoin: round; transform-origin: 388.83px 296.09px;" id="elo2xxsmavu8m" class="animable"></circle><path d="M413.76,272.43a3,3,0,1,0-3,3A3,3,0,0,0,413.76,272.43Z" style="fill: rgb(76, 163, 255); stroke: rgb(38, 50, 56); stroke-linecap: round; stroke-linejoin: round; transform-origin: 410.76px 272.43px;" id="elja13548emhg" class="animable"></path><circle cx="315.34" cy="300.73" r="2.96" style="fill: rgb(76, 163, 255); stroke: rgb(38, 50, 56); stroke-linecap: round; stroke-linejoin: round; transform-origin: 315.34px 300.73px;" id="el86qkg1mnfla" class="animable"></circle><circle cx="354.2" cy="292.28" r="2.96" style="fill: rgb(76, 163, 255); stroke: rgb(38, 50, 56); stroke-linecap: round; stroke-linejoin: round; transform-origin: 354.2px 292.28px;" id="el99pulevp3cg" class="animable"></circle><line x1="154.95" y1="204.08" x2="163.65" y2="199.06" style="fill: none; stroke: rgb(38, 50, 56); stroke-linecap: round; stroke-linejoin: round; transform-origin: 159.3px 201.57px;" id="el6tb18aue0h" class="animable"></line><polygon points="112.53 199.06 112.53 228.57 138.09 243.33 163.65 228.57 163.65 199.06 138.09 184.3 112.53 199.06" style="fill: none; stroke: rgb(38, 50, 56); stroke-linecap: round; stroke-linejoin: round; transform-origin: 138.09px 213.815px;" id="elkyj0ozh5f6e" class="animable"></polygon><polygon points="121.22 204.08 121.22 223.55 138.09 233.29 154.95 223.55 154.95 204.08 138.09 194.34 121.22 204.08" style="fill: none; stroke: rgb(38, 50, 56); stroke-linecap: round; stroke-linejoin: round; transform-origin: 138.085px 213.815px;" id="el8vdtdfd1yui" class="animable"></polygon><line x1="138.09" y1="184.3" x2="138.09" y2="162.38" style="fill: none; stroke: rgb(38, 50, 56); stroke-linecap: round; stroke-linejoin: round; transform-origin: 138.09px 173.34px;" id="elivedxk7s2nk" class="animable"></line><circle cx="138.09" cy="161.29" r="4.31" style="fill: rgb(76, 163, 255); stroke: rgb(38, 50, 56); stroke-linecap: round; stroke-linejoin: round; transform-origin: 138.09px 161.29px;" id="el189jn4jeuxu" class="animable"></circle><line x1="138.09" y1="242.71" x2="138.09" y2="264.63" style="fill: none; stroke: rgb(38, 50, 56); stroke-linecap: round; stroke-linejoin: round; transform-origin: 138.09px 253.67px;" id="elm2jdtaqtf" class="animable"></line><path d="M133.77,265.72a4.32,4.32,0,1,0,4.32-4.31A4.32,4.32,0,0,0,133.77,265.72Z" style="fill: rgb(76, 163, 255); stroke: rgb(38, 50, 56); stroke-linecap: round; stroke-linejoin: round; transform-origin: 138.09px 265.73px;" id="elug6yea4yzca" class="animable"></path><line x1="121.22" y1="204.08" x2="112.53" y2="199.06" style="fill: none; stroke: rgb(38, 50, 56); stroke-linecap: round; stroke-linejoin: round; transform-origin: 116.875px 201.57px;" id="el42z9bar8iaq" class="animable"></line><polyline points="121.96 223.7 138.82 213.96 154.95 223.55" style="fill: none; stroke: rgb(38, 50, 56); stroke-linecap: round; stroke-linejoin: round; transform-origin: 138.455px 218.83px;" id="eltmhzy8zg3y" class="animable"></polyline><line x1="138.82" y1="213.96" x2="138.82" y2="194.34" style="fill: none; stroke: rgb(38, 50, 56); stroke-linecap: round; stroke-linejoin: round; transform-origin: 138.82px 204.15px;" id="ellonodjstkti" class="animable"></line><line x1="190.61" y1="118.38" x2="202.17" y2="118.38" style="fill: none; stroke: rgb(38, 50, 56); stroke-linecap: round; stroke-linejoin: round; transform-origin: 196.39px 118.38px;" id="elnv5u8k30poe" class="animable"></line><line x1="161.71" y1="118.38" x2="185.8" y2="118.38" style="fill: none; stroke: rgb(38, 50, 56); stroke-linecap: round; stroke-linejoin: round; transform-origin: 173.755px 118.38px;" id="el6unhjhmcuj2" class="animable"></line><line x1="150.15" y1="118.38" x2="156.41" y2="118.38" style="fill: none; stroke: rgb(38, 50, 56); stroke-linecap: round; stroke-linejoin: round; transform-origin: 153.28px 118.38px;" id="el58v7f34z3h" class="animable"></line><line x1="171.83" y1="123.22" x2="202.17" y2="123.22" style="fill: none; stroke: rgb(38, 50, 56); stroke-linecap: round; stroke-linejoin: round; transform-origin: 187px 123.22px;" id="eljkq88ukpj1i" class="animable"></line><line x1="150.15" y1="123.22" x2="160.75" y2="123.22" style="fill: none; stroke: rgb(38, 50, 56); stroke-linecap: round; stroke-linejoin: round; transform-origin: 155.45px 123.22px;" id="elap7y2c7hj9f" class="animable"></line><line x1="196.88" y1="128.76" x2="202.17" y2="128.76" style="fill: none; stroke: rgb(38, 50, 56); stroke-linecap: round; stroke-linejoin: round; transform-origin: 199.525px 128.76px;" id="elsimcg9696h" class="animable"></line><line x1="181.94" y1="128.76" x2="192.54" y2="128.76" style="fill: none; stroke: rgb(38, 50, 56); stroke-linecap: round; stroke-linejoin: round; transform-origin: 187.24px 128.76px;" id="elpp116fcflup" class="animable"></line><line x1="150.15" y1="128.76" x2="174.72" y2="128.76" style="fill: none; stroke: rgb(38, 50, 56); stroke-linecap: round; stroke-linejoin: round; transform-origin: 162.435px 128.76px;" id="elc1wywe0kdov" class="animable"></line><line x1="175.2" y1="134.29" x2="202.17" y2="134.29" style="fill: none; stroke: rgb(38, 50, 56); stroke-linecap: round; stroke-linejoin: round; transform-origin: 188.685px 134.29px;" id="el2y11z9t9eh8" class="animable"></line><line x1="150.15" y1="134.29" x2="169.42" y2="134.29" style="fill: none; stroke: rgb(38, 50, 56); stroke-linecap: round; stroke-linejoin: round; transform-origin: 159.785px 134.29px;" id="elh2fmkv4yqdv" class="animable"></line><line x1="190.61" y1="139.83" x2="202.17" y2="139.83" style="fill: none; stroke: rgb(38, 50, 56); stroke-linecap: round; stroke-linejoin: round; transform-origin: 196.39px 139.83px;" id="eltpazze70kf" class="animable"></line><line x1="161.71" y1="139.83" x2="185.8" y2="139.83" style="fill: none; stroke: rgb(38, 50, 56); stroke-linecap: round; stroke-linejoin: round; transform-origin: 173.755px 139.83px;" id="elrtxug96s1z" class="animable"></line><line x1="150.15" y1="139.83" x2="156.41" y2="139.83" style="fill: none; stroke: rgb(38, 50, 56); stroke-linecap: round; stroke-linejoin: round; transform-origin: 153.28px 139.83px;" id="elh02rry8fr7g" class="animable"></line><line x1="171.83" y1="144.67" x2="202.17" y2="144.67" style="fill: none; stroke: rgb(38, 50, 56); stroke-linecap: round; stroke-linejoin: round; transform-origin: 187px 144.67px;" id="elvesme43im4k" class="animable"></line><line x1="150.15" y1="144.67" x2="160.75" y2="144.67" style="fill: none; stroke: rgb(38, 50, 56); stroke-linecap: round; stroke-linejoin: round; transform-origin: 155.45px 144.67px;" id="elr5mcp2kzhb" class="animable"></line><line x1="196.88" y1="150.2" x2="202.17" y2="150.2" style="fill: none; stroke: rgb(38, 50, 56); stroke-linecap: round; stroke-linejoin: round; transform-origin: 199.525px 150.2px;" id="elrxu1fceb4ps" class="animable"></line><line x1="181.94" y1="150.2" x2="192.54" y2="150.2" style="fill: none; stroke: rgb(38, 50, 56); stroke-linecap: round; stroke-linejoin: round; transform-origin: 187.24px 150.2px;" id="elysbhxt09xte" class="animable"></line><line x1="150.15" y1="150.2" x2="174.72" y2="150.2" style="fill: none; stroke: rgb(38, 50, 56); stroke-linecap: round; stroke-linejoin: round; transform-origin: 162.435px 150.2px;" id="elo8hpgw8of1m" class="animable"></line><line x1="175.2" y1="155.74" x2="202.17" y2="155.74" style="fill: none; stroke: rgb(38, 50, 56); stroke-linecap: round; stroke-linejoin: round; transform-origin: 188.685px 155.74px;" id="elmaqpy1d6w2b" class="animable"></line><line x1="150.15" y1="155.74" x2="169.42" y2="155.74" style="fill: none; stroke: rgb(38, 50, 56); stroke-linecap: round; stroke-linejoin: round; transform-origin: 159.785px 155.74px;" id="elsp2wa5numoo" class="animable"></line><line x1="190.61" y1="161.27" x2="202.17" y2="161.27" style="fill: none; stroke: rgb(38, 50, 56); stroke-linecap: round; stroke-linejoin: round; transform-origin: 196.39px 161.27px;" id="el972rrd62a2" class="animable"></line><line x1="161.71" y1="161.27" x2="185.8" y2="161.27" style="fill: none; stroke: rgb(38, 50, 56); stroke-linecap: round; stroke-linejoin: round; transform-origin: 173.755px 161.27px;" id="elcd4fmbgd3hi" class="animable"></line><line x1="150.15" y1="161.27" x2="156.41" y2="161.27" style="fill: none; stroke: rgb(38, 50, 56); stroke-linecap: round; stroke-linejoin: round; transform-origin: 153.28px 161.27px;" id="elxfyv9rrhhr" class="animable"></line><line x1="171.83" y1="166.12" x2="202.17" y2="166.12" style="fill: none; stroke: rgb(38, 50, 56); stroke-linecap: round; stroke-linejoin: round; transform-origin: 187px 166.12px;" id="ellgysakpqnb" class="animable"></line><line x1="150.15" y1="166.12" x2="160.75" y2="166.12" style="fill: none; stroke: rgb(38, 50, 56); stroke-linecap: round; stroke-linejoin: round; transform-origin: 155.45px 166.12px;" id="el1txbnqr5vho" class="animable"></line><line x1="202.17" y1="171.65" x2="196.88" y2="171.65" style="fill: none; stroke: rgb(38, 50, 56); stroke-linecap: round; stroke-linejoin: round; transform-origin: 199.525px 171.65px;" id="el6i27a3ecbwo" class="animable"></line><line x1="181.94" y1="171.65" x2="192.54" y2="171.65" style="fill: none; stroke: rgb(38, 50, 56); stroke-linecap: round; stroke-linejoin: round; transform-origin: 187.24px 171.65px;" id="elkxthf79amn" class="animable"></line><line x1="150.15" y1="171.65" x2="174.72" y2="171.65" style="fill: none; stroke: rgb(38, 50, 56); stroke-linecap: round; stroke-linejoin: round; transform-origin: 162.435px 171.65px;" id="elxhmjyqihn1d" class="animable"></line><line x1="175.2" y1="177.19" x2="202.17" y2="177.19" style="fill: none; stroke: rgb(38, 50, 56); stroke-linecap: round; stroke-linejoin: round; transform-origin: 188.685px 177.19px;" id="elu9iap8kxyoa" class="animable"></line><line x1="150.15" y1="177.19" x2="169.42" y2="177.19" style="fill: none; stroke: rgb(38, 50, 56); stroke-linecap: round; stroke-linejoin: round; transform-origin: 159.785px 177.19px;" id="el68iela2vt7p" class="animable"></line><line x1="190.61" y1="182.72" x2="202.17" y2="182.72" style="fill: none; stroke: rgb(38, 50, 56); stroke-linecap: round; stroke-linejoin: round; transform-origin: 196.39px 182.72px;" id="elgqycv5dimd9" class="animable"></line><line x1="161.71" y1="182.72" x2="185.8" y2="182.72" style="fill: none; stroke: rgb(38, 50, 56); stroke-linecap: round; stroke-linejoin: round; transform-origin: 173.755px 182.72px;" id="elpa10zv37lfj" class="animable"></line><line x1="150.15" y1="182.72" x2="156.41" y2="182.72" style="fill: none; stroke: rgb(38, 50, 56); stroke-linecap: round; stroke-linejoin: round; transform-origin: 153.28px 182.72px;" id="eld2q9sq52h1u" class="animable"></line></g><defs>     <filter id="active" height="200%">         <feMorphology in="SourceAlpha" result="DILATED" operator="dilate" radius="2"></feMorphology>                <feFlood flood-color="#32DFEC" flood-opacity="1" result="PINK"></feFlood>        <feComposite in="PINK" in2="DILATED" operator="in" result="OUTLINE"></feComposite>        <feMerge>            <feMergeNode in="OUTLINE"></feMergeNode>            <feMergeNode in="SourceGraphic"></feMergeNode>        </feMerge>    </filter>    <filter id="hover" height="200%">        <feMorphology in="SourceAlpha" result="DILATED" operator="dilate" radius="2"></feMorphology>                <feFlood flood-color="#ff0000" flood-opacity="0.5" result="PINK"></feFlood>        <feComposite in="PINK" in2="DILATED" operator="in" result="OUTLINE"></feComposite>        <feMerge>            <feMergeNode in="OUTLINE"></feMergeNode>            <feMergeNode in="SourceGraphic"></feMergeNode>        </feMerge>            <feColorMatrix type="matrix" values="0   0   0   0   0                0   1   0   0   0                0   0   0   0   0                0   0   0   1   0 "></feColorMatrix>    </filter></defs><defs><clipPath id="freepik--clip-path--inject-29"><path d="M217,258.2s-15.48,4.1-22,10.26S185.48,286,185.48,286s-8.77,7.46-12.88,9.7a28.23,28.23,0,0,0-14.17,16.6c-3.36,10.08-7.46,32.84-7.46,32.84L161.41,350s.19-6,9.52-15.11,15.1-24.63,15.85-25,17.16-11.19,17.16-11.19,12.69,8.76,27.05,11.19,30.22-.19,30.22-.19l-4.48,13.81s-10.26,4.47-12.87,9.88-14.92,25.93-14.92,25.93l8.77,7.09a151.65,151.65,0,0,1,22-13.62c12.87-6.53,16-11.19,19.77-18.84a173.62,173.62,0,0,0,8.58-23.5c.19-1.31,3.92-4.66,4.48-12.69l.56-8,19.58-17.53a85.7,85.7,0,0,0,28.36-20.33c12.87-14.18,14.92-21.08,16.23-33.77s6.53-62.86,6.71-63.61,1.87-4.47,4.11-4.85,14.55,10.45,16.23,11.57,5,1.68,5.4-1.87-2.61-12.31-12.12-21.82-16.42-11-18.65-8.58-.75,7.64-2.24,15.29-10.82,35.26-15.49,48.32-3.17,30.78-3.17,30.78a47.29,47.29,0,0,0-10.82,5.59c-4.47,3.36-11.37,8-11.37,8L314,236s10.45-10.45,13.62-16.42,4.1-6.34,2.42-9.88S314.75,189,308.78,181.34,295.53,160.82,294,157.09a13.46,13.46,0,0,1-.19-10.07c1.12-2.61,11.57-7.83,11.76-15.85s-5-5.79-9.89-4.11-17.91,14.37-20.89,22.39-.38,10.63,4.85,15.48S291.24,179.67,294.6,189s7.65,18.28,14.55,20.71c0,0-11,5.22-18.28,10.44s-10.82,7.65-10.82,7.65-9.89,2.8-13.62,7.65a49.15,49.15,0,0,0-5.22,8S227.45,249.24,217,258.2Z" style="fill:#fff;stroke:#263238;stroke-linecap:round;stroke-linejoin:round"></path></clipPath><clipPath id="freepik--clip-path-2--inject-29"><path d="M273,236.93c-2.35,0-5.26.22-8,.5a43.75,43.75,0,0,0-3.75,6S227.45,249.24,217,258.2c0,0-15.48,4.1-22,10.26S185.48,286,185.48,286s-4.65,3.95-8.76,7c3.23-.23,8.66-.1,11.55,2.92s2.73,8.44,2.31,11.56c5.06-3.29,13.36-8.76,13.36-8.76s12.69,8.76,27.05,11.19,30.22-.19,30.22-.19l-.72,2.22c2.69-2,8.5-5,16.95-1.66a13,13,0,0,1,8.07,8.41c1.44-4.23,2.48-7.62,2.56-8.22.19-1.31,3.92-4.66,4.48-12.69l.56-8L309.61,275c.35-3.59-.1-9.11-3.44-16.75C299.64,243.27,278.74,236.93,273,236.93Z" style="fill:#4CA3FF;stroke:#263238;stroke-linecap:round;stroke-linejoin:round"></path></clipPath><clipPath id="freepik--clip-path-3--inject-29"><path d="M253.38,273.68s1.49,17.91-3.55,26.86-14.18,2.61-16.23.56,9.52-10.63,12.13-17.35S252.44,270,253.38,273.68Z" style="fill:#fff;stroke:#263238;stroke-linecap:round;stroke-linejoin:round"></path></clipPath><clipPath id="freepik--clip-path-4--inject-29"><path d="M223.54,267.5l-18.42-3.35s.21,5.86,3.14,9.21,9,3.77,11.3,2.93,1.88-7.33,4.4-6.7,2.09,3.35,3.14,5.86,2.09,2.3,6.69,2.93,9,.21,10.68-2.09,2.51-9.42.84-9.84-7.33.42-13.4.63S223.54,267.5,223.54,267.5Z" style="fill:#fff;stroke:#263238;stroke-linecap:round;stroke-linejoin:round"></path></clipPath></defs></svg>