<svg width="14841" height="13705" viewBox="0 0 14841 13705" fill="none" xmlns="http://www.w3.org/2000/svg">
<path d="M14562.8 13410.9C14562.8 13573 11342.1 13704.4 7369.99 13704.4C3397.84 13704.4 177.207 13573 177.207 13410.9C177.207 13248.9 3397.42 13117 7369.99 13117C11342.6 13117 14562.8 13248.5 14562.8 13410.9Z" fill="#4CA3FF"/>
<path opacity="0.5" d="M14562.8 13410.9C14562.8 13573 11342.1 13704.4 7369.99 13704.4C3397.84 13704.4 177.207 13573 177.207 13410.9C177.207 13248.9 3397.42 13117 7369.99 13117C11342.6 13117 14562.8 13248.5 14562.8 13410.9Z" fill="white"/>
<path d="M13580.6 10449.1C13480.5 10565 13412.9 10705.4 13384.6 10855.9L12991.9 11076.2V10034.9L12999.4 10045.6L13625.6 9587.19C13704.6 9599.6 14008.4 9634.32 14287 9485.09C14606.2 9311.88 14841 8717.03 14841 8717.03C14841 8717.03 14075 8630.64 13815.4 8951.83C13673 9118.59 13597.2 9332.03 13602.5 9551.23L12991.9 9998.51V9229.62C13106.2 9176.38 13207.2 9098.39 13287.7 9001.3C13368.1 8904.21 13425.9 8790.45 13457 8668.25C13568.2 8235.45 12975 7382.65 12975 7382.65C12975 7382.65 12357 8260.25 12478.9 8705.46C12583.5 9082.46 12865 9201.51 12948.9 9229.62V10897.6L12509.5 10530.9C12519.4 10443.3 12527.3 10168.4 12282.6 9892.68C11985.8 9559.08 11195 9583.89 11195 9583.89C11195 9583.89 11528.6 10251.1 11815 10473.9C12063.1 10668.2 12406.2 10588.8 12488.4 10565.7L12952.2 10952.2V11459H12261.5L12542.6 13215.8H13385.9L13667 11459H12991.9V11123.7L13423.5 10881.9C13528.5 10910.8 13822 10971.2 14099.8 10832.3C14445.8 10659.9 14729.8 10287.9 14729.8 10287.9C14729.8 10287.9 13901.8 10078.3 13580.6 10449.1Z" fill="#4CA3FF"/>
<path opacity="0.5" d="M13580.6 10449.1C13480.5 10565 13412.9 10705.4 13384.6 10855.9L12991.9 11076.2V10034.9L12999.4 10045.6L13625.6 9587.19C13704.6 9599.6 14008.4 9634.32 14287 9485.09C14606.2 9311.88 14841 8717.03 14841 8717.03C14841 8717.03 14075 8630.64 13815.4 8951.83C13673 9118.59 13597.2 9332.03 13602.5 9551.23L12991.9 9998.51V9229.62C13106.2 9176.38 13207.2 9098.39 13287.7 9001.3C13368.1 8904.21 13425.9 8790.45 13457 8668.25C13568.2 8235.45 12975 7382.65 12975 7382.65C12975 7382.65 12357 8260.25 12478.9 8705.46C12583.5 9082.46 12865 9201.51 12948.9 9229.62V10897.6L12509.5 10530.9C12519.4 10443.3 12527.3 10168.4 12282.6 9892.68C11985.8 9559.08 11195 9583.89 11195 9583.89C11195 9583.89 11528.6 10251.1 11815 10473.9C12063.1 10668.2 12406.2 10588.8 12488.4 10565.7L12952.2 10952.2V11459H12261.5L12542.6 13215.8H13385.9L13667 11459H12991.9V11123.7L13423.5 10881.9C13528.5 10910.8 13822 10971.2 14099.8 10832.3C14445.8 10659.9 14729.8 10287.9 14729.8 10287.9C14729.8 10287.9 13901.8 10078.3 13580.6 10449.1Z" fill="white"/>
<path d="M11868 491.215H2408.62C2142.42 491.215 1926.62 707.013 1926.62 973.214V6934.54C1926.62 7200.74 2142.42 7416.54 2408.62 7416.54H11868C12134.2 7416.54 12350 7200.74 12350 6934.54V973.214C12350 707.013 12134.2 491.215 11868 491.215Z" fill="#4CA3FF" stroke="#263238" stroke-miterlimit="10" stroke-linecap="round"/>
<path opacity="0.7" d="M11868 491.215H2408.62C2142.42 491.215 1926.62 707.013 1926.62 973.214V6934.54C1926.62 7200.74 2142.42 7416.54 2408.62 7416.54H11868C12134.2 7416.54 12350 7200.74 12350 6934.54V973.214C12350 707.013 12134.2 491.215 11868 491.215Z" fill="#4CA3FF" stroke="#263238" stroke-miterlimit="10" stroke-linecap="round"/>
<path d="M6322.9 4362.92H5103.43V5047.06H6322.9V4362.92Z" fill="white"/>
<path d="M6322.9 5170.66H5103.43V5854.8H6322.9V5170.66Z" fill="white"/>
<path d="M7666.38 4362.92H6446.91V5047.06H7666.38V4362.92Z" fill="white"/>
<path d="M9010.27 3554.76H7790.8V4238.9H9010.27V3554.76Z" fill="white"/>
<path d="M9010.27 2746.61H7790.8V3430.75H9010.27V2746.61Z" fill="white"/>
<path d="M9010.27 1253.07H7790.8V1814.44H9010.27V1253.07Z" fill="#263238"/>
<path d="M7666.38 1253.07H6446.91V1814.44H7666.38V1253.07Z" fill="#263238"/>
<path d="M7666.38 5170.66H6446.91V5854.8H7666.38V5170.66Z" fill="white"/>
<path d="M7666.38 1938.45H6446.91V2622.59H7666.38V1938.45Z" fill="white"/>
<path d="M7666.38 2746.61H6446.91V3430.75H7666.38V2746.61Z" fill="white"/>
<path d="M7666.38 3554.76H6446.91V4238.9H7666.38V3554.76Z" fill="white"/>
<path d="M9010.27 5170.66H7790.8V5854.8H9010.27V5170.66Z" fill="white"/>
<path d="M3635.53 1938.45H2335.45V2622.59H3635.53V1938.45Z" fill="white"/>
<path d="M3635.53 3554.76H2335.45V4238.9H3635.53V3554.76Z" fill="white"/>
<path d="M3635.53 4362.92H2335.45V5047.06H3635.53V4362.92Z" fill="white"/>
<path d="M3635.53 2746.61H2335.45V3430.75H3635.53V2746.61Z" fill="white"/>
<path d="M11778.3 1253.07H10478.2V1814.44H11778.3V1253.07Z" fill="#263238"/>
<path d="M3635.53 5170.66H2335.45V5854.8H3635.53V5170.66Z" fill="white"/>
<path d="M10353.8 1938.45H9134.29V2622.59H10353.8V1938.45Z" fill="white"/>
<path d="M9010.27 4362.92H7790.8V5047.06H9010.27V4362.92Z" fill="white"/>
<path d="M10353.7 4362.92H9134.28V5047.06H10353.7V4362.92Z" fill="white"/>
<path d="M10353.8 2746.61H9134.29V3430.75H10353.8V2746.61Z" fill="white"/>
<path d="M10353.8 3554.76H9134.29V4238.9H10353.8V3554.76Z" fill="white"/>
<path d="M10353.7 5170.66H9134.28V5854.8H10353.7V5170.66Z" fill="white"/>
<path d="M9010.27 1938.45H7790.8V2622.59H9010.27V1938.45Z" fill="white"/>
<path d="M11778.3 5170.66H10478.2V5854.8H11778.3V5170.66Z" fill="white"/>
<path d="M10353.8 1253.07H9134.29V1814.44H10353.8V1253.07Z" fill="#263238"/>
<path d="M11778.3 4362.92H10478.2V5047.06H11778.3V4362.92Z" fill="white"/>
<path d="M10353.7 5978.81H9134.28V6701.81H10353.7V5978.81Z" fill="white"/>
<path d="M11778.3 3554.76H10478.2V4238.9H11778.3V3554.76Z" fill="white"/>
<path d="M7666.38 5978.81H6446.91V6701.81H7666.38V5978.81Z" fill="white"/>
<path d="M9010.27 5978.81H7790.8V6701.81H9010.27V5978.81Z" fill="white"/>
<path d="M11778.3 2746.61H10478.2V3430.75H11778.3V2746.61Z" fill="white"/>
<path d="M11778.3 5978.81H10478.2V6701.81H11778.3V5978.81Z" fill="white"/>
<path d="M3635.53 5978.81H2335.45V6701.81H3635.53V5978.81Z" fill="white"/>
<path d="M11778.3 1938.45H10478.2V2622.59H11778.3V1938.45Z" fill="white"/>
<path d="M3635.53 1253.07H2335.45V1814.44H3635.53V1253.07Z" fill="#263238"/>
<path d="M4979.01 1253.07H3759.54V1814.44H4979.01V1253.07Z" fill="#263238"/>
<path d="M4979.01 4362.92H3759.54V5047.06H4979.01V4362.92Z" fill="white"/>
<path d="M6322.9 1253.07H5103.43V1814.44H6322.9V1253.07Z" fill="#263238"/>
<path d="M6322.9 2746.61H5103.43V3430.75H6322.9V2746.61Z" fill="white"/>
<path d="M4979.01 5170.66H3759.54V5854.8H4979.01V5170.66Z" fill="white"/>
<path d="M6322.9 1938.45H5103.43V2622.59H6322.9V1938.45Z" fill="white"/>
<path d="M4979.01 1938.45H3759.54V2622.59H4979.01V1938.45Z" fill="white"/>
<path d="M6322.9 3554.76H5103.43V4238.9H6322.9V3554.76Z" fill="white"/>
<path d="M4979.01 3554.76H3759.54V4238.9H4979.01V3554.76Z" fill="white"/>
<path d="M4979.01 5978.81H3759.54V6701.81H4979.01V5978.81Z" fill="white"/>
<path d="M4979.01 2746.61H3759.54V3430.75H4979.01V2746.61Z" fill="white"/>
<path d="M6322.9 5978.81H5103.43V6701.81H6322.9V5978.81Z" fill="white"/>
<path d="M2909.22 875.661C3006.25 875.661 3084.91 797.003 3084.91 699.975C3084.91 602.946 3006.25 524.289 2909.22 524.289C2812.19 524.289 2733.54 602.946 2733.54 699.975C2733.54 797.003 2812.19 875.661 2909.22 875.661Z" fill="white" stroke="#263238" stroke-miterlimit="10" stroke-linecap="round"/>
<path d="M3679.76 699.977C3679.84 665.113 3669.57 631.009 3650.25 601.986C3630.94 572.964 3603.44 550.328 3571.24 536.949C3539.05 523.569 3503.6 520.047 3469.41 526.829C3435.21 533.61 3403.79 550.39 3379.14 575.043C3354.49 599.696 3337.71 631.112 3330.93 665.31C3324.14 699.508 3327.67 734.95 3341.05 767.145C3354.42 799.339 3377.06 826.838 3406.08 846.157C3435.11 865.475 3469.21 875.744 3504.07 875.662C3550.67 875.662 3595.35 857.153 3628.3 824.205C3661.25 791.258 3679.76 746.571 3679.76 699.977Z" fill="white" stroke="#263238" stroke-miterlimit="10" stroke-linecap="round"/>
<path d="M2912.53 814.479C2888.08 814.479 2864.63 804.767 2847.35 787.479C2830.06 770.191 2820.35 746.744 2820.35 722.295V98.9208C2820.29 86.7804 2822.64 74.7489 2827.24 63.5169C2831.85 52.285 2838.63 42.074 2847.2 33.4701C2855.76 24.8663 2865.94 18.0391 2877.16 13.3806C2888.37 8.72211 2900.39 6.3241 2912.53 6.32422C2937.09 6.32422 2960.64 16.08 2978 33.4452C2995.37 50.8105 3005.13 74.3627 3005.13 98.9208V722.295C3005.13 734.436 3002.73 746.457 2998.07 757.668C2993.41 768.879 2986.58 779.06 2977.98 787.625C2969.38 796.191 2959.16 802.972 2947.93 807.581C2936.7 812.189 2924.67 814.533 2912.53 814.479Z" fill="white" stroke="#263238" stroke-miterlimit="10" stroke-linecap="round"/>
<path d="M3512.76 814.479C3488.31 814.479 3464.86 804.767 3447.57 787.479C3430.28 770.191 3420.57 746.744 3420.57 722.295V98.9208C3420.52 86.7804 3422.86 74.7489 3427.47 63.5169C3432.08 52.285 3438.86 42.074 3447.43 33.4701C3455.99 24.8663 3466.17 18.0391 3477.38 13.3806C3488.59 8.72211 3500.61 6.3241 3512.76 6.32422C3537.31 6.32422 3560.87 16.08 3578.23 33.4452C3595.6 50.8105 3605.35 74.3627 3605.35 98.9208V722.295C3605.35 734.436 3602.95 746.457 3598.3 757.668C3593.64 768.879 3586.81 779.06 3578.21 787.625C3569.6 796.191 3559.39 802.972 3548.16 807.581C3536.93 812.189 3524.9 814.533 3512.76 814.479Z" fill="white" stroke="#263238" stroke-miterlimit="10" stroke-linecap="round"/>
<path d="M11018 699.977C11018.1 665.113 11007.9 631.009 10988.5 601.986C10969.2 572.964 10941.7 550.328 10909.5 536.949C10877.3 523.569 10841.9 520.047 10807.7 526.829C10773.5 533.61 10742.1 550.39 10717.4 575.043C10692.8 599.696 10676 631.112 10669.2 665.31C10662.4 699.508 10666 734.95 10679.3 767.145C10692.7 799.339 10715.4 826.838 10744.4 846.157C10773.4 865.475 10807.5 875.744 10842.4 875.662C10889 875.662 10933.6 857.153 10966.6 824.205C10999.5 791.258 11018 746.571 11018 699.977Z" fill="white" stroke="#263238" stroke-miterlimit="10" stroke-linecap="round"/>
<path d="M11436.8 875.661C11533.8 875.661 11612.5 797.003 11612.5 699.975C11612.5 602.946 11533.8 524.289 11436.8 524.289C11339.8 524.289 11261.1 602.946 11261.1 699.975C11261.1 797.003 11339.8 875.661 11436.8 875.661Z" fill="white" stroke="#263238" stroke-miterlimit="10" stroke-linecap="round"/>
<path d="M10845.3 814.479C10820.8 814.479 10797.4 804.767 10780.1 787.479C10762.8 770.191 10753.1 746.744 10753.1 722.295V98.9208C10753 86.7804 10755.4 74.7489 10760 63.5169C10764.6 52.285 10771.4 42.074 10779.9 33.4701C10788.5 24.8663 10798.7 18.0391 10809.9 13.3806C10821.1 8.72211 10833.1 6.3241 10845.3 6.32422C10869.8 6.32422 10893.4 16.08 10910.7 33.4452C10928.1 50.8105 10937.9 74.3627 10937.9 98.9208V722.295C10937.9 734.436 10935.5 746.457 10930.8 757.668C10926.1 768.879 10919.3 779.06 10910.7 787.625C10902.1 796.191 10891.9 802.972 10880.7 807.581C10869.4 812.189 10857.4 814.533 10845.3 814.479Z" fill="white" stroke="#263238" stroke-miterlimit="10" stroke-linecap="round"/>
<path d="M11445.9 814.479C11433.7 814.698 11421.5 812.476 11410.1 807.942C11398.7 803.408 11388.4 796.652 11379.6 788.07C11370.9 779.488 11364 769.252 11359.2 757.958C11354.5 746.665 11352.1 734.541 11352.1 722.295V98.9208C11352.1 74.3627 11361.8 50.8105 11379.2 33.4452C11396.5 16.08 11420.1 6.32422 11444.7 6.32422C11456.8 6.3241 11468.8 8.72211 11480 13.3806C11491.2 18.0391 11501.4 24.8663 11510 33.4701C11518.6 42.074 11525.3 52.285 11529.9 63.5169C11534.5 74.7489 11536.9 86.7804 11536.8 98.9208V722.295C11536.8 746.53 11527.3 769.792 11510.3 787.044C11493.3 804.297 11470.1 814.153 11445.9 814.479Z" fill="white" stroke="#263238" stroke-miterlimit="10" stroke-linecap="round"/>
<path d="M6876 875.661C6973.03 875.661 7051.68 797.003 7051.68 699.975C7051.68 602.946 6973.03 524.289 6876 524.289C6778.97 524.289 6700.31 602.946 6700.31 699.975C6700.31 797.003 6778.97 875.661 6876 875.661Z" fill="white" stroke="#263238" stroke-miterlimit="10" stroke-linecap="round"/>
<path d="M7470.44 875.661C7567.47 875.661 7646.12 797.003 7646.12 699.975C7646.12 602.946 7567.47 524.289 7470.44 524.289C7373.41 524.289 7294.75 602.946 7294.75 699.975C7294.75 797.003 7373.41 875.661 7470.44 875.661Z" fill="white" stroke="#263238" stroke-miterlimit="10" stroke-linecap="round"/>
<path d="M6878.89 814.479C6854.44 814.479 6831 804.767 6813.71 787.479C6796.42 770.191 6786.71 746.744 6786.71 722.295V98.9208C6786.66 86.7804 6789 74.7489 6793.61 63.5169C6798.22 52.285 6805 42.074 6813.56 33.4701C6822.13 24.8663 6832.31 18.0391 6843.52 13.3806C6854.73 8.72211 6866.75 6.3241 6878.89 6.32422C6903.45 6.32422 6927 16.08 6944.37 33.4452C6961.73 50.8105 6971.49 74.3627 6971.49 98.9208V722.295C6971.49 734.436 6969.09 746.457 6964.43 757.668C6959.78 768.879 6952.95 779.06 6944.34 787.625C6935.74 796.191 6925.53 802.972 6914.3 807.581C6903.07 812.189 6891.03 814.533 6878.89 814.479Z" fill="white" stroke="#263238" stroke-miterlimit="10" stroke-linecap="round"/>
<path d="M7479.12 814.479C7454.67 814.479 7431.22 804.767 7413.94 787.479C7396.65 770.191 7386.94 746.744 7386.94 722.295V98.9208C7386.88 86.7804 7389.23 74.7489 7393.83 63.5169C7398.44 52.285 7405.22 42.074 7413.79 33.4701C7422.35 24.8663 7432.54 18.0391 7443.75 13.3806C7454.96 8.72211 7466.98 6.3241 7479.12 6.32422C7491.28 6.32422 7503.32 8.71928 7514.55 13.3727C7525.79 18.0261 7536 24.8468 7544.6 33.4452C7553.19 42.0436 7560.01 52.2514 7564.67 63.4857C7569.32 74.7201 7571.72 86.7609 7571.72 98.9208V722.295C7571.72 734.436 7569.32 746.457 7564.66 757.668C7560 768.879 7553.17 779.06 7544.57 787.625C7535.97 796.191 7525.76 802.972 7514.52 807.581C7503.29 812.189 7491.26 814.533 7479.12 814.479Z" fill="white" stroke="#263238" stroke-miterlimit="10" stroke-linecap="round"/>
<path d="M3179.57 2806.14L2564.46 3348.49" stroke="#263238" stroke-width="2" stroke-linecap="round" stroke-linejoin="round"/>
<path d="M2753.79 2806.14L3179.57 3312.11" stroke="#263238" stroke-width="2" stroke-linecap="round" stroke-linejoin="round"/>
<path d="M9987.5 2034.77L9372.39 2576.71" stroke="#263238" stroke-width="2" stroke-linecap="round" stroke-linejoin="round"/>
<path d="M9561.72 2034.77L9987.5 2540.74" stroke="#263238" stroke-width="2" stroke-linecap="round" stroke-linejoin="round"/>
<path d="M5956.65 2034.77L5341.13 2576.71" stroke="#263238" stroke-width="2" stroke-linecap="round" stroke-linejoin="round"/>
<path d="M5530.45 2034.77L5956.65 2540.74" stroke="#263238" stroke-width="2" stroke-linecap="round" stroke-linejoin="round"/>
<path d="M11394.6 2019.47L10779.1 2561.83" stroke="#263238" stroke-width="2" stroke-linecap="round" stroke-linejoin="round"/>
<path d="M10968.4 2019.47L11394.6 2525.45" stroke="#263238" stroke-width="2" stroke-linecap="round" stroke-linejoin="round"/>
<path d="M9111.14 8435.11C9111.14 8435.11 8983.4 9151.91 8963.98 9564.46C8944.55 9977.01 9042.52 10271.3 9081.79 10683.9C9121.06 11096.4 9376.11 12677.2 9376.11 12804.9C9383.24 12924.3 9348.6 13042.4 9278.14 13138.9C9199.6 13246.8 8944.13 13345.6 8963.98 13384.1C8983.82 13422.5 9101.22 13482.5 9307.49 13413.8C9513.77 13345.2 9523.69 13276.2 9602.23 13276.2C9680.77 13276.2 9847.78 13227 9818.01 13110.8C9788.25 12994.7 9642.74 12747.9 9652.66 12315.5C9672.09 11313.9 9622.9 9587.19 9622.9 9587.19L9937.07 8624.85L9111.14 8435.11Z" fill="white" stroke="#263238" stroke-linecap="round" stroke-linejoin="round"/>
<path d="M9288.89 13122.8L9278.14 13138.9C9199.6 13246.8 8944.13 13345.6 8963.97 13384.1C8983.82 13422.5 9101.22 13482.5 9307.49 13413.8C9513.77 13345.2 9523.69 13276.2 9602.23 13276.2C9680.77 13276.2 9847.78 13227 9818.01 13110.8C9808.92 13073.6 9787.84 13023.6 9763.86 12959.1C9669.57 13031 9569.46 13094.9 9464.57 13150.1C9417.86 13167.5 9348.41 13148 9288.89 13122.8Z" fill="#263238" stroke="#263238" stroke-linecap="round" stroke-linejoin="round"/>
<path d="M9982.12 4202.12C9982.12 4202.12 9935.82 4044.21 9903.99 3903.66C9872.16 3763.11 10110.7 3702.34 10372.4 3676.3C10634 3650.26 11004 3845.37 11113.1 4155.4C11222.3 4465.44 11130.5 5612.98 11141.6 5863.48C11152.8 6113.99 11177.6 6808.05 10923.4 6851.46C10669.2 6894.86 10401.7 6911.81 10179.3 6476.11C9956.91 6040.41 10200.8 4894.52 10227.3 4664.27C10253.7 4434.02 9995.35 4235.6 9995.35 4235.6L9982.12 4202.12Z" fill="#263238" stroke="#263238" stroke-linecap="round" stroke-linejoin="round"/>
<path d="M10541 3876.38C10541 3876.38 10523.7 4139.28 10698.9 4279.42C10874.2 4419.55 11101.6 4752.32 11101.6 5015.23" stroke="white" stroke-width="0.5" stroke-linecap="round" stroke-linejoin="round"/>
<path d="M10874.2 4594.83C10874.2 4594.83 10998.2 5049.54 10891.6 5435.64" stroke="white" stroke-width="0.5" stroke-linecap="round" stroke-linejoin="round"/>
<path d="M9525.34 8558.29C9525.34 8558.29 9318.65 9492.53 9509.22 10299.9C9561.31 10520.6 10364.5 12500.7 10427.7 12817.3C10491 13134 10491 13419.2 10617.9 13530C10744.8 13640.8 10824.6 13593.2 10760.1 13229.1C10716.8 13025.7 10647.3 12828.8 10553.4 12643.3C10553.4 12643.3 10315.7 11123.3 10283.9 10790.9C10252.1 10458.6 10062.3 10062.6 10062.3 10062.6L10363.3 8764.16L9525.34 8558.29Z" fill="white" stroke="#263238" stroke-linecap="round" stroke-linejoin="round"/>
<path d="M10719.2 13057.5C10703.9 13140.2 10670.8 13211.7 10601.8 13198.1C10569.5 13191.9 10539.7 13176.3 10516.1 13153.3C10492.6 13130.3 10476.4 13100.8 10469.5 13068.7C10500.5 13277.8 10525.7 13450.2 10617.9 13530.4C10744.4 13641.2 10824.6 13593.7 10760.1 13229.5C10749.7 13171.4 10736.1 13114 10719.2 13057.5Z" fill="#263238" stroke="#263238" stroke-linecap="round" stroke-linejoin="round"/>
<path d="M10459.6 12974.8H10455.9C10455.9 12982.3 10457.9 12989.7 10459.2 12996.7C10458.9 12989.4 10459.1 12982.1 10459.6 12974.8Z" fill="#263238" stroke="#263238" stroke-linecap="round" stroke-linejoin="round"/>
<path d="M9811.81 5355.85C9712.73 5379.61 9626.24 5439.83 9569.57 5524.51C9486.9 5661.34 8716.77 6240.48 8643.19 6303.31C8569.61 6366.15 8579.95 6682.38 8767.21 6682.38C8954.47 6682.38 9588.59 6198.32 9588.59 6198.32C9588.59 6198.32 9777.92 5966.41 9841.16 5756C9904.41 5545.59 9948.64 5376.93 9811.81 5355.85Z" fill="white" stroke="#263238" stroke-linecap="round" stroke-linejoin="round"/>
<path d="M10022.2 4819.29C9948.64 4819.29 9875.89 4992.08 9875.89 4992.08L9806.44 5002.41C9868.86 4928.42 9948.64 4819.29 9948.64 4819.29C10011.5 4713.88 9989.98 4555.96 9948.64 4566.71C9907.3 4577.46 9632.82 4682.46 9590.66 4734.96C9548.49 4787.46 9422 5208.69 9380.24 5250.85C9338.49 5293.02 8643.19 6177.23 8569.61 6366.97C8496.03 6556.71 8695.69 6788.21 8864.35 6672.46C9033.01 6556.72 9180.17 6198.32 9243.83 5947.4C9307.49 5696.47 9570.4 5220.68 9570.4 5220.68C9570.4 5220.68 9631.58 5171.07 9694.41 5115.68C9763.06 5098.38 9830.68 5077.27 9896.97 5052.43C9938.31 5031.35 10054.9 4883.77 10054.9 4883.77C10054.9 4883.77 10095.8 4819.29 10022.2 4819.29Z" fill="white" stroke="#263238" stroke-linecap="round" stroke-linejoin="round"/>
<path d="M9845.29 4478.66L9631.99 4816.81C9620.6 4834.88 9616.21 4856.49 9619.63 4877.58C9623.06 4898.66 9634.07 4917.77 9650.59 4931.31L9747.74 5011.09C9757.18 5018.8 9768.14 5024.46 9779.89 5027.69C9791.65 5030.93 9803.95 5031.67 9816.01 5029.88C9828.07 5028.09 9839.63 5023.81 9849.94 5017.3C9860.25 5010.79 9869.08 5002.2 9875.88 4992.08L10102 4656.83C10114.6 4638.11 10119.5 4615.28 10115.7 4593.06C10111.9 4570.83 10099.8 4550.9 10081.7 4537.36L9971.79 4454.69C9962.07 4447.49 9950.97 4442.38 9939.18 4439.68C9927.4 4436.98 9915.18 4436.75 9903.3 4439C9891.41 4441.25 9880.13 4445.94 9870.15 4452.76C9860.16 4459.59 9851.7 4468.41 9845.29 4478.66Z" fill="#263238" stroke="#263238" stroke-linecap="round" stroke-linejoin="round"/>
<path d="M10575.7 4632.44C10575.7 4632.44 10514.1 5027.22 10496.8 5178.1C10479.4 5328.98 10484 5361.64 10610.9 5376.11C10737.8 5390.58 10947.4 5455.06 11029.6 5649.35C11111.9 5843.64 10634 6431.88 10492.2 6558.78C10350.4 6685.69 10287.2 6856.83 10318.6 6990.76C10350 7124.7 10720.8 7557.92 10704.7 7997.34C10688.6 8436.76 10157.4 9717.82 10157.4 9717.82C10157.4 9717.82 9449.28 9430.94 8937.93 9526.84C8937.93 9526.84 9179.34 7829.51 9322.79 7382.23C9466.23 6934.96 9612.15 6692.72 9600.58 6596.81C9589 6500.91 9410.42 6221.05 9453.83 5984.6C9497.23 5748.15 9649.77 5541.05 9720.87 5412.49C9791.97 5283.93 9944.51 5285.58 9999.9 5291.78C10055.3 5297.98 10133.8 5315.34 10173.1 5255.4C10212.4 5195.46 10247.5 4886.26 10247.5 4886.26L10575.7 4632.44Z" fill="#4CA3FF" stroke="#263238" stroke-linecap="round" stroke-linejoin="round"/>
<path d="M9753.11 6346.3L10068.1 6574.08" stroke="#263238" stroke-linecap="round" stroke-linejoin="round"/>
<path d="M10044.5 7330.98C10044.5 7330.98 9728.72 7933.68 9657.21 8364.42" stroke="#263238" stroke-linecap="round" stroke-linejoin="round"/>
<path d="M9671.68 7948.15C9671.68 7948.15 9585.28 8320.19 9542.29 8650.9" stroke="#263238" stroke-linecap="round" stroke-linejoin="round"/>
<path d="M10917.2 5534.02C10917.2 5534.02 10811.8 5586.93 10696 5765.92C10580.3 5944.92 10474.9 6249.99 10496 6323.57C10517 6397.15 10717.1 6271.07 10717.1 6271.07C10717.1 6271.07 10928.3 7218.12 11116.8 7144.95C11495.9 6997.38 10990.8 5608.01 10990.8 5608.01C10990.8 5608.01 10990.8 5555.93 10917.2 5534.02Z" fill="white" stroke="#263238" stroke-linecap="round" stroke-linejoin="round"/>
<path d="M10103.2 5663.41C9889.12 5610.5 9946.16 5406.29 9999.49 5291.37H10001.6C10057.4 5297.98 10135.5 5314.93 10174.8 5254.99C10214 5195.05 10249.2 4885.85 10249.2 4885.85L10575.7 4634.1C10575.7 4634.1 10514.1 5028.87 10496.8 5179.76C10479.4 5330.64 10484 5363.3 10610.9 5377.77C10610.9 5376.11 10408.3 5740.71 10103.2 5663.41Z" fill="white" stroke="#263238" stroke-linecap="round" stroke-linejoin="round"/>
<path d="M10286.8 3859.43C10266.7 3971.64 10278.6 4087.25 10321.1 4193.02C10391.8 4345.97 10693.1 4523.72 10693.1 4523.72C10693.1 4523.72 10811.8 4399.71 10829.1 4531.58C10846.5 4663.45 10790.7 4792.42 10702.6 4790.35C10614.6 4788.29 10601.8 4690.32 10601.8 4690.32C10523.7 4803.87 10409 4887.19 10276.9 4926.35C10042.9 5003.66 9923.84 4990.02 9896.14 4810.2C9868.44 4630.38 9900.69 4424.51 9982.54 4200.88C10064.4 3977.24 10254.1 3863.56 10286.8 3859.43Z" fill="white" stroke="#263238" stroke-linecap="round" stroke-linejoin="round"/>
<path d="M11159 5398.02L11169.8 5229.77C11221.8 5183.63 11270.9 5134.34 11316.9 5082.2C11380.2 5008.62 11422.3 4903.2 11474.8 4945.37C11527.3 4987.53 11401.3 5114.03 11401.3 5114.03L11390.5 5196.7L11601.3 5133.87C11601.3 5133.87 11801.4 4933.79 11811.7 4986.29C11822.1 5038.79 11706.3 5217.78 11622.4 5312.86C11538.5 5407.94 11285.5 5436.87 11285.5 5436.87C11285.5 5436.87 11274.8 6278.93 11274.8 6531.91C11274.8 6784.9 11243.3 7069.31 11169.8 7121.39C11096.2 7173.48 10864.3 7131.73 10917.2 6721.24C10970.1 6310.76 11159 5398.02 11159 5398.02Z" fill="white" stroke="#263238" stroke-linecap="round" stroke-linejoin="round"/>
<path d="M10717.1 6271.9L10653.9 6071.82" stroke="#263238" stroke-linecap="round" stroke-linejoin="round"/>
<path d="M4961.23 3778.4C4961.23 3778.4 5150.97 4018.98 5170.4 4071.9C5184.11 4110.43 5195.43 4149.78 5204.3 4189.71L5328.31 4281.48C5332.21 4284.29 5335.5 4287.86 5337.96 4291.99C5340.43 4296.12 5342.02 4300.7 5342.64 4305.47C5343.26 4310.24 5342.89 4315.08 5341.57 4319.7C5340.24 4324.32 5337.98 4328.61 5334.93 4332.32L5241.09 4447.66C5241.09 4447.66 5328.31 4737.02 5323.77 4778.36C5319.22 4819.7 5016.21 4922.63 5016.21 4922.63L4988.1 5144.2L4413.51 5136.76L4411.44 4726.27L4182.02 4188.88C4182.02 4188.88 4387.46 3801.13 4961.23 3778.4Z" fill="white" stroke="#263238" stroke-linecap="round" stroke-linejoin="round"/>
<path d="M4862.02 4588.21L4939.32 4579.94C4947.21 4614.34 4962.07 4646.76 4982.97 4675.2C5003.87 4703.64 5030.38 4727.49 5060.86 4745.29" fill="white"/>
<path d="M4862.02 4588.21L4939.32 4579.94C4947.21 4614.34 4962.07 4646.76 4982.97 4675.2C5003.87 4703.64 5030.38 4727.49 5060.86 4745.29" stroke="#263238" stroke-linecap="round" stroke-linejoin="round"/>
<path d="M4303.96 3792.04C4303.96 3792.04 4086.94 3802.38 4088.18 4102.9C4089.42 4403.43 4393.67 4681.63 4410.2 4725.86C4426.74 4770.09 4589.61 4749.43 4704.11 4706.85C4768.16 4685.98 4823.33 4644.19 4860.78 4588.21C4860.78 4588.21 4751.24 4428.64 4773.56 4381.52C4795.88 4334.39 4913.28 4379.45 4913.28 4379.45C4939.27 4364.7 4962.72 4345.85 4982.73 4323.65C5002.57 4295.95 5108.81 4176.48 5035.23 4113.65C4961.65 4050.82 4847.14 4012.79 4897.99 3933.42C4948.83 3854.05 5130.72 3776.75 5077.39 3606.02C5024.07 3435.3 4905.01 3440.67 4805.8 3496.48C4706.59 3552.28 4679.31 3372.46 4486.26 3474.57C4293.21 3576.67 4239.06 3725.9 4303.96 3792.04Z" fill="#263238" stroke="#263238" stroke-linecap="round" stroke-linejoin="round"/>
<path d="M4557.78 4380.69C4553.67 4412.52 4553.67 4444.76 4557.78 4476.59" stroke="white" stroke-width="0.5" stroke-linecap="round" stroke-linejoin="round"/>
<path d="M4892.61 3897.87C4892.61 3897.87 4851.27 3974.34 4685.92 4122.75C4627.97 4174.73 4586.81 4242.8 4567.7 4318.27" stroke="white" stroke-width="0.5" stroke-linecap="round" stroke-linejoin="round"/>
<path d="M4931.47 4049.57C4931.47 4049.57 4763.22 4277.76 4674.76 4345.55" stroke="white" stroke-width="0.5" stroke-linecap="round" stroke-linejoin="round"/>
<path d="M6626.73 3803.62C6797.67 3885.81 6978.2 3946.36 7164.13 3983.85C7164.13 3983.85 6899.15 3804.44 6642.86 3759.8C6619.29 3756.49 6606.48 3793.28 6626.73 3803.62Z" fill="#263238" stroke="#263238" stroke-linecap="round" stroke-linejoin="round"/>
<path d="M6577.54 5161.98L6893.36 4353.41C6893.36 4353.41 6769.35 4149.61 6769.35 4088.02C6769.35 4026.43 6966.94 3804.85 6966.94 3804.85C6966.94 3804.85 6983.07 3684.56 7069.05 3742.02C7093.87 3759.1 7113.85 3782.32 7127.04 3809.41C7140.22 3836.5 7146.16 3866.55 7144.28 3896.62C7183.96 3952.53 7220 4010.94 7252.17 4071.48C7272.02 4119.44 7084.34 4386.06 7084.34 4386.06C7084.34 4386.06 7052.93 5120.64 6970.25 5373.21C6887.57 5625.79 6866.91 5678.28 6811.93 5752.28C6756.95 5826.27 6495.69 5696.06 6495.69 5696.06L6577.54 5161.98Z" fill="white" stroke="#263238" stroke-linecap="round" stroke-linejoin="round"/>
<path d="M5133.61 12963.2L5647.44 13150.1C5659.48 13154.2 5670.53 13160.8 5679.88 13169.4C5689.23 13178.1 5696.67 13188.5 5701.73 13200.2C5706.79 13211.9 5709.35 13224.5 5709.26 13237.2C5709.16 13249.9 5706.41 13262.5 5701.18 13274.1C5694.1 13288.2 5681.8 13299.1 5666.87 13304.3C5601.56 13327.8 4922.79 13560.6 4724.78 13476.7C4704.58 13466.5 4687.54 13451 4675.52 13431.8C4663.5 13412.6 4656.94 13390.6 4656.57 13367.9C4663.13 13215.4 4679.84 13063.5 4706.59 12913.2C4706.59 12913.2 4958.75 13032.7 5133.61 12963.2Z" fill="#263238" stroke="#263238" stroke-linecap="round" stroke-linejoin="round"/>
<path d="M5702.01 13274.5C5707.43 13263.7 5710.43 13251.9 5710.79 13239.8C5711.14 13227.8 5708.85 13215.8 5704.07 13204.7C5561.87 13273.7 5259.69 13403.1 4984.38 13408C4875.03 13414.8 4765.28 13405.4 4658.64 13380.3C4661.27 13400.6 4668.72 13420 4680.37 13436.9C4692.02 13453.7 4707.53 13467.5 4725.61 13477.1C4924.86 13559.8 5602.38 13328.3 5667.7 13304.7C5682.62 13299.5 5694.93 13288.7 5702.01 13274.5Z" fill="white" stroke="#263238" stroke-linecap="round" stroke-linejoin="round"/>
<path d="M3709.11 12807C3709.11 12807 3662.81 13233.2 3687.62 13275.3C3712.42 13317.5 3786.41 13346 3913.73 13337.8C3952.76 13336.9 3990.53 13323.8 4021.69 13300.3C4052.85 13276.8 4075.82 13244 4087.35 13206.7C4098.93 13176.1 4069.16 12897.5 4068.34 12848.7C4067.51 12800 3709.11 12807 3709.11 12807Z" fill="#263238" stroke="#263238" stroke-linecap="round" stroke-linejoin="round"/>
<path d="M4088.59 13126.9C4049.32 13202.6 3999.3 13251 3869.5 13253.4C3802.75 13256.1 3736.74 13238.6 3680.17 13203C3678.26 13227.4 3680.78 13251.9 3687.61 13275.3C3712.83 13316.7 3786.41 13346 3913.73 13337.8C3952.76 13336.9 3990.53 13323.8 4021.69 13300.3C4052.85 13276.8 4075.82 13244 4087.35 13206.7C4090.96 13180.3 4091.38 13153.5 4088.59 13126.9Z" fill="white" stroke="#263238" stroke-linecap="round" stroke-linejoin="round"/>
<path d="M5408.51 7903.08C5287.86 7962.77 5160.64 8008.13 5029.44 8038.26L3889.76 7774.94C3889.76 7774.94 3814.11 8414.02 3816.18 8523.98C3818.24 8633.94 3857.51 10612.8 3857.51 10612.8L3702.08 12836.8C3718.2 12869.9 3743.64 12897.7 3775.28 12916.6C3806.93 12935.6 3843.4 12944.9 3880.25 12943.4C3955.89 12943 4030.58 12926.6 4099.34 12895L4587.95 10580.1L4696.67 13037.7C4696.67 13037.7 4764.05 13102.6 4917.83 13099.2C4962.84 13097.8 5006.67 13084.4 5044.85 13060.5C5083.04 13036.6 5114.23 13003.1 5135.27 12963.2C5135.27 12963.2 5210.91 12012.5 5323.77 11332.1C5436.62 10651.6 5450.26 8778.62 5450.26 8778.62L5408.51 7903.08Z" fill="white" stroke="#263238" stroke-linecap="round" stroke-linejoin="round"/>
<path d="M4324.63 8238.34C4474.11 8270.75 4626.42 8288.33 4779.35 8290.84" stroke="#263238" stroke-linecap="round" stroke-linejoin="round"/>
<path d="M3902.16 8115.57C3902.16 8115.57 3955.07 8185.84 4095.21 8185.84" stroke="#263238" stroke-linecap="round" stroke-linejoin="round"/>
<path d="M5058.38 12372.1C5058.38 12372.1 5163.37 11110.9 5233.65 10200.2C5276.05 9663.85 5281.85 9125.21 5251.01 8588.05C5251.01 8588.05 5426.28 8395.42 5303.51 8062.65" stroke="#263238" stroke-linecap="round" stroke-linejoin="round"/>
<path d="M5058.38 12512.2L5005.88 12915.3" stroke="#263238" stroke-linecap="round" stroke-linejoin="round"/>
<path d="M4586.71 10580.5L4461.87 8929.51L4170.44 8649.23" stroke="#263238" stroke-linecap="round" stroke-linejoin="round"/>
<path d="M3976.15 6996.96C3982.19 6978.16 3981.94 6957.92 3975.45 6939.27C3968.96 6920.63 3956.59 6904.6 3940.19 6893.62C3813.7 6808.05 3506.97 6631.95 3409 6863.85C3380.36 6954.34 3360.43 7047.36 3349.47 7141.64C3322.19 7327.25 3332.11 8583.92 3333.35 8712.48C3333.37 8719.44 3332.53 8726.39 3330.87 8733.15C3320.12 8782.34 3275.06 8997.3 3306.48 9125.44C3341.62 9271.37 3409 9383.81 3523.5 9414.81C3638.01 9445.81 3700.43 9313.53 3682.65 9232.51C3664.88 9151.49 3707.46 9088.65 3689.68 9007.63C3675.21 8942.32 3613.21 8771.59 3589.64 8708.35C3583.96 8692.74 3582.53 8675.9 3585.51 8659.57C3617.75 8494.21 3798.4 7567.01 3812.04 7522.36C3825.68 7477.72 3931.51 7141.23 3976.15 6996.96Z" fill="white" stroke="#263238" stroke-linecap="round" stroke-linejoin="round"/>
<path d="M3489.19 9153.14C3489.19 9153.14 3635.11 9255.25 3652.06 9349.5" stroke="#263238" stroke-linecap="round" stroke-linejoin="round"/>
<path d="M3535.49 9068.4C3535.49 9068.4 3651.24 9144.05 3682.24 9203.57" stroke="#263238" stroke-linecap="round" stroke-linejoin="round"/>
<path d="M3556.57 8982.84L3597.91 9039.88C3597.91 9039.88 3618.58 9267.24 3683.07 9233.34C3747.55 9199.45 3709.52 8923.72 3709.52 8923.72C3709.52 8923.72 3676.87 8856.34 3576 8695.54" fill="white"/>
<path d="M3556.57 8982.84L3597.91 9039.88C3597.91 9039.88 3618.58 9267.24 3683.07 9233.34C3747.55 9199.45 3709.52 8923.72 3709.52 8923.72C3709.52 8923.72 3676.87 8856.34 3576 8695.54" stroke="#263238" stroke-linecap="round" stroke-linejoin="round"/>
<path d="M3549.13 8745.14C3571.42 8826.61 3569.41 8912.82 3543.35 8993.17C3506.12 9063.12 3464.71 9130.76 3419.33 9195.72C3479.94 9253.68 3536.7 9315.55 3589.23 9380.92" stroke="#263238" stroke-linecap="round" stroke-linejoin="round"/>
<path d="M3621.89 5505.49L3246.95 6883.28C3246.95 6883.28 3560.71 7137.51 3949.7 7131.31L4200.62 5823.38C4200.62 5823.38 3920.35 5193.8 3621.89 5505.49Z" fill="#263238" stroke="#263238" stroke-linecap="round" stroke-linejoin="round"/>
<path d="M4241.95 5053.67C4241.95 5053.67 3691.33 5327.33 3639.66 5451.34C3598.32 5554.68 3724.82 6286.36 3727.3 6414.92C3729.78 6543.48 3839.74 7648.03 3869.5 7861.75C3899.26 8075.46 4613.58 8166.41 4885.58 8084.15C5157.59 8001.88 5410.16 7970.47 5408.51 7901.85C5406.85 7833.22 5370.48 7252.01 5385.36 7140.82C5400.24 7029.62 5515.57 6195.42 5515.57 6195.42L6553.57 5980.46C6553.57 5980.46 6601.52 5951.53 6602.76 5763.85C6602.92 5586.71 6593.81 5409.68 6575.47 5233.49C6441.02 5265.75 6301.99 5274.42 6164.58 5259.12C5914.07 5236.8 5617.26 5169.42 5564.35 5184.3C5511.44 5199.18 5150.97 5123.94 5032.33 5109.06C4867.4 5086.74 4448.64 4947.02 4241.95 5053.67Z" fill="#263238" stroke="#263238" stroke-linecap="round" stroke-linejoin="round"/>
<path d="M3779.8 7064.75L3635.53 5854.8" stroke="white" stroke-width="0.5" stroke-linecap="round" stroke-linejoin="round"/>
<path d="M3674.8 6381.44L3604.53 6223.95" stroke="white" stroke-width="0.5" stroke-linecap="round" stroke-linejoin="round"/>
<path d="M5515.57 6193.36L5110.88 6258.67" stroke="white" stroke-width="0.5" stroke-linecap="round" stroke-linejoin="round"/>
<path d="M5426.28 6223.95L5128.65 6504.22" stroke="white" stroke-width="0.5" stroke-linecap="round" stroke-linejoin="round"/>
<path d="M6336.95 5295.5C6336.95 5295.5 6056.68 5715.9 5373.78 5874.23" stroke="white" stroke-width="0.5" stroke-linecap="round" stroke-linejoin="round"/>
</svg>
