<svg width="481" height="457" viewBox="0 0 481 457" fill="none" xmlns="http://www.w3.org/2000/svg">
<path opacity="0.2" d="M453.192 279.14H411.192V296.14H453.192V279.14Z" fill="black"/>
<path opacity="0.2" d="M316.572 141.89H274.572V158.89H316.572V141.89Z" fill="black"/>
<path opacity="0.2" d="M290.702 167.57H248.702V184.57H290.702V167.57Z" fill="black"/>
<path opacity="0.2" d="M319.152 54.73H277.152V71.73H319.152V54.73Z" fill="black"/>
<path opacity="0.2" d="M285.192 260.9H243.192V277.9H285.192V260.9Z" fill="black"/>
<path opacity="0.2" d="M202.392 109.1H160.392V126.1H202.392V109.1Z" fill="black"/>
<path opacity="0.2" d="M248.392 109.1H206.392V126.1H248.392V109.1Z" fill="black"/>
<path opacity="0.2" d="M213.192 386.61H171.192V403.61H213.192V386.61Z" fill="black"/>
<path opacity="0.2" d="M191.192 407.61H149.192V424.61H191.192V407.61Z" fill="black"/>
<path opacity="0.1" d="M267.702 191.07H225.702V208.07H267.702V191.07Z" fill="black"/>
<path opacity="0.1" d="M205.572 66.81H163.572V83.81H205.572V66.81Z" fill="black"/>
<path opacity="0.1" d="M477.192 319.9H435.192V336.9H477.192V319.9Z" fill="black"/>
<path opacity="0.1" d="M231.192 345.9H189.192V362.9H231.192V345.9Z" fill="black"/>
<path opacity="0.1" d="M279.192 345.9H237.192V362.9H279.192V345.9Z" fill="black"/>
<path opacity="0.1" d="M283.192 321.9H241.192V338.9H283.192V321.9Z" fill="black"/>
<path opacity="0.1" d="M315.702 191.07H273.702V208.07H315.702V191.07Z" fill="black"/>
<path opacity="0.2" d="M337.192 405.9H295.192V422.9H337.192V405.9Z" fill="black"/>
<path opacity="0.1" d="M314.192 429.4H272.192V446.4H314.192V429.4Z" fill="black"/>
<path opacity="0.1" d="M362.192 429.4H320.192V446.4H362.192V429.4Z" fill="black"/>
<path opacity="0.2" d="M133.582 194.31H91.5822V211.31H133.582V194.31Z" fill="black"/>
<path opacity="0.1" d="M110.582 217.81H68.5822V234.81H110.582V217.81Z" fill="black"/>
<path opacity="0.1" d="M158.582 217.81H116.582V234.81H158.582V217.81Z" fill="black"/>
<path opacity="0.2" d="M117.192 320.9H75.1922V337.9H117.192V320.9Z" fill="black"/>
<path opacity="0.1" d="M303.192 239.61H261.192V256.61H303.192V239.61Z" fill="black"/>
<path opacity="0.1" d="M240.192 406.61H198.192V423.61H240.192V406.61Z" fill="black"/>
<path opacity="0.1" d="M226.392 88.1H184.392V105.1H226.392V88.1Z" fill="black"/>
<path opacity="0.2" d="M93.1922 264.61H51.1922V281.61H93.1922V264.61Z" fill="black"/>
<path opacity="0.1" d="M117.192 243.61H75.1922V260.61H117.192V243.61Z" fill="black"/>
<path opacity="0.1" d="M224.192 141.4H182.192V158.4H224.192V141.4Z" fill="black"/>
<path opacity="0.1" d="M162.962 151.38H120.962V168.38H162.962V151.38Z" fill="black"/>
<path opacity="0.2" d="M370.192 279.14H328.192V296.14H370.192V279.14Z" fill="black"/>
<path opacity="0.2" d="M63.7222 373.17H21.7222V390.17H63.7222V373.17Z" fill="black"/>
<path opacity="0.1" d="M45.5822 134.31H3.58218V151.31H45.5822V134.31Z" fill="black"/>
<path opacity="0.1" d="M93.5822 134.31H51.5822V151.31H93.5822V134.31Z" fill="black"/>
<path opacity="0.1" d="M97.5822 110.31H55.5822V127.31H97.5822V110.31Z" fill="black"/>
<path opacity="0.1" d="M66.1922 178.61H24.1922V195.61H66.1922V178.61Z" fill="black"/>
<path opacity="0.2" d="M120.722 390.67H78.7222V407.67H120.722V390.67Z" fill="black"/>
<g opacity="0.3">
<path d="M318.492 4.59V244.42H469.492V4.59H318.492ZM463.962 62.2H397.412V13.32H463.962V62.2ZM397.412 127.35H463.962V179.72H397.412V127.35ZM397.412 120.96V68.59H463.962V120.96H397.412ZM323.982 13.32H390.532V62.2H324.322V68.59H390.532V120.96H324.322V127.35H390.532V179.72H324.322V186.09H390.532V235.69H323.982V13.32ZM397.412 235.69V186.09H463.962V235.69H397.412Z" stroke="black" stroke-linecap="round" stroke-linejoin="round"/>
<path d="M380.992 27.93L347.422 55.72" stroke="black" stroke-linecap="round" stroke-linejoin="round"/>
<path d="M447.562 82.34L413.982 110.13" stroke="black" stroke-linecap="round" stroke-linejoin="round"/>
<path d="M371.732 199.85L338.162 227.63" stroke="black" stroke-linecap="round" stroke-linejoin="round"/>
<path d="M363.382 36.04L348.002 48.77" stroke="black" stroke-linecap="round" stroke-linejoin="round"/>
<path d="M445.002 75.98L429.612 88.71" stroke="black" stroke-linecap="round" stroke-linejoin="round"/>
<path d="M369.752 208.53L354.362 221.27" stroke="black" stroke-linecap="round" stroke-linejoin="round"/>
<path d="M365.122 147.17L349.732 159.91" stroke="black" stroke-linecap="round" stroke-linejoin="round"/>
<path d="M443.842 201.01L428.452 213.74" stroke="black" stroke-linecap="round" stroke-linejoin="round"/>
<path d="M478.812 244.26H309.792V265.26H478.812V244.26Z" stroke="black" stroke-linecap="round" stroke-linejoin="round"/>
</g>
<g opacity="0.3">
<path d="M70.0322 96.87L70.6522 90.83H30.6222L31.2422 96.87H70.0322Z" stroke="black" stroke-linecap="round" stroke-linejoin="round"/>
<path d="M68.3922 112.76H32.8822L28.4422 69.79H72.8222L68.3922 112.76Z" stroke="black" stroke-linecap="round" stroke-linejoin="round"/>
<path d="M35.6922 69.48C31.6807 68.6906 27.9384 66.8866 24.8222 64.24C19.5822 59.81 10.3222 58.6 7.09219 61.02C4.83435 62.7691 2.68379 64.6525 0.652191 66.66C0.652191 66.66 3.07219 57.8 9.51219 55.78C15.9522 53.76 19.9822 55.78 23.6122 57.39C27.2422 59 28.8522 60.21 32.8822 62.63C35.1282 63.9678 37.2799 65.4579 39.3222 67.09C39.3222 67.09 38.1122 61.86 35.6922 59.44C33.2722 57.02 18.7822 46.52 18.7822 46.52C23.3174 47.66 27.76 49.1409 32.0722 50.95C37.3122 53.37 41.3322 57.8 41.7422 59.81C42.2561 61.7407 42.9249 63.6269 43.7422 65.45L45.3522 69.45C45.3522 69.45 44.9522 63.45 44.5522 58.98C44.1522 54.51 43.3422 51.72 43.7422 47.29C44.1422 42.86 44.9522 40.04 44.9522 37.63C45.0401 35.9599 45.4618 34.3244 46.1922 32.82C46.1922 32.82 47.7822 44.09 48.5922 47.73C49.4022 51.37 49.3922 56.19 49.7922 58.6C50.1922 61.01 51.4122 68.27 51.4122 68.27C51.4122 68.27 50.6022 62.27 53.0222 59.01C55.4422 55.75 56.2422 53.37 57.8522 50.95C59.4622 48.53 61.4822 44.5 61.4822 44.5C61.4822 44.5 61.4822 50.95 59.8622 54.98C58.2422 59.01 57.0422 60.98 57.0422 62.63V68.27C57.0422 68.27 61.0422 61.02 63.4922 59.01C65.9422 57 67.4922 57.01 68.3222 55.78C69.1522 54.55 73.9622 51.78 73.9622 51.78C73.9622 51.78 71.1922 58.2 70.3422 59.41C68.8334 61.1215 67.2168 62.7348 65.5022 64.24C68.37 62.8261 71.334 61.6164 74.3722 60.62C78.3722 59.41 84.4422 58.2 86.8522 58.2C89.2622 58.2 97.3322 56.99 97.3322 56.99C97.3322 56.99 90.0822 60.21 85.6522 61.83C81.2222 63.45 78.3922 64.24 76.7822 64.65L75.1922 65.09C79.0289 65.6912 82.804 66.6349 86.4722 67.91C92.1122 69.91 93.7222 71.53 94.5322 72.74C95.1001 73.7441 95.5083 74.8304 95.7422 75.96C95.7422 75.96 98.1522 77.96 98.1522 79.59C98.1522 81.22 87.2622 71.9 83.1922 70.69C79.1222 69.48 72.7822 69.79 72.7822 69.79" stroke="black" stroke-linecap="round" stroke-linejoin="round"/>
</g>
<g opacity="0.3">
<path d="M95.2322 127.29L94.8122 123.2H121.942L121.512 127.29H95.2322Z" stroke="black" stroke-linecap="round" stroke-linejoin="round"/>
<path d="M96.3522 138.06H120.402L123.412 108.94H93.3422L96.3522 138.06Z" stroke="black" stroke-linecap="round" stroke-linejoin="round"/>
<path d="M118.502 108.73C121.221 108.204 123.757 106.98 125.862 105.18C129.412 102.18 135.692 101.36 137.862 103C139.395 104.183 140.854 105.459 142.232 106.82C142.232 106.82 140.592 100.82 136.232 99.45C131.872 98.08 129.132 99.45 126.672 100.54C124.501 101.573 122.405 102.76 120.402 104.09C118.879 104.989 117.419 105.991 116.032 107.09C116.032 107.09 116.852 103.55 118.492 101.91C120.132 100.27 129.952 93.17 129.952 93.17C126.881 93.9437 123.873 94.9465 120.952 96.17C117.402 97.8 114.672 100.81 114.402 102.17C114.053 103.478 113.598 104.756 113.042 105.99L111.942 108.72C111.942 108.72 112.222 104.63 112.492 101.62C112.762 98.61 113.312 96.71 113.042 93.71C112.772 90.71 112.222 88.8 112.222 87.16C112.172 86.0227 111.893 84.9072 111.402 83.88C111.402 83.88 110.312 91.53 109.762 93.98C109.212 96.43 109.222 99.71 108.942 101.35C108.662 102.99 107.852 107.9 107.852 107.9C107.852 107.9 108.402 103.81 106.762 101.62C105.122 99.43 104.582 97.8 103.482 96.17C102.382 94.54 101.032 91.8 101.032 91.8C101.034 94.2082 101.401 96.6022 102.122 98.9C103.212 101.62 104.032 102.99 104.032 104.08V107.9C104.032 107.9 101.302 102.99 99.6622 101.62C98.0222 100.25 96.9322 100.26 96.3922 99.44C95.8522 98.62 92.5722 96.71 92.5722 96.71C92.5722 96.71 94.4822 101.08 95.0222 101.9C96.0448 103.059 97.1404 104.151 98.3022 105.17C96.3619 104.214 94.357 103.395 92.3022 102.72C89.5439 101.881 86.7049 101.335 83.8322 101.09C82.1922 101.09 76.7422 100.27 76.7422 100.27C76.7422 100.27 81.6522 102.45 84.6522 103.55C87.6522 104.65 89.5622 105.18 90.6522 105.46L91.7422 105.73C89.1403 106.137 86.58 106.776 84.0922 107.64C80.2722 109 79.1822 110.1 78.6422 110.91C78.253 111.591 77.9761 112.331 77.8222 113.1C77.8222 113.1 76.1922 114.46 76.1922 115.55C76.1922 116.64 83.5622 110.37 86.2922 109.55C88.604 109.03 90.9755 108.825 93.3422 108.94" stroke="black" stroke-linecap="round" stroke-linejoin="round"/>
</g>
<g opacity="0.3">
<path d="M147.462 58.4L147.942 53.7H116.832L117.312 58.4H147.462Z" stroke="black" stroke-linecap="round" stroke-linejoin="round"/>
<path d="M146.182 70.75H118.592L115.142 37.35H149.632L146.182 70.75Z" stroke="black" stroke-linecap="round" stroke-linejoin="round"/>
<path d="M115.192 37.35C115.192 37.35 111.352 33.58 109.122 32.62C106.892 31.66 102.682 30.09 102.682 30.09C102.682 30.09 107.792 30.09 111.302 31.69C113.709 32.8282 116.046 34.1071 118.302 35.52C118.302 35.52 115.102 31.05 112.552 27.86C110.002 24.67 104.242 19.23 103.932 17.64C103.622 16.05 111.592 23.07 117.022 27.22C122.452 31.37 123.412 34.22 123.412 34.22C123.412 34.22 119.262 26.55 116.062 19.84C114.14 15.6735 111.795 11.716 109.062 8.03C108.062 6.75 118.322 18.57 121.832 24.32C125.342 30.07 127.582 33.58 127.582 33.58C127.582 33.58 123.752 14.41 123.112 9.94L121.832 1C121.832 1 127.902 18.57 128.832 21.76C129.762 24.95 131.382 30.7 131.382 30.7C131.382 30.7 133.302 21.44 133.942 15.7C134.582 9.96 137.452 1.7 137.452 1.7C137.452 1.7 136.192 19.52 135.902 24L135.262 32.94C135.262 32.94 138.452 24.63 141.332 20.8C143.829 17.6722 146.5 14.6875 149.332 11.86C149.332 11.86 143.882 22.09 142.602 25.27C141.322 28.45 139.732 34.27 139.732 34.27C139.732 34.27 146.122 24.37 148.992 21.17C151.419 18.627 154.221 16.4719 157.302 14.78C159.852 13.19 149.302 25.96 148.032 28.84C147.197 30.6902 146.249 32.4869 145.192 34.22C145.192 34.22 147.112 31.66 152.192 29.74C157.175 27.9991 162.306 26.7171 167.522 25.91C168.802 25.91 159.522 29.74 156.342 31.02C153.162 32.3 149.632 37.35 149.632 37.35" stroke="black" stroke-linecap="round" stroke-linejoin="round"/>
</g>
<path d="M377.665 157.708C381.307 142.924 368.462 127.047 348.975 122.246C329.487 117.445 310.737 125.538 307.095 140.322C303.452 155.107 316.297 170.984 335.785 175.785C355.272 180.586 374.022 172.493 377.665 157.708Z" fill="#4CA3FF" stroke="#263238" stroke-linecap="round" stroke-linejoin="round"/>
<path d="M321.832 160.95C321.832 160.95 314.622 162.95 311.342 158.95C308.062 154.95 312.982 143.54 318.392 138.29C323.802 133.04 339.052 130.75 346.922 131.57C354.792 132.39 364.132 138.29 365.452 144.57C366.772 150.85 364.132 156.87 363.972 158.83C363.812 160.79 359.212 160.83 358.562 159.83C357.912 158.83 348.072 144.42 346.102 143.76C344.132 143.1 342.822 144.42 340.692 145.56C338.562 146.7 322.332 153.56 322.332 153.56L321.832 160.95Z" fill="#263238" stroke="#263238" stroke-linecap="round" stroke-linejoin="round"/>
<path d="M345.712 325.5L342.472 304.45L335.032 330.03C333.065 333.24 331.421 336.636 330.122 340.17C328.272 346.03 337.602 364.49 338.212 362.54C338.822 360.59 342.342 335.54 342.342 335.54C342.713 332.998 342.833 330.426 342.702 327.86L345.712 325.5Z" fill="white" stroke="#263238" stroke-linecap="round" stroke-linejoin="round"/>
<path d="M341.392 340.39C341.392 340.39 334.652 342.69 334.652 357C334.652 360.9 340.212 401.89 340.212 408.75V437.19H377.452L382.042 410.19L385.492 436.62H422.842C422.842 436.62 426.572 394.97 426.842 389.8C427.112 384.63 429.712 373.42 428.842 357.91C427.972 342.4 424.532 336.36 424.532 336.36L342.192 334.91L341.392 340.39Z" fill="#263238" stroke="#263238" stroke-linecap="round" stroke-linejoin="round"/>
<path d="M348.302 196.25C348.302 196.25 330.752 211.25 326.952 215.3C323.152 219.35 324.642 242.96 329.682 259.09C334.722 275.22 340.082 300.17 340.332 305.21C340.582 310.25 341.392 340.39 341.392 340.39C341.392 340.39 372.712 352.75 391.872 349.72C403.349 347.922 414.432 344.171 424.642 338.63C424.642 338.63 421.642 286.95 421.642 275.63C421.642 264.31 419.122 226.73 416.642 213.63C414.162 200.53 405.302 192.71 398.742 191.95C392.182 191.19 367.602 190.09 367.602 190.09L348.302 196.25Z" fill="white" stroke="#263238" stroke-linecap="round" stroke-linejoin="round"/>
<path d="M339.442 192.71C339.442 192.71 347.362 214.93 348.682 215.15C350.002 215.37 353.522 211.85 353.522 211.85L367.602 190.09L362.002 169.98C362.002 169.98 358.802 180.62 352.642 187.44C346.482 194.26 339.442 192.71 339.442 192.71Z" fill="white" stroke="#263238" stroke-linecap="round" stroke-linejoin="round"/>
<path d="M354.742 188.36L344.352 204.44L339.442 192.71L354.742 188.36Z" fill="#263238" stroke="#263238" stroke-linecap="round" stroke-linejoin="round"/>
<path d="M345.612 137.66C345.612 137.66 336.612 144.88 329.382 147.5C322.152 150.12 318.552 151.09 318.552 151.09C318.552 151.09 320.852 165.68 321.552 169.78C322.252 173.88 323.682 180.78 326.632 183.72C329.582 186.66 336.792 193.72 340.072 195.52C343.352 197.32 348.932 195.85 350.572 195.03C352.212 194.21 361.712 179.78 362.212 177.81C362.712 175.84 362.042 169.94 362.042 169.94C362.042 169.94 366.302 167.65 366.962 165.35C367.622 163.05 366.142 154.53 364.832 153.35C363.522 152.17 361.392 153.52 361.062 154.83C360.717 155.958 360.279 157.055 359.752 158.11C359.648 156.168 359.144 154.268 358.272 152.53C356.962 150.4 356.962 149.53 353.842 147.12C350.722 144.71 345.612 137.66 345.612 137.66Z" fill="white" stroke="#263238" stroke-linecap="round" stroke-linejoin="round"/>
<path d="M334.622 169.96L335.112 174.39C335.112 174.39 340.522 174.23 342.982 171.6" stroke="#263238" stroke-linecap="round" stroke-linejoin="round"/>
<path d="M332.192 178.98C332.192 178.98 336.132 180.29 342.192 178.49C348.252 176.69 349.742 172.42 349.742 172.42" stroke="#263238" stroke-linecap="round" stroke-linejoin="round"/>
<path d="M331.012 158.98C331.012 158.98 323.962 156.68 321.832 160.98" stroke="#263238" stroke-linecap="round" stroke-linejoin="round"/>
<path d="M338.192 156.36C338.192 156.36 342.942 151.6 347.862 153.36" stroke="#263238" stroke-linecap="round" stroke-linejoin="round"/>
<path d="M330.282 165.28C330.752 166.55 330.612 167.78 329.972 168.01C329.332 168.24 328.442 167.4 327.972 166.12C327.502 164.84 327.652 163.62 328.292 163.39C328.932 163.16 329.822 164 330.282 165.28Z" fill="#263238"/>
<path d="M345.542 160.59C346.012 161.87 345.872 163.09 345.232 163.33C344.592 163.57 343.702 162.71 343.232 161.44C342.762 160.17 342.902 158.94 343.542 158.71C344.182 158.48 345.072 159.32 345.542 160.59Z" fill="#263238"/>
<path d="M382.792 219.65L397.192 271.09C396.791 272.384 396.706 273.756 396.942 275.09C397.243 275.999 397.494 276.923 397.692 277.86C397.692 277.86 393.692 298.03 390.132 310.38C386.572 322.73 374.002 349.7 374.502 352.73C375.002 355.76 371.982 378.44 373.502 379.45C375.022 380.46 378.552 381.97 379.552 381.97C380.552 381.97 385.102 382.47 386.612 382.47C388.122 382.47 393.672 382.22 394.682 380.2C395.692 378.18 395.442 376.93 393.922 377.43C392.612 377.795 391.274 378.049 389.922 378.19L388.922 376.19C388.922 376.19 390.182 367.37 388.922 360.81C387.662 354.25 387.162 351.99 387.162 351.99C387.162 351.99 418.672 300.82 419.932 291.24C421.192 281.66 423.202 271.07 423.202 266.24C423.202 261.41 418.202 218.35 416.652 213.56C415.102 208.77 414.382 203.98 410.352 199.95C406.322 195.92 403.542 195.95 401.522 195.95" fill="white"/>
<path d="M382.792 219.65L397.192 271.09C396.791 272.384 396.706 273.756 396.942 275.09C397.243 275.999 397.494 276.923 397.692 277.86C397.692 277.86 393.692 298.03 390.132 310.38C386.572 322.73 374.002 349.7 374.502 352.73C375.002 355.76 371.982 378.44 373.502 379.45C375.022 380.46 378.552 381.97 379.552 381.97C380.552 381.97 385.102 382.47 386.612 382.47C388.122 382.47 393.672 382.22 394.682 380.2C395.692 378.18 395.442 376.93 393.922 377.43C392.612 377.795 391.274 378.049 389.922 378.19L388.922 376.19C388.922 376.19 390.182 367.37 388.922 360.81C387.662 354.25 387.162 351.99 387.162 351.99C387.162 351.99 418.672 300.82 419.932 291.24C421.192 281.66 423.202 271.07 423.202 266.24C423.202 261.41 418.202 218.35 416.652 213.56C415.102 208.77 414.382 203.98 410.352 199.95C406.322 195.92 403.542 195.95 401.522 195.95" stroke="#263238" stroke-linecap="round" stroke-linejoin="round"/>
<path d="M399.692 276.5C399.692 276.5 407.092 273.42 413.412 276.2" stroke="#263238" stroke-linecap="round" stroke-linejoin="round"/>
<path d="M404.472 270.95C404.472 270.95 412.952 268.95 418.352 275.27" stroke="#263238" stroke-linecap="round" stroke-linejoin="round"/>
<path d="M392.482 301.3C391.702 304.51 390.892 307.65 390.102 310.4C386.572 322.75 373.972 349.72 374.472 352.75C374.972 355.78 371.952 378.46 373.472 379.47C374.992 380.48 378.522 381.99 379.522 381.99C380.522 381.99 385.072 382.49 386.582 382.49C388.092 382.49 393.642 382.24 394.652 380.22C395.662 378.2 395.412 376.95 393.892 377.45C392.582 377.815 391.244 378.069 389.892 378.21L388.892 376.21C388.892 376.21 390.152 367.39 388.892 360.83C387.632 354.27 387.132 352.01 387.132 352.01C387.132 352.01 402.192 327.4 411.932 309.09C405.652 302.59 397.732 301.3 392.482 301.3Z" fill="white" stroke="#263238" stroke-linecap="round" stroke-linejoin="round"/>
<path d="M383.702 377.82C383.702 377.82 386.202 379.94 387.072 380.61C387.942 381.28 388.222 381.96 389.852 382.15" fill="white"/>
<path d="M383.702 377.82C383.702 377.82 386.202 379.94 387.072 380.61C387.942 381.28 388.222 381.96 389.852 382.15" stroke="#263238" stroke-linecap="round" stroke-linejoin="round"/>
<path d="M378.802 379.09C378.802 379.09 382.552 381.88 384.852 382.46Z" fill="white"/>
<path d="M378.802 379.09C378.802 379.09 382.552 381.88 384.852 382.46" stroke="#263238" stroke-linecap="round" stroke-linejoin="round"/>
<path d="M374.672 378.49C375.656 379.791 376.899 380.874 378.322 381.67Z" fill="white"/>
<path d="M374.672 378.49C375.656 379.791 376.899 380.874 378.322 381.67" stroke="#263238" stroke-linecap="round" stroke-linejoin="round"/>
<path d="M341.292 334.18C341.292 334.18 342.212 340.95 342.572 342.05C342.932 343.15 342.392 345.16 342.762 349.36C343.132 353.56 344.222 357.96 341.482 357.23C338.742 356.5 337.482 349.36 337.632 347.53C337.782 345.7 334.522 340.22 334.522 340.22" fill="white"/>
<path d="M341.292 334.18C341.292 334.18 342.212 340.95 342.572 342.05C342.932 343.15 342.392 345.16 342.762 349.36C343.132 353.56 344.222 357.96 341.482 357.23C338.742 356.5 337.482 349.36 337.632 347.53C337.782 345.7 334.522 340.22 334.522 340.22" stroke="#263238" stroke-linecap="round" stroke-linejoin="round"/>
<path d="M288.012 297.09C285.452 292.19 266.442 224.8 266.442 224.8C262.862 234.61 260.572 282.98 260.572 282.98L262.652 308.63L262.282 313.44C267.282 310.03 279.422 303.31 287.512 312.26C287.632 311.79 287.732 311.39 287.782 311.08C288.832 304.59 290.572 301.96 288.012 297.09Z" fill="#4CA3FF" stroke="#263238" stroke-linecap="round" stroke-linejoin="round"/>
<path d="M281.882 303.55C283.162 303.759 284.412 304.125 285.602 304.64" stroke="#263238" stroke-linecap="round" stroke-linejoin="round"/>
<path d="M264.052 305.92C268.272 304.368 272.702 303.464 277.192 303.24" stroke="#263238" stroke-linecap="round" stroke-linejoin="round"/>
<path d="M284.352 300.85C284.352 300.85 278.752 297.45 274.252 298.79" stroke="#263238" stroke-linecap="round" stroke-linejoin="round"/>
<path d="M170.802 436.52L171.992 385.14L175.642 356.95L260.632 354.05L268.202 374.26L272.872 437.19H229.852L221.732 395.51L219.402 399.52L218.512 436.3L170.802 436.52Z" fill="#263238" stroke="#263238" stroke-linecap="round" stroke-linejoin="round"/>
<path d="M197.572 215.19C197.572 215.19 160.572 224.99 158.302 226.11C156.032 227.23 161.022 260.88 164.522 273.11C168.022 285.34 176.522 330.39 176.522 330.39L175.952 362.93C175.952 362.93 212.262 363.83 226.792 362.04C237.021 360.662 247.168 358.739 257.192 356.28C257.192 356.28 262.342 327.52 260.572 308.58C258.802 289.64 263.962 242.58 264.032 239.48C264.102 236.38 266.402 224.77 266.402 224.77C266.402 224.77 238.742 216.3 231.632 215.41C220.308 214.319 208.909 214.245 197.572 215.19Z" fill="#4CA3FF" stroke="#263238" stroke-linecap="round" stroke-linejoin="round"/>
<path d="M190.602 223.49C190.602 223.49 195.212 236.2 206.102 243.79" stroke="#263238" stroke-linecap="round" stroke-linejoin="round"/>
<path d="M228.782 221.24C227.311 224.776 225.587 228.202 223.622 231.49" stroke="#263238" stroke-linecap="round" stroke-linejoin="round"/>
<path d="M222.942 234.15L221.032 236.82" stroke="#263238" stroke-linecap="round" stroke-linejoin="round"/>
<path d="M209.612 359.34C218.212 358.83 233.982 357.45 244.222 353.87" stroke="#263238" stroke-linecap="round" stroke-linejoin="round"/>
<path d="M203.492 359.61C203.492 359.61 204.492 359.61 206.162 359.51" stroke="#263238" stroke-linecap="round" stroke-linejoin="round"/>
<path d="M238.912 350.09C227.622 351.56 210.502 352.89 197.172 350.01" stroke="#263238" stroke-linecap="round" stroke-linejoin="round"/>
<path d="M250.922 348.09C250.922 348.09 248.072 348.68 243.492 349.37" stroke="#263238" stroke-linecap="round" stroke-linejoin="round"/>
<path d="M249.982 332.46C243.152 336.46 230.102 343.14 217.172 345.26" stroke="#263238" stroke-linecap="round" stroke-linejoin="round"/>
<path d="M254.862 329.48C254.862 329.48 253.942 330.1 252.302 331.09" stroke="#263238" stroke-linecap="round" stroke-linejoin="round"/>
<path d="M192.342 202.38L193.892 220.27C193.892 220.27 199.362 233.27 212.092 232.4C224.562 231.58 226.412 215.7 226.412 215.7L223.892 196.81C223.892 196.81 212.892 205.96 206.782 205.16C200.672 204.36 192.342 202.38 192.342 202.38Z" fill="white" stroke="#263238" stroke-linecap="round" stroke-linejoin="round"/>
<path d="M179.662 181.19C179.662 181.19 177.392 178.3 175.662 180.91C173.932 183.52 175.982 190.54 179.112 192.06C182.242 193.58 183.062 193.57 183.062 193.57C183.062 193.57 186.612 200.57 188.482 202.65C190.352 204.73 204.032 214.49 207.322 215.09C210.612 215.69 215.322 214.67 217.152 212.75C218.982 210.83 224.812 197.61 225.712 194.45C226.612 191.29 226.772 190.59 226.812 188.67C226.852 186.75 226.762 185.09 226.762 185.09C226.762 185.09 230.042 180.27 230.412 176.42C230.782 172.57 229.892 169.68 227.842 169.13C225.792 168.58 223.482 172.7 223.482 172.7L216.572 151.51C216.572 151.51 214.192 145.68 212.192 144.99C210.192 144.3 195.382 146.1 189.122 148.71C182.862 151.32 176.752 154.08 176.262 156.97C175.772 159.86 179.662 181.19 179.662 181.19Z" fill="white" stroke="#263238" stroke-linecap="round" stroke-linejoin="round"/>
<path d="M190.982 151.53C190.982 151.53 179.162 153.88 178.472 155.8C177.782 157.72 176.842 161.36 178.062 164.14C179.282 166.92 180.642 181.24 180.642 181.24C180.642 181.24 182.452 185.73 181.182 185.08C179.912 184.43 178.982 179.08 178.572 178.46C178.162 177.84 172.852 167.56 171.232 163.71C169.612 159.86 173.122 156.23 174.002 155.37C174.644 154.707 175.232 153.995 175.762 153.24C175.762 153.24 174.842 147.04 177.692 144.24C180.542 141.44 201.162 137.24 202.882 136.54C204.602 135.84 206.402 132.27 207.882 131.41C209.362 130.55 213.882 132.7 216.482 138.04C219.082 143.38 218.882 144.88 218.002 145.95L217.192 147.09C217.192 147.09 220.192 147.52 221.362 151.58C222.532 155.64 224.162 159.48 224.082 162.69C224.002 165.9 223.532 172.06 223.512 172.69C223.492 173.32 222.772 172.69 222.182 170.59C221.592 168.49 216.182 152.85 215.382 151.14C214.709 149.745 213.958 148.39 213.132 147.08C212.692 146.4 195.192 147.09 190.982 151.53Z" fill="#263238" stroke="#263238" stroke-linecap="round" stroke-linejoin="round"/>
<path d="M207.322 215.09C210.612 215.64 215.322 214.67 217.152 212.75C218.982 210.83 224.812 197.61 225.712 194.45C226.612 191.29 226.772 190.59 226.812 188.67C226.852 186.75 226.762 185.09 226.762 185.09L223.862 172.09L223.612 172.48C223.942 176.48 224.542 184.24 224.422 185.35C224.225 186.201 223.788 186.978 223.162 187.588C222.536 188.198 221.748 188.615 220.892 188.79C219.232 189.07 211.422 187.79 207.972 188.11C204.522 188.43 203.402 189.62 200.752 191C198.102 192.38 192.652 195.67 191.272 196.09C189.892 196.51 187.272 195.54 186.222 194.16C185.172 192.78 180.642 181.28 180.642 181.28C180.513 182.035 180.256 182.762 179.882 183.43L183.072 193.61C183.072 193.61 186.622 200.61 188.492 202.69C190.362 204.77 204.032 214.49 207.322 215.09Z" fill="#263238" stroke="#263238" stroke-linecap="round" stroke-linejoin="round"/>
<path d="M205.692 168.66C205.692 168.66 203.432 171.28 203.822 172.1C204.212 172.92 209.352 188.1 209.172 189.72C208.992 191.34 206.772 192.19 205.002 191.64C203.232 191.09 202.102 186.14 202.102 186.14" fill="white"/>
<path d="M205.692 168.66C205.692 168.66 203.432 171.28 203.822 172.1C204.212 172.92 209.352 188.1 209.172 189.72C208.992 191.34 206.772 192.19 205.002 191.64C203.232 191.09 202.102 186.14 202.102 186.14" stroke="#263238" stroke-linecap="round" stroke-linejoin="round"/>
<path d="M208.072 167.29C208.072 167.29 212.962 163.85 217.312 166.19" stroke="#263238" stroke-width="3" stroke-linecap="round" stroke-linejoin="round"/>
<path d="M195.192 170.31C195.192 170.31 187.672 168.66 184.362 174.44" stroke="#263238" stroke-width="3" stroke-linecap="round" stroke-linejoin="round"/>
<path d="M194.432 177.34C194.702 178.48 194.352 179.56 193.652 179.74C192.952 179.92 192.162 179.15 191.892 178.01C191.622 176.87 191.962 175.8 192.662 175.61C193.362 175.42 194.192 176.2 194.432 177.34Z" fill="#263238" stroke="#263238" stroke-linecap="round" stroke-linejoin="round"/>
<path d="M212.512 172.6C212.782 173.74 212.432 174.81 211.732 174.99C211.032 175.17 210.242 174.4 209.972 173.26C209.702 172.12 210.042 171.05 210.742 170.87C211.442 170.69 212.242 171.46 212.512 172.6Z" fill="#263238" stroke="#263238" stroke-linecap="round" stroke-linejoin="round"/>
<path d="M199.752 198.25C199.752 198.25 209.332 200.04 214.992 193.71" stroke="#858585" stroke-linecap="round" stroke-linejoin="round"/>
<path d="M287.782 311.09C287.782 311.23 287.722 311.4 287.682 311.57C287.722 311.36 287.752 311.19 287.782 311.09Z" stroke="#263238" stroke-linecap="round" stroke-linejoin="round"/>
<path d="M287.512 312.23C279.422 303.28 267.242 310 262.282 313.41L259.702 337.09L258.482 341.55C258.482 341.55 249.322 351.35 248.162 353.36C247.006 355.169 245.532 356.755 243.812 358.04C242.452 359.16 239.532 360.04 239.272 361.38C239.012 362.72 243.462 363.38 244.812 362.72C246.162 362.06 249.602 358.49 249.602 358.49L247.452 364.28L264.872 371.86C264.872 371.86 265.872 366.73 266.412 363.61C266.952 360.49 267.782 353.14 268.042 351.8C268.302 350.46 285.772 319.67 287.662 311.61L287.512 312.23Z" fill="white" stroke="#263238" stroke-linecap="round" stroke-linejoin="round"/>
<path d="M158.302 226.09C158.302 226.09 153.742 230.32 152.752 234.56C151.762 238.8 136.632 291.8 133.092 299.83C129.552 307.86 128.952 314.32 130.882 317.44C132.812 320.56 167.672 345.34 167.672 345.34C167.672 345.34 171.382 357.82 172.412 360.94C173.442 364.06 175.332 369.41 175.332 369.41L189.332 362.94C190.682 364.453 192.135 365.87 193.682 367.18C195.432 368.52 197.682 369.18 198.122 367.85C198.562 366.52 196.022 362.72 196.022 362.72C195.296 361.169 194.81 359.517 194.582 357.82C194.412 355.59 191.162 351.58 189.872 349.57C188.582 347.56 177.872 340.21 177.872 340.21L155.962 305.85L164.572 273.12C164.572 273.12 156.742 235.25 158.302 226.09Z" fill="white" stroke="#263238" stroke-linecap="round" stroke-linejoin="round"/>
<path d="M155.912 305.87L165.832 278.09C165.832 278.09 156.742 235.24 158.302 226.09C158.302 226.09 153.742 230.32 152.752 234.56C151.762 238.8 136.632 291.8 133.092 299.83C129.552 307.86 128.952 314.32 130.882 317.44C133.397 320.818 136.65 323.578 140.392 325.51C142.392 321.63 147.692 312.61 159.132 311.82L155.912 305.87Z" fill="#4CA3FF" stroke="#263238" stroke-linecap="round" stroke-linejoin="round"/>
<path d="M139.452 304.31C143.812 303.846 148.219 304.38 152.342 305.87" stroke="#263238" stroke-linecap="round" stroke-linejoin="round"/>
<path d="M148.422 302.3C148.422 302.3 153.952 303.86 155.912 305.87" stroke="#263238" stroke-linecap="round" stroke-linejoin="round"/>
<path d="M266.902 340.78C266.902 340.78 254.292 376.09 258.992 395.09C263.692 414.09 267.992 437.2 267.992 437.2H332.762C332.762 437.2 340.032 413.68 339.172 399.58C338.312 385.48 336.612 369.65 336.612 369.65L333.192 329.02H268.612L266.902 340.78Z" fill="#263238" stroke="#263238" stroke-linecap="round" stroke-linejoin="round"/>
<path d="M297.472 375.62C297.472 375.62 308.162 398.28 312.862 416.03C317.562 433.78 317.352 436.97 317.352 436.97" stroke="#858585" stroke-linecap="round" stroke-linejoin="round"/>
<path d="M309.442 394.65C309.442 394.65 320.772 384.82 324.192 373.09" stroke="#858585" stroke-linecap="round" stroke-linejoin="round"/>
<path d="M304.522 233.9L274.172 243.9C281.634 256.921 286.564 271.236 288.702 286.09C292.342 310.88 290.842 336.09 290.842 336.09C290.842 336.09 298.752 340.79 313.712 339.09C328.672 337.39 333.192 329.02 333.192 329.02C333.192 329.02 332.122 287.55 326.562 271.09C321.002 254.63 304.522 233.9 304.522 233.9Z" fill="#4CA3FF" stroke="#263238" stroke-linecap="round" stroke-linejoin="round"/>
<path d="M259.362 160.24C259.362 160.24 252.032 159.67 248.952 167.95C245.872 176.23 237.202 205.14 238.952 211.5C240.702 217.86 244.542 219.98 246.082 226.92C247.622 233.86 244.132 238.09 244.132 238.09C244.132 238.09 246.832 241.95 253.382 242.14C259.932 242.33 269.762 237.14 276.312 235.59C282.862 234.04 297.312 232.7 306.372 231.35C315.432 230 317.372 223.26 317.372 223.26C317.372 223.26 311.202 223.83 310.822 219.98C310.442 216.13 315.442 201.67 313.322 191.65C311.202 181.63 296.752 171.65 290.392 166.6C284.032 161.55 278.062 157.6 271.312 157.35C264.562 157.1 260.512 157.74 259.362 160.24Z" fill="#263238" stroke="#263238" stroke-linecap="round" stroke-linejoin="round"/>
<path d="M256.082 196.47C256.082 196.47 250.302 206.47 251.082 215.35C251.862 224.23 258.602 224.8 259.942 223.64" stroke="#858585" stroke-linecap="round" stroke-linejoin="round"/>
<path d="M293.082 181.83C293.082 181.83 306.952 194.74 309.082 208.42" stroke="#858585" stroke-linecap="round" stroke-linejoin="round"/>
<path d="M272.392 218.58L278.882 236.36C278.882 236.36 292.472 252.18 298.362 249.95C304.252 247.72 298.572 231.88 298.362 229.65C298.152 227.42 296.362 216.45 296.362 216.45C296.362 216.45 292.302 222.95 289.662 222.95C287.022 222.95 272.392 218.58 272.392 218.58Z" fill="white" stroke="#263238" stroke-linecap="round" stroke-linejoin="round"/>
<path d="M267.312 171.85C267.312 171.85 256.712 191.23 256.712 193.85C256.712 196.47 264.862 212.85 267.112 216.08C269.362 219.31 284.852 226.48 288.322 226.68C291.792 226.88 295.252 223.01 296.062 219.95C296.872 216.89 300.342 208.52 300.112 203.87C300.022 202.13 293.742 182.57 291.902 181.55C290.062 180.53 267.312 171.85 267.312 171.85Z" fill="white" stroke="#263238" stroke-linecap="round" stroke-linejoin="round"/>
<path d="M274.252 198.94C274.252 198.94 270.362 197.33 268.082 200.81" stroke="#263238" stroke-linecap="round" stroke-linejoin="round"/>
<path d="M284.562 195.19C284.562 195.19 285.372 191.03 290.192 192.24" stroke="#263238" stroke-linecap="round" stroke-linejoin="round"/>
<path d="M271.832 193.44C271.832 193.44 265.672 193.04 263.832 197.33" stroke="#263238" stroke-linecap="round" stroke-linejoin="round"/>
<path d="M280.192 189.56C280.192 189.56 283.542 185 288.192 186.61" stroke="#263238" stroke-linecap="round" stroke-linejoin="round"/>
<path d="M285.772 204.03C285.772 204.03 283.772 206.98 280.772 206.17" stroke="#263238" stroke-linecap="round" stroke-linejoin="round"/>
<path d="M291.532 205.91C291.532 205.91 287.652 211.67 276.932 212.47C276.932 212.47 284.032 217.56 288.182 216.22C292.332 214.88 291.532 205.91 291.532 205.91Z" fill="white" stroke="#263238" stroke-linecap="round" stroke-linejoin="round"/>
<path d="M260.582 204.16C260.582 204.16 257.092 202.56 256.582 206.84C256.072 211.12 265.022 212.61 265.022 212.61L260.582 204.16Z" fill="white" stroke="#263238" stroke-linecap="round" stroke-linejoin="round"/>
<path d="M295.262 188.71C295.25 188.495 295.291 188.28 295.382 188.085C295.473 187.89 295.61 187.72 295.782 187.59C295.954 187.461 296.156 187.376 296.368 187.342C296.581 187.309 296.799 187.329 297.002 187.4C298.712 187.84 301.582 192.97 301.272 196.04C300.962 199.11 298.952 199.17 298.952 199.17L295.262 188.71Z" fill="white" stroke="#263238" stroke-linecap="round" stroke-linejoin="round"/>
<path d="M268.112 236.14C268.112 236.14 244.362 251.98 243.342 254.82C242.322 257.66 259.582 341.92 259.582 341.92C259.582 341.92 236.642 393.49 242.332 402.42C248.022 411.35 273.802 419.88 275.012 421.5C276.222 423.12 286.592 378.67 291.012 361.82C295.432 344.97 302.832 314.51 303.192 300.09C303.552 285.67 297.712 266.59 295.682 260.29C293.652 253.99 290.042 243.09 290.042 243.09L268.112 236.14Z" fill="#A3A3A3" stroke="#263238" stroke-linecap="round" stroke-linejoin="round"/>
<path d="M274.192 226.09C274.192 226.09 290.902 242.22 290.092 243.03C289.282 243.84 279.732 258.03 279.732 258.03L265.122 236.71L274.192 226.09Z" fill="#A3A3A3" stroke="#263238" stroke-linecap="round" stroke-linejoin="round"/>
<path d="M301.192 242.24C301.192 242.24 315.822 260.09 321.912 272.89C328.002 285.69 330.852 308.42 330.852 317.35V334.2C330.852 334.2 337.192 376.84 339.192 383.95C341.192 391.06 344.472 404.25 344.472 404.25C344.472 404.25 346.902 403.44 346.702 394.5C346.502 385.56 343.252 349.23 340.412 334.81C337.572 320.39 336.412 296.5 334.562 292.24L332.732 287.97L354.422 281.67C354.422 281.67 340.892 269.43 336.502 250.67C334.502 242.13 330.052 237.57 327.412 235.74C324.772 233.91 305.472 231.88 302.192 232.09C298.912 232.3 301.192 242.24 301.192 242.24Z" fill="#A3A3A3" stroke="#263238" stroke-linecap="round" stroke-linejoin="round"/>
<path d="M301.192 242.24C301.192 242.24 301.802 239.6 303.022 240C304.242 240.4 314.592 246.3 315.612 245.69C316.632 245.08 305.062 231.09 302.832 229.09C301.463 227.85 299.964 226.76 298.362 225.84V229.7L301.192 242.24Z" fill="#A3A3A3" stroke="#263238" stroke-linecap="round" stroke-linejoin="round"/>
<path d="M320.902 242.44C320.902 242.44 328.002 265.38 328.822 275.33Z" fill="white"/>
<path d="M320.902 242.44C320.902 242.44 328.002 265.38 328.822 275.33" stroke="#263238" stroke-linecap="round" stroke-linejoin="round"/>
<path d="M324.952 288.35C324.952 288.35 329.082 271.82 330.072 270.82C331.062 269.82 339.172 266.36 339.832 266.2C340.492 266.04 345.782 269.83 346.602 270.66C347.422 271.49 351.072 273.8 350.412 275.12C349.752 276.44 347.602 275.45 346.412 275.45C345.222 275.45 339.802 278.92 339.472 279.45C339.142 279.98 337.322 284.08 336.662 285.24C336.002 286.4 324.952 288.35 324.952 288.35Z" fill="white" stroke="#263238" stroke-linecap="round" stroke-linejoin="round"/>
<path d="M348.112 272C348.112 272 345.942 271.13 345.292 271.45C344.642 271.77 336.912 275.37 336.482 275.91C336.052 276.45 335.482 277.33 335.482 277.33" stroke="#263238" stroke-linecap="round" stroke-linejoin="round"/>
<path d="M333.432 274.83C334.163 273.863 335.044 273.019 336.042 272.33C337.352 271.56 341.922 269.82 342.462 269.61C343.329 269.497 344.206 269.497 345.072 269.61" stroke="#263238" stroke-linecap="round" stroke-linejoin="round"/>
<path d="M341.702 267.65C341.702 267.65 333.002 270.8 332.452 271.56L331.912 272.33" stroke="#263238" stroke-linecap="round" stroke-linejoin="round"/>
<path d="M333.282 285.68C333.282 285.68 341.612 279.79 345.282 278.17C348.952 276.55 356.452 279.59 357.872 281.42C359.292 283.25 361.122 291.98 360.872 298.47C360.622 304.96 360.472 307.81 356.002 309.23C352.324 310.236 348.595 311.051 344.832 311.67C344.232 311.87 343.622 299.49 339.762 292.79C335.902 286.09 333.282 285.68 333.282 285.68Z" fill="#A3A3A3" stroke="#263238" stroke-linecap="round" stroke-linejoin="round"/>
<path d="M322.722 289.74C322.722 289.74 324.722 312.89 326.382 315.74C328.042 318.59 332.062 317.97 336.332 316.96C340.602 315.95 346.882 314.52 347.092 313.1C347.302 311.68 347.092 298.1 344.852 292.39C342.612 286.68 338.762 282.65 335.722 283.46C332.682 284.27 322.722 286.29 322.722 289.74Z" fill="#A3A3A3" stroke="#263238" stroke-linecap="round" stroke-linejoin="round"/>
<path d="M303.952 327.86L328.752 306.53L318.342 299.59L298.502 308.35C298.502 308.35 303.792 322.4 303.952 327.86Z" fill="white" stroke="#263238" stroke-linecap="round" stroke-linejoin="round"/>
<path d="M291.892 339.6C291.892 339.6 294.532 339.6 298.172 336.6C301.812 333.6 305.112 331.6 304.122 323.21C303.132 314.82 298.992 301.88 297.012 300.21C295.032 298.54 282.302 300.54 282.012 301.37C281.722 302.2 292.092 317.24 292.922 326C293.752 334.76 291.892 339.6 291.892 339.6Z" fill="#A3A3A3" stroke="#263238" stroke-linecap="round" stroke-linejoin="round"/>
<path d="M248.242 255.28C248.242 255.28 246.382 251.72 243.342 254.82C240.302 257.92 238.652 266.69 240.802 277.27C242.952 287.85 248.902 332.16 251.222 337.61C253.542 343.06 255.682 348.19 259.812 348.36C263.942 348.53 277.502 346.7 286.762 343.07C296.022 339.44 295.522 328.52 292.382 319.07C289.242 309.62 283.452 301.87 279.982 299.56C276.512 297.25 274.692 294.27 271.062 287.49C267.432 280.71 259.192 263.55 256.842 261.09" fill="#A3A3A3"/>
<path d="M248.242 255.28C248.242 255.28 246.382 251.72 243.342 254.82C240.302 257.92 238.652 266.69 240.802 277.27C242.952 287.85 248.902 332.16 251.222 337.61C253.542 343.06 255.682 348.19 259.812 348.36C263.942 348.53 277.502 346.7 286.762 343.07C296.022 339.44 295.522 328.52 292.382 319.07C289.242 309.62 283.452 301.87 279.982 299.56C276.512 297.25 274.692 294.27 271.062 287.49C267.432 280.71 259.192 263.55 256.842 261.09" stroke="#263238" stroke-linecap="round" stroke-linejoin="round"/>
<path d="M264.392 317.03C263.589 317.763 262.73 318.432 261.822 319.03" stroke="#263238" stroke-linecap="round" stroke-linejoin="round"/>
<path d="M274.582 302.77C272.388 307.105 269.686 311.164 266.532 314.86" stroke="#263238" stroke-linecap="round" stroke-linejoin="round"/>
<path d="M327.262 292.32C327.262 292.32 302.962 294.63 296.682 294.46C290.402 294.29 281.472 290.99 281.472 290.99C281.472 290.99 270.732 286.53 268.412 285.37C266.092 284.21 260.642 284.21 259.152 284.88C257.662 285.55 254.362 288.18 254.862 289.88C255.362 291.58 257.332 290.37 258.332 289.54C259.146 288.937 260.033 288.44 260.972 288.06L266.262 289.21L267.262 290.54C267.262 290.54 259.992 291.86 259.002 292.36C258.012 292.86 255.202 299.13 254.702 300.46C254.202 301.79 254.702 301.61 255.702 301.61H256.702C256.702 301.61 256.212 304.26 257.202 304.61C257.988 304.756 258.799 304.641 259.512 304.28C259.512 304.28 260.672 305.44 261.172 305.44C263.382 304.465 265.533 303.359 267.612 302.13C268.442 301.63 275.552 303.13 277.372 303.13C279.192 303.13 286.132 302.97 286.132 302.97C286.132 302.97 319.522 312.55 323.992 313.22C328.462 313.89 331.432 313.71 333.082 308.75C334.732 303.79 331.072 292.98 327.262 292.32Z" fill="white" stroke="#263238" stroke-linecap="round" stroke-linejoin="round"/>
<path d="M259.482 304.22C259.482 304.22 263.952 299.22 265.102 298.6C266.229 298.03 267.392 297.532 268.582 297.11" stroke="#263238" stroke-linecap="round" stroke-linejoin="round"/>
<path d="M256.672 301.57L261.302 296.12L266.262 294.13" stroke="#263238" stroke-linecap="round" stroke-linejoin="round"/>
<path d="M138.342 159.15C139.474 159.786 140.654 160.331 141.872 160.78C144.042 161.59 149.472 163.49 151.872 166.21C154.272 168.93 153.502 175.44 153.502 175.44" stroke="#263238" stroke-linecap="round" stroke-linejoin="round"/>
<path d="M107.342 181.73L105.222 186.3" stroke="#263238" stroke-linecap="round" stroke-linejoin="round"/>
<path d="M90.1922 167.4C90.1922 167.4 88.7122 174.4 87.1922 176C85.6722 177.6 83.3222 179.5 84.1122 183C84.9022 186.5 89.5122 188.69 89.4922 189.27C89.4722 189.85 81.1922 191.44 81.3922 194.09C81.5922 196.74 83.8722 199.92 83.8722 199.92C83.8722 199.92 77.7022 201.92 77.1822 205.45C76.6622 208.98 78.7622 212.45 78.7322 213.76C78.7022 215.07 74.9822 217.98 76.0922 220.32C77.2022 222.66 79.8322 222.32 79.9722 222.79C80.1122 223.26 78.4522 225.12 78.4222 226.29C78.4619 227.084 78.7486 227.846 79.2422 228.47H128.492L114.492 155.62L95.9522 162.76L90.1922 167.4Z" fill="#4CA3FF" stroke="#263238" stroke-linecap="round" stroke-linejoin="round"/>
<path d="M156.922 332.74C156.922 332.74 167.072 355.85 168.412 361.53C169.752 367.21 170.412 392.46 168.262 402.3C164.412 420.21 153.372 437.19 153.372 437.19H97.4322L85.8922 383.32L102.742 330.84L156.922 332.74Z" fill="white" stroke="#263238" stroke-linecap="round" stroke-linejoin="round"/>
<path d="M147.642 377.29L142.932 389.48L145.172 436.93" stroke="#263238" stroke-linecap="round" stroke-linejoin="round"/>
<path d="M156.032 317.39C156.032 317.39 165.912 325.8 167.102 328.95C168.292 332.1 169.042 352.95 169.582 356.48C170.122 360.01 167.732 363.42 167.732 363.42L159.192 342.19C159.192 342.19 158.372 332.74 158.192 332.11C158.012 331.48 156.442 326.43 156.442 326.43L156.032 317.39Z" fill="white" stroke="#263238" stroke-linecap="round" stroke-linejoin="round"/>
<path d="M164.192 336.73C164.192 336.73 164.312 340.51 164.672 343.24C165.032 345.97 166.162 351.02 163.822 352.24" fill="white"/>
<path d="M164.192 336.73C164.192 336.73 164.312 340.51 164.672 343.24C165.032 345.97 166.162 351.02 163.822 352.24" stroke="#263238" stroke-linecap="round" stroke-linejoin="round"/>
<path d="M120.192 227.86L133.632 228.28L143.242 228.6L154.412 237.95C154.412 237.95 163.792 284.61 164.562 287.55C165.332 290.49 156.562 312.55 155.912 314.66C155.262 316.77 156.912 332.74 156.912 332.74C156.912 332.74 152.612 336.74 138.692 338.62C124.772 340.5 108.692 334.62 108.692 334.62C108.692 334.62 119.242 306.88 121.502 291.95C121.502 291.95 123.502 263.16 122.812 254.95C122.122 246.74 120.192 227.86 120.192 227.86Z" fill="#4CA3FF" stroke="#263238" stroke-linecap="round" stroke-linejoin="round"/>
<path d="M153.692 296.92L131.932 307.96" stroke="#263238" stroke-linecap="round" stroke-linejoin="round"/>
<path d="M152.422 300.71L142.332 305.75" stroke="#263238" stroke-linecap="round" stroke-linejoin="round"/>
<path d="M116.482 212.41C116.482 212.41 124.562 240.41 125.612 245.36C126.662 250.31 137.002 256.14 143.352 252.93C149.702 249.72 147.652 243.61 146.582 239.82C145.512 236.03 143.192 228.6 143.192 228.6L145.632 205.87C145.632 205.87 137.972 216.09 135.192 217.24C132.412 218.39 116.482 212.41 116.482 212.41Z" fill="white" stroke="#263238" stroke-linecap="round" stroke-linejoin="round"/>
<path d="M131.602 219.78L142.192 230L144.802 208.07L131.602 219.78Z" fill="#263238" stroke="#263238" stroke-linecap="round" stroke-linejoin="round"/>
<path d="M142.572 228.88L142.012 238.92" stroke="#263238" stroke-linecap="round" stroke-linejoin="round"/>
<path d="M143.282 226.29C143.282 226.29 158.282 269.06 159.912 278.72C161.542 288.38 161.912 290.49 162.062 293.86C162.212 297.23 159.492 304.57 159.492 304.57C159.492 304.57 170.102 291.57 170.172 280.2C170.242 268.83 162.532 234.57 158.932 232.49C144.632 224.23 143.282 226.29 143.282 226.29Z" fill="#263238" stroke="#263238" stroke-linecap="round" stroke-linejoin="round"/>
<path d="M157.192 247.4C157.192 247.4 163.762 266.57 162.702 280.96" stroke="#A3A3A3" stroke-linecap="round" stroke-linejoin="round"/>
<path d="M106.382 178.91L113.172 169.3L144.602 201.21C144.602 201.21 142.692 219.86 142.682 220.44C142.672 221.02 144.632 224.23 144.632 224.23C145.216 224.753 145.74 225.34 146.192 225.98C146.892 226.98 146.192 226.98 145.982 228.45C145.772 229.92 146.802 230.64 147.512 231.37C148.589 232.156 149.745 232.826 150.962 233.37C151.962 233.95 151.062 235.26 150.302 236.57C149.683 237.509 149.305 238.586 149.202 239.706C149.099 240.826 149.274 241.954 149.712 242.99C150.952 245.61 151.712 245.17 153.832 247.21C155.952 249.25 152.832 251.15 152.832 251.15C152.832 251.15 154.442 250.71 155.762 250.27C156.057 250.188 156.33 250.044 156.564 249.847C156.798 249.651 156.987 249.407 157.119 249.131C157.25 248.855 157.321 248.555 157.327 248.249C157.333 247.944 157.273 247.64 157.152 247.36C156.592 246.36 155.502 242.99 155.962 242.36C156.422 241.73 160.542 239.74 161.742 238.14C162.942 236.54 161.642 236.24 162.682 235.66C163.722 235.08 165.782 233.77 166.272 231.73C166.762 229.69 164.342 227.21 165.082 226.48C165.822 225.75 168.632 221.27 168.662 219.95C168.692 218.63 167.032 216.42 167.032 216.42C167.032 216.42 168.122 215.55 168.802 211.33C169.482 207.11 166.172 205.79 165.932 203.46C165.692 201.13 169.132 197.92 169.182 189.76C169.232 181.6 155.742 179.12 155.332 178.11C154.922 177.1 155.392 175.48 155.152 173.3C154.912 171.12 149.622 167.3 149.622 167.3C149.622 167.3 150.252 165.12 150.722 163.66C151.192 162.2 150.502 160.89 147.932 158.56C145.362 156.23 132.932 145.3 127.742 144.13C122.552 142.96 113.742 148.65 112.742 149.23C111.742 149.81 103.452 147.78 100.932 149.82C98.4122 151.86 97.5922 155.35 96.9322 156.82C96.2722 158.29 94.1222 158.28 92.7822 159.74C91.4422 161.2 89.2322 173.87 89.2322 173.87" fill="#4CA3FF"/>
<path d="M106.382 178.91L113.172 169.3L144.602 201.21C144.602 201.21 142.692 219.86 142.682 220.44C142.672 221.02 144.632 224.23 144.632 224.23C145.216 224.753 145.74 225.34 146.192 225.98C146.892 226.98 146.192 226.98 145.982 228.45C145.772 229.92 146.802 230.64 147.512 231.37C148.589 232.156 149.745 232.826 150.962 233.37C151.962 233.95 151.062 235.26 150.302 236.57C149.683 237.509 149.305 238.586 149.202 239.706C149.099 240.826 149.274 241.954 149.712 242.99C150.952 245.61 151.712 245.17 153.832 247.21C155.952 249.25 152.832 251.15 152.832 251.15C152.832 251.15 154.442 250.71 155.762 250.27C156.057 250.188 156.33 250.044 156.564 249.847C156.798 249.651 156.987 249.407 157.119 249.131C157.25 248.855 157.321 248.555 157.327 248.249C157.333 247.944 157.273 247.64 157.152 247.36C156.592 246.36 155.502 242.99 155.962 242.36C156.422 241.73 160.542 239.74 161.742 238.14C162.942 236.54 161.642 236.24 162.682 235.66C163.722 235.08 165.782 233.77 166.272 231.73C166.762 229.69 164.342 227.21 165.082 226.48C165.822 225.75 168.632 221.27 168.662 219.95C168.692 218.63 167.032 216.42 167.032 216.42C167.032 216.42 168.122 215.55 168.802 211.33C169.482 207.11 166.172 205.79 165.932 203.46C165.692 201.13 169.132 197.92 169.182 189.76C169.232 181.6 155.742 179.12 155.332 178.11C154.922 177.1 155.392 175.48 155.152 173.3C154.912 171.12 149.622 167.3 149.622 167.3C149.622 167.3 150.252 165.12 150.722 163.66C151.192 162.2 150.502 160.89 147.932 158.56C145.362 156.23 132.932 145.3 127.742 144.13C122.552 142.96 113.742 148.65 112.742 149.23C111.742 149.81 103.452 147.78 100.932 149.82C98.4122 151.86 97.5922 155.35 96.9322 156.82C96.2722 158.29 94.1222 158.28 92.7822 159.74C91.4422 161.2 89.2322 173.87 89.2322 173.87" stroke="#263238" stroke-linecap="round" stroke-linejoin="round"/>
<path d="M119.322 223.14C119.322 223.14 134.532 276.62 135.202 283.56C135.872 290.5 112.072 335.89 107.202 345.35C102.332 354.81 91.7722 383.6 90.0622 393.47C88.3522 403.34 87.0622 415.12 87.0622 415.12C87.0622 415.12 74.3922 409.03 66.0622 403.77C57.7322 398.51 56.3822 395.58 57.0622 394.52C57.7422 393.46 61.1922 380.44 61.1922 380.44C61.1922 380.44 54.0322 372.44 54.4722 371.62C54.9122 370.8 71.1922 314.87 71.1922 314.87C71.1922 314.87 75.4822 224.92 77.1922 224.92C78.9022 224.92 119.322 223.14 119.322 223.14Z" fill="#263238" stroke="#263238" stroke-linecap="round" stroke-linejoin="round"/>
<path d="M117.782 248.68L135.202 283.56" stroke="#A3A3A3" stroke-linecap="round" stroke-linejoin="round"/>
<path d="M87.1922 225.55C87.1922 225.55 74.6422 223.03 72.4622 226.39C70.2822 229.75 51.0322 286.71 49.8522 291.96C48.6722 297.21 84.7522 336.09 84.7522 336.09L103.332 323.69L81.3322 292.79L93.3322 248.66" fill="#263238"/>
<path d="M87.1922 225.55C87.1922 225.55 74.6422 223.03 72.4622 226.39C70.2822 229.75 51.0322 286.71 49.8522 291.96C48.6722 297.21 84.7522 336.09 84.7522 336.09L103.332 323.69L81.3322 292.79L93.3322 248.66" stroke="#263238" stroke-linecap="round" stroke-linejoin="round"/>
<path d="M90.2322 262.39L81.2722 290.08L101.322 320.13" stroke="#A3A3A3" stroke-linecap="round" stroke-linejoin="round"/>
<path d="M92.6822 253.7L91.3922 257.79" stroke="#A3A3A3" stroke-linecap="round" stroke-linejoin="round"/>
<path d="M101.322 320.13L81.1522 336.94L87.8922 345.14L109.102 328.74L101.322 320.13Z" fill="white" stroke="#263238" stroke-linecap="round" stroke-linejoin="round"/>
<path d="M107.602 329.58C107.602 329.58 124.392 348.08 126.262 348.92C128.132 349.76 131.822 353.75 132.822 355.64C133.822 357.53 135.242 360.06 136.682 361.11C138.122 362.16 138.312 363.42 135.772 364.05C133.232 364.68 130.922 364.89 129.522 361.95C128.508 359.934 127.284 358.03 125.872 356.27L111.532 366.99C111.532 366.99 108.442 355.64 108.082 353.33C107.722 351.02 106.962 347.24 106.962 347.24L97.3122 337.99L107.602 329.58Z" fill="white" stroke="#263238" stroke-linecap="round" stroke-linejoin="round"/>
<path d="M84.0922 210.24C84.0922 210.24 82.6922 219.56 83.4922 222.77C84.3322 226.17 91.1622 225.56 89.7622 230.07C89.3122 231.52 87.5522 233.07 88.1022 234.72C88.6522 236.37 90.8922 236.5 92.1022 237.46C94.3722 239.22 93.5622 241.12 94.3322 243.61C94.8922 245.41 96.8122 246.04 97.3322 247.47C97.9422 249.16 96.7622 250.22 98.6422 252.06C101.922 255.27 104.382 255.85 104.822 255.56C105.262 255.27 104.412 254.56 106.482 253.56C108.552 252.56 112.482 250.64 111.832 249.04L110.462 245.85C111.462 248.06 114.402 245.85 115.222 244.66C117.082 242 114.222 239.14 114.562 236.26C114.932 233.08 118.562 231.44 118.922 228.26C119.282 225.08 116.052 222.96 116.762 220.07C117.082 218.76 117.262 217.31 117.262 217.31C117.262 217.31 116.262 214.39 114.882 213.37C113.502 212.35 112.972 208.27 112.882 206.81" fill="#4CA3FF"/>
<path d="M84.0922 210.24C84.0922 210.24 82.6922 219.56 83.4922 222.77C84.3322 226.17 91.1622 225.56 89.7622 230.07C89.3122 231.52 87.5522 233.07 88.1022 234.72C88.6522 236.37 90.8922 236.5 92.1022 237.46C94.3722 239.22 93.5622 241.12 94.3322 243.61C94.8922 245.41 96.8122 246.04 97.3322 247.47C97.9422 249.16 96.7622 250.22 98.6422 252.06C101.922 255.27 104.382 255.85 104.822 255.56C105.262 255.27 104.412 254.56 106.482 253.56C108.552 252.56 112.482 250.64 111.832 249.04L110.462 245.85C111.462 248.06 114.402 245.85 115.222 244.66C117.082 242 114.222 239.14 114.562 236.26C114.932 233.08 118.562 231.44 118.922 228.26C119.282 225.08 116.052 222.96 116.762 220.07C117.082 218.76 117.262 217.31 117.262 217.31C117.262 217.31 116.262 214.39 114.882 213.37C113.502 212.35 112.972 208.27 112.882 206.81" stroke="#263238" stroke-linecap="round" stroke-linejoin="round"/>
<path d="M110.302 164.09C110.302 164.09 98.5222 181.22 99.4222 184.84C100.322 188.46 109.312 211.69 112.422 213.99C115.532 216.29 127.882 221.73 131.992 221.9C136.102 222.07 139.112 220.42 140.832 217.62C142.552 214.82 149.072 203.45 149.132 200.98C149.192 198.51 143.922 174.8 142.942 174.47C141.962 174.14 110.302 164.09 110.302 164.09Z" fill="white" stroke="black" stroke-linecap="round" stroke-linejoin="round"/>
<path d="M128.302 182.24C128.302 182.24 127.962 186.81 128.382 188.3C128.802 189.79 132.672 195.15 132.762 196.07C132.852 196.99 131.352 197.9 129.272 198.7" stroke="#263238" stroke-linecap="round" stroke-linejoin="round"/>
<path d="M101.722 191.87C101.722 191.87 99.1422 189.57 97.7222 192.37C96.3022 195.17 97.4022 198.96 101.722 202.09C106.042 205.22 107.082 205.21 107.082 205.21L101.722 191.87Z" fill="white" stroke="#263238" stroke-linecap="round" stroke-linejoin="round"/>
<path d="M144.822 180.35C144.822 180.35 147.152 179.19 148.232 182.16C149.312 185.13 147.652 192.7 147.652 192.7L144.822 180.35Z" fill="white" stroke="#263238" stroke-linecap="round" stroke-linejoin="round"/>
<path d="M122.482 204.68C122.482 204.68 130.092 204.11 131.952 203.19C133.812 202.27 137.072 198.51 137.072 198.51C137.072 198.51 137.072 206.76 133.072 208.17C130.192 209.16 122.482 204.68 122.482 204.68Z" fill="white" stroke="#263238" stroke-linecap="round" stroke-linejoin="round"/>
<path d="M110.022 186.7C110.022 186.7 110.582 182.35 118.142 181.55Z" fill="white"/>
<path d="M110.022 186.7C110.022 186.7 110.582 182.35 118.142 181.55" stroke="#263238" stroke-linecap="round" stroke-linejoin="round"/>
<path d="M128.192 178.5C128.192 178.5 132.832 174.5 137.852 179.38Z" fill="white"/>
<path d="M128.192 178.5C128.192 178.5 132.832 174.5 137.852 179.38" stroke="#263238" stroke-linecap="round" stroke-linejoin="round"/>
<path d="M119.402 188.9C119.802 190.24 119.402 191.57 118.402 191.9C117.402 192.23 116.402 191.34 116.002 190C115.602 188.66 116.002 187.34 117.002 187C118.002 186.66 119.002 187.56 119.402 188.9Z" fill="#263238"/>
<path d="M134.952 184.6C135.352 185.94 134.952 187.26 133.952 187.6C132.952 187.94 131.952 187.05 131.552 185.71C131.152 184.37 131.552 183.04 132.552 182.71C133.552 182.38 134.552 183.26 134.952 184.6Z" fill="#263238"/>
<path d="M455.982 437.19H8.22218" stroke="#263238" stroke-linecap="round" stroke-linejoin="round"/>
<path d="M479.762 437.19H463.112" stroke="#263238" stroke-linecap="round" stroke-linejoin="round"/>
</svg>
