<svg width="10209" height="10291" viewBox="0 0 10209 10291" fill="none" xmlns="http://www.w3.org/2000/svg">
<path d="M7502.4 1287.09C7595.71 1287.09 8099.03 1072.31 8300.45 1013.84C8446.35 976.596 8595.78 954.917 8746.25 949.163C8746.25 949.163 8861.28 934.844 8846.96 798.096C8832.64 661.349 8616.66 467.564 8616.66 568.037C8616.66 668.509 8609.5 625.552 8516.19 553.717C8422.88 481.883 8415.48 517.681 8444.6 604.073C8459.84 643.267 8469.56 684.391 8473.47 726.262C8473.47 726.262 7883.77 1128.87 7733.65 1179.7C7583.54 1230.53 7408.85 1287.09 7502.4 1287.09Z" fill="#263238"/>
<path d="M8752.93 1496.87C8743.63 1519.06 8738.61 1513.1 8752.93 1496.87Z" fill="#263238"/>
<path d="M8695.9 1107.39C8695.9 1150.59 8810.93 1208.1 8746.25 1279.93C8681.58 1351.77 8336.25 1689.7 8336.25 1689.7C8336.25 1689.7 8782.05 1394.96 8760.57 1474.91C8758.5 1482.62 8755.95 1490.19 8752.93 1497.58C8777.11 1473.51 8806.87 1455.8 8839.56 1446.04C8961.99 1402.84 9019.51 1402.84 8997.79 1294.97C8976.07 1187.1 8904.48 1179.94 8904.48 1179.94C8904.48 1179.94 8695.9 1064.19 8695.9 1107.39Z" fill="#263238"/>
<path d="M8020.04 1402.12C8055.83 1459.64 8156.54 1653.9 8234.82 1616.91C8313.1 1579.92 8371.33 1516.2 8299.5 1394.01C8227.66 1271.82 8134.11 1264.66 8069.44 1235.78C8004.76 1206.91 7896.89 1142.47 7997.84 1264.66L8077.07 1422.89C8077.07 1422.89 7984 1344.61 8020.04 1402.12Z" fill="#263238"/>
<path d="M7617.91 1524.31C7617.91 1524.31 7596.19 1567.51 7682.58 1639.34C7768.97 1711.18 7783.29 1747.21 7862.29 1696.86C7941.28 1646.5 7797.61 1502.83 7797.61 1502.83C7726.02 1380.65 7459.68 1308.81 7459.68 1387.8C7459.68 1466.8 7617.91 1524.31 7617.91 1524.31Z" fill="#263238"/>
<path d="M9558.62 1804.73C9450.75 1682.54 9242.41 1639.34 9242.41 1639.34C9242.41 1639.34 8422.64 1704.25 7969.68 1754.61C7607.65 1794.7 7346.8 1844.1 7234.63 1877.04L7099.56 1819.28L7070.92 1804.73C7087.71 1892.63 7087.71 1982.92 7070.92 2070.82C7042.04 2207.57 6919.85 2293.72 7013.4 2344.08C7106.96 2394.43 7257.78 2279.4 7308.14 2142.66C7318.57 2112 7322.76 2079.57 7320.46 2047.28C7318.17 2014.98 7309.43 1983.47 7294.77 1954.6C7451.57 1929.3 8049.63 1789.93 8516.19 1761.77C8990.63 1732.89 9192.05 1740.05 9256.01 1754.61C9319.97 1769.17 9349.32 1776.09 9284.65 1840.76C9219.97 1905.44 8968.44 2006.15 8918.08 2042.18C8867.73 2078.22 8939.56 2049.34 9090.63 2013.31C9241.69 1977.27 9356.72 1870.12 9421.4 1927.15C9486.07 1984.19 9327.85 1934.31 9428.56 2006.15C9529.27 2077.98 9658.62 2157.21 9694.65 2106.86C9730.69 2056.5 9666.49 1927.15 9558.62 1804.73Z" fill="#263238"/>
<path d="M7559.92 2308.04C7516.72 2178.69 7502.4 2272.25 7502.4 2272.25L7459.2 2121.18C7459.2 2121.18 7379.97 2335.97 7351.33 2431.43C7322.7 2526.89 7480.68 2603.97 7523.88 2603.97C7567.07 2603.97 7602.87 2437.63 7559.92 2308.04Z" fill="#263238"/>
<path d="M7717.9 2063.66C7717.9 2063.66 7761.1 2128.34 7847.49 2265.08C7933.88 2401.83 7976.84 2595.86 8185.42 2595.86C8394 2595.86 8753.41 2552.66 8853.64 2473.43C8953.88 2394.2 8796.13 2351.24 8745.77 2293.72C8695.42 2236.21 8594.71 2042.18 8609.03 2121.18C8623.35 2200.17 8637.9 2264.37 8637.9 2264.37C8637.9 2264.37 8530.03 2012.59 8530.03 2077.27C8530.03 2141.94 8609.03 2315.92 8609.03 2315.92C8609.03 2315.92 8256.78 2366.03 8163.23 2366.03C8069.67 2366.03 7911.69 2215.21 7832.45 2143.13C7753.22 2071.06 7710.74 1991.83 7717.9 2063.66Z" fill="#263238"/>
<path d="M8314.77 2006.15L8365.13 1962.95C8365.13 1962.95 8242.94 1977.27 8221.94 1970.11C8200.93 1962.95 8099.75 1840.76 8099.75 1919.76C8099.75 1919.76 8128.62 2085.14 8178.98 2121.18C8229.33 2157.22 8257.97 2114.02 8301.17 2171.54C8344.36 2229.05 8365.84 2099.94 8344.36 2070.82C8322.89 2041.71 8264.42 2049.35 8314.77 2006.15Z" fill="#263238"/>
<path d="M8774.89 2063.66C8882.76 2077.98 8818.09 1977.27 8760.57 1934.32C8703.06 1891.36 8703.06 1869.64 8703.06 1869.64L8530.51 1883.96C8530.51 1883.96 8667.98 2049.35 8774.89 2063.66Z" fill="#263238"/>
<path d="M6773.56 4144.94C6764.59 4148.05 6755.82 4151.72 6747.31 4155.92C6739.67 4160.69 6750.65 4155.92 6773.56 4144.94Z" fill="#263238"/>
<path d="M8925.96 3933.02C8739.09 3817.99 8551.99 3688.64 8631.22 3760.48C8710.45 3832.31 8911.64 3983.38 8911.64 3983.38C8911.64 3983.38 8551.99 3753.32 8436.96 3616.81C8410.95 3586.02 8383.5 3556.67 8355.82 3529.22C8467.99 3353.34 8574.18 3171.25 8616.66 3106.33C8688.26 2998.46 8724.53 3005.62 8724.53 2940.95C8724.53 2876.27 8566.55 2703.49 8487.32 2739.53C8487.32 2739.53 8099.03 2804.2 8120.75 2825.92C8142.46 2847.64 8055.83 2833.08 8142.23 2847.4C8228.62 2861.72 8415.48 2696.33 8372.29 2833.08C8308.35 3013.93 8232.53 3190.36 8145.33 3361.21C8130.36 3352.39 8114.9 3344.42 8099.03 3337.35C8021.23 3301.79 7970.87 3265.75 7873.03 3272.44C7976.36 3134.02 8072.3 2997.27 8091.87 2934.74C8127.91 2819.47 7854.65 2654.33 7854.65 2654.33C7890.45 2754.8 7832.93 2920.19 7739.62 3107.77C7646.31 3295.35 7322.46 3812.26 7200.27 3905.82C7104.81 3979.08 6857.56 4105.81 6773.56 4146.38C6869.02 4110.82 7172.58 4019.41 7286.66 3955.46C7416.01 3883.86 7516.72 3746.87 7638.91 3581.49C7686.64 3515.86 7763.01 3418.73 7838.66 3318.97C7876.61 3296.54 7926.01 3293.44 7969.68 3373.62C7998.72 3421.06 8031.44 3466.14 8067.53 3508.46C7988.77 3649.27 7900.47 3782.67 7811.45 3876.94C7545.36 4157.35 7157.07 4301.26 7272.1 4265.23C7387.13 4229.19 7782.82 4085.52 7840.33 4028.01C7897.85 3970.49 7782.82 4099.6 7818.61 4085.52C7854.41 4071.44 7976.84 4020.85 8135.07 3841.14C8171.99 3797.94 8206.64 3752.86 8238.88 3706.06C8441.97 3929.68 8696.85 4180.74 8789.21 4229.43C8940.28 4308.42 9012.11 4315.58 9156.02 4315.58C9299.92 4315.58 9479.63 4308.42 9529.98 4322.74C9580.34 4337.06 9724.01 4437.77 9666.49 4365.94C9608.98 4294.1 9112.82 4048.05 8925.96 3933.02Z" fill="#263238"/>
<path d="M7113.88 1H9855.03V4577.86" stroke="#263238" stroke-miterlimit="10"/>
<path d="M7628.17 9412.46H6575.48V1H6973.79" stroke="#263238" stroke-miterlimit="10"/>
<path d="M9855.03 4702.43V9412.46H7861.81" stroke="#263238" stroke-miterlimit="10"/>
<path d="M9615.66 6154.39C9534.77 6060.84 9435.92 5984.47 9324.98 5929.82L8804.24 6098.3C8828.11 5847.24 8845.29 5640.57 8849.11 5546.54C8862.48 5229.13 8651.03 5202.88 8651.03 5202.88C8589.36 5394.71 8571.26 5597.89 8598.05 5797.6C8604.26 5834.59 8601.15 5973.25 8591.85 6167.03L8573.71 6172.76L8426.22 6220.49C8426.22 6220.49 8495.19 6205.22 8590.89 6186.13C8586.59 6274.19 8581.11 6373.23 8574.66 6478.71C8506.41 6489.21 8435.53 6492.08 8387.32 6499.48C8365.6 6358.67 8346.99 6227.41 8346.99 6194C8346.99 6114.77 8175.16 6088.28 8175.16 6339.34C8175.16 6510.22 8278.97 6760.32 8345.56 6903.04L8307.37 6907.81C8323.88 6916.98 8341.03 6924.96 8358.68 6931.67C8382.55 6982.74 8399.97 7014.49 8399.97 7014.49L8429.32 6952.91C8466.13 6963.07 8503.5 6971.04 8541.25 6976.78C8509.99 7410.65 8473 7850.96 8445.79 8080.54C8438.39 8142.83 8431.71 8189.84 8425.98 8216.57C8373.24 8467.63 8545.31 7952.15 8545.31 8044.74C8547.56 8111.14 8556.68 8177.12 8572.51 8241.63C8572.51 8241.63 8664.87 7964.08 8664.87 7713.02C8664.87 7617.56 8688.74 7327.6 8721.19 6987.28C8737.18 6987.28 8753.65 6987.28 8770.6 6986.09C8918.08 6979.64 8975.12 6976.3 8995.17 6974.63C8993.02 6994.44 8977.98 7179.39 9140.74 7091.81C9312.57 6999.21 9404.93 6417.86 9471.04 6338.39C9537.14 6258.92 9734.75 6299.72 9615.66 6154.39ZM8449.61 6888.24C8442.21 6844.09 8423.36 6730.01 8403.79 6605.91C8453.92 6633.1 8507.45 6653.48 8562.97 6666.53C8558.43 6733.83 8553.9 6802.8 8548.89 6872.25C8512.85 6878.45 8479.44 6883.7 8449.61 6888.24ZM8941.71 6788.72C8873.93 6807.34 8803.05 6823.56 8734.56 6837.88C8739.09 6788.72 8743.87 6739.32 8748.4 6689.44C8768.93 6689.34 8789.4 6687.18 8809.5 6683C8928.82 6656.51 9167.47 6498.04 9167.47 6498.04C9167.47 6498.04 9232.39 6709.49 8941.71 6788.72ZM9140.03 6352.71C9016.33 6369.09 8893.87 6393.73 8773.46 6426.45C8782.53 6330.99 8791.36 6235.53 8799.71 6147.23C8977.03 6116.92 9153.39 6095.68 9166.52 6127.9C9193.01 6194 9179.64 6352.71 9140.03 6352.71Z" fill="#263238"/>
<path d="M8122.42 6220.49L8042.95 6022.17C7923.62 5942.94 7791.88 6075.15 7435.1 6233.62C7078.32 6392.08 6933.93 6352.94 6933.93 6352.94L7118.89 6484.92C7303.84 6617.13 7528.65 6405.69 7528.65 6458.67C7528.65 6511.65 7184.99 7013.77 7277.35 6987.28C7341.31 6968.9 7505.98 6849.82 7623.64 6760.56L7621.01 6788.96C7621.01 6788.96 7634.37 7145.74 7647.5 7383.68C7660.63 7621.62 7700.48 7542.38 7700.48 7542.38L7726.73 7370.55L7779.71 7529.02L7819.33 6815.45C7819.33 6815.45 8070.39 6841.94 8070.39 6775.83C8070.39 6724.76 7842.72 6697.56 7738.43 6687.53L7720.05 6685.86L7740.1 6670.11C7805.25 6616.89 8122.42 6220.49 8122.42 6220.49Z" fill="#263238"/>
<path d="M8016.7 5876.84C8016.7 5876.84 8162.03 5757.51 8095.93 5665.39C8029.82 5573.27 7540.82 5361.35 7540.82 5361.35L7752.27 5837.22L8016.7 5876.84Z" fill="#263238"/>
<path d="M1925.83 1H3447.24V9412.46H601.318" stroke="#263238" stroke-miterlimit="10"/>
<path d="M1582.89 1H1723.22" stroke="#263238" stroke-miterlimit="10"/>
<path d="M383.191 9412.46H167.688V1H1427.05" stroke="#263238" stroke-miterlimit="10"/>
<path d="M1184.82 1451.52C1220.25 1477.42 1254.04 1505.47 1286.01 1535.53C1286.01 1535.53 1193.17 1501.88 1210.12 1526.94L1226.82 1552.23C1226.82 1552.23 1336.36 1671.56 1479.56 1678.72C1522.99 1681.34 1607 1666.79 1704.6 1643.4C1680.5 1704.27 1653.26 1763.86 1622.98 1821.91C1733.53 1751.1 1837.38 1670.34 1933.23 1580.63C2095.51 1530.99 2243.48 1474.67 2280.23 1442.69C2356.12 1375.39 2541.32 1442.69 2575.2 1274.2C2609.09 1105.72 2347.77 937.228 2212.93 1038.42C2212.93 1038.42 2182.15 1060.85 2132.03 1093.78C2133.7 1006.2 2128.69 917.897 2128.69 836.279C2128.69 625.55 1917.96 541.306 1766.41 524.6C1614.87 507.894 1724.17 667.791 1825.36 785.685C1926.55 903.579 1825.36 1206.9 1825.36 1206.9C1822.5 1227.91 1819.16 1248.67 1815.58 1269.43C1745.98 1301.49 1672.96 1325.51 1597.93 1341.03C1328.25 1391.62 1227.06 1416.92 1176.71 1357.73C1126.35 1298.55 1117.28 1400.93 1184.82 1451.52Z" fill="#263238"/>
<path d="M2701.69 1485.17C2701.69 1485.17 1618.93 1886.58 1278.13 2017.6C1466.43 1938.37 1850.9 1771.55 1850.9 1771.55C1850.9 1771.55 864.073 2167.48 771.954 2192.77C730.966 2201.6 691.325 2215.8 654.06 2235.02L519.222 2201.37C519.222 2201.37 569.816 2361.26 679.357 2428.8C788.898 2496.34 805.603 2546.69 940.441 2428.8C1075.28 2310.91 1632.53 1990.64 2001.96 1914.75C2371.4 1838.85 2659.21 1780.15 2785.46 1788.5C2911.7 1796.85 3105.73 1948.63 3164.67 1864.39C3223.62 1780.15 2861.35 1409.28 2701.69 1485.17Z" fill="#263238"/>
<path d="M1799.83 2614C1799.83 2614 2195.75 2445.51 2439.17 2394.68C2682.6 2343.84 2582.36 2234.54 2498.12 2125C2413.88 2015.46 2220.09 1779.67 1883.11 2116.65C1883.11 2116.65 1588.14 2360.79 1529.19 2360.79C1470.25 2360.79 1453.54 2200.89 1411.3 2310.43C1369.06 2419.97 1419.65 2681.06 1562.84 2723.06C1706.04 2765.06 1722.98 2579.87 1706.04 2487.27C1689.09 2394.68 1680.74 2394.68 1891.23 2217.6C2101.72 2040.52 2228.2 1990.16 2211.5 2167C2194.79 2343.84 1799.83 2614 1799.83 2614Z" fill="#263238"/>
<path d="M2591.67 3043.81C2473.78 3026.86 2086.21 3102.75 2086.21 3102.75C2086.21 3102.75 2119.86 2984.86 2086.21 2934.26C2063.88 2908.93 2035.58 2889.57 2003.87 2877.94C2327.96 2795.61 2518.41 2891.31 2625.56 2799.43C2743.45 2698.24 2549.67 2496.1 2440.13 2513.05L2330.59 2529.75C2330.59 2529.75 1521.8 2917.32 1336.36 2943.57C1150.93 2969.82 974.092 2867.68 1016.33 2977.22C1058.57 3086.76 1201.77 3237.59 1344.96 3229.95C1477.41 3222.32 1509.15 3070.3 1820.11 2940.95C1825.36 2991.54 1836.82 3100.13 1849.23 3233.06C1742.07 3280.79 1460.94 3405.36 1319.66 3432.33C1142.58 3465.98 1083.63 3423.74 1083.63 3423.74C1083.63 3423.74 1193.17 3668.12 1269.06 3693.41C1344.96 3718.71 1370.25 3668.12 1538.74 3567.17C1643.63 3507.5 1753.22 3456.5 1866.41 3414.67C1884.79 3629.46 1901.49 3863.1 1901.49 4012.73C1901.49 4349.71 1775.01 4636.09 1833.95 4644.44C1892.9 4652.79 1977.14 4383.36 1977.14 4383.36C1977.14 4383.36 1994.09 4526.55 2019.39 4400.06C2037.21 4316.57 2062.53 4234.86 2095.04 4155.92C2095.04 4155.92 2103.63 4307.46 2111.98 4240.17C2120.33 4172.87 2137.28 3894.6 2154.22 3726.11C2171.17 3557.62 2170.93 3355.48 2170.93 3355.48C2170.93 3355.48 2314.12 3262.89 2448.96 3262.89C2583.8 3262.89 2711.47 3481.97 2760.64 3380.78C2809.8 3279.59 2709.8 3060.51 2591.67 3043.81Z" fill="#263238"/>
<path d="M1407.01 6289.46C1534.68 6289.46 1817.72 5947 1831.57 5819.08C1845.41 5691.16 1646.61 5748.68 1646.61 5748.68C1646.61 5748.68 1389.11 5465.4 1262.38 5522.44C1262.38 5522.44 1348.06 5692.84 1333.98 5792.35C1319.9 5891.87 1036.14 5963.7 1050.7 6077.3C1065.26 6190.9 1279.09 6289.7 1407.01 6289.46Z" fill="#263238"/>
<path d="M2017.48 6173.72C2039.53 6098.9 2065.5 6025.3 2095.28 5953.2C2102.12 5955.97 2109.13 5958.28 2116.28 5960.12C2329.63 6016.45 2627.95 6001.17 2769.47 5858.7C2910.99 5716.22 2542.03 5802.61 2542.03 5802.61C2542.03 5802.61 2229.88 5852.25 2114.85 5901.18C2178.33 5730.3 2245.39 5526.02 2228.2 5391.42C2198.85 5164.22 2013.42 5136.54 2013.42 5136.54L1985.73 5264.46C1985.73 5264.46 1973.56 5889.72 1875 6188.28C1776.44 6486.83 1989.55 6301.64 2017.48 6173.72Z" fill="#263238"/>
<path d="M2887.36 7108.75C2887.36 7108.75 2521.27 7139.06 2106.73 7176.77C2221.28 7072.96 2351.35 6949.34 2432.01 6882.75C2587.85 6754.36 2529.86 6441.96 2345.14 6385.64C2261.14 6360.34 2054.94 6431.7 1854.72 6517.14C1830.85 6402.35 1777.63 6347.93 1691.48 6402.11C1691.48 6402.11 1691.48 6478 1681.93 6594.7C1612.48 6626.92 1549.24 6657.94 1498.65 6683.24C1469.77 6543.15 1393.88 6630.5 1393.88 6630.5C1393.88 6630.5 1279.33 6360.82 1194.61 6574.18C1194.61 6574.18 1181.96 6986.33 1153.8 7128.56C1148.42 7152.66 1148.21 7177.63 1153.19 7201.82C1158.16 7226.01 1168.21 7248.87 1182.67 7268.89C1134.94 7274.62 1090.55 7280.11 1054.99 7285.12C643.082 7343.35 174.371 7387.5 345.006 7443.82C515.642 7500.14 800.115 7598.71 913.713 7584.15C1027.31 7569.59 814.195 7555.99 1012.99 7512.55C1089.36 7496.09 1289.35 7468.64 1523.47 7440.96C1507.46 7484.34 1488.89 7526.74 1467.86 7567.92C1256.18 7980.79 942.828 8152.38 986.74 8180.54C1030.65 8208.7 1256.65 8122.31 1256.65 8122.31C1256.65 8122.31 1143.3 8250.7 1228.73 8250.46C1310.11 8250.46 1532.54 7873.87 1711.76 7419C2042.53 7382.73 2393.11 7351.46 2547.04 7350.75C2845.6 7350.75 3016.47 7448.83 3058.47 7320.68C3100.48 7192.52 3015.28 7093.96 2887.36 7108.75ZM1588.62 7225.69C1524.66 7231.9 1462.85 7238.34 1404.62 7244.31C1467.86 7154.1 1510.1 6994.44 1509.63 6820.7L1665.23 6778.22C1649.26 6928.86 1623.67 7078.32 1588.62 7225.69ZM1786.22 7206.6C1832.66 7049.77 1859.99 6887.91 1867.6 6724.53C2028.22 6683.72 2177.85 6650.78 2232.26 6656.03C2329.15 6665.58 2103.39 6986.33 1968.07 7189.42L1786.22 7206.6Z" fill="#263238"/>
<path d="M2263.76 7593.69C2335.36 7650.49 1937.05 7609.21 1937.05 7609.21C1937.05 7609.21 2236.32 7863.85 2264.72 7907.52C2293.12 7951.19 2108.64 7936.63 2222.48 8007.28C2336.31 8077.92 2565.18 8503.43 2692.62 8403.44C2820.06 8303.44 2777.1 8133.28 2605.75 7878.4C2434.4 7623.52 2192.41 7537.13 2263.76 7593.69Z" fill="#263238"/>
<path d="M6079.56 9506.48C6079.56 9506.48 5969.54 9682.61 5969.54 9807.42C5969.54 9932.24 5984.1 10079.2 6042.81 10123.2C6101.52 10167.1 6241.13 10218.6 6145.67 10255.4C6050.21 10292.1 5822.53 10270.2 5719.68 10240.8C5616.82 10211.5 5587.7 10035.1 5528.75 9917.68C5469.81 9800.26 5293.92 9653.25 5271.73 9543C5249.53 9432.74 5367.19 9352.08 5484.84 9344.92C5602.5 9337.76 5771.22 9242.06 5771.22 9242.06L6079.56 9506.48Z" fill="#BDBDBD" stroke="#263238" stroke-miterlimit="10"/>
<path d="M3554.39 7203.26C3554.39 7203.26 2915.52 8426.11 2790.71 8682.9C2665.89 8939.69 2432.73 9594.31 2393.35 9843.46C2369.69 9982.42 2364.48 10123.9 2377.84 10264.2H4863.16L5447.37 9072.38C5447.37 9072.38 5548.56 9360.67 5914.89 9532.02C6281.22 9703.37 6506.75 9750.15 6506.75 9750.15L6631.56 9679.99C6631.56 9679.99 6888.59 9687.62 6958.75 9679.99C7028.92 9672.35 7067.82 9282.63 7106.72 9150.18C7145.62 9017.73 7550.61 7622.81 7558.48 7374.14C7566.36 7125.46 7534.62 6813.07 7052.07 6618.33C6765.19 6501.93 6448.66 6480.1 6148.53 6556.04L5478.64 6696.37C5478.64 6696.37 5314.92 6859.84 4948.83 7023.56C4582.74 7187.27 3725.74 6975.83 3725.74 6975.83L3554.39 7203.26Z" fill="#263238" stroke="#263238" stroke-miterlimit="10"/>
<path d="M7165.66 8508.92C7186.19 8459.28 7204.33 8413.46 7219.6 8371.7" stroke="#787878" stroke-miterlimit="10"/>
<path d="M6631.56 9680.46C6631.56 9680.46 6905.53 9115.1 7094.78 8678.12" stroke="#787878" stroke-miterlimit="10"/>
<path d="M4193.74 7863.85C4387.05 8072.43 4758.86 8501.28 4835.95 8792.44" stroke="#787878" stroke-miterlimit="10"/>
<path d="M4076.32 7740.46C4076.32 7740.46 4095.65 7759.8 4128.11 7793.68" stroke="#787878" stroke-miterlimit="10"/>
<path d="M4730.23 8348.31C4730.23 8348.31 4975.56 8523.48 5010.64 8792.44" stroke="#787878" stroke-miterlimit="10"/>
<path d="M3717.87 7467.92C3717.87 7467.92 3811.42 7693.93 4473.68 7764.09C5135.93 7834.25 5556.44 7507.06 5556.44 7507.06L5595.34 7156.48C5595.34 7156.48 4559.35 7475.8 4317.84 7436.9C4076.32 7398 3717.87 7148.61 3717.87 7148.61V7467.92Z" fill="#263238" stroke="#263238" stroke-miterlimit="10"/>
<path d="M5053.84 7648.58C5082.48 7641.19 5111.83 7633.31 5141.66 7624.72" stroke="#787878" stroke-miterlimit="10"/>
<path d="M3922.87 7656.7C3922.87 7656.7 4251.25 7838.31 4986.54 7665.05" stroke="#787878" stroke-miterlimit="10"/>
<path d="M4150.78 4699.09C4150.78 4699.09 3659.87 4873.55 3409.05 5091.67C3158.23 5309.8 3441.75 7033.58 3561.79 7175.34C3681.83 7317.1 4206.15 7764.57 5023.53 7491.79C5840.91 7219.01 5961.67 6826.43 6081.71 6455.33C6201.75 6084.22 6158.08 5222.69 5962.38 4960.89C5766.69 4699.09 5088.2 4611.74 4740.01 4622.72C4541.45 4627.24 4343.93 4652.84 4150.78 4699.09Z" fill="#4CA3FF" stroke="#263238" stroke-miterlimit="10"/>
<path d="M4526.9 5701.43L4819.72 6384.68L5219.94 5369.46L4741.68 5428.17L4526.9 5701.43Z" fill="#BDBDBD" stroke="#263238" stroke-miterlimit="10"/>
<path d="M4825.69 6200.92L4472.48 5447.74L4263.66 5366.12C4263.66 5366.12 4408.76 5819.56 4481.55 5955.83C4554.34 6092.1 4717.34 6364.16 4717.34 6364.16L4306.14 7561.95C4398.18 7576.09 4491.41 7580.89 4584.41 7576.27C4701.11 7259.82 5257.41 5737.22 5297.98 5420.53C5343.32 5066.61 5343.32 4912.45 5343.32 4912.45L5180.08 5030.34L4825.69 6200.92Z" fill="#263238" stroke="#263238" stroke-miterlimit="10"/>
<path d="M4050.07 4314.62C4050.07 4314.62 3981.34 4121.08 3901.63 4214.63C3821.92 4308.18 3899.48 4580 3963.2 4678.8C4026.92 4777.61 4061.29 4657.33 4077.75 4541.82C4086.04 4464.97 4076.56 4387.24 4050.07 4314.62Z" fill="white" stroke="#263238" stroke-miterlimit="10"/>
<path d="M5438.31 4523.92C5438.31 4523.92 5571 4367.13 5612.52 4482.63C5654.05 4598.14 5485.8 4825.34 5391.29 4895.26C5296.79 4965.19 5306.81 4840.85 5332.34 4726.77C5351.69 4651.94 5387.94 4582.55 5438.31 4523.92Z" fill="white" stroke="#263238" stroke-miterlimit="10"/>
<path d="M4359.36 3570.03C4251.22 3649.21 4167.52 3757.22 4117.85 3881.71C4027.4 4126.56 3984.44 4734.17 4022.39 4906C4022.39 4906 4029.78 5195.25 4129.06 5327.22C4228.34 5459.19 4343.85 5671.36 4534.77 5772.07C4725.69 5872.78 5052.17 5551.55 5144.76 5478.05C5244.04 5399.53 5335.69 5136.54 5368.86 4981.89C5402.03 4827.25 5503.22 4279.3 5471.72 3991.73C5440.21 3704.15 5180.08 3528.74 5025.44 3495.57C4897.28 3468.6 4759.82 3444.74 4626.65 3458.1C4529.25 3471.22 4437.05 3509.83 4359.36 3570.03Z" fill="white" stroke="#263238" stroke-miterlimit="10"/>
<path d="M5472.67 3991.73C5440.93 3703.91 5181.04 3528.74 5026.39 3495.57C4897.28 3468.6 4759.82 3444.74 4626.65 3458.1C4529.25 3471.22 4437.05 3509.83 4359.36 3570.03C4251.22 3649.21 4167.53 3757.22 4117.85 3881.71C4063.67 4028.72 4026.44 4306.27 4013.79 4541.82C4029.78 4614.85 4055.32 4703.62 4085.39 4705.06C4135.98 4707.44 4186.34 4394.81 4186.34 4394.81C4337.05 4487.18 4497.94 4561.82 4665.79 4617.23C4952.17 4712.69 5281.75 4562.82 5281.75 4562.82C5281.75 4562.82 5270.77 4849.2 5329.48 4853.97C5359.79 4856.12 5401.08 4737.04 5436.63 4601.48C5466.71 4392.9 5490.33 4151.86 5472.67 3991.73Z" fill="#263238" stroke="#263238" stroke-miterlimit="10"/>
<path d="M4494.44 5490.94C4494.44 5490.94 4551 5622.43 4599.92 5632.94C4648.85 5643.44 4747.41 5579.48 4770.8 5550.6" stroke="#263238" stroke-miterlimit="10"/>
<path d="M4485.37 5650.59C4485.37 5650.59 4596.82 5725.77 4704.93 5698.32" stroke="#263238" stroke-miterlimit="10"/>
<path d="M4868.88 5292.62C4916.4 5305.35 4966.26 5306.6 5014.35 5296.27C5062.44 5285.94 5107.39 5264.32 5145.48 5233.2" stroke="#263238" stroke-miterlimit="10"/>
<path d="M4879.38 5243.93C4879.38 5243.93 5050.97 5119.12 5179.37 5155.39" stroke="#263238" stroke-width="2" stroke-miterlimit="10"/>
<path d="M4443.84 5241.79C4395.43 5233.9 4349.57 5214.65 4310.03 5185.61C4270.5 5156.57 4238.41 5118.57 4216.41 5074.73" stroke="#263238" stroke-miterlimit="10"/>
<path d="M4454.35 5193.1C4454.35 5193.1 4349.58 5008.86 4217.6 4988.81" stroke="#263238" stroke-width="2" stroke-miterlimit="10"/>
<path d="M4645.27 3132.58C4645.27 3132.58 4512.34 2959.32 4552.67 2891.55C4593 2823.77 5026.15 2746.68 5056.94 2881.04C5087.73 3015.41 4926.88 3167.43 4926.88 3167.43L4645.27 3132.58Z" fill="#263238" stroke="#263238" stroke-miterlimit="10"/>
<path d="M4077.75 3633.27C4069.55 3631.43 4062.29 3626.71 4057.28 3619.96C4052.27 3613.21 4049.84 3604.89 4050.45 3596.51C4051.06 3588.13 4054.65 3580.24 4060.58 3574.29C4066.51 3568.33 4074.39 3564.71 4082.77 3564.06L5629.23 3455C5638.28 3454.73 5647.08 3457.96 5653.8 3464.03C5660.52 3470.1 5664.64 3478.53 5665.29 3487.56C5665.93 3496.59 5663.06 3505.52 5657.28 3512.49C5651.49 3519.45 5643.24 3523.91 5634.24 3524.93L4087.78 3633.99C4084.42 3634.23 4081.04 3633.99 4077.75 3633.27Z" fill="white" stroke="#263238" stroke-miterlimit="10"/>
<path d="M5165.05 3304.89C5184.14 3455.24 5033.08 3598.19 4828.07 3624.21C4623.07 3650.22 4441.46 3549.03 4422.37 3398.68C4403.27 3248.33 4554.1 3105.38 4759.34 3079.6C4964.58 3053.83 5145.96 3154.54 5165.05 3304.89Z" fill="#263238" stroke="#263238" stroke-miterlimit="10"/>
<path d="M4816.38 9949.42C4816.38 9949.42 4720.92 10044.9 4665.79 10059C4610.66 10073 4453.63 10079.5 4460.55 10134.1C4467.47 10188.8 4624.74 10161.6 4672.71 10161.6C4720.68 10161.6 4857.43 10072.6 4857.43 10072.6L4871.27 9915.05L4816.38 9949.42Z" fill="white" stroke="#263238" stroke-miterlimit="10"/>
<path d="M5819.91 5702.62C5618.38 5957.42 5477.66 6254.85 5408.47 6572.27C5384.61 6735.74 5432.34 6876.07 5408.47 7039.55C5360.74 7273.19 5221.37 7436.9 5174.83 7670.54V7857.64C5198.7 8091.28 5268.15 8324.92 5221.37 8558.56C5174.83 9072.86 5034.51 9563.52 4730.7 10031C4660.54 10124.4 4520.45 10171.1 4420.46 10268.3H4611.38C4666.27 10241.5 4815.66 10098.1 4878.91 10129.4C4855.93 10183.6 4818.44 10230.4 4770.56 10264.7L4963.87 10262.1C5011.6 10217.9 5011.6 10101.2 5145.96 10101C5126.39 10157 5122.09 10106.5 5145.96 10101C5126.39 10157 5106.34 10212.9 5083.67 10268L5218.51 10265.2C5242.97 10219.1 5259.51 10169.2 5267.43 10117.7C5273.16 10165.4 5279.36 10214.3 5287 10262.5L5385.32 10266.1C5385.32 10008.1 5385.32 9727.71 5385.32 9470.69C5502.26 9143.5 5759.29 8862.84 5852.6 8512.5C6273.35 8185.31 6203.18 7577.47 6273.35 7086.8C6297.21 6923.08 6366.9 6759.61 6390.29 6595.89C6390.29 6502.58 6438.02 6385.64 6438.02 6292.09C6438.02 6105.23 6461.88 5941.75 6414.15 5754.65L6343.27 5544.87C6315.65 5492.21 6292.19 5437.47 6273.11 5381.16C6221.56 5243.69 6157.36 5118.64 6052.83 5023.18" fill="white"/>
<path d="M5819.91 5702.62C5618.38 5957.42 5477.66 6254.85 5408.47 6572.27C5384.61 6735.74 5432.34 6876.07 5408.47 7039.55C5360.74 7273.19 5221.37 7436.9 5174.83 7670.54V7857.64C5198.7 8091.28 5268.15 8324.92 5221.37 8558.56C5174.83 9072.86 5034.51 9563.52 4730.7 10031C4660.54 10124.4 4520.45 10171.1 4420.46 10268.3H4611.38C4666.27 10241.5 4815.66 10098.1 4878.91 10129.4C4855.93 10183.6 4818.44 10230.4 4770.56 10264.7L4963.87 10262.1C5011.6 10217.9 5011.6 10101.2 5145.96 10101M5145.96 10101C5122.09 10106.5 5126.39 10157 5145.96 10101ZM5145.96 10101C5126.39 10157 5106.34 10212.9 5083.67 10268L5218.51 10265.2C5242.97 10219.1 5259.51 10169.2 5267.43 10117.7C5273.16 10165.4 5279.36 10214.3 5287 10262.5L5385.32 10266.1C5385.32 10008.1 5385.32 9727.71 5385.32 9470.69C5502.26 9143.5 5759.29 8862.84 5852.6 8512.5C6273.35 8185.31 6203.18 7577.47 6273.35 7086.8C6297.21 6923.08 6366.9 6759.61 6390.29 6595.89C6390.29 6502.58 6438.02 6385.64 6438.02 6292.09C6438.02 6105.23 6461.88 5941.75 6414.15 5754.65L6343.27 5544.87C6315.65 5492.21 6292.19 5437.47 6273.11 5381.16C6221.56 5243.69 6157.36 5118.64 6052.83 5023.18" stroke="#263238" stroke-miterlimit="10"/>
<path d="M5819.91 5702.62C5618.38 5957.42 5477.66 6254.85 5408.47 6572.27C5384.61 6735.74 5432.34 6876.07 5408.47 7039.55C5360.74 7273.19 5221.37 7436.9 5174.83 7670.54V7857.64C5198.7 8091.28 5268.15 8324.92 5221.37 8558.56C5213.57 8646.86 5202.68 8734.37 5188.68 8821.08C5285.33 8755.69 5520.64 8633.98 5723.49 8828.72C5778.14 8728.38 5821.37 8622.23 5852.36 8512.26C6273.11 8185.07 6202.94 7577.23 6273.11 7086.56C6296.97 6922.85 6366.66 6759.37 6390.05 6595.65C6390.05 6502.34 6437.78 6385.4 6437.78 6291.85C6437.78 6104.99 6461.64 5941.51 6413.91 5754.41L6343.27 5544.87C6315.65 5492.21 6292.19 5437.48 6273.11 5381.16C6206.52 5203.36 6118.7 5047.05 5949.26 4944.66" fill="#4CA3FF"/>
<path d="M5819.91 5702.62C5618.38 5957.42 5477.66 6254.85 5408.47 6572.27C5384.61 6735.74 5432.34 6876.07 5408.47 7039.55C5360.74 7273.19 5221.37 7436.9 5174.83 7670.54V7857.64C5198.7 8091.28 5268.15 8324.92 5221.37 8558.56C5213.57 8646.86 5202.68 8734.37 5188.68 8821.08C5285.33 8755.69 5520.64 8633.98 5723.49 8828.72C5778.14 8728.38 5821.37 8622.23 5852.36 8512.26C6273.11 8185.07 6202.94 7577.23 6273.11 7086.56C6296.97 6922.85 6366.66 6759.37 6390.05 6595.65C6390.05 6502.34 6437.78 6385.4 6437.78 6291.85C6437.78 6104.99 6461.64 5941.51 6413.91 5754.41L6343.27 5544.87C6315.65 5492.21 6292.19 5437.48 6273.11 5381.16C6206.52 5203.36 6118.7 5047.05 5949.26 4944.66" stroke="#263238" stroke-miterlimit="10"/>
<path d="M5945.2 6374.66C5887.61 6475.38 5822.93 6571.88 5751.65 6663.43C5579.35 6881.32 5515.87 6999.22 5515.87 6999.22" stroke="#263238" stroke-miterlimit="10"/>
<path d="M6042.81 6191.86C6042.81 6191.86 6027.54 6224.55 5999.85 6276.82" stroke="#263238" stroke-miterlimit="10"/>
<path d="M5243.57 7788.19C5243.57 7788.19 5379.6 7543.34 5506.08 7334.76C5632.57 7126.18 5877.9 7107.8 6031.12 6599.71" stroke="#263238" stroke-miterlimit="10"/>
<path d="M5777.43 7964.08C5744.49 8027.09 5724.45 8069.8 5724.45 8069.8" stroke="#263238" stroke-miterlimit="10"/>
<path d="M6273.11 7086.32C6273.11 7086.32 6150.92 7416.61 6005.58 7597.99C5947.86 7672.63 5895.62 7751.36 5849.26 7833.54" stroke="#263238" stroke-miterlimit="10"/>
<path d="M4878.19 10129.4C4878.19 10129.4 4939.76 10045.1 4939.76 9983.55" stroke="#263238" stroke-miterlimit="10"/>
<path d="M5145.24 10101L5172.45 9990.47" stroke="#263238" stroke-miterlimit="10"/>
<path d="M3899.96 8724.43C3899.96 8724.43 3889.46 8776.69 3772.52 8792.44C3655.58 8808.19 3569.9 8698.89 3468.72 8535.17C3367.53 8371.46 3110.74 8363.82 3110.74 8363.82C3110.74 8363.82 3009.55 8161.45 3158.47 8075.77C3307.39 7990.09 3524.56 8051.91 3625.99 8215.86C3727.41 8379.81 3899.96 8724.43 3899.96 8724.43Z" fill="#828282" stroke="#263238" stroke-miterlimit="10"/>
<path d="M2797.15 8189.85L3101.43 9085.98L3056.09 9512.45C3056.09 9512.45 3600.45 9358.04 3628.85 9258.29C3657.25 9158.53 3356.79 8859.02 3329.58 8768.34C3302.37 8677.65 3284 8042.6 3284 8042.6C3284 8042.6 2865.88 7965.27 2797.15 8189.85Z" fill="white" stroke="#263238" stroke-miterlimit="10"/>
<path d="M3102.62 9621.99C3116.58 9683.89 3134.11 9744.93 3155.13 9804.8C3178.99 9858.02 3254.17 9926.51 3254.17 9926.51C3262.85 9897.29 3265.21 9866.56 3261.09 9836.36C3256.98 9806.16 3246.48 9777.17 3230.3 9751.34L3102.62 9621.99Z" fill="white" stroke="#263238" stroke-miterlimit="10"/>
<path d="M3211.21 8668.58L3374.69 9912.19L3438.17 9894.06L3338.41 8642.09C3338.41 8642.09 3211.21 8568.83 3211.21 8668.58Z" fill="#828282" stroke="#263238" stroke-miterlimit="10"/>
<path d="M3429.1 9013.43C3429.1 9013.43 3691.62 9212.94 3691.62 9249.22C3691.62 9285.49 3600.93 9467.11 3600.93 9467.11L3447.24 9721.27C3447.24 9721.27 3383.76 9766.61 3392.82 9666.86C3404.53 9580.89 3422.72 9495.92 3447.24 9412.69L3410.96 9303.87" fill="white"/>
<path d="M3429.1 9013.43C3429.1 9013.43 3691.62 9212.94 3691.62 9249.22C3691.62 9285.49 3600.93 9467.11 3600.93 9467.11L3447.24 9721.27C3447.24 9721.27 3383.76 9766.61 3392.82 9666.86C3404.53 9580.89 3422.72 9495.92 3447.24 9412.69L3410.96 9303.87" stroke="#263238" stroke-miterlimit="10"/>
<path d="M3073.75 9411.02C3073.75 9411.02 3052.03 9541.8 3052.03 9574.74C3052.03 9607.67 3112.17 9705.52 3177.56 9765.66C3242.95 9825.8 3368.48 9869.23 3368.48 9869.23L3362.99 9749.91C3362.99 9749.91 3183.05 9591.68 3177.56 9509.82C3172.07 9427.97 3161.09 9340.86 3161.09 9340.86" fill="white"/>
<path d="M3073.75 9411.02C3073.75 9411.02 3052.03 9541.8 3052.03 9574.74C3052.03 9607.67 3112.17 9705.52 3177.56 9765.66C3242.95 9825.8 3368.48 9869.23 3368.48 9869.23L3362.99 9749.91C3362.99 9749.91 3183.05 9591.68 3177.56 9509.82C3172.07 9427.97 3161.09 9340.86 3161.09 9340.86" stroke="#263238" stroke-miterlimit="10"/>
<path d="M3148.44 9302.2C3148.44 9302.2 3129.59 9476.18 3165.87 9585C3202.14 9693.83 3347.48 9838.93 3347.48 9838.93C3364.08 9822.84 3375.53 9802.18 3380.37 9779.58C3385.21 9756.97 3383.24 9733.44 3374.69 9711.96L3292.83 9467.11V9312.7" fill="white"/>
<path d="M3148.44 9302.2C3148.44 9302.2 3129.59 9476.18 3165.87 9585C3202.14 9693.83 3347.48 9838.93 3347.48 9838.93C3364.08 9822.84 3375.53 9802.18 3380.37 9779.58C3385.21 9756.97 3383.24 9733.44 3374.69 9711.96L3292.83 9467.11V9312.7" stroke="#263238" stroke-miterlimit="10"/>
<path d="M3374.69 9912.19C3374.69 9912.19 3303.09 9973.76 3303.09 10033.7C3303.09 10093.6 3385.19 10127.5 3384.95 10153C3384.95 10211.7 3313.35 10212.9 3265.62 10191.2C3217.89 10169.5 3341.99 10278.5 3401.89 10284C3461.79 10289.5 3616.68 10313.6 3647.46 10192.8C3705.22 9964.69 3438.88 9895.01 3438.88 9895.01L3374.69 9912.19Z" fill="#4CA3FF" stroke="#263238" stroke-miterlimit="10"/>
<path d="M3584.7 4993.59C3584.7 4993.59 3355.59 5112.91 3224.81 5299.06C3094.03 5485.21 2701.21 7088.95 2690.23 7382.73C2679.26 7676.51 2797.15 8189.84 2797.15 8189.84C2797.15 8189.84 3069.93 8091.76 3298.32 8168.13C3526.71 8244.5 3571.1 8495.32 3669.18 8593.64C3733.85 8655.12 3812.47 8700 3898.29 8724.42C3898.29 8724.42 3843.64 8179.11 3843.64 7655.5C3843.64 7131.9 3865.59 6520.95 3745.55 6030.05" fill="#4CA3FF"/>
<path d="M3584.7 4993.59C3584.7 4993.59 3355.59 5112.91 3224.81 5299.06C3094.03 5485.21 2701.21 7088.95 2690.23 7382.73C2679.26 7676.51 2797.15 8189.84 2797.15 8189.84C2797.15 8189.84 3069.93 8091.76 3298.32 8168.13C3526.71 8244.5 3571.1 8495.32 3669.18 8593.64C3733.85 8655.12 3812.47 8700 3898.29 8724.42C3898.29 8724.42 3843.64 8179.11 3843.64 7655.5C3843.64 7131.9 3865.59 6520.95 3745.55 6030.05" stroke="#263238" stroke-miterlimit="10"/>
<path d="M3711.9 7753.59C3724.31 7779.13 3735.77 7805.86 3746.5 7834.02" stroke="#263238" stroke-miterlimit="10"/>
<path d="M2875.67 7253.14C2875.67 7253.14 3376.83 7239.06 3650.81 7646.91" stroke="#263238" stroke-miterlimit="10"/>
<path d="M3003.34 7682.71C3100.71 7658.85 3225.29 7641.66 3320.04 7679.61C3501.65 7751.21 3628.61 7942.13 3692.09 8006.32" stroke="#263238" stroke-miterlimit="10"/>
<path d="M2848.46 7734.02C2879.21 7721.08 2910.59 7709.69 2942.49 7699.89" stroke="#263238" stroke-miterlimit="10"/>
<path d="M3704.03 7281.54C3722 7310.09 3742.36 7337.08 3764.88 7362.2" stroke="#263238" stroke-miterlimit="10"/>
<path d="M3147.73 6200.93C3147.73 6200.93 3320.03 6255.34 3410.25 6572.75C3468.6 6781.61 3546.76 6984.43 3643.65 7178.44" stroke="#263238" stroke-miterlimit="10"/>
<path d="M9640.72 10264.7H9896.55" stroke="#263238" stroke-miterlimit="10"/>
<path d="M130.459 10264.7H9466.03" stroke="#263238" stroke-miterlimit="10"/>
</svg>
