<svg width="1663" height="1748" viewBox="0 0 1663 1748" fill="none" xmlns="http://www.w3.org/2000/svg">
<g opacity="0.2">
<path d="M813.275 812.837C806.023 795.955 805.477 779.034 805.477 761.723L804.853 708.66C804.386 681.134 804.425 653.14 804.464 626.082V602.689C804.775 539.255 805.711 474.729 806.647 412.348L806.959 390.475C807.375 365.522 807.791 340.557 808.206 315.578C808.908 270.547 809.649 223.994 810.702 178.222L813.158 72.0953C813.548 60.0868 813.899 48.0524 814.211 35.992C814.562 24.2954 814.912 12.5989 815.263 0.590454C815.614 12.4819 815.965 24.3344 816.316 35.992C816.667 47.6495 816.979 60.0868 817.369 72.1343L819.825 178.222C820.878 223.994 821.618 270.547 822.32 315.539C822.736 340.518 823.152 365.496 823.568 390.475L823.88 412.387C824.815 474.768 825.751 539.255 826.063 602.728V626.316C826.063 653.374 826.063 681.329 825.673 708.777L825.01 761.762C825.01 779.073 824.426 795.994 817.213 812.876L813.275 812.837Z" fill="#4CA3FF"/>
<path d="M812.963 813.227C802.904 797.826 799.356 781.256 796.354 764.257L786.529 712.052C781.265 684.955 776.431 657.468 771.752 630.566L767.853 607.641C757.17 545.259 746.916 481.63 736.974 420.106L733.427 398.195C729.554 373.58 725.655 348.965 721.73 324.351C714.439 279.865 707.07 233.858 700.169 188.632L684.184 83.6749C682.469 71.8224 680.727 59.9699 678.96 48.1174C677.244 36.4208 675.529 24.7243 673.813 13.0278C676.23 24.5294 678.57 35.992 680.909 47.2986L688.278 83.09L709.176 187.15C718.104 231.792 726.837 277.253 735.337 321.232C740.093 346.002 744.876 370.695 749.685 395.31L753.895 417.221C765.592 478.355 777.678 541.594 788.985 603.898L792.884 626.823C797.641 653.53 802.553 681.173 806.881 708.426L815.497 760.826C818.499 777.864 820.839 794.629 816.667 812.525L812.963 813.227Z" fill="#4CA3FF"/>
<path d="M812.729 813.656C800.136 800.244 793.781 784.531 787.854 768.273L769.14 718.602C759.237 692.792 749.646 666.396 740.405 640.859L732.608 619.025C711.242 559.451 690.11 498.629 669.641 439.678L662.35 418.625C654.163 394.842 645.949 371.059 637.71 347.276C623.05 304.934 607.884 261.111 593.263 217.912L559.304 117.361L547.958 83.0121L536.808 49.443C541.174 60.3987 545.541 71.3155 549.791 82.0763C554.041 92.8371 558.719 104.651 563.242 115.918L601.879 214.793C618.449 257.368 635.02 300.568 651.083 342.675C660.024 366.068 668.992 389.461 677.985 412.854L685.783 433.167C708.006 491.65 730.97 551.887 752.96 611.423L761.03 633.529C770.31 658.95 779.94 685.228 788.907 711.233L806.257 761.762C812.183 778.02 817.408 794.123 816.394 812.447L812.729 813.656Z" fill="#4CA3FF"/>
<path d="M812.534 814.085C797.836 803.09 788.829 788.703 780.213 773.732L752.921 728.076C738.729 704.449 724.771 680.159 711.242 656.688L699.546 636.375C668.082 581.246 636.618 524.829 606.168 470.285L595.602 451.336C583.516 429.503 571.391 407.682 559.226 385.874C537.354 346.535 514.701 305.831 492.712 265.673L441.988 172.53C436.296 161.899 430.577 151.281 424.833 140.676L408.068 109.485L426.548 139.428C432.864 149.825 439.22 160.131 445.614 170.346L500.821 261.033C524.565 300.022 548.426 339.946 571.546 378.506C584.543 399.975 597.422 421.458 610.184 442.954L621.374 461.707C653.344 515.277 686.445 570.875 718.455 625.459L730.152 645.694C743.72 669.087 757.794 693.416 771.167 717.549L797.173 763.829C805.828 778.8 813.782 793.772 815.965 812.018L812.534 814.085Z" fill="#4CA3FF"/>
<path d="M812.456 814.553C796.081 806.287 784.735 793.694 773.468 780.438L738.846 740.163C720.794 719.382 702.821 697.899 685.432 677.118L670.382 659.145C629.99 610.526 589.403 560.738 550.181 512.548L535.833 494.964C520.082 475.47 504.278 455.976 488.423 436.481C460.117 401.626 430.837 365.6 402.297 329.926L336.134 247.115L313.443 218.419L291.765 191.127L315.158 217.483L339.253 244.775L409.432 324.468C439.609 358.777 470.02 393.867 499.457 427.826C515.858 446.774 532.285 465.71 548.738 484.632L563.398 501.592C604.063 548.651 646.131 597.348 687.069 645.616L702.041 663.433C719.508 684.214 737.598 705.697 754.948 727.14L788.595 768.195C799.746 781.451 810.156 794.824 815.458 812.408L812.456 814.553Z" fill="#4CA3FF"/>
<path d="M812.456 815.059C794.872 809.718 781.499 799.464 768.282 788.196L727.227 754.549C705.823 737.199 684.34 719.187 663.676 701.759L645.702 686.631C597.24 645.577 548.231 603.352 501.133 562.531L484.719 548.3C465.849 531.899 446.952 515.511 428.03 499.136C394.032 469.7 358.903 439.211 324.515 409.034L244.823 338.854L217.531 314.72L191.214 291.327C200.454 298.618 209.655 305.87 218.506 313.044L247.162 335.657L330.052 401.938C365.687 430.477 401.752 459.758 436.607 488.063L495.519 535.629L512.557 549.509C560.903 588.887 610.886 629.63 659.699 670.139L677.79 685.306C698.493 702.656 719.936 720.59 740.717 738.603L780.953 773.225C794.249 784.337 806.803 795.682 815.107 812.213L812.456 815.059Z" fill="#4CA3FF"/>
<path d="M812.534 815.527C794.327 813.344 779.355 805.39 764.383 796.735L718.104 770.73C694.009 757.396 669.758 743.438 646.326 729.753L626.013 718.056C571.118 686.008 515.637 652.867 461.989 620.858L443.469 609.707L379.216 571.187C340.579 548.105 300.577 524.206 261.588 500.54L170.862 445.176L140.217 426.461L110.001 407.825L141.192 424.629L173.006 441.784L266.111 492.664C306.23 514.614 346.856 537.228 386.156 558.944C408.042 571.109 429.927 583.26 451.813 595.398L471.541 606.432C525.813 636.726 581.956 668.034 636.852 699.381L657.009 711.077C680.402 724.606 704.887 738.603 728.514 752.795L774.17 780.087C789.18 788.742 803.528 797.71 814.562 812.447L812.534 815.527Z" fill="#4CA3FF"/>
<path d="M808.128 816.112C791.519 816.112 776.938 811.239 762.005 805.858L711.905 788.274C685.861 779.307 659.543 769.677 634.123 760.398L612.094 752.327C552.442 730.299 492.01 707.295 433.566 685.072L413.487 677.274L343.308 650.411C301.278 634.387 257.845 617.778 215.27 601.169L116.395 562.531L82.5531 549.08L49.9197 536.136L83.4498 547.326L117.916 558.749L218.467 592.708C261.666 607.329 305.489 622.495 347.87 637.155C371.653 645.369 395.423 653.569 419.179 661.757L440.116 669.048C498.989 689.517 559.85 710.648 619.463 732.014L641.57 740.046C667.029 749.286 693.346 758.799 719.04 768.663L768.672 787.417C784.969 793.304 800.682 799.659 814.055 812.252L812.729 815.956L808.128 816.112Z" fill="#4CA3FF"/>
<path d="M792.533 818.646C782.058 818.405 771.624 817.27 761.342 815.254L708.942 806.638C681.845 802.31 654.358 797.437 627.768 792.719L604.375 788.586C541.993 777.241 478.637 765.193 417.425 753.497L395.786 749.364L321.708 735.055C277.651 726.556 232.035 717.744 187.315 708.816L83.2158 687.957C71.5193 685.462 59.5499 683.045 47.7363 680.627L13.1926 673.453L47.8923 678.561L84.0346 683.785L188.953 699.771C234.14 706.672 280.03 714.001 324.36 721.097C349.13 725.074 373.888 728.973 398.633 732.794L420.076 736.264C481.756 746.206 545.502 756.499 608.079 767.182L631.238 771.275C657.906 775.915 685.471 780.75 712.49 785.974L764.539 795.916C781.577 798.918 798.147 802.466 813.548 812.525L812.846 816.424C806.183 817.943 799.367 818.689 792.533 818.646Z" fill="#4CA3FF"/>
<path d="M602.971 825.586C539.42 825.274 474.816 824.339 412.318 823.442L390.757 823.13C365.674 822.662 340.618 822.246 315.587 821.882C270.672 821.142 224.198 820.401 178.504 819.348L72.3771 816.892C60.2907 816.502 48.2042 816.19 36.0788 815.839L0.989197 814.786L36.0788 813.773L72.3771 812.72L178.504 810.225C224.198 809.172 270.672 808.431 315.587 807.73C340.67 807.34 365.726 806.924 390.757 806.482L413.097 806.17C475.479 805.273 539.693 804.338 602.971 804.026H649.094C666.756 804.026 687.654 804.026 709.059 804.455L762.122 805.078C779.55 805.078 796.393 805.702 813.275 812.876V816.775C796.393 823.988 779.511 824.573 762.239 824.573L709.059 825.157C687.693 825.547 666.795 825.586 649.211 825.586H602.971Z" fill="#4CA3FF"/>
<path d="M13.2706 956.198L47.5414 949.141L83.2938 941.733L187.51 920.874C232.347 911.907 278.002 903.095 322.137 894.596C346.752 889.839 371.328 885.083 395.864 880.326L417.503 876.193C478.715 864.497 542.071 852.332 604.453 841.104L627.612 837.01C654.28 832.253 681.806 827.38 708.981 823.052L761.342 814.436C771.623 812.41 782.058 811.263 792.533 811.005C799.407 810.966 806.263 811.725 812.963 813.266L813.665 817.165C798.264 827.185 781.694 830.733 764.656 833.735L712.49 843.638C685.432 848.901 657.906 853.736 631.121 858.414L608.079 862.313C545.385 873.074 481.483 883.367 419.725 893.504L398.633 896.896L324.554 908.593C280.147 915.728 234.179 923.057 188.914 929.997L83.9956 945.983C72.0262 947.698 60.0177 949.453 48.0483 951.246L13.2706 956.198Z" fill="#4CA3FF"/>
<path d="M49.9587 1093.16L82.631 1080.18C93.9377 1075.7 105.205 1071.25 116.473 1066.73L215.348 1028.13C258.001 1011.48 301.512 994.874 343.581 978.772L413.643 952.182L433.371 944.657C491.854 922.395 552.481 899.353 612.25 877.246L634.201 869.254C659.66 859.935 685.978 850.305 712.178 841.338L762.278 823.754C777.133 818.335 791.792 813.5 808.401 813.5H813.002L814.328 817.204C800.954 829.758 785.242 836.113 768.984 842.04L719.313 860.793C693.619 870.618 667.302 880.287 641.882 889.372L619.736 897.403C560.201 918.769 499.457 939.862 440.701 960.292L419.452 967.66L348.181 992.301C305.801 1006.96 261.939 1022.13 218.74 1036.75L118.149 1070.71L83.4888 1082.4L49.9587 1093.16Z" fill="#4CA3FF"/>
<path d="M109.962 1221.83L140.061 1203.27L170.862 1184.24L261.588 1129.19C300.577 1105.45 340.501 1081.58 379.021 1058.5C400.543 1045.51 422.052 1032.61 443.547 1019.83L462.574 1008.48C516.066 976.55 571.39 943.526 626.091 911.595L646.482 899.898C669.875 886.33 694.087 872.333 718.143 858.96L764.539 832.838C779.55 824.183 794.521 816.268 812.729 814.085L814.717 817.477C803.684 832.175 789.336 841.182 774.364 849.798L728.709 876.895C705.316 891.048 680.909 904.967 657.516 918.457L637.008 930.153C582.424 961.344 526.398 992.535 472.321 1022.75L451.969 1034.14C429.979 1046.3 408.016 1058.5 386.078 1070.75C346.856 1092.54 306.308 1115.08 266.267 1137.03L172.928 1188.02L140.997 1205.26L109.962 1221.83Z" fill="#4CA3FF"/>
<path d="M191.409 1338.25L217.609 1314.85C226.706 1306.77 235.804 1298.69 244.901 1290.6L324.593 1220.42C359.02 1190.17 394.227 1159.68 428.264 1130.2L484.719 1081.47L501.172 1067.24C548.426 1026.42 597.279 984.23 645.703 943.175L663.481 928.204C684.262 910.737 705.745 892.646 727.188 875.258L768.438 841.416C781.733 830.304 795.067 819.855 812.651 814.552L815.185 817.555C806.881 833.969 794.327 845.314 781.07 856.543L740.795 891.126C720.015 909.177 698.571 927.112 677.829 944.462L659.738 959.629C610.886 1000.22 560.786 1041.04 512.362 1080.49L495.597 1094.14C476.103 1109.89 456.608 1125.67 437.114 1141.47C402.22 1169.82 366.155 1199.13 330.481 1227.67L247.591 1293.95L218.701 1316.65L191.409 1338.25Z" fill="#4CA3FF"/>
<path d="M291.765 1438.64C299.056 1429.36 306.347 1420.2 313.482 1411.15L336.134 1382.5L402.414 1299.61C430.993 1263.97 460.273 1227.91 488.579 1193.01C504.408 1173.55 520.199 1154.05 535.95 1134.53L550.415 1116.83C589.403 1068.72 630.146 1018.93 670.499 970.39L685.549 952.377C702.938 931.635 720.911 910.152 738.963 889.332L773.546 849.096C784.696 835.84 796.042 823.247 812.534 814.943L815.536 817.477C810.234 835.061 799.941 848.434 788.712 861.651L755.065 902.745C737.676 924.188 719.586 945.632 702.119 966.452L687.147 984.269C646.131 1032.62 604.063 1081.47 563.398 1128.25L548.738 1145.21C532.285 1164.08 515.858 1183.01 499.457 1201.98C470.02 1235.94 439.609 1271.07 409.432 1305.38L339.253 1385.07L315.275 1412.01C307.594 1420.86 299.719 1429.75 291.765 1438.64Z" fill="#4CA3FF"/>
<path d="M408.068 1520.05L424.794 1488.86C430.564 1478.23 436.296 1467.6 441.988 1456.97L492.907 1363.82C514.896 1323.66 537.51 1282.96 559.421 1243.66L595.797 1178.12L606.363 1159.13C636.813 1104.55 668.277 1048.25 699.935 993.081L711.632 972.846C725.161 949.453 739.119 925.046 753.311 901.419L780.603 855.763C789.219 840.753 798.225 826.405 812.924 815.371L816.355 817.36C814.172 835.606 806.218 850.539 797.563 865.549L771.557 911.829C758.184 935.924 744.265 960.136 730.58 983.568L718.884 1003.88C686.796 1058.82 653.656 1114.33 621.413 1168.02L610.184 1186.74C597.188 1208.23 584.296 1229.73 571.508 1251.22C548.426 1289.78 524.721 1329.63 500.821 1368.66L445.614 1459.19C439.259 1469.4 432.942 1479.7 426.626 1489.95L408.068 1520.05Z" fill="#4CA3FF"/>
<path d="M536.691 1580.05L547.802 1546.52C551.623 1535.06 555.418 1523.6 559.187 1512.13L593.146 1411.54C607.806 1368.34 622.972 1324.48 637.632 1282.1C645.871 1258.37 654.072 1234.61 662.234 1210.83L669.602 1189.58C690.032 1130.83 711.164 1070.08 732.491 1010.55L740.288 988.636C749.529 963.138 759.081 936.742 768.984 911.01L787.698 861.339C793.625 845.042 799.98 829.368 812.573 815.956L816.238 817.321C817.252 835.645 812.027 851.787 806.14 868.006L788.712 918.106C779.745 944.15 770.115 970.468 760.796 996.083L752.843 1017.96C730.814 1077.53 707.85 1137.92 685.627 1196.33L677.829 1216.52C668.81 1239.92 659.829 1263.31 650.888 1286.7C634.864 1328.65 618.294 1372.01 601.723 1414.59L563.086 1513.46L549.635 1547.26C545.424 1558.14 541.096 1569.06 536.691 1580.05Z" fill="#4CA3FF"/>
<path d="M673.813 1616.78C675.529 1605.08 677.244 1593.15 678.96 1581.69C680.675 1570.23 682.469 1557.98 684.184 1546.09L700.169 1441.17C707.109 1395.87 714.439 1349.83 721.574 1305.34C725.525 1280.72 729.424 1256.11 733.271 1231.5L736.818 1209.74C746.722 1148.18 757.014 1084.55 767.697 1022.05L771.596 999.124C776.275 972.417 781.109 944.54 786.373 917.677L796.198 865.51C799.2 848.433 802.748 831.863 812.807 816.502L816.706 817.165C820.878 835.06 818.538 851.825 815.536 868.863L806.92 921.264C802.592 948.556 797.679 976.16 792.923 1002.91L789.024 1025.83C777.717 1088.21 765.631 1151.45 753.934 1212.66L749.763 1234.38C744.98 1259.15 740.197 1283.92 735.415 1308.69C726.915 1352.67 718.143 1398.09 709.254 1442.77L688.356 1546.83L680.987 1582.63C678.765 1593.78 676.23 1605.24 673.813 1616.78Z" fill="#4CA3FF"/>
<path d="M815.224 1629.18C814.886 1617.25 814.536 1605.45 814.172 1593.78C813.808 1582.11 813.457 1570.06 813.119 1557.63L810.663 1451.51C809.61 1405.73 808.869 1359.22 808.167 1314.19C807.752 1289.24 807.336 1264.27 806.92 1239.29L806.608 1217.38C805.672 1155 804.736 1090.47 804.425 1027.04V1003.65C804.425 976.589 804.425 948.634 804.814 921.108L805.438 868.045C805.438 850.734 806.023 833.813 813.236 816.892H817.135C824.387 833.813 824.933 850.734 824.933 868.006L825.556 921.108C826.024 948.595 825.985 976.55 825.946 1003.57V1026.88C825.634 1090.32 824.699 1154.84 823.763 1217.23L823.451 1239.14C823.035 1264.09 822.619 1289.06 822.203 1314.03C821.501 1359.07 820.761 1405.58 819.708 1451.35L817.252 1557.48C816.862 1569.54 816.511 1581.59 816.199 1593.62C815.887 1605.65 815.562 1617.51 815.224 1629.18Z" fill="#4CA3FF"/>
<path d="M956.636 1616.78C954.218 1605.08 951.879 1593.78 949.54 1582.51L942.171 1546.72L921.273 1442.66C912.384 1397.98 903.611 1352.55 895.112 1308.58C890.355 1283.8 885.573 1259.03 880.764 1234.26L876.592 1212.55C864.896 1151.33 852.77 1088.06 841.503 1025.71L837.604 1002.79C832.847 976.043 827.935 948.439 823.607 921.147L814.991 868.786C811.988 851.709 809.649 834.944 813.821 817.048L817.72 816.385C827.779 831.746 831.327 848.317 834.329 865.355L843.92 917.716C849.183 944.813 854.018 972.495 858.697 999.202L862.595 1022.17C873.278 1084.55 883.571 1148.25 893.474 1209.82L897.022 1231.57C900.895 1256.16 904.794 1280.78 908.719 1305.42C915.854 1349.9 923.184 1395.95 930.123 1441.25L946.109 1546.21C947.824 1558.06 949.566 1569.92 951.333 1581.77C953.205 1593.15 954.92 1604.93 956.636 1616.78Z" fill="#4CA3FF"/>
<path d="M1093.76 1580.05C1089.35 1569.06 1085.02 1558.14 1080.77 1547.38L1067.32 1513.54L1028.69 1414.7C1012.12 1372.13 995.546 1328.93 979.522 1286.82C970.554 1263.43 961.574 1240.03 952.581 1216.64L944.783 1196.44C922.56 1137.96 899.595 1077.65 877.567 1018.07L869.808 995.927C860.49 970.467 850.86 944.15 841.892 917.95L824.348 867.889C818.421 851.631 813.197 835.489 814.211 817.204L817.876 815.839C830.469 829.251 836.824 844.925 842.75 861.183L861.465 910.854C871.368 936.625 880.959 963.021 890.16 988.519L897.958 1010.43C919.285 1069.97 940.416 1130.71 960.846 1189.47L968.215 1210.71C976.351 1234.45 984.551 1258.18 992.817 1281.91C1007.48 1324.33 1022.64 1368.19 1037.3 1411.43L1071.26 1512.02C1075.03 1523.48 1078.83 1534.94 1082.65 1546.4L1093.76 1580.05Z" fill="#4CA3FF"/>
<path d="M1222.38 1520.05L1203.67 1489.68L1184.84 1459.15L1129.63 1368.5C1105.88 1329.51 1082.02 1289.63 1058.94 1251.07C1045.95 1229.55 1033.05 1208.05 1020.26 1186.58L1009.27 1168.14C977.221 1114.45 944.081 1058.97 911.994 1004L900.024 983.334C886.534 959.94 872.732 935.885 859.281 911.946L833.276 865.666C824.621 850.656 816.667 835.723 814.484 817.477L817.915 815.488C832.613 826.522 841.62 840.87 850.236 855.841L877.528 901.536C891.72 925.163 905.678 949.453 919.207 972.963L930.903 993.237C962.367 1048.37 993.831 1104.74 1024.24 1159.25L1034.85 1178.28L1071.22 1243.74C1093.13 1283.08 1115.75 1323.78 1137.74 1363.94L1188.66 1457.08C1194.43 1467.82 1200.21 1478.54 1206.01 1489.25C1211.27 1499.38 1216.81 1509.68 1222.38 1520.05Z" fill="#4CA3FF"/>
<path d="M1338.68 1438.64L1314.9 1411.93C1307.1 1403.02 1299.18 1394.1 1291.12 1385.19L1220.94 1305.5C1190.76 1271.19 1160.35 1236.06 1130.91 1202.1C1114.49 1183.15 1098.06 1164.23 1081.63 1145.33L1067.05 1128.25C1026.39 1081.16 984.317 1032.5 943.379 984.191L928.291 966.529C910.824 945.749 892.733 924.266 875.384 902.822L841.737 861.768C830.586 848.511 820.176 835.138 814.834 817.555L817.876 815.02C834.251 823.325 845.596 835.918 856.864 849.135L891.486 889.41C909.537 910.23 927.511 931.713 944.9 952.455L959.95 970.467C1000.3 1019.01 1040.85 1068.8 1080.07 1116.91L1094.5 1134.61C1110.25 1154.1 1126.04 1173.6 1141.87 1193.09C1170.18 1227.99 1199.46 1264.05 1228.03 1299.69L1294.31 1382.58L1316.93 1411.23C1324.1 1420.2 1331.39 1429.36 1338.68 1438.64Z" fill="#4CA3FF"/>
<path d="M1439.04 1338.25L1411.75 1316.65L1382.94 1293.88L1300.05 1227.6C1264.37 1199.06 1228.31 1169.74 1193.41 1141.39C1173.94 1125.59 1154.45 1109.81 1134.93 1094.06L1118.2 1080.41C1069.74 1040.96 1019.64 1000.14 970.749 959.551L952.698 944.384C931.956 927.034 910.512 909.1 889.731 891.048L849.495 856.465C836.2 845.353 823.646 834.008 815.341 817.477L817.875 814.475C835.459 819.777 848.793 830.07 862.049 841.338L903.104 874.985C924.587 892.374 945.992 910.464 966.85 927.931L984.629 942.903C1033.05 983.957 1082.1 1026.14 1129.16 1067L1145.61 1081.19L1202.15 1130.24C1236.18 1159.76 1271.39 1190.25 1305.82 1220.5L1385.51 1290.68C1394.55 1298.79 1403.65 1306.87 1412.8 1314.93L1439.04 1338.25Z" fill="#4CA3FF"/>
<path d="M1520.49 1221.83L1489.3 1205.1L1457.33 1187.87L1364.22 1136.95C1324.18 1115.04 1283.63 1092.5 1244.41 1070.67C1222.47 1058.48 1200.51 1046.29 1178.52 1034.1L1158.6 1022.98C1104.44 992.769 1048.41 961.5 993.636 930.231L973.128 918.535C949.734 905.045 925.523 891.243 901.974 876.973L856.318 849.915C841.308 841.26 826.96 832.253 815.926 817.555L817.875 814.163C836.122 816.346 851.094 824.261 866.065 832.916L912.345 858.921C936.439 872.294 960.612 886.213 984.044 899.859L1004.44 911.556C1059.02 943.487 1114.46 976.511 1167.95 1008.44L1186.98 1019.79C1208.45 1032.78 1229.96 1045.68 1251.51 1058.46C1290.03 1081.55 1329.87 1105.25 1368.94 1129.15L1459.59 1184.36L1490.39 1203.38L1520.49 1221.83Z" fill="#4CA3FF"/>
<path d="M1580.49 1093.16L1547.23 1082.17L1512.53 1070.47L1411.98 1036.51C1368.78 1021.89 1324.92 1006.73 1282.54 992.067L1211.27 967.426L1190.02 960.603C1131.26 940.173 1070.52 919.081 1010.99 897.715L988.84 889.683C963.42 880.482 937.102 870.93 911.409 861.105L861.777 842.351C845.479 836.425 829.767 830.07 816.394 817.516L817.72 813.812H822.32C838.929 813.812 853.511 818.646 868.444 824.066L918.544 841.611C944.627 850.617 970.944 860.247 996.521 869.565L1018.47 877.558C1078.12 899.352 1138.83 922.395 1197.31 944.657L1217.04 952.182L1286.98 978.928C1329.05 995.03 1372.56 1011.64 1415.22 1028.29L1514.09 1066.89C1525.36 1071.41 1536.63 1075.85 1547.93 1080.34L1580.49 1093.16Z" fill="#4CA3FF"/>
<path d="M1617.18 956.198L1582.36 951.129C1570.39 949.336 1558.38 947.581 1546.41 945.866L1441.5 929.88C1396.23 922.941 1350.26 915.611 1305.86 908.476L1231.78 896.779L1210.68 893.387C1148.93 883.406 1085.02 873.113 1022.33 862.196L999.289 858.298C972.582 853.619 944.978 848.784 917.92 843.521L865.909 833.657C848.871 830.655 832.301 827.107 816.901 817.087L817.603 813.188C824.302 811.647 831.158 810.888 838.033 810.927C848.508 811.18 858.943 812.328 869.223 814.358L921.624 822.974C948.916 827.302 976.403 832.214 1003.07 836.932L1026.15 841.026C1088.53 852.371 1152.08 864.419 1213.3 876.115L1234.62 880.014C1259.19 884.797 1283.76 889.553 1308.35 894.284C1352.49 902.784 1398.02 911.595 1442.98 920.562L1547.08 941.421L1582.83 948.829L1617.18 956.198Z" fill="#4CA3FF"/>
<path d="M981.237 825.625C963.653 825.625 942.756 825.625 921.39 825.196L868.327 824.612C850.938 824.612 834.056 823.988 817.174 816.814V812.915C834.056 805.702 850.899 805.117 868.132 805.117L921.39 804.494C942.795 804.143 963.692 804.065 981.354 804.065H1027.48C1090.76 804.377 1155.13 805.312 1217.35 806.209L1239.69 806.521C1264.75 806.989 1289.8 807.405 1314.86 807.769C1359.78 808.47 1406.25 809.211 1451.95 810.264L1558.07 812.759L1594.37 813.812L1629.46 814.825L1594.37 815.878C1582.24 816.229 1570.16 816.541 1558.07 816.931L1451.95 819.387C1406.25 820.44 1359.78 821.181 1314.86 821.921C1289.8 822.311 1264.75 822.727 1239.69 823.169L1218.13 823.481C1155.75 824.378 1091.03 825.313 1027.48 825.625H981.237Z" fill="#4CA3FF"/>
<path d="M837.916 818.646C831.041 818.685 824.185 817.926 817.486 816.385L816.784 812.486C832.184 802.427 848.754 798.879 865.792 795.877L917.959 786.052C944.978 780.828 972.543 775.993 999.211 771.353L1022.37 767.26C1084.95 756.577 1148.69 746.284 1210.37 736.342L1231.82 732.872C1256.56 728.973 1281.25 725.074 1305.89 721.175C1350.22 714.079 1396.11 706.749 1441.3 699.848L1546.22 683.863L1582.28 678.6L1616.98 673.492L1582.44 680.666C1570.74 683.083 1558.77 685.501 1546.96 687.996L1442.94 708.738C1398.18 717.666 1352.6 726.478 1308.55 734.977L1234.47 749.286L1213.14 753.185C1151.81 764.881 1088.38 777.085 1026 788.274L1002.6 792.368C976.013 797.125 948.487 801.998 921.351 806.326L868.989 814.903C858.759 817.046 848.362 818.298 837.916 818.646Z" fill="#4CA3FF"/>
<path d="M822.32 816.112H817.72L816.394 812.408C829.767 799.815 845.479 793.46 861.738 787.573L911.409 768.819C937.102 758.955 963.42 749.325 988.879 740.202L1010.99 732.17C1070.6 710.804 1131.46 689.673 1190.33 669.204L1211.27 661.913C1235.05 653.777 1258.82 645.577 1282.58 637.311C1324.96 622.651 1368.78 607.485 1411.98 592.864L1512.57 558.866L1547 547.482L1580.45 536.409L1547.82 549.353L1513.98 562.804L1415.1 601.442C1372.49 618.051 1329.09 634.66 1287.06 650.684L1216.88 677.547L1196.8 685.345C1138.32 707.568 1077.93 730.571 1018.28 752.6L996.248 760.671C970.827 769.95 944.51 779.58 918.466 788.547L868.366 806.131C853.589 811.239 838.929 816.112 822.32 816.112Z" fill="#4CA3FF"/>
<path d="M815.926 812.135C826.96 797.398 841.308 788.43 856.279 779.775L901.935 752.717C925.601 738.486 949.929 724.489 973.478 710.96L993.636 699.264C1048.61 667.878 1104.83 636.492 1159.22 606.159L1178.71 595.281C1200.63 583.169 1222.51 571.018 1244.37 558.827C1283.67 536.955 1324.3 514.341 1364.42 492.547L1457.56 441.628C1468.16 435.936 1478.76 430.23 1489.33 424.512L1520.53 407.708L1490.23 426.461L1459.59 445.371L1368.86 500.54C1329.87 524.361 1289.79 548.261 1251.15 571.382L1186.98 609.707L1168.46 620.78C1114.81 652.789 1059.29 685.93 1004.44 717.978L984.122 729.675C960.729 743.282 936.439 757.318 912.384 770.652L866.104 796.852C851.094 805.507 836.122 813.461 817.875 815.644L815.926 812.135Z" fill="#4CA3FF"/>
<path d="M815.458 812.057C823.763 795.643 836.317 784.297 849.573 773.069L889.848 738.486C910.629 720.434 932.073 702.5 952.815 685.111L970.905 669.983C1019.68 629.474 1069.66 588.731 1118.05 549.119L1134.93 535.629L1193.41 488.18C1228.27 459.874 1264.33 430.594 1299.97 402.055L1382.86 335.774L1411.51 313.161C1420.52 305.987 1429.72 298.735 1438.81 291.444L1412.49 314.837L1385.39 339.01L1305.7 409.19C1271.31 439.367 1236.14 469.856 1202.18 499.292C1183.26 515.667 1164.37 532.068 1145.5 548.495L1129.08 562.648C1081.83 603.508 1032.98 645.733 984.512 686.787L966.539 701.915C945.836 719.343 924.392 737.355 903.026 754.705L861.972 788.352C848.716 799.464 835.342 809.874 817.759 815.215L815.458 812.057Z" fill="#4CA3FF"/>
<path d="M814.951 812.057C820.293 794.473 830.547 781.1 841.815 767.844L875.462 726.672C892.85 705.229 910.941 683.785 928.408 662.965L943.379 645.148C984.317 596.88 1026.39 548.183 1067.05 501.124L1081.71 484.164C1098.16 465.242 1114.59 446.306 1130.99 427.358C1160.43 393.399 1190.84 358.31 1221.02 324L1291.2 244.268C1299.18 235.353 1307.14 226.399 1315.1 217.405L1338.76 190.854L1317.08 218.146L1294.31 247.114L1228.03 329.965C1199.49 365.639 1170.21 401.665 1141.91 436.52C1126.08 455.963 1110.28 475.457 1094.5 495.003L1080.15 512.587C1040.93 560.777 1000.34 610.565 959.95 659.184L944.9 677.157C927.511 697.938 909.537 719.421 891.486 740.201L856.903 780.477C845.752 793.733 834.407 806.326 817.915 814.592L814.951 812.057Z" fill="#4CA3FF"/>
<path d="M814.484 812.135C816.667 793.889 824.621 778.917 833.276 763.945L859.281 717.666C872.576 693.649 886.573 669.515 900.102 646.161L911.994 625.575C944.003 570.992 977.105 515.355 1009.08 461.824L1020.26 443.07C1033.26 421.601 1046.14 400.118 1058.9 378.623C1082.02 340.063 1105.88 300.178 1129.63 261.15L1184.84 170.424C1191.15 160.248 1197.47 149.994 1203.74 139.779C1210.02 129.564 1216.1 119.7 1222.38 109.563L1205.77 140.403C1200 151.086 1194.08 161.808 1188.46 172.53L1137.54 265.673C1115.55 305.831 1092.9 346.535 1071.03 385.913C1058.86 407.721 1046.74 429.528 1034.65 451.336L1024.09 470.284C993.636 524.868 962.172 581.246 930.513 636.375L918.817 656.688C905.288 680.081 891.33 704.449 877.138 728.076L849.846 773.732C841.23 788.703 832.223 803.09 817.525 814.085L814.484 812.135Z" fill="#4CA3FF"/>
<path d="M814.055 812.447C813.041 794.084 818.265 777.981 824.153 761.762L841.737 711.701C850.704 685.657 860.334 659.379 869.613 633.958L877.606 611.657C899.595 552.121 922.56 491.767 944.783 433.401L952.581 413.088C961.6 389.695 970.567 366.302 979.483 342.909C995.546 300.958 1012.12 257.602 1028.69 215.027L1067.32 116.152C1071.85 104.885 1076.29 93.578 1080.77 82.3103C1085.26 71.0427 1089.35 60.6328 1093.76 49.677L1082.61 83.2461L1071.26 117.595L1037.46 218.029C1022.84 261.228 1007.67 305.09 993.012 347.471C984.772 371.228 976.559 394.998 968.371 418.781L961.08 439.796C940.611 498.629 919.48 559.451 898.114 619.142L890.316 640.976C881.076 666.513 871.485 692.909 861.582 718.719L842.516 768.273C836.59 784.532 830.235 800.244 817.642 813.656L814.055 812.447Z" fill="#4CA3FF"/>
<path d="M813.626 812.447C809.454 794.551 811.793 777.786 814.795 760.748L823.412 708.387C827.74 681.095 832.652 653.452 837.409 626.745L841.308 603.82C852.614 541.438 864.701 478.277 876.397 417.143L880.608 395.232C885.417 370.513 890.199 345.82 894.956 321.154C903.455 277.175 912.189 231.714 921.117 187.072L942.015 82.9731L949.384 47.2207C951.723 35.914 954.062 24.4514 956.48 12.9498C954.764 24.6464 953.049 36.5768 951.333 48.0394C949.618 59.502 947.824 71.7444 946.109 83.5969L930.279 188.632C923.378 233.936 916.01 279.943 908.875 324.429C904.95 349.069 901.051 373.697 897.178 398.312L893.63 420.184C883.688 481.708 873.434 545.298 862.751 607.719L858.852 630.644C854.174 657.39 849.339 685.228 844.076 712.13L834.251 764.296C831.249 781.334 827.701 797.904 817.642 813.305L813.626 812.447Z" fill="#4CA3FF"/>
</g>
<path d="M294.416 150.813L316.406 167.656L342.801 159.079C343.404 158.881 344.051 158.856 344.667 159.008C345.284 159.16 345.845 159.481 346.288 159.936C346.731 160.391 347.037 160.961 347.172 161.582C347.307 162.202 347.265 162.848 347.051 163.445L337.811 189.568L354.147 212.025C354.518 212.538 354.739 213.145 354.783 213.777C354.828 214.409 354.694 215.041 354.398 215.601C354.102 216.161 353.655 216.627 353.107 216.946C352.56 217.265 351.934 217.424 351.301 217.405L323.58 216.704L307.283 239.317C306.909 239.831 306.399 240.23 305.81 240.468C305.221 240.707 304.577 240.775 303.952 240.665C303.326 240.556 302.744 240.272 302.271 239.848C301.798 239.423 301.454 238.875 301.278 238.264L293.481 211.713L267.085 203.136C266.486 202.941 265.952 202.582 265.545 202.101C265.138 201.62 264.873 201.034 264.78 200.411C264.686 199.787 264.769 199.15 265.018 198.571C265.267 197.991 265.672 197.493 266.189 197.131L289.036 181.536V153.542C289.039 152.919 289.215 152.308 289.542 151.778C289.87 151.248 290.337 150.818 290.893 150.536C291.449 150.254 292.072 150.131 292.694 150.18C293.315 150.228 293.911 150.448 294.416 150.813Z" fill="#E0E0E0"/>
<path d="M1335.6 946.567L1334.2 974.249L1356.19 991.131C1356.69 991.516 1357.08 992.033 1357.3 992.624C1357.52 993.215 1357.58 993.857 1357.46 994.477C1357.33 995.097 1357.04 995.671 1356.61 996.134C1356.18 996.597 1355.63 996.93 1355.02 997.096L1328.2 1004.31L1318.96 1030.43C1318.75 1031.03 1318.37 1031.56 1317.88 1031.96C1317.39 1032.35 1316.79 1032.61 1316.16 1032.68C1315.53 1032.76 1314.9 1032.66 1314.32 1032.39C1313.75 1032.13 1313.26 1031.7 1312.91 1031.17L1297.78 1007.78L1270.06 1007.04C1269.43 1007.03 1268.81 1006.84 1268.28 1006.5C1267.75 1006.15 1267.33 1005.66 1267.06 1005.09C1266.8 1004.51 1266.7 1003.88 1266.78 1003.25C1266.87 1002.62 1267.12 1002.03 1267.53 1001.54L1284.96 979.981L1277.16 953.39C1276.98 952.781 1276.97 952.134 1277.14 951.521C1277.31 950.907 1277.64 950.354 1278.11 949.923C1278.58 949.492 1279.16 949.201 1279.78 949.084C1280.41 948.966 1281.05 949.026 1281.64 949.258L1307.53 959.2L1330.38 943.604C1330.9 943.27 1331.5 943.084 1332.12 943.067C1332.74 943.05 1333.35 943.202 1333.89 943.507C1334.42 943.812 1334.87 944.259 1335.17 944.798C1335.47 945.337 1335.62 945.949 1335.6 946.567Z" fill="#E0E0E0"/>
<path d="M1356.38 260.605L1354.98 288.286L1376.97 305.168C1377.47 305.553 1377.86 306.07 1378.08 306.661C1378.3 307.252 1378.36 307.894 1378.24 308.514C1378.11 309.134 1377.82 309.708 1377.39 310.171C1376.96 310.634 1376.41 310.967 1375.8 311.134L1349.02 318.346L1339.74 344.469C1339.53 345.067 1339.16 345.596 1338.66 345.994C1338.17 346.392 1337.57 346.644 1336.95 346.721C1336.32 346.798 1335.68 346.697 1335.1 346.43C1334.53 346.163 1334.04 345.74 1333.69 345.21L1318.57 321.816L1290.88 321.193C1290.25 321.184 1289.63 320.997 1289.1 320.652C1288.57 320.307 1288.15 319.819 1287.88 319.244C1287.62 318.668 1287.52 318.03 1287.6 317.402C1287.69 316.774 1287.94 316.182 1288.35 315.695L1305.78 294.135L1297.98 267.544C1297.8 266.936 1297.79 266.288 1297.96 265.674C1298.13 265.061 1298.46 264.508 1298.93 264.077C1299.4 263.646 1299.98 263.355 1300.6 263.238C1301.23 263.12 1301.87 263.18 1302.46 263.412L1328.35 273.354L1351.2 257.758C1351.71 257.44 1352.3 257.263 1352.9 257.247C1353.5 257.23 1354.1 257.374 1354.62 257.664C1355.15 257.954 1355.59 258.379 1355.9 258.896C1356.21 259.412 1356.38 260.002 1356.38 260.605Z" fill="#E0E0E0"/>
<path d="M72.1042 1267.72L98.5383 1276.14L120.45 1259.1C120.949 1258.72 121.546 1258.48 122.173 1258.41C122.8 1258.35 123.432 1258.46 123.998 1258.74C124.565 1259.01 125.044 1259.44 125.381 1259.97C125.719 1260.5 125.901 1261.12 125.908 1261.75V1289.51L148.872 1305.11C149.39 1305.46 149.799 1305.95 150.054 1306.53C150.308 1307.1 150.398 1307.74 150.313 1308.36C150.228 1308.98 149.972 1309.57 149.573 1310.05C149.174 1310.54 148.648 1310.91 148.054 1311.11L121.736 1319.88L113.939 1346.51C113.763 1347.12 113.419 1347.67 112.946 1348.09C112.473 1348.52 111.891 1348.8 111.265 1348.91C110.64 1349.02 109.996 1348.95 109.407 1348.72C108.818 1348.48 108.308 1348.08 107.935 1347.56L91.4814 1325.26L63.7606 1326.16C63.1273 1326.18 62.5015 1326.02 61.954 1325.7C61.4066 1325.38 60.9594 1324.91 60.6631 1324.35C60.3669 1323.79 60.2334 1323.16 60.2778 1322.53C60.3222 1321.9 60.5428 1321.29 60.9145 1320.78L77.0557 1298.24L67.6205 1272.16C67.3719 1271.53 67.3126 1270.85 67.45 1270.19C67.5874 1269.53 67.9154 1268.93 68.3932 1268.46C68.871 1267.98 69.4776 1267.66 70.1374 1267.53C70.7972 1267.4 71.4811 1267.46 72.1042 1267.72Z" fill="#E0E0E0"/>
<path d="M1521.81 1573.07L1548.29 1581.46L1570.16 1564.42C1570.66 1564.03 1571.25 1563.8 1571.88 1563.73C1572.51 1563.67 1573.14 1563.78 1573.71 1564.06C1574.27 1564.33 1574.75 1564.76 1575.09 1565.29C1575.43 1565.82 1575.61 1566.44 1575.62 1567.07L1575.81 1594.83L1598.78 1610.42C1599.31 1610.77 1599.73 1611.26 1599.99 1611.84C1600.26 1612.42 1600.35 1613.06 1600.27 1613.69C1600.18 1614.31 1599.92 1614.91 1599.51 1615.39C1599.1 1615.88 1598.56 1616.24 1597.96 1616.43L1571.6 1625.16L1563.8 1651.79C1563.63 1652.4 1563.29 1652.96 1562.82 1653.39C1562.35 1653.81 1561.77 1654.1 1561.14 1654.22C1560.52 1654.33 1559.87 1654.27 1559.28 1654.03C1558.69 1653.79 1558.17 1653.4 1557.8 1652.88L1541.35 1630.54L1513.62 1631.44C1513 1631.45 1512.38 1631.29 1511.84 1630.97C1511.3 1630.66 1510.86 1630.2 1510.56 1629.64C1510.27 1629.09 1510.13 1628.46 1510.17 1627.84C1510.21 1627.21 1510.42 1626.61 1510.78 1626.1L1526.92 1603.52L1517.48 1577.44C1517.26 1576.83 1517.22 1576.18 1517.35 1575.55C1517.49 1574.92 1517.8 1574.34 1518.26 1573.88C1518.71 1573.42 1519.29 1573.1 1519.92 1572.96C1520.55 1572.81 1521.2 1572.85 1521.81 1573.07Z" fill="#E0E0E0"/>
<path d="M837.136 1575.49L835.693 1603.17L857.683 1620.05C858.184 1620.44 858.569 1620.96 858.793 1621.55C859.016 1622.14 859.07 1622.78 858.949 1623.4C858.827 1624.02 858.535 1624.59 858.104 1625.06C857.674 1625.52 857.123 1625.85 856.513 1626.02L829.728 1633.23L820.449 1659.35C820.24 1659.95 819.868 1660.48 819.375 1660.88C818.882 1661.28 818.287 1661.53 817.658 1661.61C817.029 1661.68 816.39 1661.58 815.815 1661.32C815.241 1661.05 814.752 1660.63 814.405 1660.1L799.317 1636.7L771.596 1635.96C770.966 1635.95 770.353 1635.75 769.825 1635.41C769.298 1635.06 768.877 1634.58 768.609 1634.01C768.342 1633.44 768.239 1632.8 768.312 1632.18C768.385 1631.55 768.631 1630.96 769.023 1630.46L786.49 1608.9L778.692 1582.31C778.514 1581.71 778.509 1581.07 778.675 1580.46C778.842 1579.85 779.175 1579.3 779.637 1578.87C780.098 1578.44 780.67 1578.15 781.288 1578.03C781.907 1577.91 782.547 1577.96 783.137 1578.18L809.025 1588.12L831.911 1572.53C832.432 1572.19 833.033 1572.01 833.652 1571.99C834.27 1571.97 834.881 1572.12 835.419 1572.43C835.957 1572.74 836.401 1573.18 836.704 1573.72C837.006 1574.26 837.156 1574.87 837.136 1575.49Z" fill="#E0E0E0"/>
<path d="M131.367 757.395C131.367 759.078 130.867 760.723 129.931 762.121C128.996 763.52 127.666 764.609 126.111 765.251C124.555 765.894 122.844 766.06 121.195 765.729C119.545 765.397 118.03 764.584 116.843 763.391C115.656 762.199 114.85 760.681 114.526 759.029C114.203 757.378 114.377 755.668 115.026 754.116C115.675 752.563 116.771 751.239 118.173 750.309C119.576 749.38 121.223 748.888 122.906 748.896C124.02 748.896 125.124 749.116 126.153 749.544C127.182 749.971 128.116 750.598 128.902 751.388C129.689 752.177 130.311 753.115 130.734 754.146C131.157 755.177 131.372 756.281 131.367 757.395Z" fill="#E0E0E0"/>
<path d="M17.7932 482.566C22.4658 482.566 26.2537 478.778 26.2537 474.105C26.2537 469.433 22.4658 465.645 17.7932 465.645C13.1206 465.645 9.3327 469.433 9.3327 474.105C9.3327 478.778 13.1206 482.566 17.7932 482.566Z" fill="#E0E0E0"/>
<path d="M556.575 1198C556.575 1199.68 556.079 1201.31 555.149 1202.7C554.219 1204.1 552.898 1205.18 551.352 1205.82C549.806 1206.46 548.105 1206.63 546.464 1206.3C544.823 1205.98 543.315 1205.17 542.132 1203.99C540.949 1202.8 540.143 1201.3 539.816 1199.65C539.49 1198.01 539.657 1196.31 540.298 1194.77C540.938 1193.22 542.023 1191.9 543.414 1190.97C544.805 1190.04 546.441 1189.54 548.114 1189.54C549.225 1189.54 550.326 1189.76 551.352 1190.19C552.378 1190.61 553.311 1191.24 554.097 1192.02C554.882 1192.81 555.506 1193.74 555.931 1194.77C556.356 1195.79 556.575 1196.89 556.575 1198Z" fill="#E0E0E0"/>
<path d="M1135.71 1493.42C1135.71 1495.09 1135.21 1496.73 1134.28 1498.12C1133.35 1499.51 1132.03 1500.6 1130.49 1501.24C1128.94 1501.88 1127.24 1502.04 1125.6 1501.72C1123.96 1501.39 1122.45 1500.59 1121.27 1499.4C1120.08 1498.22 1119.28 1496.71 1118.95 1495.07C1118.62 1493.43 1118.79 1491.73 1119.43 1490.18C1120.07 1488.64 1121.16 1487.31 1122.55 1486.38C1123.94 1485.46 1125.58 1484.96 1127.25 1484.96C1128.36 1484.96 1129.46 1485.18 1130.49 1485.6C1131.51 1486.03 1132.45 1486.65 1133.23 1487.44C1134.02 1488.22 1134.64 1489.16 1135.07 1490.18C1135.49 1491.21 1135.71 1492.31 1135.71 1493.42Z" fill="#E0E0E0"/>
<path d="M1637.3 738.603C1641.97 738.603 1645.76 734.815 1645.76 730.142C1645.76 725.47 1641.97 721.682 1637.3 721.682C1632.62 721.682 1628.84 725.47 1628.84 730.142C1628.84 734.815 1632.62 738.603 1637.3 738.603Z" fill="#E0E0E0"/>
<path d="M1571.05 359.05C1575.73 359.05 1579.52 355.262 1579.52 350.59C1579.52 345.917 1575.73 342.129 1571.05 342.129C1566.38 342.129 1562.59 345.917 1562.59 350.59C1562.59 355.262 1566.38 359.05 1571.05 359.05Z" fill="#E0E0E0"/>
<path d="M996.676 202.668C996.676 204.349 996.178 205.992 995.244 207.39C994.31 208.787 992.983 209.877 991.43 210.52C989.876 211.163 988.167 211.332 986.519 211.004C984.87 210.676 983.356 209.866 982.167 208.678C980.978 207.489 980.169 205.975 979.841 204.326C979.513 202.677 979.681 200.968 980.324 199.415C980.968 197.862 982.057 196.535 983.455 195.601C984.853 194.667 986.496 194.168 988.177 194.168C989.293 194.168 990.398 194.388 991.43 194.815C992.461 195.242 993.398 195.868 994.187 196.658C994.976 197.447 995.602 198.384 996.029 199.415C996.457 200.446 996.676 201.551 996.676 202.668Z" fill="#E0E0E0"/>
<path d="M542.539 212.688C547.211 212.688 550.999 208.9 550.999 204.227C550.999 199.555 547.211 195.767 542.539 195.767C537.866 195.767 534.078 199.555 534.078 204.227C534.078 208.9 537.866 212.688 542.539 212.688Z" fill="#E0E0E0"/>
<path d="M1263.28 718.875L1390.38 604.288L1407.3 587.367L1532.85 449.855L1534.87 447.632C1539.59 442.954 1547.35 441.355 1557.14 443.967C1576.63 449.231 1596.83 469.388 1602.05 488.96C1604.7 498.785 1603.1 506.544 1598.39 511.261L1458.53 638.676L1441.69 655.519L1325.97 783.089C1321.26 787.612 1313.5 789.171 1303.87 786.559C1284.37 781.295 1264.22 761.177 1258.91 741.566C1256.34 731.78 1257.94 723.982 1262.81 719.304L1263.47 718.641L1263.28 718.875Z" fill="#4CA3FF"/>
<path opacity="0.4" d="M1263.28 718.875L1390.38 604.288L1407.3 587.367L1532.85 449.855L1534.87 447.632C1539.59 442.954 1547.35 441.355 1557.14 443.967C1576.63 449.231 1596.83 469.388 1602.05 488.96C1604.7 498.785 1603.1 506.544 1598.39 511.261L1458.53 638.676L1441.69 655.519L1325.97 783.089C1321.26 787.612 1313.5 789.171 1303.87 786.559C1284.37 781.295 1264.22 761.177 1258.91 741.566C1256.34 731.78 1257.94 723.982 1262.81 719.304L1263.47 718.641L1263.28 718.875Z" fill="white"/>
<path opacity="0.3" d="M1539.4 444.552C1537.72 445.298 1536.18 446.341 1534.87 447.632L1532.85 449.854L1407.3 587.328L1390.38 604.249L1263.28 718.875L1262.62 719.538C1257.9 724.216 1256.3 732.014 1258.72 741.8C1263.48 756.536 1272.98 769.285 1285.74 778.059L1552.38 511.885C1552.38 511.885 1525.52 475.626 1539.4 444.552Z" fill="#4CA3FF"/>
<path d="M1557.14 443.967C1547.35 441.355 1539.55 442.954 1534.87 447.632C1530.19 452.311 1528.56 460.108 1531.17 469.934C1536.39 489.428 1556.51 509.663 1576.08 514.926C1585.91 517.539 1593.71 515.94 1598.39 511.261C1603.06 506.583 1604.7 498.746 1602.09 488.96C1596.83 469.349 1576.75 449.231 1557.14 443.967Z" fill="#4CA3FF"/>
<path d="M1261.14 720.902L1263.24 718.797L1390.34 604.21L1407.26 587.289L1532.85 449.854C1514.25 472.351 1538.73 507.246 1538.73 507.246L1265 780.555C1265 780.555 1238.79 743.204 1261.14 720.902Z" fill="#4CA3FF"/>
<path opacity="0.6" d="M1261.14 720.902L1263.24 718.797L1390.34 604.21L1407.26 587.289L1532.85 449.854C1514.25 472.351 1538.73 507.246 1538.73 507.246L1265 780.555C1265 780.555 1238.79 743.204 1261.14 720.902Z" fill="white"/>
<path opacity="0.25" d="M1557.14 443.967C1547.35 441.355 1539.55 442.954 1534.87 447.632C1530.19 452.311 1528.56 460.108 1531.17 469.934C1536.39 489.428 1556.51 509.663 1576.08 514.926C1585.91 517.539 1593.71 515.94 1598.39 511.261C1603.06 506.583 1604.7 498.746 1602.09 488.96C1596.83 469.349 1576.75 449.231 1557.14 443.967Z" fill="white"/>
<path opacity="0.5" d="M1573.9 487.79C1595.27 492.157 1589.5 465.606 1568.25 448.49C1564.72 446.584 1561 445.08 1557.14 444.006C1547.35 441.394 1539.55 442.993 1534.87 447.671C1530.19 452.35 1528.56 460.147 1531.17 469.973C1535.69 484.086 1544.61 496.382 1556.63 505.062L1573.9 487.79Z" fill="#4CA3FF"/>
<path d="M1584.82 486.075L1562.13 508.766C1560.2 507.604 1558.36 506.301 1556.63 504.867L1573.9 487.634C1575.73 488.168 1577.65 488.305 1579.53 488.036C1581.41 487.767 1583.21 487.098 1584.82 486.075Z" fill="#4CA3FF"/>
<path opacity="0.1" d="M1584.82 486.075L1562.13 508.766C1560.2 507.604 1558.36 506.301 1556.63 504.867L1573.9 487.634C1575.73 488.168 1577.65 488.305 1579.53 488.036C1581.41 487.767 1583.21 487.098 1584.82 486.075Z" fill="black"/>
<path d="M1443.37 653.92C1471.01 666.123 1491.95 689.478 1508.87 719.538C1510.08 710.556 1509.66 701.428 1507.62 692.597C1514.94 694.014 1522.03 696.4 1528.71 699.693C1511.13 671.855 1489.96 649.241 1463.49 634.348L1458.53 638.676L1443.37 653.92Z" fill="#4CA3FF"/>
<path opacity="0.2" d="M1455.45 660.392L1459.82 651.62L1473.62 640.742C1470.31 638.558 1466.96 636.453 1463.49 634.504L1458.53 638.675L1443.29 653.92C1447.48 655.807 1451.55 657.969 1455.45 660.392Z" fill="black"/>
<path d="M1390.38 604.249C1386.68 608.148 1385.43 614.308 1387.5 622.144C1390.27 630.619 1395.01 638.322 1401.31 644.628C1407.62 650.934 1415.32 655.666 1423.79 658.443C1431.59 660.548 1437.75 659.339 1441.57 655.714L1441.77 655.519L1458.61 638.676C1454.71 642.574 1448.51 643.744 1440.64 641.639C1432.16 638.861 1424.45 634.124 1418.14 627.81C1411.84 621.496 1407.11 613.785 1404.34 605.301C1402.23 597.504 1403.52 591.11 1407.34 587.328L1390.5 604.132L1390.38 604.249Z" fill="#4CA3FF"/>
<path opacity="0.15" d="M1414.48 623.782C1411.07 619.745 1408.26 615.242 1406.13 610.409L1389.29 627.213C1391.42 632.046 1394.23 636.549 1397.63 640.586L1414.48 623.782ZM1387.5 622.144L1404.34 605.34C1403.68 602.887 1403.35 600.356 1403.37 597.816L1386.52 614.62C1386.51 617.16 1386.84 619.691 1387.5 622.144Z" fill="white"/>
<path opacity="0.1" d="M1412.41 653.413C1415.95 655.625 1419.78 657.319 1423.8 658.443C1431.59 660.548 1437.75 659.34 1441.57 655.714L1441.77 655.519L1458.61 638.676C1454.71 642.574 1448.51 643.744 1440.64 641.639C1436.62 640.515 1432.79 638.821 1429.25 636.609L1412.41 653.413Z" fill="black"/>
<path d="M63.7217 835.45L222.054 924.578L244.784 935.845L425.613 1015.65L428.537 1016.98C434.853 1020.14 439.064 1027.43 439.765 1038.15C441.091 1059.63 427.64 1086.69 409.666 1098.58C400.699 1104.55 392.316 1105.56 386.039 1102.48L210.591 1005.01L187.939 993.743L20.2885 920.523H20.0546C13.8944 917.287 9.72265 910.035 9.05985 899.43C7.77323 877.948 21.2243 850.929 39.1589 838.998C48.1263 833.072 56.5088 832.058 62.8249 835.099L63.7217 835.528V835.45Z" fill="#4CA3FF"/>
<path opacity="0.4" d="M63.7217 835.45L222.054 924.578L244.784 935.845L425.613 1015.65L428.537 1016.98C434.853 1020.14 439.064 1027.43 439.765 1038.15C441.091 1059.63 427.64 1086.69 409.666 1098.58C400.699 1104.55 392.316 1105.56 386.039 1102.48L210.591 1005.01L187.939 993.743L20.2885 920.523H20.0546C13.8944 917.287 9.72265 910.035 9.05985 899.43C7.77323 877.948 21.2243 850.929 39.1589 838.998C48.1263 833.072 56.5088 832.058 62.8249 835.099L63.7217 835.528V835.45Z" fill="white"/>
<path opacity="0.3" d="M433.137 1020.45C431.806 1019.03 430.236 1017.86 428.498 1016.98L425.574 1015.65L244.745 935.846L222.015 924.578L63.7217 835.45L62.8249 835.021C56.5478 831.863 48.1263 832.877 39.1589 838.92C25.9496 848.693 16.3519 862.569 11.867 878.377L369.937 1056.63C369.937 1056.63 397.19 1017.02 433.137 1020.45Z" fill="#4CA3FF"/>
<path d="M439.765 1038.15C439.103 1027.43 434.853 1020.1 428.537 1016.94C422.221 1013.78 413.838 1014.84 404.871 1020.84C386.936 1032.73 373.446 1059.83 374.772 1081.27C375.473 1091.99 379.684 1099.32 386 1102.44C392.316 1105.56 400.699 1104.59 409.666 1098.54C427.601 1086.69 440.935 1059.63 439.765 1038.15Z" fill="#4CA3FF"/>
<path d="M60.9145 833.969L63.7607 835.372L222.093 924.5L244.823 935.768L425.652 1015.58C396.722 1004.5 369.898 1040.96 369.898 1040.96L2.23688 858.025C2.23688 858.025 30.9324 819.036 60.9145 833.969Z" fill="#4CA3FF"/>
<path opacity="0.6" d="M60.9145 833.969L63.7607 835.372L222.093 924.5L244.823 935.768L425.652 1015.58C396.722 1004.5 369.898 1040.96 369.898 1040.96L2.23688 858.025C2.23688 858.025 30.9324 819.036 60.9145 833.969Z" fill="white"/>
<path opacity="0.25" d="M439.765 1038.15C439.103 1027.43 434.853 1020.1 428.537 1016.94C422.221 1013.78 413.838 1014.84 404.871 1020.84C386.936 1032.73 373.446 1059.83 374.772 1081.27C375.473 1091.99 379.684 1099.32 386 1102.44C392.316 1105.56 400.699 1104.59 409.666 1098.54C427.601 1086.69 440.935 1059.63 439.765 1038.15Z" fill="white"/>
<path opacity="0.5" d="M401.323 1069.77C404.169 1092.77 428.966 1078 438.986 1050.78C439.723 1046.6 439.985 1042.35 439.765 1038.11C439.103 1027.39 434.853 1020.06 428.537 1016.9C422.221 1013.74 413.838 1014.8 404.871 1020.8C392.175 1030.11 382.811 1043.26 378.164 1058.31L401.323 1069.77Z" fill="#4CA3FF"/>
<path d="M406.742 1080.26L376.253 1065.05C376.729 1062.76 377.368 1060.51 378.164 1058.31L401.323 1069.81C401.423 1071.84 401.96 1073.82 402.895 1075.62C403.83 1077.43 405.142 1079.01 406.742 1080.26Z" fill="#4CA3FF"/>
<path opacity="0.1" d="M406.742 1080.26L376.253 1065.05C376.729 1062.76 377.368 1060.51 378.164 1058.31L401.323 1069.81C401.423 1071.84 401.96 1073.82 402.895 1075.62C403.83 1077.43 405.142 1079.01 406.742 1080.26Z" fill="black"/>
<path d="M190.005 994.679C187.081 1026.61 170.511 1055.62 146.143 1082.79C155.588 1080.98 164.624 1077.47 172.811 1072.42C173.885 1080.27 173.885 1088.24 172.811 1096.09C194.84 1068.8 210.474 1039.98 216.479 1008.29L210.474 1004.89L190.005 994.679Z" fill="#4CA3FF"/>
<path opacity="0.2" d="M187.705 1008.99L198.037 1010.39L213.632 1020.61C214.724 1016.71 215.699 1012.46 216.478 1008.29L210.474 1004.89L190.005 994.679C189.537 999.492 188.768 1004.27 187.705 1008.99Z" fill="black"/>
<path d="M222.054 924.578C216.985 922.122 210.357 922.979 203.066 927.736C195.472 933.385 189.318 940.746 185.105 949.221C180.891 957.696 178.736 967.046 178.816 976.51C179.322 985.01 182.714 990.858 187.588 993.47H187.822L210.474 1004.78C205.367 1002.24 201.975 996.317 201.429 987.661C201.348 978.192 203.506 968.838 207.727 960.362C211.948 951.886 218.113 944.527 225.719 938.887C232.932 934.052 239.716 933.233 244.823 935.768L222.21 924.5L222.054 924.578Z" fill="#4CA3FF"/>
<path opacity="0.15" d="M210.552 955.418C213.444 950.614 217.031 946.265 221.196 942.512L198.583 931.245C194.417 934.998 190.83 939.347 187.939 944.15L210.552 955.418ZM203.105 927.736L225.719 939.004C227.953 937.48 230.396 936.285 232.971 935.456L210.357 924.188C207.783 925.02 205.342 926.214 203.105 927.736Z" fill="white"/>
<path opacity="0.1" d="M180.024 963.371C178.998 967.671 178.591 972.096 178.816 976.51C179.322 985.01 182.714 990.858 187.588 993.47H187.822L210.474 1004.78C205.367 1002.24 201.975 996.317 201.429 987.661C201.204 983.246 201.611 978.822 202.638 974.522L180.024 963.371Z" fill="black"/>
<path d="M770.972 1137.73L899.206 1230.01L917.803 1241.94L1066.35 1328.34L1068.77 1329.78C1073.91 1333.1 1076.84 1339.8 1076.56 1349.28C1075.51 1359.42 1072.08 1369.18 1066.56 1377.75C1061.03 1386.31 1053.56 1393.46 1044.75 1398.6C1036.41 1402.89 1029.15 1402.97 1023.93 1399.65L881.622 1298.28L863.141 1286.35L725.473 1206.93H725.278C720.248 1203.54 717.48 1196.83 717.792 1187.63C718.87 1177.5 722.31 1167.76 727.835 1159.19C733.36 1150.62 740.817 1143.47 749.607 1138.31C757.95 1134.06 765.202 1133.98 770.466 1137.3L771.167 1137.77L770.972 1137.73Z" fill="#4CA3FF"/>
<path opacity="0.4" d="M770.972 1137.73L899.206 1230.01L917.803 1241.94L1066.35 1328.34L1068.77 1329.78C1073.91 1333.1 1076.84 1339.8 1076.56 1349.28C1075.51 1359.42 1072.08 1369.18 1066.56 1377.75C1061.03 1386.31 1053.56 1393.46 1044.75 1398.6C1036.41 1402.89 1029.15 1402.97 1023.93 1399.65L881.622 1298.28L863.141 1286.35L725.473 1206.93H725.278C720.248 1203.54 717.48 1196.83 717.792 1187.63C718.87 1177.5 722.31 1167.76 727.835 1159.19C733.36 1150.62 740.817 1143.47 749.607 1138.31C757.95 1134.06 765.202 1133.98 770.466 1137.3L771.167 1137.77L770.972 1137.73Z" fill="white"/>
<path opacity="0.3" d="M1072.55 1333.22C1071.53 1331.87 1070.29 1330.71 1068.88 1329.79L1066.47 1328.34L917.92 1241.94L899.323 1230.01L771.089 1137.73L770.388 1137.26C765.241 1133.95 757.872 1134.02 749.568 1138.27C737.248 1145.46 727.653 1156.53 722.276 1169.74L1014.69 1358.29C1014.69 1358.29 1041.67 1326.78 1072.55 1333.22Z" fill="#4CA3FF"/>
<path d="M1076.45 1349.16C1076.91 1339.8 1073.95 1333.06 1068.65 1329.67C1063.35 1326.28 1056.13 1326.43 1047.79 1330.72C1038.98 1335.86 1031.51 1343.01 1025.98 1351.57C1020.46 1360.14 1017.03 1369.9 1015.98 1380.04C1015.55 1389.36 1018.47 1396.1 1023.77 1399.54C1029.08 1402.97 1036.25 1402.77 1044.59 1398.52C1053.41 1393.38 1060.89 1386.23 1066.42 1377.65C1071.96 1369.07 1075.39 1359.31 1076.45 1349.16Z" fill="#4CA3FF"/>
<path d="M768.711 1136.05L771.012 1137.53L899.245 1229.82L917.842 1241.75L1066.39 1328.15C1042.45 1315.79 1015.7 1344.72 1015.7 1344.72L715.492 1151.1C715.492 1151.1 744.226 1120.46 768.711 1136.05Z" fill="#4CA3FF"/>
<path opacity="0.6" d="M768.711 1136.05L771.012 1137.53L899.245 1229.82L917.842 1241.75L1066.39 1328.15C1042.45 1315.79 1015.7 1344.72 1015.7 1344.72L715.492 1151.1C715.492 1151.1 744.226 1120.46 768.711 1136.05Z" fill="white"/>
<path opacity="0.25" d="M1076.45 1349.16C1076.91 1339.8 1073.95 1333.06 1068.65 1329.67C1063.35 1326.28 1056.13 1326.43 1047.79 1330.72C1038.98 1335.86 1031.51 1343.01 1025.98 1351.57C1020.46 1360.14 1017.03 1369.9 1015.98 1380.04C1015.55 1389.36 1018.47 1396.1 1023.77 1399.54C1029.08 1402.97 1036.25 1402.77 1044.59 1398.52C1053.41 1393.38 1060.89 1386.23 1066.42 1377.65C1071.96 1369.07 1075.39 1359.31 1076.45 1349.16Z" fill="white"/>
<path opacity="0.5" d="M1040.15 1372.79C1040.38 1392.95 1063.23 1382.58 1074.5 1360.04C1075.56 1356.5 1076.2 1352.85 1076.41 1349.16C1076.88 1339.8 1073.91 1333.06 1068.61 1329.67C1063.31 1326.28 1056.1 1326.43 1047.75 1330.72C1035.9 1337.55 1026.55 1348.01 1021.08 1360.55L1040.15 1372.79Z" fill="#4CA3FF"/>
<path d="M1043.81 1382.34L1018.94 1366.28C1019.56 1364.34 1020.33 1362.45 1021.24 1360.62L1040.15 1372.79C1040.04 1374.55 1040.31 1376.31 1040.95 1377.96C1041.58 1379.61 1042.56 1381.1 1043.81 1382.34Z" fill="#4CA3FF"/>
<path opacity="0.1" d="M1043.81 1382.34L1018.94 1366.28C1019.56 1364.34 1020.33 1362.45 1021.24 1360.62L1040.15 1372.79C1040.04 1374.55 1040.31 1376.31 1040.95 1377.96C1041.58 1379.61 1042.56 1381.1 1043.81 1382.34Z" fill="black"/>
<path d="M864.74 1287.52C859.164 1314.81 842.165 1338.21 818.344 1359.42C826.684 1358.76 834.836 1356.6 842.399 1353.02C842.566 1359.9 841.805 1366.77 840.138 1373.45C861.777 1352.16 878.074 1328.65 886.339 1301.83L881.466 1298.28L864.74 1287.52Z" fill="#4CA3FF"/>
<path opacity="0.2" d="M861.387 1299.8L870.159 1302.03L882.674 1312.36C884.039 1308.93 885.248 1305.5 886.339 1301.99L881.466 1298.44L864.74 1287.68C863.902 1291.79 862.782 1295.84 861.387 1299.8Z" fill="black"/>
<path d="M899.206 1230.01C895.073 1227.4 889.186 1227.48 882.519 1230.91C875.406 1235.06 869.372 1240.82 864.908 1247.74C860.443 1254.66 857.674 1262.53 856.825 1270.72C856.474 1278.13 858.775 1283.51 862.79 1286.31H862.985L881.466 1298.24C877.294 1295.55 874.916 1290.13 875.306 1282.65C876.149 1274.45 878.915 1266.57 883.38 1259.65C887.845 1252.72 893.882 1246.95 900.999 1242.8C907.705 1239.37 913.631 1239.29 917.803 1241.98L899.323 1230.09L899.206 1230.01Z" fill="#4CA3FF"/>
<path opacity="0.15" d="M886.3 1255.55C889.263 1251.67 892.784 1248.26 896.749 1245.41L878.269 1233.52C874.295 1236.36 870.772 1239.77 867.82 1243.66L886.3 1255.55ZM882.402 1230.91L900.999 1242.88C903.074 1241.79 905.293 1241.01 907.588 1240.54L889.303 1228.53C886.938 1228.99 884.652 1229.79 882.519 1230.91H882.402Z" fill="white"/>
<path opacity="0.1" d="M859.164 1259.49C857.858 1263.1 857.07 1266.88 856.825 1270.72C856.474 1278.13 858.775 1283.51 862.79 1286.31H862.985L881.466 1298.24C877.294 1295.55 874.916 1290.13 875.306 1282.65C875.518 1278.8 876.293 1275 877.606 1271.38L859.164 1259.49Z" fill="black"/>
<path d="M1490 1495.68C1477.44 1517.55 1450.5 1531.32 1412.02 1531.82C1334.39 1532.84 1239.26 1479.58 1199.53 1412.87C1180.04 1380.08 1177.54 1350.18 1189.24 1328.11C1189.44 1327.76 1189.59 1327.37 1189.79 1327.02L1261.41 1199.06C1248.97 1221.24 1251.23 1251.65 1271.08 1284.83C1310.81 1351.58 1405.94 1404.84 1483.6 1403.79C1522.59 1403.24 1549.49 1389.28 1561.93 1367.1L1490.39 1494.9C1490.27 1495.33 1490.11 1495.49 1490 1495.68Z" fill="#37474F"/>
<path d="M1516.2 1448.93C1503.6 1470.81 1476.66 1484.57 1438.22 1485.08C1360.56 1486.09 1265.42 1432.83 1225.69 1366.12C1206.2 1333.33 1203.71 1303.43 1215.44 1281.36C1215.59 1280.99 1215.76 1280.62 1215.95 1280.27L1223.51 1266.78C1211.07 1288.96 1213.34 1319.37 1233.18 1352.75C1272.91 1419.46 1368.04 1472.72 1445.71 1471.66C1484.7 1471.16 1511.6 1457.16 1524.03 1434.98L1516.55 1448.35L1516.2 1448.93Z" fill="#4CA3FF"/>
<path opacity="0.2" d="M1264.02 1367.49C1232.28 1352.4 1207.45 1386.05 1220.67 1441.56C1212.74 1432.7 1205.67 1423.1 1199.53 1412.91C1180.04 1380.12 1177.54 1350.21 1189.24 1328.15C1189.44 1327.8 1189.59 1327.41 1189.79 1327.06L1261.41 1199.1C1248.97 1221.28 1251.23 1251.69 1271.08 1284.87C1310.81 1351.62 1405.94 1404.88 1483.6 1403.82C1389.8 1412.01 1306.48 1387.6 1264.02 1367.49Z" fill="black"/>
<path d="M1561.94 1367.35C1588.76 1319.43 1543.23 1242.93 1460.24 1196.47C1377.25 1150.01 1288.23 1151.19 1261.41 1199.1C1234.58 1247.02 1280.12 1323.52 1363.11 1369.98C1446.1 1416.44 1535.12 1415.26 1561.94 1367.35Z" fill="#263238"/>
<path d="M1662.37 1425.19L1492.14 1139.4L1159.53 1143.73L1148.42 1163.54L1318.6 1449.44L1651.29 1445L1662.37 1425.19Z" fill="#37474F"/>
<path opacity="0.2" d="M1318.6 1449.44L1329.68 1429.63L1662.37 1425.19L1651.29 1445L1318.6 1449.44Z" fill="white"/>
<path opacity="0.2" d="M1329.68 1429.63L1655.5 1429.05L1651.29 1445L1662.37 1425.19L1329.68 1429.63Z" fill="white"/>
<path d="M1492.14 1139.4L1159.53 1143.73L1329.68 1429.63L1662.37 1425.19L1492.14 1139.4Z" fill="#455A64"/>
<path d="M1514.05 982.398C1514.05 979.357 1509.53 975.926 1507.58 979.435C1501.95 990.659 1496.95 1002.19 1492.61 1013.98C1487.75 1025.43 1482.14 1036.54 1475.81 1047.24C1463.76 1067.63 1448.51 1084.63 1432.33 1101.82C1416.15 1119.01 1402.35 1136.91 1394.24 1159.41C1387.06 1179.23 1384.23 1200.38 1385.94 1221.4C1386.96 1233.68 1389.44 1245.81 1393.35 1257.5C1397.08 1270.01 1403.84 1281.41 1413.03 1290.68C1415.26 1292.67 1419.31 1292.43 1418.49 1288.5C1417.12 1283.57 1415.36 1278.76 1413.23 1274.11C1411.36 1269.04 1409.56 1263.86 1407.85 1258.71C1404.42 1248.37 1402.28 1237.64 1401.45 1226.78C1399.81 1206.56 1402.4 1186.21 1409.06 1167.05C1416.73 1146.88 1428.7 1128.62 1444.15 1113.56C1460.99 1096.05 1477.09 1078.47 1489.65 1057.61C1496.42 1046.47 1502.12 1034.72 1506.68 1022.52C1509.08 1016.15 1511.06 1009.64 1512.61 1003.02C1514.08 996.253 1514.57 989.306 1514.05 982.398Z" fill="#4CA3FF"/>
<path d="M1457.48 829.368C1469.49 853.685 1479.57 878.911 1487.62 904.811C1503.49 955.496 1494.91 978.538 1508.98 979.786C1521.81 980.877 1538.42 938.146 1544.27 888.358C1547.66 862.087 1544.31 835.386 1534.52 810.771C1534.05 809.64 1533.19 808.716 1532.09 808.172C1531 807.627 1529.74 807.498 1528.56 807.807C1527.61 808.05 1526.78 808.615 1526.2 809.404C1525.62 810.194 1525.34 811.159 1525.4 812.135C1523.76 808.236 1522.67 805.351 1518.42 806.053C1517.77 806.2 1517.15 806.481 1516.62 806.877C1516.08 807.274 1515.63 807.777 1515.3 808.356C1514.96 808.935 1514.75 809.576 1514.68 810.24C1514.61 810.904 1514.67 811.576 1514.87 812.213C1518.5 825.742 1526.02 858.765 1521.23 885.2C1520.02 852.488 1507.97 821.687 1501.42 806.755C1500.94 805.638 1500.07 804.732 1498.98 804.202C1497.88 803.673 1496.63 803.555 1495.46 803.87C1494.76 804.059 1494.12 804.393 1493.56 804.851C1493.01 805.309 1492.56 805.879 1492.24 806.524C1491.92 807.17 1491.75 807.875 1491.72 808.594C1491.7 809.313 1491.83 810.028 1492.1 810.693C1498.34 825.664 1515.5 865.277 1512.3 913.583C1510.31 871.281 1493.31 832.37 1487.39 820.284C1486.84 818.886 1485.76 817.758 1484.39 817.139C1483.02 816.52 1481.47 816.459 1480.06 816.97C1479.35 817.283 1478.72 817.744 1478.2 818.322C1477.69 818.9 1477.3 819.581 1477.08 820.319C1476.85 821.058 1476.78 821.837 1476.88 822.604C1476.97 823.372 1477.23 824.109 1477.64 824.768C1483.29 836.464 1497.13 869.721 1499.51 899.196C1498.69 896.818 1480.02 849.915 1467.58 824.651C1467.07 823.574 1466.19 822.716 1465.11 822.23C1464.02 821.743 1462.79 821.662 1461.65 821.999L1460.76 822.233C1460.03 822.422 1459.35 822.771 1458.78 823.254C1458.2 823.736 1457.74 824.341 1457.43 825.024C1457.11 825.707 1456.96 826.451 1456.96 827.202C1456.97 827.954 1457.15 828.693 1457.48 829.368ZM1527.97 919.86C1531.87 896.818 1537.84 858.025 1527.97 822.038C1542.32 865.861 1535.07 893.855 1527.97 919.86Z" fill="#4CA3FF"/>
<path d="M1497.09 988.363C1499.13 991.129 1501.93 993.23 1505.16 994.4C1508.38 995.57 1511.88 995.758 1515.22 994.939C1518.55 994.119 1521.56 992.33 1523.88 989.798C1526.2 987.265 1527.71 984.102 1528.23 980.71C1528.74 977.318 1528.24 973.848 1526.79 970.739C1525.34 967.631 1522.99 965.023 1520.06 963.247C1517.12 961.47 1513.72 960.604 1510.3 960.758C1506.87 960.912 1503.56 962.079 1500.8 964.112C1498.96 965.458 1497.4 967.155 1496.22 969.103C1495.04 971.052 1494.25 973.215 1493.91 975.468C1493.56 977.722 1493.67 980.021 1494.21 982.234C1494.76 984.446 1495.74 986.529 1497.09 988.363Z" fill="#4CA3FF"/>
<path opacity="0.2" d="M1497.09 988.363C1499.13 991.129 1501.93 993.23 1505.16 994.4C1508.38 995.57 1511.88 995.758 1515.22 994.939C1518.55 994.119 1521.56 992.33 1523.88 989.798C1526.2 987.265 1527.71 984.102 1528.23 980.71C1528.74 977.318 1528.24 973.848 1526.79 970.739C1525.34 967.631 1522.99 965.023 1520.06 963.247C1517.12 961.47 1513.72 960.604 1510.3 960.758C1506.87 960.912 1503.56 962.079 1500.8 964.112C1498.96 965.458 1497.4 967.155 1496.22 969.103C1495.04 971.052 1494.25 973.215 1493.91 975.468C1493.56 977.722 1493.67 980.021 1494.21 982.234C1494.76 984.446 1495.74 986.529 1497.09 988.363Z" fill="black"/>
<path d="M1392.92 1272.2C1394 1270.61 1395.48 1269.35 1397.21 1268.53C1398.95 1267.72 1400.87 1267.38 1402.78 1267.56C1408.12 1267.77 1413.34 1269.24 1418.01 1271.85C1422.68 1274.46 1426.66 1278.13 1429.64 1282.57C1430.79 1284.11 1431.5 1285.92 1431.72 1287.83C1431.93 1289.73 1431.63 1291.66 1430.85 1293.41L1427.34 1299.8C1426.25 1301.38 1424.76 1302.65 1423.02 1303.46C1421.28 1304.28 1419.35 1304.62 1417.44 1304.44C1412.11 1304.22 1406.9 1302.75 1402.24 1300.14C1397.58 1297.53 1393.6 1293.86 1390.62 1289.43C1389.46 1287.89 1388.74 1286.07 1388.53 1284.16C1388.32 1282.25 1388.62 1280.31 1389.41 1278.55L1392.92 1272.2Z" fill="#263238"/>
<path d="M1420.95 1298.05C1430.77 1298.05 1434.63 1290.99 1429.64 1282.45C1426.66 1278.01 1422.68 1274.34 1418.01 1271.73C1413.34 1269.12 1408.12 1267.65 1402.78 1267.44C1392.99 1267.44 1389.1 1274.5 1394.13 1283.04C1397.1 1287.47 1401.08 1291.14 1405.74 1293.75C1410.4 1296.36 1415.61 1297.83 1420.95 1298.05Z" fill="#37474F"/>
<path d="M293.832 1572.72C301.239 1596.86 324.399 1616.27 361.788 1625.36C437.27 1643.68 541.876 1612.96 595.485 1556.78C621.803 1529.21 630.887 1500.59 624.415 1476.46C624.415 1476.07 624.415 1475.64 624.142 1475.29L582.853 1334.89C590.027 1359.3 581.021 1388.42 554.236 1416.53C500.626 1472.72 396.02 1503.4 320.578 1485.08C282.837 1475.91 259.522 1456.22 252.387 1431.82L293.598 1572.41C293.681 1572.51 293.759 1572.61 293.832 1572.72Z" fill="#37474F"/>
<path d="M278.782 1521.45C286.151 1545.55 309.31 1564.96 346.7 1574.05C422.182 1592.37 526.788 1561.69 580.397 1505.51C606.714 1477.9 615.798 1449.28 609.326 1425.15C609.326 1424.76 609.326 1424.37 609.053 1423.98L604.687 1408.97C611.86 1433.38 602.893 1462.5 576.069 1490.61C522.499 1546.83 417.854 1577.52 342.411 1559.19C304.67 1549.99 281.394 1530.34 274.22 1505.93L278.548 1520.63C278.6 1520.91 278.678 1521.19 278.782 1521.45Z" fill="#4CA3FF"/>
<path opacity="0.2" d="M542.734 1498.29C577.005 1490.5 593.731 1529.02 568.505 1580.17C578.208 1573.23 587.241 1565.4 595.485 1556.78C621.803 1529.21 630.887 1500.59 624.415 1476.46C624.415 1476.07 624.415 1475.64 624.142 1475.29L582.853 1334.89C590.027 1359.3 581.021 1388.42 554.236 1416.53C500.626 1472.72 396.02 1503.4 320.578 1485.08C410.173 1513.62 497.039 1508.43 542.734 1498.29Z" fill="black"/>
<path d="M445.59 1478.57C536.853 1451.8 598.307 1387.38 582.85 1334.69C567.393 1282.01 480.879 1261 389.615 1287.77C298.351 1314.55 236.897 1378.96 252.354 1431.65C267.811 1484.34 354.326 1505.35 445.59 1478.57Z" fill="#263238"/>
<path d="M141.543 1465.7L371.224 1225.06L694.516 1303.47L700.91 1325.22L471.268 1565.98L147.937 1487.45L141.543 1465.7Z" fill="#37474F"/>
<path opacity="0.2" d="M471.268 1565.98L464.874 1544.22L141.543 1465.7L147.937 1487.45L471.268 1565.98Z" fill="white"/>
<path opacity="0.2" d="M464.874 1544.22L147.391 1471L147.937 1487.45L141.543 1465.7L464.874 1544.22Z" fill="white"/>
<path d="M371.224 1225.06L694.516 1303.47L464.874 1544.22L141.543 1465.7L371.224 1225.06Z" fill="#455A64"/>
<path d="M217.921 1591.48C219.554 1585.63 221.559 1579.9 223.925 1574.32C226.065 1568.15 227.759 1561.83 228.994 1555.41C230.95 1542.35 231.876 1529.16 231.762 1515.95C232.572 1493.26 238.193 1471 248.254 1450.65C257.698 1431.53 271.218 1414.71 287.863 1401.38C304.508 1388.05 323.873 1378.53 344.595 1373.49C356.664 1370.68 369.054 1369.48 381.439 1369.94C387.344 1370.1 393.225 1370.76 399.022 1371.89C405.066 1373.1 412.24 1374.11 417.269 1377.97C420.076 1380.12 417.581 1386.12 414.306 1386.16C408.634 1385.83 402.985 1385.17 397.385 1384.21C392.005 1383.63 386.624 1383.28 381.205 1383.2C371.089 1383.11 360.994 1384.15 351.106 1386.28C331.541 1390.28 313.247 1398.99 297.808 1411.66C282.852 1424.33 270.673 1439.96 262.032 1457.56C253.391 1475.15 248.475 1494.34 247.591 1513.93C246.227 1541.22 245.213 1572.41 225.641 1593.5C223.418 1596.12 216.751 1596.74 217.921 1591.48Z" fill="#4CA3FF"/>
<path d="M97.8365 1698.58L98.4213 1699.24C99.2261 1700.12 100.317 1700.69 101.501 1700.85C102.685 1701.01 103.887 1700.74 104.893 1700.1C128.598 1685.01 169.185 1654.91 171.174 1653.31C153.629 1677.17 124.349 1698.38 113.432 1705.28C112.765 1705.64 112.18 1706.13 111.713 1706.73C111.247 1707.32 110.91 1708.01 110.723 1708.74C110.536 1709.48 110.503 1710.24 110.627 1710.99C110.751 1711.73 111.029 1712.45 111.443 1713.08C112.374 1714.2 113.696 1714.93 115.143 1715.12C116.59 1715.31 118.054 1714.94 119.241 1714.09C130.626 1706.92 165.481 1682.67 189.42 1647.81C166.924 1690.7 131.445 1715.38 118.305 1724.85C117.726 1725.28 117.242 1725.82 116.888 1726.45C116.534 1727.07 116.316 1727.76 116.25 1728.48C116.183 1729.19 116.27 1729.91 116.503 1730.59C116.737 1731.27 117.112 1731.9 117.604 1732.42C118.435 1733.31 119.558 1733.87 120.768 1734C121.977 1734.12 123.193 1733.81 124.193 1733.12C137.605 1723.8 164 1703.92 182.169 1676.7C172.382 1701.7 148.677 1725.87 138.501 1735.5C138.011 1735.95 137.621 1736.51 137.353 1737.12C137.086 1737.73 136.948 1738.4 136.948 1739.07C136.948 1739.74 137.086 1740.4 137.353 1741.01C137.621 1741.63 138.011 1742.18 138.501 1742.63C141.738 1745.44 144.155 1743.57 147.625 1741.07C147.065 1741.88 146.802 1742.85 146.88 1743.82C146.958 1744.8 147.373 1745.71 148.054 1746.42C148.897 1747.3 150.033 1747.85 151.251 1747.97C152.469 1748.08 153.688 1747.75 154.682 1747.04C175.901 1731.18 192.75 1710.2 203.651 1686.06C224.744 1640.56 232.971 1595.45 221.469 1589.68C208.837 1583.4 204.041 1607.54 164 1642.39C143.556 1660.21 121.761 1676.41 98.8112 1690.86C98.1809 1691.25 97.6462 1691.78 97.2459 1692.41C96.8456 1693.04 96.5896 1693.75 96.4963 1694.49C96.4031 1695.22 96.4749 1695.97 96.7067 1696.68C96.9385 1697.39 97.3243 1698.04 97.8365 1698.58ZM154.955 1733.98C182.247 1708.56 197.569 1672.38 206.341 1650.74C198.739 1676.59 190.278 1704.23 154.955 1733.98Z" fill="#4CA3FF"/>
<path d="M215.933 1576.19C219.112 1574.9 222.602 1574.59 225.962 1575.28C229.322 1575.97 232.401 1577.65 234.809 1580.09C237.217 1582.53 238.847 1585.64 239.493 1589.01C240.138 1592.38 239.77 1595.86 238.435 1599.02C237.1 1602.18 234.858 1604.88 231.992 1606.76C229.127 1608.65 225.766 1609.64 222.336 1609.62C218.905 1609.6 215.558 1608.56 212.718 1606.63C209.878 1604.71 207.673 1601.98 206.38 1598.81C205.516 1596.69 205.078 1594.43 205.091 1592.15C205.104 1589.87 205.567 1587.61 206.455 1585.51C207.343 1583.41 208.637 1581.51 210.264 1579.91C211.89 1578.31 213.817 1577.04 215.933 1576.19Z" fill="#4CA3FF"/>
<path opacity="0.2" d="M215.933 1576.19C219.112 1574.9 222.602 1574.59 225.962 1575.28C229.322 1575.97 232.401 1577.65 234.809 1580.09C237.217 1582.53 238.847 1585.64 239.493 1589.01C240.138 1592.38 239.77 1595.86 238.435 1599.02C237.1 1602.18 234.858 1604.88 231.992 1606.76C229.127 1608.65 225.766 1609.64 222.336 1609.62C218.905 1609.6 215.558 1608.56 212.718 1606.63C209.878 1604.71 207.673 1601.98 206.38 1598.81C205.516 1596.69 205.078 1594.43 205.091 1592.15C205.104 1589.87 205.567 1587.61 206.455 1585.51C207.343 1583.41 208.637 1581.51 210.264 1579.91C211.89 1578.31 213.817 1577.04 215.933 1576.19Z" fill="black"/>
<path d="M438.362 1376.65C437.657 1374.86 436.486 1373.29 434.971 1372.1C433.456 1370.92 431.652 1370.16 429.745 1369.9C424.492 1368.93 419.083 1369.21 413.956 1370.71C408.829 1372.22 404.128 1374.9 400.231 1378.56C398.768 1379.81 397.664 1381.42 397.033 1383.24C396.403 1385.05 396.268 1387.01 396.644 1388.89C396.956 1390.02 398.282 1394.54 398.633 1395.68C399.345 1397.46 400.517 1399.03 402.031 1400.21C403.545 1401.4 405.345 1402.16 407.249 1402.42C412.503 1403.39 417.911 1403.12 423.038 1401.61C428.165 1400.11 432.867 1397.42 436.763 1393.77C438.217 1392.51 439.314 1390.89 439.944 1389.08C440.574 1387.27 440.714 1385.32 440.35 1383.43C440.038 1382.3 438.713 1377.78 438.362 1376.65Z" fill="#263238"/>
<path d="M405.222 1395.6C395.708 1393.3 393.525 1385.66 400.231 1378.56C404.128 1374.9 408.829 1372.22 413.956 1370.71C419.083 1369.21 424.492 1368.93 429.745 1369.9C439.259 1372.2 441.442 1379.85 434.736 1386.94C430.843 1390.6 426.141 1393.29 421.013 1394.8C415.886 1396.3 410.475 1396.58 405.222 1395.6Z" fill="#37474F"/>
<path d="M161.466 288.364H160.101C158.313 288.564 156.65 289.376 155.392 290.662C154.134 291.948 153.36 293.63 153.2 295.421C149.925 337.88 149.301 414.531 149.652 418.352C136.669 375.465 137.566 320.608 139.086 301.386C139.275 300.236 139.217 299.058 138.916 297.932C138.615 296.805 138.078 295.756 137.341 294.852C136.604 293.949 135.683 293.213 134.639 292.693C133.596 292.172 132.454 291.88 131.289 291.834C129.02 291.915 126.869 292.868 125.286 294.495C123.702 296.122 122.808 298.297 122.789 300.568C121.152 320.881 118.89 385.251 139.593 445.956C108.13 379.675 110.352 314.214 110.781 289.651C110.785 288.569 110.563 287.498 110.131 286.505C109.698 285.513 109.064 284.622 108.268 283.889C107.472 283.155 106.532 282.596 105.508 282.245C104.484 281.895 103.399 281.761 102.32 281.853H102.125C100.295 282.072 98.6017 282.933 97.3455 284.282C96.0894 285.631 95.3517 287.381 95.2634 289.222C94.3666 313.941 94.4836 364.08 110.859 410.866C89.4151 376.283 81.6564 325.52 79.2391 304.389C79.1434 303.4 78.8489 302.441 78.3733 301.57C77.8977 300.698 77.2508 299.931 76.4715 299.316C75.6922 298.701 74.7966 298.249 73.8384 297.988C72.8802 297.728 71.8792 297.664 70.8956 297.8C64.5404 299.203 64.6184 303.804 64.4625 310.237C63.9887 308.84 63.0468 307.651 61.7962 306.869C60.5457 306.087 59.0634 305.762 57.6005 305.948C55.8143 306.237 54.184 307.137 52.989 308.496C51.794 309.855 51.1087 311.587 51.0504 313.395C50.9723 353.552 61.0872 393.073 80.4477 428.255C116.434 495.198 163.688 546.234 181.155 537.423C200.259 527.793 175.346 500.033 169.458 419.755C166.44 378.762 166.609 337.597 169.965 296.63C170.038 295.505 169.865 294.379 169.461 293.327C169.056 292.276 168.428 291.324 167.62 290.539C166.812 289.753 165.844 289.152 164.781 288.777C163.719 288.401 162.588 288.261 161.466 288.364ZM66.6458 325.481C72.6111 381.781 102.632 433.206 120.879 463.501C96.3161 430.789 70.5447 395.271 66.6458 325.481Z" fill="#4CA3FF"/>
<path d="M841.074 669.671C826.047 644.781 807.192 622.413 785.203 603.391C765.56 585.74 744.009 570.335 720.95 557.463C675.277 531.857 623.83 518.317 571.468 518.123C545.155 518.139 518.992 522.081 493.842 529.82C470.342 537.739 447.693 547.992 426.236 560.426C406.43 571.343 386.858 582.844 366.233 592.162C360.892 594.619 358.825 595.476 354.108 597.27C348.532 599.414 342.918 601.169 337.226 602.923C327.579 605.799 317.639 607.577 307.595 608.226C284.641 609.577 261.796 604.154 241.899 592.63C230.639 586.306 220.324 578.431 211.254 569.237C206.259 564.424 201.669 559.208 197.53 553.642C195.971 551.419 194.411 549.197 192.734 547.053C191.259 545.116 189.558 543.362 187.666 541.828C184.546 539.623 182.167 536.523 180.843 532.939C178.621 528.806 171.213 529.04 172.421 534.693C173.63 540.347 172.85 546.39 174.449 551.887C175.765 555.759 177.532 559.462 179.712 562.921C182.876 568.64 186.405 574.149 190.278 579.413C198.131 589.548 207.463 598.446 217.96 605.808C236.27 619.063 257.535 627.654 279.913 630.839C327.206 637.194 370.951 618.09 411.577 595.944C431.578 585.067 451.267 573.604 471.853 563.779C493.833 553.222 517.305 546.108 541.447 542.686C592.866 536.086 645.103 544.197 692.099 566.079C717.893 577.852 742.208 592.627 764.539 610.097C789.921 629.942 812.768 652.984 835.615 675.598C839.709 679.575 843.257 673.375 841.074 669.671Z" fill="#4CA3FF"/>
<path d="M202.482 542.92C201.167 547.954 198.39 552.485 194.502 555.942C190.613 559.398 185.788 561.624 180.634 562.339C175.481 563.054 170.231 562.225 165.549 559.958C160.866 557.691 156.961 554.086 154.326 549.6C151.691 545.114 150.445 539.948 150.745 534.754C151.045 529.56 152.877 524.572 156.011 520.419C159.145 516.266 163.44 513.135 168.352 511.422C173.265 509.709 178.575 509.49 183.611 510.794C186.962 511.661 190.108 513.18 192.871 515.265C195.633 517.349 197.957 519.959 199.71 522.943C201.463 525.927 202.61 529.227 203.086 532.655C203.561 536.083 203.356 539.571 202.482 542.92Z" fill="#4CA3FF"/>
<path opacity="0.2" d="M202.482 542.92C201.167 547.954 198.39 552.485 194.502 555.942C190.613 559.398 185.788 561.624 180.634 562.339C175.481 563.054 170.231 562.225 165.549 559.958C160.866 557.691 156.961 554.086 154.326 549.6C151.691 545.114 150.445 539.948 150.745 534.754C151.045 529.56 152.877 524.572 156.011 520.419C159.145 516.266 163.44 513.135 168.352 511.422C173.265 509.709 178.575 509.49 183.611 510.794C186.962 511.661 190.108 513.18 192.871 515.265C195.633 517.349 197.957 519.959 199.71 522.943C201.463 525.927 202.61 529.227 203.086 532.655C203.561 536.083 203.356 539.571 202.482 542.92Z" fill="black"/>
<path d="M1227.33 530.054L856.279 900.717L349.663 764.959L340.423 730.416L711.476 359.596L1218.09 495.51L1227.33 530.054Z" fill="#37474F"/>
<path opacity="0.2" d="M711.476 359.596L720.716 394.14L1227.33 530.054L1218.09 495.51L711.476 359.596Z" fill="white"/>
<path opacity="0.2" d="M720.716 394.14L1218.29 521.515L1218.09 495.51L1227.33 530.054L720.716 394.14Z" fill="white"/>
<path d="M856.279 900.717L349.702 764.959L720.716 394.14L1227.33 530.054L856.279 900.717Z" fill="#455A64"/>
<path d="M1056.41 598.634C1045.69 560.348 1009.89 528.884 951.138 513.172C832.886 481.435 666.834 525.882 580.241 612.436C537.704 654.934 522.343 699.654 531.622 737.979C531.622 738.564 531.856 739.227 532.012 739.812L581.995 926.566C571.624 887.851 586.869 842.273 630.185 798.957C716.778 712.403 882.791 667.995 1001.04 699.732C1060.19 715.6 1096.14 747.492 1106.51 786.208L1056.95 599.687L1056.41 598.634Z" fill="#37474F"/>
<path d="M1078.24 680.237C1067.52 641.951 1031.73 610.487 972.972 594.775C854.72 563.038 688.668 607.485 602.074 694.039C559.577 736.537 544.177 781.256 553.495 819.543C553.495 820.167 553.69 820.791 553.846 821.415L560.162 844.808C549.791 806.092 565.035 760.515 608.313 717.237C694.906 630.683 860.958 586.236 979.21 617.973C1038.36 633.841 1074.3 665.734 1084.48 704.449L1078.24 681.056V680.237Z" fill="#4CA3FF"/>
<path opacity="0.2" d="M661.337 706.788C607.026 717.51 582.112 656.454 623.791 576.84C608.258 587.34 593.731 599.256 580.397 612.436C537.861 654.934 522.499 699.653 531.778 737.979C531.778 738.564 532.012 739.227 532.168 739.812L582.151 926.566C571.78 887.851 587.025 842.273 630.341 798.957C716.935 712.403 882.947 667.995 1001.2 699.731C861.036 651.074 733.739 692.519 661.337 706.788Z" fill="black"/>
<path d="M884.892 1007.87C1029.73 969.117 1129 869.912 1106.63 786.292C1084.26 702.673 948.704 666.302 803.866 705.057C659.029 743.812 559.754 843.016 582.128 926.636C604.503 1010.26 740.055 1046.63 884.892 1007.87Z" fill="#263238"/>
<path d="M882.131 997.552C1021.41 960.283 1117.42 866.904 1096.57 788.983C1075.72 711.063 945.911 678.108 806.628 715.377C667.344 752.646 571.335 846.025 592.184 923.945C613.034 1001.87 742.847 1034.82 882.131 997.552Z" fill="#37474F"/>
<path opacity="0.2" d="M826.921 958.927C741.146 929.764 729.45 803.714 800.253 739.032L680.909 771.003C666.036 780.844 652.086 792.015 639.23 804.377C555.483 885.824 579.383 975.146 692.644 1003.88C801.578 1031.52 953.477 993.003 1039.41 917.521C974.609 951.519 885.403 978.733 826.921 958.927Z" fill="black"/>
<path d="M639.386 804.377C635.176 808.275 631.316 812.603 627.69 816.736C632.914 818.451 638.334 820.089 644.026 821.532C757.093 850.266 916.945 807.535 1000.69 726.088C1004.9 722.189 1008.76 717.861 1012.39 713.767C1007.13 712.013 1001.75 710.375 996.014 708.933C882.83 680.198 723.134 722.774 639.386 804.377Z" fill="black"/>
</svg>
