<svg width="1988" height="1770" viewBox="0 0 1988 1770" fill="none" xmlns="http://www.w3.org/2000/svg">
<path d="M128.287 1489.37H85.8258" stroke="#263238" stroke-width="1.1133" stroke-miterlimit="10"/>
<path d="M1848.18 1489.37H195.447" stroke="#263238" stroke-width="1.1133" stroke-miterlimit="10"/>
<path d="M1226.35 1666.89C1303.98 1666.89 1366.92 1649.58 1366.92 1628.23C1366.92 1606.87 1303.98 1589.56 1226.35 1589.56C1148.72 1589.56 1085.78 1606.87 1085.78 1628.23C1085.78 1649.58 1148.72 1666.89 1226.35 1666.89Z" fill="#263238"/>
<path d="M499.843 1716.06C353.542 1716.06 331.942 1694.92 329.814 1677.86C329.331 1674.3 329.681 1670.68 330.837 1667.29C331.993 1663.89 333.923 1660.81 336.475 1658.29C375.883 1616.94 602.989 1634.42 917.236 1658.61C961.085 1661.99 1006.41 1665.46 1052.9 1668.93C1370.43 1692.52 1498.28 1689.47 1524.69 1657.55C1530.05 1651.03 1531.16 1642.89 1528.2 1631.88C1515.62 1585.86 1347.44 1585.63 1283.75 1589.23C1282.29 1589.31 1280.86 1588.81 1279.77 1587.84C1278.68 1586.87 1278.02 1585.51 1277.92 1584.05C1277.88 1583.33 1277.98 1582.61 1278.22 1581.93C1278.45 1581.25 1278.82 1580.62 1279.31 1580.08C1279.79 1579.54 1280.37 1579.11 1281.02 1578.8C1281.68 1578.49 1282.38 1578.31 1283.1 1578.27C1307.48 1576.84 1521.63 1566.06 1538.79 1629.15C1542.73 1643.67 1540.92 1655.28 1533.15 1664.72C1503.5 1700.71 1382.13 1704.54 1052.11 1680.03C1005.58 1676.56 960.252 1673.09 916.404 1669.72C616.865 1646.59 380.231 1628.41 344.43 1666.02C343.015 1667.36 341.941 1669.02 341.297 1670.86C340.653 1672.71 340.459 1674.67 340.73 1676.61C342.071 1687.52 368.482 1711.94 581.249 1703.43C700.26 1698.81 819.826 1685.72 821.029 1685.58C822.421 1685.52 823.783 1686 824.84 1686.91C825.897 1687.82 826.569 1689.09 826.722 1690.48C826.874 1691.86 826.496 1693.25 825.662 1694.37C824.829 1695.49 823.603 1696.25 822.231 1696.5C821.029 1696.5 701.093 1709.63 581.712 1714.4C550.999 1715.51 523.802 1716.06 499.843 1716.06Z" fill="white" stroke="#263238" stroke-width="1.1133" stroke-miterlimit="10"/>
<path d="M1174.08 1662.18C1265.56 1662.18 1339.72 1588.02 1339.72 1496.54C1339.72 1405.06 1265.56 1330.91 1174.08 1330.91C1082.61 1330.91 1008.45 1405.06 1008.45 1496.54C1008.45 1588.02 1082.61 1662.18 1174.08 1662.18Z" fill="white"/>
<mask id="mask0_11_884" style="mask-type:luminance" maskUnits="userSpaceOnUse" x="1008" y="1330" width="332" height="333">
<path d="M1174.08 1662.18C1265.56 1662.18 1339.72 1588.02 1339.72 1496.54C1339.72 1405.06 1265.56 1330.91 1174.08 1330.91C1082.61 1330.91 1008.45 1405.06 1008.45 1496.54C1008.45 1588.02 1082.61 1662.18 1174.08 1662.18Z" fill="white"/>
</mask>
<g mask="url(#mask0_11_884)">
<path d="M1174.08 1662.18C1204.23 1662.2 1233.8 1653.99 1259.62 1638.44C1285.44 1622.88 1306.53 1600.58 1320.61 1573.93C1334.69 1547.27 1341.22 1517.28 1339.51 1487.19C1337.8 1457.1 1327.91 1428.04 1310.9 1403.16C1309.1 1475.31 1269.27 1581.83 1062.15 1618.47C1092.64 1646.59 1132.6 1662.19 1174.08 1662.18Z" fill="#4CA3FF"/>
<path opacity="0.3" d="M1174.08 1662.18C1204.23 1662.2 1233.8 1653.99 1259.62 1638.44C1285.44 1622.88 1306.53 1600.58 1320.61 1573.93C1334.69 1547.27 1341.22 1517.28 1339.51 1487.19C1337.8 1457.1 1327.91 1428.04 1310.9 1403.16C1309.1 1475.31 1269.27 1581.83 1062.15 1618.47C1092.64 1646.59 1132.6 1662.19 1174.08 1662.18Z" fill="white"/>
<path d="M1255.58 1561.48C1226.05 1532.75 1190.18 1511.34 1150.86 1498.99M1255.58 1561.48H1264.37C1283.86 1542.15 1300.65 1520.28 1314.28 1496.45C1236.71 1414.49 1161.27 1422.86 1161.27 1422.86C1161.27 1422.86 1236.94 1414.49 1314.51 1496.54C1318.76 1488.91 1322.33 1481.74 1325.24 1475.13C1292.96 1429.89 1237.36 1399.04 1207.52 1394.41L1200.59 1392.75M1255.58 1561.48C1187.45 1560.51 1135.65 1549.96 1096.93 1535.86C1099.43 1431.23 1136.76 1361.53 1156.28 1332.02C1162.49 1331.3 1168.75 1330.92 1175.01 1330.91C1180.7 1330.91 1186.25 1331.23 1191.8 1331.74M1200.59 1392.75C1189.89 1390.8 1178.95 1390.65 1168.21 1392.29M1200.59 1392.75L1220.34 1337.24C1211 1334.58 1201.45 1332.73 1191.8 1331.74M1191.8 1331.74C1178.99 1352.41 1146.01 1418.46 1146.01 1549.5M1293 1527.76C1227.04 1463.47 1154.24 1460.09 1154.24 1460.09" stroke="#263238" stroke-width="1.1133" stroke-linecap="round" stroke-linejoin="round"/>
<path d="M1096.75 1536.13C1099.24 1431.51 1136.57 1361.8 1156.09 1332.29C1140.82 1334.01 1125.86 1337.84 1111.64 1343.67C1076.59 1395.1 1056.78 1455.39 1054.52 1517.59C1068.1 1524.84 1082.22 1531.04 1096.75 1536.13Z" stroke="#263238" stroke-width="1.1133" stroke-linecap="round" stroke-linejoin="round"/>
<path d="M1111.64 1343.53C1083.04 1355.33 1058.3 1374.88 1040.22 1399.99C1022.14 1425.1 1011.44 1454.76 1009.33 1485.62C1022.95 1498.15 1038.14 1508.84 1054.52 1517.45C1056.78 1455.25 1076.59 1394.96 1111.64 1343.53Z" stroke="#263238" stroke-width="1.1133" stroke-linecap="round" stroke-linejoin="round"/>
<path d="M1325.01 1475.13C1328.61 1467.16 1331.7 1458.97 1334.26 1450.61C1327.35 1427.02 1315.29 1405.25 1298.97 1386.87L1286.16 1429.61L1298.74 1386.87C1288.52 1375.41 1276.77 1365.42 1263.82 1357.18L1249.71 1409.95L1263.91 1357.41C1250.37 1348.75 1235.62 1342.12 1220.15 1337.75L1200.4 1393.26C1230.65 1397.6 1277.41 1415.41 1325.01 1475.13Z" stroke="#263238" stroke-width="1.1133" stroke-linecap="round" stroke-linejoin="round"/>
<path d="M1183.24 1624.43C1202.51 1612.78 1220.89 1599.71 1238.24 1585.35C1247.72 1577.39 1265.11 1561.62 1265.67 1561.62C1265.11 1561.62 1298.32 1524.15 1309.33 1504.59C1309.33 1504.87 1314.23 1496.82 1313.95 1496.54C1313.68 1496.26 1317.93 1489.56 1317.65 1489.28C1320.35 1484.74 1322.7 1480.01 1324.69 1475.12C1328.29 1467.16 1331.38 1458.97 1333.94 1450.61C1338.35 1465.73 1340.6 1481.39 1340.6 1497.14C1340.6 1499.73 1340.6 1501.95 1340.6 1504.36C1270.66 1602.55 1216.78 1644.64 1182.87 1663.1C1180.14 1663.1 1177.37 1663.1 1174.55 1663.1C1157.59 1663.1 1140.72 1660.51 1124.55 1655.42C1144.69 1646.23 1164.29 1635.89 1183.24 1624.43ZM1183.24 1624.43H1184.44" stroke="#263238" stroke-width="1.1133" stroke-linecap="round" stroke-linejoin="round"/>
<path d="M1340.6 1504.36C1270.66 1602.55 1216.78 1644.64 1183.15 1662.68C1224.39 1660.61 1263.37 1643.24 1292.48 1613.96C1321.59 1584.68 1338.75 1545.6 1340.6 1504.36Z" stroke="#263238" stroke-width="1.1133" stroke-linecap="round" stroke-linejoin="round"/>
<path d="M1045.13 1600.57C1065.65 1626.36 1093.4 1645.46 1124.82 1655.42C1144.97 1646.23 1164.57 1635.89 1183.52 1624.43C1144.02 1631.74 1082.22 1613.61 1045.13 1600.57Z" stroke="#263238" stroke-width="1.1133" stroke-linecap="round" stroke-linejoin="round"/>
<path d="M1183.52 1624.43C1202.79 1612.78 1221.17 1599.71 1238.51 1585.35C1119.23 1597.56 1045.64 1560.6 1014.37 1539.6C1020.27 1561.84 1030.75 1582.61 1045.13 1600.57C1082.22 1613.61 1144.02 1631.74 1183.52 1624.43Z" stroke="#263238" stroke-width="1.1133" stroke-linecap="round" stroke-linejoin="round"/>
<path d="M1255.58 1561.57H1264.37C1256.55 1569.44 1248 1577.39 1238.51 1585.35C1119.23 1597.56 1045.64 1560.6 1014.37 1539.7C1010.72 1525.84 1008.87 1511.57 1008.86 1497.23C1008.86 1493.4 1009.05 1489.65 1009.33 1485.86C1019.41 1495.34 1039.9 1516.52 1096.75 1536.23C1135.65 1550.06 1187.45 1560.6 1255.58 1561.57ZM1255.58 1561.57C1256.23 1562.18 1256.88 1562.78 1257.48 1563.42" stroke="#263238" stroke-width="1.1133" stroke-linecap="round" stroke-linejoin="round"/>
</g>
<path d="M1174.08 1662.18C1265.56 1662.18 1339.72 1588.02 1339.72 1496.54C1339.72 1405.06 1265.56 1330.91 1174.08 1330.91C1082.61 1330.91 1008.45 1405.06 1008.45 1496.54C1008.45 1588.02 1082.61 1662.18 1174.08 1662.18Z" stroke="#263238" stroke-width="1.1133" stroke-linecap="round" stroke-linejoin="round"/>
<path d="M1479.17 1213.47C1479.17 1213.47 1467.84 1176.7 1434.82 1163.47C1411.69 1154.22 1385.46 1156.72 1361.64 1160.83C1317.33 1168.56 1278.66 1186.18 1236.76 1201.21C1236.76 1201.21 1254.7 1194.6 1328.29 1230.49C1355.4 1243.67 1386.39 1253.94 1417.38 1253.25C1442.22 1252.69 1480.42 1245.57 1479.17 1213.47Z" fill="#4CA3FF"/>
<path d="M1483.15 1105.38C1483.15 1105.38 1483.15 1066.85 1455.4 1044.69C1436.06 1029.24 1410.07 1023.92 1386.02 1021.01C1341.34 1015.6 1299.25 1021.29 1254.66 1023.55C1254.66 1023.55 1273.76 1022.44 1333.84 1078.04C1356 1098.48 1382.73 1117.26 1412.47 1125.54C1436.43 1132.2 1475.01 1136.46 1483.15 1105.38Z" fill="#4CA3FF"/>
<path d="M1559.05 1248.35C1559.05 1248.35 1529.03 1224.25 1528.94 1188.68C1528.94 1163.93 1540.83 1140.3 1553.46 1119.71C1576.95 1081.32 1607.57 1051.91 1637.08 1018.37C1637.08 1018.37 1624.32 1032.62 1630.52 1114.26C1632.83 1144.32 1630.89 1176.93 1618.81 1205.47C1609.33 1228.41 1588.66 1261.3 1559.05 1248.35Z" fill="#4CA3FF"/>
<path d="M1665.44 1307.46C1665.44 1307.46 1661.18 1269.21 1686.25 1243.95C1703.64 1226.42 1728.85 1218.1 1752.3 1212.45C1796.06 1201.91 1838.52 1202.69 1883.06 1199.78C1883.06 1199.78 1864 1200.84 1810.72 1263.01C1791.11 1286.13 1766.73 1307.64 1738.01 1319.35C1715.11 1328.73 1677.28 1337.38 1665.44 1307.46Z" fill="#4CA3FF"/>
<path d="M1658.64 1171.06C1658.64 1171.06 1620.48 1165.83 1602.16 1135.35C1589.4 1114.16 1587.5 1087.71 1587.73 1063.56C1588.19 1018.6 1599.39 977.576 1607.48 933.682C1607.48 933.682 1603.83 952.461 1651.1 1019.3C1668.49 1043.95 1683.48 1072.91 1688.1 1103.62C1691.38 1128.27 1690.51 1167.08 1658.64 1171.06Z" fill="#4CA3FF"/>
<path d="M1768.44 1102.55C1768.44 1102.55 1795.87 1129.57 1831.21 1125.68C1855.77 1122.86 1877.88 1108.2 1896.84 1093.3C1932.18 1065.55 1957.85 1031.6 1987.69 998.438C1987.69 998.438 1975.06 1012.73 1893.24 1016.11C1863.12 1017.36 1830.98 1023.04 1804.01 1038.4C1782.37 1050.52 1752.16 1074.89 1768.44 1102.55Z" fill="#4CA3FF"/>
<path d="M1736.67 1075.87C1736.67 1075.87 1774.97 1079.7 1799.94 1054.4C1817.33 1036.78 1825.38 1011.53 1830.79 987.984C1840.88 944.181 1839.67 901.674 1842.08 857.132C1842.08 857.132 1841.25 876.188 1779.59 930.12C1756.93 949.963 1735.42 974.57 1724.09 1003.39C1714.88 1026.56 1706.6 1064.49 1736.67 1075.87Z" fill="#4CA3FF"/>
<path d="M1599.89 1448.72L1533.75 1285.95L1457.48 1097.74" stroke="#263238" stroke-width="1.1133" stroke-linecap="round" stroke-linejoin="round"/>
<path d="M1615.16 1420.73L1681.26 1194.41L1752.49 1054.54" stroke="#263238" stroke-width="1.1133" stroke-linecap="round" stroke-linejoin="round"/>
<path d="M1640.55 1331.74L1706.69 1293.58" stroke="#263238" stroke-width="1.1133" stroke-linecap="round" stroke-linejoin="round"/>
<path d="M1681.26 1194.41L1648.18 1120.64" stroke="#263238" stroke-width="1.1133" stroke-linecap="round" stroke-linejoin="round"/>
<path d="M1722.65 1121.01L1803.32 1085.02" stroke="#263238" stroke-width="1.1133" stroke-linecap="round" stroke-linejoin="round"/>
<path d="M1546.47 1316.48L1574.46 1204.59" stroke="#263238" stroke-width="1.1133" stroke-linecap="round" stroke-linejoin="round"/>
<path d="M1509.38 1231.42L1444.76 1196.96" stroke="#263238" stroke-width="1.1133" stroke-linecap="round" stroke-linejoin="round"/>
<path d="M1633.8 1530.08H1578.66C1569.65 1530.07 1560.92 1526.93 1553.98 1521.18C1547.04 1515.43 1542.32 1507.43 1540.64 1498.58L1521.03 1395.29H1691.43L1671.87 1498.58C1670.18 1507.44 1665.45 1515.43 1658.5 1521.18C1651.55 1526.93 1642.82 1530.08 1633.8 1530.08Z" fill="#263238" stroke="#263238" stroke-width="1.1133" stroke-linecap="round" stroke-linejoin="round"/>
<path d="M81.9867 900.425C81.9867 887.613 87.9072 878.177 101.228 878.177C114.549 878.177 120.701 887.427 120.701 900.425V945.383C120.701 958.196 114.781 967.632 101.228 967.632C87.6759 967.632 81.9867 958.381 81.9867 945.383V900.425ZM87.7684 945.753C87.7684 955.328 91.5612 962.359 101.228 962.359C110.895 962.359 115.104 955.328 115.104 945.753V900.055C115.104 890.48 111.219 883.45 101.228 883.45C91.2375 883.45 87.7684 890.48 87.7684 900.055V945.753Z" fill="#263238"/>
<path d="M129.813 900.425C129.813 887.613 135.734 878.177 149.055 878.177C162.376 878.177 168.527 887.427 168.527 900.425V945.383C168.527 958.196 162.607 967.632 149.055 967.632C135.502 967.632 129.813 958.381 129.813 945.383V900.425ZM135.595 945.753C135.595 955.328 139.388 962.359 149.055 962.359C158.722 962.359 162.931 955.328 162.931 945.753V900.055C162.931 890.48 159.045 883.45 149.055 883.45C139.064 883.45 135.595 890.48 135.595 900.055V945.753Z" fill="#263238"/>
<path d="M196.326 878.916C209.924 878.916 215.197 887.473 215.197 900.285V909.86C215.197 923.736 208.768 930.674 194.846 930.674H183.884V966.891H178.102V879.009L196.326 878.916ZM194.846 925.401C205.022 925.401 209.416 920.776 209.416 910.23V899.915C209.416 890.387 206.132 884.189 196.326 884.189H183.884V925.401H194.846Z" fill="#263238"/>
<path d="M260.942 900.147V902.043H255.392V899.777C255.392 890.526 251.877 883.449 242.348 883.449C232.82 883.449 229.259 890.249 229.259 899.499C229.259 920.822 261.035 921.192 261.035 945.476C261.035 958.149 255.531 967.446 242.071 967.446C228.611 967.446 223.107 958.195 223.107 945.476V940.85H228.657V945.753C228.657 955.004 232.265 961.942 241.932 961.942C251.599 961.942 255.253 955.143 255.253 945.753C255.253 924.615 223.477 924.245 223.477 899.777C223.477 886.548 229.259 878.038 241.978 877.899C254.698 877.76 260.942 887.473 260.942 900.147Z" fill="#263238"/>
<path d="M275.373 955.837V966.892H269.731V955.837H275.373Z" fill="#263238"/>
<path d="M291.1 955.837V966.892H285.411V955.837H291.1Z" fill="#263238"/>
<path d="M306.78 955.837V966.892H300.952V955.837H306.78Z" fill="#263238"/>
<path d="M100.581 1006.9C114.179 1006.9 119.452 1015.41 119.452 1028.22V1037.8C119.452 1051.67 113.023 1058.66 99.1006 1058.66H88.1847V1094.83H82.3568V1006.95L100.581 1006.9ZM99.1006 1053.15C109.276 1053.15 113.671 1048.53 113.671 1037.94V1027.62C113.671 1018.09 110.386 1011.94 100.581 1011.94H88.1847V1053.15H99.1006Z" fill="#263238"/>
<path d="M134.901 1075.26L130.507 1094.74H125.188L144.383 1006.85H152.94L172.551 1094.74H166.816L162.191 1075.26H134.901ZM135.78 1070.22H161.404L148.315 1013.42L135.78 1070.22Z" fill="#263238"/>
<path d="M218.713 1028.36V1034.88H213.07V1027.99C213.07 1018.74 209.462 1011.39 199.749 1011.39C190.035 1011.39 186.474 1018.56 186.474 1027.99V1073.74C186.474 1082.99 190.082 1090.16 199.749 1090.16C209.416 1090.16 213.07 1083.13 213.07 1073.74V1054.73H201.506V1049.45H218.713V1073.32C218.713 1086.04 213.162 1095.57 199.749 1095.57C186.335 1095.57 180.785 1086.04 180.785 1073.32V1028.36C180.785 1015.69 186.289 1006.11 199.749 1006.11C213.209 1006.11 218.713 1015.69 218.713 1028.36Z" fill="#263238"/>
<path d="M258.167 1047.51V1052.78H234.161V1089.46H263.07V1094.74H228.38V1006.85H263.07V1012.13H234.161V1047.51H258.167Z" fill="#263238"/>
<path d="M297.251 1094.83H291.979V1006.95H299.518L325.883 1080.95V1006.95H331.155V1094.83H324.772L297.02 1016.2L297.251 1094.83Z" fill="#263238"/>
<path d="M340.73 1028.36C340.73 1015.55 346.604 1006.11 359.925 1006.11C373.246 1006.11 379.398 1015.36 379.398 1028.36V1073.32C379.398 1086.13 373.524 1095.57 359.925 1095.57C346.327 1095.57 340.73 1086.32 340.73 1073.32V1028.36ZM346.512 1073.74C346.512 1083.26 350.258 1090.3 359.925 1090.3C369.592 1090.3 373.801 1083.26 373.801 1073.74V1027.99C373.801 1018.42 369.916 1011.39 359.925 1011.39C349.934 1011.39 346.512 1018.42 346.512 1027.99V1073.74Z" fill="#263238"/>
<path d="M403.774 1094.83V1012.17H385.966V1006.9H427.595V1012.17H409.602V1094.83H403.774Z" fill="#263238"/>
<path d="M482.683 1049.73V1055H459.972V1094.83H454.19V1006.95H487.586V1012.22H459.833V1049.78L482.683 1049.73Z" fill="#263238"/>
<path d="M496.004 1028.36C496.004 1015.55 501.924 1006.11 515.245 1006.11C528.566 1006.11 534.718 1015.36 534.718 1028.36V1073.32C534.718 1086.13 528.798 1095.57 515.245 1095.57C501.693 1095.57 496.004 1086.32 496.004 1073.32V1028.36ZM501.785 1073.74C501.785 1083.26 505.578 1090.3 515.245 1090.3C524.912 1090.3 529.121 1083.26 529.121 1073.74V1027.99C529.121 1018.42 525.236 1011.39 515.245 1011.39C505.254 1011.39 501.785 1018.42 501.785 1027.99V1073.74Z" fill="#263238"/>
<path d="M549.797 1073.6C549.797 1082.85 553.312 1090.3 562.979 1090.3C572.646 1090.3 576.161 1083.03 576.161 1073.6V1006.9H581.573V1073.32C581.573 1085.9 576.3 1095.57 563.072 1095.57C549.843 1095.57 544.2 1085.9 544.2 1073.32V1006.9H549.982L549.797 1073.6Z" fill="#263238"/>
<path d="M596.976 1094.83H591.703V1006.95H599.242L625.607 1080.95V1006.95H630.88V1094.83H624.497L596.976 1016.2V1094.83Z" fill="#263238"/>
<path d="M659.973 1006.9C673.572 1006.9 679.446 1015.78 679.446 1028.73V1072.95C679.446 1085.9 673.572 1094.83 659.973 1094.83H640.639V1006.95L659.973 1006.9ZM659.973 1089.56C669.779 1089.56 673.849 1082.9 673.849 1073.23V1028.5C673.849 1018.83 669.733 1012.17 659.973 1012.17H646.513V1089.56H659.973Z" fill="#263238"/>
<path d="M879.817 1312.45C776.856 1312.45 714.969 1221.1 692.998 1140.76L692.258 1137.94C691.088 1134.04 690.715 1129.95 691.162 1125.91C691.609 1121.86 692.868 1117.95 694.861 1114.41C696.855 1110.86 699.543 1107.75 702.766 1105.27C705.988 1102.79 709.678 1100.98 713.615 1099.96C717.551 1098.93 721.654 1098.71 725.678 1099.31C729.702 1099.91 733.563 1101.31 737.032 1103.44C740.5 1105.56 743.505 1108.37 745.865 1111.68C748.225 1114.99 749.893 1118.75 750.769 1122.72L751.324 1124.8C768.022 1185.95 813.489 1255.84 886.431 1251.81C900.147 1251.34 913.61 1247.98 925.946 1241.97C938.281 1235.95 949.213 1227.41 958.032 1216.89C998.042 1171.01 1015.94 1071.24 1011.96 1020.91C1011.59 1017.69 1011.87 1014.41 1012.78 1011.29C1013.7 1008.17 1015.23 1005.27 1017.3 1002.76C1019.36 1000.25 1021.91 998.176 1024.79 996.671C1027.67 995.166 1030.83 994.257 1034.07 993.999C1037.31 993.741 1040.57 994.139 1043.66 995.169C1046.74 996.199 1049.58 997.84 1052.02 999.994C1054.45 1002.15 1056.43 1004.77 1057.83 1007.71C1059.23 1010.64 1060.02 1013.83 1060.16 1017.08C1064.79 1073.09 1058.68 1193.49 1003.59 1256.62C989.492 1273.23 972.107 1286.73 952.532 1296.28C932.958 1305.83 911.617 1311.23 889.854 1312.13C886.478 1312.36 883.101 1312.45 879.817 1312.45Z" fill="white"/>
<mask id="mask1_11_884" style="mask-type:luminance" maskUnits="userSpaceOnUse" x="690" y="993" width="372" height="320">
<path d="M879.817 1312.45C776.856 1312.45 714.969 1221.1 692.998 1140.76L692.258 1137.94C691.088 1134.04 690.715 1129.95 691.162 1125.91C691.609 1121.86 692.868 1117.95 694.861 1114.41C696.855 1110.86 699.543 1107.75 702.766 1105.27C705.988 1102.79 709.678 1100.98 713.615 1099.96C717.551 1098.93 721.654 1098.71 725.678 1099.31C729.702 1099.91 733.563 1101.31 737.032 1103.44C740.5 1105.56 743.505 1108.37 745.865 1111.68C748.225 1114.99 749.893 1118.75 750.769 1122.72L751.324 1124.8C768.022 1185.95 813.489 1255.84 886.431 1251.81C900.147 1251.34 913.61 1247.98 925.946 1241.97C938.281 1235.95 949.213 1227.41 958.032 1216.89C998.042 1171.01 1015.94 1071.24 1011.96 1020.91C1011.59 1017.69 1011.87 1014.41 1012.78 1011.29C1013.7 1008.17 1015.23 1005.27 1017.3 1002.76C1019.36 1000.25 1021.91 998.176 1024.79 996.671C1027.67 995.166 1030.83 994.257 1034.07 993.999C1037.31 993.741 1040.57 994.139 1043.66 995.169C1046.74 996.199 1049.58 997.84 1052.02 999.994C1054.45 1002.15 1056.43 1004.77 1057.83 1007.71C1059.23 1010.64 1060.02 1013.83 1060.16 1017.08C1064.79 1073.09 1058.68 1193.49 1003.59 1256.62C989.492 1273.23 972.107 1286.73 952.532 1296.28C932.958 1305.83 911.617 1311.23 889.854 1312.13C886.478 1312.36 883.101 1312.45 879.817 1312.45Z" fill="white"/>
</mask>
<g mask="url(#mask1_11_884)">
<path d="M1034.12 994.874C1027.73 995.393 1021.81 998.427 1017.65 1003.31C1013.5 1008.19 1011.45 1014.52 1011.96 1020.92C1013.91 1045.48 1010.62 1081.79 1002.11 1118.05C1014.27 1117.53 1026.42 1119.1 1038.05 1122.67C1035.3 1157.47 1023.08 1190.85 1002.71 1219.2C957.801 1281.6 890.455 1301.54 838.05 1294.04C814.599 1290.71 787.726 1278.41 765.108 1265.78C795.797 1295.71 836.951 1312.49 879.817 1312.54C883.101 1312.54 886.478 1312.54 889.854 1312.27C911.617 1311.37 932.958 1305.97 952.532 1296.42C972.107 1286.87 989.492 1273.36 1003.59 1256.76C1058.68 1193.63 1064.6 1073.23 1060.16 1017.22C1059.93 1014.03 1059.08 1010.93 1057.64 1008.08C1056.21 1005.23 1054.22 1002.69 1051.8 1000.61C1049.38 998.537 1046.57 996.96 1043.53 995.975C1040.5 994.99 1037.3 994.616 1034.12 994.874Z" fill="#4CA3FF"/>
<path opacity="0.5" d="M1034.12 994.874C1027.73 995.393 1021.81 998.427 1017.65 1003.31C1013.5 1008.19 1011.45 1014.52 1011.96 1020.92C1013.91 1045.48 1010.62 1081.79 1002.11 1118.05C1014.27 1117.53 1026.42 1119.1 1038.05 1122.67C1035.3 1157.47 1023.08 1190.85 1002.71 1219.2C957.801 1281.6 890.455 1301.54 838.05 1294.04C814.599 1290.71 787.726 1278.41 765.108 1265.78C795.797 1295.71 836.951 1312.49 879.817 1312.54C883.101 1312.54 886.478 1312.54 889.854 1312.27C911.617 1311.37 932.958 1305.97 952.532 1296.42C972.107 1286.87 989.492 1273.36 1003.59 1256.76C1058.68 1193.63 1064.6 1073.23 1060.16 1017.22C1059.93 1014.03 1059.08 1010.93 1057.64 1008.08C1056.21 1005.23 1054.22 1002.69 1051.8 1000.61C1049.38 998.537 1046.57 996.96 1043.53 995.975C1040.5 994.99 1037.3 994.616 1034.12 994.874Z" fill="white"/>
</g>
<path d="M879.817 1312.45C776.856 1312.45 714.969 1221.1 692.998 1140.76L692.258 1137.94C691.088 1134.04 690.715 1129.95 691.162 1125.91C691.609 1121.86 692.868 1117.95 694.861 1114.41C696.855 1110.86 699.543 1107.75 702.766 1105.27C705.988 1102.79 709.678 1100.98 713.615 1099.96C717.551 1098.93 721.654 1098.71 725.678 1099.31C729.702 1099.91 733.563 1101.31 737.032 1103.44C740.5 1105.56 743.505 1108.37 745.865 1111.68C748.225 1114.99 749.893 1118.75 750.769 1122.72L751.324 1124.8C768.022 1185.95 813.489 1255.84 886.431 1251.81C900.147 1251.34 913.61 1247.98 925.946 1241.97C938.281 1235.95 949.213 1227.41 958.032 1216.89C998.042 1171.01 1015.94 1071.24 1011.96 1020.91C1011.59 1017.69 1011.87 1014.41 1012.78 1011.29C1013.7 1008.17 1015.23 1005.27 1017.3 1002.76C1019.36 1000.25 1021.91 998.176 1024.79 996.671C1027.67 995.166 1030.83 994.257 1034.07 993.999C1037.31 993.741 1040.57 994.139 1043.66 995.169C1046.74 996.199 1049.58 997.84 1052.02 999.994C1054.45 1002.15 1056.43 1004.77 1057.83 1007.71C1059.23 1010.64 1060.02 1013.83 1060.16 1017.08C1064.79 1073.09 1058.68 1193.49 1003.59 1256.62C989.492 1273.23 972.107 1286.73 952.532 1296.28C932.958 1305.83 911.617 1311.23 889.854 1312.13C886.478 1312.36 883.101 1312.45 879.817 1312.45Z" stroke="#263238" stroke-width="1.1133" stroke-linecap="round" stroke-linejoin="round"/>
<path d="M820.427 1249.87C822.879 1238.54 795.774 1256.25 773.064 1272.77C781.464 1279.87 790.507 1286.17 800.076 1291.59C808.17 1278.41 818.068 1260.79 820.427 1249.87Z" fill="#4CA3FF" stroke="#263238" stroke-width="1.1133" stroke-linecap="round" stroke-linejoin="round"/>
<path d="M879.817 1312.45C883.101 1312.45 886.478 1312.45 889.854 1312.18C899.681 1311.62 909.444 1310.25 919.04 1308.06C906.274 1291.41 888.698 1269.39 883.656 1267.73C877.874 1265.78 866.727 1294.14 860.529 1311.34C866.931 1312.09 873.372 1312.46 879.817 1312.45Z" fill="#4CA3FF" stroke="#263238" stroke-width="1.1133" stroke-linecap="round" stroke-linejoin="round"/>
<path d="M751.324 1124.8L750.769 1122.72C749.893 1118.75 748.225 1114.99 745.865 1111.68C743.505 1108.37 740.5 1105.56 737.032 1103.44C733.563 1101.31 729.702 1099.91 725.678 1099.31C721.654 1098.71 717.551 1098.93 713.615 1099.96C709.678 1100.98 705.988 1102.79 702.766 1105.27C699.543 1107.75 696.855 1110.86 694.861 1114.41C692.868 1117.95 691.609 1121.86 691.162 1125.91C690.715 1129.95 691.088 1134.04 692.258 1137.94L692.998 1140.76C700.711 1168.97 712.557 1195.89 728.151 1220.64L783.239 1194.41C768.794 1173.15 758.006 1149.62 751.324 1124.8Z" fill="#4CA3FF" stroke="#263238" stroke-width="1.1133" stroke-linecap="round" stroke-linejoin="round"/>
<path d="M1003.59 1256.62C1007.83 1251.72 1011.75 1246.56 1015.34 1241.18C997.857 1235.21 971.677 1226.98 961.964 1227.85C950.446 1228.92 966.08 1265.92 974.128 1283.36C984.962 1275.63 994.851 1266.66 1003.59 1256.62Z" fill="#4CA3FF" stroke="#263238" stroke-width="1.1133" stroke-linecap="round" stroke-linejoin="round"/>
<path d="M1004.56 1157.78C1002.71 1161.48 1025.33 1177.95 1040.59 1188.54C1045.44 1174.13 1049.33 1159.42 1052.25 1144.5C1033.75 1148.21 1006.37 1154.17 1004.56 1157.78Z" fill="#4CA3FF" stroke="#263238" stroke-width="1.1133" stroke-linecap="round" stroke-linejoin="round"/>
<path d="M1059.74 1089.37C1060.76 1076.19 1061.27 1063.61 1061.32 1052.04C1045.41 1060.79 1026.53 1072.9 1026.53 1080.86C1026.53 1088.82 1044.2 1089.79 1059.74 1089.37Z" fill="#4CA3FF" stroke="#263238" stroke-width="1.1133" stroke-linecap="round" stroke-linejoin="round"/>
<path d="M810.714 731.505C810.714 731.505 765.802 861.571 789.992 962.774C797.157 992.389 811.066 1019.95 830.635 1043.3C850.203 1066.66 874.902 1085.18 902.805 1097.42C902.805 1097.42 837.171 1120.55 851.926 1156.11C866.681 1191.68 923.249 1168.79 941.705 1157.27C960.16 1145.75 983.333 1111.25 986.571 1088.21C988.628 1076.45 989.404 1064.49 988.883 1052.55C988.883 1052.55 1063.68 1044.5 1114.32 1003.06C1114.32 1003.06 1159.24 1038.72 1191.47 1031.83C1223.71 1024.94 1269.74 967.353 1265.11 915.595C1260.49 863.837 1230.65 863.884 1212.43 871.747C1202.97 875.324 1194.34 880.802 1187.08 887.843C1187.08 887.843 1213.54 855.465 1187.08 810.738C1179.27 797.618 1168.58 786.448 1155.81 778.074C1143.05 769.699 1128.54 764.34 1113.4 762.403C1113.4 762.403 1099.52 688.721 1058.17 661.107C1016.82 633.494 869.41 604.909 810.714 731.505Z" fill="white"/>
<mask id="mask2_11_884" style="mask-type:luminance" maskUnits="userSpaceOnUse" x="782" y="637" width="484" height="539">
<path d="M810.714 731.506C810.714 731.506 765.802 861.572 789.992 962.775C797.157 992.39 811.066 1019.95 830.635 1043.31C850.203 1066.66 874.902 1085.18 902.805 1097.42C902.805 1097.42 837.171 1120.55 851.926 1156.12C866.681 1191.68 923.249 1168.79 941.705 1157.27C960.16 1145.75 983.333 1111.25 986.571 1088.22C988.628 1076.45 989.404 1064.49 988.883 1052.55C988.883 1052.55 1063.68 1044.51 1114.32 1003.06C1114.32 1003.06 1159.24 1038.72 1191.47 1031.83C1223.71 1024.94 1269.74 967.354 1265.11 915.596C1260.49 863.838 1230.65 863.885 1212.43 871.748C1202.97 875.325 1194.34 880.803 1187.08 887.844C1187.08 887.844 1213.54 855.466 1187.08 810.739C1179.27 797.619 1168.58 786.449 1155.81 778.075C1143.05 769.7 1128.54 764.341 1113.4 762.404C1113.4 762.404 1099.52 688.722 1058.17 661.108C1016.82 633.495 869.41 604.91 810.714 731.506Z" fill="white"/>
</mask>
<g mask="url(#mask2_11_884)">
<path d="M1152.67 776.234C1131.32 811.852 1101.77 841.858 1066.48 863.756C1031.2 885.655 991.194 898.813 949.799 902.136C858.217 910.185 806.875 892.146 783.286 879.611C786.148 829.287 795.475 779.541 811.038 731.599C869.734 605.003 1017.05 633.772 1058.5 661.386C1099.94 688.999 1113.72 762.681 1113.72 762.681C1127.51 764.412 1140.78 769.03 1152.67 776.234ZM1212.43 871.748C1202.97 875.325 1194.34 880.803 1187.08 887.844C1192.68 880.121 1196.38 871.182 1197.86 861.757C1135.65 892.747 1140.5 958.89 1132.78 958.89C1123.25 958.89 1118.53 925.633 1118.53 925.633C1118.53 925.633 1106.65 973.136 1035.28 1006.44C963.906 1039.74 883.194 1013.56 883.194 1013.56C883.194 1013.56 899.845 1051.58 857.06 1046.82C845.053 1045.67 833.54 1041.47 823.619 1034.61C844.135 1061.96 871.384 1083.54 902.713 1097.23C902.713 1097.23 837.079 1120.36 851.834 1155.93C866.589 1191.5 923.203 1168.6 941.612 1157.09C960.021 1145.57 983.24 1111.06 986.478 1088.03C988.536 1076.26 989.311 1064.3 988.791 1052.37C988.791 1052.37 1063.58 1044.32 1114.23 1002.88C1114.23 1002.88 1159.14 1038.54 1191.38 1031.65C1223.62 1024.76 1269.64 967.169 1265.02 915.411C1260.39 863.653 1230.65 863.885 1212.43 871.748Z" fill="#4CA3FF"/>
<path opacity="0.5" d="M1152.67 776.234C1131.32 811.852 1101.77 841.858 1066.48 863.756C1031.2 885.655 991.194 898.813 949.799 902.136C858.217 910.185 806.875 892.146 783.286 879.611C786.148 829.287 795.475 779.541 811.038 731.599C869.734 605.003 1017.05 633.772 1058.5 661.386C1099.94 688.999 1113.72 762.681 1113.72 762.681C1127.51 764.412 1140.78 769.03 1152.67 776.234ZM1212.43 871.748C1202.97 875.325 1194.34 880.803 1187.08 887.844C1192.68 880.121 1196.38 871.182 1197.86 861.757C1135.65 892.747 1140.5 958.89 1132.78 958.89C1123.25 958.89 1118.53 925.633 1118.53 925.633C1118.53 925.633 1106.65 973.136 1035.28 1006.44C963.906 1039.74 883.194 1013.56 883.194 1013.56C883.194 1013.56 899.845 1051.58 857.06 1046.82C845.053 1045.67 833.54 1041.47 823.619 1034.61C844.135 1061.96 871.384 1083.54 902.713 1097.23C902.713 1097.23 837.079 1120.36 851.834 1155.93C866.589 1191.5 923.203 1168.6 941.612 1157.09C960.021 1145.57 983.24 1111.06 986.478 1088.03C988.536 1076.26 989.311 1064.3 988.791 1052.37C988.791 1052.37 1063.58 1044.32 1114.23 1002.88C1114.23 1002.88 1159.14 1038.54 1191.38 1031.65C1223.62 1024.76 1269.64 967.169 1265.02 915.411C1260.39 863.653 1230.65 863.885 1212.43 871.748Z" fill="white"/>
<path d="M989.115 1052.65C964.291 1053.31 939.647 1048.27 917.075 1037.92C894.504 1027.56 874.606 1012.18 858.91 992.933" stroke="#263238" stroke-width="1.1133" stroke-linecap="round" stroke-linejoin="round"/>
</g>
<path d="M810.714 731.505C810.714 731.505 765.802 861.571 789.992 962.774C797.157 992.389 811.066 1019.95 830.635 1043.3C850.203 1066.66 874.902 1085.18 902.805 1097.42C902.805 1097.42 837.171 1120.55 851.926 1156.11C866.681 1191.68 923.249 1168.79 941.705 1157.27C960.16 1145.75 983.333 1111.25 986.571 1088.21C988.628 1076.45 989.404 1064.49 988.883 1052.55C988.883 1052.55 1063.68 1044.5 1114.32 1003.06C1114.32 1003.06 1159.24 1038.72 1191.47 1031.83C1223.71 1024.94 1269.74 967.353 1265.11 915.595C1260.49 863.837 1230.65 863.884 1212.43 871.747C1202.97 875.324 1194.34 880.802 1187.08 887.843C1187.08 887.843 1213.54 855.465 1187.08 810.738C1179.27 797.618 1168.58 786.448 1155.81 778.074C1143.05 769.699 1128.54 764.34 1113.4 762.403C1113.4 762.403 1099.52 688.721 1058.17 661.107C1016.82 633.494 869.41 604.909 810.714 731.505Z" stroke="#263238" stroke-width="1.1133" stroke-linecap="round" stroke-linejoin="round"/>
<path d="M1187.08 888.028C1187.08 888.028 1162.94 904.171 1151.42 953.662" stroke="#263238" stroke-width="1.1133" stroke-linecap="round" stroke-linejoin="round"/>
<path d="M1231.44 909.213C1228.62 917.631 1220.89 922.673 1214.23 920.406C1207.57 918.14 1204.52 909.49 1207.34 901.072C1210.16 892.654 1217.89 887.612 1224.55 889.879C1231.21 892.145 1234.31 900.795 1231.44 909.213Z" fill="white" stroke="#263238" stroke-width="1.1133" stroke-linecap="round" stroke-linejoin="round"/>
<path d="M1255.26 924.199C1252.44 932.617 1244.71 937.659 1238.05 935.393C1231.39 933.126 1228.29 924.477 1231.16 916.058C1234.03 907.64 1241.71 902.599 1248.37 904.865C1255.03 907.132 1258.13 915.781 1255.26 924.199Z" fill="white" stroke="#263238" stroke-width="1.1133" stroke-linecap="round" stroke-linejoin="round"/>
<path d="M1260.35 946.633C1259.42 948.181 1258.08 949.435 1256.47 950.251C1254.86 951.066 1253.06 951.408 1251.26 951.238C1249.47 951.067 1247.76 950.391 1246.33 949.288C1244.91 948.185 1243.82 946.7 1243.21 945.006C1242.59 943.311 1242.47 941.477 1242.85 939.716C1243.24 937.955 1244.12 936.339 1245.38 935.057C1246.65 933.774 1248.25 932.877 1250.01 932.47C1251.77 932.063 1253.6 932.162 1255.3 932.757C1257.76 933.985 1259.65 936.108 1260.59 938.69C1261.53 941.271 1261.44 944.114 1260.35 946.633Z" fill="white" stroke="#263238" stroke-width="1.1133" stroke-linecap="round" stroke-linejoin="round"/>
<path d="M1229.96 977.436C1221.63 992.469 1204.98 999.129 1192.72 992.33C1180.47 985.531 1177.32 967.908 1185.65 952.876C1193.97 937.843 1210.62 931.183 1222.88 937.982C1235.14 944.781 1238.28 962.404 1229.96 977.436Z" fill="white" stroke="#263238" stroke-width="1.1133" stroke-linecap="round" stroke-linejoin="round"/>
<path d="M902.805 1097.51C918.311 1104.73 935.936 1105.96 952.297 1100.98" stroke="#263238" stroke-width="1.1133" stroke-linecap="round" stroke-linejoin="round"/>
<path d="M852.157 1156.21C852.157 1156.21 856.783 1136.64 885.506 1122.86" stroke="#263238" stroke-width="1.1133" stroke-linecap="round" stroke-linejoin="round"/>
<path d="M880.927 1173.51C880.927 1173.51 892.444 1145.75 912.01 1133.22" stroke="#263238" stroke-width="1.1133" stroke-linecap="round" stroke-linejoin="round"/>
<path d="M427.039 855.096C422.147 851.192 418.247 846.185 415.658 840.486C413.07 834.786 411.866 828.555 412.146 822.302V712.634H129.258C122.348 712.893 115.463 711.655 109.076 709.005C102.69 706.354 96.9514 702.354 92.2551 697.278C83.0024 687.49 77.9257 674.483 78.1014 661.015C78.0639 650.072 81.2842 639.364 87.3522 630.257L358.306 204.445C378.658 173.023 405.701 157.312 439.435 157.312C457.572 156.696 475.281 162.902 489.066 174.704C502.294 186.267 508.909 203.458 508.909 226.277V640.201H580.879C585.85 639.902 590.826 640.699 595.454 642.538C600.083 644.376 604.25 647.211 607.66 650.84C613.746 657.972 617.089 667.042 617.089 676.418C617.089 685.794 613.746 694.863 607.66 701.996C604.25 705.625 600.083 708.459 595.454 710.298C590.826 712.136 585.85 712.934 580.879 712.634H508.4V822.302C508.7 828.508 507.557 834.699 505.061 840.389C502.565 846.079 498.784 851.113 494.015 855.096C484.704 862.902 472.908 867.119 460.758 866.983C448.475 867.08 436.546 862.874 427.039 855.096ZM411.961 640.201V259.071L174.725 640.201H411.961Z" fill="#263238"/>
<path d="M819.595 857.316C791.869 845.216 767.316 826.869 747.855 803.708C728.309 779.238 713.045 751.635 702.712 722.07C690.999 690.131 682.765 657.023 678.151 623.319C673.337 586.623 671.019 549.643 671.213 512.633C671.213 268.815 754.47 146.905 920.983 146.905C1087.5 146.905 1170.55 268.815 1170.15 512.633C1170.32 549.466 1168.08 586.269 1163.44 622.81C1158.98 656.52 1150.82 689.636 1139.12 721.561C1128.78 751.126 1113.52 778.729 1093.97 803.199C1074.49 826.391 1049.94 844.809 1022.23 857.039C990.371 871.125 955.813 878.071 920.983 877.39C886.135 878.09 851.547 871.242 819.595 857.316ZM970.197 787.334C984.129 781.391 996.775 772.798 1007.43 762.033C1018.22 750.545 1027.09 737.395 1033.7 723.088C1041 707.93 1046.9 692.138 1051.33 675.909C1055.99 658.227 1059.39 640.235 1061.5 622.07C1064 602.026 1065.66 583.664 1066.5 566.982C1067.33 550.299 1067.73 532.183 1067.7 512.633C1067.7 492.128 1067.3 473.194 1066.5 455.834C1065.7 438.473 1063.95 419.848 1061.27 399.959C1058.97 381.807 1055.49 363.823 1050.86 346.12C1046.49 330.054 1040.58 314.441 1033.24 299.496C1026.58 285.415 1017.69 272.499 1006.92 261.244C996.33 250.696 983.754 242.349 969.919 236.684C938.294 224.474 903.256 224.474 871.63 236.684C857.898 242.281 845.414 250.551 834.905 261.013C824.215 272.219 815.349 285.033 808.633 298.987C801.223 313.798 795.394 329.348 791.241 345.38C786.726 363.189 783.327 381.264 781.065 399.497C778.383 419.663 776.64 438.442 775.839 455.834C775.037 473.225 774.621 492.158 774.59 512.633C774.59 532.152 775.006 550.346 775.839 567.213C776.671 584.08 778.321 602.582 780.788 622.717C782.922 640.879 786.322 658.869 790.964 676.557C795.33 692.78 801.167 708.572 808.401 723.735C814.945 737.956 823.738 751.028 834.442 762.45C845.019 773.145 857.59 781.662 871.445 787.519C903.101 800.407 938.541 800.407 970.197 787.519V787.334Z" fill="#263238"/>
<path d="M1598.74 855.096C1593.85 851.191 1589.95 846.185 1587.36 840.486C1584.77 834.786 1583.57 828.555 1583.84 822.302V712.634H1300.96C1294.05 712.893 1287.16 711.655 1280.78 709.005C1274.39 706.354 1268.65 702.354 1263.95 697.278C1254.7 687.49 1249.62 674.483 1249.8 661.015C1249.76 650.071 1252.98 639.364 1259.05 630.256L1530.01 204.445C1550.17 173.023 1577.14 157.312 1610.9 157.312C1629.13 156.626 1646.95 162.836 1660.81 174.704C1674.04 186.267 1680.65 203.458 1680.65 226.276V640.201H1752.62C1757.6 639.902 1762.57 640.699 1767.2 642.538C1771.83 644.376 1776 647.21 1779.41 650.839C1785.49 657.972 1788.83 667.041 1788.83 676.418C1788.83 685.794 1785.49 694.863 1779.41 701.996C1776 705.625 1771.83 708.459 1767.2 710.298C1762.57 712.136 1757.6 712.934 1752.62 712.634H1680.1V822.302C1680.4 828.508 1679.26 834.699 1676.76 840.389C1674.26 846.079 1670.48 851.113 1665.71 855.096C1656.4 862.902 1644.61 867.119 1632.46 866.983C1620.17 867.08 1608.24 862.874 1598.74 855.096ZM1583.84 640.201V259.07L1346.61 640.201H1583.84Z" fill="#263238"/>
<path d="M717.467 665.918C717.467 665.918 669.131 733.819 662.24 802.876C655.348 871.932 663.396 917.955 684.118 935.254C704.839 952.553 725.515 945.615 737.032 929.472C748.549 913.33 730.14 856.946 730.14 856.946C730.14 856.946 749.705 802.876 779.632 764.901C809.558 726.927 815.293 721.145 815.293 721.145C815.293 721.145 763.489 662.449 717.467 665.918Z" fill="white"/>
<mask id="mask3_11_884" style="mask-type:luminance" maskUnits="userSpaceOnUse" x="659" y="665" width="157" height="281">
<path d="M717.467 665.917C717.467 665.917 669.131 733.818 662.24 802.875C655.348 871.932 663.396 917.954 684.118 935.253C704.839 952.552 725.515 945.614 737.032 929.471C748.549 913.329 730.14 856.945 730.14 856.945C730.14 856.945 749.705 802.875 779.632 764.9C809.558 726.926 815.293 721.144 815.293 721.144C815.293 721.144 763.489 662.448 717.467 665.917Z" fill="white"/>
</mask>
<g mask="url(#mask3_11_884)">
<path d="M717.466 665.917C706.919 681.501 697.565 697.86 689.483 714.854C712.61 724.105 748.456 743.069 771.213 776.649C773.988 772.625 776.856 768.647 779.816 764.9C809.743 726.926 815.478 721.144 815.478 721.144C815.478 721.144 763.489 662.448 717.466 665.917Z" fill="#4CA3FF"/>
<path opacity="0.5" d="M717.466 665.917C706.919 681.501 697.565 697.86 689.483 714.854C712.61 724.105 748.456 743.069 771.213 776.649C773.988 772.625 776.856 768.647 779.816 764.9C809.743 726.926 815.478 721.144 815.478 721.144C815.478 721.144 763.489 662.448 717.466 665.917Z" fill="white"/>
</g>
<path d="M717.467 665.918C717.467 665.918 669.131 733.819 662.24 802.876C655.348 871.932 663.396 917.955 684.118 935.254C704.839 952.553 725.515 945.615 737.032 929.472C748.549 913.33 730.14 856.946 730.14 856.946C730.14 856.946 749.705 802.876 779.632 764.901C809.558 726.927 815.293 721.145 815.293 721.145C815.293 721.145 763.489 662.449 717.467 665.918Z" stroke="#263238" stroke-width="1.1133" stroke-linecap="round" stroke-linejoin="round"/>
<path d="M684.118 935.253C678.466 920.163 675.72 904.14 676.023 888.028" stroke="#263238" stroke-width="1.1133" stroke-linecap="round" stroke-linejoin="round"/>
<path d="M715.154 942.145C715.154 942.145 703.683 922.58 702.527 889.185" stroke="#263238" stroke-width="1.1133" stroke-linecap="round" stroke-linejoin="round"/>
<path d="M732.453 789.046C732.453 776.927 709.326 753.245 677.18 742.792C672.858 754.06 669.289 765.603 666.495 777.344C678.984 779.481 691.113 783.358 702.527 788.861C719.779 798.25 732.453 802.876 732.453 789.046Z" fill="#4CA3FF" stroke="#263238" stroke-width="1.1133" stroke-linecap="round" stroke-linejoin="round"/>
<path d="M714.645 670.035C707.189 681.401 700.334 693.15 694.108 705.234C703.842 707.808 713.179 711.698 721.861 716.798C757.522 737.473 764.414 739.925 752.943 709.86C746.005 690.988 729.446 678.176 714.645 670.035Z" fill="#4CA3FF" stroke="#263238" stroke-width="1.1133" stroke-linecap="round" stroke-linejoin="round"/>
<path d="M1096.05 632.384C1096.05 632.384 1150.82 695.196 1164.46 763.282C1178.11 831.367 1174.64 877.945 1155.67 897.14C1136.71 916.335 1115.48 911.525 1102.44 896.585C1089.39 881.645 1102.44 823.782 1102.44 823.782C1102.44 823.782 1077.64 771.839 1044.16 736.963C1010.67 702.088 1004.33 696.954 1004.33 696.954C1004.33 696.954 1049.89 633.448 1096.05 632.384Z" fill="white"/>
<mask id="mask4_11_884" style="mask-type:luminance" maskUnits="userSpaceOnUse" x="1004" y="632" width="169" height="278">
<path d="M1096.05 632.385C1096.05 632.385 1150.82 695.197 1164.46 763.283C1178.11 831.368 1174.64 877.946 1155.67 897.141C1136.71 916.336 1115.48 911.526 1102.44 896.586C1089.39 881.646 1102.44 823.783 1102.44 823.783C1102.44 823.783 1077.64 771.84 1044.16 736.964C1010.67 702.089 1004.33 696.955 1004.33 696.955C1004.33 696.955 1049.89 633.449 1096.05 632.385Z" fill="white"/>
</mask>
<g mask="url(#mask4_11_884)">
<path d="M1096.05 632.385C1049.8 633.449 1004.1 697.14 1004.1 697.14C1004.1 697.14 1010.39 702.32 1043.93 737.149C1050.2 743.754 1056.1 750.703 1061.59 757.964C1079.1 728.4 1104.1 703.987 1134.07 687.195C1123.04 667.838 1110.32 649.496 1096.05 632.385Z" fill="#4CA3FF"/>
<path opacity="0.5" d="M1096.05 632.385C1049.8 633.449 1004.1 697.14 1004.1 697.14C1004.1 697.14 1010.39 702.32 1043.93 737.149C1050.2 743.754 1056.1 750.703 1061.59 757.964C1079.1 728.4 1104.1 703.987 1134.07 687.195C1123.04 667.838 1110.32 649.496 1096.05 632.385Z" fill="white"/>
</g>
<path d="M1096.05 632.384C1096.05 632.384 1150.82 695.196 1164.46 763.282C1178.11 831.367 1174.64 877.945 1155.67 897.14C1136.71 916.335 1115.48 911.525 1102.44 896.585C1089.39 881.645 1102.44 823.782 1102.44 823.782C1102.44 823.782 1077.64 771.839 1044.16 736.963C1010.67 702.088 1004.33 696.954 1004.33 696.954C1004.33 696.954 1049.89 633.448 1096.05 632.384Z" stroke="#263238" stroke-width="1.1133" stroke-linecap="round" stroke-linejoin="round"/>
<path d="M1155.67 897.141C1159.82 881.589 1160.98 865.392 1159.1 849.407" stroke="#263238" stroke-width="1.1133" stroke-linecap="round" stroke-linejoin="round"/>
<path d="M1125.42 907.038C1125.42 907.038 1135 886.455 1132.87 853.106" stroke="#263238" stroke-width="1.1133" stroke-linecap="round" stroke-linejoin="round"/>
<path d="M1093.23 756.39C1092.08 744.318 1112.75 718.508 1143.74 705.141C1149.1 715.921 1153.74 727.046 1157.62 738.443C1145.42 741.844 1133.75 746.902 1122.93 753.476C1106.74 764.345 1094.62 769.988 1093.23 756.39Z" fill="#4CA3FF" stroke="#263238" stroke-width="1.1133" stroke-linecap="round" stroke-linejoin="round"/>
<path d="M1099.24 636.224C1107.75 646.72 1115.69 657.668 1123.02 669.017C1113.55 672.523 1104.6 677.3 1096.42 683.217C1062.98 707.362 1056.32 710.322 1064.83 679.425C1070.15 660.137 1085.32 645.752 1099.24 636.224Z" fill="#4CA3FF" stroke="#263238" stroke-width="1.1133" stroke-linecap="round" stroke-linejoin="round"/>
<path d="M712.934 607.176C712.934 607.176 698.687 655.234 704.053 674.799C709.418 694.364 734.303 676.603 759.234 697.926C784.164 719.249 807.245 757.732 901.649 764.855C996.053 771.978 1053.04 721.053 1072.79 692.56C1092.54 664.068 1090.6 630.257 1124.41 628.499C1158.22 626.741 1129.77 560.83 1119.09 550.145C1119.09 550.145 1184.95 452.226 1184.95 427.295C1184.95 402.365 1122.65 407.684 1046.19 430.857C1046.19 430.857 989.207 400.561 885.923 418.368C782.638 436.176 752.388 466.472 752.388 466.472C752.388 466.472 624.173 482.476 615.292 498.48C606.411 514.484 632.822 582.245 712.934 607.176Z" fill="white"/>
<mask id="mask5_11_884" style="mask-type:luminance" maskUnits="userSpaceOnUse" x="613" y="410" width="572" height="356">
<path d="M712.934 607.176C712.934 607.176 698.687 655.234 704.053 674.799C709.418 694.364 734.303 676.603 759.234 697.926C784.164 719.249 807.245 757.732 901.649 764.855C996.053 771.978 1053.04 721.053 1072.79 692.56C1092.54 664.068 1090.6 630.257 1124.41 628.499C1158.22 626.741 1129.77 560.83 1119.09 550.145C1119.09 550.145 1184.95 452.226 1184.95 427.295C1184.95 402.365 1122.65 407.684 1046.19 430.857C1046.19 430.857 989.207 400.561 885.923 418.368C782.638 436.176 752.388 466.472 752.388 466.472C752.388 466.472 624.173 482.476 615.292 498.48C606.411 514.484 632.822 582.245 712.934 607.176Z" fill="white"/>
</mask>
<g mask="url(#mask5_11_884)">
<path d="M1124.27 628.544C1158.13 626.741 1129.63 560.875 1118.95 550.191C1118.95 550.191 1131.48 531.689 1145.59 508.562C1107.34 488.581 1069.78 477.48 1059.79 488.72C1038.28 512.864 1049.98 559.118 1059.79 604.354C1069.6 649.59 1030.42 668.878 1003.04 708.008C975.655 747.139 936.57 704.077 936.57 704.077C922.694 760.83 864.183 723.642 864.183 723.642C819.225 709.766 742.952 664.992 758.586 633.679C774.22 602.365 778.151 573.04 750.769 547.647C723.387 522.253 614.182 501.115 614.182 501.115C608.446 520.403 636.152 583.586 712.98 607.499C712.98 607.499 698.734 655.557 704.099 675.122C709.465 694.687 734.349 676.926 759.28 698.249C784.211 719.572 807.291 758.055 901.695 765.178C996.099 772.301 1053.08 721.376 1072.83 692.883C1092.58 664.391 1090.41 630.302 1124.27 628.544Z" fill="#4CA3FF"/>
<path opacity="0.5" d="M1124.27 628.544C1158.13 626.741 1129.63 560.875 1118.95 550.191C1118.95 550.191 1131.48 531.689 1145.59 508.562C1107.34 488.581 1069.78 477.48 1059.79 488.72C1038.28 512.864 1049.98 559.118 1059.79 604.354C1069.6 649.59 1030.42 668.878 1003.04 708.008C975.655 747.139 936.57 704.077 936.57 704.077C922.694 760.83 864.183 723.642 864.183 723.642C819.225 709.766 742.952 664.992 758.586 633.679C774.22 602.365 778.151 573.04 750.769 547.647C723.387 522.253 614.182 501.115 614.182 501.115C608.446 520.403 636.152 583.586 712.98 607.499C712.98 607.499 698.734 655.557 704.099 675.122C709.465 694.687 734.349 676.926 759.28 698.249C784.211 719.572 807.291 758.055 901.695 765.178C996.099 772.301 1053.08 721.376 1072.83 692.883C1092.58 664.391 1090.41 630.302 1124.27 628.544Z" fill="white"/>
<path d="M984.998 639.275C986.339 650.561 961.27 662.726 929.124 666.472C896.977 670.219 869.78 664.113 868.439 652.596C867.097 641.079 892.167 629.192 924.359 625.445C956.552 621.699 983.703 628.035 984.998 639.275Z" fill="#4CA3FF"/>
<path opacity="0.5" d="M984.998 639.275C986.339 650.561 961.27 662.726 929.124 666.472C896.977 670.219 869.78 664.113 868.439 652.596C867.097 641.079 892.167 629.192 924.359 625.445C956.552 621.699 983.703 628.035 984.998 639.275Z" fill="white"/>
</g>
<path d="M712.934 607.176C712.934 607.176 698.687 655.234 704.053 674.799C709.418 694.364 734.303 676.603 759.234 697.926C784.164 719.249 807.245 757.732 901.649 764.855C996.053 771.978 1053.04 721.053 1072.79 692.56C1092.54 664.068 1090.6 630.257 1124.41 628.499C1158.22 626.741 1129.77 560.83 1119.09 550.145C1119.09 550.145 1184.95 452.226 1184.95 427.295C1184.95 402.365 1122.65 407.684 1046.19 430.857C1046.19 430.857 989.207 400.561 885.923 418.368C782.638 436.176 752.388 466.472 752.388 466.472C752.388 466.472 624.173 482.476 615.292 498.48C606.411 514.484 632.822 582.245 712.934 607.176Z" stroke="#263238" stroke-width="1.1133" stroke-miterlimit="10"/>
<path d="M1081.21 464.714C1034.95 495.797 1051.28 526.879 1071.96 544.132C1084.58 554.678 1104.93 553.383 1118.86 550.423C1118.86 550.423 1184.72 452.503 1184.72 427.573C1184.77 427.341 1127.23 433.401 1081.21 464.714Z" fill="#4CA3FF" stroke="#263238" stroke-width="1.1133" stroke-miterlimit="10"/>
<path d="M614.136 500.793C608.4 520.081 636.106 583.263 712.934 607.176C712.934 607.176 771.583 601.441 752.018 554.262C733.748 510.229 641.379 499.266 614.136 500.793Z" fill="#4CA3FF" stroke="#263238" stroke-width="1.1133" stroke-miterlimit="10"/>
<path d="M885.645 418.461C879.586 419.525 873.758 420.635 868.161 421.745C877.412 468.462 892.629 546.26 906.228 546.26C919.827 546.26 930.234 460.969 934.674 413.188C918.234 413.881 901.856 415.642 885.645 418.461Z" fill="#4CA3FF" stroke="#263238" stroke-width="1.1133" stroke-miterlimit="10"/>
<path d="M832.592 532.384C846.746 524.058 844.618 461.477 842.352 427.526C827.743 431.156 813.364 435.65 799.289 440.986C804.424 472.762 817.467 541.264 832.592 532.384Z" fill="#4CA3FF" stroke="#263238" stroke-width="1.1133" stroke-miterlimit="10"/>
<path d="M969.549 503.614C984.027 508.702 992.167 456.667 996.746 416.611C982.125 414.228 967.342 412.975 952.528 412.864C952.065 445.751 953.869 498.11 969.549 503.614Z" fill="#4CA3FF" stroke="#263238" stroke-width="1.1133" stroke-miterlimit="10"/>
<path d="M950.169 683.726C936.661 680.175 922.306 681.947 910.067 688.675C909.53 688.985 909.074 689.416 908.733 689.934C908.393 690.452 908.178 691.042 908.106 691.658C908.035 692.273 908.107 692.897 908.319 693.479C908.531 694.062 908.876 694.587 909.327 695.012L933.888 718.139C934.348 718.57 934.905 718.886 935.511 719.06C936.118 719.233 936.757 719.26 937.376 719.138C937.995 719.016 938.576 718.749 939.072 718.358C939.567 717.967 939.962 717.464 940.224 716.89L952.805 689.138C953.03 688.613 953.14 688.046 953.126 687.475C953.112 686.904 952.975 686.342 952.725 685.829C952.475 685.315 952.117 684.862 951.676 684.499C951.235 684.136 950.721 683.873 950.169 683.726Z" fill="#4CA3FF" stroke="#263238" stroke-width="1.1133" stroke-linecap="round" stroke-linejoin="round"/>
<path d="M891.797 645.103C895.173 654.03 893.832 662.819 888.79 664.715C883.749 666.611 876.903 660.968 873.48 652.088C870.058 643.207 871.445 634.373 876.487 632.476C881.528 630.58 888.374 636.223 891.797 645.103Z" fill="#263238"/>
<path d="M958.772 638.768C957.015 648.018 959.882 656.575 965.201 657.547C970.521 658.518 976.256 651.765 978.014 642.375C979.771 632.986 976.904 624.614 971.584 623.596C966.265 622.579 960.53 629.424 958.772 638.768Z" fill="#263238"/>
<path d="M940.224 716.843C940.224 716.843 907.384 761.432 877.458 716.565" stroke="#263238" stroke-width="1.1133" stroke-linecap="round" stroke-linejoin="round"/>
<path d="M933.888 718.092C933.888 718.092 955.719 740.71 978.754 728.037C1001.79 715.363 988.005 695.659 988.005 695.659" stroke="#263238" stroke-width="1.1133" stroke-linecap="round" stroke-linejoin="round"/>
<path d="M833.748 609.489C833.748 609.489 841.796 580.719 879.771 587.611" stroke="#263238" stroke-width="3.33991" stroke-linecap="round" stroke-linejoin="round"/>
<path d="M948.828 583.031C948.828 583.031 977.597 565.779 1004.05 593.392" stroke="#263238" stroke-width="3.33991" stroke-linecap="round" stroke-linejoin="round"/>
<path d="M811.87 686.64L839.484 693.531" stroke="#263238" stroke-width="1.1133" stroke-miterlimit="10" stroke-linecap="round"/>
<path d="M836.015 703.893L811.87 708.472" stroke="#263238" stroke-width="1.1133" stroke-miterlimit="10" stroke-linecap="round"/>
<path d="M840.64 716.565L823.388 725.77" stroke="#263238" stroke-width="1.1133" stroke-miterlimit="10" stroke-linecap="round"/>
<path d="M1015.57 673.966L1039.76 668.185" stroke="#263238" stroke-width="1.1133" stroke-miterlimit="10" stroke-linecap="round"/>
<path d="M1020.2 685.483H1036.29" stroke="#263238" stroke-width="1.1133" stroke-miterlimit="10" stroke-linecap="round"/>
<path d="M1023.62 697L1045.5 702.735" stroke="#263238" stroke-width="1.1133" stroke-miterlimit="10" stroke-linecap="round"/>
</svg>
