<svg width="4087" height="3855" viewBox="0 0 4087 3855" fill="none" xmlns="http://www.w3.org/2000/svg">
<mask id="mask0_13_5060" style="mask-type:luminance" maskUnits="userSpaceOnUse" x="2370" y="0" width="685" height="3337">
<path d="M3054.67 3336.82H2370.04V0.896484L3054.67 279.078V3336.82Z" fill="white"/>
</mask>
<g mask="url(#mask0_13_5060)">
<path opacity="0.5" d="M3054.67 2737.73H2370.04V0.896484L3054.67 279.078V2737.73Z" stroke="#999999" stroke-miterlimit="10"/>
</g>
<path d="M3054.67 3336.82H2370.04V0.896484L3054.67 279.078V3336.82Z" stroke="#999999" stroke-width="0.75" stroke-linecap="round" stroke-linejoin="round"/>
<path d="M2691.85 242.931H2588.63V346.144H2691.85V242.931Z" stroke="#999999" stroke-miterlimit="10"/>
<path d="M2547.71 398.607H2444.5V501.821H2547.71V398.607Z" stroke="#999999" stroke-miterlimit="10"/>
<path d="M2691.85 554.194H2588.63V657.408H2691.85V554.194Z" stroke="#999999" stroke-miterlimit="10"/>
<path d="M2835.99 554.194H2732.77V657.408H2835.99V554.194Z" stroke="#999999" stroke-miterlimit="10"/>
<path d="M2547.71 865.549H2444.5V968.763H2547.71V865.549Z" stroke="#999999" stroke-miterlimit="10"/>
<path d="M2835.99 865.549H2732.77V968.763H2835.99V865.549Z" stroke="#999999" stroke-miterlimit="10"/>
<path d="M2691.85 1021.14H2588.63V1124.35H2691.85V1021.14Z" stroke="#999999" stroke-miterlimit="10"/>
<path d="M2547.71 1176.81H2444.5V1280.03H2547.71V1176.81Z" stroke="#999999" stroke-miterlimit="10"/>
<path d="M2835.99 1176.81H2732.77V1280.03H2835.99V1176.81Z" stroke="#999999" stroke-miterlimit="10"/>
<path d="M2980.13 1176.81H2876.91V1280.03H2980.13V1176.81Z" stroke="#999999" stroke-miterlimit="10"/>
<path d="M2691.85 1332.4H2588.63V1435.61H2691.85V1332.4Z" stroke="#999999" stroke-miterlimit="10"/>
<path d="M2547.71 1488.08H2444.5V1591.29H2547.71V1488.08Z" stroke="#999999" stroke-miterlimit="10"/>
<path d="M2980.13 1488.08H2876.91V1591.29H2980.13V1488.08Z" stroke="#999999" stroke-miterlimit="10"/>
<path d="M2836.72 1645.47L2733.52 1643.99L2732.04 1747.19L2835.24 1748.67L2836.72 1645.47Z" stroke="#999999" stroke-miterlimit="10"/>
<path d="M2691.85 1795.65H2588.63V1898.86H2691.85V1795.65Z" stroke="#999999" stroke-miterlimit="10"/>
<path d="M2835.99 1951.32H2732.77V2054.54H2835.99V1951.32Z" stroke="#999999" stroke-miterlimit="10"/>
<path d="M2980.13 1951.32H2876.91V2054.54H2980.13V1951.32Z" stroke="#999999" stroke-miterlimit="10"/>
<path d="M2691.85 2107H2588.63V2210.21H2691.85V2107Z" stroke="#999999" stroke-miterlimit="10"/>
<path d="M2547.71 2262.59H2444.5V2365.8H2547.71V2262.59Z" stroke="#999999" stroke-miterlimit="10"/>
<path d="M2836.82 2419.9L2733.61 2418.42L2732.13 2521.62L2835.34 2523.1L2836.82 2419.9Z" stroke="#999999" stroke-miterlimit="10"/>
<path d="M2980.91 1647.53L2877.7 1646.05L2876.23 1749.26L2979.43 1750.73L2980.91 1647.53Z" stroke="#999999" stroke-miterlimit="10"/>
<mask id="mask1_13_5060" style="mask-type:luminance" maskUnits="userSpaceOnUse" x="3199" y="371" width="749" height="2966">
<path d="M3885.34 498.487V371.024H3627.53V498.487H3199.62V3336.82H3947.72V498.487H3885.34Z" fill="white"/>
</mask>
<g mask="url(#mask1_13_5060)">
<path opacity="0.3" d="M3885.34 498.487V371.024H3627.53V498.487H3199.62V3336.82H3947.72V498.487H3885.34Z" stroke="#999999" stroke-miterlimit="10"/>
</g>
<path d="M3885.34 498.486V371.023H3627.53V498.486H3199.62V3336.82H3947.72V498.486H3885.34Z" stroke="#999999" stroke-width="0.75" stroke-linecap="round" stroke-linejoin="round"/>
<path d="M3706.14 659.752H3595.62V770.267H3706.14V659.752Z" stroke="#999999" stroke-miterlimit="10"/>
<path d="M3551.81 826.337H3441.3V936.852H3551.81V826.337Z" stroke="#999999" stroke-miterlimit="10"/>
<path d="M3860.37 826.337H3749.86V936.852H3860.37V826.337Z" stroke="#999999" stroke-miterlimit="10"/>
<path d="M3397.49 993.011H3286.97V1103.53H3397.49V993.011Z" stroke="#999999" stroke-miterlimit="10"/>
<path d="M3706.14 993.011H3595.62V1103.53H3706.14V993.011Z" stroke="#999999" stroke-miterlimit="10"/>
<path d="M3860.37 993.011H3749.86V1103.53H3860.37V993.011Z" stroke="#999999" stroke-miterlimit="10"/>
<path d="M3397.49 1326.27H3286.97V1436.79H3397.49V1326.27Z" stroke="#999999" stroke-miterlimit="10"/>
<path d="M3706.14 1326.27H3595.62V1436.79H3706.14V1326.27Z" stroke="#999999" stroke-miterlimit="10"/>
<path d="M3551.81 1492.95H3441.3V1603.46H3551.81V1492.95Z" stroke="#999999" stroke-miterlimit="10"/>
<path d="M3860.37 1492.95H3749.86V1603.46H3860.37V1492.95Z" stroke="#999999" stroke-miterlimit="10"/>
<path d="M3860.37 1659.53H3749.86V1770.04H3860.37V1659.53Z" stroke="#999999" stroke-miterlimit="10"/>
<path d="M3397.49 1826.2H3286.97V1936.72H3397.49V1826.2Z" stroke="#999999" stroke-miterlimit="10"/>
<path d="M3551.81 1826.2H3441.3V1936.72H3551.81V1826.2Z" stroke="#999999" stroke-miterlimit="10"/>
<path d="M3706.92 1994.75L3596.42 1993.17L3594.84 2103.67L3705.34 2105.25L3706.92 1994.75Z" stroke="#999999" stroke-miterlimit="10"/>
<path d="M3397.49 2159.46H3286.97V2269.98H3397.49V2159.46Z" stroke="#999999" stroke-miterlimit="10"/>
<path d="M2225.09 1578.67C2204.99 1514.4 2140.62 1474.2 2140.62 1474.2C2158.95 1469.99 2176.08 1461.67 2190.72 1449.87C2205.35 1438.06 2217.1 1423.07 2225.09 1406.05C2201.26 1379.9 2174.25 1356.86 2144.68 1337.45C2180.74 1337.45 2213.01 1289.22 2213.01 1289.22C2168.75 1217.11 2084.37 1209.9 2084.37 1209.9C2164.78 1194.93 2140.62 1108.3 2140.62 1108.3C2108.44 1056.02 1987.83 1096.23 1987.83 1096.23C2059.94 1052.06 2011.99 979.67 2011.99 979.67C1915.45 947.489 1831.07 1003.74 1831.07 1003.74C1855.14 939.467 1806.91 887.184 1806.91 887.184C1789.64 885.762 1772.25 887.847 1755.8 893.313C1738.06 865.77 1714.87 842.149 1687.65 823.903C1705.96 819.704 1723.07 811.394 1737.69 799.603C1752.31 787.811 1764.05 772.848 1772.03 755.845C1748.22 729.659 1721.2 706.581 1691.62 687.156C1727.68 687.156 1760.04 638.93 1760.04 638.93C1715.78 566.815 1631.31 559.694 1631.31 559.694C1711.72 544.64 1687.65 458.012 1687.65 458.012C1655.47 405.729 1534.41 445.933 1534.41 445.933C1606.52 401.763 1558.48 329.378 1558.48 329.378C1462.03 297.197 1377.56 353.536 1377.56 353.536C1401.72 289.174 1353.49 236.891 1353.49 236.891C1256.95 228.869 1192.68 333.435 1192.68 333.435C1142.83 230.852 1091.63 265.737 1091.63 265.737C1067.91 298.444 1056.83 338.628 1060.44 378.867C1009.24 336.77 941.088 332.263 941.088 332.263C934.253 366.975 931.83 402.411 933.877 437.73C912.333 408.614 854.371 411.498 854.371 411.498C831.114 469.19 856.534 533.552 871.859 563.84C870.416 566.094 868.974 568.347 867.622 570.601C811.373 533.642 752.149 577.362 752.149 577.362C743.134 600.529 756.566 628.383 776.127 653.262C751.22 643.54 725.112 637.233 698.514 634.513C690.256 675.765 687.228 717.893 689.499 759.902C663.899 725.377 595.029 728.802 595.029 728.802C575.198 777.84 585.113 830.934 598.995 870.417C579.398 877.291 561.11 887.441 544.91 900.435C519.062 902.59 494.216 911.411 472.795 926.035C471.765 928.792 470.951 931.625 470.361 934.509C423.847 864.017 381.029 892.592 381.029 892.592C356.338 926.762 344.785 968.685 348.488 1010.68C295.123 966.78 224 962.003 224 962.003C216.894 998.201 214.38 1035.15 216.518 1071.98C193.983 1041.69 133.587 1044.93 133.587 1044.93C101.406 1126.24 163.063 1221.25 163.063 1221.25C100.504 1163.2 27.8488 1217.02 27.8488 1217.02C4.14117 1276.69 125.203 1365.48 125.203 1365.48C43.1731 1332.31 -0.00540924 1404.97 -0.00540924 1404.97C32.987 1505.84 153.238 1539.37 153.238 1539.37C84.2784 1559.11 50.3846 1634.29 50.3846 1634.29C103.569 1720.11 261.41 1674.04 261.41 1674.04C261.41 1674.04 190.557 1713.89 188.484 1778.88C188.484 1778.88 274.48 1801.96 320.634 1764.28C320.634 1764.28 305.94 1833.33 341.547 1876.41C341.547 1876.41 406.54 1843.96 408.703 1808.27C408.703 1808.27 452.693 1890.03 500.92 1900.57C511.845 1893.43 520.949 1883.84 527.507 1872.55C534.065 1861.27 537.894 1848.61 538.69 1835.58C538.69 1835.58 637.216 1934.11 693.826 1925.72C693.826 1925.72 712.756 1860.73 698.063 1827.11C698.063 1827.11 771.439 1839.73 811.282 1835.58C811.282 1835.58 819.666 1785.19 802.899 1753.73C802.899 1753.73 869.966 1785.19 918.192 1762.11C918.192 1762.11 914.046 1703.43 901.426 1678.28C927.643 1685.75 954.753 1689.63 982.014 1689.82C991.23 1696.74 1001.74 1701.74 1012.93 1704.51C1025.39 1696.37 1035.77 1685.43 1043.25 1672.57C1050.73 1659.7 1055.1 1645.27 1056.02 1630.41C1056.02 1630.41 1168.34 1742.82 1232.88 1733.27C1240.76 1705.21 1244.35 1676.13 1243.52 1647C1304.82 1701.09 1429.03 1665.03 1429.03 1665.03C1429.03 1665.03 1361.07 1703.25 1359.08 1765.54C1359.08 1765.54 1441.56 1787.71 1485.28 1751.48C1485.28 1751.48 1471.22 1817.73 1505.38 1859.02C1505.38 1859.02 1567.67 1827.92 1569.75 1793.66C1569.75 1793.66 1611.93 1872.09 1658.18 1882.18C1668.63 1875.32 1677.34 1866.1 1683.6 1855.27C1689.86 1844.44 1693.5 1832.29 1694.23 1819.8C1694.23 1819.8 1788.88 1914.45 1843.15 1906.34C1843.15 1906.34 1861.18 1844.05 1847.12 1811.87C1847.12 1811.87 1917.52 1823.95 1955.29 1819.89C1955.29 1819.89 1963.4 1771.67 1947.27 1741.56C1947.27 1741.56 2011.63 1771.67 2057.87 1749.58C2057.87 1749.58 2053.81 1693.24 2041.74 1669.18C2041.74 1669.18 2102.04 1687.2 2144.32 1677.2C2128.18 1608.87 2084.01 1594.09 2084.01 1594.09C2172.8 1609.41 2225.09 1578.67 2225.09 1578.67Z" fill="#4CA3FF"/>
<mask id="mask2_13_5060" style="mask-type:luminance" maskUnits="userSpaceOnUse" x="-1" y="236" width="2227" height="1691">
<path d="M2225.09 1578.67C2204.99 1514.4 2140.62 1474.2 2140.62 1474.2C2158.95 1469.99 2176.08 1461.67 2190.72 1449.87C2205.35 1438.06 2217.1 1423.07 2225.09 1406.05C2201.26 1379.9 2174.25 1356.86 2144.68 1337.45C2180.74 1337.45 2213.01 1289.22 2213.01 1289.22C2168.75 1217.11 2084.37 1209.9 2084.37 1209.9C2164.78 1194.93 2140.62 1108.3 2140.62 1108.3C2108.44 1056.02 1987.83 1096.23 1987.83 1096.23C2059.94 1052.06 2011.99 979.67 2011.99 979.67C1915.45 947.489 1831.07 1003.74 1831.07 1003.74C1855.14 939.467 1806.91 887.184 1806.91 887.184C1789.64 885.762 1772.25 887.847 1755.8 893.313C1738.06 865.77 1714.87 842.149 1687.65 823.903C1705.96 819.704 1723.07 811.394 1737.69 799.603C1752.31 787.811 1764.05 772.848 1772.03 755.845C1748.22 729.659 1721.2 706.581 1691.62 687.156C1727.68 687.156 1760.04 638.93 1760.04 638.93C1715.78 566.815 1631.31 559.694 1631.31 559.694C1711.72 544.64 1687.65 458.012 1687.65 458.012C1655.47 405.729 1534.41 445.933 1534.41 445.933C1606.52 401.763 1558.48 329.378 1558.48 329.378C1462.03 297.197 1377.56 353.536 1377.56 353.536C1401.72 289.174 1353.49 236.891 1353.49 236.891C1256.95 228.869 1192.68 333.435 1192.68 333.435C1142.83 230.852 1091.63 265.737 1091.63 265.737C1067.91 298.444 1056.83 338.628 1060.44 378.867C1009.24 336.77 941.088 332.263 941.088 332.263C934.253 366.975 931.83 402.411 933.877 437.73C912.333 408.614 854.371 411.498 854.371 411.498C831.114 469.19 856.534 533.552 871.859 563.84C870.416 566.094 868.974 568.347 867.622 570.601C811.373 533.642 752.149 577.362 752.149 577.362C743.134 600.529 756.566 628.383 776.127 653.262C751.22 643.54 725.112 637.233 698.514 634.513C690.256 675.765 687.228 717.893 689.499 759.902C663.899 725.377 595.029 728.802 595.029 728.802C575.198 777.84 585.113 830.934 598.995 870.417C579.398 877.291 561.11 887.441 544.91 900.435C519.062 902.59 494.216 911.411 472.795 926.035C471.765 928.792 470.951 931.625 470.361 934.509C423.847 864.017 381.029 892.592 381.029 892.592C356.338 926.762 344.785 968.685 348.488 1010.68C295.123 966.78 224 962.003 224 962.003C216.894 998.201 214.38 1035.15 216.518 1071.98C193.983 1041.69 133.587 1044.93 133.587 1044.93C101.406 1126.24 163.063 1221.25 163.063 1221.25C100.504 1163.2 27.8488 1217.02 27.8488 1217.02C4.14117 1276.69 125.203 1365.48 125.203 1365.48C43.1731 1332.31 -0.00540924 1404.97 -0.00540924 1404.97C32.987 1505.84 153.238 1539.37 153.238 1539.37C84.2784 1559.11 50.3846 1634.29 50.3846 1634.29C103.569 1720.11 261.41 1674.04 261.41 1674.04C261.41 1674.04 190.557 1713.89 188.484 1778.88C188.484 1778.88 274.48 1801.96 320.634 1764.28C320.634 1764.28 305.94 1833.33 341.547 1876.41C341.547 1876.41 406.54 1843.96 408.703 1808.27C408.703 1808.27 452.693 1890.03 500.92 1900.57C511.845 1893.43 520.949 1883.84 527.507 1872.55C534.065 1861.27 537.894 1848.61 538.69 1835.58C538.69 1835.58 637.216 1934.11 693.826 1925.72C693.826 1925.72 712.756 1860.73 698.063 1827.11C698.063 1827.11 771.439 1839.73 811.282 1835.58C811.282 1835.58 819.666 1785.19 802.899 1753.73C802.899 1753.73 869.966 1785.19 918.192 1762.11C918.192 1762.11 914.046 1703.43 901.426 1678.28C927.643 1685.75 954.753 1689.63 982.014 1689.82C991.23 1696.74 1001.74 1701.74 1012.93 1704.51C1025.39 1696.37 1035.77 1685.43 1043.25 1672.57C1050.73 1659.7 1055.1 1645.27 1056.02 1630.41C1056.02 1630.41 1168.34 1742.82 1232.88 1733.27C1240.76 1705.21 1244.35 1676.13 1243.52 1647C1304.82 1701.09 1429.03 1665.03 1429.03 1665.03C1429.03 1665.03 1361.07 1703.25 1359.08 1765.54C1359.08 1765.54 1441.56 1787.71 1485.28 1751.48C1485.28 1751.48 1471.22 1817.73 1505.38 1859.02C1505.38 1859.02 1567.67 1827.92 1569.75 1793.66C1569.75 1793.66 1611.93 1872.09 1658.18 1882.18C1668.63 1875.32 1677.34 1866.1 1683.6 1855.27C1689.86 1844.44 1693.5 1832.29 1694.23 1819.8C1694.23 1819.8 1788.88 1914.45 1843.15 1906.34C1843.15 1906.34 1861.18 1844.05 1847.12 1811.87C1847.12 1811.87 1917.52 1823.95 1955.29 1819.89C1955.29 1819.89 1963.4 1771.67 1947.27 1741.56C1947.27 1741.56 2011.63 1771.67 2057.87 1749.58C2057.87 1749.58 2053.81 1693.24 2041.74 1669.18C2041.74 1669.18 2102.04 1687.2 2144.32 1677.2C2128.18 1608.87 2084.01 1594.09 2084.01 1594.09C2172.8 1609.41 2225.09 1578.67 2225.09 1578.67Z" fill="white"/>
</mask>
<g mask="url(#mask2_13_5060)">
<path opacity="0.2" d="M2225.09 1578.67C2204.99 1514.4 2140.62 1474.2 2140.62 1474.2C2158.95 1469.99 2176.08 1461.67 2190.72 1449.87C2205.35 1438.06 2217.1 1423.07 2225.09 1406.05C2201.26 1379.9 2174.25 1356.86 2144.68 1337.45C2180.74 1337.45 2213.01 1289.22 2213.01 1289.22C2168.75 1217.11 2084.37 1209.9 2084.37 1209.9C2164.78 1194.93 2140.62 1108.3 2140.62 1108.3C2108.44 1056.02 1987.83 1096.23 1987.83 1096.23C2059.94 1052.06 2011.99 979.67 2011.99 979.67C1915.45 947.489 1831.07 1003.74 1831.07 1003.74C1855.14 939.467 1806.91 887.184 1806.91 887.184C1789.64 885.762 1772.25 887.847 1755.8 893.313C1738.06 865.77 1714.87 842.149 1687.65 823.903C1705.96 819.704 1723.07 811.394 1737.69 799.603C1752.31 787.811 1764.05 772.848 1772.03 755.845C1748.22 729.659 1721.2 706.581 1691.62 687.156C1727.68 687.156 1760.04 638.93 1760.04 638.93C1715.78 566.815 1631.31 559.694 1631.31 559.694C1711.72 544.64 1687.65 458.012 1687.65 458.012C1655.47 405.729 1534.41 445.933 1534.41 445.933C1606.52 401.763 1558.48 329.378 1558.48 329.378C1462.03 297.197 1377.56 353.536 1377.56 353.536C1401.72 289.174 1353.49 236.891 1353.49 236.891C1256.95 228.869 1192.68 333.435 1192.68 333.435C1142.83 230.852 1091.63 265.737 1091.63 265.737C1067.91 298.444 1056.83 338.628 1060.44 378.867C1009.24 336.77 941.088 332.263 941.088 332.263C934.253 366.975 931.83 402.411 933.877 437.73C912.333 408.614 854.371 411.498 854.371 411.498C831.114 469.19 856.534 533.552 871.859 563.84C870.416 566.094 868.974 568.347 867.622 570.601C811.373 533.642 752.149 577.362 752.149 577.362C743.134 600.529 756.566 628.383 776.127 653.262C751.22 643.54 725.112 637.233 698.514 634.513C690.256 675.765 687.228 717.893 689.499 759.902C663.899 725.377 595.029 728.802 595.029 728.802C575.198 777.84 585.113 830.934 598.995 870.417C579.398 877.291 561.11 887.441 544.91 900.435C519.062 902.59 494.216 911.411 472.795 926.035C471.765 928.792 470.951 931.625 470.361 934.509C423.847 864.017 381.029 892.592 381.029 892.592C356.338 926.762 344.785 968.685 348.488 1010.68C295.123 966.78 224 962.003 224 962.003C216.894 998.201 214.38 1035.15 216.518 1071.98C193.983 1041.69 133.587 1044.93 133.587 1044.93C101.406 1126.24 163.063 1221.25 163.063 1221.25C100.504 1163.2 27.8488 1217.02 27.8488 1217.02C4.14117 1276.69 125.203 1365.48 125.203 1365.48C43.1731 1332.31 -0.00540924 1404.97 -0.00540924 1404.97C32.987 1505.84 153.238 1539.37 153.238 1539.37C84.2784 1559.11 50.3846 1634.29 50.3846 1634.29C103.569 1720.11 261.41 1674.04 261.41 1674.04C261.41 1674.04 190.557 1713.89 188.484 1778.88C188.484 1778.88 274.48 1801.96 320.634 1764.28C320.634 1764.28 305.94 1833.33 341.547 1876.41C341.547 1876.41 406.54 1843.96 408.703 1808.27C408.703 1808.27 452.693 1890.03 500.92 1900.57C511.845 1893.43 520.949 1883.84 527.507 1872.55C534.065 1861.27 537.894 1848.61 538.69 1835.58C538.69 1835.58 637.216 1934.11 693.826 1925.72C693.826 1925.72 712.756 1860.73 698.063 1827.11C698.063 1827.11 771.439 1839.73 811.282 1835.58C811.282 1835.58 819.666 1785.19 802.899 1753.73C802.899 1753.73 869.966 1785.19 918.192 1762.11C918.192 1762.11 914.046 1703.43 901.426 1678.28C927.643 1685.75 954.753 1689.63 982.014 1689.82C991.23 1696.74 1001.74 1701.74 1012.93 1704.51C1025.39 1696.37 1035.77 1685.43 1043.25 1672.57C1050.73 1659.7 1055.1 1645.27 1056.02 1630.41C1056.02 1630.41 1168.34 1742.82 1232.88 1733.27C1240.76 1705.21 1244.35 1676.13 1243.52 1647C1304.82 1701.09 1429.03 1665.03 1429.03 1665.03C1429.03 1665.03 1361.07 1703.25 1359.08 1765.54C1359.08 1765.54 1441.56 1787.71 1485.28 1751.48C1485.28 1751.48 1471.22 1817.73 1505.38 1859.02C1505.38 1859.02 1567.67 1827.92 1569.75 1793.66C1569.75 1793.66 1611.93 1872.09 1658.18 1882.18C1668.63 1875.32 1677.34 1866.1 1683.6 1855.27C1689.86 1844.44 1693.5 1832.29 1694.23 1819.8C1694.23 1819.8 1788.88 1914.45 1843.15 1906.34C1843.15 1906.34 1861.18 1844.05 1847.12 1811.87C1847.12 1811.87 1917.52 1823.95 1955.29 1819.89C1955.29 1819.89 1963.4 1771.67 1947.27 1741.56C1947.27 1741.56 2011.63 1771.67 2057.87 1749.58C2057.87 1749.58 2053.81 1693.24 2041.74 1669.18C2041.74 1669.18 2102.04 1687.2 2144.32 1677.2C2128.18 1608.87 2084.01 1594.09 2084.01 1594.09C2172.8 1609.41 2225.09 1578.67 2225.09 1578.67Z" fill="white"/>
<g opacity="0.2">
<path d="M1683.06 573.937H1682.25L1682.88 574.928L1683.06 573.937Z" fill="black"/>
<path d="M1118.85 260.148C1109.52 258.817 1100 260.624 1091.81 265.286C1082.32 278.32 1074.82 292.689 1069.54 307.924C1083.82 289.913 1100.4 273.851 1118.85 260.148Z" fill="black"/>
<path d="M2225.09 1578.67C2204.99 1514.4 2140.62 1474.2 2140.62 1474.2C2143.15 1473.56 2145.4 1472.75 2147.74 1472.03C2130.91 1465.66 2114.61 1457.97 2098.98 1449.05C2098.98 1449.05 2143.06 1483.93 2133.32 1567.94C2081.4 1562.09 2020.37 1516.92 2020.37 1516.92C2024.25 1549.2 2005.77 1614.73 2005.77 1614.73C1944.29 1620.86 1883.72 1560.64 1883.72 1560.64C1889.57 1601.39 1860.73 1652.77 1860.73 1652.77C1815.66 1641.77 1740.93 1599.31 1740.93 1599.31C1743.72 1641.5 1697.75 1704.78 1697.75 1704.78C1632.94 1691.44 1564.43 1545.77 1564.43 1545.77C1558.46 1559.62 1549.34 1571.89 1537.79 1581.6C1526.24 1591.3 1512.58 1598.17 1497.9 1601.66C1449.59 1571.37 1433.81 1465.18 1433.81 1465.18C1417.59 1503.13 1334.2 1512.96 1334.2 1512.96C1312.3 1452.2 1355.3 1382.79 1355.3 1382.79C1290.39 1405.78 1206.02 1346.73 1206.02 1346.73C1215.75 1323.72 1232.3 1304.25 1253.43 1290.93C1196.1 1291.66 1104.88 1200.79 1104.88 1200.79C1104.08 1213.82 1100.25 1226.48 1093.7 1237.76C1087.14 1249.05 1078.03 1258.64 1067.11 1265.79C1036.82 1259.2 1008.16 1224.5 991.028 1199.62C978.144 1204.86 964.848 1209.02 951.275 1212.06C943.028 1219.33 934.194 1225.9 924.863 1231.71C938.081 1250.19 949.75 1269.72 959.748 1290.12C923.691 1329.43 849.593 1325.19 849.593 1325.19C876.636 1348.18 887.724 1398.03 887.724 1398.03C852.298 1416.68 779.552 1432.28 779.552 1432.28C805.604 1457.97 812.274 1525.31 812.274 1525.31C762.876 1554.15 634.692 1499.35 634.692 1499.35C638.8 1511.73 639.961 1524.9 638.084 1537.81C636.206 1550.72 631.341 1563.01 623.875 1573.71C575.198 1581.83 504.345 1522.24 504.345 1522.24C515.613 1556.05 467.387 1610.4 467.387 1610.4C418.259 1583.36 406.179 1514.04 406.179 1514.04C377.424 1566.23 288.993 1577.14 288.993 1577.14C266.818 1516.02 317.749 1452.74 317.749 1452.74C317.749 1452.74 188.304 1554.15 106.994 1494.3C106.994 1494.3 110.6 1411.91 167.21 1368.1C134.51 1370.53 101.636 1367.29 70.0358 1358.54C55.8743 1361.29 42.4123 1366.86 30.4551 1374.93C18.4979 1383 8.29113 1393.4 0.445312 1405.51C33.4377 1506.38 153.689 1539.91 153.689 1539.91C84.7291 1559.65 50.8353 1634.83 50.8353 1634.83C104.02 1720.65 261.86 1674.58 261.86 1674.58C261.86 1674.58 191.008 1714.43 188.935 1779.42C188.935 1779.42 274.931 1802.5 321.084 1764.82C321.084 1764.82 306.391 1833.87 341.998 1876.96C341.998 1876.96 406.991 1844.5 409.154 1808.81C409.154 1808.81 453.144 1890.57 501.371 1901.11C512.295 1893.97 521.4 1884.38 527.958 1873.09C534.516 1861.81 538.345 1849.15 539.141 1836.12C539.141 1836.12 637.667 1934.65 694.277 1926.26C694.277 1926.26 713.207 1861.27 698.514 1827.65C698.514 1827.65 771.89 1840.27 811.733 1836.12C811.733 1836.12 820.117 1785.73 803.35 1754.27C803.35 1754.27 870.416 1785.73 918.643 1762.65C918.643 1762.65 914.496 1703.97 901.876 1678.82C928.093 1686.29 955.203 1690.18 982.464 1690.36C991.681 1697.28 1002.2 1702.28 1013.38 1705.05C1025.84 1696.91 1036.22 1685.97 1043.7 1673.11C1051.18 1660.24 1055.56 1645.81 1056.47 1630.95C1056.47 1630.95 1168.79 1743.36 1233.33 1733.81C1241.22 1705.75 1244.8 1676.67 1243.97 1647.54C1305.27 1701.63 1429.48 1665.57 1429.48 1665.57C1429.48 1665.57 1361.52 1703.79 1359.53 1766.08C1359.53 1766.08 1442.01 1788.25 1485.73 1752.02C1485.73 1752.02 1471.67 1818.27 1505.84 1859.56C1505.84 1859.56 1568.12 1828.46 1570.2 1794.2C1570.2 1794.2 1612.38 1872.63 1658.63 1882.72C1669.09 1875.86 1677.79 1866.64 1684.05 1855.81C1690.31 1844.98 1693.95 1832.83 1694.69 1820.35C1694.69 1820.35 1788.88 1914.45 1843.15 1906.34C1843.15 1906.34 1861.18 1844.05 1847.12 1811.87C1847.12 1811.87 1917.52 1823.95 1955.29 1819.89C1955.29 1819.89 1963.4 1771.67 1947.27 1741.56C1947.27 1741.56 2011.63 1771.67 2057.87 1749.58C2057.87 1749.58 2053.82 1693.24 2041.74 1669.18C2041.74 1669.18 2102.04 1687.2 2144.32 1677.2C2128.18 1608.87 2084.01 1594.09 2084.01 1594.09C2172.8 1609.41 2225.09 1578.67 2225.09 1578.67Z" fill="black"/>
<path d="M25.1445 1228.47C40.9725 1220.15 58.6524 1216 76.5261 1216.39C76.5261 1216.39 63.8159 1213.14 45.9676 1206.92C39.6706 1209.85 33.6386 1213.32 27.939 1217.29C26.5133 1220.87 25.5735 1224.63 25.1445 1228.47Z" fill="black"/>
<path d="M1326.36 1261.37C1306.67 1259.75 1287.12 1256.74 1267.86 1252.35C1266.28 1263.76 1264.08 1275.08 1261.28 1286.25C1281.46 1274.44 1303.45 1266.04 1326.36 1261.37Z" fill="black"/>
</g>
</g>
<path d="M614.049 1390.18C617.298 1389.28 620.741 1389.35 623.948 1390.39C627.155 1391.43 629.984 1393.4 632.078 1396.04L826.427 1646.82L808.398 1353.76C808.155 1350.51 808.881 1347.26 810.486 1344.42C812.09 1341.58 814.501 1339.28 817.412 1337.81C819.828 1336.66 822.487 1336.12 825.16 1336.23C827.833 1336.33 830.439 1337.09 832.755 1338.43C835.07 1339.77 837.025 1341.65 838.451 1343.91C839.877 1346.18 840.731 1348.75 840.94 1351.42C846.168 1419.93 862.754 1616.44 886.011 1687.11C910.891 1763.74 1040.43 1969.98 1040.43 1969.98C1040.43 1969.98 1155.9 1825.75 1164.55 1766.8C1178.53 1670.35 1087.84 1423.26 1054.4 1336.73C1053.13 1333.43 1052.71 1329.86 1053.17 1326.36C1053.63 1322.86 1054.96 1319.52 1057.04 1316.67C1059.12 1313.81 1061.88 1311.51 1065.07 1310C1068.26 1308.48 1071.78 1307.78 1075.31 1307.97C1079.32 1308.2 1083.18 1309.55 1086.45 1311.88C1089.72 1314.21 1092.27 1317.42 1093.79 1321.13L1234.77 1663.68C1234.77 1663.68 1302.74 1570.11 1312.21 1524.77C1322.12 1476.63 1294.18 1350.07 1282.82 1300.58C1281.4 1295 1282.17 1289.09 1284.97 1284.07C1287.77 1279.04 1292.39 1275.27 1297.87 1273.54C1300.89 1272.57 1304.07 1272.25 1307.21 1272.59C1310.36 1272.94 1313.4 1273.93 1316.13 1275.52C1318.87 1277.11 1321.24 1279.25 1323.09 1281.82C1324.95 1284.38 1326.24 1287.3 1326.9 1290.39L1371.43 1502.77L1652.23 1366.93C1655.1 1365.48 1658.34 1364.9 1661.54 1365.25C1664.73 1365.6 1667.76 1366.87 1670.26 1368.91C1672.41 1370.59 1674.11 1372.78 1675.21 1375.28C1676.32 1377.77 1676.8 1380.5 1676.6 1383.23C1676.4 1385.95 1675.54 1388.59 1674.09 1390.9C1672.64 1393.21 1670.64 1395.13 1668.27 1396.49C1608.96 1430.57 1442.92 1527.92 1393.16 1580.29C1297.78 1679.9 1177.44 1939.6 1147.97 2074.28C1080.45 2382.48 1185.11 3336.28 1185.11 3336.28H877.718C877.718 3336.28 990.307 2355.25 938.204 2033.44C925.133 1952.31 821.018 1728.13 821.018 1728.13L604.675 1415.78C603.251 1413.56 602.361 1411.04 602.074 1408.42C601.786 1405.79 602.109 1403.14 603.016 1400.66C603.924 1398.18 605.392 1395.95 607.306 1394.13C609.219 1392.31 611.527 1390.96 614.049 1390.18Z" fill="#999999"/>
<path d="M3640.15 3427.78C3577.05 3394.15 3509.27 3362.87 3449.5 3336.82H591.964C591.964 3336.82 240.406 3522.34 404.647 3522.34C568.888 3522.34 889.797 3484.39 817.052 3557.22C744.306 3630.06 1067.92 3601.03 1311.31 3601.03C1554.69 3601.03 1307.25 3728.49 1491.59 3728.49H2791.46C2928.2 3728.49 2674.27 3532.79 2830.4 3532.79H3332.68C3612.84 3532.52 3811.97 3518.73 3640.15 3427.78Z" fill="#4CA3FF"/>
<path d="M1182.31 3789.79H773.603C770.124 3789.84 766.705 3788.88 763.759 3787.04C760.812 3785.19 758.463 3782.52 756.996 3779.37C755.528 3776.22 755.005 3772.7 755.488 3769.26C755.972 3765.81 757.442 3762.58 759.721 3759.95L815.429 3694.06C819.007 3689.82 823.466 3686.42 828.495 3684.09C833.523 3681.75 839.001 3680.54 844.545 3680.54H1223.15C1226.09 3680.5 1229 3681.19 1231.62 3682.54C1234.24 3683.89 1236.49 3685.86 1238.17 3688.28C1239.85 3690.7 1240.91 3693.49 1241.26 3696.42C1241.62 3699.34 1241.24 3702.31 1240.18 3705.06L1217.65 3765.09C1214.94 3772.29 1210.11 3778.51 1203.81 3782.92C1197.5 3787.32 1190.01 3789.72 1182.31 3789.79Z" fill="#4CA3FF"/>
<path d="M732.407 3710.02H535.986C532.079 3710.12 528.244 3708.96 525.056 3706.7C521.868 3704.44 519.501 3701.21 518.312 3697.48C517.122 3693.76 517.173 3689.75 518.459 3686.06C519.744 3682.37 522.194 3679.2 525.439 3677.02L546.081 3662.42C552.527 3657.83 560.251 3655.37 568.167 3655.39H760.712C764.421 3655.33 768.057 3656.42 771.124 3658.51C774.191 3660.59 776.54 3663.57 777.851 3667.04C779.162 3670.51 779.371 3674.3 778.45 3677.9C777.528 3681.49 775.521 3684.71 772.701 3687.12L757.738 3700.19C750.796 3706.48 741.774 3709.98 732.407 3710.02Z" fill="#4CA3FF"/>
<path d="M1467.16 3854.69H1257.94C1255.04 3854.72 1252.18 3854.04 1249.6 3852.72C1247.02 3851.4 1244.79 3849.48 1243.11 3847.12C1241.43 3844.76 1240.34 3842.02 1239.94 3839.15C1239.54 3836.28 1239.84 3833.36 1240.81 3830.63L1249.83 3805.39C1252.38 3797.84 1257.23 3791.29 1263.69 3786.65C1270.16 3782.01 1277.92 3779.51 1285.89 3779.51H1490.33C1492.94 3779.49 1495.51 3780.02 1497.89 3781.09C1500.27 3782.15 1502.39 3783.72 1504.1 3785.68C1505.81 3787.64 1507.08 3789.95 1507.82 3792.45C1508.55 3794.95 1508.74 3797.58 1508.36 3800.16L1505.47 3821.7C1504.2 3830.92 1499.61 3839.36 1492.55 3845.44C1485.5 3851.51 1476.47 3854.8 1467.16 3854.69Z" fill="#4CA3FF"/>
<path d="M3253.17 3836.22H3623.75C3630.99 3836.31 3638.06 3834.04 3643.89 3829.74C3649.71 3825.44 3653.97 3819.35 3656.01 3812.41C3658.06 3805.46 3657.77 3798.04 3655.2 3791.27C3652.63 3784.5 3647.91 3778.76 3641.78 3774.92L3599.41 3748.42C3576.82 3734.4 3550.72 3727.05 3524.14 3727.23H3167.26C3161.1 3727.24 3155.06 3728.96 3149.83 3732.2C3144.59 3735.44 3140.36 3740.08 3137.6 3745.59C3134.85 3751.1 3133.69 3757.27 3134.25 3763.41C3134.81 3769.54 3137.06 3775.4 3140.76 3780.33C3153.88 3797.72 3170.87 3811.82 3190.38 3821.52C3209.89 3831.22 3231.38 3836.25 3253.17 3836.22Z" fill="#4CA3FF"/>
<path d="M3220.27 3688.74H3434C3436.04 3688.92 3438.07 3688.39 3439.78 3687.26C3441.48 3686.12 3442.74 3684.44 3443.36 3682.49C3443.98 3680.53 3443.92 3678.43 3443.18 3676.52C3442.45 3674.61 3441.08 3673.01 3439.31 3671.97L3403.26 3646.64C3391.83 3638.52 3378.16 3634.14 3364.14 3634.11H3157.35C3155.42 3633.98 3153.49 3634.47 3151.86 3635.51C3150.23 3636.55 3148.98 3638.09 3148.29 3639.9C3147.6 3641.71 3147.51 3643.7 3148.04 3645.56C3148.57 3647.42 3149.68 3649.07 3151.22 3650.25L3175.47 3671.7C3187.8 3682.69 3203.75 3688.75 3220.27 3688.74Z" fill="#4CA3FF"/>
<path d="M2932.71 3709.2H3122.73C3125.86 3709.2 3128.92 3708.29 3131.55 3706.59C3134.18 3704.89 3136.27 3702.47 3137.56 3699.62C3138.85 3696.77 3139.29 3693.61 3138.84 3690.52C3138.38 3687.42 3137.05 3684.52 3134.99 3682.16L3113.27 3657.64C3106.68 3650.24 3098.6 3644.32 3089.55 3640.26C3080.51 3636.21 3070.71 3634.11 3060.8 3634.11H2877.63C2874.8 3634.11 2872.01 3634.84 2869.54 3636.25C2867.08 3637.65 2865.02 3639.67 2863.58 3642.1C2862.13 3644.54 2861.34 3647.32 2861.29 3650.15C2861.25 3652.99 2861.94 3655.79 2863.3 3658.27L2871.23 3672.79C2877.26 3683.82 2886.15 3693.03 2896.97 3699.44C2907.79 3705.85 2920.14 3709.22 2932.71 3709.2Z" fill="#4CA3FF"/>
<path d="M4057.52 3336.82H79.3205" stroke="#263238" stroke-linecap="round" stroke-linejoin="round"/>
<path d="M3956.83 2840.22C3956.83 2840.22 3998.2 2797.77 3981.89 2757.92C3965.57 2718.08 3932.94 2732.95 3932.94 2732.95C3932.94 2732.95 3979 2669.85 3941.95 2646.87C3904.9 2623.88 3873.53 2661.65 3873.53 2661.65C3873.53 2661.65 3906.8 2576.02 3864.52 2564.3C3822.24 2552.58 3803.04 2591.34 3803.04 2591.34C3803.04 2591.34 3824.14 2499.75 3788.98 2499.75C3753.82 2499.75 3742.11 2556.18 3742.11 2556.18C3742.11 2556.18 3721.1 2499.21 3688.02 2508.59C3654.94 2517.96 3676.3 2584.31 3676.3 2584.31C3676.3 2584.31 3639.61 2541.94 3611.49 2560.69C3595.71 2571.15 3600.31 2589.9 3607.43 2604.23C3603.54 2605.26 3599.74 2606.61 3596.07 2608.29C3592.38 2606.61 3588.55 2605.26 3584.63 2604.23C3591.75 2589.9 3596.34 2571.15 3580.57 2560.69C3552.53 2541.94 3515.85 2584.31 3515.85 2584.31C3515.85 2584.31 3536.85 2517.96 3504.13 2508.59C3471.41 2499.21 3450.04 2556.18 3450.04 2556.18C3450.04 2556.18 3438.32 2499.75 3403.17 2499.75C3368.01 2499.75 3388.92 2591.43 3388.92 2591.43C3388.92 2591.43 3373.51 2560.6 3340.16 2562.4C3339.56 2561.79 3338.89 2561.25 3338.17 2560.78C3310.14 2542.03 3273.45 2584.4 3273.45 2584.4C3273.45 2584.4 3294.45 2518.05 3261.73 2508.68C3229.01 2499.3 3207.65 2556.27 3207.65 2556.27C3207.65 2556.27 3204.76 2526.44 3169.61 2526.44C3134.45 2526.44 3146.71 2591.43 3146.71 2591.43C3141.15 2580.55 3132.01 2571.91 3120.83 2566.99C3109.64 2562.06 3097.1 2561.14 3085.32 2564.39C3043.14 2576.11 3076.31 2661.74 3076.31 2661.74C3076.31 2661.74 3045.3 2623.52 3007.8 2646.96C2970.3 2670.39 3016.81 2733.04 3016.81 2733.04C3016.81 2733.04 2984.27 2718.26 2967.87 2758.01C2951.46 2797.77 2992.84 2840.31 2992.84 2840.31C2880.16 2888.63 3018.08 2966.51 3018.08 2966.51H3931.23C3931.23 2966.51 4069.41 2888.9 3956.83 2840.22Z" fill="#4CA3FF" stroke="#263238" stroke-width="0.75" stroke-linecap="round" stroke-linejoin="round"/>
<path d="M2733.4 2966.15C2733.4 2966.15 2595.49 2888.54 2708.16 2839.95C2708.16 2839.95 2666.79 2797.5 2683.19 2757.65C2699.6 2717.81 2732.14 2732.68 2732.14 2732.68C2732.14 2732.68 2686.08 2669.58 2723.13 2646.6C2760.18 2623.61 2791.64 2661.38 2791.64 2661.38C2791.64 2661.38 2758.28 2575.74 2800.65 2564.03C2812.43 2560.78 2824.97 2561.7 2836.16 2566.62C2847.34 2571.55 2856.48 2580.19 2862.04 2591.07C2862.04 2591.07 2840.94 2499.48 2876.1 2499.48C2911.26 2499.48 2922.97 2555.91 2922.97 2555.91C2922.97 2555.91 2944.07 2498.94 2977.06 2508.32C3010.05 2517.69 2988.78 2584.04 2988.78 2584.04C2988.78 2584.04 3025.47 2541.67 3053.59 2560.42C3081.72 2579.17 3044.58 2623.52 3044.58 2623.52C3044.58 2623.52 3086.49 2585.57 3109.93 2611.26C3133.37 2636.95 3082.08 2679.77 3082.08 2679.77C3082.08 2679.77 3123.99 2666.97 3135.71 2697.8C3147.43 2728.63 3107.32 2750.89 3107.32 2750.89C3107.32 2750.89 3132.74 2748.82 3145.63 2783.98C3158.52 2819.13 3102.18 2825.89 3102.18 2825.89C3102.18 2825.89 3142.02 2820.12 3146.8 2850.59C3151.58 2881.06 3104.52 2893.32 3104.52 2893.32C3104.52 2893.32 3132.83 2888.99 3137.52 2914.32C3142.2 2939.65 3086.76 2965.88 3086.76 2965.88L2733.4 2966.15Z" fill="#4CA3FF"/>
<mask id="mask3_13_5060" style="mask-type:luminance" maskUnits="userSpaceOnUse" x="2663" y="2499" width="485" height="468">
<path d="M2733.4 2966.15C2733.4 2966.15 2595.49 2888.54 2708.16 2839.95C2708.16 2839.95 2666.79 2797.5 2683.19 2757.65C2699.6 2717.81 2732.14 2732.68 2732.14 2732.68C2732.14 2732.68 2686.08 2669.58 2723.13 2646.6C2760.18 2623.61 2791.64 2661.38 2791.64 2661.38C2791.64 2661.38 2758.28 2575.74 2800.65 2564.03C2812.43 2560.78 2824.97 2561.7 2836.16 2566.62C2847.34 2571.55 2856.48 2580.19 2862.04 2591.07C2862.04 2591.07 2840.94 2499.48 2876.1 2499.48C2911.26 2499.48 2922.97 2555.91 2922.97 2555.91C2922.97 2555.91 2944.07 2498.94 2977.06 2508.32C3010.05 2517.69 2988.78 2584.04 2988.78 2584.04C2988.78 2584.04 3025.47 2541.67 3053.59 2560.42C3081.72 2579.17 3044.58 2623.52 3044.58 2623.52C3044.58 2623.52 3086.49 2585.57 3109.93 2611.26C3133.37 2636.95 3082.08 2679.77 3082.08 2679.77C3082.08 2679.77 3123.99 2666.97 3135.71 2697.8C3147.43 2728.63 3107.32 2750.89 3107.32 2750.89C3107.32 2750.89 3132.74 2748.82 3145.63 2783.98C3158.52 2819.13 3102.18 2825.89 3102.18 2825.89C3102.18 2825.89 3142.02 2820.12 3146.8 2850.59C3151.58 2881.06 3104.52 2893.32 3104.52 2893.32C3104.52 2893.32 3132.83 2888.99 3137.52 2914.32C3142.2 2939.65 3086.76 2965.88 3086.76 2965.88L2733.4 2966.15Z" fill="white"/>
</mask>
<g mask="url(#mask3_13_5060)">
<path opacity="0.4" d="M2733.4 2966.15C2733.4 2966.15 2595.49 2888.54 2708.16 2839.95C2708.16 2839.95 2666.79 2797.5 2683.19 2757.65C2699.6 2717.81 2732.14 2732.68 2732.14 2732.68C2732.14 2732.68 2686.08 2669.58 2723.13 2646.6C2760.18 2623.61 2791.64 2661.38 2791.64 2661.38C2791.64 2661.38 2758.28 2575.74 2800.65 2564.03C2812.43 2560.78 2824.97 2561.7 2836.16 2566.62C2847.34 2571.55 2856.48 2580.19 2862.04 2591.07C2862.04 2591.07 2840.94 2499.48 2876.1 2499.48C2911.26 2499.48 2922.97 2555.91 2922.97 2555.91C2922.97 2555.91 2944.07 2498.94 2977.06 2508.32C3010.05 2517.69 2988.78 2584.04 2988.78 2584.04C2988.78 2584.04 3025.47 2541.67 3053.59 2560.42C3081.72 2579.17 3044.58 2623.52 3044.58 2623.52C3044.58 2623.52 3086.49 2585.57 3109.93 2611.26C3133.37 2636.95 3082.08 2679.77 3082.08 2679.77C3082.08 2679.77 3123.99 2666.97 3135.71 2697.8C3147.43 2728.63 3107.32 2750.89 3107.32 2750.89C3107.32 2750.89 3132.74 2748.82 3145.63 2783.98C3158.52 2819.13 3102.18 2825.89 3102.18 2825.89C3102.18 2825.89 3142.02 2820.12 3146.8 2850.59C3151.58 2881.06 3104.52 2893.32 3104.52 2893.32C3104.52 2893.32 3132.83 2888.99 3137.52 2914.32C3142.2 2939.65 3086.76 2965.88 3086.76 2965.88L2733.4 2966.15Z" fill="white"/>
</g>
<path d="M2733.4 2966.15C2733.4 2966.15 2595.49 2888.54 2708.16 2839.95C2708.16 2839.95 2666.79 2797.5 2683.19 2757.65C2699.6 2717.81 2732.14 2732.68 2732.14 2732.68C2732.14 2732.68 2686.08 2669.58 2723.13 2646.6C2760.18 2623.61 2791.64 2661.38 2791.64 2661.38C2791.64 2661.38 2758.28 2575.74 2800.65 2564.03C2812.43 2560.78 2824.97 2561.7 2836.16 2566.62C2847.34 2571.55 2856.48 2580.19 2862.04 2591.07C2862.04 2591.07 2840.94 2499.48 2876.1 2499.48C2911.26 2499.48 2922.97 2555.91 2922.97 2555.91C2922.97 2555.91 2944.07 2498.94 2977.06 2508.32C3010.05 2517.69 2988.78 2584.04 2988.78 2584.04C2988.78 2584.04 3025.47 2541.67 3053.59 2560.42C3081.72 2579.17 3044.58 2623.52 3044.58 2623.52C3044.58 2623.52 3086.49 2585.57 3109.93 2611.26C3133.37 2636.95 3082.08 2679.77 3082.08 2679.77C3082.08 2679.77 3123.99 2666.97 3135.71 2697.8C3147.43 2728.63 3107.32 2750.89 3107.32 2750.89C3107.32 2750.89 3132.74 2748.82 3145.63 2783.98C3158.52 2819.13 3102.18 2825.89 3102.18 2825.89C3102.18 2825.89 3142.02 2820.12 3146.8 2850.59C3151.58 2881.06 3104.52 2893.32 3104.52 2893.32C3104.52 2893.32 3132.83 2888.99 3137.52 2914.32C3142.2 2939.65 3086.76 2965.88 3086.76 2965.88L2733.4 2966.15Z" stroke="#263238" stroke-width="0.75" stroke-linecap="round" stroke-linejoin="round"/>
<path d="M3664.13 2966.15C3664.13 2966.15 3807.46 2888.54 3698.12 2839.95C3698.12 2839.95 3742.47 2797.5 3728.85 2757.65C3715.24 2717.81 3681.71 2732.68 3681.71 2732.68C3681.71 2732.68 3732.19 2669.58 3696.31 2646.6C3660.44 2623.61 3626.81 2661.38 3626.81 2661.38C3626.81 2661.38 3666.11 2575.74 3624.74 2564.03C3583.36 2552.31 3561.64 2591.07 3561.64 2591.07C3561.64 2591.07 3589.13 2499.48 3553.98 2499.48C3518.82 2499.48 3503.23 2555.91 3503.23 2555.91C3503.23 2555.91 3486.1 2498.94 3452.66 2508.32C3419.21 2517.69 3435.62 2584.04 3435.62 2584.04C3435.62 2584.04 3401.91 2541.67 3372.52 2560.42C3343.13 2579.17 3376.67 2623.52 3376.67 2623.52C3376.67 2623.52 3337.36 2585.57 3312.21 2611.26C3287.06 2636.95 3335.2 2679.77 3335.2 2679.77C3335.2 2679.77 3294.18 2666.97 3280.39 2697.8C3266.6 2728.63 3305 2750.89 3305 2750.89C3305 2750.89 3279.76 2748.82 3264.35 2783.98C3248.93 2819.13 3305 2825.89 3305 2825.89C3305 2825.89 3265.43 2820.12 3258.58 2850.59C3251.73 2881.06 3297.88 2893.32 3297.88 2893.32C3297.88 2893.32 3269.85 2888.99 3263.45 2914.32C3257.05 2939.65 3310.59 2965.88 3310.59 2965.88L3664.13 2966.15Z" fill="#4CA3FF"/>
<mask id="mask4_13_5060" style="mask-type:luminance" maskUnits="userSpaceOnUse" x="3257" y="2499" width="483" height="468">
<path d="M3664.13 2966.15C3664.13 2966.15 3807.46 2888.54 3698.12 2839.95C3698.12 2839.95 3742.47 2797.5 3728.85 2757.65C3715.24 2717.81 3681.71 2732.68 3681.71 2732.68C3681.71 2732.68 3732.19 2669.58 3696.31 2646.6C3660.44 2623.61 3626.81 2661.38 3626.81 2661.38C3626.81 2661.38 3666.11 2575.74 3624.74 2564.03C3583.36 2552.31 3561.64 2591.07 3561.64 2591.07C3561.64 2591.07 3589.13 2499.48 3553.98 2499.48C3518.82 2499.48 3503.23 2555.91 3503.23 2555.91C3503.23 2555.91 3486.1 2498.94 3452.66 2508.32C3419.21 2517.69 3435.62 2584.04 3435.62 2584.04C3435.62 2584.04 3401.91 2541.67 3372.52 2560.42C3343.13 2579.17 3376.67 2623.52 3376.67 2623.52C3376.67 2623.52 3337.36 2585.57 3312.21 2611.26C3287.06 2636.95 3335.2 2679.77 3335.2 2679.77C3335.2 2679.77 3294.18 2666.97 3280.39 2697.8C3266.6 2728.63 3305 2750.89 3305 2750.89C3305 2750.89 3279.76 2748.82 3264.35 2783.98C3248.93 2819.13 3305 2825.89 3305 2825.89C3305 2825.89 3265.43 2820.12 3258.58 2850.59C3251.73 2881.06 3297.88 2893.32 3297.88 2893.32C3297.88 2893.32 3269.85 2888.99 3263.45 2914.32C3257.05 2939.65 3310.59 2965.88 3310.59 2965.88L3664.13 2966.15Z" fill="white"/>
</mask>
<g mask="url(#mask4_13_5060)">
<path opacity="0.4" d="M3664.13 2966.15C3664.13 2966.15 3807.46 2888.54 3698.12 2839.95C3698.12 2839.95 3742.47 2797.5 3728.85 2757.65C3715.24 2717.81 3681.71 2732.68 3681.71 2732.68C3681.71 2732.68 3732.19 2669.58 3696.31 2646.6C3660.44 2623.61 3626.81 2661.38 3626.81 2661.38C3626.81 2661.38 3666.11 2575.74 3624.74 2564.03C3583.36 2552.31 3561.64 2591.07 3561.64 2591.07C3561.64 2591.07 3589.13 2499.48 3553.98 2499.48C3518.82 2499.48 3503.23 2555.91 3503.23 2555.91C3503.23 2555.91 3486.1 2498.94 3452.66 2508.32C3419.21 2517.69 3435.62 2584.04 3435.62 2584.04C3435.62 2584.04 3401.91 2541.67 3372.52 2560.42C3343.13 2579.17 3376.67 2623.52 3376.67 2623.52C3376.67 2623.52 3337.36 2585.57 3312.21 2611.26C3287.06 2636.95 3335.2 2679.77 3335.2 2679.77C3335.2 2679.77 3294.18 2666.97 3280.39 2697.8C3266.6 2728.63 3305 2750.89 3305 2750.89C3305 2750.89 3279.76 2748.82 3264.35 2783.98C3248.93 2819.13 3305 2825.89 3305 2825.89C3305 2825.89 3265.43 2820.12 3258.58 2850.59C3251.73 2881.06 3297.88 2893.32 3297.88 2893.32C3297.88 2893.32 3269.85 2888.99 3263.45 2914.32C3257.05 2939.65 3310.59 2965.88 3310.59 2965.88L3664.13 2966.15Z" fill="white"/>
</g>
<path d="M3664.13 2966.15C3664.13 2966.15 3807.46 2888.54 3698.12 2839.95C3698.12 2839.95 3742.47 2797.5 3728.85 2757.65C3715.24 2717.81 3681.71 2732.68 3681.71 2732.68C3681.71 2732.68 3732.19 2669.58 3696.31 2646.6C3660.44 2623.61 3626.81 2661.38 3626.81 2661.38C3626.81 2661.38 3666.11 2575.74 3624.74 2564.03C3583.36 2552.31 3561.64 2591.07 3561.64 2591.07C3561.64 2591.07 3589.13 2499.48 3553.98 2499.48C3518.82 2499.48 3503.23 2555.91 3503.23 2555.91C3503.23 2555.91 3486.1 2498.94 3452.66 2508.32C3419.21 2517.69 3435.62 2584.04 3435.62 2584.04C3435.62 2584.04 3401.91 2541.67 3372.52 2560.42C3343.13 2579.17 3376.67 2623.52 3376.67 2623.52C3376.67 2623.52 3337.36 2585.57 3312.21 2611.26C3287.06 2636.95 3335.2 2679.77 3335.2 2679.77C3335.2 2679.77 3294.18 2666.97 3280.39 2697.8C3266.6 2728.63 3305 2750.89 3305 2750.89C3305 2750.89 3279.76 2748.82 3264.35 2783.98C3248.93 2819.13 3305 2825.89 3305 2825.89C3305 2825.89 3265.43 2820.12 3258.58 2850.59C3251.73 2881.06 3297.88 2893.32 3297.88 2893.32C3297.88 2893.32 3269.85 2888.99 3263.45 2914.32C3257.05 2939.65 3310.59 2965.88 3310.59 2965.88L3664.13 2966.15Z" stroke="#263238" stroke-width="0.75" stroke-linecap="round" stroke-linejoin="round"/>
<path d="M2640.74 2978.05H4025.79V3314.02C4025.79 3320.04 4023.39 3325.82 4019.13 3330.08C4014.87 3334.34 4009.09 3336.73 4003.07 3336.73H2663.09C2657.07 3336.73 2651.29 3334.34 2647.03 3330.08C2642.77 3325.82 2640.38 3320.04 2640.38 3314.02V2978.05H2640.74Z" fill="#999999" stroke="#263238" stroke-width="0.75" stroke-linecap="round" stroke-linejoin="round"/>
<path d="M4046.07 2941.45H2620.09C2610.58 2941.45 2602.88 2949.16 2602.88 2958.67V2997.43C2602.88 3006.94 2610.58 3014.65 2620.09 3014.65H4046.07C4055.58 3014.65 4063.28 3006.94 4063.28 2997.43V2958.67C4063.28 2949.16 4055.58 2941.45 4046.07 2941.45Z" fill="#757575" stroke="#263238" stroke-width="0.75" stroke-linecap="round" stroke-linejoin="round"/>
<path d="M1569.66 2081.31C1568.94 2080.04 1567.97 2078.93 1566.82 2078.03C1565.67 2077.14 1564.35 2076.48 1562.94 2076.09C1561.54 2075.71 1560.07 2075.6 1558.62 2075.79C1557.17 2075.97 1555.78 2076.44 1554.51 2077.16C1533.74 2088.87 1515.62 2104.74 1501.28 2123.79C1486.95 2142.85 1476.71 2164.66 1471.22 2187.86L1390.09 2540.95C1387.03 2553.73 1379.82 2565.13 1369.6 2573.38C1359.37 2581.63 1346.71 2586.27 1333.57 2586.56H989.225C977.725 2586.31 966.547 2590.37 957.89 2597.94C949.232 2605.52 943.721 2616.06 942.441 2627.49C942.038 2633.45 942.841 2639.44 944.802 2645.09C946.764 2650.74 949.842 2655.93 953.855 2660.37C957.868 2664.8 962.733 2668.38 968.159 2670.89C973.585 2673.41 979.462 2674.8 985.439 2674.99C993.472 2675.16 1001.32 2672.57 1007.67 2667.65C1014.02 2662.73 1018.49 2655.77 1020.32 2647.95C1021.9 2640.9 1021.22 2633.54 1018.37 2626.9C1015.52 2620.27 1010.65 2614.7 1004.46 2610.99C1004.19 2610.81 1003.99 2610.55 1003.88 2610.24C1003.78 2609.94 1003.77 2609.61 1003.86 2609.3C1003.95 2608.99 1004.13 2608.72 1004.38 2608.52C1004.64 2608.32 1004.95 2608.21 1005.27 2608.2H1311.76C1381.98 2608.2 1443.37 2661.11 1448.05 2731.15C1449.26 2749.18 1446.76 2767.27 1440.69 2784.3C1434.63 2801.32 1425.13 2816.92 1412.8 2830.13C1400.46 2843.34 1385.54 2853.87 1368.97 2861.08C1352.39 2868.29 1334.52 2872.02 1316.44 2872.05H986.881C984.102 2872.3 981.516 2873.58 979.633 2875.64C977.75 2877.7 976.706 2880.39 976.706 2883.18C976.706 2885.97 977.75 2888.66 979.633 2890.72C981.516 2892.78 984.102 2894.06 986.881 2894.31H1076.3C1058.45 2909.13 1046.73 2930.04 1043.4 2952.99L953.258 3580.66C952.814 3583.51 953.511 3586.43 955.197 3588.77C956.884 3591.12 959.425 3592.7 962.272 3593.19C965.13 3593.59 968.032 3592.88 970.38 3591.2C972.728 3589.52 974.343 3587.01 974.892 3584.18L1032.4 3181.15H1411.91L1469.51 3584.18C1469.88 3586.81 1471.18 3589.23 1473.18 3590.98C1475.19 3592.74 1477.75 3593.71 1480.41 3593.73H1482.04C1484.88 3593.24 1487.43 3591.66 1489.11 3589.31C1490.8 3586.97 1491.5 3584.05 1491.05 3581.2L1401.45 2953.53C1399.47 2940.28 1394.69 2927.59 1387.43 2916.33C1380.18 2905.06 1370.6 2895.46 1359.35 2888.18C1389.94 2878.98 1416.91 2860.49 1436.52 2835.28C1456.14 2810.07 1467.43 2779.38 1468.82 2747.47C1470.22 2715.56 1461.66 2684 1444.32 2657.18C1426.98 2630.35 1401.73 2609.58 1372.06 2597.74C1381.65 2592.18 1390 2584.71 1396.59 2575.79C1403.18 2566.88 1407.87 2556.71 1410.37 2545.91L1491.5 2192.82C1496.3 2172.62 1505.22 2153.63 1517.71 2137.05C1530.2 2120.47 1545.98 2106.64 1564.07 2096.45C1565.45 2095.85 1566.7 2094.98 1567.73 2093.88C1568.77 2092.78 1569.57 2091.49 1570.09 2090.07C1570.62 2088.66 1570.85 2087.15 1570.77 2085.65C1570.7 2084.14 1570.32 2082.67 1569.66 2081.31ZM998.96 2641.01C998.937 2644.24 997.634 2647.34 995.338 2649.62C993.041 2651.9 989.937 2653.18 986.701 2653.18C981.854 2653.17 977.144 2651.57 973.291 2648.63C969.438 2645.69 966.654 2641.57 965.366 2636.9C964.078 2632.22 964.356 2627.26 966.158 2622.76C967.959 2618.26 971.186 2614.47 975.343 2611.98C976.334 2611.35 977.056 2611.98 976.695 2613.06C975.969 2614.49 975.598 2616.06 975.613 2617.66C975.613 2620.6 976.782 2623.42 978.861 2625.5C980.94 2627.58 983.76 2628.75 986.701 2628.75C989.952 2628.75 993.071 2630.04 995.37 2632.34C997.669 2634.64 998.96 2637.76 998.96 2641.01ZM1380.63 2956.51L1409.56 3159.33H1036.19L1065.13 2956.87C1067.6 2939.71 1076.16 2924.02 1089.26 2912.67C1102.35 2901.31 1119.1 2895.05 1136.43 2895.03H1309.32C1326.63 2895.04 1343.35 2901.28 1356.44 2912.6C1369.53 2923.92 1378.12 2939.57 1380.63 2956.69V2956.51Z" fill="#999999" stroke="#263238" stroke-linecap="round" stroke-linejoin="round"/>
<path d="M1449.86 2038.67L1264.52 2837.61H846.168L816.601 2932.17H3370.17L3570.29 2038.67H1449.86Z" fill="#4CA3FF"/>
<mask id="mask5_13_5060" style="mask-type:luminance" maskUnits="userSpaceOnUse" x="816" y="2038" width="2755" height="895">
<path d="M1449.86 2038.67L1264.52 2837.61H846.168L816.601 2932.17H3370.17L3570.29 2038.67H1449.86Z" fill="white"/>
</mask>
<g mask="url(#mask5_13_5060)">
<path opacity="0.2" d="M1449.86 2038.67L1264.52 2837.61H846.168L816.601 2932.17H3370.17L3570.29 2038.67H1449.86Z" fill="black"/>
</g>
<path d="M1449.86 2038.67L1264.52 2837.61H846.168L816.601 2932.17H3370.17L3570.29 2038.67H1449.86Z" stroke="#263238" stroke-linecap="round" stroke-linejoin="round"/>
<path d="M3370.18 2932.17L3391.36 2837.61H1264.52H846.168L816.601 2932.17H3370.18Z" fill="#4CA3FF"/>
<mask id="mask6_13_5060" style="mask-type:luminance" maskUnits="userSpaceOnUse" x="816" y="2837" width="2576" height="96">
<path d="M3370.18 2932.17L3391.36 2837.61H1264.52H846.168L816.601 2932.17H3370.18Z" fill="white"/>
</mask>
<g mask="url(#mask6_13_5060)">
<path opacity="0.3" d="M3370.18 2932.17L3391.36 2837.61H1264.52H846.168L816.601 2932.17H3370.18Z" fill="black"/>
</g>
<path d="M3370.18 2932.17L3391.36 2837.61H1264.52H846.168L816.601 2932.17H3370.18Z" stroke="#263238" stroke-linecap="round" stroke-linejoin="round"/>
<path d="M3475.73 2038.67L3290.4 2837.61H2872.04L2842.48 2932.17H3370.17L3570.29 2038.67H3475.73Z" fill="#4CA3FF" stroke="#263238" stroke-linecap="round" stroke-linejoin="round"/>
<path d="M3580.66 2081.31C3579.94 2080.04 3578.97 2078.93 3577.82 2078.03C3576.67 2077.14 3575.35 2076.48 3573.95 2076.09C3572.54 2075.71 3571.07 2075.6 3569.62 2075.79C3568.18 2075.97 3566.78 2076.44 3565.52 2077.16C3544.76 2088.87 3526.65 2104.75 3512.33 2123.8C3498.01 2142.85 3487.79 2164.66 3482.31 2187.86L3401.18 2540.95C3398.12 2553.73 3390.92 2565.13 3380.69 2573.38C3370.47 2581.63 3357.8 2586.27 3344.66 2586.56H3000.32C2988.82 2586.31 2977.64 2590.37 2968.98 2597.94C2960.32 2605.52 2954.81 2616.06 2953.53 2627.49C2953.13 2633.45 2953.93 2639.44 2955.9 2645.09C2957.86 2650.74 2960.94 2655.93 2964.95 2660.37C2968.96 2664.8 2973.83 2668.38 2979.25 2670.89C2984.68 2673.41 2990.56 2674.8 2996.53 2674.99C3004.56 2675.16 3012.41 2672.57 3018.76 2667.65C3025.11 2662.73 3029.58 2655.77 3031.42 2647.95C3032.98 2640.9 3032.29 2633.54 3029.44 2626.91C3026.59 2620.28 3021.74 2614.71 3015.55 2610.99C3015.29 2610.81 3015.09 2610.55 3014.98 2610.24C3014.87 2609.94 3014.86 2609.61 3014.95 2609.3C3015.04 2608.99 3015.22 2608.72 3015.48 2608.52C3015.73 2608.32 3016.04 2608.21 3016.36 2608.2H3322.85C3392.98 2608.2 3454.46 2661.11 3459.15 2731.15C3460.36 2749.18 3457.85 2767.27 3451.78 2784.3C3445.72 2801.32 3436.23 2816.92 3423.89 2830.13C3411.55 2843.34 3396.63 2853.87 3380.06 2861.08C3363.49 2868.29 3345.61 2872.02 3327.54 2872.05H2997.97C2996.43 2871.91 2994.87 2872.09 2993.4 2872.59C2991.93 2873.08 2990.58 2873.88 2989.43 2874.93C2988.28 2875.97 2987.37 2877.25 2986.74 2878.67C2986.12 2880.09 2985.79 2881.63 2985.79 2883.18C2985.79 2884.73 2986.12 2886.27 2986.74 2887.69C2987.37 2889.11 2988.28 2890.38 2989.43 2891.43C2990.58 2892.48 2991.93 2893.27 2993.4 2893.77C2994.87 2894.27 2996.43 2894.45 2997.97 2894.31H3087.4C3069.55 2909.15 3057.81 2930.04 3054.4 2952.99L2964.71 3580.66C2964.5 3582.1 2964.58 3583.57 2964.94 3584.99C2965.31 3586.4 2965.94 3587.73 2966.82 3588.9C2967.69 3590.07 2968.79 3591.05 2970.04 3591.79C2971.3 3592.54 2972.69 3593.03 2974.13 3593.23C2975.58 3593.44 2977.05 3593.36 2978.46 3593C2979.87 3592.64 2981.2 3592 2982.37 3591.13C2983.54 3590.25 2984.52 3589.16 2985.27 3587.9C2986.01 3586.65 2986.5 3585.26 2986.71 3583.81L3044.31 3180.79H3423.81L3481.32 3583.81C3481.71 3586.46 3483.03 3588.88 3485.05 3590.63C3487.07 3592.38 3489.65 3593.36 3492.32 3593.37H3493.94C3496.79 3592.88 3499.33 3591.3 3501.02 3588.95C3502.7 3586.61 3503.4 3583.69 3502.96 3580.84L3413.26 2953.17C3411.32 2939.92 3406.57 2927.23 3399.33 2915.96C3392.08 2904.68 3382.51 2895.09 3371.26 2887.82C3401.85 2878.62 3428.81 2860.13 3448.43 2834.92C3468.04 2809.71 3479.33 2779.02 3480.73 2747.11C3482.12 2715.2 3473.56 2683.64 3456.22 2656.82C3438.89 2629.99 3413.63 2609.22 3383.97 2597.38C3393.53 2591.79 3401.86 2584.31 3408.45 2575.4C3415.03 2566.49 3419.74 2556.33 3422.28 2545.55L3503.41 2192.46C3508.19 2172.25 3517.11 2153.26 3529.6 2136.67C3542.08 2120.09 3557.88 2106.27 3575.97 2096.09C3578.53 2094.73 3580.45 2092.42 3581.33 2089.66C3582.21 2086.89 3581.97 2083.9 3580.66 2081.31ZM3010.32 2641.01C3010.3 2644.24 3009 2647.34 3006.7 2649.62C3004.4 2651.9 3001.3 2653.18 2998.06 2653.18C2993.22 2653.17 2988.51 2651.57 2984.65 2648.63C2980.8 2645.69 2978.02 2641.57 2976.73 2636.9C2975.44 2632.22 2975.72 2627.26 2977.52 2622.76C2979.32 2618.26 2982.55 2614.47 2986.71 2611.98C2987.61 2611.35 2988.42 2611.98 2987.97 2613.06C2987.2 2614.75 2986.87 2616.61 2987 2618.46C2987.13 2620.31 2987.73 2622.1 2988.73 2623.66C2989.74 2625.22 2991.12 2626.51 2992.75 2627.4C2994.38 2628.28 2996.21 2628.75 2998.06 2628.75C2999.67 2628.75 3001.27 2629.07 3002.76 2629.68C3004.24 2630.3 3005.59 2631.2 3006.73 2632.34C3007.87 2633.48 3008.77 2634.83 3009.39 2636.32C3010.01 2637.8 3010.32 2639.4 3010.32 2641.01ZM3391.99 2956.51L3420.84 3158.97H3047.46L3076.4 2956.51C3078.87 2939.35 3087.43 2923.66 3100.53 2912.31C3113.62 2900.95 3130.37 2894.69 3147.7 2894.67H3320.42C3337.78 2894.7 3354.54 2900.98 3367.64 2912.37C3380.74 2923.77 3389.29 2939.5 3391.72 2956.69L3391.99 2956.51Z" fill="#999999" stroke="#263238" stroke-linecap="round" stroke-linejoin="round"/>
<path d="M3333.76 2187.86H3391.36" stroke="#263238" stroke-width="0.75" stroke-linecap="round" stroke-linejoin="round"/>
<path d="M2257.81 2187.86H3282.38" stroke="#263238" stroke-width="0.75" stroke-linecap="round" stroke-linejoin="round"/>
<path d="M1609.5 2187.86H2193.45" stroke="#263238" stroke-width="0.75" stroke-linecap="round" stroke-linejoin="round"/>
<path d="M1471.22 2187.86H1562.26" stroke="#263238" stroke-width="0.75" stroke-linecap="round" stroke-linejoin="round"/>
<path d="M3077.12 2700.05H3267.77" stroke="#263238" stroke-width="0.75" stroke-linecap="round" stroke-linejoin="round"/>
<path d="M1993.87 2700.05H2937.85" stroke="#263238" stroke-width="0.75" stroke-linecap="round" stroke-linejoin="round"/>
<path d="M1412.36 2700.05H1948.26" stroke="#263238" stroke-width="0.75" stroke-linecap="round" stroke-linejoin="round"/>
<path d="M1347.63 2700.05H1379.82" stroke="#263238" stroke-width="0.75" stroke-linecap="round" stroke-linejoin="round"/>
<path d="M3311.76 2343.36H3355.75" stroke="#263238" stroke-width="0.75" stroke-linecap="round" stroke-linejoin="round"/>
<path d="M1842.43 2343.36H3267.77" stroke="#263238" stroke-width="0.75" stroke-linecap="round" stroke-linejoin="round"/>
<path d="M1516.74 2343.36H1788.61" stroke="#263238" stroke-width="0.75" stroke-linecap="round" stroke-linejoin="round"/>
<path d="M1435.61 2343.36H1471.22" stroke="#263238" stroke-width="0.75" stroke-linecap="round" stroke-linejoin="round"/>
<path d="M1652.68 2521.66H3311.76" stroke="#263238" stroke-width="0.75" stroke-linecap="round" stroke-linejoin="round"/>
<path d="M1391.62 2521.66H1609.41" stroke="#263238" stroke-width="0.75" stroke-linecap="round" stroke-linejoin="round"/>
<path d="M1565.96 2837.61H1417.31L1396.76 2469.38H1586.51L1565.96 2837.61Z" fill="white" stroke="#263238" stroke-linecap="round" stroke-linejoin="round"/>
<path d="M1605.35 2469.37H1377.92L1388.11 2431.79H1595.08L1605.35 2469.37Z" fill="white" stroke="#263238" stroke-linecap="round" stroke-linejoin="round"/>
<path d="M1573.62 2700.32L1581.65 2556.63H1401.63L1409.65 2700.32H1573.62Z" fill="#4CA3FF"/>
<mask id="mask7_13_5060" style="mask-type:luminance" maskUnits="userSpaceOnUse" x="1401" y="2556" width="181" height="145">
<path d="M1573.62 2700.32L1581.65 2556.63H1401.63L1409.65 2700.32H1573.62Z" fill="white"/>
</mask>
<g mask="url(#mask7_13_5060)">
<path d="M1580.38 2578.72C1567.42 2578.31 1554.81 2582.98 1545.25 2591.75C1535.69 2600.51 1529.94 2612.66 1529.22 2625.61C1528.5 2638.56 1532.87 2651.28 1541.41 2661.04C1549.94 2670.81 1561.96 2676.85 1574.88 2677.88L1580.38 2578.72Z" fill="white"/>
</g>
<path d="M1573.62 2700.32L1581.65 2556.63H1401.63L1409.65 2700.32H1573.62Z" stroke="#263238" stroke-width="0.75" stroke-linecap="round" stroke-linejoin="round"/>
<path d="M2751.97 1428.58C2751.97 1428.58 2792.45 1591.83 2830.85 1657.19L2646.51 1771.13L2617.48 1768.96C2617.48 1768.96 2610.54 1694.96 2588.81 1665.66C2567.09 1636.36 2688.42 1497.45 2688.42 1497.45L2726.91 1441.47L2751.97 1428.58Z" fill="white"/>
<mask id="mask8_13_5060" style="mask-type:luminance" maskUnits="userSpaceOnUse" x="2586" y="1428" width="245" height="344">
<path d="M2751.97 1428.58C2751.97 1428.58 2792.45 1591.83 2830.85 1657.19L2646.51 1771.13L2617.48 1768.96C2617.48 1768.96 2610.54 1694.96 2588.81 1665.66C2567.09 1636.36 2688.42 1497.45 2688.42 1497.45L2726.91 1441.47L2751.97 1428.58Z" fill="white"/>
</mask>
<g mask="url(#mask8_13_5060)">
<path d="M2445.13 1530.72C2455.4 1543.61 2473.25 1561.54 2473.25 1561.54C2473.25 1561.54 2493.35 1628.07 2532.38 1673.5C2532.38 1673.5 2546.9 1729.3 2586.47 1715.6C2626.04 1701.9 2727.36 1589.4 2727.09 1566.32C2727 1552.84 2725.58 1539.41 2722.86 1526.21L2445.13 1530.72Z" fill="#263238" stroke="#263238" stroke-linecap="round" stroke-linejoin="round"/>
</g>
<path d="M2751.97 1428.58C2751.97 1428.58 2792.45 1591.83 2830.85 1657.19L2646.51 1771.13L2617.48 1768.96C2617.48 1768.96 2610.54 1694.96 2588.81 1665.66C2567.09 1636.36 2688.42 1497.45 2688.42 1497.45L2726.91 1441.47L2751.97 1428.58Z" stroke="#263238" stroke-linecap="round" stroke-linejoin="round"/>
<path d="M2458.02 1377.38C2458.02 1377.38 2407.63 1375.4 2407.72 1323.93C2407.81 1272.46 2463.25 1260.83 2463.25 1260.83C2463.25 1260.83 2484.61 1226.12 2512.28 1250.01C2512.28 1250.01 2496.24 1270.38 2526.71 1256.14C2557.17 1241.9 2567.81 1221.79 2625.86 1228.56C2625.86 1228.56 2729.8 1212.15 2766.4 1276.15C2766.4 1276.15 2806.6 1327.08 2798.13 1420.38C2789.65 1513.68 2807.14 1565.69 2796.68 1567.94C2786.23 1570.2 2772.08 1526.66 2755.22 1463.02L2665.89 1511.69L2598.82 1464.64L2552.4 1385.49H2494.8L2458.02 1377.38Z" fill="#263238" stroke="#263238" stroke-linecap="round" stroke-linejoin="round"/>
<path d="M2437.82 1400.55C2437.82 1400.55 2437.82 1482.76 2446.84 1496.73C2455.85 1510.7 2471.18 1530.62 2471.18 1530.62C2471.18 1530.62 2483.44 1599.04 2516.79 1648.71C2516.79 1648.71 2524.72 1705.86 2565.83 1696.85C2606.93 1687.83 2720.42 1587.87 2722.86 1564.88C2724.28 1551.49 2724.44 1538 2723.31 1524.59C2723.31 1524.59 2743.86 1533.15 2759.37 1491.86C2774.87 1450.58 2771.26 1401.72 2738.99 1399.56C2706.72 1397.39 2708.61 1431.56 2695.27 1434.44C2681.93 1437.33 2688.78 1477.08 2688.78 1477.08L2662.37 1484.74C2662.37 1484.74 2658.86 1421.64 2630.01 1389.01C2601.16 1356.38 2572.05 1346.64 2592.6 1308.42C2592.6 1308.42 2522.74 1309.77 2449.9 1365.12L2437.82 1400.55Z" fill="white"/>
<mask id="mask9_13_5060" style="mask-type:luminance" maskUnits="userSpaceOnUse" x="2437" y="1308" width="332" height="390">
<path d="M2437.82 1400.55C2437.82 1400.55 2437.82 1482.76 2446.84 1496.73C2455.85 1510.7 2471.18 1530.62 2471.18 1530.62C2471.18 1530.62 2483.44 1599.04 2516.79 1648.71C2516.79 1648.71 2524.72 1705.86 2565.83 1696.85C2606.93 1687.83 2720.42 1587.87 2722.86 1564.88C2724.28 1551.49 2724.44 1538 2723.31 1524.59C2723.31 1524.59 2743.86 1533.15 2759.37 1491.86C2774.87 1450.58 2771.26 1401.72 2738.99 1399.56C2706.72 1397.39 2708.61 1431.56 2695.27 1434.44C2681.93 1437.33 2688.78 1477.08 2688.78 1477.08L2662.37 1484.74C2662.37 1484.74 2658.86 1421.64 2630.01 1389.01C2601.16 1356.38 2572.05 1346.64 2592.6 1308.42C2592.6 1308.42 2522.74 1309.77 2449.9 1365.12L2437.82 1400.55Z" fill="white"/>
</mask>
<g mask="url(#mask9_13_5060)">
<path d="M2716.82 1577.23C2711.21 1546.54 2703.01 1516.39 2692.3 1487.09L2661.92 1493.85C2661.92 1493.85 2655.88 1508.9 2645.78 1527.92C2635.69 1546.94 2615.86 1567.58 2589.36 1560.37C2571.62 1555.74 2553 1555.74 2535.27 1560.37C2525.53 1562.72 2515.89 1577.41 2506.69 1581.74C2494.25 1587.51 2489.66 1584.17 2488.67 1590.75C2491.46 1598.32 2494.61 1606.17 2498.22 1614.01C2498.15 1609.23 2499.25 1604.51 2501.44 1600.27C2503.62 1596.02 2506.82 1592.38 2510.75 1589.67C2537.79 1572.54 2578.72 1575.34 2588.54 1583.09C2598.37 1590.84 2601.98 1607.61 2576.83 1630.59C2551.68 1653.58 2555.64 1637.72 2535.81 1646.46C2531.5 1648.52 2527.98 1651.91 2525.75 1656.13C2523.53 1660.35 2522.72 1665.18 2523.46 1669.9C2529.86 1685.04 2542.48 1701.72 2566.19 1696.94C2601.61 1688.92 2692.48 1612.02 2716.82 1577.23Z" fill="#757575"/>
</g>
<path d="M2437.82 1400.55C2437.82 1400.55 2437.82 1482.76 2446.84 1496.73C2455.85 1510.7 2471.18 1530.62 2471.18 1530.62C2471.18 1530.62 2483.44 1599.04 2516.79 1648.71C2516.79 1648.71 2524.72 1705.86 2565.83 1696.85C2606.93 1687.83 2720.42 1587.87 2722.86 1564.88C2724.28 1551.49 2724.44 1538 2723.31 1524.59C2723.31 1524.59 2743.86 1533.15 2759.37 1491.86C2774.87 1450.58 2771.26 1401.72 2738.99 1399.56C2706.72 1397.39 2708.61 1431.56 2695.27 1434.44C2681.93 1437.33 2688.78 1477.08 2688.78 1477.08L2662.37 1484.74C2662.37 1484.74 2658.86 1421.64 2630.01 1389.01C2601.16 1356.38 2572.05 1346.64 2592.6 1308.42C2592.6 1308.42 2522.74 1309.77 2449.9 1365.12L2437.82 1400.55Z" stroke="#263238" stroke-linecap="round" stroke-linejoin="round"/>
<path d="M2511.11 1617.88C2511.11 1617.88 2530.58 1595.8 2549.51 1592.64C2568.44 1589.49 2573.31 1581.74 2573.31 1581.74" stroke="#263238" stroke-width="0.75" stroke-linecap="round" stroke-linejoin="round"/>
<path d="M2494.89 1451.48C2500.29 1454.05 2506.29 1455.14 2512.25 1454.65C2518.22 1454.16 2523.95 1452.1 2528.87 1448.69C2543.44 1441.22 2559.56 1437.3 2575.92 1437.24C2575.92 1437.24 2552.58 1411.64 2494.89 1451.48Z" fill="#263238" stroke="#263238" stroke-width="0.75" stroke-linecap="round" stroke-linejoin="round"/>
<path d="M2556 1480.42C2559.07 1487 2558.44 1493.76 2554.65 1495.56C2550.86 1497.36 2545.64 1493.4 2542.21 1486.54C2538.78 1479.69 2539.78 1473.2 2543.56 1471.4C2547.35 1469.6 2552.94 1473.65 2556 1480.42Z" fill="#263238"/>
<path d="M2477.4 1513.68C2480.01 1519.36 2479.47 1525.31 2476.23 1526.84C2472.98 1528.37 2468.02 1524.95 2465.41 1519.27C2462.79 1513.59 2463.24 1507.64 2466.58 1506.11C2469.92 1504.57 2474.69 1507.91 2477.4 1513.68Z" fill="#263238"/>
<path d="M2463.7 1475.28L2473.88 1480.06C2476.04 1481.02 2477.8 1482.69 2478.9 1484.78C2479.99 1486.87 2480.35 1489.27 2479.92 1491.59L2468.38 1555.69C2468.14 1557.1 2468.18 1558.54 2468.5 1559.94C2468.83 1561.33 2469.43 1562.65 2470.27 1563.81C2471.11 1564.96 2472.17 1565.94 2473.4 1566.69C2474.62 1567.43 2475.98 1567.92 2477.4 1568.12L2501.02 1571.82" fill="white"/>
<path d="M2463.7 1475.28L2473.88 1480.06C2476.04 1481.02 2477.8 1482.69 2478.9 1484.78C2479.99 1486.87 2480.35 1489.27 2479.92 1491.59L2468.38 1555.69C2468.14 1557.1 2468.18 1558.54 2468.5 1559.94C2468.83 1561.33 2469.43 1562.65 2470.27 1563.81C2471.11 1564.96 2472.17 1565.94 2473.4 1566.69C2474.62 1567.43 2475.98 1567.92 2477.4 1568.12L2501.02 1571.82" stroke="#263238" stroke-linecap="round" stroke-linejoin="round"/>
<path d="M2440.35 1499.52C2440.35 1499.52 2443.23 1484.92 2473.25 1484.83C2473.25 1484.83 2459.01 1471.13 2444.04 1475.37C2429.08 1479.6 2440.35 1499.52 2440.35 1499.52Z" fill="#263238" stroke="#263238" stroke-width="0.75" stroke-linecap="round" stroke-linejoin="round"/>
<path d="M2144.95 1936.18C2144.95 1936.18 2181.73 2359.22 2318.75 2368.86C2455.76 2378.51 2473.7 2304.23 2501.92 2260.06C2501.92 2260.06 2387.34 2140.8 2385.9 2158.2C2384.46 2175.6 2348.85 2218.78 2348.85 2218.78C2336.59 2173.7 2284.04 2080.77 2267.72 2037.59C2256.7 2004.75 2249.29 1970.8 2245.64 1936.36L2144.95 1936.18Z" fill="white" stroke="#263238" stroke-linecap="round" stroke-linejoin="round"/>
<path d="M2155.68 1968.9C2151.84 1962.51 2148.81 1955.67 2146.66 1948.53C2140.89 1930.5 2156.76 1906.25 2170.64 1878.49C2170.64 1878.49 2164.96 1821.34 2197.68 1816.92C2199.16 1811.63 2202.21 1806.92 2206.43 1803.41C2210.65 1799.9 2215.84 1797.76 2221.3 1797.27C2239.33 1796.73 2283.05 1781.13 2309.01 1794.47C2334.97 1807.82 2380.31 1849.91 2374.45 1862.08C2368.59 1874.25 2362.74 1881.91 2324.88 1855.86L2306.85 1844.41C2306.85 1844.41 2336.05 1878.04 2330.01 1894.8C2324.65 1906.11 2315.27 1915.01 2303.69 1919.77C2303.69 1919.77 2302.34 1941.05 2284.31 1939.87C2284.31 1939.87 2282.42 1964.93 2266.28 1963.94L2246.9 1961.96C2246.9 1961.96 2217.15 1990.63 2188.58 1989.72" fill="white"/>
<path d="M2155.68 1968.9C2151.84 1962.51 2148.81 1955.67 2146.66 1948.53C2140.89 1930.5 2156.76 1906.25 2170.64 1878.49C2170.64 1878.49 2164.96 1821.34 2197.68 1816.92C2199.16 1811.63 2202.21 1806.92 2206.43 1803.41C2210.65 1799.9 2215.84 1797.76 2221.3 1797.27C2239.33 1796.73 2283.05 1781.13 2309.01 1794.47C2334.97 1807.82 2380.31 1849.91 2374.45 1862.08C2368.59 1874.25 2362.74 1881.91 2324.88 1855.86L2306.85 1844.41C2306.85 1844.41 2336.05 1878.04 2330.01 1894.8C2324.65 1906.11 2315.27 1915.01 2303.69 1919.77C2303.69 1919.77 2302.34 1941.05 2284.31 1939.87C2284.31 1939.87 2282.42 1964.93 2266.28 1963.94L2246.9 1961.96C2246.9 1961.96 2217.15 1990.63 2188.58 1989.72" stroke="#263238" stroke-linecap="round" stroke-linejoin="round"/>
<path d="M2236.9 1817.73C2248.56 1819.16 2260.15 1821.2 2271.6 1823.86C2278.41 1826.67 2285.07 1829.86 2291.52 1833.42" fill="white"/>
<path d="M2236.9 1817.73C2248.56 1819.16 2260.15 1821.2 2271.6 1823.86C2278.41 1826.67 2285.07 1829.86 2291.52 1833.42" stroke="#263238" stroke-width="0.75" stroke-linecap="round" stroke-linejoin="round"/>
<path d="M2231.49 1861.99C2231.49 1861.99 2289.9 1869.2 2295.85 1877.68C2300.35 1885.83 2303.4 1894.71 2304.86 1903.91" fill="white"/>
<path d="M2231.49 1861.99C2231.49 1861.99 2289.9 1869.2 2295.85 1877.68C2300.35 1885.83 2303.4 1894.71 2304.86 1903.91" stroke="#263238" stroke-width="0.75" stroke-linecap="round" stroke-linejoin="round"/>
<path d="M2225.09 1902.01C2225.09 1902.01 2271.24 1908.14 2277.19 1927.71Z" fill="white"/>
<path d="M2225.09 1902.01C2225.09 1902.01 2271.24 1908.14 2277.19 1927.71" stroke="#263238" stroke-width="0.75" stroke-linecap="round" stroke-linejoin="round"/>
<path d="M2492 2296.12C2546.54 2192.36 2704.47 1801.68 2601.16 1769.32C2601.16 1769.32 2477.4 1803.67 2444.04 1902.01C2417 1980.53 2384.1 2129.44 2371.93 2186.05L2492 2296.12Z" fill="white"/>
<path d="M2492 2296.12C2546.54 2192.36 2704.47 1801.68 2601.16 1769.32C2601.16 1769.32 2477.4 1803.67 2444.04 1902.01C2417 1980.53 2384.1 2129.44 2371.93 2186.05L2492 2296.12Z" stroke="#263238" stroke-linecap="round" stroke-linejoin="round"/>
<path d="M2363.19 2169.29C2363.19 2169.29 2443.05 2180.11 2505.97 2277.46C2507.05 2279.17 2507.55 2281.17 2507.4 2283.18C2507.25 2285.19 2506.47 2287.1 2505.16 2288.64L2498.4 2296.75L2494.8 2307.03C2494.35 2308.74 2493.41 2310.28 2492.09 2311.46C2490.78 2312.64 2489.14 2313.41 2487.4 2313.66C2485.65 2313.92 2483.86 2313.66 2482.26 2312.92C2480.66 2312.17 2479.31 2310.97 2478.39 2309.46C2445.42 2265.32 2405.72 2226.63 2360.75 2194.8L2366.7 2184.52L2363.19 2169.29Z" fill="white" stroke="#263238" stroke-linecap="round" stroke-linejoin="round"/>
<path d="M1909.95 3202.33L1983.59 3386.49C1983.59 3386.49 2037.68 3483.76 2047.51 3574.53C2047.81 3577.87 2047.41 3581.23 2046.33 3584.41C2045.26 3587.58 2043.53 3590.5 2041.27 3592.97C2039 3595.43 2036.25 3597.4 2033.18 3598.75C2030.11 3600.09 2026.79 3600.78 2023.44 3600.76H1575.52C1571.85 3600.76 1568.25 3599.85 1565.02 3598.14C1561.78 3596.42 1559.02 3593.94 1556.97 3590.9C1554.91 3587.87 1553.63 3584.39 1553.24 3580.75C1552.84 3577.11 1553.34 3573.43 1554.69 3570.02C1563.71 3547.13 1581.74 3520.53 1616.98 3525.4C1677.2 3533.79 1764.55 3484.12 1809.53 3427.78L1829.54 3413.26L1767.61 3269.04L1909.95 3202.33Z" fill="white" stroke="#263238" stroke-linecap="round" stroke-linejoin="round"/>
<path d="M2047.51 3574.53C2042.01 3521.53 2021.18 3466.36 2004.78 3429.76C1928.25 3498.63 1858.02 3476.9 1871.46 3446.17C1884.89 3415.43 1829.54 3413.26 1829.54 3413.26L1809.53 3427.78C1764.46 3484.12 1677.2 3533.78 1616.98 3525.4C1581.74 3520.53 1563.62 3547.13 1554.69 3570.02C1553.34 3573.42 1552.84 3577.11 1553.24 3580.75C1553.63 3584.39 1554.91 3587.87 1556.97 3590.9C1559.02 3593.94 1561.78 3596.42 1565.02 3598.14C1568.25 3599.85 1571.85 3600.76 1575.52 3600.76H2023.44C2026.79 3600.77 2030.11 3600.09 2033.18 3598.75C2036.25 3597.4 2039 3595.43 2041.27 3592.97C2043.53 3590.5 2045.26 3587.58 2046.33 3584.41C2047.41 3581.23 2047.81 3577.87 2047.51 3574.53Z" fill="#263238" stroke="#263238" stroke-linecap="round" stroke-linejoin="round"/>
<path d="M2390.41 2408.8C2390.41 2408.8 2353.54 2436.74 2283.23 2551.68C2283.23 2551.68 1670.26 2566.19 1553.07 2609.73C1435.88 2653.27 1408.84 2703.48 1432.55 2790.46C1456.26 2877.45 1623.38 3185.56 1650.15 3396.5C1650.15 3396.5 1915.99 3379.82 1976.38 3329.61C1976.38 3329.61 1854.42 2964.62 1770.68 2860.87C1770.68 2860.87 1954.84 2897.74 2025.15 2854.2L2426.92 2811.47C2426.92 2811.47 2704.83 2854.2 2751.43 2767.12C2798.04 2680.04 2830.31 2480.82 2830.31 2480.82L2390.41 2408.8Z" fill="#263238"/>
<mask id="mask10_13_5060" style="mask-type:luminance" maskUnits="userSpaceOnUse" x="1424" y="2408" width="1407" height="989">
<path d="M2390.41 2408.8C2390.41 2408.8 2353.54 2436.74 2283.23 2551.68C2283.23 2551.68 1670.26 2566.19 1553.07 2609.73C1435.88 2653.27 1408.84 2703.48 1432.55 2790.47C1456.26 2877.45 1623.38 3185.56 1650.15 3396.5C1650.15 3396.5 1915.99 3379.82 1976.38 3329.61C1976.38 3329.61 1854.42 2964.62 1770.68 2860.87C1770.68 2860.87 1954.84 2897.74 2025.15 2854.2L2426.92 2811.47C2426.92 2811.47 2704.83 2854.2 2751.43 2767.12C2798.04 2680.04 2830.31 2480.82 2830.31 2480.82L2390.41 2408.8Z" fill="white"/>
</mask>
<g mask="url(#mask10_13_5060)">
<path opacity="0.5" d="M1539.91 3109.84C1539.91 3109.84 1495.38 2929.56 1526.21 2918.29C1557.04 2907.02 1706.49 3398.3 1800.42 3380.54C1894.35 3362.78 1919.59 3413.26 1919.59 3413.26L2011.99 3348.63L1936.72 3071.53L1851.17 2902.78L1770.95 2860.87C1770.95 2860.87 1638.98 2772.17 1700.63 2764.5C1762.29 2756.84 1953.76 2809.58 2025.15 2764.5C2096.54 2719.43 2088.25 2972.37 2088.25 2972.37L2144.95 3362.24L2082.39 3485.38L1587.41 3464.83L1529.63 3231.45L1539.91 3109.84Z" fill="black"/>
</g>
<path d="M2390.41 2408.8C2390.41 2408.8 2353.54 2436.74 2283.23 2551.68C2283.23 2551.68 1670.26 2566.19 1553.07 2609.73C1435.88 2653.27 1408.84 2703.48 1432.55 2790.46C1456.26 2877.45 1623.38 3185.56 1650.15 3396.5C1650.15 3396.5 1915.99 3379.82 1976.38 3329.61C1976.38 3329.61 1854.42 2964.62 1770.68 2860.87C1770.68 2860.87 1954.84 2897.74 2025.15 2854.2L2426.92 2811.47C2426.92 2811.47 2704.83 2854.2 2751.43 2767.12C2798.04 2680.04 2830.31 2480.82 2830.31 2480.82L2390.41 2408.8Z" stroke="#263238" stroke-linecap="round" stroke-linejoin="round"/>
<path d="M1725.33 2811.38C1731.89 2817.28 1737.92 2823.73 1743.36 2830.67" stroke="#7F7F7F" stroke-width="0.75" stroke-linecap="round" stroke-linejoin="round"/>
<path d="M1663.86 2748.55C1663.86 2748.55 1570.11 2673.28 1563.44 2706.81C1558.12 2733.22 1639.43 2751.88 1700.63 2792.45" stroke="#7F7F7F" stroke-width="0.75" stroke-linecap="round" stroke-linejoin="round"/>
<path d="M2308.92 3291.57L2317.93 3428.32C2317.93 3428.32 2352.64 3474.11 2357.51 3576.33C2357.69 3579.5 2357.23 3582.68 2356.14 3585.66C2355.06 3588.65 2353.37 3591.38 2351.2 3593.69C2349.02 3596 2346.39 3597.85 2343.48 3599.11C2340.57 3600.37 2337.43 3601.02 2334.25 3601.03H2090.05C2086.44 3601.03 2082.88 3600.19 2079.65 3598.58C2076.41 3596.97 2073.6 3594.63 2071.42 3591.75C2069.25 3588.86 2067.77 3585.52 2067.11 3581.96C2066.45 3578.41 2066.62 3574.76 2067.61 3571.28C2073.25 3550.84 2084.09 3532.21 2099.07 3517.2C2137.02 3479.25 2157.12 3461.4 2154.87 3396.68L2148.19 3291.75L2308.92 3291.57Z" fill="white" stroke="#263238" stroke-linecap="round" stroke-linejoin="round"/>
<path d="M2293.33 3461.22C2266.28 3463.47 2257.27 3427.78 2212.2 3427.78C2167.12 3427.78 2150.45 3445.81 2150.45 3445.81C2142.61 3474.29 2125.03 3490.88 2099.16 3516.66C2084.18 3531.67 2073.34 3550.3 2067.7 3570.74C2066.71 3574.22 2066.54 3577.87 2067.2 3581.42C2067.86 3584.98 2069.34 3588.32 2071.51 3591.21C2073.69 3594.09 2076.5 3596.43 2079.74 3598.04C2082.97 3599.65 2086.53 3600.49 2090.14 3600.49H2334.25C2337.41 3600.49 2340.54 3599.86 2343.44 3598.62C2346.35 3597.38 2348.97 3595.56 2351.15 3593.28C2353.34 3590.99 2355.03 3588.29 2356.14 3585.33C2357.25 3582.37 2357.74 3579.22 2357.6 3576.06C2352.73 3473.84 2318.02 3428.05 2318.02 3428.05C2318.02 3428.05 2320.1 3459.06 2293.33 3461.22Z" fill="#263238" stroke="#263238" stroke-linecap="round" stroke-linejoin="round"/>
<path d="M2440.62 2408.8C2440.62 2408.8 2376.98 2459.01 2353.54 2572.86C2353.54 2572.86 2022.08 2566.19 1985.31 2680.04C1948.53 2793.89 2042.19 3041.6 2042.19 3041.6C2042.19 3041.6 2022.08 3399.83 2058.95 3420.2C2095.82 3440.58 2273.22 3423.54 2326.77 3346.56C2326.77 3346.56 2336.86 3259.48 2310 3226.04C2310 3226.04 2322.17 2956.96 2291.97 2893.32C2331.04 2893.25 2369.87 2887.17 2407.09 2875.29C2446.21 2861.59 2481.72 2843.11 2517.51 2834.36C2560.6 2823.91 2605.4 2836.26 2694.73 2828.32C2750.26 2823.46 2806.33 2809.58 2842.3 2777.48C2913.06 2714.38 2949.48 2502.91 2949.48 2502.91L2440.62 2408.8Z" fill="#263238"/>
<mask id="mask11_13_5060" style="mask-type:luminance" maskUnits="userSpaceOnUse" x="1976" y="2408" width="974" height="1021">
<path d="M2440.62 2408.8C2440.62 2408.8 2376.98 2459.01 2353.54 2572.86C2353.54 2572.86 2022.08 2566.19 1985.31 2680.04C1948.53 2793.89 2042.19 3041.6 2042.19 3041.6C2042.19 3041.6 2022.08 3399.83 2058.95 3420.21C2095.82 3440.58 2273.22 3423.54 2326.77 3346.56C2326.77 3346.56 2336.86 3259.48 2310 3226.04C2310 3226.04 2322.17 2956.96 2291.97 2893.32C2331.04 2893.25 2369.87 2887.17 2407.09 2875.29C2446.21 2861.59 2481.72 2843.11 2517.51 2834.37C2560.6 2823.91 2605.4 2836.26 2694.73 2828.33C2750.26 2823.46 2806.33 2809.58 2842.3 2777.49C2913.06 2714.39 2949.48 2502.91 2949.48 2502.91L2440.62 2408.8Z" fill="white"/>
</mask>
<g mask="url(#mask11_13_5060)">
<path opacity="0.5" d="M2323.79 2918.29C2323.79 2918.29 2177.58 2795.78 2221.3 2777.94C2265.02 2760.09 2394.38 2802.63 2473.7 2777.94C2553.03 2753.24 2744.13 2814.89 2816.25 2725.92C2888.36 2636.95 2912.07 2485.42 2912.07 2485.42L3011.86 2516.97L2981.84 2764.41L2819.58 2884.94C2819.58 2884.94 2592.96 2982.47 2564.3 2982.47C2535.63 2982.47 2323.79 2918.29 2323.79 2918.29Z" fill="black"/>
</g>
<path d="M2440.62 2408.8C2440.62 2408.8 2376.98 2459.01 2353.54 2572.86C2353.54 2572.86 2022.08 2566.19 1985.31 2680.04C1948.53 2793.89 2042.19 3041.6 2042.19 3041.6C2042.19 3041.6 2022.08 3399.83 2058.95 3420.2C2095.82 3440.58 2273.22 3423.54 2326.77 3346.56C2326.77 3346.56 2336.86 3259.48 2310 3226.04C2310 3226.04 2322.17 2956.96 2291.97 2893.32C2331.04 2893.25 2369.87 2887.17 2407.09 2875.29C2446.21 2861.59 2481.72 2843.11 2517.51 2834.36C2560.6 2823.91 2605.4 2836.26 2694.73 2828.32C2750.26 2823.46 2806.33 2809.58 2842.3 2777.48C2913.06 2714.38 2949.48 2502.91 2949.48 2502.91L2440.62 2408.8Z" stroke="#263238" stroke-linecap="round" stroke-linejoin="round"/>
<path d="M2117.91 3133.46C2167.67 3209.72 2266.01 3353.5 2283.32 3326.18" stroke="#7F7F7F" stroke-width="0.75" stroke-linecap="round" stroke-linejoin="round"/>
<path d="M2089.06 3088.48C2089.06 3088.48 2094.11 3096.59 2102.58 3109.84" stroke="#7F7F7F" stroke-width="0.75" stroke-linecap="round" stroke-linejoin="round"/>
<path d="M2748.91 2546.36C2748.91 2546.36 2660.57 2432.15 2733.22 2653.18" stroke="#7F7F7F" stroke-width="0.75" stroke-linecap="round" stroke-linejoin="round"/>
<path d="M2446.93 2557.26C2492.99 2549.96 2557.9 2546.18 2604.68 2569.52" stroke="#7F7F7F" stroke-width="0.75" stroke-linecap="round" stroke-linejoin="round"/>
<path d="M2390.41 2569.52C2390.41 2569.52 2398.79 2567 2412.58 2563.84" stroke="#7F7F7F" stroke-width="0.75" stroke-linecap="round" stroke-linejoin="round"/>
<path d="M1979.99 2797.77C1981.25 2808.67 1982.78 2819.67 1984.68 2830.67" stroke="#7F7F7F" stroke-width="0.75" stroke-linecap="round" stroke-linejoin="round"/>
<path d="M2407.09 2446.39C2380.62 2484.26 2362.38 2527.25 2353.54 2572.59C2353.54 2572.59 2022.08 2565.92 1985.22 2679.77C1977.6 2707.2 1974.89 2735.77 1977.19 2764.14" stroke="#7F7F7F" stroke-width="0.75" stroke-linecap="round" stroke-linejoin="round"/>
<path d="M2151.17 2748.64C2183.62 2750.71 2253.21 2771.17 2283.23 2807.23" stroke="#7F7F7F" stroke-width="0.75" stroke-linecap="round" stroke-linejoin="round"/>
<path d="M2283.23 2874.21C2283.23 2874.21 2246.45 2810.57 2159.37 2770.45" stroke="#7F7F7F" stroke-width="0.75" stroke-linecap="round" stroke-linejoin="round"/>
<path d="M2349.48 2428C2380.85 2375.65 2400.88 2317.3 2408.26 2256.73C2426.29 2120.34 2415.11 1924.64 2503.63 1833.6C2659.85 1672.87 2822.28 1617.79 3014.29 1746.07C3206.29 1874.34 3068.92 2054.72 2952.9 2543.2C2952.9 2543.02 2735.75 2435.84 2349.48 2428Z" fill="white"/>
<mask id="mask12_13_5060" style="mask-type:luminance" maskUnits="userSpaceOnUse" x="2349" y="1674" width="761" height="870">
<path d="M2349.48 2428C2380.85 2375.65 2400.88 2317.3 2408.26 2256.73C2426.29 2120.34 2415.11 1924.64 2503.63 1833.6C2659.85 1672.87 2822.28 1617.79 3014.29 1746.07C3206.29 1874.34 3068.92 2054.72 2952.9 2543.2C2952.9 2543.02 2735.75 2435.84 2349.48 2428Z" fill="white"/>
</mask>
<g mask="url(#mask12_13_5060)">
<path opacity="0.2" d="M2338.49 2408.8C2338.49 2408.8 2413.31 2361.29 2563.84 2381.76C2714.38 2402.22 2795.06 2389.33 2780.19 2349.85C2765.31 2310.36 2453.06 2355.52 2455.13 2317.94C2457.21 2280.35 2725.56 2261.6 2812.1 2286.02C2898.64 2310.45 2814.62 2267.27 2831.21 2222.92C2847.8 2178.57 2879.62 2195.88 2864.65 2098.08C2849.69 2000.27 2874.48 1958.99 2874.48 1958.99L3054.76 2026.68L3201.25 2173.17C3201.25 2173.17 3096.05 2462.25 3096.05 2464.15C3096.05 2466.04 3012.13 2605.04 3012.13 2605.04L2283.95 2475.51L2338.49 2408.8Z" fill="black"/>
</g>
<path d="M2349.48 2428C2380.85 2375.65 2400.88 2317.3 2408.26 2256.73C2426.29 2120.34 2415.11 1924.64 2503.63 1833.6C2659.85 1672.87 2822.28 1617.79 3014.29 1746.07C3206.29 1874.34 3068.92 2054.72 2952.9 2543.2C2952.9 2543.02 2735.75 2435.84 2349.48 2428Z" stroke="#263238" stroke-linecap="round" stroke-linejoin="round"/>
<path d="M2606.39 1729.12L2624.42 1762.92C2624.42 1762.92 2768.65 1622.03 2843.74 1635.37L2863.93 1683.15C2863.93 1683.15 2778.39 1690.63 2689.68 1816.2L2622.71 1777.71L2563.66 1816.2L2606.39 1729.12Z" fill="#4CA3FF"/>
<mask id="mask13_13_5060" style="mask-type:luminance" maskUnits="userSpaceOnUse" x="2563" y="1634" width="301" height="183">
<path d="M2606.39 1729.12L2624.42 1762.92C2624.42 1762.92 2768.65 1622.03 2843.74 1635.37L2863.93 1683.15C2863.93 1683.15 2778.39 1690.63 2689.68 1816.2L2622.71 1777.71L2563.66 1816.2L2606.39 1729.12Z" fill="white"/>
</mask>
<g mask="url(#mask13_13_5060)">
<path opacity="0.6" d="M2606.39 1729.12L2624.42 1762.92C2624.42 1762.92 2768.65 1622.03 2843.74 1635.37L2863.93 1683.15C2863.93 1683.15 2778.39 1690.63 2689.68 1816.2L2622.71 1777.71L2563.66 1816.2L2606.39 1729.12Z" fill="white"/>
</g>
<path d="M2606.39 1729.12L2624.42 1762.92C2624.42 1762.92 2768.65 1622.03 2843.74 1635.37L2863.93 1683.15C2863.93 1683.15 2778.39 1690.63 2689.68 1816.2L2622.71 1777.71L2563.66 1816.2L2606.39 1729.12Z" stroke="#263238" stroke-linecap="round" stroke-linejoin="round"/>
<path d="M2219.86 1980.98C2219.86 1980.98 2257.45 1876.32 2368.23 1867.94L2473.43 2151.89L2299 2250.15L2219.86 1980.98Z" fill="white" stroke="#263238" stroke-width="0.75" stroke-linecap="round" stroke-linejoin="round"/>
<path d="M2082.75 1919.14C2082.75 1919.14 2109.07 1847.03 2219.86 1980.98C2219.86 1980.98 2384.46 1858.12 2436.2 1932.75L2528.15 2197.05L2312.62 2293.33L2189.39 2176.77L2082.75 1919.14Z" fill="white" stroke="#263238" stroke-width="0.75" stroke-linecap="round" stroke-linejoin="round"/>
<path d="M2354.44 2313.79L2299 2311.9L2189.39 2018.03L2244.83 2019.83L2354.44 2313.79Z" fill="#4CA3FF" stroke="#263238" stroke-linecap="round" stroke-linejoin="round"/>
<path d="M2454.32 1919.14L2563.94 2212.83L2350.21 2315.05L2240.59 2021.18C2297.38 1962.76 2373.19 1926.57 2454.32 1919.14Z" fill="#4CA3FF"/>
<mask id="mask14_13_5060" style="mask-type:luminance" maskUnits="userSpaceOnUse" x="2240" y="1919" width="324" height="397">
<path d="M2454.32 1919.14L2563.94 2212.83L2350.21 2315.05L2240.59 2021.18C2297.38 1962.76 2373.19 1926.57 2454.32 1919.14Z" fill="white"/>
</mask>
<g mask="url(#mask14_13_5060)">
<path opacity="0.5" d="M2454.32 1919.14L2563.94 2212.83L2350.21 2315.05L2240.59 2021.18C2297.38 1962.76 2373.19 1926.57 2454.32 1919.14Z" fill="white"/>
</g>
<path d="M2454.32 1919.14L2563.94 2212.83L2350.21 2315.05L2240.59 2021.18C2297.38 1962.76 2373.19 1926.57 2454.32 1919.14Z" stroke="#263238" stroke-linecap="round" stroke-linejoin="round"/>
<path d="M2189.39 2018.03L2299 2311.99L2170.73 2191.01L2061.21 1897.33C2061.21 1897.33 2128.81 1924.82 2189.39 2018.03Z" fill="#4CA3FF"/>
<mask id="mask15_13_5060" style="mask-type:luminance" maskUnits="userSpaceOnUse" x="2061" y="1897" width="239" height="415">
<path d="M2189.39 2018.03L2299 2311.98L2170.73 2191.01L2061.21 1897.33C2061.21 1897.33 2128.81 1924.82 2189.39 2018.03Z" fill="white"/>
</mask>
<g mask="url(#mask15_13_5060)">
<path opacity="0.2" d="M2189.39 2018.03L2299 2311.98L2170.73 2191.01L2061.21 1897.33C2061.21 1897.33 2128.81 1924.82 2189.39 2018.03Z" fill="white"/>
</g>
<path d="M2189.39 2018.03L2299 2311.99L2170.73 2191.01L2061.21 1897.33C2061.21 1897.33 2128.81 1924.82 2189.39 2018.03Z" stroke="#263238" stroke-linecap="round" stroke-linejoin="round"/>
<path d="M3071.71 2293.96C3071.71 2293.96 3046.65 2430.52 3021.5 2447.2C2996.35 2463.88 2939.47 2475.69 2857.44 2447.2C2775.41 2418.71 2605.04 2328.39 2605.04 2328.39L2549.78 2304.95C2549.78 2304.95 2504.71 2321.63 2456.03 2249.7C2456.03 2249.7 2407.54 2244.83 2398.25 2256.46C2398.25 2256.46 2376.53 2258.08 2382.39 2234.64C2388.25 2211.21 2439.27 2210.3 2439.27 2210.3L2436.83 2202.01C2436.83 2202.01 2394.65 2198.59 2381.4 2213.73C2368.14 2228.87 2350.75 2236.08 2349.85 2223.19C2348.94 2210.3 2349.85 2197.77 2367.87 2181.01C2385.9 2164.24 2393.02 2165.95 2393.02 2165.95C2393.02 2165.95 2382.12 2160.09 2353.63 2180.2C2325.15 2200.3 2312.62 2183.53 2312.62 2174.34C2312.62 2165.14 2326.86 2161 2336.95 2153.42C2347.05 2145.85 2385.45 2124.94 2401.41 2124.13C2417.36 2123.32 2450.72 2129.18 2450.72 2124.13C2450.16 2119.72 2448.75 2115.47 2446.57 2111.6L2367.87 2105.74C2367.87 2105.74 2326.86 2118.27 2328.57 2095.64C2330.28 2073.02 2370.4 2069.68 2370.4 2069.68H2434.76C2434.76 2069.68 2495.97 2073.92 2513.55 2094.02C2531.12 2114.12 2563.75 2189.39 2594.67 2200.3C2625.59 2211.21 2856.09 2282.33 2877.54 2270.61C2899 2258.89 2904.59 2217.88 2904.59 2217.88L3077.84 2256.46L3071.71 2293.96Z" fill="white" stroke="#263238" stroke-linecap="round" stroke-linejoin="round"/>
<path d="M3014.29 1745.89C3014.29 1745.89 3123.63 1802.77 3145.99 1903.28C3168.34 2003.79 3079.01 2340.74 3079.01 2340.74C3079.01 2340.74 3018.71 2277.64 2884.84 2256.55C2884.84 2256.55 2902.87 2188.94 2884.84 2090.77C2874.3 2033.17 2863.12 1957.18 2889.35 1885.07" fill="white"/>
<path d="M3014.29 1745.89C3014.29 1745.89 3123.63 1802.77 3145.99 1903.28C3168.34 2003.79 3079.01 2340.74 3079.01 2340.74C3079.01 2340.74 3018.71 2277.64 2884.84 2256.55C2884.84 2256.55 2902.87 2188.94 2884.84 2090.77C2874.3 2033.17 2863.12 1957.18 2889.35 1885.07" stroke="#263238" stroke-linecap="round" stroke-linejoin="round"/>
<path d="M2869.25 2262.95C2869.25 2262.95 3020.69 2290.8 3075.32 2364.72C3075.32 2364.72 3095.69 2357.24 3095.69 2328.66C3095.69 2328.66 3106.87 2320.1 3104.7 2296.48C3104.7 2296.48 3025.92 2235.45 2877.45 2223.64C2877.45 2223.64 2862.04 2230.13 2868.89 2238.7C2869.25 2238.34 2842.75 2256.91 2869.25 2262.95Z" fill="#4CA3FF"/>
<mask id="mask16_13_5060" style="mask-type:luminance" maskUnits="userSpaceOnUse" x="2857" y="2223" width="248" height="142">
<path d="M2869.25 2262.95C2869.25 2262.95 3020.69 2290.8 3075.32 2364.72C3075.32 2364.72 3095.69 2357.24 3095.69 2328.66C3095.69 2328.66 3106.87 2320.1 3104.7 2296.48C3104.7 2296.48 3025.92 2235.45 2877.45 2223.64C2877.45 2223.64 2862.04 2230.13 2868.89 2238.7C2869.25 2238.34 2842.75 2256.91 2869.25 2262.95Z" fill="white"/>
</mask>
<g mask="url(#mask16_13_5060)">
<path opacity="0.6" d="M2869.25 2262.95C2869.25 2262.95 3020.69 2290.8 3075.32 2364.72C3075.32 2364.72 3095.69 2357.24 3095.69 2328.66C3095.69 2328.66 3106.87 2320.1 3104.7 2296.48C3104.7 2296.48 3025.92 2235.45 2877.45 2223.64C2877.45 2223.64 2862.04 2230.13 2868.89 2238.7C2869.25 2238.34 2842.75 2256.91 2869.25 2262.95Z" fill="white"/>
</g>
<path d="M2869.25 2262.95C2869.25 2262.95 3020.69 2290.8 3075.32 2364.72C3075.32 2364.72 3095.69 2357.24 3095.69 2328.66C3095.69 2328.66 3106.87 2320.1 3104.7 2296.48C3104.7 2296.48 3025.92 2235.45 2877.45 2223.64C2877.45 2223.64 2862.04 2230.13 2868.89 2238.7C2869.25 2238.34 2842.75 2256.91 2869.25 2262.95Z" stroke="#263238" stroke-linecap="round" stroke-linejoin="round"/>
<path d="M2443.59 2161.54C2443.59 2161.54 2418.89 2152.52 2407.54 2159.28" stroke="#263238" stroke-width="0.75" stroke-linecap="round" stroke-linejoin="round"/>
</svg>
