<svg width="15428" height="15041" viewBox="0 0 15428 15041" fill="none" xmlns="http://www.w3.org/2000/svg">
<path d="M12204.5 924.434C12206.8 924.434 12275.2 744.218 12278.2 733.527C12313 594.929 12298.1 306.659 12163.7 222.278C12140.7 209.285 12115.3 201.189 12089.1 198.503C12062.9 195.816 12036.3 198.596 12011.2 206.668C11986.1 214.74 11962.9 227.928 11943.2 245.401C11923.4 262.873 11907.5 284.251 11896.4 308.187C11846.4 409.749 11881.5 544.53 11929.6 639.983C11983.8 749.945 12204.5 924.053 12204.5 924.434Z" fill="#4CA3FF"/>
<path d="M15372.4 2245.89C15260.6 2131.35 14976.1 2178.69 14848.2 2242.46C14837.1 2247.8 14674.1 2353.56 14676.4 2357L14678.7 2359.29C14634 2366.55 14585.5 2374.56 14533.2 2384.49C14436.6 2403.96 14327.4 2426.49 14210.6 2460.85C14084 2494.39 13959.5 2535.57 13837.9 2584.18C13701.3 2637.57 13569.7 2702.99 13444.7 2779.67L13440.5 2782.72C13471 2747.21 13552.7 2644.51 13558.5 2636.11C13634.8 2515.07 13711.2 2236.73 13607.7 2114.17C13589.8 2094.6 13568.1 2078.98 13543.8 2068.29C13519.5 2057.6 13493.3 2052.08 13466.8 2052.08C13440.3 2052.08 13414.1 2057.6 13389.8 2068.29C13365.6 2078.98 13343.8 2094.6 13325.9 2114.17C13246.9 2195.11 13238.1 2333.71 13254.1 2439.47C13272.5 2558.22 13414.9 2777 13426.3 2794.56C13301.1 2875.44 13181.4 2964.74 13068.2 3061.83C13001.8 3118.34 12936.9 3176.37 12872.3 3236.7C12897.5 3205.01 12920.1 3176.75 12922.7 3172.17C12999.1 3051.14 13075.5 2772.8 12972.4 2650.23C12954.5 2630.67 12932.7 2615.05 12908.5 2604.36C12884.2 2593.67 12858 2588.15 12831.5 2588.15C12805 2588.15 12778.8 2593.67 12754.5 2604.36C12730.2 2615.05 12708.5 2630.67 12690.6 2650.23C12611.6 2731.18 12602.8 2870.16 12618.8 2975.54C12634.8 3080.92 12752.8 3271.44 12784.5 3319.17L12711.2 3388.28C12594 3499.77 12477.5 3611.64 12359.9 3717.79C12318.7 3755.97 12276.3 3790.71 12234.3 3826.22C12256.8 3797.97 12275.6 3774.29 12278.2 3770.48C12354.6 3649.44 12431 3371.1 12327.5 3248.15C12309.7 3228.47 12288.1 3212.7 12263.9 3201.85C12239.7 3190.99 12213.5 3185.29 12187 3185.11C12160.5 3184.93 12134.3 3190.28 12109.9 3200.8C12085.6 3211.33 12063.7 3226.8 12045.7 3246.24C11967.1 3327.19 11957.9 3466.17 11973.9 3571.55C11990 3676.93 12096.9 3849.13 12134.3 3908.31C12090.4 3943.44 12046.1 3978.56 12001.8 4010.64C11970.9 4031.64 11942.6 4054.16 11910.5 4073.64L11817.4 4133.2C11756.7 4168.71 11694.4 4205.74 11634.5 4239.34C11592.9 4262.63 11552.8 4284.02 11512.7 4306.16C11554.3 4267.98 11634.1 4195.43 11640.2 4188.56C11719.2 4090.57 11771.8 3973.97 11792.9 3849.89C11802.3 3839.47 11810.5 3828.07 11817.4 3815.91C11831.3 3793.4 11840.5 3768.22 11844.2 3742C11847.9 3715.77 11846.1 3689.05 11838.9 3663.56C11831.7 3638.06 11819.3 3614.33 11802.4 3593.89C11785.6 3573.45 11764.7 3556.74 11741 3544.82C11630.7 3494.04 11461.1 3566.2 11343.5 3649.82C11348.5 3568.5 11346.2 3518.48 11346.2 3518.48L11315.3 3521.53L11337.8 3467.7C11353.1 3434.1 11364.5 3396.68 11377.9 3360.79C11407.7 3276.79 11433.7 3190.12 11458.1 3102.68C11513.5 3129.41 11710.9 3222.95 11818.1 3226.77C11925.4 3230.59 12061.7 3206.15 12133.1 3118.34C12150.4 3098.22 12163.3 3074.72 12171 3049.33C12178.7 3023.95 12181.1 2997.24 12177.9 2970.91C12174.7 2944.58 12166 2919.2 12152.5 2896.4C12138.9 2873.59 12120.8 2853.86 12099.2 2838.47C11965.5 2750.65 11697.5 2857.94 11586 2947.28C11579.1 2953.01 11506.2 3026.32 11467.3 3067.17C11481.4 3014.48 11495.9 2961.79 11508.5 2907.58C11544.8 2752.18 11576.8 2593.34 11609.7 2435.27C11619.6 2386.78 11630.3 2338.67 11640.6 2290.18C11660.1 2300.11 11892.6 2416.18 12012.5 2420.38C12119.4 2424.2 12256.1 2399.76 12327.5 2311.95C12344.7 2291.84 12357.6 2268.36 12365.2 2243.02C12372.9 2217.67 12375.2 2191.01 12372 2164.72C12368.8 2138.44 12360.2 2113.11 12346.7 2090.34C12333.1 2067.57 12315 2047.86 12293.5 2032.46C12159.9 1944.26 11891.8 2051.55 11780.3 2141.28C11771.9 2147.77 11665.8 2253.15 11642.5 2281.4C11665 2175.26 11689.1 2069.49 11716.6 1966.02C11753 1826.47 11798.7 1689.48 11853.3 1555.95C11862.4 1560.54 12104.5 1682.72 12227.4 1686.92C12334 1691.12 12471 1666.3 12542.4 1578.48C12559.6 1558.35 12572.5 1534.85 12580.1 1509.49C12587.7 1484.13 12590 1457.46 12586.8 1431.17C12583.5 1404.89 12574.9 1379.56 12561.3 1356.81C12547.8 1334.05 12529.6 1314.36 12508.1 1298.99C12374.4 1210.79 12106.8 1318.08 11995.3 1407.81C11986.5 1414.68 11874.3 1528.08 11855.2 1550.23C11858.6 1542.59 11860.9 1534.19 11864.3 1526.55C11922.3 1393.27 11992.2 1265.48 12073.2 1144.74C12117.1 1077.92 12162.5 1016.07 12208.4 957.27C12251.1 984.76 12447.8 1107.7 12558.1 1124.12C12668.4 1140.54 12802.5 1129.85 12883 1050.81C12902.4 1032.69 12917.7 1010.73 12928.1 986.347C12938.5 961.96 12943.7 935.675 12943.4 909.168C12943.1 882.66 12937.2 856.51 12926.2 832.383C12915.3 808.257 12899.4 786.683 12879.6 769.035C12756.6 666.709 12478.7 744.218 12358 820.962C12351.5 824.78 12289.3 874.798 12243.5 911.452C12264.5 885.489 12285.5 857.998 12306.1 833.18C12382.5 740.018 12458.8 659.455 12528.3 588.819C12566.5 550.638 12604.7 512.457 12637.9 480.766C12694 485.73 12919.7 502.911 13023.1 467.402C13126.6 431.894 13243.1 360.113 13277.8 252.441C13286.7 227.464 13290.2 200.922 13288.2 174.503C13286.2 148.084 13278.8 122.367 13266.3 98.9872C13253.8 75.6079 13236.7 55.0784 13215.8 38.7045C13195 22.3307 13171 10.471 13145.3 3.88023C12988.8 -30.1012 12777.6 166.915 12705.9 290.241C12699.8 300.932 12622.2 479.239 12624.9 481.148H12628.4C12594.8 511.693 12559.2 545.293 12521.1 582.329C12450.8 651.819 12372.5 730.854 12292 822.871C12205.1 920.9 12124 1023.91 12049.1 1131.38C11964.8 1251.88 11891.3 1379.66 11829.6 1513.19L11827.3 1518.15C11833.4 1471.57 11845.3 1340.99 11844.9 1330.68C11841.8 1187.89 11751.7 913.743 11598.2 867.925C11572.6 861.253 11545.9 859.977 11519.8 864.176C11493.7 868.376 11468.7 877.96 11446.5 892.321C11424.2 906.682 11405.2 925.505 11390.7 947.597C11376.1 969.689 11366.3 994.566 11361.9 1020.65C11340.9 1131.38 11410 1252.03 11481.8 1331.45C11562.3 1420.79 11802.1 1522.35 11821.2 1532.66C11761.4 1669.06 11711 1809.38 11670.4 1952.66C11645.9 2036.28 11624.2 2121.04 11603.2 2206.57C11607 2166.09 11610.1 2130.2 11609.7 2124.86C11606.6 1982.06 11516.5 1707.92 11363 1662.1C11337.4 1655.49 11310.8 1654.26 11284.7 1658.49C11258.6 1662.71 11233.7 1672.31 11211.5 1686.67C11189.3 1701.02 11170.4 1719.82 11155.8 1741.88C11141.3 1763.94 11131.5 1788.78 11127.1 1814.82C11105.7 1925.55 11175.2 2046.2 11246.6 2125.62C11318 2205.04 11521.9 2298.2 11575.7 2322.25C11568.1 2355.09 11560 2387.55 11552.4 2420.38C11516.1 2578.07 11481 2735.76 11441.3 2888.87C11427.5 2943.08 11411.9 2995.77 11396.6 3048.47C11399.7 3012.96 11402 2982.41 11402 2977.83C11398.9 2835.03 11308.8 2560.89 11155.3 2515.07C11129.7 2508.46 11103.1 2507.23 11077 2511.46C11050.9 2515.69 11026 2525.28 11003.8 2539.64C10981.6 2553.99 10962.7 2572.8 10948.1 2594.86C10933.6 2616.92 10923.8 2641.75 10919.4 2667.8C10898 2778.9 10967.1 2899.56 11038.9 2978.97C11110.6 3058.39 11294.3 3142.39 11358.1 3169.88C11340.9 3223.72 11323.3 3277.17 11303.8 3328.33C11290.1 3363.08 11279 3397.44 11263 3431.42L11219.1 3529.93C11185.1 3535.66 11145.8 3543.3 11101.9 3553.22C11090.4 3409.28 11036.6 3233.64 10927 3181.72C10902.6 3171.23 10876.3 3165.95 10849.7 3166.21C10823.2 3166.48 10797 3172.27 10772.8 3183.23C10748.6 3194.19 10727 3210.07 10709.3 3229.86C10691.6 3249.65 10678.2 3272.92 10670 3298.17C10631.8 3404.7 10682.6 3534.51 10741.4 3623.48C10750 3636.99 10759.7 3649.76 10770.4 3661.66C10582.8 3738.19 10414.1 3854.67 10276 4003C9880.06 4445.9 9909.84 5118.66 9909.84 5118.66C9909.84 5118.66 10471.5 5080.48 10870.5 4736.85C10993 4678.81 11151.5 4601.68 11332.9 4504.32C11400.8 4468.43 11472.6 4427.96 11545.9 4386.34C11565.4 4410.4 11723.1 4605.88 11828.1 4658.96C11923.5 4707.45 12057.2 4742.19 12159.5 4692.56C12183.5 4681.51 12204.9 4665.61 12222.4 4645.86C12239.9 4626.12 12253.1 4602.96 12261.2 4577.84C12269.3 4552.73 12272.2 4526.2 12269.5 4499.94C12266.8 4473.69 12258.8 4448.27 12245.8 4425.29C12161.4 4289.36 11873.1 4274.85 11734.5 4310.74C11726.5 4313.03 11640.2 4345.11 11586 4366.11C11615.8 4348.92 11645.2 4332.51 11675.7 4314.18C11736.4 4278.67 11796 4241.63 11860.1 4201.92L11952.2 4140.45C11983.1 4120.6 12013.6 4095.78 12044.6 4073.25C12115.6 4019.8 12185.1 3961.76 12253.8 3902.2C12285.1 3955.27 12398.5 4141.98 12485.6 4204.22C12572.6 4266.45 12700.1 4321.43 12808.2 4287.83C12833.7 4280.55 12857.4 4268.02 12877.8 4251.07C12898.2 4234.11 12914.8 4213.08 12926.6 4189.34C12938.5 4165.59 12945.2 4139.65 12946.4 4113.15C12947.7 4086.66 12943.4 4060.19 12933.8 4035.45C12871.2 3888.46 12588.3 3830.04 12446.2 3844.55C12437.1 3844.55 12336.3 3866.31 12280.9 3878.91C12321.8 3842.64 12363 3806.37 12403.5 3768.57C12518 3658.6 12632.6 3544.06 12747.1 3430.28C12782.2 3395.15 12817.7 3360.79 12852.9 3326.43C12863.6 3345.13 12993.7 3570.4 13091.5 3640.28C13178.2 3702.51 13306.1 3757.11 13413.7 3723.51C13439.2 3716.26 13462.9 3703.78 13483.3 3686.86C13503.7 3669.95 13520.4 3648.97 13532.3 3625.27C13544.1 3601.56 13550.9 3575.65 13552.2 3549.18C13553.5 3522.71 13549.2 3496.26 13539.7 3471.52C13476.7 3324.13 13196.1 3266.1 13051.8 3280.61C13041.1 3280.61 12896 3311.92 12860.9 3321.46C12937.2 3245.1 13016.7 3168.74 13096.5 3099.63C13204 3003.23 13317.8 2913.95 13437 2832.36C13442 2841.14 13576.8 3076.72 13676.8 3148.12C13763.5 3210.35 13891.4 3265.34 13999.1 3231.35C14024.6 3224.1 14048.3 3211.62 14068.7 3194.71C14089.1 3177.79 14105.7 3156.81 14117.6 3133.11C14129.4 3109.41 14136.2 3083.49 14137.5 3057.02C14138.8 3030.55 14134.6 3004.1 14125.1 2979.36C14062.1 2831.98 13779.5 2773.94 13637.1 2788.45C13626 2788.45 13469.9 2822.43 13441.6 2830.45C13448.9 2825.49 13455.4 2820.14 13462.2 2815.56C13584 2737.03 13712.5 2669.56 13846.3 2613.96C13919.6 2582.27 13991.4 2555.92 14062.1 2532.25C14082.7 2578.45 14178.9 2789.6 14262.1 2864.05C14345.4 2938.5 14462.6 3003.79 14573.3 2982.41C14599.5 2977.99 14624.4 2968.16 14646.6 2953.55C14668.8 2938.93 14687.6 2919.86 14702 2897.55C14716.4 2875.24 14725.9 2850.18 14730.1 2823.96C14734.2 2797.75 14732.8 2770.96 14726 2745.3C14679.5 2592.58 14404.9 2503.23 14262.1 2500.94C14254.1 2500.94 14175.1 2507.82 14117.4 2514.31C14149.5 2504 14182.3 2492.54 14213.3 2483.38C14327.8 2448.25 14437.4 2423.44 14533.6 2402.05C14588.2 2390.22 14637.8 2380.67 14686.3 2372.65C14730.2 2407.4 14909.3 2546.38 15015.1 2573.87C15120.8 2601.36 15257.5 2605.56 15346.1 2535.69C15368.7 2519.75 15387.6 2499.08 15401.5 2475.11C15415.3 2451.15 15423.8 2424.45 15426.3 2396.88C15428.8 2369.32 15425.3 2341.53 15416 2315.46C15406.7 2289.39 15391.8 2265.65 15372.4 2245.89ZM11290.9 4418.03C11207.6 4460.41 11129 4498.98 11056.4 4532.58C11179.3 4354.4 11263.7 4152.59 11304.2 3940C11326 3945.35 11348.1 3949.93 11370.3 3954.13C11376.8 4074.4 11472.6 4288.22 11484.8 4315.71C11418.4 4352.36 11353.1 4388.25 11290.9 4418.03Z" fill="#4CA3FF"/>
<path d="M14245 2376.47C14350.3 2279.87 14497.3 2032.84 14430.5 1886.22C14418.6 1862.57 14401.9 1841.65 14381.4 1824.8C14361 1807.95 14337.3 1795.54 14311.8 1788.36C14286.3 1781.18 14259.6 1779.38 14233.3 1783.08C14207.1 1786.78 14181.9 1795.9 14159.4 1809.86C14062.1 1867.13 14016.6 1998.48 14004.4 2104.62C13989.9 2229.09 14077.7 2495.98 14077.7 2495.98C14077.7 2495.98 14236.2 2384.87 14245 2376.47Z" fill="#4CA3FF"/>
<path d="M9621.19 1188.27C9621.19 1188.27 8806.01 2015.28 8801.81 3040.07C8797.61 4064.85 9603.62 4898.35 9603.62 4898.35C9603.62 4898.35 10419.6 4071.34 10423 3046.94C10426.4 2022.53 9621.19 1188.27 9621.19 1188.27Z" fill="#4CA3FF"/>
<path d="M7829.33 3531.84C7829.33 3531.84 7824.37 4205.36 8236.35 4633.37C8648.32 5061.39 9321.08 5082.01 9321.08 5082.01C9321.08 5082.01 9326.42 4408.49 8914.45 3980.47C8502.47 3552.46 7829.33 3531.84 7829.33 3531.84Z" fill="#4CA3FF"/>
<g opacity="0.5">
<path d="M12204.5 924.434C12206.8 924.434 12275.2 744.218 12278.2 733.527C12313 594.929 12298.1 306.659 12163.7 222.278C12140.7 209.285 12115.3 201.189 12089.1 198.503C12062.8 195.816 12036.3 198.596 12011.2 206.668C11986.1 214.74 11962.9 227.928 11943.2 245.401C11923.4 262.873 11907.5 284.251 11896.4 308.187C11846.4 409.749 11881.5 544.53 11929.6 639.983C11983.8 749.945 12204.5 924.053 12204.5 924.434Z" fill="white"/>
<path d="M15372.4 2245.89C15260.6 2131.35 14976.1 2178.69 14848.2 2242.46C14837.1 2247.8 14674.1 2353.56 14676.4 2357L14678.7 2359.29C14634 2366.55 14585.5 2374.56 14533.2 2384.49C14436.6 2403.96 14327.4 2426.49 14210.6 2460.85C14084 2494.39 13959.5 2535.57 13837.9 2584.18C13701.3 2637.57 13569.7 2702.99 13444.7 2779.67L13440.5 2782.72C13471 2747.21 13552.7 2644.51 13558.5 2636.11C13634.8 2515.07 13711.2 2236.73 13607.7 2114.17C13589.8 2094.6 13568.1 2078.98 13543.8 2068.29C13519.5 2057.6 13493.3 2052.08 13466.8 2052.08C13440.3 2052.08 13414.1 2057.6 13389.8 2068.29C13365.6 2078.98 13343.8 2094.6 13325.9 2114.17C13246.9 2195.11 13238.1 2333.71 13254.1 2439.47C13272.5 2558.22 13414.9 2777 13426.3 2794.56C13301.1 2875.44 13181.4 2964.74 13068.2 3061.83C13001.8 3118.34 12936.9 3176.37 12872.3 3236.7C12897.5 3205.01 12920.1 3176.75 12922.7 3172.17C12999.1 3051.14 13075.5 2772.8 12972.4 2650.23C12954.5 2630.67 12932.7 2615.05 12908.5 2604.36C12884.2 2593.67 12858 2588.15 12831.5 2588.15C12805 2588.15 12778.8 2593.67 12754.5 2604.36C12730.2 2615.05 12708.5 2630.67 12690.6 2650.23C12611.6 2731.18 12602.8 2870.16 12618.8 2975.54C12634.8 3080.92 12752.8 3271.44 12784.5 3319.17L12711.2 3388.28C12594 3499.77 12477.5 3611.64 12359.9 3717.79C12318.7 3755.97 12276.3 3790.71 12234.3 3826.22C12256.8 3797.97 12275.6 3774.29 12278.2 3770.48C12354.6 3649.44 12431 3371.1 12327.5 3248.15C12309.7 3228.47 12288.1 3212.7 12263.9 3201.85C12239.7 3190.99 12213.5 3185.29 12187 3185.11C12160.5 3184.93 12134.3 3190.28 12109.9 3200.8C12085.6 3211.33 12063.7 3226.8 12045.7 3246.24C11967.1 3327.19 11957.9 3466.17 11973.9 3571.55C11990 3676.93 12096.9 3849.13 12134.3 3908.31C12090.4 3943.44 12046.1 3978.56 12001.8 4010.64C11970.9 4031.64 11942.6 4054.16 11910.5 4073.64L11817.4 4133.2C11756.7 4168.71 11694.4 4205.74 11634.5 4239.34C11592.9 4262.63 11552.8 4284.02 11512.7 4306.16C11554.3 4267.98 11634.1 4195.43 11640.2 4188.56C11719.2 4090.57 11771.8 3973.97 11792.9 3849.89C11802.3 3839.47 11810.5 3828.07 11817.4 3815.91C11831.3 3793.4 11840.5 3768.22 11844.2 3742C11847.9 3715.77 11846.1 3689.05 11838.9 3663.56C11831.7 3638.06 11819.3 3614.33 11802.4 3593.89C11785.6 3573.45 11764.7 3556.74 11741 3544.82C11630.7 3494.04 11461.1 3566.2 11343.5 3649.82C11348.5 3568.5 11346.2 3518.48 11346.2 3518.48L11315.3 3521.53L11337.8 3467.7C11353.1 3434.1 11364.5 3396.68 11377.9 3360.79C11407.7 3276.79 11433.7 3190.12 11458.1 3102.68C11513.5 3129.41 11710.9 3222.95 11818.1 3226.77C11925.4 3230.59 12061.7 3206.15 12133.1 3118.34C12150.4 3098.22 12163.3 3074.72 12171 3049.33C12178.7 3023.95 12181.1 2997.24 12177.9 2970.91C12174.7 2944.58 12166 2919.2 12152.5 2896.4C12138.9 2873.59 12120.8 2853.86 12099.2 2838.47C11965.5 2750.65 11697.5 2857.94 11586 2947.28C11579.1 2953.01 11506.2 3026.32 11467.3 3067.17C11481.4 3014.48 11495.9 2961.79 11508.5 2907.58C11544.8 2752.18 11576.8 2593.34 11609.7 2435.27C11619.6 2386.78 11630.3 2338.67 11640.6 2290.18C11660.1 2300.11 11892.6 2416.18 12012.5 2420.38C12119.4 2424.2 12256.1 2399.76 12327.5 2311.95C12344.7 2291.84 12357.6 2268.36 12365.2 2243.02C12372.9 2217.67 12375.2 2191.01 12372 2164.72C12368.8 2138.44 12360.2 2113.11 12346.7 2090.34C12333.1 2067.57 12315 2047.86 12293.5 2032.46C12159.9 1944.26 11891.8 2051.55 11780.3 2141.28C11771.9 2147.77 11665.8 2253.15 11642.5 2281.4C11665 2175.26 11689.1 2069.49 11716.6 1966.02C11753 1826.47 11798.7 1689.48 11853.3 1555.95C11862.4 1560.54 12104.5 1682.72 12227.4 1686.92C12334 1691.12 12471 1666.3 12542.4 1578.48C12559.6 1558.35 12572.5 1534.85 12580.1 1509.49C12587.7 1484.13 12590 1457.46 12586.8 1431.17C12583.5 1404.89 12574.9 1379.56 12561.3 1356.81C12547.8 1334.05 12529.6 1314.36 12508.1 1298.99C12374.4 1210.79 12106.8 1318.08 11995.3 1407.81C11986.5 1414.68 11874.3 1528.08 11855.2 1550.23C11858.6 1542.59 11860.9 1534.19 11864.3 1526.55C11922.3 1393.27 11992.2 1265.48 12073.2 1144.74C12117.1 1077.92 12162.5 1016.07 12208.4 957.27C12251.1 984.76 12447.8 1107.7 12558.1 1124.12C12668.4 1140.54 12802.5 1129.85 12883 1050.81C12902.4 1032.69 12917.7 1010.73 12928.1 986.347C12938.5 961.96 12943.7 935.675 12943.4 909.168C12943.1 882.66 12937.2 856.51 12926.2 832.383C12915.3 808.257 12899.4 786.683 12879.6 769.035C12756.6 666.709 12478.7 744.218 12358 820.962C12351.5 824.78 12289.3 874.798 12243.5 911.452C12264.5 885.489 12285.5 857.998 12306.1 833.18C12382.5 740.018 12458.8 659.455 12528.3 588.819C12566.5 550.638 12604.7 512.457 12637.9 480.766C12694 485.73 12919.7 502.911 13023.1 467.402C13126.6 431.894 13243.1 360.113 13277.8 252.441C13286.7 227.464 13290.2 200.922 13288.2 174.503C13286.2 148.084 13278.8 122.367 13266.3 98.9872C13253.8 75.6079 13236.7 55.0784 13215.8 38.7045C13195 22.3307 13171 10.471 13145.3 3.88023C12988.8 -30.1012 12777.6 166.915 12705.9 290.241C12699.8 300.932 12622.2 479.239 12624.9 481.148H12628.4C12594.8 511.693 12559.2 545.293 12521.1 582.329C12450.8 651.819 12372.5 730.854 12292 822.871C12205.1 920.9 12124 1023.91 12049.1 1131.38C11964.8 1251.88 11891.3 1379.66 11829.6 1513.19L11827.3 1518.15C11833.4 1471.57 11845.3 1340.99 11844.9 1330.68C11841.8 1187.89 11751.7 913.743 11598.2 867.925C11572.6 861.253 11545.9 859.977 11519.8 864.176C11493.7 868.376 11468.7 877.96 11446.5 892.321C11424.2 906.682 11405.2 925.505 11390.7 947.597C11376.1 969.689 11366.3 994.566 11361.9 1020.65C11340.9 1131.38 11410 1252.03 11481.8 1331.45C11562.3 1420.79 11802.1 1522.35 11821.2 1532.66C11761.4 1669.06 11711 1809.38 11670.4 1952.66C11645.9 2036.28 11624.2 2121.04 11603.2 2206.57C11607 2166.09 11610.1 2130.2 11609.7 2124.86C11606.6 1982.06 11516.5 1707.92 11363 1662.1C11337.4 1655.49 11310.8 1654.26 11284.7 1658.49C11258.6 1662.71 11233.7 1672.31 11211.5 1686.67C11189.3 1701.02 11170.4 1719.82 11155.8 1741.88C11141.3 1763.94 11131.5 1788.78 11127.1 1814.82C11105.7 1925.55 11175.2 2046.2 11246.6 2125.62C11318 2205.04 11521.9 2298.2 11575.7 2322.25C11568.1 2355.09 11560 2387.55 11552.4 2420.38C11516.1 2578.07 11481 2735.76 11441.3 2888.87C11427.5 2943.08 11411.9 2995.77 11396.6 3048.47C11399.7 3012.96 11402 2982.41 11402 2977.83C11398.9 2835.03 11308.8 2560.89 11155.3 2515.07C11129.7 2508.46 11103.1 2507.23 11077 2511.46C11050.9 2515.69 11026 2525.28 11003.8 2539.64C10981.6 2553.99 10962.7 2572.8 10948.1 2594.86C10933.6 2616.92 10923.8 2641.75 10919.4 2667.8C10898 2778.9 10967.1 2899.56 11038.9 2978.97C11110.6 3058.39 11294.3 3142.39 11358.1 3169.88C11340.9 3223.72 11323.3 3277.17 11303.8 3328.33C11290.1 3363.08 11279 3397.44 11263 3431.42L11219.1 3529.93C11185.1 3535.66 11145.8 3543.3 11101.9 3553.22C11090.4 3409.28 11036.6 3233.64 10927 3181.72C10902.6 3171.23 10876.3 3165.95 10849.7 3166.21C10823.2 3166.48 10797 3172.27 10772.8 3183.23C10748.6 3194.19 10727 3210.07 10709.3 3229.86C10691.6 3249.65 10678.2 3272.92 10670 3298.17C10631.8 3404.7 10682.6 3534.51 10741.4 3623.48C10750 3636.99 10759.7 3649.76 10770.4 3661.66C10582.8 3738.19 10414.1 3854.67 10276 4003C9880.06 4445.9 9909.84 5118.66 9909.84 5118.66C9909.84 5118.66 10471.5 5080.48 10870.5 4736.85C10993 4678.81 11151.5 4601.68 11332.9 4504.32C11400.8 4468.43 11472.6 4427.96 11545.9 4386.34C11565.4 4410.4 11723.1 4605.88 11828.1 4658.96C11923.5 4707.45 12057.2 4742.19 12159.5 4692.56C12183.5 4681.51 12204.9 4665.61 12222.4 4645.86C12239.9 4626.12 12253.1 4602.96 12261.2 4577.84C12269.3 4552.73 12272.2 4526.2 12269.5 4499.94C12266.8 4473.69 12258.8 4448.27 12245.8 4425.29C12161.4 4289.36 11873.1 4274.85 11734.5 4310.74C11726.5 4313.03 11640.2 4345.11 11586 4366.11C11615.8 4348.92 11645.2 4332.51 11675.7 4314.18C11736.4 4278.67 11796 4241.63 11860.1 4201.92L11952.2 4140.45C11983.1 4120.6 12013.6 4095.78 12044.6 4073.25C12115.6 4019.8 12185.1 3961.76 12253.8 3902.2C12285.1 3955.27 12398.5 4141.98 12485.6 4204.22C12572.6 4266.45 12700.1 4321.43 12808.2 4287.83C12833.7 4280.55 12857.4 4268.02 12877.8 4251.07C12898.2 4234.11 12914.8 4213.08 12926.6 4189.34C12938.5 4165.59 12945.2 4139.65 12946.4 4113.15C12947.7 4086.66 12943.4 4060.19 12933.8 4035.45C12871.2 3888.46 12588.3 3830.04 12446.2 3844.55C12437.1 3844.55 12336.3 3866.31 12280.9 3878.91C12321.8 3842.64 12363 3806.37 12403.5 3768.57C12518 3658.6 12632.6 3544.06 12747.1 3430.28C12782.2 3395.15 12817.7 3360.79 12852.9 3326.43C12863.6 3345.13 12993.7 3570.4 13091.5 3640.28C13178.2 3702.51 13306.1 3757.11 13413.7 3723.51C13439.2 3716.26 13462.9 3703.78 13483.3 3686.86C13503.7 3669.95 13520.4 3648.97 13532.3 3625.27C13544.1 3601.56 13550.9 3575.65 13552.2 3549.18C13553.5 3522.71 13549.2 3496.26 13539.7 3471.52C13476.7 3324.13 13196.1 3266.1 13051.8 3280.61C13041.1 3280.61 12896 3311.92 12860.9 3321.46C12937.2 3245.1 13016.7 3168.74 13096.5 3099.63C13204 3003.23 13317.8 2913.95 13437 2832.36C13442 2841.14 13576.8 3076.72 13676.8 3148.12C13763.5 3210.35 13891.4 3265.34 13999.1 3231.35C14024.6 3224.1 14048.3 3211.62 14068.7 3194.71C14089.1 3177.79 14105.7 3156.81 14117.6 3133.11C14129.4 3109.41 14136.2 3083.49 14137.5 3057.02C14138.8 3030.55 14134.6 3004.1 14125.1 2979.36C14062.1 2831.98 13779.5 2773.94 13637.1 2788.45C13626 2788.45 13469.9 2822.43 13441.6 2830.45C13448.9 2825.49 13455.4 2820.14 13462.2 2815.56C13584 2737.03 13712.5 2669.56 13846.3 2613.96C13919.6 2582.27 13991.4 2555.92 14062.1 2532.25C14082.7 2578.45 14178.9 2789.6 14262.1 2864.05C14345.4 2938.5 14462.6 3003.79 14573.3 2982.41C14599.5 2977.99 14624.4 2968.16 14646.6 2953.55C14668.8 2938.93 14687.6 2919.86 14702 2897.55C14716.4 2875.24 14725.9 2850.18 14730.1 2823.96C14734.2 2797.75 14732.8 2770.96 14726 2745.3C14679.5 2592.58 14404.9 2503.23 14262.1 2500.94C14254.1 2500.94 14175.1 2507.82 14117.4 2514.31C14149.5 2504 14182.3 2492.54 14213.3 2483.38C14327.8 2448.25 14437.4 2423.44 14533.6 2402.05C14588.2 2390.22 14637.8 2380.67 14686.3 2372.65C14730.2 2407.4 14909.3 2546.38 15015.1 2573.87C15120.8 2601.36 15257.5 2605.56 15346.1 2535.69C15368.7 2519.75 15387.6 2499.08 15401.5 2475.11C15415.3 2451.15 15423.8 2424.45 15426.3 2396.88C15428.8 2369.32 15425.3 2341.53 15416 2315.46C15406.7 2289.39 15391.8 2265.65 15372.4 2245.89ZM11290.9 4418.03C11207.6 4460.41 11129 4498.98 11056.4 4532.58C11179.3 4354.4 11263.7 4152.59 11304.2 3940C11326 3945.35 11348.1 3949.93 11370.3 3954.13C11376.8 4074.4 11472.6 4288.22 11484.8 4315.71C11418.4 4352.36 11353.1 4388.25 11290.9 4418.03Z" fill="white"/>
<path d="M14245 2376.47C14350.3 2279.87 14497.3 2032.84 14430.5 1886.22C14418.6 1862.57 14401.9 1841.65 14381.4 1824.8C14361 1807.95 14337.3 1795.54 14311.8 1788.36C14286.3 1781.18 14259.6 1779.38 14233.3 1783.08C14207.1 1786.78 14181.9 1795.9 14159.4 1809.86C14062.1 1867.13 14016.6 1998.48 14004.4 2104.62C13989.9 2229.09 14077.7 2495.98 14077.7 2495.98C14077.7 2495.98 14236.2 2384.87 14245 2376.47Z" fill="white"/>
<path d="M9621.19 1188.27C9621.19 1188.27 8806.01 2015.28 8801.81 3040.07C8797.61 4064.85 9603.62 4898.35 9603.62 4898.35C9603.62 4898.35 10419.6 4071.34 10423 3046.94C10426.4 2022.53 9621.19 1188.27 9621.19 1188.27Z" fill="white"/>
<path d="M7829.33 3531.84C7829.33 3531.84 7824.37 4205.36 8236.35 4633.37C8648.32 5061.39 9321.08 5082.01 9321.08 5082.01C9321.08 5082.01 9326.42 4408.49 8914.45 3980.47C8502.47 3552.46 7829.33 3531.84 7829.33 3531.84Z" fill="white"/>
</g>
<path d="M10133.6 3968.64L10107.6 3935.04L9628.06 4311.51L9631.88 3483.35L10298.1 2893.83L10269.9 2862.14L9631.88 3426.46L9636.08 2516.98L10084.7 2128.29L10057.2 2096.22L9636.08 2460.47L9641.8 1188.27H9599.42L9591.02 3062.59L9063.36 2290.95L9028.23 2314.62L9587.59 3132.08L9591.02 3129.79L9587.59 3908.69L8954.54 3339.41L8926.28 3371.1L9587.2 3965.58V3965.2L9583.39 4898.35L9625.77 4898.74L9628.06 4365.34L10133.6 3968.64Z" fill="white"/>
<path d="M11361.5 3528.02L11330.2 3499.77L10624.6 4288.6L10688.7 3778.88L10646.7 3773.91L10575 4343.58H10575.3L10291.6 4660.87L10238.2 4190.09L10196.2 4194.67L10253.9 4703.25L9895.71 5103.39L9927.4 5131.64L10130.9 4904.46L10498.6 4926.61L10500.9 4884.23L10166.8 4863.99L10471.9 4523.03L10983.9 4523.41V4481.03L10509.7 4480.27L10845.3 4105.33L11185.5 4109.53L11186.2 4067.15L10883.1 4063.33L11361.5 3528.02Z" fill="white"/>
<path d="M9174.46 4482.56L9132.46 4476.83L9087.41 4808.63L8770.12 4478.74L8809.07 3968.25L8766.69 3965.2L8730.79 4437.89L8381.44 4075.16L8411.22 3736.11L8368.84 3732.68L8342.49 4034.69L7844.6 3517.33L7814.06 3546.73L8547.91 4309.21L8044.67 4206.89L8036.28 4248.51L8599.07 4362.67V4361.9L8894.21 4668.88L8420.76 4686.83L8422.29 4729.21L8933.54 4709.74L9305.81 5096.51L9336.35 5067.11L9125.21 4847.57L9174.46 4482.56Z" fill="white"/>
<path d="M9484.11 14608.3L14359.5 12779L14394.6 12389.2L9555.13 14218.1L9484.11 14608.3Z" fill="#4CA3FF" stroke="#2E353A" stroke-width="1.13593" stroke-linecap="round" stroke-linejoin="round"/>
<path d="M8663.21 8141.87C8577.55 8141.21 8494.74 8111 8428.78 8056.34C8345.9 7987.98 8291.45 7891.2 8276.05 7784.87C8274.13 7765.88 8279.57 7746.87 8291.25 7731.77C8302.94 7716.68 8319.98 7706.65 8338.85 7703.76C8357.72 7700.87 8376.98 7705.33 8392.65 7716.24C8408.32 7727.14 8419.2 7743.64 8423.05 7762.34C8433.01 7832.08 8468.53 7895.63 8522.71 7940.65C8546.27 7960.97 8573.96 7975.94 8603.87 7984.51C8633.79 7993.08 8665.2 7995.06 8695.95 7990.3C8726.7 7985.54 8756.05 7974.17 8781.98 7956.96C8807.9 7939.75 8829.78 7917.12 8846.1 7890.63C8857.35 7875.04 8874.19 7864.41 8893.1 7860.95C8912.01 7857.5 8931.53 7861.49 8947.56 7872.1C8963.59 7882.71 8974.9 7899.1 8979.12 7917.86C8983.34 7936.61 8980.14 7956.27 8970.19 7972.72C8942.32 8016.43 8905.48 8053.71 8862.09 8082.08C8818.71 8110.45 8769.79 8129.27 8718.58 8137.28C8700.28 8140.35 8681.76 8141.88 8663.21 8141.87Z" fill="#2E353A"/>
<path d="M7959.53 8359.12C7771.3 8359.12 7602.92 8209.45 7571.23 8002.5C7569.7 7992.87 7570.1 7983.04 7572.39 7973.56C7574.67 7964.09 7578.81 7955.16 7584.56 7947.28C7590.3 7939.41 7597.55 7932.74 7605.87 7927.67C7614.2 7922.61 7623.45 7919.23 7633.08 7917.74C7652.55 7915.17 7672.26 7920.21 7688.12 7931.8C7703.98 7943.39 7714.76 7960.64 7718.22 7979.98C7740.37 8125.45 7862.93 8227.77 7990.84 8209.07C8021.54 8204.06 8050.83 8192.59 8076.77 8175.41C8102.7 8158.23 8124.69 8135.73 8141.27 8109.41C8152.52 8093.82 8169.36 8083.19 8188.27 8079.73C8207.19 8076.28 8226.7 8080.27 8242.73 8090.88C8258.77 8101.49 8270.07 8117.88 8274.29 8136.64C8278.51 8155.39 8275.31 8175.05 8265.36 8191.5C8237.5 8235.21 8200.65 8272.49 8157.27 8300.86C8113.88 8329.23 8064.96 8348.05 8013.75 8356.06C7995.79 8358.57 7977.66 8359.59 7959.53 8359.12Z" fill="#2E353A"/>
<path d="M7315.79 8606.15C7230.18 8605.57 7147.39 8575.5 7081.36 8521C6998.56 8452.57 6944.14 8355.82 6928.63 8249.53C6926.71 8230.54 6932.15 8211.53 6943.83 8196.44C6955.52 8181.34 6972.56 8171.31 6991.43 8168.42C7010.3 8165.53 7029.56 8170 7045.23 8180.9C7060.9 8191.8 7071.78 8208.31 7075.63 8227.01C7085.59 8296.74 7121.11 8360.29 7175.28 8405.31C7199.09 8425.26 7226.83 8439.99 7256.69 8448.54C7286.55 8457.09 7317.87 8459.27 7348.63 8454.95C7379.28 8449.94 7408.51 8438.47 7434.39 8421.28C7460.26 8404.1 7482.18 8381.61 7498.68 8355.3C7511.16 8343.2 7527.4 8335.73 7544.7 8334.11C7562.01 8332.49 7579.35 8336.83 7593.86 8346.4C7608.37 8355.96 7619.18 8370.2 7624.5 8386.74C7629.83 8403.28 7629.35 8421.15 7623.15 8437.39C7595.17 8481.07 7558.24 8518.33 7514.8 8546.69C7471.37 8575.06 7422.41 8593.89 7371.16 8601.95C7352.85 8604.88 7334.33 8606.29 7315.79 8606.15Z" fill="#2E353A"/>
<path d="M6612.11 8807.75C6423.87 8807.75 6255.49 8657.7 6223.8 8451.14C6221.84 8441.29 6221.88 8431.14 6223.94 8421.31C6226 8411.48 6230.02 8402.17 6235.77 8393.93C6241.52 8385.7 6248.88 8378.71 6257.4 8373.39C6265.92 8368.07 6275.43 8364.53 6285.35 8362.99C6295.28 8361.44 6305.41 8361.92 6315.14 8364.39C6324.88 8366.86 6334.01 8371.28 6342 8377.38C6349.98 8383.47 6356.65 8391.12 6361.6 8399.86C6366.55 8408.6 6369.68 8418.25 6370.8 8428.23C6393.33 8573.7 6515.51 8676.02 6643.42 8657.32C6674.07 8652.31 6703.33 8640.88 6729.25 8623.77C6755.18 8606.66 6777.19 8584.26 6793.85 8558.04C6798.88 8549.17 6805.67 8541.43 6813.82 8535.29C6821.96 8529.15 6831.27 8524.75 6841.19 8522.36C6851.1 8519.97 6861.4 8519.65 6871.44 8521.4C6881.49 8523.15 6891.06 8526.95 6899.58 8532.56C6908.09 8538.17 6915.37 8545.46 6920.95 8554C6926.53 8562.53 6930.3 8572.12 6932.02 8582.17C6933.74 8592.22 6933.38 8602.52 6930.96 8612.42C6928.54 8622.33 6924.11 8631.63 6917.94 8639.75C6890.02 8683.45 6853.16 8720.74 6809.8 8749.17C6766.43 8777.6 6717.53 8796.52 6666.33 8804.7C6648.35 8807.02 6630.23 8808.05 6612.11 8807.75Z" fill="#2E353A"/>
<path d="M5891.63 9094.11C5703.77 9094.11 5535.39 8944.44 5503.32 8737.49C5504.48 8720.16 5511.52 8703.74 5523.28 8690.94C5535.03 8678.14 5550.8 8669.74 5567.98 8667.11C5585.15 8664.49 5602.71 8667.8 5617.75 8676.5C5632.79 8685.2 5644.41 8698.77 5650.7 8714.97C5672.85 8860.44 5795.41 8962.38 5923.32 8944.06C5954 8938.98 5983.26 8927.48 6009.18 8910.31C6035.11 8893.13 6057.11 8870.67 6073.75 8844.4C6085 8828.81 6101.84 8818.18 6120.75 8814.72C6139.66 8811.27 6159.18 8815.26 6175.21 8825.87C6191.24 8836.48 6202.55 8852.87 6206.77 8871.63C6210.99 8890.38 6207.79 8910.04 6197.84 8926.49C6169.92 8970.15 6133.05 9007.39 6089.68 9035.76C6046.31 9064.13 5997.42 9082.97 5946.23 9091.06C5928.12 9093.38 5909.88 9094.4 5891.63 9094.11Z" fill="#2E353A"/>
<path d="M5194.05 9349.54C5108.43 9349.02 5025.62 9318.95 4959.62 9264.4C4876.82 9195.96 4822.4 9099.22 4806.89 8992.93C4804.96 8973.93 4810.41 8954.93 4822.09 8939.83C4833.78 8924.74 4850.82 8914.71 4869.69 8911.81C4888.56 8908.92 4907.82 8913.39 4923.49 8924.29C4939.16 8935.2 4950.04 8951.7 4953.89 8970.4C4963.85 9040.14 4999.37 9103.68 5053.54 9148.71C5077.11 9169.03 5104.8 9183.99 5134.71 9192.56C5164.62 9201.14 5196.04 9203.11 5226.79 9198.36C5257.54 9193.6 5286.89 9182.23 5312.81 9165.02C5338.74 9147.81 5360.62 9125.18 5376.94 9098.69C5389.42 9086.6 5405.66 9079.12 5422.96 9077.5C5440.27 9075.89 5457.61 9080.22 5472.12 9089.79C5486.63 9099.36 5497.44 9113.59 5502.76 9130.13C5508.09 9146.68 5507.61 9164.54 5501.41 9180.78C5473.43 9224.46 5436.5 9261.72 5393.06 9290.09C5349.62 9318.45 5300.67 9337.28 5249.41 9345.34C5231.11 9348.28 5212.59 9349.68 5194.05 9349.54Z" fill="#2E353A"/>
<path d="M9617.75 14370.4L13652.4 12884" stroke="#2E353A" stroke-width="0.567964" stroke-linecap="round" stroke-linejoin="round"/>
<path d="M9511.61 14494.5L12095 13538.8" stroke="#2E353A" stroke-width="0.567964" stroke-linecap="round" stroke-linejoin="round"/>
<path d="M4626.29 9178.11V9638.96L9484.11 14608.3L9555.13 14218.1L4626.29 9178.11Z" fill="#4CA3FF" stroke="#2E353A" stroke-width="1.13593" stroke-linecap="round" stroke-linejoin="round"/>
<path d="M4698.46 9539.69L7583.06 12423.9" stroke="#2E353A" stroke-width="0.567964" stroke-linecap="round" stroke-linejoin="round"/>
<path d="M6061.15 10778.3L9069.08 13857.2" stroke="#2E353A" stroke-width="0.567964" stroke-linecap="round" stroke-linejoin="round"/>
<path d="M4626.29 9178.11L9555.13 14218.1L14394.6 12389.2L9378.73 7582.12L4626.29 9178.11Z" fill="white" stroke="#2E353A" stroke-width="1.13593" stroke-linecap="round" stroke-linejoin="round"/>
<path d="M4565.97 9098.69L1 4838.03L4677.08 3379.88L9342.84 7506.14L4565.97 9098.69Z" fill="#4CA3FF" stroke="#2E353A" stroke-width="1.13593" stroke-linecap="round" stroke-linejoin="round"/>
<path d="M699.719 4866.28L2036.07 4450.11" stroke="#2E353A" stroke-width="1.21052" stroke-linecap="round" stroke-linejoin="round"/>
<path d="M897.118 5019.77L2233.47 4603.6" stroke="#2E353A" stroke-width="1.21052" stroke-linecap="round" stroke-linejoin="round"/>
<path d="M5438.79 9214C5424.26 9214.09 5410.04 9209.83 5397.94 9201.78C5381.83 9190.62 5370.62 9173.7 5366.64 9154.51C5362.66 9135.32 5366.21 9115.34 5376.56 9098.69C5414.71 9039.45 5429.41 8968.12 5417.79 8898.62C5411.32 8845.94 5389.3 8796.39 5354.55 8756.27C5319.81 8716.15 5273.9 8687.28 5222.69 8673.35C5204.2 8668.29 5188.37 8656.29 5178.51 8639.85C5168.65 8623.41 5165.5 8603.8 5169.73 8585.11C5173.97 8566.41 5185.25 8550.06 5201.23 8539.48C5217.21 8528.89 5236.66 8524.87 5255.52 8528.26C5335.88 8548.85 5408.28 8592.95 5463.44 8654.92C5518.6 8716.88 5554.02 8793.89 5565.17 8876.09C5582.62 8982.35 5559.75 9091.29 5501.03 9181.54C5494.01 9191.54 5484.69 9199.7 5473.86 9205.35C5463.03 9210.99 5451.01 9213.96 5438.79 9214Z" fill="#2E353A"/>
<path d="M6135.61 8958.56C6121.07 8958.65 6106.85 8954.4 6094.75 8946.35C6086.57 8940.98 6079.53 8934.06 6074.04 8925.96C6068.55 8917.86 6064.72 8908.76 6062.77 8899.18C6060.82 8889.59 6060.78 8879.72 6062.67 8870.12C6064.55 8860.52 6068.32 8851.39 6073.75 8843.26C6111.73 8783.94 6126.41 8712.68 6114.99 8643.19C6108.51 8590.51 6086.49 8540.95 6051.75 8500.83C6017 8460.71 5971.09 8431.85 5919.88 8417.92C5909.89 8416.26 5900.34 8412.58 5891.82 8407.11C5883.3 8401.64 5875.98 8394.49 5870.32 8386.09C5864.65 8377.69 5860.77 8368.23 5858.89 8358.28C5857.01 8348.32 5857.18 8338.09 5859.39 8328.21C5861.6 8318.33 5865.8 8309 5871.74 8300.79C5877.68 8292.59 5885.23 8285.69 5893.94 8280.5C5902.64 8275.32 5912.3 8271.96 5922.34 8270.64C5932.38 8269.32 5942.59 8270.07 5952.33 8272.83C6032.7 8293.42 6105.09 8337.52 6160.25 8399.48C6215.41 8461.44 6250.83 8538.45 6261.99 8620.66C6279.43 8726.91 6256.56 8835.85 6197.84 8926.11C6190.82 8936.1 6181.5 8944.26 6170.67 8949.91C6159.84 8955.56 6147.82 8958.53 6135.61 8958.56Z" fill="#2E353A"/>
<path d="M8907.96 8006.32C8894.89 8005.66 8882.2 8001.66 8871.13 7994.68C8860.05 7987.71 8850.95 7978.01 8844.7 7966.51C8838.45 7955.01 8835.26 7942.1 8835.44 7929.01C8835.62 7915.92 8839.16 7903.1 8845.72 7891.78C8883.91 7832.7 8898.62 7761.46 8886.96 7692.09C8880.55 7639.34 8858.57 7589.7 8823.81 7549.51C8789.06 7509.32 8743.12 7480.39 8691.85 7466.44C8682.32 7464.36 8673.29 7460.41 8665.3 7454.82C8657.3 7449.23 8650.5 7442.11 8645.28 7433.87C8640.06 7425.63 8636.52 7416.44 8634.88 7406.82C8633.24 7397.21 8633.53 7387.36 8635.72 7377.85C8640.45 7358.81 8652.33 7342.31 8668.89 7331.79C8685.46 7321.27 8705.44 7317.53 8724.69 7321.35C8805.05 7341.94 8877.44 7386.04 8932.6 7448C8987.76 7509.96 9023.18 7586.97 9034.34 7669.18C9051.82 7775.48 9028.8 7884.48 8969.81 7974.63C8962.9 7984.59 8953.64 7992.7 8942.86 7998.23C8932.07 8003.75 8920.08 8006.53 8907.96 8006.32Z" fill="#2E353A"/>
<path d="M8203.13 8222.81C8188.6 8222.9 8174.37 8218.64 8162.28 8210.59C8154.09 8205.23 8147.06 8198.3 8141.57 8190.21C8136.08 8182.11 8132.25 8173.01 8130.29 8163.42C8128.34 8153.84 8128.31 8143.96 8130.19 8134.36C8132.08 8124.76 8135.84 8115.64 8141.27 8107.5C8179.28 8048.2 8193.98 7976.93 8182.51 7907.43C8176.03 7854.75 8154.02 7805.2 8119.27 7765.08C8084.52 7724.96 8038.62 7696.09 7987.4 7682.16C7977.41 7680.51 7967.86 7676.83 7959.34 7671.36C7950.82 7665.88 7943.5 7658.73 7937.84 7650.33C7932.18 7641.94 7928.29 7632.47 7926.41 7622.52C7924.53 7612.57 7924.7 7602.34 7926.91 7592.46C7929.12 7582.57 7933.33 7573.24 7939.27 7565.04C7945.21 7556.84 7952.76 7549.93 7961.46 7544.75C7970.16 7539.56 7979.83 7536.21 7989.87 7534.89C7999.91 7533.57 8010.11 7534.31 8019.86 7537.07C8100.27 7557.57 8172.71 7601.64 8227.89 7663.62C8283.07 7725.6 8318.45 7802.66 8329.51 7884.9C8346.96 7991.16 8324.08 8100.1 8265.36 8190.35C8258.34 8200.35 8249.03 8208.51 8238.2 8214.16C8227.37 8219.8 8215.34 8222.77 8203.13 8222.81Z" fill="#2E353A"/>
<path d="M7559.39 8470.99C7544.82 8470.94 7530.6 8466.55 7518.54 8458.39C7502.42 8447.23 7491.22 8430.31 7487.24 8411.12C7483.26 8391.93 7486.81 8371.94 7497.15 8355.3C7535.5 8296.14 7550.35 8224.78 7538.77 8155.23C7532.29 8102.55 7510.28 8052.99 7475.53 8012.88C7440.78 7972.76 7394.88 7943.89 7343.66 7929.96C7333.67 7928.3 7324.12 7924.63 7315.6 7919.15C7307.08 7913.68 7299.76 7906.53 7294.1 7898.13C7288.44 7889.73 7284.55 7880.27 7282.67 7870.32C7280.79 7860.37 7280.96 7850.14 7283.17 7840.25C7285.38 7830.37 7289.59 7821.04 7295.53 7812.84C7301.47 7804.63 7309.02 7797.73 7317.72 7792.55C7326.42 7787.36 7336.09 7784.01 7346.13 7782.69C7356.17 7781.37 7366.37 7782.11 7376.12 7784.87C7456.48 7805.46 7528.87 7849.56 7584.03 7911.52C7639.19 7973.49 7674.62 8050.5 7685.77 8132.7C7703.22 8238.95 7680.34 8347.89 7621.63 8438.15C7614.65 8448.22 7605.35 8456.45 7594.52 8462.17C7583.68 8467.88 7571.64 8470.91 7559.39 8470.99Z" fill="#2E353A"/>
<path d="M6855.71 8672.2C6841.21 8672.09 6827.03 8667.86 6814.85 8659.99C6806.67 8654.63 6799.63 8647.7 6794.14 8639.6C6788.65 8631.5 6784.82 8622.4 6782.87 8612.82C6780.92 8603.23 6780.88 8593.36 6782.77 8583.76C6784.65 8574.16 6788.42 8565.03 6793.85 8556.9C6831.83 8497.58 6846.52 8426.32 6835.09 8356.83C6828.61 8304.15 6806.59 8254.59 6771.85 8214.47C6737.1 8174.35 6691.19 8145.49 6639.98 8131.56C6628.54 8131.56 6617.24 8128.99 6606.92 8124.04C6596.61 8119.09 6587.53 8111.89 6580.37 8102.96C6573.22 8094.04 6568.16 8083.61 6565.57 8072.47C6562.98 8061.32 6562.93 8049.73 6565.42 8038.57C6567.91 8027.4 6572.88 8016.93 6579.96 8007.94C6587.04 7998.95 6596.05 7991.67 6606.33 7986.63C6616.6 7981.59 6627.88 7978.93 6639.32 7978.83C6650.76 7978.74 6662.08 7981.22 6672.44 7986.08C6752.87 8006.54 6825.34 8050.59 6880.53 8112.58C6935.71 8174.57 6971.08 8251.66 6982.09 8333.92C6999.57 8440.17 6976.69 8549.12 6917.94 8639.37C6910.96 8649.43 6901.66 8657.67 6890.83 8663.38C6880 8669.1 6867.95 8672.12 6855.71 8672.2Z" fill="#2E353A"/>
<path d="M13463 12272.7L13650.9 12203.6" stroke="#2E353A" stroke-width="0.567964" stroke-linecap="round" stroke-linejoin="round"/>
<path d="M9754.44 13642.7L13292.3 12336.1" stroke="#2E353A" stroke-width="0.567964" stroke-linecap="round" stroke-linejoin="round"/>
<path d="M9853.71 13052L13230.1 11805" stroke="#2E353A" stroke-width="0.567964" stroke-linecap="round" stroke-linejoin="round"/>
<path d="M9333.68 13244L9629.2 13134.8" stroke="#2E353A" stroke-width="0.567964" stroke-linecap="round" stroke-linejoin="round"/>
<path d="M8912.92 12845.4L12809.7 11406.4" stroke="#2E353A" stroke-width="0.567964" stroke-linecap="round" stroke-linejoin="round"/>
<path d="M8492.54 12447.2L12389 11008.1" stroke="#2E353A" stroke-width="0.567964" stroke-linecap="round" stroke-linejoin="round"/>
<path d="M11804.8 10669.9L11968.2 10609.5" stroke="#2E353A" stroke-width="0.567964" stroke-linecap="round" stroke-linejoin="round"/>
<path d="M8071.78 12048.6L11571.1 10756.1" stroke="#2E353A" stroke-width="0.567964" stroke-linecap="round" stroke-linejoin="round"/>
<path d="M7651.03 11650L11547.8 10210.9" stroke="#2E353A" stroke-width="0.567964" stroke-linecap="round" stroke-linejoin="round"/>
<path d="M7230.27 11251.7L11127.1 9812.68" stroke="#2E353A" stroke-width="0.567964" stroke-linecap="round" stroke-linejoin="round"/>
<path d="M6809.89 10853.1L10706.3 9414.07" stroke="#2E353A" stroke-width="0.567964" stroke-linecap="round" stroke-linejoin="round"/>
<path d="M6389.13 10454.5L10285.5 9015.46" stroke="#2E353A" stroke-width="0.567964" stroke-linecap="round" stroke-linejoin="round"/>
<path d="M9726.95 8668.01L9865.16 8616.84" stroke="#2E353A" stroke-width="0.567964" stroke-linecap="round" stroke-linejoin="round"/>
<path d="M5968.37 10055.9L9607.06 8712.29" stroke="#2E353A" stroke-width="0.567964" stroke-linecap="round" stroke-linejoin="round"/>
<path d="M6711 9227.74L9444.4 8218.61" stroke="#2E353A" stroke-width="0.567964" stroke-linecap="round" stroke-linejoin="round"/>
<path d="M5547.99 9657.67L6300.55 9379.71" stroke="#2E353A" stroke-width="0.567964" stroke-linecap="round" stroke-linejoin="round"/>
<g style="mix-blend-mode:multiply">
<path d="M6899.62 10688.2C7294.03 10739.7 7259.28 10064.7 7159.25 9838.26C7086.27 9921.91 7031.88 10020.1 6999.7 10126.3C6967.51 10232.6 6958.25 10344.4 6972.54 10454.5C6976.69 10505.9 6994.63 10555.2 7024.47 10597.3C7039.58 10618.1 7060.51 10634 7084.63 10643C7108.74 10652 7134.97 10653.6 7160.01 10647.7C7195.91 10632.5 7226.29 10606.6 7247.07 10573.6C7319.61 10477.4 7367.72 10358.3 7444.08 10270.1C7549.84 10341.5 7925.55 10463.7 7871.33 10201C7841.55 10055.9 7913.71 10072.3 7991.22 10143.3C8023.29 10172.4 8073.69 10156.7 8113.4 10139.1L8495.22 9971.14C8543.81 9946.36 8596.43 9930.45 8650.61 9924.17C8833.88 9915.01 8953.77 10085.3 9133.61 9965.03C9209.97 9914.63 9227.54 9777.94 9324.52 9726.01C9393.62 9687.83 9474.95 9685.54 9553.6 9674.85C9823.93 9638.96 9962.15 9496.16 10211.9 9367.11" stroke="#4CA3FF" stroke-width="1.13593" stroke-linecap="round" stroke-linejoin="round"/>
</g>
<g style="mix-blend-mode:multiply">
<path d="M7205.83 11110.1C7353.59 11135.3 7479.97 11000.5 7610.55 10957.4C7777.41 10901.6 7849.95 10833.7 8010.31 10764.5C8222.22 10673.7 8471.16 10631.7 8426.87 10311.3C8396.71 10425.9 8393.27 10551.9 8369.98 10671.8C8541.8 10756.9 8588 10610.7 8605.56 10480.9C8663.23 10479.4 8720.21 10467.9 8773.94 10446.9C8773.94 10470.9 8781.58 10498 8781.19 10520.9C8863.67 10554.2 8895.74 10531.6 8912.92 10458.7C9004.17 10441.5 9036.63 10356 9113.75 10335C9133.23 10549.2 9187.83 10736.7 9175.23 10955.8C9028.99 10994 9006.08 10741.6 9043.12 10637C9081.3 10526.3 9191.26 10467.1 9231.73 10351.4C9240.13 10365.5 9233.64 10382 9238.23 10397.2C9422.26 10287.3 9658.22 10317.1 9840.73 10188.4C9898 10147.9 9938.85 10067 9999.56 10038.7C10131.7 9977.63 10171 10049.4 10269.5 9905.46" stroke="#4CA3FF" stroke-width="1.13593" stroke-linecap="round" stroke-linejoin="round"/>
</g>
<g style="mix-blend-mode:multiply">
<path d="M8536.07 12368.2C8801.43 12291.8 8917.88 11632.4 8841.52 11390.3C8752.18 11097.5 8629.23 11418.6 8600.6 11575.9C8577.69 11701.9 8541.03 12034.1 8658.63 12129.9C8919.41 12341.4 9078.63 11906.6 9110.7 11709.9C9122.15 11832.9 9048.08 11984.4 9078.25 12116.9C9289.39 12141.7 9394.01 11966.1 9380.64 11784.8C9406.86 11809.8 9424.63 11842.5 9431.47 11878.1C9438.31 11913.8 9433.89 11950.7 9418.82 11983.7C9620.42 11969.5 9587.2 11629.4 9609.73 11492.3C9598.28 11588.1 9607.06 11700.4 9671.58 11777.9C9725.42 11842 9828.13 11870.3 9895.71 11820.6C9963.29 11771 9949.93 11640.4 9867.84 11623.2V12449.9C9870.43 12473.8 9865.63 12497.9 9854.09 12519C9826.98 12557.2 9760.55 12549.1 9729.62 12512.5C9702.38 12472.5 9689.58 12424.4 9693.35 12376.2C9689.53 12105.5 9773.15 11734.7 9982.76 11549.9C9993.52 11576.3 9997.08 11605 9993.07 11633.2C10013.1 11625.4 10031.3 11613.3 10046.2 11597.8C10061.2 11582.3 10072.6 11563.8 10079.7 11543.4C10093.5 11604.2 10129.4 11680.5 10190.9 11669.8C10211.3 11664.5 10229.9 11654 10245.1 11639.3C10345.9 11556 10455.1 11501.1 10522.6 11382.7C10532.2 11412.5 10542.1 11442.3 10552 11472.4C10568.1 11414.8 10623.1 11377 10676.9 11351C10759 11312.4 10847.8 11290 10938.4 11285C11014.8 11281.1 11098 11289.2 11167.5 11256.3C11198.3 11239.9 11227.8 11221.1 11255.7 11200.2C11334.9 11148.1 11426.5 11118 11521.1 11113.1" stroke="#4CA3FF" stroke-width="1.13593" stroke-linecap="round" stroke-linejoin="round"/>
</g>
<path d="M5390.31 5117.14C5390.31 5117.14 5999.3 4349.69 6205.48 4075.17C6411.66 3800.64 6560.95 3589.5 6560.95 3589.5C6560.95 3589.5 6670.91 3676.17 6637.31 3774.68C6603.71 3873.19 5879.41 4862.47 5718.28 5113.7C5557.16 5364.93 5579.69 5682.98 5591.52 5792.56C5603.36 5902.15 5283.78 5544 5390.31 5117.14Z" fill="white" stroke="#2E353A" stroke-width="1.27267" stroke-linecap="round" stroke-linejoin="round"/>
<path d="M6560.95 3589.5C6560.95 3589.5 6940.09 3062.21 7221.48 2623.13C7502.88 2184.04 7913.71 1524.65 8011.46 1436.83C8109.2 1349.01 8132.88 1578.1 8101.18 1731.59C8069.49 1885.08 7733.12 2313.47 7505.94 2664.74C7278.76 3016.01 7138.25 3268.77 6942.76 3499.39C6747.27 3730 6758.73 3741.08 6637.31 3774.68C6515.89 3808.28 6539.57 3688.01 6560.95 3589.5Z" fill="#2E353A" stroke="#2E353A" stroke-width="1.27267" stroke-linecap="round" stroke-linejoin="round"/>
<path d="M5259.34 5194.26C5301.34 4909.81 5396.41 4384.44 5613.67 4219.11C5830.92 4053.79 6488.4 4180.93 6543 4190.86C6597.6 4200.78 7462.79 4392.45 7726.63 4554.72C7990.46 4717 8167.62 5185.86 8235.2 5457.33C8302.78 5728.8 8447.87 6188.51 8469.63 6220.96C8469.63 6220.96 8689.18 6317.56 8809.45 6306.11C8929.72 6294.65 9089.7 5735.68 9426.46 5405.41C9763.22 5075.14 9938.09 5030.08 10310 5061.77C10681.9 5093.46 12094.6 5476.42 12237.8 5617.31C12380.9 5758.2 12470.3 6075.49 12439.4 6304.58C12408.4 6533.67 12453.5 6785.66 12453.5 6829.19C12453.5 6872.72 12586 7014.37 12553.9 7134.64C12521.8 7254.91 12502 7516.46 12403.8 7551.2C12305.7 7585.95 11583.7 7567.62 11047.6 7494.69C10511.6 7421.77 9765.89 7098.37 9272.21 6872.34C8778.52 6646.3 8537.6 6548.94 8176.78 6551.61C7815.97 6554.28 7116.49 6569.56 6470.46 6420.65C5824.43 6271.74 5385.34 6000.65 5263.93 5881.91C5142.51 5763.17 5217.73 5479.1 5259.34 5194.26ZM9127.88 6535.19C9304.66 6796.74 10017.1 7054.46 10400.5 7160.99C10783.8 7267.51 11703.2 7458.42 11943 7325.93C12182.8 7193.44 12308.8 6405 12286.6 6131.62C12264.5 5858.24 12152.6 5706.28 12152.6 5706.28C11680.3 5414.19 10202.3 5106.83 9896.86 5229.39C9591.4 5351.95 9299.32 5747.13 9192.03 6064.8C9084.74 6382.47 9127.88 6535.19 9127.88 6535.19ZM6041.68 6085.8C6513.6 6366.81 7257.76 6449.29 7552.9 6458.45C7848.04 6467.61 8131.35 6312.6 8140.13 5973.55C8148.91 5634.49 7970.22 5067.12 7903.4 4904.47C7836.59 4741.81 7617.43 4644.07 7617.43 4644.07C7321.52 4503.94 6094.75 4195.06 5887.05 4229.42C5679.34 4263.78 5497.59 4579.16 5455.21 5040.01C5412.83 5500.86 5569.76 5804.78 6041.68 6085.8Z" fill="#2E353A" stroke="#2E353A" stroke-width="1.27267" stroke-linecap="round" stroke-linejoin="round"/>
<path d="M12420.6 6819.64C12420.6 6819.64 12542.1 7004.82 12628.7 6873.1C12715.4 6741.37 13833.4 5487.49 13833.4 5487.49C13833.4 5487.49 13876.9 5476.04 13866.6 5563.86C13856.3 5651.67 12686 7222.84 12642.5 7299.58C12599 7376.33 12413.4 7399.62 12369.9 7367.16C12326.3 7334.71 12420.6 6819.64 12420.6 6819.64Z" fill="white" stroke="#2E353A" stroke-width="1.27267" stroke-linecap="round" stroke-linejoin="round"/>
<path d="M13757 5531.4C13820.9 5417.67 13878.5 5300.54 13929.6 5180.52C14047.9 4917.45 14120.5 4403.14 14139.6 3867.08C14158.7 3331.01 14177.8 3014.1 14276.6 3111.85C14375.5 3209.59 14290.8 3735.35 14272.4 4150.38C14254.1 4565.41 14125.1 4982.36 14093.8 5201.52C14070.1 5366.84 13943.3 5628.77 13855.9 5629.15C13768.5 5629.53 13779.5 5607.77 13757 5531.4Z" fill="#2E353A" stroke="#2E353A" stroke-width="1.27267" stroke-linecap="round" stroke-linejoin="round"/>
<path d="M6543 12385L7023.7 12929L6308.95 12767.9L1223.19 9656.52L1457.62 9273.56L6543 12385Z" fill="white" stroke="#2E353A" stroke-width="1.4364" stroke-linecap="round" stroke-linejoin="round"/>
<g style="mix-blend-mode:multiply" opacity="0.5">
<path d="M6543 12385L7023.7 12929L6308.95 12767.9L1223.19 9656.52L1457.62 9273.56L6543 12385Z" fill="#4CA3FF"/>
<path d="M6543 12385L7023.7 12929L6308.95 12767.9L1223.19 9656.52L1457.62 9273.56L6543 12385Z" stroke="#2E353A" stroke-width="1.4364" stroke-linecap="round" stroke-linejoin="round"/>
</g>
<path d="M1404.38 9360.73L1276.65 9569.5L6362.28 12681.1L6490.02 12472.3L1404.38 9360.73Z" stroke="#2E353A" stroke-width="0.718198" stroke-linecap="round" stroke-linejoin="round"/>
<path d="M6544.15 12386.1L6310.09 12768.3L7023.7 12929L6544.15 12386.1Z" fill="white" stroke="#2E353A" stroke-width="1.4364" stroke-linecap="round" stroke-linejoin="round"/>
<path d="M6666.71 12848.5L7023.7 12929L6783.93 12657.6L6666.71 12848.5Z" fill="#4CA3FF" stroke="#2E353A" stroke-width="1.4364" stroke-linecap="round" stroke-linejoin="round"/>
<path d="M771.119 9116.64C755.696 9141.75 745.378 9169.66 740.754 9198.76C736.13 9227.87 737.291 9257.6 744.172 9286.25C751.052 9314.91 763.516 9341.92 780.85 9365.76C798.184 9389.59 820.048 9409.77 845.191 9425.14L1223.19 9656.52L1457.62 9274.71L1079.62 9043.33C1028.97 9012.22 968.05 9002.46 910.216 9016.2C852.383 9029.95 802.36 9066.06 771.119 9116.64Z" fill="white" stroke="#2E353A" stroke-width="1.4364" stroke-linecap="round" stroke-linejoin="round"/>
<path d="M771.119 9116.64C755.696 9141.75 745.378 9169.66 740.754 9198.76C736.13 9227.87 737.291 9257.6 744.172 9286.25C751.052 9314.91 763.516 9341.92 780.85 9365.76C798.184 9389.59 820.048 9409.77 845.191 9425.14L1026.17 9535.87L1260.6 9154.05L1079.62 9043.33C1028.97 9012.22 968.05 9002.46 910.216 9016.2C852.383 9029.95 802.36 9066.06 771.119 9116.64Z" fill="#2E353A" stroke="#2E353A" stroke-width="1.4364" stroke-linecap="round" stroke-linejoin="round"/>
<path d="M11033.9 7293.47L10899.9 7199.16C10879.2 7184.62 10855.4 7174.94 10830.4 7170.84C10805.4 7166.74 10779.8 7168.33 10755.6 7175.49C10613.9 7216.73 10346.6 7321.73 10270.3 7404.58C10171 7506.91 10139.7 7692.09 10187.4 7779.14C10235.1 7866.19 10431 7977.3 10431 7977.3L11251.5 7477.89L11033.9 7293.47Z" fill="white" stroke="#2E353A" stroke-width="0.9473" stroke-miterlimit="10"/>
<g style="mix-blend-mode:multiply" opacity="0.5">
<path d="M11033.9 7293.47L10899.9 7199.16C10879.2 7184.62 10855.4 7174.94 10830.4 7170.84C10805.4 7166.74 10779.8 7168.33 10755.6 7175.49C10613.9 7216.73 10346.6 7321.73 10270.3 7404.58C10171 7506.91 10139.7 7692.09 10187.4 7779.14C10235.1 7866.19 10431 7977.3 10431 7977.3L11251.5 7477.89L11033.9 7293.47Z" fill="#4CA3FF"/>
<path d="M11033.9 7293.47L10899.9 7199.16C10879.2 7184.62 10855.4 7174.94 10830.4 7170.84C10805.4 7166.74 10779.8 7168.33 10755.6 7175.49C10613.9 7216.73 10346.6 7321.73 10270.3 7404.58C10171 7506.91 10139.7 7692.09 10187.4 7779.14C10235.1 7866.19 10431 7977.3 10431 7977.3L11251.5 7477.89L11033.9 7293.47Z" stroke="#2E353A" stroke-width="0.9473" stroke-miterlimit="10"/>
</g>
<path d="M11117.5 7254.91L10468.4 7551.58C10468.4 7551.58 10248.9 7675.67 10318.4 8055.57L14119.3 10854.3C14119.3 10854.3 14251.4 10950.5 14490.1 10869.2C14728.7 10787.8 14973.1 10506.4 15024.6 10268.6C15076.2 10030.7 14910.1 9955.86 14879.1 9929.52C14848.2 9903.17 11245.8 7283.16 11245.8 7283.16C11207.7 7258.87 11162.3 7248.85 11117.5 7254.91Z" fill="white" stroke="#2E353A" stroke-width="0.9473" stroke-miterlimit="10"/>
<g style="mix-blend-mode:multiply" opacity="0.5">
<path d="M11117.5 7254.91L10468.4 7551.58C10468.4 7551.58 10248.9 7675.67 10318.4 8055.57L14119.3 10854.3C14119.3 10854.3 14251.4 10950.5 14490.1 10869.2C14728.7 10787.8 14973.1 10506.4 15024.6 10268.6C15076.2 10030.7 14910.1 9955.86 14879.1 9929.52C14848.2 9903.17 11245.8 7283.16 11245.8 7283.16C11207.7 7258.87 11162.3 7248.85 11117.5 7254.91Z" fill="#4CA3FF"/>
<path d="M11117.5 7254.91L10468.4 7551.58C10468.4 7551.58 10248.9 7675.67 10318.4 8055.57L14119.3 10854.3C14119.3 10854.3 14251.4 10950.5 14490.1 10869.2C14728.7 10787.8 14973.1 10506.4 15024.6 10268.6C15076.2 10030.7 14910.1 9955.86 14879.1 9929.52C14848.2 9903.17 11245.8 7283.16 11245.8 7283.16C11207.7 7258.87 11162.3 7248.85 11117.5 7254.91Z" stroke="#2E353A" stroke-width="0.9473" stroke-miterlimit="10"/>
</g>
<path d="M14768.8 10671.8C14529.4 10895.1 14239.6 10973.8 14119.7 10847C13999.8 10720.3 14098.7 10435.8 14338.1 10212.1C14577.5 9988.32 14867.3 9910.04 14987.2 10036.8C15107.1 10163.6 15007.8 10448 14768.8 10671.8Z" fill="white" stroke="#2E353A" stroke-width="0.9473" stroke-miterlimit="10"/>
<g style="mix-blend-mode:multiply">
<path d="M14768.8 10671.8C14529.4 10895.1 14239.6 10973.8 14119.7 10847C13999.8 10720.3 14098.7 10435.8 14338.1 10212.1C14577.5 9988.32 14867.3 9910.04 14987.2 10036.8C15107.1 10163.6 15007.8 10448 14768.8 10671.8Z" fill="#4CA3FF"/>
<path d="M14768.8 10671.8C14529.4 10895.1 14239.6 10973.8 14119.7 10847C13999.8 10720.3 14098.7 10435.8 14338.1 10212.1C14577.5 9988.32 14867.3 9910.04 14987.2 10036.8C15107.1 10163.6 15007.8 10448 14768.8 10671.8Z" stroke="#2E353A" stroke-width="0.9473" stroke-miterlimit="10"/>
</g>
<path d="M11245.4 7283.16C11207.5 7258.96 11162.1 7248.95 11117.5 7254.91L10468.4 7551.58C10468.4 7551.58 10248.9 7675.67 10318.4 8055.57L12946.8 9990.99C12928.1 9901.64 12931.5 9771.06 13031.9 9616.05C13125.1 9471.34 13543.6 9238.05 13769.6 9119.69C12699.8 8341.17 11245.4 7283.16 11245.4 7283.16Z" fill="#2E353A" stroke="#2E353A" stroke-width="1.27267" stroke-linecap="round" stroke-linejoin="round"/>
<path d="M14261.4 10205.2L12873.1 9199.11C12852.3 9184.07 12835.7 9164.05 12824.7 9140.88C12813.7 9117.71 12808.7 9092.15 12810.2 9066.55C12811.7 9040.95 12819.6 9016.13 12833.2 8994.39C12846.8 8972.65 12865.6 8954.68 12888 8942.15L13102.9 8824.93C13128.2 8811.27 13156.7 8804.99 13185.4 8806.81C13214 8808.64 13241.5 8818.49 13264.8 8835.24L14732.5 9898.21" fill="white"/>
<path d="M14261.4 10205.2L12873.1 9199.11C12852.3 9184.07 12835.7 9164.05 12824.7 9140.88C12813.7 9117.71 12808.7 9092.15 12810.2 9066.55C12811.7 9040.95 12819.6 9016.13 12833.2 8994.39C12846.8 8972.65 12865.6 8954.68 12888 8942.15L13102.9 8824.93C13128.2 8811.27 13156.7 8804.99 13185.4 8806.81C13214 8808.64 13241.5 8818.49 13264.8 8835.24L14732.5 9898.21" stroke="#2E353A" stroke-width="0.9473" stroke-miterlimit="10"/>
<g style="mix-blend-mode:multiply" opacity="0.5">
<path d="M14261.4 10205.2L12873.1 9199.11C12852.3 9184.07 12835.7 9164.05 12824.7 9140.88C12813.7 9117.71 12808.7 9092.15 12810.2 9066.55C12811.7 9040.95 12819.6 9016.13 12833.2 8994.39C12846.8 8972.65 12865.6 8954.68 12888 8942.15L13102.9 8824.93C13128.2 8811.27 13156.7 8804.99 13185.4 8806.81C13214 8808.64 13241.5 8818.49 13264.8 8835.24L14732.5 9898.21" fill="#4CA3FF"/>
<path d="M14261.4 10205.2L12873.1 9199.11C12852.3 9184.07 12835.7 9164.05 12824.7 9140.88C12813.7 9117.71 12808.7 9092.15 12810.2 9066.55C12811.7 9040.95 12819.6 9016.13 12833.2 8994.39C12846.8 8972.65 12865.6 8954.68 12888 8942.15L13102.9 8824.93C13128.2 8811.27 13156.7 8804.99 13185.4 8806.81C13214 8808.64 13241.5 8818.49 13264.8 8835.24L14732.5 9898.21" stroke="#2E353A" stroke-width="0.9473" stroke-miterlimit="10"/>
</g>
</svg>
