<svg width="10744" height="8812" viewBox="0 0 10744 8812" fill="none" xmlns="http://www.w3.org/2000/svg">
<path d="M1213.75 1761.31C798.521 2319.52 531.529 3139.72 734.011 3826.69C1080 5000.77 2548.19 5089.24 3553.75 5225.1C4246.78 5318.84 4935.85 5863.62 5528.55 6201.7C6318.47 6652.48 7589.18 7363.67 8500.22 6901.83C9255.38 6519.25 9661.4 5593.73 9893.11 4825.93C10256.2 3623.68 10291.2 2173.39 9500.78 1125.96C8424.91 -295.894 6542.8 -58.9191 4979.03 184.376C3932.39 347.362 2914.97 506.135 1984.45 1060.92C1684.02 1241.47 1422.13 1479.47 1213.75 1761.31Z" fill="#4CA3FF"/>
<path opacity="0.4" d="M1213.75 1761.31C798.521 2319.52 531.529 3139.72 734.011 3826.69C1080 5000.77 2548.19 5089.24 3553.75 5225.1C4246.78 5318.84 4935.85 5863.62 5528.55 6201.7C6318.47 6652.48 7589.18 7363.67 8500.22 6901.83C9255.38 6519.25 9661.4 5593.73 9893.11 4825.93C10256.2 3623.68 10291.2 2173.39 9500.78 1125.96C8424.91 -295.894 6542.8 -58.9191 4979.03 184.376C3932.39 347.362 2914.97 506.135 1984.45 1060.92C1684.02 1241.47 1422.13 1479.47 1213.75 1761.31Z" fill="white"/>
<path d="M0.967773 8469.3C0.967773 8563.03 2405.21 8639.13 5372.41 8639.13C8339.6 8639.13 10743.8 8563.03 10743.8 8469.3C10743.8 8375.56 8339.6 8299.46 5373.72 8299.46C2407.85 8299.46 0.967773 8375.56 0.967773 8469.3Z" fill="#4CA3FF"/>
<path opacity="0.6" d="M0.967773 8469.3C0.967773 8563.03 2405.21 8639.13 5372.41 8639.13C8339.6 8639.13 10743.8 8563.03 10743.8 8469.3C10743.8 8375.56 8339.6 8299.46 5373.72 8299.46C2407.85 8299.46 0.967773 8375.56 0.967773 8469.3Z" fill="white"/>
<path d="M5978.54 56.9375H1208.75V6107.18H5978.54V56.9375Z" fill="white" stroke="#263238" stroke-width="0.75" stroke-linecap="round" stroke-linejoin="round"/>
<path d="M5978.54 56.9375H1208.75V417.93H5978.54V56.9375Z" fill="#263238" stroke="#263238" stroke-width="0.75" stroke-linecap="round" stroke-linejoin="round"/>
<path d="M2150.86 4276.68H1344.62V5987.9H2150.86V4276.68Z" fill="#4CA3FF"/>
<path opacity="0.6" d="M2150.86 4276.68H1344.62V5987.9H2150.86V4276.68Z" fill="white"/>
<path d="M3030.04 4276.68H2223.8V5987.9H3030.04V4276.68Z" fill="#4CA3FF"/>
<path opacity="0.6" d="M3030.04 4276.68H2223.8V5987.9H3030.04V4276.68Z" fill="white"/>
<path d="M3964.25 4276.68H3158.01V5987.9H3964.25V4276.68Z" fill="#4CA3FF"/>
<path opacity="0.6" d="M3964.25 4276.68H3158.01V5987.9H3964.25V4276.68Z" fill="white"/>
<path d="M4898.19 4276.68H4091.95V5987.9H4898.19V4276.68Z" fill="#4CA3FF"/>
<path opacity="0.6" d="M4898.19 4276.68H4091.95V5987.9H4898.19V4276.68Z" fill="white"/>
<path d="M5855.05 4276.68H5048.8V5987.9H5855.05V4276.68Z" fill="white" stroke="#263238" stroke-width="0.75" stroke-linecap="round" stroke-linejoin="round"/>
<path d="M5842.15 199.648H1344.88V614.355H5842.15V199.648Z" fill="#4CA3FF"/>
<path opacity="0.6" d="M5842.15 199.648H1344.88V614.355H5842.15V199.648Z" fill="white"/>
<path d="M5778.95 280.219H1425.72V463.743H5778.95V280.219Z" fill="white"/>
<path d="M5778.69 280.219H5285.78V463.743H5778.69V280.219Z" fill="#263238" stroke="#263238" stroke-width="0.75" stroke-linecap="round" stroke-linejoin="round"/>
<path d="M3346.53 986.143H2424.96C2415.54 986.143 2406.49 982.399 2399.83 975.732C2393.16 969.066 2389.42 960.024 2389.42 950.597C2389.42 941.17 2393.16 932.128 2399.83 925.462C2406.49 918.796 2415.54 915.051 2424.96 915.051H3346.53C3355.96 915.051 3365 918.796 3371.67 925.462C3378.33 932.128 3382.08 941.17 3382.08 950.597C3382.08 960.024 3378.33 969.066 3371.67 975.732C3365 982.399 3355.96 986.143 3346.53 986.143Z" fill="#263238"/>
<path d="M3346.53 1233.92H2424.96C2420.05 1234.34 2415.11 1233.74 2410.45 1232.15C2405.79 1230.57 2401.51 1228.03 2397.88 1224.7C2394.25 1221.37 2391.35 1217.32 2389.37 1212.81C2387.38 1208.3 2386.36 1203.43 2386.36 1198.5C2386.36 1193.58 2387.38 1188.71 2389.37 1184.2C2391.35 1179.69 2394.25 1175.64 2397.88 1172.31C2401.51 1168.98 2405.79 1166.44 2410.45 1164.85C2415.11 1163.27 2420.05 1162.67 2424.96 1163.09H3346.53C3355.4 1163.85 3363.65 1167.92 3369.67 1174.47C3375.69 1181.03 3379.02 1189.61 3379.02 1198.5C3379.02 1207.4 3375.69 1215.98 3369.67 1222.53C3363.65 1229.09 3355.4 1233.15 3346.53 1233.92Z" fill="#263238"/>
<path d="M3346.53 1481.95H2424.96C2415.54 1481.95 2406.49 1478.2 2399.83 1471.54C2393.16 1464.87 2389.42 1455.83 2389.42 1446.4C2389.42 1436.97 2393.16 1427.93 2399.83 1421.27C2406.49 1414.6 2415.54 1410.86 2424.96 1410.86H3346.53C3355.96 1410.86 3365 1414.6 3371.67 1421.27C3378.33 1427.93 3382.08 1436.97 3382.08 1446.4C3382.08 1455.83 3378.33 1464.87 3371.67 1471.54C3365 1478.2 3355.96 1481.95 3346.53 1481.95Z" fill="#263238"/>
<path d="M3346.53 1729.72H1433.88C1425.01 1728.95 1416.76 1724.89 1410.74 1718.34C1404.73 1711.78 1401.39 1703.2 1401.39 1694.31C1401.39 1685.41 1404.73 1676.83 1410.74 1670.27C1416.76 1663.72 1425.01 1659.66 1433.88 1658.89H3346.53C3355.4 1659.66 3363.65 1663.72 3369.67 1670.27C3375.68 1676.83 3379.02 1685.41 3379.02 1694.31C3379.02 1703.2 3375.68 1711.78 3369.67 1718.34C3363.65 1724.89 3355.4 1728.95 3346.53 1729.72Z" fill="#263238"/>
<path d="M3346.53 1977.76H1433.88C1424.45 1977.76 1415.41 1974.01 1408.74 1967.35C1402.08 1960.68 1398.33 1951.64 1398.33 1942.21C1398.33 1932.78 1402.08 1923.74 1408.74 1917.08C1415.41 1910.41 1424.45 1906.66 1433.88 1906.66H3346.53C3355.96 1906.66 3365 1910.41 3371.67 1917.08C3378.33 1923.74 3382.08 1932.78 3382.08 1942.21C3382.08 1951.64 3378.33 1960.68 3371.67 1967.35C3365 1974.01 3355.96 1977.76 3346.53 1977.76Z" fill="#263238"/>
<path d="M3346.53 2225.79H1433.88C1424.45 2225.79 1415.41 2222.04 1408.74 2215.38C1402.08 2208.71 1398.33 2199.67 1398.33 2190.24C1398.33 2180.81 1402.08 2171.77 1408.74 2165.11C1415.41 2158.44 1424.45 2154.7 1433.88 2154.7H3346.53C3355.96 2154.7 3365 2158.44 3371.67 2165.11C3378.33 2171.77 3382.08 2180.81 3382.08 2190.24C3382.08 2199.67 3378.33 2208.71 3371.67 2215.38C3365 2222.04 3355.96 2225.79 3346.53 2225.79Z" fill="#263238"/>
<path d="M3346.53 2473.56H1433.88C1425.01 2472.79 1416.76 2468.73 1410.74 2462.17C1404.73 2455.61 1401.39 2447.04 1401.39 2438.14C1401.39 2429.24 1404.73 2420.67 1410.74 2414.11C1416.76 2407.55 1425.01 2403.49 1433.88 2402.73H3346.53C3355.4 2403.49 3363.65 2407.55 3369.67 2414.11C3375.68 2420.67 3379.02 2429.24 3379.02 2438.14C3379.02 2447.04 3375.68 2455.61 3369.67 2462.17C3363.65 2468.73 3355.4 2472.79 3346.53 2473.56Z" fill="#263238"/>
<path d="M3346.53 2693.95H1433.88C1425.01 2693.18 1416.76 2689.12 1410.74 2682.56C1404.73 2676 1401.39 2667.43 1401.39 2658.53C1401.39 2649.63 1404.73 2641.06 1410.74 2634.5C1416.76 2627.94 1425.01 2623.88 1433.88 2623.12H3346.53C3355.4 2623.88 3363.65 2627.94 3369.67 2634.5C3375.68 2641.06 3379.02 2649.63 3379.02 2658.53C3379.02 2667.43 3375.68 2676 3369.67 2682.56C3363.65 2689.12 3355.4 2693.18 3346.53 2693.95Z" fill="#263238"/>
<path d="M3346.53 2942.77H1433.88C1424.45 2942.77 1415.41 2939.02 1408.74 2932.36C1402.08 2925.69 1398.33 2916.65 1398.33 2907.22C1398.33 2897.79 1402.08 2888.75 1408.74 2882.09C1415.41 2875.42 1424.45 2871.68 1433.88 2871.68H3346.53C3355.96 2871.68 3365 2875.42 3371.67 2882.09C3378.33 2888.75 3382.08 2897.79 3382.08 2907.22C3382.08 2916.65 3378.33 2925.69 3371.67 2932.36C3365 2939.02 3355.96 2942.77 3346.53 2942.77Z" fill="#263238"/>
<path d="M3346.53 3189.75H1433.88C1425.01 3188.99 1416.76 3184.92 1410.74 3178.37C1404.73 3171.81 1401.39 3163.23 1401.39 3154.34C1401.39 3145.44 1404.73 3136.86 1410.74 3130.31C1416.76 3123.75 1425.01 3119.69 1433.88 3118.92H3346.53C3355.4 3119.69 3363.65 3123.75 3369.67 3130.31C3375.68 3136.86 3379.02 3145.44 3379.02 3154.34C3379.02 3163.23 3375.68 3171.81 3369.67 3178.37C3363.65 3184.92 3355.4 3188.99 3346.53 3189.75Z" fill="#263238"/>
<path d="M3346.53 3437.78H1433.88C1424.45 3437.78 1415.41 3434.04 1408.74 3427.37C1402.08 3420.71 1398.33 3411.66 1398.33 3402.24C1398.33 3392.81 1402.08 3383.77 1408.74 3377.1C1415.41 3370.44 1424.45 3366.69 1433.88 3366.69H3346.53C3355.96 3366.69 3365 3370.44 3371.67 3377.1C3378.33 3383.77 3382.08 3392.81 3382.08 3402.24C3382.08 3411.66 3378.33 3420.71 3371.67 3427.37C3365 3434.04 3355.96 3437.78 3346.53 3437.78Z" fill="#263238"/>
<path d="M3346.53 3685.56H1433.88C1425.01 3684.79 1416.76 3680.73 1410.74 3674.17C1404.73 3667.61 1401.39 3659.04 1401.39 3650.14C1401.39 3641.24 1404.73 3632.67 1410.74 3626.11C1416.76 3619.55 1425.01 3615.49 1433.88 3614.73H3346.53C3355.4 3615.49 3363.65 3619.55 3369.67 3626.11C3375.68 3632.67 3379.02 3641.24 3379.02 3650.14C3379.02 3659.04 3375.68 3667.61 3369.67 3674.17C3363.65 3680.73 3355.4 3684.79 3346.53 3685.56Z" fill="#263238"/>
<path d="M3346.53 3933.59H1433.88C1425.01 3932.83 1416.76 3928.76 1410.74 3922.21C1404.73 3915.65 1401.39 3907.07 1401.39 3898.18C1401.39 3889.28 1404.73 3880.7 1410.74 3874.15C1416.76 3867.59 1425.01 3863.53 1433.88 3862.76H3346.53C3355.4 3863.53 3363.65 3867.59 3369.67 3874.15C3375.68 3880.7 3379.02 3889.28 3379.02 3898.18C3379.02 3907.07 3375.68 3915.65 3369.67 3922.21C3363.65 3928.76 3355.4 3932.83 3346.53 3933.59Z" fill="#263238"/>
<path d="M5808.44 986.143H3896.58C3887.15 986.143 3878.11 982.399 3871.44 975.732C3864.78 969.066 3861.03 960.024 3861.03 950.597C3861.03 941.17 3864.78 932.128 3871.44 925.462C3878.11 918.796 3887.15 915.051 3896.58 915.051H5808.44C5817.87 915.051 5826.91 918.796 5833.58 925.462C5840.24 932.128 5843.99 941.17 5843.99 950.597C5843.99 960.024 5840.24 969.066 5833.58 975.732C5826.91 982.399 5817.87 986.143 5808.44 986.143Z" fill="#263238"/>
<path d="M5808.44 1233.92H3896.58C3891.67 1234.34 3886.73 1233.74 3882.07 1232.15C3877.4 1230.57 3873.12 1228.03 3869.49 1224.7C3865.86 1221.37 3862.97 1217.32 3860.98 1212.81C3859 1208.3 3857.98 1203.43 3857.98 1198.5C3857.98 1193.58 3859 1188.71 3860.98 1184.2C3862.97 1179.69 3865.86 1175.64 3869.49 1172.31C3873.12 1168.98 3877.4 1166.44 3882.07 1164.85C3886.73 1163.27 3891.67 1162.67 3896.58 1163.09H5808.44C5813.35 1162.67 5818.29 1163.27 5822.96 1164.85C5827.62 1166.44 5831.9 1168.98 5835.53 1172.31C5839.16 1175.64 5842.06 1179.69 5844.04 1184.2C5846.02 1188.71 5847.05 1193.58 5847.05 1198.5C5847.05 1203.43 5846.02 1208.3 5844.04 1212.81C5842.06 1217.32 5839.16 1221.37 5835.53 1224.7C5831.9 1228.03 5827.62 1230.57 5822.96 1232.15C5818.29 1233.74 5813.35 1234.34 5808.44 1233.92Z" fill="#263238"/>
<path d="M5808.44 1481.95H3896.58C3887.15 1481.95 3878.11 1478.2 3871.44 1471.54C3864.78 1464.87 3861.03 1455.83 3861.03 1446.4C3861.03 1436.97 3864.78 1427.93 3871.44 1421.27C3878.11 1414.6 3887.15 1410.86 3896.58 1410.86H5808.44C5817.87 1410.86 5826.91 1414.6 5833.58 1421.27C5840.24 1427.93 5843.99 1436.97 5843.99 1446.4C5843.99 1455.83 5840.24 1464.87 5833.58 1471.54C5826.91 1478.2 5817.87 1481.95 5808.44 1481.95Z" fill="#263238"/>
<path d="M5808.44 1729.72H3896.58C3891.67 1730.14 3886.73 1729.54 3882.07 1727.95C3877.4 1726.37 3873.12 1723.83 3869.49 1720.5C3865.86 1717.17 3862.97 1713.12 3860.98 1708.61C3859 1704.1 3857.98 1699.23 3857.98 1694.3C3857.98 1689.38 3859 1684.51 3860.98 1680C3862.97 1675.49 3865.86 1671.44 3869.49 1668.11C3873.12 1664.78 3877.4 1662.24 3882.07 1660.65C3886.73 1659.07 3891.67 1658.47 3896.58 1658.89H5808.44C5813.35 1658.47 5818.29 1659.07 5822.96 1660.65C5827.62 1662.24 5831.9 1664.78 5835.53 1668.11C5839.16 1671.44 5842.06 1675.49 5844.04 1680C5846.02 1684.51 5847.05 1689.38 5847.05 1694.3C5847.05 1699.23 5846.02 1704.1 5844.04 1708.61C5842.06 1713.12 5839.16 1717.17 5835.53 1720.5C5831.9 1723.83 5827.62 1726.37 5822.96 1727.95C5818.29 1729.54 5813.35 1730.14 5808.44 1729.72Z" fill="#263238"/>
<path d="M5808.44 1977.76H3896.58C3887.15 1977.76 3878.11 1974.01 3871.44 1967.35C3864.78 1960.68 3861.03 1951.64 3861.03 1942.21C3861.03 1932.78 3864.78 1923.74 3871.44 1917.08C3878.11 1910.41 3887.15 1906.66 3896.58 1906.66H5808.44C5817.87 1906.66 5826.91 1910.41 5833.58 1917.08C5840.24 1923.74 5843.99 1932.78 5843.99 1942.21C5843.99 1951.64 5840.24 1960.68 5833.58 1967.35C5826.91 1974.01 5817.87 1977.76 5808.44 1977.76Z" fill="#263238"/>
<path d="M5808.44 2225.79H3896.58C3891.91 2225.79 3887.29 2224.87 3882.98 2223.08C3878.66 2221.3 3874.74 2218.68 3871.44 2215.38C3868.14 2212.08 3865.52 2208.16 3863.74 2203.84C3861.95 2199.53 3861.03 2194.91 3861.03 2190.24C3861.03 2185.57 3861.95 2180.95 3863.74 2176.64C3865.52 2172.33 3868.14 2168.41 3871.44 2165.11C3874.74 2161.81 3878.66 2159.19 3882.98 2157.4C3887.29 2155.61 3891.91 2154.7 3896.58 2154.7H5808.44C5813.11 2154.7 5817.73 2155.61 5822.05 2157.4C5826.36 2159.19 5830.28 2161.81 5833.58 2165.11C5836.88 2168.41 5839.5 2172.33 5841.28 2176.64C5843.07 2180.95 5843.99 2185.57 5843.99 2190.24C5843.99 2194.91 5843.07 2199.53 5841.28 2203.84C5839.5 2208.16 5836.88 2212.08 5833.58 2215.38C5830.28 2218.68 5826.36 2221.3 5822.05 2223.08C5817.73 2224.87 5813.11 2225.79 5808.44 2225.79Z" fill="#263238"/>
<path d="M5808.44 2473.56H3896.58C3891.67 2473.98 3886.73 2473.38 3882.07 2471.79C3877.4 2470.21 3873.12 2467.67 3869.49 2464.34C3865.86 2461.01 3862.97 2456.96 3860.98 2452.45C3859 2447.94 3857.98 2443.07 3857.98 2438.14C3857.98 2433.22 3859 2428.35 3860.98 2423.84C3862.97 2419.33 3865.86 2415.28 3869.49 2411.95C3873.12 2408.62 3877.4 2406.08 3882.07 2404.49C3886.73 2402.91 3891.67 2402.31 3896.58 2402.73H5808.44C5813.35 2402.31 5818.29 2402.91 5822.96 2404.49C5827.62 2406.08 5831.9 2408.62 5835.53 2411.95C5839.16 2415.28 5842.06 2419.33 5844.04 2423.84C5846.02 2428.35 5847.05 2433.22 5847.05 2438.14C5847.05 2443.07 5846.02 2447.94 5844.04 2452.45C5842.06 2456.96 5839.16 2461.01 5835.53 2464.34C5831.9 2467.67 5827.62 2470.21 5822.96 2471.79C5818.29 2473.38 5813.35 2473.98 5808.44 2473.56Z" fill="#263238"/>
<path d="M5842.94 2640.23H3894.47V3999.16H5842.94V2640.23Z" fill="#4CA3FF"/>
<path opacity="0.6" d="M5842.94 2640.23H3894.47V3999.16H5842.94V2640.23Z" fill="white"/>
<path d="M2100.57 1056.45C2105.97 1039.95 2108.81 1022.72 2108.99 1005.37C2108.99 941.909 2044.75 938.223 1981.29 938.223H1965.49V923.215H2240.65V938.223C2169.03 938.223 2143.75 983.775 2120.58 1051.97L1974.18 1490.64C1963.12 1523.03 1953.91 1547.25 1919.41 1547.25H1916.52L1787.23 1128.33L1666.11 1490.64C1654.79 1523.03 1645.58 1547.25 1611.08 1547.25H1608.71L1420.71 938.223H1354.62V923.215H1596.6V938.223H1527.88L1667.43 1418.76H1672.96L1778.28 1098.31L1729.04 938.223H1662.95V923.215H1904.93V938.223H1835.95L1975.76 1418.76H1981.29L2100.57 1056.45Z" fill="#263238"/>
<path d="M6523.85 767.863H4537.99V6094.8H6523.85V767.863Z" fill="#4CA3FF"/>
<path opacity="0.4" d="M6523.85 767.863H4537.99V6094.8H6523.85V767.863Z" fill="white"/>
<path d="M9456.28 568.539H4686.5V6618.78H9456.28V568.539Z" fill="white" stroke="#263238" stroke-width="0.75" stroke-linecap="round" stroke-linejoin="round"/>
<path d="M9456.28 568.539H4686.5V929.531H9456.28V568.539Z" fill="#263238" stroke="#263238" stroke-width="0.75" stroke-linecap="round" stroke-linejoin="round"/>
<path d="M7968.08 1425.34H6293.19V4556.31H7968.08V1425.34Z" fill="#4CA3FF"/>
<path opacity="0.6" d="M7968.08 1425.34H6293.19V4556.31H7968.08V1425.34Z" fill="white"/>
<path d="M9320.15 4788.02H4822.89V6499.24H9320.15V4788.02Z" fill="#4CA3FF"/>
<path opacity="0.6" d="M9320.15 4788.02H4822.89V6499.24H9320.15V4788.02Z" fill="white"/>
<path d="M9320.15 711.25H4822.89V1125.96H9320.15V711.25Z" fill="#4CA3FF"/>
<path opacity="0.6" d="M9320.15 711.25H4822.89V1125.96H9320.15V711.25Z" fill="white"/>
<path d="M9256.96 791.82H4903.72V975.345H9256.96V791.82Z" fill="white"/>
<path d="M9256.7 791.82H8763.79V975.345H9256.7V791.82Z" fill="#263238" stroke="#263238" stroke-width="0.75" stroke-linecap="round" stroke-linejoin="round"/>
<path d="M6011.71 1497.48H4863.96C4859.06 1497.9 4854.11 1497.3 4849.45 1495.72C4844.79 1494.13 4840.51 1491.59 4836.88 1488.26C4833.25 1484.93 4830.35 1480.88 4828.37 1476.37C4826.38 1471.86 4825.36 1466.99 4825.36 1462.07C4825.36 1457.14 4826.38 1452.27 4828.37 1447.76C4830.35 1443.25 4833.25 1439.2 4836.88 1435.87C4840.51 1432.54 4844.79 1430 4849.45 1428.42C4854.11 1426.83 4859.06 1426.23 4863.96 1426.65H6011.71C6016.62 1426.23 6021.56 1426.83 6026.23 1428.42C6030.89 1430 6035.17 1432.54 6038.8 1435.87C6042.43 1439.2 6045.33 1443.25 6047.31 1447.76C6049.29 1452.27 6050.32 1457.14 6050.32 1462.07C6050.32 1466.99 6049.29 1471.86 6047.31 1476.37C6045.33 1480.88 6042.43 1484.93 6038.8 1488.26C6035.17 1491.59 6030.89 1494.13 6026.23 1495.72C6021.56 1497.3 6016.62 1497.9 6011.71 1497.48Z" fill="#263238"/>
<path d="M6011.71 1745.52H4863.96C4854.54 1745.52 4845.5 1741.77 4838.83 1735.11C4832.16 1728.44 4828.42 1719.4 4828.42 1709.97C4828.42 1700.54 4832.16 1691.5 4838.83 1684.84C4845.5 1678.17 4854.54 1674.43 4863.96 1674.43H6011.71C6021.14 1674.43 6030.18 1678.17 6036.85 1684.84C6043.52 1691.5 6047.26 1700.54 6047.26 1709.97C6047.26 1719.4 6043.52 1728.44 6036.85 1735.11C6030.18 1741.77 6021.14 1745.52 6011.71 1745.52Z" fill="#263238"/>
<path d="M6011.71 1993.29H4863.96C4859.06 1993.71 4854.11 1993.11 4849.45 1991.52C4844.79 1989.94 4840.51 1987.4 4836.88 1984.07C4833.25 1980.74 4830.35 1976.69 4828.37 1972.18C4826.38 1967.67 4825.36 1962.8 4825.36 1957.87C4825.36 1952.95 4826.38 1948.08 4828.37 1943.57C4830.35 1939.06 4833.25 1935.01 4836.88 1931.68C4840.51 1928.35 4844.79 1925.81 4849.45 1924.22C4854.11 1922.64 4859.06 1922.04 4863.96 1922.46H6011.71C6016.62 1922.04 6021.56 1922.64 6026.23 1924.22C6030.89 1925.81 6035.17 1928.35 6038.8 1931.68C6042.43 1935.01 6045.33 1939.06 6047.31 1943.57C6049.29 1948.08 6050.32 1952.95 6050.32 1957.87C6050.32 1962.8 6049.29 1967.67 6047.31 1972.18C6045.33 1976.69 6042.43 1980.74 6038.8 1984.07C6035.17 1987.4 6030.89 1989.94 6026.23 1991.52C6021.56 1993.11 6016.62 1993.71 6011.71 1993.29Z" fill="#263238"/>
<path d="M6011.71 2241.32H4863.96C4859.3 2241.32 4854.67 2240.4 4850.36 2238.62C4846.05 2236.83 4842.13 2234.21 4838.83 2230.91C4835.53 2227.61 4832.91 2223.69 4831.12 2219.38C4829.34 2215.07 4828.42 2210.44 4828.42 2205.78C4828.42 2201.11 4829.34 2196.49 4831.12 2192.17C4832.91 2187.86 4835.53 2183.94 4838.83 2180.64C4842.13 2177.34 4846.05 2174.72 4850.36 2172.94C4854.67 2171.15 4859.3 2170.23 4863.96 2170.23H6011.71C6021.14 2170.23 6030.18 2173.98 6036.85 2180.64C6043.52 2187.31 6047.26 2196.35 6047.26 2205.78C6047.26 2215.2 6043.52 2224.25 6036.85 2230.91C6030.18 2237.58 6021.14 2241.32 6011.71 2241.32Z" fill="#263238"/>
<path d="M6011.71 2489.09H4863.96C4859.06 2489.52 4854.11 2488.92 4849.45 2487.33C4844.79 2485.74 4840.51 2483.2 4836.88 2479.87C4833.25 2476.54 4830.35 2472.49 4828.37 2467.99C4826.38 2463.48 4825.36 2458.6 4825.36 2453.68C4825.36 2448.75 4826.38 2443.88 4828.37 2439.37C4830.35 2434.86 4833.25 2430.82 4836.88 2427.49C4840.51 2424.16 4844.79 2421.62 4849.45 2420.03C4854.11 2418.44 4859.06 2417.84 4863.96 2418.26H6011.71C6016.62 2417.84 6021.56 2418.44 6026.23 2420.03C6030.89 2421.62 6035.17 2424.16 6038.8 2427.49C6042.43 2430.82 6045.33 2434.86 6047.31 2439.37C6049.29 2443.88 6050.32 2448.75 6050.32 2453.68C6050.32 2458.6 6049.29 2463.48 6047.31 2467.99C6045.33 2472.49 6042.43 2476.54 6038.8 2479.87C6035.17 2483.2 6030.89 2485.74 6026.23 2487.33C6021.56 2488.92 6016.62 2489.52 6011.71 2489.09Z" fill="#263238"/>
<path d="M6011.71 2737.13H4863.96C4859.06 2737.55 4854.11 2736.95 4849.45 2735.36C4844.79 2733.78 4840.51 2731.24 4836.88 2727.91C4833.25 2724.58 4830.35 2720.53 4828.37 2716.02C4826.38 2711.51 4825.36 2706.64 4825.36 2701.71C4825.36 2696.79 4826.38 2691.92 4828.37 2687.41C4830.35 2682.9 4833.25 2678.85 4836.88 2675.52C4840.51 2672.19 4844.79 2669.65 4849.45 2668.06C4854.11 2666.48 4859.06 2665.88 4863.96 2666.3H6011.71C6016.62 2665.88 6021.56 2666.48 6026.23 2668.06C6030.89 2669.65 6035.17 2672.19 6038.8 2675.52C6042.43 2678.85 6045.33 2682.9 6047.31 2687.41C6049.29 2691.92 6050.32 2696.79 6050.32 2701.71C6050.32 2706.64 6049.29 2711.51 6047.31 2716.02C6045.33 2720.53 6042.43 2724.58 6038.8 2727.91C6035.17 2731.24 6030.89 2733.78 6026.23 2735.36C6021.56 2736.95 6016.62 2737.55 6011.71 2737.13Z" fill="#263238"/>
<path d="M6011.71 2985.16H4863.96C4859.3 2985.16 4854.67 2984.24 4850.36 2982.46C4846.05 2980.67 4842.13 2978.05 4838.83 2974.75C4835.53 2971.45 4832.91 2967.53 4831.12 2963.22C4829.34 2958.91 4828.42 2954.28 4828.42 2949.62C4828.42 2944.95 4829.34 2940.33 4831.12 2936.01C4832.91 2931.7 4835.53 2927.78 4838.83 2924.48C4842.13 2921.18 4846.05 2918.56 4850.36 2916.78C4854.67 2914.99 4859.3 2914.07 4863.96 2914.07H6011.71C6021.14 2914.07 6030.18 2917.82 6036.85 2924.48C6043.52 2931.15 6047.26 2940.19 6047.26 2949.62C6047.26 2959.04 6043.52 2968.09 6036.85 2974.75C6030.18 2981.42 6021.14 2985.16 6011.71 2985.16Z" fill="#263238"/>
<path d="M6011.71 3206.08H4863.96C4854.54 3206.08 4845.5 3202.33 4838.83 3195.67C4832.16 3189 4828.42 3179.96 4828.42 3170.53C4828.42 3161.1 4832.16 3152.06 4838.83 3145.4C4845.5 3138.73 4854.54 3134.98 4863.96 3134.98H6011.71C6021.14 3134.98 6030.18 3138.73 6036.85 3145.4C6043.52 3152.06 6047.26 3161.1 6047.26 3170.53C6047.26 3179.96 6043.52 3189 6036.85 3195.67C6030.18 3202.33 6021.14 3206.08 6011.71 3206.08Z" fill="#263238"/>
<path d="M6011.71 3453.32H4863.96C4859.06 3453.74 4854.11 3453.14 4849.45 3451.56C4844.79 3449.97 4840.51 3447.43 4836.88 3444.1C4833.25 3440.77 4830.35 3436.72 4828.37 3432.21C4826.38 3427.7 4825.36 3422.83 4825.36 3417.91C4825.36 3412.98 4826.38 3408.11 4828.37 3403.6C4830.35 3399.09 4833.25 3395.04 4836.88 3391.71C4840.51 3388.38 4844.79 3385.84 4849.45 3384.26C4854.11 3382.67 4859.06 3382.07 4863.96 3382.49H6011.71C6016.62 3382.07 6021.56 3382.67 6026.23 3384.26C6030.89 3385.84 6035.17 3388.38 6038.8 3391.71C6042.43 3395.04 6045.33 3399.09 6047.31 3403.6C6049.29 3408.11 6050.32 3412.98 6050.32 3417.91C6050.32 3422.83 6049.29 3427.7 6047.31 3432.21C6045.33 3436.72 6042.43 3440.77 6038.8 3444.1C6035.17 3447.43 6030.89 3449.97 6026.23 3451.56C6021.56 3453.14 6016.62 3453.74 6011.71 3453.32Z" fill="#263238"/>
<path d="M6011.71 3701.35H4863.96C4854.54 3701.35 4845.5 3697.61 4838.83 3690.94C4832.16 3684.28 4828.42 3675.24 4828.42 3665.81C4828.42 3656.38 4832.16 3647.34 4838.83 3640.67C4845.5 3634.01 4854.54 3630.26 4863.96 3630.26H6011.71C6021.14 3630.26 6030.18 3634.01 6036.85 3640.67C6043.52 3647.34 6047.26 3656.38 6047.26 3665.81C6047.26 3675.24 6043.52 3684.28 6036.85 3690.94C6030.18 3697.61 6021.14 3701.35 6011.71 3701.35Z" fill="#263238"/>
<path d="M6011.71 3949.13H4863.96C4859.06 3949.55 4854.11 3948.95 4849.45 3947.36C4844.79 3945.77 4840.51 3943.23 4836.88 3939.9C4833.25 3936.57 4830.35 3932.53 4828.37 3928.02C4826.38 3923.51 4825.36 3918.64 4825.36 3913.71C4825.36 3908.78 4826.38 3903.91 4828.37 3899.4C4830.35 3894.89 4833.25 3890.85 4836.88 3887.52C4840.51 3884.19 4844.79 3881.65 4849.45 3880.06C4854.11 3878.47 4859.06 3877.87 4863.96 3878.3H6011.71C6016.62 3877.87 6021.56 3878.47 6026.23 3880.06C6030.89 3881.65 6035.17 3884.19 6038.8 3887.52C6042.43 3890.85 6045.33 3894.89 6047.31 3899.4C6049.29 3903.91 6050.32 3908.78 6050.32 3913.71C6050.32 3918.64 6049.29 3923.51 6047.31 3928.02C6045.33 3932.53 6042.43 3936.57 6038.8 3939.9C6035.17 3943.23 6030.89 3945.77 6026.23 3947.36C6021.56 3948.95 6016.62 3949.55 6011.71 3949.13Z" fill="#263238"/>
<path d="M6011.71 4197.16H4863.96C4854.54 4197.16 4845.5 4193.42 4838.83 4186.75C4832.16 4180.09 4828.42 4171.04 4828.42 4161.62C4828.42 4152.19 4832.16 4143.15 4838.83 4136.48C4845.5 4129.82 4854.54 4126.07 4863.96 4126.07H6011.71C6021.14 4126.07 6030.18 4129.82 6036.85 4136.48C6043.52 4143.15 6047.26 4152.19 6047.26 4161.62C6047.26 4171.04 6043.52 4180.09 6036.85 4186.75C6030.18 4193.42 6021.14 4197.16 6011.71 4197.16Z" fill="#263238"/>
<path d="M6011.71 4444.93H4863.96C4859.06 4445.35 4854.11 4444.75 4849.45 4443.17C4844.79 4441.58 4840.51 4439.04 4836.88 4435.71C4833.25 4432.38 4830.35 4428.33 4828.37 4423.82C4826.38 4419.31 4825.36 4414.44 4825.36 4409.52C4825.36 4404.59 4826.38 4399.72 4828.37 4395.21C4830.35 4390.7 4833.25 4386.65 4836.88 4383.32C4840.51 4379.99 4844.79 4377.45 4849.45 4375.87C4854.11 4374.28 4859.06 4373.68 4863.96 4374.1H6011.71C6016.62 4373.68 6021.56 4374.28 6026.23 4375.87C6030.89 4377.45 6035.17 4379.99 6038.8 4383.32C6042.43 4386.65 6045.33 4390.7 6047.31 4395.21C6049.29 4399.72 6050.32 4404.59 6050.32 4409.52C6050.32 4414.44 6049.29 4419.31 6047.31 4423.82C6045.33 4428.33 6042.43 4432.38 6038.8 4435.71C6035.17 4439.04 6030.89 4441.58 6026.23 4443.17C6021.56 4444.75 6016.62 4445.35 6011.71 4444.93Z" fill="#263238"/>
<path d="M6011.71 4692.96H4863.96C4859.06 4693.39 4854.11 4692.79 4849.45 4691.2C4844.79 4689.61 4840.51 4687.07 4836.88 4683.74C4833.25 4680.41 4830.35 4676.37 4828.37 4671.86C4826.38 4667.35 4825.36 4662.48 4825.36 4657.55C4825.36 4652.62 4826.38 4647.75 4828.37 4643.24C4830.35 4638.73 4833.25 4634.69 4836.88 4631.36C4840.51 4628.03 4844.79 4625.49 4849.45 4623.9C4854.11 4622.31 4859.06 4621.71 4863.96 4622.14H6011.71C6016.62 4621.71 6021.56 4622.31 6026.23 4623.9C6030.89 4625.49 6035.17 4628.03 6038.8 4631.36C6042.43 4634.69 6045.33 4638.73 6047.31 4643.24C6049.29 4647.75 6050.32 4652.62 6050.32 4657.55C6050.32 4662.48 6049.29 4667.35 6047.31 4671.86C6045.33 4676.37 6042.43 4680.41 6038.8 4683.74C6035.17 4687.07 6030.89 4689.61 6026.23 4691.2C6021.56 4692.79 6016.62 4693.39 6011.71 4692.96Z" fill="#263238"/>
<path d="M9311.47 1497.48H8165.03C8160.12 1497.9 8155.18 1497.3 8150.52 1495.72C8145.86 1494.13 8141.57 1491.59 8137.94 1488.26C8134.31 1484.93 8131.42 1480.88 8129.43 1476.37C8127.45 1471.86 8126.43 1466.99 8126.43 1462.07C8126.43 1457.14 8127.45 1452.27 8129.43 1447.76C8131.42 1443.25 8134.31 1439.2 8137.94 1435.87C8141.57 1432.54 8145.86 1430 8150.52 1428.42C8155.18 1426.83 8160.12 1426.23 8165.03 1426.65H9312.78C9317.69 1426.23 9322.63 1426.83 9327.29 1428.42C9331.96 1430 9336.24 1432.54 9339.87 1435.87C9343.5 1439.2 9346.4 1443.25 9348.38 1447.76C9350.36 1452.27 9351.38 1457.14 9351.38 1462.07C9351.38 1466.99 9350.36 1471.86 9348.38 1476.37C9346.4 1480.88 9343.5 1484.93 9339.87 1488.26C9336.24 1491.59 9331.96 1494.13 9327.29 1495.72C9322.63 1497.3 9317.69 1497.9 9312.78 1497.48H9311.47Z" fill="#263238"/>
<path d="M9311.46 1745.52H8165.03C8160.36 1745.52 8155.74 1744.6 8151.43 1742.81C8147.11 1741.03 8143.2 1738.41 8139.9 1735.11C8136.6 1731.81 8133.98 1727.89 8132.19 1723.58C8130.4 1719.26 8129.48 1714.64 8129.48 1709.97C8129.48 1705.3 8130.4 1700.68 8132.19 1696.37C8133.98 1692.06 8136.6 1688.14 8139.9 1684.84C8143.2 1681.54 8147.11 1678.92 8151.43 1677.13C8155.74 1675.35 8160.36 1674.43 8165.03 1674.43H9312.78C9322.21 1674.43 9331.25 1678.17 9337.92 1684.84C9344.58 1691.5 9348.33 1700.54 9348.33 1709.97C9348.33 1719.4 9344.58 1728.44 9337.92 1735.11C9331.25 1741.77 9322.21 1745.52 9312.78 1745.52H9311.46Z" fill="#263238"/>
<path d="M9311.47 1993.29H8165.03C8160.12 1993.71 8155.18 1993.11 8150.52 1991.52C8145.86 1989.94 8141.57 1987.4 8137.94 1984.07C8134.31 1980.74 8131.42 1976.69 8129.43 1972.18C8127.45 1967.67 8126.43 1962.8 8126.43 1957.87C8126.43 1952.95 8127.45 1948.08 8129.43 1943.57C8131.42 1939.06 8134.31 1935.01 8137.94 1931.68C8141.57 1928.35 8145.86 1925.81 8150.52 1924.22C8155.18 1922.64 8160.12 1922.04 8165.03 1922.46H9312.78C9317.69 1922.04 9322.63 1922.64 9327.29 1924.22C9331.96 1925.81 9336.24 1928.35 9339.87 1931.68C9343.5 1935.01 9346.4 1939.06 9348.38 1943.57C9350.36 1948.08 9351.38 1952.95 9351.38 1957.87C9351.38 1962.8 9350.36 1967.67 9348.38 1972.18C9346.4 1976.69 9343.5 1980.74 9339.87 1984.07C9336.24 1987.4 9331.96 1989.94 9327.29 1991.52C9322.63 1993.11 9317.69 1993.71 9312.78 1993.29H9311.47Z" fill="#263238"/>
<path d="M9311.46 2241.32H8165.03C8160.36 2241.32 8155.74 2240.4 8151.43 2238.62C8147.11 2236.83 8143.2 2234.21 8139.9 2230.91C8136.6 2227.61 8133.98 2223.69 8132.19 2219.38C8130.4 2215.07 8129.48 2210.44 8129.48 2205.78C8129.48 2201.11 8130.4 2196.49 8132.19 2192.17C8133.98 2187.86 8136.6 2183.94 8139.9 2180.64C8143.2 2177.34 8147.11 2174.72 8151.43 2172.94C8155.74 2171.15 8160.36 2170.23 8165.03 2170.23H9312.78C9322.21 2170.23 9331.25 2173.98 9337.92 2180.64C9344.58 2187.31 9348.33 2196.35 9348.33 2205.78C9348.33 2215.2 9344.58 2224.25 9337.92 2230.91C9331.25 2237.58 9322.21 2241.32 9312.78 2241.32H9311.46Z" fill="#263238"/>
<path d="M9311.47 2489.09H8165.03C8160.12 2489.52 8155.18 2488.92 8150.52 2487.33C8145.86 2485.74 8141.57 2483.2 8137.94 2479.87C8134.31 2476.54 8131.42 2472.49 8129.43 2467.99C8127.45 2463.48 8126.43 2458.6 8126.43 2453.68C8126.43 2448.75 8127.45 2443.88 8129.43 2439.37C8131.42 2434.86 8134.31 2430.82 8137.94 2427.49C8141.57 2424.16 8145.86 2421.62 8150.52 2420.03C8155.18 2418.44 8160.12 2417.84 8165.03 2418.26H9312.78C9317.69 2417.84 9322.63 2418.44 9327.29 2420.03C9331.96 2421.62 9336.24 2424.16 9339.87 2427.49C9343.5 2430.82 9346.4 2434.86 9348.38 2439.37C9350.36 2443.88 9351.38 2448.75 9351.38 2453.68C9351.38 2458.6 9350.36 2463.48 9348.38 2467.99C9346.4 2472.49 9343.5 2476.54 9339.87 2479.87C9336.24 2483.2 9331.96 2485.74 9327.29 2487.33C9322.63 2488.92 9317.69 2489.52 9312.78 2489.09H9311.47Z" fill="#263238"/>
<path d="M9311.47 2737.13H8165.03C8160.12 2737.55 8155.18 2736.95 8150.52 2735.36C8145.86 2733.78 8141.57 2731.24 8137.94 2727.91C8134.31 2724.58 8131.42 2720.53 8129.43 2716.02C8127.45 2711.51 8126.43 2706.64 8126.43 2701.71C8126.43 2696.79 8127.45 2691.92 8129.43 2687.41C8131.42 2682.9 8134.31 2678.85 8137.94 2675.52C8141.57 2672.19 8145.86 2669.65 8150.52 2668.06C8155.18 2666.48 8160.12 2665.88 8165.03 2666.3H9312.78C9317.69 2665.88 9322.63 2666.48 9327.29 2668.06C9331.96 2669.65 9336.24 2672.19 9339.87 2675.52C9343.5 2678.85 9346.4 2682.9 9348.38 2687.41C9350.36 2691.92 9351.38 2696.79 9351.38 2701.71C9351.38 2706.64 9350.36 2711.51 9348.38 2716.02C9346.4 2720.53 9343.5 2724.58 9339.87 2727.91C9336.24 2731.24 9331.96 2733.78 9327.29 2735.36C9322.63 2736.95 9317.69 2737.55 9312.78 2737.13H9311.47Z" fill="#263238"/>
<path d="M9311.46 2985.16H8165.03C8160.36 2985.16 8155.74 2984.24 8151.43 2982.46C8147.11 2980.67 8143.2 2978.05 8139.9 2974.75C8136.6 2971.45 8133.98 2967.53 8132.19 2963.22C8130.4 2958.91 8129.48 2954.28 8129.48 2949.62C8129.48 2944.95 8130.4 2940.33 8132.19 2936.01C8133.98 2931.7 8136.6 2927.78 8139.9 2924.48C8143.2 2921.18 8147.11 2918.56 8151.43 2916.78C8155.74 2914.99 8160.36 2914.07 8165.03 2914.07H9312.78C9322.21 2914.07 9331.25 2917.82 9337.92 2924.48C9344.58 2931.15 9348.33 2940.19 9348.33 2949.62C9348.33 2959.04 9344.58 2968.09 9337.92 2974.75C9331.25 2981.42 9322.21 2985.16 9312.78 2985.16H9311.46Z" fill="#263238"/>
<path d="M9320.95 3151.57H8136.33V4510.5H9320.95V3151.57Z" fill="#4CA3FF"/>
<path opacity="0.6" d="M9320.95 3151.57H8136.33V4510.5H9320.95V3151.57Z" fill="white"/>
<path d="M9911.54 5612.43C9904.43 5344.91 9925.23 4888.33 9690.36 4700.33C9484.19 4535.24 9323.84 4759.31 9266.18 4939.94C9125.84 5378.35 9140.84 7028.22 9177.18 7360.51C9177.18 7360.51 9141.37 7027.69 8879.91 7170.41C8618.44 7313.12 9011.56 8062.22 9011.56 8062.22C9011.56 8062.22 8702.44 7836.31 8559.73 8026.41C8417.02 8216.52 8738.25 8430.85 8738.25 8430.85C8738.25 8430.85 8440.98 8347.65 8440.98 8430.85C8440.98 8514.06 8536.03 8585.41 8809.6 8621.22H10284.1C10284.1 8621.22 10521.1 8489.57 10474.5 8347.65C10427.9 8205.72 10176.2 8287.88 10176.2 8287.88C10176.2 8287.88 10556.6 7824.19 10532.7 7621.98C10508.7 7419.76 10021.3 7657.52 10021.3 7657.52C10021.3 7657.52 10402.1 6694.35 10330.7 6266.21C10274.4 5928.92 10012.6 6160.89 9870.2 6289.38C9903.69 6065.37 9917.53 5838.85 9911.54 5612.43Z" fill="#4CA3FF"/>
<path opacity="0.1" d="M9911.54 5612.43C9904.43 5344.91 9925.23 4888.33 9690.36 4700.33C9484.19 4535.24 9323.84 4759.31 9266.18 4939.94C9125.84 5378.35 9140.84 7028.22 9177.18 7360.51C9177.18 7360.51 9141.37 7027.69 8879.91 7170.41C8618.44 7313.12 9011.56 8062.22 9011.56 8062.22C9011.56 8062.22 8702.44 7836.31 8559.73 8026.41C8417.02 8216.52 8738.25 8430.85 8738.25 8430.85C8738.25 8430.85 8440.98 8347.65 8440.98 8430.85C8440.98 8514.06 8536.03 8585.41 8809.6 8621.22H10284.1C10284.1 8621.22 10521.1 8489.57 10474.5 8347.65C10427.9 8205.72 10176.2 8287.88 10176.2 8287.88C10176.2 8287.88 10556.6 7824.19 10532.7 7621.98C10508.7 7419.76 10021.3 7657.52 10021.3 7657.52C10021.3 7657.52 10402.1 6694.35 10330.7 6266.21C10274.4 5928.92 10012.6 6160.89 9870.2 6289.38C9903.69 6065.37 9917.53 5838.85 9911.54 5612.43Z" fill="black"/>
<path d="M9437.33 8589.36L9545.81 5338.85" stroke="#4CA3FF" stroke-width="1.72695" stroke-linecap="round" stroke-linejoin="round"/>
<path d="M9498.15 7241.76L10057.1 6718.31" stroke="#4CA3FF" stroke-width="1.72695" stroke-linecap="round" stroke-linejoin="round"/>
<path d="M9759.88 7003.73L9878.63 6670.91" stroke="#4CA3FF" stroke-width="1.72695" stroke-linecap="round" stroke-linejoin="round"/>
<path d="M9034.47 7645.94L9454.44 8093.82" stroke="#4CA3FF" stroke-width="1.72695" stroke-linecap="round" stroke-linejoin="round"/>
<path d="M10176.2 7907.66L9462.6 8276.29" stroke="#4CA3FF" stroke-width="1.72695" stroke-linecap="round" stroke-linejoin="round"/>
<path d="M9816.49 8089.34L10057.1 8109.88" stroke="#4CA3FF" stroke-width="1.72695" stroke-linecap="round" stroke-linejoin="round"/>
<path d="M4546.95 8633.86C4546.95 8731.81 3613.53 8811.33 2462.35 8811.33C1311.18 8811.33 377.497 8732.34 377.497 8633.86C377.497 8535.38 1310.92 8456.39 2462.35 8456.39C3613.79 8456.39 4546.95 8535.91 4546.95 8633.86Z" fill="#263238"/>
<path d="M1424.4 5374.4C1424.4 5374.4 1585.54 5292.78 1655.58 5362.81C1725.62 5432.85 1697.45 6182.22 1718.51 6420.25C1731.27 6562.22 1757.46 6702.67 1796.71 6839.7C1796.71 6839.7 1565.53 6797.83 1390.43 6708.04C1390.43 6708.04 1236.4 5960.26 1424.4 5374.4Z" fill="#263238" stroke="#263238" stroke-width="0.75" stroke-linecap="round" stroke-linejoin="round"/>
<path d="M4632.78 7071.41C4613.83 7071.39 4595.45 7064.96 4580.61 7053.18C4565.78 7041.39 4555.36 7024.93 4551.06 7006.48C4546.76 6988.02 4548.82 6968.66 4556.92 6951.52C4565.02 6934.39 4578.67 6920.5 4595.66 6912.11L5356.87 6569.81L5947.73 5890.22C5962.08 5873.18 5982.62 5862.54 6004.81 5860.63C6027.01 5858.73 6049.05 5865.73 6066.09 5880.08C6083.13 5894.43 6093.77 5914.96 6095.67 5937.16C6097.57 5959.35 6090.58 5981.39 6076.23 5998.43L5474.05 6691.46C5466.84 6700.31 5457.87 6707.57 5447.72 6712.78L4670.44 7062.72C4658.78 7068.62 4645.85 7071.61 4632.78 7071.41Z" fill="white" stroke="#263238" stroke-width="0.75" stroke-linecap="round" stroke-linejoin="round"/>
<path d="M5153.34 6774.66L5236.81 6736.74" stroke="#263238" stroke-width="0.75" stroke-linecap="round" stroke-linejoin="round"/>
<path d="M4768.39 6949.76L5098.31 6799.67" stroke="#263238" stroke-width="0.75" stroke-linecap="round" stroke-linejoin="round"/>
<path d="M5896.65 6112.18L5676.79 6360.74" stroke="#263238" stroke-width="0.75" stroke-linecap="round" stroke-linejoin="round"/>
<path d="M5641.24 6396.29L5591.48 6452.9" stroke="#263238" stroke-width="0.75" stroke-linecap="round" stroke-linejoin="round"/>
<path d="M4734.16 7373.31C4827.27 6980.6 4584.41 6586.77 4191.71 6493.66C3799 6400.54 3405.17 6643.4 3312.06 7036.11C3218.94 7428.81 3461.8 7822.64 3854.51 7915.76C4247.21 8008.88 4641.04 7766.01 4734.16 7373.31Z" fill="#4CA3FF" stroke="#263238" stroke-width="0.747671" stroke-linecap="round" stroke-linejoin="round"/>
<path d="M2196.68 4499.96C2196.68 4499.96 2302 4746.94 2324.12 4795.13C2346.24 4843.31 2367.3 4856.48 2362.3 4871.75C2357.29 4887.02 2303.58 4904.66 2303.58 4904.66C2311.04 4980.65 2297.85 5057.25 2265.4 5126.36C2212.74 5231.69 2110.05 5286.72 2100.04 5352.81C2094.15 5416.36 2093.27 5480.28 2097.41 5543.97L1942.06 5416.53C1942.06 5416.53 1985.24 5291.72 1947.06 5200.09C1914.7 5125.1 1857.01 5063.87 1784.08 5027.1C1693.28 4967.51 1628.67 4875.49 1603.45 4769.85C1580.54 4647.41 1651.63 4517.6 1745.9 4425.97C1840.16 4334.34 2026.06 4352.25 2046.59 4359.88C2067.13 4367.52 1995.51 4307.22 2059.23 4293.53C2122.95 4279.84 2161.13 4372.52 2164.55 4387.79C2167.98 4403.06 2187.46 4321.7 2208 4375.15C2228.54 4428.6 2196.68 4499.96 2196.68 4499.96Z" fill="white"/>
<mask id="mask0_2022_12748" style="mask-type:luminance" maskUnits="userSpaceOnUse" x="1599" y="4292" width="765" height="1252">
<path d="M2196.68 4499.96C2196.68 4499.96 2302 4746.94 2324.12 4795.13C2346.23 4843.31 2367.3 4856.48 2362.3 4871.75C2357.29 4887.02 2303.58 4904.66 2303.58 4904.66C2311.04 4980.65 2297.85 5057.25 2265.4 5126.36C2212.74 5231.69 2110.05 5286.72 2100.04 5352.81C2094.15 5416.36 2093.27 5480.28 2097.41 5543.97L1942.06 5416.53C1942.06 5416.53 1985.24 5291.72 1947.06 5200.09C1914.69 5125.1 1857.01 5063.87 1784.08 5027.1C1693.28 4967.51 1628.67 4875.49 1603.45 4769.85C1580.54 4647.41 1651.63 4517.6 1745.9 4425.97C1840.16 4334.34 2026.05 4352.25 2046.59 4359.88C2067.13 4367.52 1995.51 4307.22 2059.23 4293.53C2122.95 4279.84 2161.13 4372.52 2164.55 4387.79C2167.98 4403.06 2187.46 4321.7 2208 4375.15C2228.54 4428.6 2196.68 4499.96 2196.68 4499.96Z" fill="white"/>
</mask>
<g mask="url(#mask0_2022_12748)">
<g style="mix-blend-mode:multiply" opacity="0.5">
<path d="M2006.83 5470.51C2005.91 5452.84 2003.89 5435.26 2000.78 5417.85C1990.51 5371.5 2053.44 5227.21 2072.92 5057.38C2092.41 4887.55 1959.44 4650.31 1959.44 4650.31L1862.02 4367.78C1818.75 4377.05 1778.69 4397.58 1745.9 4427.29C1651.63 4518.92 1580.54 4648.73 1603.45 4771.17C1628.67 4876.8 1693.28 4968.82 1784.08 5028.42C1857.01 5065.19 1914.69 5126.42 1947.06 5201.41C1985.24 5293.04 1942.06 5417.85 1942.06 5417.85L2006.83 5470.51Z" fill="#4CA3FF"/>
</g>
</g>
<path d="M2196.68 4499.96C2196.68 4499.96 2302 4746.94 2324.12 4795.13C2346.24 4843.31 2367.3 4856.48 2362.3 4871.75C2357.29 4887.02 2303.58 4904.66 2303.58 4904.66C2311.04 4980.65 2297.85 5057.25 2265.4 5126.36C2212.74 5231.69 2110.05 5286.72 2100.04 5352.81C2094.15 5416.36 2093.27 5480.28 2097.41 5543.97L1942.06 5416.53C1942.06 5416.53 1985.24 5291.72 1947.06 5200.09C1914.7 5125.1 1857.01 5063.87 1784.08 5027.1C1693.28 4967.51 1628.67 4875.49 1603.45 4769.85C1580.54 4647.41 1651.63 4517.6 1745.9 4425.97C1840.16 4334.34 2026.06 4352.25 2046.59 4359.88C2067.13 4367.52 1995.51 4307.22 2059.23 4293.53C2122.95 4279.84 2161.13 4372.52 2164.55 4387.79C2167.98 4403.06 2187.46 4321.7 2208 4375.15C2228.54 4428.6 2196.68 4499.96 2196.68 4499.96Z" stroke="#263238" stroke-width="0.75" stroke-linecap="round" stroke-linejoin="round"/>
<path d="M2206.68 4631.35C2206.68 4631.35 2160.6 4618.71 2145.33 4657.68C2140.53 4666.6 2137.83 4676.51 2137.42 4686.63C2137.01 4696.76 2138.9 4706.85 2142.96 4716.13" stroke="#263238" stroke-width="0.75" stroke-linecap="round" stroke-linejoin="round"/>
<path d="M2260.4 5019.46C2260.4 5019.46 2214.58 5042.37 2186.41 5011.82" stroke="#263238" stroke-width="0.75" stroke-linecap="round" stroke-linejoin="round"/>
<path d="M2170.61 4805.92L1958.39 4897.81" stroke="#263238" stroke-width="0.75" stroke-linecap="round" stroke-linejoin="round"/>
<path d="M1869.65 5009.45C1841 5051.65 1827.62 5102.38 1831.73 5153.22C1838.05 5240.11 1835.95 5358.6 1791.45 5348.06C1746.95 5337.53 1812.51 5204.04 1812.51 5149.01C1809.88 5107.07 1800.27 5065.87 1784.08 5027.09" stroke="#263238" stroke-width="0.75" stroke-linecap="round" stroke-linejoin="round"/>
<path d="M2325.43 4739.04L2275.41 4760.63" stroke="#263238" stroke-width="0.75" stroke-linecap="round" stroke-linejoin="round"/>
<path d="M2243.55 4788.54C2250.13 4810.92 2250.13 4830.67 2243.55 4832.51C2236.96 4834.36 2226.43 4817.77 2219.85 4795.39C2213.27 4773 2213.53 4753.26 2219.85 4751.15C2226.17 4749.04 2237.23 4765.9 2243.55 4788.54Z" fill="#263238"/>
<path d="M2270.14 4788.54C2287.78 4841.2 2283.3 4889.92 2260.13 4897.82C2236.96 4905.71 2203.79 4869.12 2186.14 4816.72C2168.5 4764.32 2172.98 4715.08 2196.15 4707.18C2219.32 4699.28 2252.5 4735.88 2270.14 4788.54Z" stroke="#263238" stroke-width="0.75" stroke-linecap="round" stroke-linejoin="round"/>
<path d="M1918.36 4992.6C1918.36 4992.6 1876.5 4942.05 1914.15 4946.26C1925.98 4948.7 1936.92 4954.3 1945.82 4962.46C1954.72 4970.62 1961.25 4981.03 1964.71 4992.6" stroke="#263238" stroke-width="0.5" stroke-linecap="round" stroke-linejoin="round"/>
<path d="M3095.6 5857.04L2947.89 5961.57L2970.8 6083.74L3139.05 6017.65L3095.6 5857.04Z" fill="white" stroke="#263238" stroke-width="0.75" stroke-linecap="round" stroke-linejoin="round"/>
<path d="M2963.16 5931.02L3029.51 6178C3029.51 6178 2582.95 6381.8 2494.74 6444.73C2406.53 6507.66 2336.76 6490.55 2336.76 6490.55L2278.3 6205.12C2278.3 6205.12 2341.76 6235.67 2476.83 6177.21C2611.91 6118.76 2963.16 5931.02 2963.16 5931.02Z" fill="white" stroke="#263238" stroke-width="0.75" stroke-linecap="round" stroke-linejoin="round"/>
<path d="M3182.5 6573.75C3173.52 6572.82 3165.18 6568.68 3158.99 6562.11C3152.8 6555.54 3149.18 6546.96 3148.79 6537.94L3089.81 5560.82C3089.21 5555.65 3089.68 5550.41 3091.2 5545.43C3092.71 5540.46 3095.23 5535.84 3098.6 5531.88C3101.97 5527.92 3106.12 5524.69 3110.8 5522.4C3115.47 5520.12 3120.56 5518.81 3125.76 5518.58C3130.96 5518.34 3136.15 5519.18 3141.01 5521.04C3145.87 5522.89 3150.29 5525.73 3154.01 5529.37C3157.73 5533.01 3160.65 5537.38 3162.61 5542.2C3164.57 5547.02 3165.51 5552.19 3165.38 5557.39L3224.36 6534.26C3224.61 6539.24 3223.87 6544.22 3222.19 6548.91C3220.51 6553.61 3217.92 6557.93 3214.57 6561.62C3211.22 6565.31 3207.18 6568.31 3202.66 6570.44C3198.15 6572.57 3193.27 6573.78 3188.29 6574.02L3182.5 6573.75Z" fill="#263238" stroke="#263238" stroke-width="0.75" stroke-linecap="round" stroke-linejoin="round"/>
<path d="M3070.06 5833.86C3060.68 5833.46 3051.79 5829.6 3045.09 5823.02C3038.4 5816.44 3034.38 5807.6 3033.83 5798.23C3033.27 5788.86 3036.21 5779.62 3042.08 5772.29C3047.94 5764.96 3056.32 5760.07 3065.59 5758.56L3213.3 5740.65C3218.42 5739.62 3223.7 5739.65 3228.81 5740.76C3233.92 5741.86 3238.75 5744.01 3242.99 5747.06C3247.22 5750.12 3250.79 5754.02 3253.45 5758.51C3256.11 5763.01 3257.81 5768.01 3258.45 5773.2C3259.08 5778.38 3258.64 5783.65 3257.15 5788.65C3255.66 5793.66 3253.14 5798.31 3249.77 5802.3C3246.4 5806.29 3242.23 5809.54 3237.54 5811.84C3232.85 5814.15 3227.74 5815.46 3222.52 5815.7L3074.8 5833.6L3070.06 5833.86Z" fill="white" stroke="#263238" stroke-width="0.75" stroke-linecap="round" stroke-linejoin="round"/>
<path d="M3077.7 5910.23C3068.32 5909.83 3059.42 5905.96 3052.73 5899.38C3046.03 5892.8 3042.02 5883.96 3041.46 5874.59C3040.91 5865.22 3043.85 5855.98 3049.71 5848.65C3055.58 5841.32 3063.96 5836.43 3073.22 5834.92L3220.94 5817.01C3230.91 5815.9 3240.92 5818.75 3248.81 5824.96C3256.69 5831.17 3261.81 5840.23 3263.07 5850.19C3263.65 5855.1 3263.27 5860.08 3261.93 5864.84C3260.6 5869.6 3258.34 5874.05 3255.28 5877.94C3252.23 5881.83 3248.43 5885.08 3244.12 5887.5C3239.81 5889.92 3235.06 5891.47 3230.15 5892.06L3082.44 5909.96L3077.7 5910.23Z" fill="white" stroke="#263238" stroke-width="0.75" stroke-linecap="round" stroke-linejoin="round"/>
<path d="M3085.86 5979.74C3076.62 5979.7 3067.73 5976.14 3061.02 5969.78C3054.31 5963.42 3050.27 5954.74 3049.74 5945.51C3049.2 5936.28 3052.2 5927.2 3058.13 5920.1C3064.06 5913.01 3072.47 5908.44 3081.65 5907.33L3223.04 5890.21C3227.81 5889.58 3232.66 5889.9 3237.3 5891.16C3241.94 5892.41 3246.29 5894.57 3250.09 5897.52C3253.89 5900.47 3257.06 5904.14 3259.43 5908.32C3261.81 5912.5 3263.32 5917.12 3263.9 5921.89C3264.47 5926.66 3264.09 5931.5 3262.78 5936.13C3261.47 5940.76 3259.26 5945.08 3256.27 5948.84C3253.28 5952.61 3249.57 5955.74 3245.36 5958.06C3241.14 5960.38 3236.51 5961.84 3231.73 5962.36L3090.34 5979.47L3085.86 5979.74Z" fill="white" stroke="#263238" stroke-width="0.75" stroke-linecap="round" stroke-linejoin="round"/>
<path d="M3109.56 6046.35C3102.27 6045.63 3095.53 6042.2 3090.65 6036.74C3085.78 6031.28 3083.13 6024.18 3083.23 6016.86C3081.76 6008.98 3083.22 6000.82 3087.34 5993.94C3091.47 5987.05 3097.96 5981.91 3105.61 5979.47L3205.67 5963.41C3219.88 5961.57 3232 5974.47 3234.1 5992.9C3235.69 6000.8 3234.28 6009.01 3230.14 6015.93C3226 6022.84 3219.43 6027.96 3211.72 6030.29L3111.93 6046.09L3109.56 6046.35Z" fill="white" stroke="#263238" stroke-width="0.75" stroke-linecap="round" stroke-linejoin="round"/>
<path d="M3055.32 5926.02C3054.88 5933.21 3051.83 5939.99 3046.74 5945.09C3041.64 5950.18 3034.86 5953.23 3027.67 5953.67C3019.88 5955.8 3011.58 5954.99 3004.34 5951.4C2997.11 5947.81 2991.45 5941.68 2988.44 5934.18L2965.27 5835.71C2962.11 5821.75 2973.96 5808.06 2991.6 5804.9C2999.35 5802.9 3007.57 5803.77 3014.73 5807.35C3021.89 5810.93 3027.52 5816.98 3030.57 5824.39L3054 5923.13C3054 5923.13 3055.06 5924.97 3055.32 5926.02Z" fill="white" stroke="#263238" stroke-width="0.75" stroke-linecap="round" stroke-linejoin="round"/>
<path d="M1885.98 5340.16C1885.98 5340.16 2066.87 5449.7 2150.86 5587.15C2234.86 5724.59 2306.21 5929.44 2347.02 6109.28C2387.84 6289.12 2420.75 6758.59 2446.29 6855.49C2458.65 6906.91 2477.49 6956.54 2502.38 7003.2C2354.99 7057.92 2198.48 7083.84 2041.33 7079.56C1791.71 7069.29 1753.53 7008.21 1753.53 7008.21C1753.53 7008.21 1669.54 6453.16 1677.17 6012.38C1684.81 5571.61 1885.98 5340.16 1885.98 5340.16Z" fill="white"/>
<mask id="mask1_2022_12748" style="mask-type:luminance" maskUnits="userSpaceOnUse" x="1676" y="5340" width="827" height="1741">
<path d="M1885.98 5340.17C1885.98 5340.17 2066.87 5449.7 2150.86 5587.15C2234.86 5724.59 2306.21 5929.45 2347.02 6109.29C2387.84 6289.12 2420.75 6758.6 2446.29 6855.49C2458.65 6906.91 2477.49 6956.55 2502.38 7003.21C2354.99 7057.92 2198.48 7083.85 2041.33 7079.57C1791.71 7069.3 1753.53 7008.21 1753.53 7008.21C1753.53 7008.21 1669.54 6453.16 1677.17 6012.39C1684.81 5571.61 1885.98 5340.17 1885.98 5340.17Z" fill="white"/>
</mask>
<g mask="url(#mask1_2022_12748)">
<g style="mix-blend-mode:multiply" opacity="0.5">
<path d="M1779.34 5839.13C1779.34 5839.13 1753.01 5880.47 1774.07 5772.25C1791.12 5696.56 1818.87 5623.68 1856.49 5555.82L1979.98 5694.84L2057.39 5700.11L2036.85 5736.18L2186.14 5828.86L2115.32 5745.4L2120.32 5617.96L2000.78 5654.82C2000.78 5654.82 1923.37 5515.79 1902.83 5470.51C1889.14 5439.44 1934.95 5413.1 1967.07 5399.15C1941.04 5378.88 1913.98 5359.99 1885.98 5342.54C1885.98 5342.54 1684.81 5574.25 1677.17 6014.76C1671.12 6364.17 1722.73 6785.19 1744.32 6944.75L2139.28 6922.9L1779.34 5839.13Z" fill="#4CA3FF"/>
</g>
</g>
<path d="M1885.98 5340.16C1885.98 5340.16 2066.87 5449.7 2150.86 5587.15C2234.86 5724.59 2306.21 5929.44 2347.02 6109.28C2387.84 6289.12 2420.75 6758.59 2446.29 6855.49C2458.65 6906.91 2477.49 6956.54 2502.38 7003.2C2354.99 7057.92 2198.48 7083.84 2041.33 7079.56C1791.71 7069.29 1753.53 7008.21 1753.53 7008.21C1753.53 7008.21 1669.54 6453.16 1677.17 6012.38C1684.81 5571.61 1885.98 5340.16 1885.98 5340.16Z" stroke="#263238" stroke-width="0.75" stroke-linecap="round" stroke-linejoin="round"/>
<path d="M1832.52 5429.43L2021.05 5655.87L2120.32 5617.69L2115.32 5745.13L2265.4 5926.02" stroke="#263238" stroke-width="0.75" stroke-linecap="round" stroke-linejoin="round"/>
<path d="M1716.67 5909.43C1716.67 5909.43 1737.74 6120.08 1800.67 6170.11" stroke="#263238" stroke-width="0.5" stroke-linecap="round" stroke-linejoin="round"/>
<path d="M1729.31 6136.67C1729.31 6136.67 1755.64 6215.66 1821.73 6241.99" stroke="#263238" stroke-width="0.5" stroke-linecap="round" stroke-linejoin="round"/>
<path d="M2275.93 6022.92L2166.66 6065.05L2183.51 6111.39L2284.36 6073.47" stroke="#263238" stroke-width="0.5" stroke-linecap="round" stroke-linejoin="round"/>
<path d="M3012.93 6816.26C3003.89 6816.24 2995.15 6812.99 2988.3 6807.1C2981.44 6801.21 2976.92 6793.07 2975.54 6784.14L2839.14 5898.38C2838.4 5893.45 2838.63 5888.42 2839.83 5883.59C2841.03 5878.75 2843.17 5874.2 2846.13 5870.19C2849.09 5866.18 2852.81 5862.79 2857.08 5860.22C2861.34 5857.64 2866.08 5855.94 2871 5855.19C2875.93 5854.45 2880.96 5854.69 2885.79 5855.88C2890.63 5857.08 2895.18 5859.22 2899.19 5862.18C2903.2 5865.14 2906.59 5868.86 2909.16 5873.13C2911.74 5877.39 2913.44 5882.13 2914.19 5887.05L3050.58 6772.82C3052.02 6782.76 3049.48 6792.86 3043.51 6800.95C3037.55 6809.03 3028.64 6814.44 3018.72 6816L3012.93 6816.26Z" fill="#263238" stroke="#263238" stroke-width="0.75" stroke-linecap="round" stroke-linejoin="round"/>
<path d="M2196.68 4499.96C2196.68 4499.96 2227.22 4428.6 2206.95 4375.15C2186.67 4321.7 2166.13 4403.06 2163.5 4387.79C2160.87 4372.52 2122.95 4280.89 2058.18 4293.53C1993.41 4306.17 2065.81 4367.52 2045.54 4359.88C2025.27 4352.25 1839.11 4333.55 1744.84 4425.97C1650.58 4518.39 1579.49 4647.41 1602.4 4769.85C1627.61 4875.49 1692.23 4967.51 1783.02 5027.1C1830.68 5051.54 1872.25 5086.36 1904.67 5129C1932.04 5107.02 1957.01 5082.22 1979.19 5055.01C1965.95 5059.23 1951.91 5060.29 1938.19 5058.1C1924.47 5055.9 1911.45 5050.51 1900.19 5042.37C1859.38 5014.2 1839.11 4932.84 1890.19 4892.02C1941.27 4851.21 1990.51 4943.89 1990.51 4943.89C2043.17 4972.07 2023.42 4898.08 2003.15 4864.9C1982.87 4831.73 2010.78 4795.92 2018.42 4747.73C2026.06 4699.55 1959.97 4681.38 1967.6 4632.93C1975.24 4584.48 2196.68 4499.96 2196.68 4499.96Z" fill="#263238" stroke="#263238" stroke-width="0.75" stroke-linecap="round" stroke-linejoin="round"/>
<path d="M2073.98 4534.19C2073.98 4534.19 1981.56 4487.85 1922.58 4560.52C1863.6 4633.19 1876.5 4754.05 1830.16 4825.4C1819.32 4845.06 1804.25 4862.06 1786.03 4875.18C1767.82 4888.29 1746.91 4897.19 1724.83 4901.24" stroke="white" stroke-width="0.5" stroke-linecap="round" stroke-linejoin="round"/>
<path d="M1670.33 4774.06C1698.17 4777.05 1726.07 4769.02 1748.06 4751.7C1770.06 4734.38 1784.4 4709.14 1788.03 4681.38C1809.09 4576.06 1926.79 4424.92 2044.75 4420.71C2162.71 4416.49 2154.02 4499.7 2154.02 4499.7" stroke="white" stroke-width="0.5" stroke-linecap="round" stroke-linejoin="round"/>
<path d="M2688.27 6239.09L2762 6190.65C2762 6190.65 2825.72 6073.47 2830.72 6065.84C2835.72 6058.2 2991.33 5981.84 3003.97 5992.11C3011.14 5998.37 3016.71 6006.24 3020.24 6015.08C3023.76 6023.91 3025.14 6033.46 3024.25 6042.93C3019.24 6055.83 3001.34 6069.26 3001.34 6081.37C3001.34 6093.49 3021.88 6190.65 3021.88 6216.19C3021.88 6241.73 2916.56 6284.91 2874.16 6297.81C2831.77 6310.71 2774.9 6310.45 2762 6320.72L2726.45 6348.63L2688.27 6239.09Z" fill="white" stroke="#263238" stroke-width="0.75" stroke-linecap="round" stroke-linejoin="round"/>
<path d="M1832.53 5724.86C1832.53 5724.86 1766.44 5742.5 1789.34 5928.4C1812.25 6114.29 1998.14 6740.69 2064.23 6817.32C2130.32 6893.94 2775.16 6465.8 2775.16 6465.8L2696.17 6221.19C2696.17 6221.19 2260.66 6391.81 2225.11 6399.45C2189.57 6407.08 2087.41 5852.04 2051.86 5783.31" fill="white"/>
<mask id="mask2_2022_12748" style="mask-type:luminance" maskUnits="userSpaceOnUse" x="1784" y="5724" width="992" height="1103">
<path d="M1832.53 5724.86C1832.53 5724.86 1766.44 5742.5 1789.34 5928.39C1812.25 6114.29 1998.14 6740.69 2064.23 6817.31C2130.32 6893.93 2775.16 6465.8 2775.16 6465.8L2696.17 6221.19C2696.17 6221.19 2260.66 6391.81 2225.11 6399.44C2189.57 6407.08 2087.41 5852.03 2051.86 5783.31" fill="white"/>
</mask>
<g mask="url(#mask2_2022_12748)">
<g style="mix-blend-mode:multiply" opacity="0.5">
<path d="M2763.31 6430.25C2629.29 6472.65 2319.11 6569.28 2278.83 6565.07C2226.17 6560.06 2211.95 6528.99 2180.88 6487.92C2149.81 6446.84 2103.73 6611.41 2062.39 6626.94C2021.05 6642.48 2052.12 6442.63 2067.66 6400.24C2083.19 6357.84 2031.58 6421.04 2031.58 6421.04C2031.58 6421.04 1928.63 6210.39 1877.02 6065.57C1844.31 5971.03 1818.52 5874.23 1799.88 5775.94L1788.29 5804.37C1782.47 5845.16 1782.47 5886.56 1788.29 5927.34C1811.2 6113.23 1997.09 6739.64 2063.18 6816.26C2129.27 6892.88 2774.11 6464.75 2774.11 6464.75L2763.31 6430.25Z" fill="#4CA3FF"/>
</g>
</g>
<path d="M1832.53 5724.86C1832.53 5724.86 1766.44 5742.5 1789.34 5928.4C1812.25 6114.29 1998.14 6740.69 2064.23 6817.32C2130.32 6893.94 2775.16 6465.8 2775.16 6465.8L2696.17 6221.19C2696.17 6221.19 2260.66 6391.81 2225.11 6399.45C2189.57 6407.08 2087.41 5852.04 2051.86 5783.31" stroke="#263238" stroke-width="0.75" stroke-linecap="round" stroke-linejoin="round"/>
<path d="M2224.85 6399.45C2198.89 6416.24 2176.61 6438.14 2159.37 6463.8C2142.12 6489.46 2130.27 6518.36 2124.53 6548.74" stroke="#263238" stroke-width="0.5" stroke-linecap="round" stroke-linejoin="round"/>
<path d="M2128.74 6456.06C2111.05 6473.72 2097.09 6494.75 2087.68 6517.91C2078.28 6541.07 2073.62 6565.88 2073.98 6590.87" stroke="#263238" stroke-width="0.5" stroke-linecap="round" stroke-linejoin="round"/>
<path d="M1472.32 6663.02C1472.32 6663.02 1402.28 6429.46 1411.5 5943.93C1420.71 5458.39 1448.89 5411.79 1425.45 5374.4C1402.02 5337.01 977.834 5586.89 661.867 5951.04C460.701 6183.8 203.715 6528.47 186.863 7071.4C172.908 7505.6 379.34 7856.58 508.886 7953.74C732.959 8121.73 1038.92 8110.15 1071.57 8110.15H4198.59C4198.59 8110.15 4399.23 8040.11 4445.84 7858.16C4492.44 7676.22 4651.21 7157.77 4319.98 6536.89C4102.49 6129.56 3713.06 5691.94 3647.49 5724.59C3581.93 5757.24 3337.05 6224.88 3003.45 6518.2C2688.27 6795.46 2088.46 6999 1472.32 6663.02Z" fill="#4CA3FF" stroke="#263238" stroke-width="0.75" stroke-linecap="round" stroke-linejoin="round"/>
<path d="M4320.77 6536.89C4274.16 6450 4219.92 6361.8 4162.78 6277.01C3980.05 6339.94 3521.9 6527.94 3267.54 6903.42C3049.26 7225.7 3194.34 7737.04 3649.34 8110.15H4198.86C4198.86 8110.15 4399.49 8040.11 4446.1 7857.9C4492.7 7675.69 4651.22 7157.77 4320.77 6536.89Z" fill="white" stroke="#263238" stroke-width="0.75" stroke-linecap="round" stroke-linejoin="round"/>
<path d="M4421.08 7519.29C4416.17 7564.93 4408.89 7611.71 4399.23 7659.63" stroke="#263238" stroke-width="0.75" stroke-linecap="round" stroke-linejoin="round"/>
<path d="M4264.42 6616.15C4264.42 6616.15 4453.74 6942.38 4429.51 7418.18" stroke="#263238" stroke-width="0.75" stroke-linecap="round" stroke-linejoin="round"/>
<path d="M1398.07 8043.79V7576.95C1154.51 7497.96 997.319 7404.22 850.657 7316.28C640.012 7190.15 492.561 6850.23 591.564 6630.1C682.405 6426.83 933.862 6335.99 1067.62 6426.83C1198.16 6512.61 1332.97 6591.7 1471.53 6663.81C1471.53 6663.81 1401.49 6430.25 1410.71 5944.72C1419.92 5459.18 1448.1 5412.58 1424.66 5375.19C1401.23 5337.8 977.044 5587.67 661.077 5951.83C460.701 6183.8 203.715 6528.47 186.863 7071.4C172.908 7505.59 379.34 7856.58 508.886 7953.74C732.959 8121.73 1038.92 8110.15 1071.57 8110.15H1398.07C1398.07 8086.18 1398.07 8063.8 1398.07 8043.79Z" fill="white" stroke="#263238" stroke-width="0.75" stroke-linecap="round" stroke-linejoin="round"/>
<path d="M286.129 7162.77C288.513 7220.25 294.671 7277.51 304.56 7334.18" stroke="#263238" stroke-width="0.75" stroke-linecap="round" stroke-linejoin="round"/>
<path d="M1038.92 5726.96C963.089 5794.9 849.867 5874.68 779.564 5956.04C578.135 6188.8 302.981 6521.36 285.603 7064.3" stroke="#263238" stroke-width="0.75" stroke-linecap="round" stroke-linejoin="round"/>
<path d="M2125.85 8054.06C2125.85 8310.78 1730.89 8334.22 1241.14 8334.22C751.39 8334.22 356.432 8324.74 356.432 8054.06C356.432 7680.17 751.39 7316.8 1241.14 7316.8C1730.89 7316.8 2125.85 7680.17 2125.85 8054.06Z" fill="#4CA3FF" stroke="#263238" stroke-width="0.75" stroke-linecap="round" stroke-linejoin="round"/>
<path d="M1240.09 7316.54C787.99 7316.54 415.676 7627.77 362.225 7970.33C414.886 8185.98 787.99 8194.14 1240.09 8194.14C1692.18 8194.14 2063.44 8174.13 2117.69 7968.75C2064.5 7626.72 1692.45 7316.54 1240.09 7316.54Z" fill="#263238" stroke="#263238" stroke-width="0.75" stroke-linecap="round" stroke-linejoin="round"/>
<path d="M4413.19 8081.44C4413.19 8313.94 4054.56 8335.27 3612.21 8335.27C3169.86 8335.27 2810.97 8326.85 2810.97 8081.44C2810.97 7743.1 3169.59 7413.44 3612.21 7413.44C4054.83 7413.44 4413.19 7743.1 4413.19 8081.44Z" fill="#4CA3FF" stroke="#263238" stroke-width="0.75" stroke-linecap="round" stroke-linejoin="round"/>
<path d="M3612.21 7413.44C3202.77 7413.44 2865.47 7695.44 2817.29 8005.88C2865.47 8200.99 3202.77 8208.36 3612.21 8208.36C4021.65 8208.36 4357.63 8190.19 4406.87 8004.3C4357.63 7694.65 4020.86 7413.44 3612.21 7413.44Z" fill="#263238" stroke="#263238" stroke-width="0.75" stroke-linecap="round" stroke-linejoin="round"/>
<path d="M6731.07 5312.52C6699.76 5300.81 6674.38 5277.15 6660.51 5246.73C6646.63 5216.32 6645.4 5181.64 6657.08 5150.32L7012.54 4200.05C7018.33 4184.49 7027.13 4170.23 7038.44 4158.07C7049.74 4145.91 7063.33 4136.09 7078.43 4129.19C7093.53 4122.28 7109.84 4118.41 7126.43 4117.81C7143.03 4117.21 7159.57 4119.88 7175.13 4125.67C7190.69 4131.46 7204.96 4140.26 7217.12 4151.57C7229.28 4162.87 7239.09 4176.46 7246 4191.56C7252.91 4206.66 7256.77 4222.97 7257.38 4239.56C7257.98 4256.15 7255.31 4272.7 7249.52 4288.26L6894.05 5238.53C6888.26 5254.13 6879.44 5268.42 6868.09 5280.59C6856.75 5292.77 6843.11 5302.57 6827.96 5309.45C6812.81 5316.33 6796.45 5320.14 6779.82 5320.67C6763.19 5321.19 6746.62 5318.42 6731.07 5312.52Z" fill="white" stroke="#263238" stroke-width="0.75" stroke-linecap="round" stroke-linejoin="round"/>
<path d="M7140.25 4371.2L6940.66 4895.71" stroke="#263238" stroke-width="0.75" stroke-linecap="round" stroke-linejoin="round"/>
<path d="M6190.24 6760.7C6162.66 6750.42 6137.37 6734.81 6115.83 6714.75C6094.29 6694.7 6076.91 6670.59 6064.68 6643.82C6052.45 6617.04 6045.62 6588.12 6044.58 6558.71C6043.53 6529.29 6048.29 6499.96 6058.58 6472.38L6565.97 5115.57C6586.92 5059.88 6629.14 5014.79 6683.33 4990.22C6737.53 4965.65 6799.26 4963.62 6854.95 4984.57C6910.64 5005.52 6955.73 5047.74 6980.3 5101.93C7004.87 5156.13 7006.9 5217.86 6985.95 5273.55L6477.5 6629.05C6456.73 6684.5 6414.86 6729.47 6361.03 6754.14C6307.2 6778.8 6245.8 6781.17 6190.24 6760.7Z" fill="#263238" stroke="#263238" stroke-width="0.75" stroke-linecap="round" stroke-linejoin="round"/>
<path d="M8073.67 1762.63C7820.7 1668.04 7545.37 1650.58 7282.49 1712.46C7019.6 1774.35 6780.97 1912.8 6596.77 2110.3C6412.57 2307.81 6291.08 2555.5 6247.65 2822.05C6204.22 3088.61 6240.81 3362.06 6352.79 3607.82C6464.77 3853.58 6647.11 4060.62 6876.76 4202.75C7106.4 4344.88 7373.04 4415.72 7642.95 4406.31C7912.85 4396.9 8173.91 4307.67 8393.1 4149.9C8612.29 3992.12 8779.78 3772.89 8874.38 3519.93C9001.16 3180.72 8988.03 2805.03 8837.88 2475.49C8687.72 2145.95 8412.84 1889.54 8073.67 1762.63ZM7199.75 4099.21C6990.61 4020.95 6809.38 3882.44 6678.96 3701.19C6548.54 3519.94 6474.79 3304.08 6467.05 3080.92C6459.3 2857.75 6517.9 2637.3 6635.44 2447.44C6752.98 2257.58 6924.18 2106.84 7127.39 2014.27C7330.6 1921.71 7556.69 1891.48 7777.08 1927.41C7997.47 1963.33 8202.26 2063.8 8365.55 2216.12C8528.84 2368.43 8643.3 2565.74 8694.45 2783.1C8745.61 3000.46 8731.16 3228.11 8652.94 3437.26C8547.98 3717.71 8335.92 3945 8063.41 4069.13C7790.9 4193.26 7480.24 4204.08 7199.75 4099.21Z" fill="#263238" stroke="#263238" stroke-width="0.75" stroke-linecap="round" stroke-linejoin="round"/>
<path d="M6679.72 2626.8C6734.51 2506 6812.71 2397.25 6909.79 2306.86C7006.87 2216.47 7120.9 2146.23 7245.3 2100.19" stroke="#263238" stroke-width="0.75" stroke-linecap="round" stroke-linejoin="round"/>
<path d="M6589.41 3044.93C6589.13 2942.51 6604.59 2840.65 6635.22 2742.92" stroke="#263238" stroke-width="0.75" stroke-linecap="round" stroke-linejoin="round"/>
<path d="M6300.83 3323.51C6232.84 3010.34 6280.65 2683.15 6435.42 2402.53C6590.18 2121.92 6841.4 1906.91 7142.55 1797.32C7443.69 1687.74 7774.35 1691.02 8073.26 1806.54C8372.18 1922.07 8619.09 2142.01 8768.27 2425.64" stroke="white" stroke-miterlimit="10"/>
<path d="M8910.98 2883.79C8949.57 3199.31 8873.45 3518.19 8696.49 3782.26C8519.53 4046.32 8253.53 4237.96 7947.02 4322.22C7640.52 4406.48 7313.93 4377.73 7026.86 4241.23C6739.79 4104.73 6511.35 3869.57 6383.24 3578.65" stroke="white" stroke-miterlimit="10"/>
<path d="M8821.45 2540.17C8855.83 2623.95 8881.5 2711.03 8898.08 2800.05" stroke="white" stroke-miterlimit="10"/>
<path d="M2293.31 7696.76C2503.15 7696.76 2673.26 7526.65 2673.26 7316.81C2673.26 7106.96 2503.15 6936.86 2293.31 6936.86C2083.47 6936.86 1913.36 7106.96 1913.36 7316.81C1913.36 7526.65 2083.47 7696.76 2293.31 7696.76Z" fill="#263238"/>
<path d="M2293.31 7637.51C2470.43 7637.51 2614.02 7493.93 2614.02 7316.8C2614.02 7139.68 2470.43 6996.1 2293.31 6996.1C2116.19 6996.1 1972.6 7139.68 1972.6 7316.8C1972.6 7493.93 2116.19 7637.51 2293.31 7637.51Z" fill="white" stroke="#263238" stroke-width="0.75" stroke-linecap="round" stroke-linejoin="round"/>
<path d="M2195.89 7411.59C2193.11 7408.74 2191.55 7404.91 2191.55 7400.93C2191.55 7396.94 2193.11 7393.12 2195.89 7390.27L2282.78 7303.37C2285.63 7300.59 2289.46 7299.04 2293.44 7299.04C2297.43 7299.04 2301.25 7300.59 2304.11 7303.37C2305.56 7304.77 2306.71 7306.45 2307.5 7308.31C2308.28 7310.16 2308.69 7312.16 2308.69 7314.17C2308.69 7316.18 2308.28 7318.18 2307.5 7320.03C2306.71 7321.89 2305.56 7323.57 2304.11 7324.97L2217.48 7411.59C2216.08 7413.04 2214.4 7414.2 2212.55 7414.98C2210.69 7415.77 2208.7 7416.18 2206.68 7416.18C2204.67 7416.18 2202.67 7415.77 2200.82 7414.98C2198.96 7414.2 2197.29 7413.04 2195.89 7411.59Z" fill="#263238"/>
<path d="M2063.71 7543.77C2061.12 7541.31 2059.06 7538.35 2057.65 7535.07C2056.24 7531.79 2055.51 7528.25 2055.51 7524.68C2055.51 7521.11 2056.24 7517.58 2057.65 7514.3C2059.06 7511.01 2061.12 7508.05 2063.71 7505.59L2187.46 7381.84C2189.92 7379.21 2192.9 7377.11 2196.21 7375.68C2199.51 7374.24 2203.08 7373.5 2206.68 7373.5C2210.29 7373.5 2213.85 7374.24 2217.16 7375.68C2220.46 7377.11 2223.44 7379.21 2225.9 7381.84C2228.49 7384.3 2230.56 7387.26 2231.96 7390.54C2233.37 7393.82 2234.1 7397.36 2234.1 7400.93C2234.1 7404.5 2233.37 7408.03 2231.96 7411.32C2230.56 7414.6 2228.49 7417.56 2225.9 7420.02L2102.15 7543.77C2099.69 7546.4 2096.71 7548.5 2093.4 7549.93C2090.1 7551.37 2086.53 7552.11 2082.93 7552.11C2079.33 7552.11 2075.76 7551.37 2072.45 7549.93C2069.15 7548.5 2066.17 7546.4 2063.71 7543.77Z" fill="#263238"/>
<path d="M2521.33 7322.07C2544.45 7299 2560.2 7269.58 2566.59 7237.55C2572.98 7205.51 2569.73 7172.31 2557.24 7142.12C2544.75 7111.94 2523.59 7086.14 2496.44 7067.99C2469.28 7049.84 2437.35 7040.15 2404.69 7040.15C2372.03 7040.15 2340.1 7049.84 2312.94 7067.99C2285.79 7086.14 2264.63 7111.94 2252.14 7142.12C2239.65 7172.31 2236.4 7205.51 2242.79 7237.55C2249.18 7269.58 2264.93 7299 2288.04 7322.07C2319 7352.98 2360.95 7370.33 2404.69 7370.33C2448.43 7370.33 2490.38 7352.98 2521.33 7322.07Z" fill="#263238"/>
<path d="M2489.74 7290.21C2506.49 7273.4 2517.88 7252.01 2522.48 7228.73C2527.08 7205.45 2524.68 7181.33 2515.58 7159.41C2506.48 7137.5 2491.09 7118.77 2471.35 7105.6C2451.62 7092.42 2428.42 7085.39 2404.69 7085.39C2380.96 7085.39 2357.76 7092.42 2338.03 7105.6C2318.29 7118.77 2302.9 7137.5 2293.8 7159.41C2284.7 7181.33 2282.3 7205.45 2286.9 7228.73C2291.5 7252.01 2302.89 7273.4 2319.64 7290.21C2330.8 7301.4 2344.05 7310.29 2358.64 7316.35C2373.24 7322.41 2388.89 7325.53 2404.69 7325.53C2420.49 7325.53 2436.14 7322.41 2450.73 7316.35C2465.33 7310.29 2478.58 7301.4 2489.74 7290.21Z" fill="white"/>
<path d="M7006.49 5961.83C7006.49 5995.28 6993.2 6027.36 6969.55 6051.01C6945.89 6074.67 6913.81 6087.96 6880.36 6087.96H5991.18C5974.15 6088.73 5957.14 6086.05 5941.17 6080.07C5925.21 6074.09 5910.62 6064.94 5898.29 6053.16C5885.97 6041.38 5876.16 6027.23 5869.45 6011.56C5862.75 5995.88 5859.29 5979.01 5859.29 5961.96C5859.29 5944.92 5862.75 5928.04 5869.45 5912.37C5876.16 5896.7 5885.97 5882.54 5898.29 5870.77C5910.62 5858.99 5925.21 5849.84 5941.17 5843.86C5957.14 5837.87 5974.15 5835.19 5991.18 5835.97H6880.36C6913.77 5835.97 6945.81 5849.22 6969.45 5872.82C6993.1 5896.41 7006.42 5928.43 7006.49 5961.83Z" fill="#4CA3FF" stroke="#263238" stroke-width="0.75" stroke-linecap="round" stroke-linejoin="round"/>
<path d="M6474.35 6048.99C6513.03 6048.99 6544.38 6017.63 6544.38 5978.95C6544.38 5940.26 6513.03 5908.91 6474.35 5908.91C6435.66 5908.91 6404.31 5940.26 6404.31 5978.95C6404.31 6017.63 6435.66 6048.99 6474.35 6048.99Z" fill="white" stroke="#263238" stroke-width="0.75" stroke-linecap="round" stroke-linejoin="round"/>
<path d="M5409.8 6800.99C5504.03 6800.99 5580.42 6724.6 5580.42 6630.36C5580.42 6536.13 5504.03 6459.74 5409.8 6459.74C5315.57 6459.74 5239.18 6536.13 5239.18 6630.36C5239.18 6724.6 5315.57 6800.99 5409.8 6800.99Z" fill="#4CA3FF" stroke="#263238" stroke-width="0.75" stroke-linecap="round" stroke-linejoin="round"/>
<path d="M5473.78 6630.37C5473.83 6617.7 5470.13 6605.31 5463.13 6594.75C5456.13 6584.19 5446.15 6575.95 5434.47 6571.07C5422.78 6566.18 5409.91 6564.88 5397.48 6567.32C5385.05 6569.76 5373.62 6575.83 5364.65 6584.77C5355.68 6593.71 5349.56 6605.11 5347.07 6617.52C5344.58 6629.94 5345.83 6642.82 5350.66 6654.53C5355.5 6666.24 5363.7 6676.24 5374.22 6683.29C5384.75 6690.33 5397.13 6694.09 5409.8 6694.09C5426.72 6694.09 5442.96 6687.38 5454.95 6675.44C5466.94 6663.5 5473.71 6647.29 5473.78 6630.37Z" fill="white" stroke="#263238" stroke-width="0.75" stroke-linecap="round" stroke-linejoin="round"/>
<path d="M5991.18 6135.62C6085.41 6135.62 6161.8 6059.23 6161.8 5964.99C6161.8 5870.76 6085.41 5794.37 5991.18 5794.37C5896.95 5794.37 5820.56 5870.76 5820.56 5964.99C5820.56 6059.23 5896.95 6135.62 5991.18 6135.62Z" fill="#4CA3FF" stroke="#263238" stroke-width="0.75" stroke-linecap="round" stroke-linejoin="round"/>
<path d="M5991.18 6030.82C6027.53 6030.82 6057 6001.35 6057 5964.99C6057 5928.64 6027.53 5899.17 5991.18 5899.17C5954.82 5899.17 5925.35 5928.64 5925.35 5964.99C5925.35 6001.35 5954.82 6030.82 5991.18 6030.82Z" fill="white" stroke="#263238" stroke-width="0.75" stroke-linecap="round" stroke-linejoin="round"/>
</svg>
