<?xml version="1.0" standalone="no"?>
<!DOCTYPE svg PUBLIC "-//W3C//DTD SVG 20010904//EN"
 "http://www.w3.org/TR/2001/REC-SVG-20010904/DTD/svg10.dtd">
<svg version="1.0" xmlns="http://www.w3.org/2000/svg"
 width="2140.000000pt" height="2140.000000pt" viewBox="0 0 2140.000000 2140.000000"
 preserveAspectRatio="xMidYMid meet">
<metadata>
Created by potrace 1.14, written by Peter Selinger 2001-2017
</metadata>
<g transform="translate(0.000000,2140.000000) scale(0.100000,-0.100000)"
fill="#000000" stroke="none">
<path d="M10634 19558 c-5 -7 -2 -8 7 -3 11 6 11 5 3 -4 -6 -7 -20 -14 -30
-16 -11 -1 -18 -8 -17 -13 2 -7 -4 -9 -14 -5 -12 5 -14 3 -8 -7 6 -10 3 -12
-13 -8 -12 4 -20 3 -17 -2 6 -9 -19 -32 -31 -29 -14 4 -64 -23 -64 -34 0 -5
-7 -7 -15 -3 -9 3 -15 0 -15 -9 0 -7 -5 -17 -12 -21 -7 -4 -8 -3 -4 4 4 7 2
12 -3 12 -6 0 -11 -4 -11 -10 0 -5 -7 -10 -15 -10 -8 0 -15 -5 -15 -11 0 -5 6
-7 13 -3 6 4 9 3 5 -1 -5 -5 -20 -10 -35 -11 -15 -2 -32 -9 -38 -16 -5 -7 -17
-14 -25 -16 -8 -2 -18 -9 -22 -15 -4 -7 -8 -7 -8 -2 0 7 -3 7 -8 0 -4 -5 -16
-17 -26 -25 -18 -13 -19 -13 -12 0 4 8 1 7 -8 -4 -8 -10 -20 -15 -27 -10 -8 4
-10 3 -5 -4 4 -7 1 -12 -9 -12 -10 0 -13 -5 -9 -12 4 -6 3 -8 -4 -4 -6 3 -17
-1 -26 -10 -9 -8 -20 -13 -25 -10 -5 3 -12 -1 -15 -10 -3 -9 -13 -14 -20 -11
-17 7 -39 -16 -28 -28 4 -5 -1 -5 -11 -2 -11 4 -20 1 -23 -8 -4 -8 -10 -12
-15 -9 -5 3 -9 0 -9 -6 0 -7 -7 -10 -15 -6 -10 3 -15 -1 -15 -12 0 -15 -2 -15
-10 -2 -8 13 -10 12 -10 -3 0 -10 -4 -16 -9 -13 -5 3 -14 -1 -21 -9 -6 -7 -19
-11 -28 -8 -9 3 -14 3 -10 -2 9 -10 -21 -34 -43 -35 -9 0 -19 -7 -23 -15 -3
-8 -9 -14 -13 -13 -19 4 -63 -23 -64 -39 0 -10 -3 -13 -5 -6 -6 12 -84 -24
-84 -39 0 -4 -7 -8 -15 -8 -8 0 -15 -5 -15 -11 0 -6 -6 -9 -12 -7 -7 3 -18 0
-25 -6 -32 -28 -39 -32 -52 -28 -8 3 -11 0 -8 -5 3 -5 -3 -15 -15 -22 -16 -10
-19 -10 -12 1 5 8 1 8 -12 -2 -10 -9 -31 -22 -46 -29 -15 -8 -25 -18 -22 -23
3 -5 -2 -8 -12 -6 -11 2 -18 -2 -17 -9 2 -7 -4 -10 -12 -7 -8 4 -15 1 -15 -4
0 -6 -9 -9 -19 -7 -15 3 -18 -1 -14 -13 3 -9 3 -14 -2 -10 -4 4 -14 3 -22 -3
-7 -6 -13 -8 -13 -5 0 4 -7 0 -16 -8 -8 -9 -20 -14 -25 -10 -5 3 -8 0 -7 -8 2
-8 -4 -12 -16 -10 -10 2 -15 -1 -12 -6 3 -6 -1 -13 -10 -16 -10 -4 -13 -2 -9
7 4 6 0 4 -8 -5 -8 -10 -17 -15 -20 -11 -4 3 -7 1 -7 -6 0 -7 -4 -10 -9 -7 -5
3 -12 -1 -15 -9 -3 -8 -9 -15 -13 -14 -19 3 -34 -2 -29 -10 6 -8 -40 -26 -57
-22 -5 1 -6 -3 -2 -9 3 -5 -5 -14 -19 -20 -14 -5 -26 -14 -26 -20 0 -7 -7 -7
-22 1 -13 6 -20 8 -16 4 8 -9 -14 -35 -24 -28 -5 2 -8 -1 -8 -7 0 -6 -4 -9 -9
-6 -5 3 -12 -1 -15 -10 -3 -8 -10 -13 -15 -10 -5 4 -11 2 -13 -3 -1 -5 -10
-11 -18 -13 -8 -2 -21 -10 -28 -18 -12 -13 -13 -13 -7 0 4 9 1 8 -8 -3 -8 -10
-24 -19 -35 -20 -11 0 -18 -5 -16 -9 3 -5 -3 -11 -13 -15 -10 -3 -30 -15 -45
-25 -14 -10 -34 -18 -43 -18 -9 0 -14 -3 -11 -8 2 -4 -7 -12 -20 -19 -18 -8
-23 -8 -18 0 3 7 -3 2 -14 -10 -11 -12 -22 -19 -26 -16 -3 4 -6 1 -6 -6 0 -7
-5 -9 -12 -5 -7 5 -9 2 -6 -8 5 -11 0 -14 -19 -10 -16 3 -24 1 -20 -5 6 -9
-16 -21 -39 -21 -3 -1 -11 -8 -18 -18 -7 -9 -18 -14 -24 -10 -6 4 -17 -2 -24
-14 -7 -11 -21 -20 -30 -20 -10 0 -18 -7 -18 -16 0 -12 -3 -14 -13 -6 -10 8
-17 7 -29 -6 -29 -30 -52 -47 -61 -44 -5 1 -15 -2 -23 -9 -7 -6 -18 -8 -23 -4
-6 3 -8 0 -5 -8 5 -13 -19 -27 -51 -31 -15 -2 -33 -20 -28 -29 2 -4 1 -7 -4
-6 -14 2 -53 -13 -53 -21 0 -4 -11 -11 -25 -14 -14 -4 -25 -12 -25 -19 0 -8
-4 -7 -10 3 -8 13 -10 12 -10 -3 0 -10 -4 -16 -9 -12 -6 3 -14 -3 -20 -12 -5
-10 -13 -15 -17 -11 -4 4 -13 0 -21 -10 -10 -11 -12 -12 -8 -2 4 10 2 9 -8 -2
-8 -10 -17 -15 -20 -11 -4 3 -7 1 -7 -5 0 -7 -7 -12 -16 -12 -8 0 -13 -4 -9
-9 3 -6 -4 -8 -15 -6 -11 2 -18 0 -15 -6 6 -8 -8 -13 -28 -10 -4 1 -10 -6 -13
-14 -4 -8 -11 -15 -17 -15 -6 0 -19 -8 -30 -17 -15 -13 -19 -14 -13 -3 4 8 -2
4 -14 -10 -12 -14 -24 -24 -26 -23 -10 4 -44 -11 -44 -20 0 -6 -3 -7 -7 -4 -3
4 -12 -1 -20 -11 -10 -11 -12 -12 -8 -2 4 10 2 9 -8 -2 -8 -10 -19 -18 -26
-18 -6 0 -11 -5 -11 -12 0 -6 -3 -8 -7 -5 -3 4 -21 -5 -40 -19 -18 -14 -37
-23 -42 -20 -5 3 -12 -1 -15 -10 -4 -9 -9 -14 -12 -11 -4 3 -13 -1 -21 -9 -8
-8 -19 -12 -24 -8 -5 3 -12 -2 -15 -10 -3 -9 -10 -13 -15 -10 -5 3 -9 0 -9 -6
0 -6 -4 -9 -9 -6 -5 3 -11 -1 -15 -9 -3 -8 -12 -15 -21 -15 -8 0 -15 -5 -15
-11 0 -6 -6 -9 -12 -7 -7 3 -19 -1 -26 -9 -8 -7 -18 -10 -24 -7 -6 4 -8 3 -5
-3 8 -13 -50 -46 -65 -37 -8 5 -9 2 -4 -12 4 -10 4 -15 0 -12 -4 4 -16 2 -28
-4 -11 -7 -24 -11 -28 -10 -5 1 -8 -3 -8 -8 0 -6 -7 -10 -15 -10 -7 0 -19 -8
-24 -17 -8 -14 -11 -15 -11 -3 0 12 -3 11 -11 -2 -5 -10 -17 -18 -24 -18 -8 0
-15 -7 -15 -15 0 -8 -5 -15 -11 -15 -5 0 -7 6 -3 13 4 6 -4 2 -17 -10 -20 -18
-28 -20 -38 -10 -10 9 -11 8 -6 -5 6 -14 2 -18 -15 -18 -11 0 -19 -4 -15 -9 3
-5 1 -12 -5 -16 -5 -3 -10 -1 -10 5 0 7 -6 5 -15 -4 -8 -8 -24 -18 -35 -21
-11 -4 -17 -11 -14 -17 4 -6 1 -9 -7 -6 -8 3 -20 -2 -27 -11 -11 -13 -12 -13
-7 -1 4 10 2 9 -8 -2 -8 -10 -19 -18 -26 -18 -6 0 -11 -4 -11 -10 0 -5 -6 -7
-14 -4 -8 3 -20 -3 -27 -13 -8 -10 -21 -19 -29 -21 -8 -2 -18 -8 -21 -14 -3
-5 -10 -10 -15 -11 -5 -1 -8 -6 -6 -10 1 -5 -2 -6 -7 -3 -14 9 -42 -4 -35 -16
4 -6 -4 -4 -17 3 -21 11 -22 10 -12 -2 10 -12 8 -15 -9 -16 -12 -1 -26 -7 -32
-14 -8 -9 -7 -10 3 -4 9 5 12 4 7 -3 -4 -6 -13 -9 -21 -5 -8 3 -15 0 -15 -7 0
-6 -4 -8 -10 -5 -5 3 -10 1 -10 -5 0 -6 -4 -8 -10 -5 -5 3 -10 2 -10 -4 0 -13
-60 -42 -71 -35 -5 3 -9 2 -8 -3 3 -20 -2 -27 -11 -13 -9 13 -10 13 -10 0 0
-9 -12 -21 -27 -27 -35 -15 -66 -35 -75 -48 -5 -7 -8 -7 -8 0 0 6 -7 2 -15 -9
-7 -10 -25 -19 -38 -20 -14 0 -23 -5 -20 -9 3 -5 -4 -11 -16 -14 -12 -3 -21
-9 -21 -14 0 -5 -6 -9 -14 -9 -7 0 -26 -10 -42 -22 -16 -13 -25 -16 -20 -8 4
8 0 6 -8 -4 -9 -11 -16 -16 -16 -10 0 5 -7 0 -15 -10 -10 -13 -15 -15 -15 -6
0 7 -12 0 -26 -16 -15 -16 -23 -22 -18 -14 6 12 5 13 -8 3 -8 -7 -18 -10 -22
-6 -4 4 -4 -1 0 -12 6 -15 4 -17 -10 -12 -10 4 -19 1 -22 -8 -4 -8 -10 -13
-14 -10 -4 3 -13 -2 -20 -10 -7 -8 -16 -12 -21 -9 -5 3 -9 0 -9 -6 0 -6 -4 -9
-9 -6 -5 3 -11 -1 -15 -9 -3 -9 -12 -12 -23 -8 -10 3 -15 3 -11 -2 10 -10 -21
-34 -44 -35 -10 0 -18 -5 -18 -11 0 -5 -4 -7 -10 -4 -5 3 -10 -2 -10 -12 0
-14 -2 -15 -9 -5 -7 11 -9 10 -15 -3 -3 -9 -10 -14 -15 -10 -6 3 -14 -3 -20
-12 -5 -10 -13 -17 -18 -17 -13 2 -37 -9 -45 -20 -4 -6 -12 -12 -18 -12 -5 -1
-15 -2 -21 -3 -5 0 -8 -5 -4 -10 3 -6 -4 -8 -15 -6 -11 2 -18 0 -15 -6 4 -5
-1 -9 -9 -9 -9 0 -16 -5 -16 -11 0 -5 -4 -7 -10 -4 -5 3 -10 -1 -10 -9 0 -9
-5 -16 -11 -16 -5 0 -7 6 -3 13 6 9 5 9 -8 0 -8 -7 -19 -9 -23 -5 -5 4 -5 1
-1 -6 5 -8 -2 -16 -18 -22 -14 -5 -26 -15 -26 -21 0 -8 -6 -7 -17 2 -11 10
-14 10 -9 2 4 -7 3 -13 -3 -13 -6 0 -20 -10 -32 -22 -12 -13 -18 -16 -14 -8 8
13 7 13 -8 1 -9 -7 -17 -10 -17 -5 0 5 -7 -2 -16 -14 -8 -12 -24 -22 -35 -22
-10 0 -19 -5 -19 -11 0 -5 -4 -7 -10 -4 -5 3 -10 1 -10 -4 0 -6 -7 -11 -16
-11 -9 0 -12 -5 -8 -12 5 -8 2 -8 -10 1 -15 12 -17 12 -14 0 2 -9 -5 -14 -19
-13 -19 0 -21 -2 -10 -15 9 -11 9 -13 0 -8 -7 5 -21 -2 -34 -17 -12 -14 -26
-23 -31 -20 -5 3 -16 0 -25 -8 -14 -11 -16 -11 -8 2 8 13 6 13 -8 1 -9 -7 -15
-17 -12 -21 3 -5 -5 -6 -17 -2 -14 3 -19 2 -14 -6 4 -7 1 -12 -8 -12 -9 0 -16
-4 -16 -9 0 -6 -9 -8 -19 -6 -14 3 -18 -1 -14 -11 3 -9 -2 -14 -16 -14 -12 0
-24 -7 -27 -15 -4 -8 -10 -15 -16 -15 -5 0 -6 6 -3 13 4 6 -2 3 -12 -9 -10
-11 -24 -19 -31 -16 -6 2 -12 -1 -12 -7 0 -6 -7 -11 -15 -11 -8 0 -15 -4 -15
-9 0 -5 -12 -14 -27 -20 -54 -23 -113 -58 -106 -64 3 -4 -3 -7 -15 -7 -11 0
-25 -7 -30 -17 -6 -10 -16 -14 -26 -10 -11 5 -15 3 -10 -5 5 -8 2 -9 -9 -5 -9
3 -16 2 -14 -2 1 -5 -2 -9 -7 -9 -5 0 -13 -7 -18 -16 -5 -9 -14 -16 -19 -16
-6 0 -7 5 -3 12 4 7 3 8 -4 4 -7 -4 -12 -15 -12 -24 0 -13 -2 -14 -9 -4 -6 11
-10 10 -15 -4 -3 -9 -9 -14 -12 -11 -4 3 -16 -3 -27 -14 -12 -11 -27 -17 -34
-15 -7 3 -13 -2 -13 -10 0 -10 -6 -14 -14 -11 -8 3 -17 -1 -20 -9 -3 -8 -13
-14 -21 -14 -10 0 -13 -5 -9 -12 4 -7 3 -8 -5 -4 -6 4 -18 0 -27 -8 -9 -9 -20
-14 -25 -11 -5 4 -9 1 -9 -5 0 -7 -7 -10 -14 -7 -11 4 -13 1 -9 -10 4 -10 2
-14 -4 -10 -12 8 -73 -20 -73 -34 0 -5 -11 -11 -25 -15 -14 -3 -25 -10 -25
-15 0 -5 -9 -9 -21 -9 -14 0 -19 -5 -16 -14 4 -10 0 -12 -14 -9 -10 3 -19 1
-19 -3 0 -5 -9 -15 -21 -22 -17 -11 -20 -11 -14 0 3 7 0 5 -8 -4 -8 -10 -17
-15 -20 -11 -4 3 -7 0 -7 -7 0 -7 -3 -10 -7 -7 -3 4 -12 -2 -20 -12 -8 -12
-22 -18 -33 -16 -13 2 -20 -2 -20 -11 0 -8 -4 -13 -9 -12 -5 2 -17 -6 -26 -17
l-17 -20 6 20 c6 19 6 19 -12 -1 -9 -11 -22 -19 -28 -17 -5 2 -20 -6 -31 -17
-28 -25 -97 -64 -87 -49 4 8 3 9 -4 5 -7 -4 -12 -14 -12 -21 0 -9 -6 -12 -15
-9 -8 4 -15 1 -15 -6 0 -6 -4 -9 -9 -5 -6 3 -14 -2 -19 -10 -4 -9 -18 -17 -29
-18 -12 0 -21 -6 -20 -12 1 -5 -6 -9 -15 -9 -10 1 -15 -3 -11 -9 4 -6 0 -8
-10 -4 -9 3 -18 0 -21 -9 -3 -8 -12 -14 -21 -14 -8 0 -15 -5 -15 -11 0 -5 -4
-8 -9 -4 -6 3 -13 0 -18 -7 -4 -7 -21 -19 -38 -27 -16 -7 -40 -18 -52 -24 -12
-5 -20 -14 -17 -19 3 -5 -2 -8 -12 -6 -12 2 -18 -2 -16 -10 1 -7 -3 -12 -10
-11 -22 2 -58 -13 -52 -22 3 -5 -3 -9 -13 -9 -22 -1 -55 -24 -46 -33 3 -4 -4
-5 -16 -2 -11 2 -21 0 -21 -6 0 -5 -7 -9 -16 -9 -9 0 -12 -5 -8 -12 5 -8 2 -9
-9 -5 -10 3 -17 2 -17 -3 0 -6 -7 -10 -16 -10 -8 0 -12 -4 -9 -10 3 -5 0 -7
-8 -4 -8 3 -17 -2 -21 -11 -3 -9 -10 -14 -15 -11 -4 3 -19 -3 -31 -14 -22 -19
-35 -24 -52 -21 -5 0 -8 -4 -8 -11 0 -6 -3 -9 -6 -5 -4 3 -15 -4 -26 -16 -11
-12 -16 -16 -12 -8 5 9 -2 8 -19 -5 -15 -10 -27 -26 -27 -34 0 -13 -1 -13 -10
0 -8 13 -10 13 -10 -2 0 -9 6 -19 13 -21 9 -4 9 -6 0 -6 -7 -1 -13 -8 -13 -17
0 -9 5 -12 13 -8 9 6 9 4 -1 -8 -10 -13 -10 -17 0 -21 10 -4 10 -6 1 -6 -7 -1
-13 -8 -13 -17 0 -9 5 -12 12 -8 9 5 9 2 -1 -9 -10 -13 -11 -20 -2 -31 8 -10
9 -16 1 -21 -5 -3 -10 -18 -10 -33 0 -21 2 -24 10 -12 7 12 9 10 7 -7 0 -12
-5 -19 -9 -17 -12 8 -10 -20 3 -33 8 -8 8 -13 0 -17 -15 -10 -14 -29 2 -20 10
6 10 4 0 -7 -7 -7 -13 -22 -13 -34 0 -16 2 -17 10 -5 6 9 10 10 10 3 0 -6 -5
-15 -10 -18 -5 -3 -10 -18 -10 -33 0 -21 2 -24 10 -12 7 12 9 10 7 -7 0 -12
-5 -19 -9 -17 -12 8 -10 -20 3 -33 8 -8 8 -13 0 -17 -6 -4 -11 -19 -11 -34 0
-21 2 -24 10 -12 7 12 9 10 7 -7 0 -12 -5 -19 -9 -17 -12 8 -10 -20 3 -33 8
-8 8 -13 0 -17 -15 -10 -14 -29 2 -20 9 6 9 4 -1 -7 -6 -7 -12 -22 -12 -34 0
-16 2 -17 10 -5 6 9 10 10 10 3 0 -6 -4 -15 -10 -18 -5 -3 -10 -18 -10 -33 0
-21 2 -24 10 -12 7 12 9 10 7 -7 0 -12 -5 -19 -9 -17 -12 8 -10 -20 3 -33 8
-8 8 -13 0 -17 -6 -4 -11 -19 -11 -34 0 -21 2 -24 10 -12 7 12 9 10 7 -7 0
-12 -5 -19 -9 -17 -12 8 -10 -20 3 -33 8 -8 8 -13 0 -17 -15 -10 -14 -29 2
-20 10 6 10 4 0 -7 -7 -7 -13 -22 -13 -34 0 -16 2 -17 10 -5 6 9 10 10 10 3 0
-6 -5 -15 -10 -18 -6 -3 -10 -18 -10 -33 0 -21 2 -24 10 -12 7 12 9 10 7 -7 0
-12 -5 -19 -9 -17 -12 8 -10 -20 3 -33 8 -8 8 -13 0 -17 -6 -4 -11 -19 -11
-34 0 -21 2 -24 10 -12 7 12 9 10 7 -7 0 -12 -5 -19 -9 -17 -10 6 -11 -20 -1
-30 11 -10 12 -37 2 -30 -5 3 -9 1 -9 -5 0 -5 6 -12 13 -14 10 -4 10 -6 0 -6
-7 -1 -13 -8 -13 -17 0 -9 5 -12 12 -8 9 5 9 2 -1 -9 -10 -13 -11 -20 -2 -31
8 -10 9 -16 1 -21 -5 -3 -10 -15 -10 -26 0 -14 4 -18 13 -13 9 6 9 4 -1 -8
-10 -13 -10 -17 0 -21 10 -4 10 -6 1 -6 -7 -1 -13 -8 -13 -17 0 -9 5 -12 12
-8 9 5 9 2 -1 -9 -10 -13 -11 -20 -2 -31 8 -10 9 -16 1 -21 -15 -9 -13 -95 3
-95 8 0 9 -2 1 -8 -16 -10 -16 -124 0 -115 6 3 6 0 -2 -8 -6 -7 -12 -22 -12
-34 0 -16 2 -17 10 -5 6 9 10 10 10 3 0 -6 -4 -15 -10 -18 -5 -3 -10 -18 -10
-33 0 -21 2 -24 10 -12 7 12 9 10 7 -7 0 -12 -5 -19 -9 -17 -12 8 -10 -20 3
-33 8 -8 8 -13 0 -17 -6 -4 -11 -19 -11 -34 0 -21 2 -24 10 -12 7 12 9 10 7
-7 0 -12 -5 -19 -9 -17 -10 6 -11 -20 -1 -30 11 -10 12 -37 2 -30 -5 3 -9 -6
-9 -20 0 -14 6 -26 13 -26 9 0 9 -2 0 -8 -14 -9 -14 -114 1 -124 8 -5 7 -8 -1
-8 -7 0 -13 -7 -13 -16 0 -9 5 -12 12 -8 9 5 9 2 -1 -9 -10 -13 -11 -20 -2
-31 8 -10 9 -16 1 -21 -5 -3 -10 -15 -10 -26 0 -14 4 -18 13 -13 9 6 9 4 -1
-8 -10 -13 -10 -17 0 -21 10 -4 10 -6 1 -6 -7 -1 -13 -8 -13 -17 0 -9 5 -12
13 -8 8 5 8 2 -2 -9 -10 -13 -11 -20 -2 -31 8 -10 9 -16 1 -21 -15 -9 -13 -95
3 -95 8 0 9 -2 1 -8 -16 -10 -16 -124 0 -115 6 3 6 0 -1 -8 -7 -7 -13 -22 -13
-33 0 -17 2 -18 10 -6 6 9 10 10 10 3 0 -6 -5 -15 -10 -18 -5 -3 -10 -18 -10
-33 0 -21 2 -24 10 -12 7 12 9 10 7 -7 0 -12 -5 -19 -9 -17 -12 8 -10 -20 3
-33 8 -8 8 -13 0 -17 -6 -4 -11 -19 -11 -34 0 -21 2 -24 10 -12 7 12 9 10 7
-7 0 -12 -5 -19 -9 -17 -10 6 -11 -20 -1 -30 11 -10 12 -37 2 -30 -5 3 -9 -6
-9 -20 0 -14 6 -26 13 -26 9 0 9 -2 0 -8 -14 -9 -14 -114 1 -124 8 -5 7 -8 -1
-8 -7 0 -13 -7 -13 -16 0 -9 5 -12 13 -8 8 5 8 2 -2 -9 -10 -13 -11 -20 -2
-31 8 -10 9 -16 1 -21 -5 -3 -10 -15 -10 -26 0 -14 4 -18 13 -13 9 6 9 4 -1
-8 -10 -13 -10 -17 0 -21 10 -4 10 -6 1 -6 -7 -1 -13 -8 -13 -17 0 -9 5 -12
13 -8 8 5 8 2 -2 -9 -10 -13 -11 -20 -2 -31 8 -10 9 -16 1 -21 -15 -9 -13 -95
3 -95 8 0 9 -2 1 -8 -16 -10 -16 -124 0 -115 6 3 6 0 -1 -8 -7 -7 -13 -22 -13
-33 0 -17 2 -18 10 -6 6 9 10 10 10 3 0 -6 -5 -15 -10 -18 -6 -3 -10 -18 -10
-33 0 -21 2 -24 10 -12 7 12 9 10 7 -7 0 -12 -5 -19 -9 -17 -12 8 -10 -20 3
-33 8 -8 8 -13 0 -17 -6 -4 -11 -19 -11 -34 0 -21 2 -24 10 -12 7 12 9 10 7
-7 0 -12 -5 -19 -9 -17 -10 6 -11 -20 -1 -30 11 -10 12 -37 2 -30 -5 3 -9 -6
-9 -20 0 -14 6 -26 13 -26 9 0 9 -2 0 -8 -14 -9 -14 -114 1 -124 8 -5 7 -8 -1
-8 -7 0 -13 -7 -13 -16 0 -9 5 -12 12 -8 9 5 9 2 -1 -9 -10 -13 -11 -20 -2
-31 8 -10 9 -16 1 -21 -5 -3 -10 -15 -10 -26 0 -14 4 -18 13 -13 9 6 9 4 -1
-8 -10 -13 -10 -17 0 -21 10 -4 10 -6 1 -6 -7 -1 -13 -8 -13 -17 0 -9 5 -12
12 -8 9 5 9 2 -1 -9 -10 -13 -11 -20 -2 -31 8 -10 9 -16 1 -21 -15 -9 -13 -95
3 -95 8 0 9 -2 1 -8 -16 -10 -16 -124 0 -115 6 3 6 0 -1 -8 -7 -7 -13 -22 -13
-33 0 -17 2 -18 10 -6 6 9 10 10 10 3 0 -6 -5 -15 -10 -18 -6 -3 -10 -18 -10
-33 0 -21 2 -24 10 -12 7 12 9 10 7 -7 0 -12 -5 -19 -9 -17 -12 8 -10 -20 3
-33 8 -8 8 -13 0 -17 -6 -4 -11 -19 -11 -34 0 -21 2 -24 10 -12 7 12 9 10 7
-7 0 -12 -5 -19 -9 -17 -10 6 -11 -20 -1 -30 11 -10 12 -37 2 -30 -5 3 -9 -6
-9 -20 0 -14 6 -26 13 -26 9 0 9 -2 0 -8 -14 -9 -14 -114 1 -124 8 -5 7 -8 -1
-8 -7 0 -13 -7 -13 -16 0 -9 5 -12 13 -8 8 5 8 2 -2 -9 -10 -13 -11 -20 -2
-31 8 -10 9 -16 1 -21 -5 -3 -10 -15 -10 -26 0 -14 4 -18 12 -13 10 6 10 4 0
-8 -10 -13 -10 -17 0 -21 10 -4 10 -6 1 -6 -7 -1 -13 -8 -13 -17 0 -9 5 -12
12 -8 9 5 9 2 -1 -9 -10 -13 -11 -20 -2 -31 8 -10 9 -16 1 -21 -15 -9 -13 -95
3 -95 8 0 9 -2 1 -8 -16 -10 -16 -124 0 -115 6 3 6 0 -1 -8 -7 -7 -13 -22 -13
-34 0 -16 2 -17 10 -5 6 9 10 10 10 3 0 -6 -5 -15 -10 -18 -6 -3 -10 -18 -10
-33 0 -21 2 -24 10 -12 7 12 9 10 7 -7 0 -12 -5 -19 -9 -17 -12 8 -10 -20 3
-33 8 -8 8 -13 0 -17 -6 -4 -11 -19 -11 -34 0 -21 2 -24 10 -12 7 12 9 10 7
-7 0 -12 -5 -19 -9 -17 -10 6 -11 -20 -1 -30 11 -10 12 -37 2 -30 -5 3 -9 -6
-9 -20 0 -14 6 -26 13 -26 9 0 9 -2 0 -8 -14 -9 -14 -114 1 -124 8 -5 7 -8 -1
-8 -7 0 -13 -7 -13 -16 0 -9 5 -12 13 -8 8 5 8 2 -2 -9 -10 -13 -11 -20 -2
-31 8 -10 9 -16 1 -21 -5 -3 -10 -15 -10 -26 0 -14 4 -18 12 -13 10 6 10 4 0
-8 -10 -13 -10 -17 0 -21 10 -4 10 -6 1 -6 -7 -1 -13 -8 -13 -17 0 -9 5 -12
13 -8 8 5 8 2 -2 -9 -10 -13 -11 -20 -2 -31 8 -10 9 -16 1 -21 -15 -9 -13 -68
2 -59 11 6 11 4 1 -7 -7 -7 -13 -22 -13 -34 0 -16 2 -17 10 -5 6 9 10 10 10 3
0 -6 -4 -15 -10 -18 -5 -3 -10 -18 -10 -33 0 -21 2 -24 10 -12 7 12 9 10 7 -7
0 -12 -5 -19 -9 -17 -12 8 -10 -20 3 -33 8 -8 8 -13 0 -17 -6 -4 -11 -19 -11
-34 0 -21 2 -24 10 -12 7 12 9 10 7 -7 0 -12 -5 -19 -9 -17 -12 8 -10 -20 3
-33 8 -8 8 -13 0 -17 -15 -10 -14 -29 2 -20 10 6 10 4 0 -7 -7 -7 -13 -22 -13
-33 0 -17 2 -18 10 -6 6 9 10 10 10 3 0 -6 -5 -15 -10 -18 -6 -3 -10 -18 -10
-33 0 -21 2 -24 10 -12 7 12 9 10 7 -7 0 -12 -5 -19 -9 -17 -12 8 -10 -20 3
-33 8 -8 8 -13 0 -17 -6 -4 -11 -19 -11 -34 0 -21 2 -24 10 -12 7 12 9 10 7
-7 0 -12 -5 -19 -9 -17 -12 8 -10 -20 3 -33 8 -8 8 -13 0 -17 -15 -10 -14 -29
2 -20 10 6 10 4 0 -7 -7 -7 -13 -22 -13 -33 0 -17 2 -18 10 -6 6 9 10 10 10 3
0 -6 -5 -15 -10 -18 -6 -3 -10 -18 -10 -33 0 -21 2 -24 10 -12 7 12 9 10 7 -7
0 -12 -5 -19 -9 -17 -12 8 -10 -20 3 -33 8 -8 8 -13 0 -17 -6 -4 -11 -19 -11
-34 0 -21 2 -24 10 -12 7 12 9 10 7 -7 0 -12 -5 -19 -9 -17 -12 8 -10 -20 3
-33 8 -8 8 -13 0 -17 -15 -10 -14 -29 1 -20 11 6 11 4 1 -7 -7 -7 -13 -22 -13
-34 0 -16 2 -17 10 -5 6 9 10 10 10 3 0 -6 -5 -15 -10 -18 -6 -3 -10 -18 -10
-33 0 -21 2 -24 10 -12 7 12 9 10 7 -7 0 -12 -5 -19 -9 -17 -12 8 -10 -20 3
-33 8 -8 8 -13 0 -17 -6 -4 -11 -19 -11 -34 0 -21 2 -24 10 -12 7 12 9 10 7
-7 0 -12 -5 -19 -9 -17 -12 8 -10 -20 3 -33 8 -8 8 -13 0 -17 -15 -10 -14 -29
1 -20 11 6 11 4 1 -7 -7 -7 -13 -22 -13 -33 0 -17 2 -18 10 -6 6 9 10 10 10 3
0 -6 -5 -15 -10 -18 -5 -3 -10 -18 -10 -33 0 -21 2 -24 10 -12 7 12 9 10 7 -7
0 -12 -5 -19 -9 -17 -12 8 -10 -20 3 -33 8 -8 8 -13 0 -17 -6 -4 -11 -19 -11
-34 0 -21 2 -24 10 -12 7 12 9 10 7 -7 0 -12 -5 -19 -9 -17 -12 8 -10 -20 3
-33 8 -8 8 -13 0 -17 -15 -10 -14 -29 1 -20 11 6 11 4 1 -7 -7 -7 -13 -22 -13
-33 0 -17 2 -18 10 -6 6 9 10 10 10 3 0 -6 -5 -15 -10 -18 -6 -3 -10 -18 -10
-33 0 -21 2 -24 10 -12 7 12 9 10 7 -7 0 -12 -5 -19 -9 -17 -12 8 -10 -20 3
-33 8 -8 8 -13 0 -17 -6 -4 -11 -19 -11 -34 0 -21 2 -24 10 -12 7 12 9 10 7
-7 0 -12 -5 -19 -9 -17 -12 8 -10 -20 3 -33 8 -8 8 -13 0 -17 -15 -10 -14 -29
1 -20 11 6 11 4 1 -7 -7 -7 -13 -22 -13 -34 0 -16 2 -17 10 -5 6 9 10 10 10 3
0 -6 -5 -15 -10 -18 -6 -3 -10 -18 -10 -33 0 -21 2 -24 10 -12 7 12 9 10 7 -7
0 -12 -5 -19 -9 -17 -12 8 -10 -20 3 -33 8 -8 8 -13 0 -17 -6 -4 -11 -19 -11
-34 0 -21 2 -24 10 -12 7 12 9 10 7 -7 0 -12 -5 -19 -9 -17 -12 8 -10 -20 3
-33 8 -8 8 -13 0 -17 -15 -10 -14 -29 2 -20 9 6 9 4 -1 -7 -6 -7 -12 -22 -12
-34 0 -16 2 -17 10 -5 6 9 10 10 10 3 0 -6 -5 -15 -10 -18 -5 -3 -10 -18 -10
-33 0 -21 2 -24 10 -12 7 12 9 10 7 -7 0 -12 -5 -19 -9 -17 -12 8 -10 -20 3
-33 8 -8 8 -13 0 -17 -6 -4 -11 -19 -11 -34 0 -21 2 -24 10 -12 7 12 9 10 7
-7 0 -12 -5 -19 -9 -17 -10 6 -11 -20 -1 -30 11 -10 12 -37 2 -30 -5 3 -9 -6
-9 -20 0 -14 5 -26 10 -26 6 0 10 -5 10 -11 0 -5 -5 -7 -10 -4 -6 4 -10 -8
-10 -29 0 -20 5 -36 10 -36 6 0 10 -5 10 -11 0 -5 -5 -7 -10 -4 -18 11 -11
-47 8 -62 10 -9 11 -12 2 -7 -9 4 -12 3 -7 -2 9 -9 13 -10 43 -13 8 0 12 -5 9
-11 -3 -6 1 -7 9 -4 10 4 18 -1 22 -11 4 -9 13 -14 20 -11 7 3 16 0 20 -6 5
-7 2 -8 -6 -3 -8 5 -11 4 -6 -3 4 -6 13 -9 21 -5 8 3 15 -1 15 -8 0 -7 3 -10
6 -6 4 3 15 -4 25 -16 12 -15 18 -17 19 -8 0 10 6 7 19 -7 10 -12 21 -19 25
-15 3 3 6 2 6 -4 0 -14 49 -35 62 -27 6 4 9 3 6 -2 -6 -8 15 -35 27 -34 21 1
25 -1 20 -10 -3 -5 0 -7 8 -4 8 3 20 -2 27 -10 7 -9 16 -13 21 -10 5 3 9 -2 9
-11 0 -9 5 -13 11 -10 6 4 17 -1 25 -11 9 -11 13 -13 9 -4 -4 9 0 7 9 -4 8
-10 19 -15 24 -12 6 3 13 -1 16 -10 3 -9 13 -14 21 -11 8 4 16 -2 20 -14 5
-14 10 -17 19 -10 8 7 21 1 44 -20 18 -17 32 -27 32 -23 0 4 7 -1 16 -12 8
-10 12 -12 8 -4 -4 8 4 5 18 -8 13 -12 31 -22 40 -22 17 0 41 -24 33 -32 -3
-2 1 -5 8 -5 25 -1 42 -9 59 -28 9 -11 17 -17 18 -12 0 11 60 -22 60 -33 0 -5
7 -7 15 -4 8 4 15 1 15 -6 0 -6 5 -8 10 -5 6 3 10 -1 10 -10 0 -11 5 -15 15
-11 8 3 15 2 15 -2 0 -4 19 -16 41 -27 71 -34 79 -39 79 -54 0 -11 3 -11 17 0
11 10 14 10 9 2 -4 -8 -1 -13 8 -13 9 0 16 -4 16 -10 0 -5 9 -10 21 -10 11 0
17 -5 14 -10 -3 -6 1 -10 10 -10 9 0 23 -7 32 -16 9 -8 22 -13 30 -10 8 3 11
1 8 -4 -3 -6 1 -10 9 -10 9 0 16 -7 16 -15 0 -8 6 -12 13 -9 7 2 22 -4 34 -15
11 -11 24 -17 27 -14 3 4 6 1 6 -6 0 -7 6 -11 13 -8 8 3 20 -3 28 -14 7 -10
21 -19 30 -19 10 0 19 -5 21 -10 2 -6 13 -12 25 -13 12 0 20 -3 18 -5 -8 -8
20 -29 32 -25 7 3 13 0 13 -7 0 -6 4 -8 10 -5 5 3 10 1 10 -4 0 -6 7 -11 16
-11 9 0 12 -5 8 -12 -4 -6 -3 -8 4 -4 6 3 17 0 25 -8 8 -8 17 -12 21 -9 3 4 6
1 6 -6 0 -7 5 -9 10 -6 6 3 10 1 10 -4 0 -6 7 -11 16 -11 9 0 12 -5 8 -12 -5
-8 -2 -9 9 -5 10 4 28 -4 46 -18 16 -14 36 -25 45 -25 9 0 16 -4 16 -10 0 -5
7 -10 15 -10 8 0 15 -4 15 -10 0 -5 9 -10 21 -10 11 0 17 -4 14 -10 -3 -5 3
-10 14 -10 12 0 21 -6 21 -12 0 -9 4 -8 10 2 8 13 10 12 10 -3 0 -10 5 -15 10
-12 6 3 10 1 10 -4 0 -6 7 -11 16 -11 8 0 12 -5 9 -10 -4 -6 -3 -10 2 -9 22 4
43 -2 38 -11 -4 -6 5 -10 20 -10 15 0 24 -4 20 -10 -5 -9 -1 -11 20 -10 3 1
13 -6 21 -15 9 -8 20 -13 25 -10 5 4 9 1 9 -5 0 -6 5 -8 10 -5 6 4 9 2 8 -3
-2 -6 1 -10 6 -10 5 0 13 -7 18 -16 5 -9 18 -16 28 -16 11 0 20 -5 20 -11 0
-6 6 -9 13 -6 8 3 20 -3 27 -13 7 -10 19 -16 26 -13 8 3 17 -2 20 -11 3 -9 10
-13 15 -10 5 3 9 0 9 -5 0 -6 7 -11 15 -11 8 0 15 -5 15 -11 0 -5 4 -8 9 -4 5
3 16 -2 24 -10 9 -8 20 -15 26 -15 6 0 11 -5 11 -11 0 -5 4 -8 9 -5 5 3 11 -1
15 -9 3 -8 15 -15 26 -15 11 0 20 -5 20 -11 0 -6 5 -9 12 -7 7 3 21 -5 33 -17
11 -12 26 -20 33 -18 6 3 12 0 12 -5 0 -6 16 -16 35 -22 19 -6 33 -15 30 -20
-3 -5 -1 -11 5 -15 5 -3 10 0 10 7 1 8 6 6 15 -6 8 -11 15 -16 15 -12 0 4 7 0
16 -8 8 -9 20 -14 25 -11 5 4 9 -1 9 -9 0 -10 6 -13 15 -10 8 4 15 1 15 -5 0
-6 9 -11 21 -11 11 0 17 -4 14 -10 -3 -5 3 -10 14 -10 12 0 21 -4 21 -9 0 -10
39 -27 52 -23 5 1 7 -4 5 -11 -1 -6 4 -11 11 -10 6 2 12 -3 12 -10 0 -8 4 -7
10 3 8 13 10 12 10 -2 0 -16 11 -23 33 -19 4 0 7 -4 7 -10 0 -5 5 -7 10 -4 6
3 10 1 10 -5 0 -6 19 -20 43 -30 23 -11 46 -23 51 -27 4 -4 13 -8 19 -8 7 -1
11 -7 9 -14 -1 -7 2 -10 8 -6 5 3 10 0 10 -7 0 -10 2 -10 8 -1 6 9 12 7 22 -7
8 -11 22 -20 32 -20 10 0 18 -7 18 -15 0 -14 11 -19 38 -16 6 1 12 -3 12 -9 0
-6 4 -9 9 -6 5 3 12 -1 15 -10 4 -9 13 -14 21 -10 8 3 15 1 15 -4 0 -6 7 -10
15 -10 8 0 15 -5 15 -11 0 -5 5 -7 12 -3 8 5 9 2 5 -10 -4 -9 -3 -14 2 -11 11
6 81 -25 81 -37 0 -4 7 -8 15 -8 8 0 15 -6 15 -12 0 -9 4 -8 10 2 5 8 10 10
10 4 0 -5 14 -21 31 -33 18 -13 29 -17 25 -10 -4 8 0 5 8 -5 9 -11 16 -16 16
-12 0 4 7 0 16 -8 8 -9 19 -14 24 -11 4 3 11 -2 14 -11 4 -9 13 -14 22 -10 8
3 12 2 9 -4 -3 -6 0 -10 8 -10 8 0 20 -7 27 -15 7 -8 16 -12 21 -9 5 3 9 0 9
-5 0 -6 7 -11 16 -11 9 0 12 -5 8 -12 -4 -6 -3 -8 4 -4 6 3 17 -1 25 -9 12
-11 17 -12 20 -2 3 6 6 3 6 -7 1 -11 4 -16 8 -13 3 4 15 -1 26 -10 10 -10 22
-18 26 -18 3 0 5 -4 3 -8 -1 -5 2 -6 7 -3 5 4 13 1 16 -5 4 -5 13 -8 21 -5 8
3 14 -1 14 -10 0 -8 4 -12 10 -9 6 3 10 1 10 -5 0 -6 5 -8 10 -5 6 3 10 1 10
-5 0 -6 5 -8 12 -4 8 5 9 2 4 -11 -5 -15 -4 -16 9 -5 10 8 15 9 15 1 0 -6 7
-11 15 -11 9 0 18 -6 21 -14 3 -9 12 -12 21 -9 11 4 14 2 9 -5 -4 -7 -1 -12 9
-12 19 0 55 -20 76 -42 18 -20 34 -24 23 -6 -4 7 -3 8 4 4 7 -4 12 -13 12 -20
0 -8 10 -12 24 -11 19 3 23 -1 18 -13 -5 -15 -4 -15 14 -2 10 8 16 10 11 5
-12 -14 22 -43 45 -37 14 3 19 1 14 -6 -4 -7 4 -17 21 -24 15 -7 31 -17 35
-23 5 -6 8 -4 8 5 1 9 6 5 15 -10 8 -14 14 -19 15 -11 0 8 8 4 21 -10 11 -13
18 -17 14 -9 -4 10 -2 9 8 -2 8 -10 17 -15 20 -11 4 3 7 1 7 -5 0 -7 7 -12 15
-12 8 0 15 -4 15 -10 0 -5 9 -10 20 -10 11 0 20 -4 20 -10 0 -5 7 -10 15 -10
8 0 15 -5 15 -11 0 -5 4 -7 10 -4 5 3 10 2 10 -4 0 -6 7 -7 17 -4 10 4 14 2
10 -4 -4 -6 10 -18 33 -27 22 -9 40 -18 40 -22 0 -3 -5 -2 -12 2 -7 4 -8 3 -4
-5 4 -6 11 -9 16 -6 12 7 60 -16 54 -26 -3 -5 4 -9 15 -9 12 0 21 -5 21 -11 0
-5 4 -8 9 -4 6 3 14 -2 19 -11 5 -9 12 -15 15 -15 19 3 28 0 23 -7 -2 -4 5 -9
17 -9 12 -1 23 -7 25 -13 2 -5 10 -10 17 -10 7 0 16 -7 19 -16 4 -9 13 -14 21
-10 9 3 18 -1 22 -10 5 -13 7 -13 14 -2 7 10 9 9 9 -4 0 -10 6 -18 14 -18 7 0
19 -7 26 -15 7 -8 17 -12 22 -9 5 3 18 -3 29 -15 11 -12 26 -21 34 -21 8 0 15
-3 15 -8 0 -4 14 -13 30 -20 18 -9 27 -18 23 -25 -4 -7 2 -5 12 3 11 9 16 10
11 3 -4 -8 -1 -13 8 -13 9 0 16 -5 16 -11 0 -5 4 -8 9 -5 5 3 11 -1 15 -9 3
-8 14 -15 25 -15 10 0 29 -11 42 -24 13 -13 29 -22 36 -19 7 3 13 0 13 -6 0
-6 6 -10 13 -8 6 1 11 -4 9 -11 -1 -8 2 -11 8 -7 5 3 10 2 10 -4 0 -5 9 -8 20
-6 11 2 18 0 15 -6 -4 -5 1 -9 9 -9 9 0 16 -5 16 -11 0 -5 5 -7 10 -4 6 3 10
1 10 -5 0 -7 6 -10 13 -7 7 3 19 -4 25 -14 7 -10 23 -19 37 -19 17 0 25 -6 25
-17 0 -15 2 -16 10 -3 8 13 10 13 10 -2 0 -9 5 -20 12 -24 7 -5 9 -2 4 7 -4 8
-1 6 7 -3 8 -10 17 -15 21 -11 3 4 13 -2 22 -13 8 -10 13 -12 9 -4 -4 8 3 4
14 -9 12 -13 21 -18 21 -12 0 8 4 8 14 -1 8 -7 11 -17 8 -22 -3 -5 0 -6 6 -2
6 3 13 2 17 -4 4 -6 11 -8 16 -5 5 4 9 1 9 -5 0 -6 5 -8 10 -5 6 3 10 -1 10
-9 0 -10 6 -13 17 -9 12 5 14 3 8 -7 -6 -10 -4 -12 8 -7 10 3 17 2 17 -3 0 -6
5 -10 11 -10 7 0 18 -8 26 -17 8 -10 12 -12 8 -6 -4 9 -1 11 9 7 9 -3 16 -14
17 -23 0 -9 3 -11 5 -4 4 8 12 5 25 -8 11 -11 24 -17 29 -14 6 4 10 1 10 -4 0
-6 7 -11 15 -11 8 0 15 -6 15 -12 0 -10 2 -10 8 0 6 9 12 6 22 -12 7 -14 16
-23 21 -21 4 3 13 -1 21 -8 15 -15 49 -31 61 -29 4 1 7 -3 7 -8 0 -6 7 -10 15
-10 8 0 15 -5 15 -11 0 -5 4 -8 9 -4 6 3 19 -4 30 -16 11 -12 24 -18 29 -15 6
3 13 -1 16 -10 3 -8 10 -12 16 -9 5 3 10 -1 10 -11 0 -11 6 -15 20 -11 11 3
18 1 14 -4 -3 -5 2 -9 10 -9 9 0 16 -6 16 -12 0 -9 4 -8 10 2 8 13 10 12 10
-3 0 -10 5 -15 10 -12 6 3 10 1 10 -5 0 -6 4 -9 9 -5 5 3 12 1 16 -5 4 -6 11
-7 17 -4 6 4 9 3 6 -2 -8 -13 15 -31 36 -28 10 1 16 -2 13 -10 -3 -7 4 -13 16
-13 11 -1 23 -6 26 -11 3 -5 16 -12 29 -16 12 -4 19 -12 16 -18 -5 -7 -2 -8 6
-3 7 4 15 3 19 -3 3 -6 13 -12 21 -14 20 -4 39 -22 33 -31 -2 -4 -1 -6 4 -5
13 4 73 -23 73 -34 0 -5 5 -6 10 -3 6 3 13 -1 16 -10 5 -11 9 -13 14 -5 5 7
11 6 21 -6 12 -15 12 -17 0 -9 -9 5 -12 4 -7 -3 4 -6 13 -9 21 -5 8 3 15 0 15
-7 0 -6 5 -8 10 -5 6 3 13 -1 16 -9 3 -9 15 -16 25 -16 10 0 19 -4 19 -10 0
-5 7 -6 17 -3 11 4 14 3 9 -5 -4 -7 -1 -12 8 -12 9 0 16 -4 16 -10 0 -5 6 -9
13 -7 6 1 11 -4 9 -11 -1 -8 2 -11 7 -8 14 9 42 -5 34 -17 -4 -6 -1 -7 7 -2 8
5 18 1 26 -10 7 -10 20 -15 28 -12 9 4 18 1 22 -5 5 -7 2 -8 -6 -3 -9 5 -11 4
-6 -3 4 -7 16 -12 27 -12 10 0 19 -4 19 -10 0 -5 7 -10 15 -10 8 0 23 -9 32
-20 10 -11 26 -20 36 -20 9 0 20 -7 24 -16 5 -13 7 -13 14 -2 7 10 9 9 9 -4 0
-11 8 -18 20 -18 11 0 20 -5 20 -11 0 -5 5 -7 10 -4 6 3 10 -2 10 -12 0 -15 2
-16 10 -3 9 13 14 7 11 -12 0 -4 6 -5 14 -2 8 4 17 -1 21 -9 3 -9 12 -13 19
-11 7 3 23 -4 34 -15 12 -12 28 -21 36 -21 8 0 15 -4 15 -9 0 -5 14 -14 30
-21 17 -7 30 -17 30 -22 0 -5 4 -6 10 -3 6 3 10 1 10 -5 0 -6 4 -8 10 -5 5 3
10 1 10 -4 0 -6 7 -11 15 -11 9 0 18 -7 21 -15 4 -8 10 -12 15 -9 5 3 9 0 9
-6 0 -6 4 -9 9 -5 5 3 16 -2 24 -10 9 -8 23 -15 31 -15 9 0 16 -4 16 -9 0 -5
14 -14 31 -20 17 -6 28 -15 24 -21 -3 -5 0 -7 8 -4 8 3 23 -4 33 -14 13 -14
31 -20 56 -19 32 1 34 3 20 14 -9 7 -12 13 -7 12 23 -3 36 2 30 10 -3 6 4 8
15 6 11 -2 23 2 27 9 9 13 84 51 95 48 5 -1 7 1 5 6 -1 4 1 7 4 7 4 0 16 9 28
19 12 11 21 15 21 10 0 -5 5 -1 11 9 6 9 14 15 20 12 5 -4 12 1 15 10 4 9 12
14 20 11 7 -3 14 -1 16 4 2 5 9 10 17 12 8 2 23 11 33 21 10 10 24 15 30 11 7
-4 8 -3 4 4 -4 7 -1 12 8 12 9 0 16 5 16 11 0 5 5 7 10 4 6 -3 10 -2 10 4 0 6
7 8 15 5 8 -4 17 1 21 10 3 9 10 13 15 10 5 -3 9 -1 9 3 0 5 9 14 21 21 15 10
19 10 14 1 -5 -8 -4 -10 3 -5 7 4 12 15 12 24 0 15 2 15 10 2 8 -13 14 -8 12
11 -1 3 6 6 14 7 8 1 20 3 28 4 8 1 14 6 13 11 -1 6 9 13 23 17 14 4 24 13 22
20 -2 11 0 10 14 -1 15 -12 17 -12 9 0 -6 11 -4 13 8 8 11 -4 17 -1 17 8 0 7
5 17 12 21 7 5 8 3 3 -7 -7 -11 -6 -12 7 -2 8 7 18 9 22 5 4 -4 6 -2 4 3 -2 6
0 10 4 10 4 0 14 9 23 20 9 11 13 14 10 7 -6 -11 -3 -12 14 -3 11 7 21 17 21
23 0 6 3 8 7 5 3 -4 12 1 20 11 9 10 11 11 7 2 -7 -12 -5 -13 8 -3 8 7 19 9
23 5 5 -4 6 -2 3 3 -3 6 0 16 8 23 11 10 14 10 14 0 0 -8 5 -6 11 5 5 9 17 17
24 17 8 0 15 5 15 11 0 5 5 7 10 4 6 -3 10 -1 10 5 0 6 5 8 10 5 6 -3 10 -1
10 5 0 6 4 9 9 6 5 -3 12 1 15 9 3 8 11 14 18 13 7 -2 12 2 11 9 -2 7 4 10 13
6 8 -3 22 3 30 13 9 11 13 12 9 4 -4 -8 1 -6 9 4 9 11 16 16 16 10 0 -5 7 0
15 10 8 11 15 16 15 11 0 -5 7 0 16 11 8 10 12 13 9 6 -6 -11 -3 -11 14 0 12
7 21 16 21 21 0 4 5 5 10 2 6 -3 10 -1 10 4 0 6 9 11 21 11 14 0 19 5 16 14
-4 9 0 13 11 12 9 -2 25 6 36 16 11 10 25 17 31 15 5 -2 19 6 30 18 12 12 26
20 33 17 7 -2 12 1 12 6 0 11 39 28 54 24 5 -2 6 4 2 13 -3 9 -2 13 4 10 15
-9 51 5 44 17 -5 7 2 9 18 6 21 -4 24 -1 20 14 -3 14 0 17 12 12 9 -3 16 -1
16 6 0 6 5 8 10 5 6 -3 13 0 16 9 3 8 12 12 20 9 7 -3 17 2 20 11 3 9 10 13
15 10 5 -3 9 0 9 6 0 6 5 8 10 5 6 -3 13 1 16 9 3 9 12 16 19 16 8 0 20 7 29
15 8 9 18 16 21 15 21 -1 25 1 20 10 -3 6 1 11 9 11 32 3 37 4 44 14 11 15 53
37 60 31 3 -4 14 6 25 21 13 20 17 22 13 8 -6 -19 -5 -19 8 -2 7 9 19 17 25
17 7 0 9 5 5 12 -5 7 -3 8 5 4 7 -5 19 0 27 10 9 11 13 13 9 4 -5 -12 -4 -12
7 1 7 9 18 18 23 20 6 2 9 8 7 12 -1 5 2 6 8 2 5 -3 24 3 40 15 17 12 30 18
30 13 0 -4 5 0 11 9 6 11 16 15 26 11 12 -5 14 -3 8 7 -6 10 -4 12 8 7 11 -4
17 -1 17 9 0 8 4 13 9 10 4 -3 19 3 31 14 21 18 29 22 46 19 4 0 10 5 15 13 5
7 13 14 19 14 5 1 15 2 21 3 5 0 7 6 3 13 -5 8 0 9 15 5 13 -3 20 -3 17 0 -8
8 42 45 53 39 5 -3 12 1 15 10 3 8 10 13 15 10 5 -4 11 -1 13 4 2 6 13 12 25
13 12 0 20 3 18 6 -8 8 35 32 45 26 6 -4 9 -1 8 6 -2 7 4 14 12 14 8 0 14 7
12 15 -3 11 0 11 14 -1 12 -9 15 -9 10 -1 -4 7 -2 12 8 12 8 0 19 8 25 18 5 9
12 16 15 15 16 -7 26 -2 20 9 -5 8 0 7 11 -2 10 -8 16 -10 13 -5 -7 11 10 28
32 33 8 2 17 8 18 13 2 5 8 7 13 3 5 -3 9 0 9 5 0 6 7 11 15 11 8 0 15 5 15
12 0 6 3 9 6 5 4 -3 13 1 21 9 8 8 19 12 24 8 5 -3 12 2 15 10 3 9 14 16 24
16 10 0 25 10 34 23 9 12 14 15 10 7 -4 -8 5 -4 21 10 16 14 25 19 21 13 -4
-7 -2 -13 3 -13 6 0 11 8 11 17 0 9 3 13 7 10 3 -4 18 3 31 15 14 13 21 16 17
8 -6 -11 -3 -10 12 3 11 9 23 14 28 10 4 -5 5 -2 1 5 -4 7 -1 12 9 12 10 0 13
5 9 13 -5 7 -1 7 12 -3 10 -8 16 -11 12 -6 -9 11 38 49 51 42 5 -3 12 1 15 10
3 8 10 12 16 9 5 -3 10 -1 10 5 0 6 4 9 9 6 5 -3 12 1 15 10 3 9 12 14 20 11
7 -3 19 3 26 13 8 11 17 17 21 14 5 -3 18 5 29 16 11 11 25 18 29 15 5 -2 12
2 15 11 4 11 14 14 27 11 17 -5 18 -3 7 10 -11 14 -11 15 2 11 19 -7 52 10 45
22 -3 6 1 7 9 4 8 -3 24 4 35 15 12 12 21 16 21 11 0 -6 6 -5 14 2 8 7 11 18
8 23 -3 6 3 3 13 -5 11 -9 16 -10 11 -3 -4 8 -2 13 4 13 6 0 8 5 4 13 -6 9 -5
9 7 0 12 -10 17 -8 27 8 7 10 19 19 27 19 8 0 15 4 15 9 0 6 9 8 20 6 11 -2
19 1 17 8 -1 6 4 11 11 12 7 0 17 7 22 15 9 13 10 13 10 0 0 -13 2 -13 9 0 6
8 7 19 3 25 -3 5 2 4 11 -4 12 -9 17 -10 17 -2 0 7 4 10 9 7 5 -3 12 1 15 10
3 8 10 13 15 10 5 -3 12 1 15 10 3 8 10 12 16 9 5 -3 10 -1 10 5 0 6 4 9 8 6
5 -3 18 3 28 12 19 18 44 31 55 28 3 0 13 7 23 17 10 9 22 15 27 11 5 -3 12 2
15 10 3 9 12 16 19 16 7 0 15 5 17 11 3 9 22 15 51 18 5 1 5 5 2 11 -6 9 8 14
28 11 4 0 7 3 7 8 0 5 14 14 30 20 17 5 30 15 30 20 0 6 3 11 8 10 15 -2 52
14 52 23 0 5 5 6 10 3 6 -3 10 -1 10 4 0 6 7 11 15 11 8 0 15 4 15 10 0 5 11
12 25 16 14 3 25 9 25 13 0 4 14 15 31 25 23 13 30 15 25 5 -4 -8 -1 -6 7 3 8
10 17 15 20 11 4 -3 7 -1 7 5 0 7 6 11 13 9 6 -1 11 4 9 11 -1 7 3 12 10 11
20 -3 49 12 42 22 -3 5 -2 8 3 7 18 -5 53 14 46 25 -4 7 2 5 12 -3 17 -14 18
-13 12 2 -4 12 -2 15 9 11 7 -3 14 0 14 7 0 6 5 8 10 5 6 -3 10 -2 10 4 0 6 7
8 15 4 10 -3 15 0 13 8 -2 7 3 14 10 15 6 1 15 3 20 4 4 1 11 2 15 1 5 -1 6 3
2 9 -5 8 10 15 18 8 1 -2 9 3 17 10 51 43 65 52 77 48 7 -3 13 1 13 9 0 8 5
15 11 15 5 0 7 -5 3 -12 -4 -7 -3 -8 4 -4 7 4 12 13 12 20 0 7 7 13 15 14 8 1
22 3 30 4 8 1 12 5 10 9 -3 4 8 13 25 21 16 7 30 16 30 20 0 4 7 4 17 1 11 -4
14 -3 9 5 -4 7 -2 12 3 12 20 0 26 3 37 18 6 8 16 12 22 8 7 -4 12 -2 12 3 0
6 9 11 20 11 11 0 20 6 20 14 0 8 5 18 12 22 7 5 8 3 3 -7 -7 -11 -6 -12 7 -2
8 7 19 9 23 5 5 -4 4 -1 0 7 -6 11 -4 13 9 8 9 -4 14 -3 11 2 -3 5 4 12 15 16
11 3 20 12 20 18 0 7 4 6 10 -3 8 -13 10 -12 10 3 0 10 5 15 10 12 6 -3 10 -1
10 5 0 6 5 8 10 5 6 -3 10 -1 10 5 0 6 5 8 10 5 6 -3 13 1 16 9 3 9 10 14 14
11 5 -3 15 2 24 11 9 8 20 13 25 9 6 -3 15 4 21 15 6 11 17 20 25 20 8 0 15 5
15 12 0 6 3 8 7 5 3 -4 12 1 20 11 8 9 12 11 8 5 -4 -9 -1 -11 9 -7 9 3 16 11
16 17 0 6 3 7 7 4 10 -10 34 14 26 27 -3 6 -3 8 2 4 4 -4 15 -2 23 5 13 10 14
9 7 -3 -8 -13 -7 -13 11 0 10 8 25 22 32 30 12 13 13 13 7 0 -4 -10 -2 -9 8 2
16 21 31 24 22 6 -4 -7 -1 -6 7 2 7 8 22 22 32 30 18 13 19 13 12 0 -4 -8 1
-4 12 9 15 18 21 21 25 10 4 -10 6 -9 6 4 1 10 5 16 10 13 5 -3 11 1 15 9 3 8
12 12 19 9 8 -3 17 2 21 11 3 9 10 13 16 10 5 -3 10 -3 10 2 0 4 14 14 30 21
17 8 27 18 24 24 -5 7 -2 8 5 4 7 -5 21 0 31 9 10 9 30 18 44 19 20 1 22 4 13
15 -9 11 -9 13 0 8 6 -4 18 -1 26 7 11 11 17 12 27 3 7 -7 10 -7 8 -2 -3 6 0
16 8 23 8 7 14 10 14 7 0 -4 7 1 16 9 8 9 20 14 25 11 5 -4 9 1 9 9 0 10 6 13
15 10 8 -4 15 -2 15 4 0 9 37 25 53 23 4 -1 7 6 7 15 0 10 6 14 15 10 8 -3 19
2 24 12 6 9 11 13 11 8 0 -6 7 -1 16 10 8 10 13 13 9 7 -4 -9 -1 -11 9 -7 9 3
14 10 11 14 -3 4 2 11 11 14 10 4 13 2 9 -7 -4 -6 1 -3 10 8 9 11 19 19 23 18
4 0 6 4 4 10 -2 7 0 9 4 4 4 -4 18 0 31 8 13 9 23 12 23 8 0 -5 4 -2 9 5 4 7
17 14 29 15 16 1 18 4 10 14 -8 10 -7 12 6 7 9 -4 16 -1 16 6 0 6 6 10 12 8 7
-3 19 2 27 9 7 8 20 12 27 9 9 -3 11 0 7 11 -4 11 -2 14 5 9 7 -4 12 -2 12 4
0 7 7 10 15 6 9 -3 15 0 15 10 0 8 5 12 10 9 6 -3 13 0 16 9 3 8 14 13 25 11
11 -2 17 0 14 6 -5 8 0 10 20 9 3 -1 13 6 21 15 9 8 20 12 26 9 6 -4 8 -2 4 4
-3 6 7 16 24 24 16 7 30 16 30 20 0 4 7 4 17 1 12 -5 14 -3 8 7 -6 10 -4 12 8
7 11 -4 17 -1 17 8 0 8 3 15 8 14 14 -2 52 13 52 21 0 4 8 10 18 14 18 6 62
31 107 60 18 12 25 14 20 5 -3 -8 0 -6 8 3 7 10 26 22 41 28 15 5 25 14 22 18
-2 4 5 9 17 9 12 1 23 7 25 13 2 5 10 10 18 10 8 0 14 4 14 10 0 5 6 7 14 4 8
-3 19 3 26 16 8 15 17 19 32 14 11 -3 18 -2 15 3 -3 4 2 17 10 28 13 16 15 17
10 2 -9 -23 -2 -22 28 9 14 14 30 22 35 19 6 -3 10 -1 10 5 0 6 5 8 10 5 6 -3
10 -1 10 5 0 7 7 10 15 6 8 -3 14 0 12 7 -1 7 6 11 16 11 9 -1 17 5 17 13 0 8
5 11 10 8 6 -3 10 -1 10 5 0 6 4 9 8 6 5 -3 19 4 31 15 12 12 25 19 27 16 3
-3 14 3 25 14 11 11 24 17 29 14 6 -4 10 -1 10 4 0 6 6 11 14 11 7 0 21 10 30
22 9 13 14 17 11 10 -4 -7 7 -5 28 7 19 11 38 17 43 13 4 -4 3 -1 -1 7 -6 11
-4 13 8 8 10 -4 16 -2 14 6 -1 6 8 13 21 15 13 2 26 10 29 18 3 8 9 11 14 8 5
-3 9 0 9 5 0 6 4 10 9 8 5 -1 17 7 26 18 9 11 13 13 9 5 -4 -8 -3 -11 1 -7 15
13 17 60 3 68 -10 7 -10 9 2 9 13 0 13 1 0 10 -10 6 -11 10 -2 10 6 0 12 5 12
11 0 5 -4 8 -8 5 -5 -3 -9 1 -9 9 0 8 4 12 9 9 4 -3 8 -1 8 5 0 5 -6 12 -12
14 -10 4 -10 6 0 6 6 1 12 6 12 12 0 5 -6 7 -12 3 -7 -4 -10 -4 -6 1 4 4 3 14
-3 21 -7 8 -6 14 2 20 7 4 9 3 5 -4 -3 -6 -2 -13 4 -17 5 -3 10 3 10 14 0 10
-6 22 -12 24 -10 4 -10 6 0 6 6 1 12 6 12 12 0 5 -6 7 -12 3 -7 -4 -10 -4 -6
1 4 4 3 14 -3 21 -7 8 -6 14 2 20 7 4 9 3 5 -4 -3 -6 -2 -13 4 -17 5 -3 10 3
10 14 0 10 -6 22 -12 24 -10 4 -10 6 0 6 6 1 12 6 12 12 0 5 -6 7 -12 3 -7 -4
-10 -4 -6 1 4 4 3 14 -3 21 -7 8 -6 14 2 20 7 4 9 3 5 -4 -3 -6 -2 -13 4 -17
5 -3 10 3 10 14 0 10 -6 22 -12 24 -10 4 -10 6 0 6 6 1 12 6 12 12 0 5 -6 7
-12 3 -7 -4 -10 -4 -6 1 4 4 3 14 -3 21 -7 8 -6 14 2 20 7 4 9 3 5 -4 -3 -6
-2 -13 4 -17 5 -3 10 3 10 14 0 10 -6 22 -12 24 -10 4 -10 6 0 6 6 1 12 6 12
12 0 5 -6 7 -12 3 -7 -4 -10 -4 -6 1 4 4 3 14 -3 21 -7 8 -6 14 2 20 7 4 9 3
5 -4 -3 -6 -2 -13 4 -17 5 -3 10 3 10 14 0 10 -6 22 -12 24 -10 4 -10 6 0 6 6
1 12 6 12 12 0 5 -6 7 -12 3 -7 -4 -10 -4 -6 1 4 4 3 14 -3 21 -7 8 -6 14 2
20 7 4 9 3 5 -4 -3 -6 -2 -13 4 -17 5 -3 10 3 10 14 0 10 -6 22 -12 24 -10 4
-10 6 0 6 6 1 12 6 12 12 0 5 -6 7 -12 3 -7 -4 -10 -4 -6 1 4 4 3 14 -3 21 -7
8 -6 14 2 20 7 4 9 3 5 -4 -3 -6 -2 -13 4 -17 5 -3 10 3 10 14 0 10 -6 22 -12
24 -10 4 -10 6 0 6 6 1 12 6 12 12 0 5 -6 7 -12 3 -7 -4 -10 -4 -6 1 4 4 3 14
-3 21 -7 8 -6 14 2 20 7 4 9 3 5 -4 -3 -6 -2 -13 4 -17 5 -3 10 3 10 14 0 10
-6 22 -12 24 -10 4 -10 6 0 6 6 1 12 6 12 12 0 5 -6 7 -12 3 -7 -4 -10 -4 -6
1 4 4 2 15 -5 24 -11 14 -10 14 6 2 20 -15 23 -2 5 18 -10 11 -10 13 0 7 7 -5
12 -1 12 9 0 9 -4 13 -10 10 -5 -3 -10 1 -10 10 0 9 4 14 8 11 5 -3 8 8 8 25
0 16 -3 29 -8 29 -4 0 -8 8 -8 18 0 13 2 14 9 4 5 -9 8 3 7 32 0 25 -4 46 -7
46 -4 0 -10 7 -13 16 -5 13 -3 14 7 6 10 -9 13 10 13 103 0 63 -3 115 -7 115
-4 0 -10 7 -13 16 -5 13 -3 14 6 6 10 -8 13 -3 15 19 1 17 -2 27 -7 24 -6 -4
-10 1 -10 10 0 9 4 14 8 11 5 -3 8 8 8 25 0 16 -3 29 -8 29 -4 0 -8 8 -8 18 0
13 2 14 9 4 5 -9 8 3 7 32 0 25 -4 46 -7 46 -4 0 -10 7 -13 16 -5 13 -3 14 7
6 10 -9 13 10 13 103 0 63 -3 115 -7 115 -4 0 -10 7 -13 16 -5 13 -3 14 6 6
10 -8 13 -3 15 19 1 17 -2 27 -7 24 -6 -4 -10 1 -10 10 0 9 4 14 8 11 5 -3 8
8 8 25 0 16 -3 29 -8 29 -4 0 -8 8 -8 18 0 13 2 14 9 4 5 -9 8 3 7 32 0 25 -4
46 -7 46 -4 0 -10 7 -13 16 -5 13 -3 14 6 6 10 -8 13 -4 14 14 1 13 -2 24 -7
24 -5 0 -9 5 -9 11 0 5 5 7 10 4 6 -3 10 -1 10 4 0 6 -4 11 -10 11 -5 0 -10 8
-10 18 0 14 2 15 10 2 8 -13 10 -13 10 2 0 9 -6 19 -12 21 -10 4 -10 6 0 6 6
1 12 6 12 12 0 5 -6 7 -12 3 -7 -4 -10 -4 -6 1 4 4 3 14 -3 21 -7 8 -6 14 2
20 7 4 9 3 5 -4 -3 -6 -2 -13 4 -17 5 -3 10 3 10 14 0 10 -6 22 -12 24 -10 4
-10 6 0 6 6 1 12 6 12 12 0 5 -6 7 -12 3 -7 -4 -10 -4 -6 1 4 4 3 14 -3 21 -7
8 -6 14 2 20 7 4 9 3 5 -4 -3 -6 -2 -13 4 -17 5 -3 10 3 10 14 0 10 -6 22 -12
24 -10 4 -10 6 0 6 6 1 12 6 12 12 0 5 -6 7 -12 3 -7 -4 -10 -4 -6 1 4 4 3 14
-3 21 -7 8 -6 14 2 20 7 4 9 3 5 -4 -3 -6 -2 -13 4 -17 5 -3 10 3 10 14 0 10
-6 22 -12 24 -10 4 -10 6 0 6 6 1 12 6 12 12 0 5 -6 7 -12 3 -7 -4 -10 -4 -6
1 4 4 3 14 -3 21 -7 8 -6 14 2 20 7 4 9 3 5 -4 -3 -6 -2 -13 4 -17 5 -3 10 3
10 14 0 10 -6 22 -12 24 -10 4 -10 6 0 6 6 1 12 6 12 12 0 5 -6 7 -12 3 -7 -4
-10 -4 -6 1 4 4 3 14 -3 21 -7 8 -6 14 2 20 7 4 9 3 5 -4 -3 -6 -2 -13 4 -17
5 -3 10 3 10 14 0 10 -6 22 -12 24 -10 4 -10 6 0 6 6 1 12 6 12 12 0 5 -6 7
-12 3 -7 -4 -10 -4 -6 1 4 4 3 14 -3 21 -7 8 -6 14 2 20 7 4 9 3 5 -4 -3 -6
-2 -13 4 -17 5 -3 10 3 10 14 0 10 -6 22 -12 24 -10 4 -10 6 0 6 6 1 12 6 12
12 0 5 -6 7 -12 3 -7 -4 -10 -4 -6 1 4 4 3 14 -3 21 -7 8 -6 14 2 20 7 4 9 3
5 -4 -3 -6 -2 -13 4 -17 5 -3 10 3 10 14 0 10 -6 22 -12 24 -10 4 -10 6 0 6 6
1 12 6 12 12 0 5 -6 7 -12 3 -7 -4 -10 -4 -6 1 4 4 3 14 -3 21 -7 8 -6 14 2
20 7 4 9 3 5 -4 -3 -6 -2 -13 4 -17 5 -3 10 3 10 14 0 10 -6 22 -12 24 -10 4
-10 6 0 6 6 1 12 6 12 12 0 5 -6 7 -12 3 -7 -4 -10 -4 -6 1 4 4 3 14 -3 21 -7
8 -6 14 2 20 7 4 9 3 5 -4 -3 -6 -2 -13 4 -17 5 -3 10 3 10 14 0 10 -6 22 -12
24 -10 4 -10 6 0 6 6 1 12 6 12 12 0 5 -6 7 -12 3 -7 -4 -10 -4 -6 1 4 4 3 14
-3 21 -7 8 -6 14 2 20 7 4 9 3 5 -4 -3 -6 -2 -13 4 -17 5 -3 10 3 10 14 0 10
-6 22 -12 24 -10 4 -10 6 0 6 6 1 12 6 12 12 0 5 -6 7 -12 3 -7 -4 -10 -4 -6
1 4 4 3 14 -3 21 -7 8 -6 14 2 20 7 4 9 3 5 -4 -3 -6 -2 -13 4 -17 5 -3 10 3
10 14 0 10 -6 22 -12 24 -10 4 -10 6 0 6 6 1 12 6 12 12 0 5 -6 7 -12 3 -7 -4
-10 -4 -6 1 4 4 3 14 -3 21 -7 8 -6 14 2 20 7 4 9 3 5 -4 -3 -6 -2 -13 4 -17
5 -3 10 3 10 14 0 10 -6 22 -12 24 -10 4 -10 6 0 6 6 1 12 6 12 12 0 5 -6 7
-12 3 -7 -4 -10 -4 -6 1 4 4 3 14 -3 21 -7 8 -6 14 2 20 7 4 9 3 5 -4 -3 -6
-2 -13 4 -17 5 -3 10 3 10 14 0 10 -6 22 -12 24 -10 4 -10 6 0 6 6 1 12 6 12
12 0 5 -6 7 -12 3 -7 -4 -10 -4 -6 1 4 4 3 14 -3 21 -7 8 -6 14 2 20 7 4 9 3
5 -4 -3 -6 -2 -13 4 -17 5 -3 10 3 10 14 0 10 -6 22 -12 24 -10 4 -10 6 0 6 6
1 12 6 12 12 0 5 -6 7 -12 3 -7 -4 -10 -4 -6 1 4 4 3 14 -3 21 -7 8 -6 14 2
20 7 4 9 3 5 -4 -3 -6 -2 -13 4 -17 5 -3 10 3 10 14 0 10 -6 22 -12 24 -10 4
-10 6 0 6 6 1 12 6 12 12 0 5 -6 7 -12 3 -7 -4 -10 -4 -6 1 4 4 2 15 -5 24
-11 14 -10 14 6 2 20 -15 23 -2 5 18 -10 11 -10 13 0 7 7 -5 12 -1 12 9 0 9
-4 13 -10 10 -5 -3 -10 1 -10 10 0 9 4 14 8 11 5 -3 8 8 8 25 0 16 -3 29 -8
29 -4 0 -8 8 -8 18 0 13 2 14 9 4 5 -9 8 3 7 32 0 25 -4 46 -7 46 -4 0 -10 7
-13 16 -5 13 -3 14 7 6 10 -9 13 10 13 103 0 63 -3 115 -7 115 -4 0 -10 7 -13
16 -5 13 -3 14 6 6 10 -8 13 -3 15 19 1 17 -2 27 -7 24 -6 -4 -10 1 -10 10 0
9 4 14 8 11 5 -3 8 8 8 25 0 16 -3 29 -8 29 -4 0 -8 8 -8 18 0 13 2 14 9 4 5
-9 8 3 7 32 0 25 -4 46 -7 46 -4 0 -10 7 -13 16 -5 13 -3 14 7 6 10 -9 13 10
13 103 0 63 -3 115 -7 115 -4 0 -10 7 -13 16 -5 13 -3 14 6 6 10 -8 13 -3 15
19 1 17 -2 27 -7 24 -6 -4 -10 1 -10 10 0 9 4 14 8 11 5 -3 8 8 8 25 0 16 -3
29 -8 29 -4 0 -8 8 -8 18 0 13 2 14 9 4 5 -9 8 3 7 32 0 25 -4 46 -7 46 -4 0
-10 7 -13 16 -5 13 -3 14 6 6 10 -8 13 -4 14 14 1 13 -2 24 -7 24 -5 0 -9 5
-9 11 0 5 5 7 10 4 6 -3 10 -1 10 4 0 6 -4 11 -10 11 -5 0 -10 8 -10 18 0 14
2 15 10 2 8 -13 10 -13 10 2 0 9 -6 19 -12 21 -10 4 -10 6 0 6 6 1 12 6 12 12
0 5 -6 7 -12 3 -7 -4 -10 -4 -6 1 4 4 3 14 -3 21 -7 8 -6 14 2 20 7 4 9 3 5
-4 -3 -6 -2 -13 4 -17 5 -3 10 3 10 14 0 10 -6 22 -12 24 -10 4 -10 6 0 6 6 1
12 6 12 12 0 5 -6 7 -12 3 -7 -4 -10 -4 -6 1 4 4 3 14 -3 21 -7 8 -6 14 2 20
7 4 9 3 5 -4 -3 -6 -2 -13 4 -17 5 -3 10 3 10 14 0 10 -6 22 -12 24 -10 4 -10
6 0 6 6 1 12 6 12 12 0 5 -6 7 -12 3 -7 -4 -10 -4 -6 1 4 4 3 14 -3 21 -7 8
-6 14 2 20 7 4 9 3 5 -4 -3 -6 -2 -13 4 -17 5 -3 10 3 10 14 0 10 -6 22 -12
24 -10 4 -10 6 0 6 6 1 12 6 12 12 0 5 -6 7 -12 3 -7 -4 -10 -4 -6 1 4 4 3 14
-3 21 -7 8 -6 14 2 20 7 4 9 3 5 -4 -3 -6 -2 -13 4 -17 5 -3 10 3 10 14 0 10
-6 22 -12 24 -10 4 -10 6 0 6 6 1 12 6 12 12 0 5 -6 7 -12 3 -7 -4 -10 -4 -6
1 4 4 3 14 -3 21 -7 8 -6 14 2 20 7 4 9 3 5 -4 -3 -6 -2 -13 4 -17 5 -3 10 3
10 14 0 10 -6 22 -12 24 -10 4 -10 6 0 6 6 1 12 6 12 12 0 5 -6 7 -12 3 -7 -4
-10 -4 -6 1 4 4 3 14 -3 21 -7 8 -6 14 2 20 7 4 9 3 5 -4 -3 -6 -2 -13 4 -17
5 -3 10 3 10 14 0 10 -6 22 -12 24 -10 4 -10 6 0 6 6 1 12 6 12 12 0 5 -6 7
-12 3 -7 -4 -10 -4 -6 1 4 4 3 14 -3 21 -7 8 -6 14 2 20 7 4 9 3 5 -4 -3 -6
-2 -13 4 -17 5 -3 10 3 10 14 0 10 -6 22 -12 24 -10 4 -10 6 0 6 6 1 12 6 12
12 0 5 -6 7 -12 3 -7 -4 -10 -4 -6 1 4 4 3 14 -3 21 -7 8 -6 14 2 20 7 4 9 3
5 -4 -3 -6 -2 -13 4 -17 5 -3 10 3 10 14 0 10 -6 22 -12 24 -10 4 -10 6 0 6 6
1 12 6 12 12 0 5 -6 7 -12 3 -7 -4 -10 -4 -6 1 4 4 3 14 -3 21 -7 8 -6 14 2
20 7 4 9 3 5 -4 -3 -6 -2 -13 4 -17 5 -3 10 3 10 14 0 10 -6 22 -12 24 -10 4
-10 6 0 6 6 1 12 6 12 12 0 5 -6 7 -12 3 -7 -4 -10 -4 -6 1 4 4 3 14 -3 21 -7
8 -6 14 2 20 7 4 9 3 5 -4 -3 -6 -2 -13 4 -17 5 -3 10 3 10 14 0 10 -6 22 -12
24 -10 4 -10 6 0 6 6 1 12 6 12 12 0 5 -6 7 -12 3 -7 -4 -10 -4 -6 1 4 4 3 14
-3 21 -7 8 -6 14 2 20 7 4 9 3 5 -4 -3 -6 -2 -13 4 -17 5 -3 10 3 10 14 0 10
-6 22 -12 24 -10 4 -10 6 0 6 6 1 12 6 12 12 0 5 -6 7 -12 3 -7 -4 -10 -4 -6
1 4 4 3 14 -3 21 -7 8 -6 14 2 20 7 4 9 3 5 -4 -3 -6 -2 -13 4 -17 5 -3 10 3
10 14 0 10 -6 22 -12 24 -10 4 -10 6 0 6 6 1 12 6 12 12 0 5 -6 7 -12 3 -7 -4
-10 -4 -6 1 4 4 3 14 -3 21 -7 8 -6 14 2 20 7 4 9 3 5 -4 -3 -6 -2 -13 4 -17
5 -3 10 3 10 14 0 10 -6 22 -12 24 -10 4 -10 6 0 6 6 1 12 6 12 12 0 5 -6 7
-12 3 -7 -4 -10 -4 -6 1 4 4 3 14 -3 21 -7 8 -6 14 2 20 7 4 9 3 5 -4 -3 -6
-2 -13 4 -17 5 -3 10 3 10 14 0 10 -6 22 -12 24 -10 4 -10 6 0 6 6 1 12 6 12
12 0 5 -6 7 -12 3 -7 -4 -10 -4 -6 1 4 4 3 14 -3 21 -7 8 -6 14 2 20 7 4 9 3
5 -4 -3 -6 -2 -13 4 -17 5 -3 10 3 10 14 0 10 -6 22 -12 24 -10 4 -10 6 0 6 6
1 12 6 12 12 0 5 -6 7 -12 3 -7 -4 -10 -4 -6 1 4 4 2 15 -5 24 -11 14 -10 14
6 2 20 -15 23 -2 5 18 -10 11 -10 13 0 7 7 -5 12 -1 12 9 0 9 -4 13 -10 10 -5
-3 -10 1 -10 10 0 9 4 14 8 11 5 -3 8 8 8 25 0 16 -3 29 -8 29 -4 0 -8 8 -8
18 0 13 2 14 9 4 5 -9 8 3 7 32 0 25 -4 46 -7 46 -4 0 -10 7 -13 16 -5 13 -3
14 7 6 10 -9 13 10 13 103 0 63 -3 115 -7 115 -4 0 -10 7 -13 16 -5 13 -3 14
6 6 10 -8 13 -3 15 19 1 17 -2 27 -7 24 -6 -4 -10 1 -10 10 0 9 4 14 8 11 5
-3 8 8 8 25 0 16 -3 29 -8 29 -4 0 -8 8 -8 18 0 13 2 14 9 4 5 -9 8 3 7 32 0
25 -4 46 -7 46 -4 0 -10 7 -13 16 -5 13 -3 14 7 6 10 -9 13 10 13 103 0 63 -3
115 -7 115 -4 0 -10 7 -13 16 -5 13 -3 14 6 6 10 -8 13 -3 15 19 1 17 -2 27
-7 24 -6 -4 -10 1 -10 10 0 9 4 14 8 11 5 -3 8 8 8 25 0 16 -3 29 -8 29 -4 0
-8 8 -8 18 0 13 2 14 9 4 5 -9 8 3 7 32 0 25 -4 46 -7 46 -4 0 -10 7 -13 16
-5 13 -3 14 6 6 10 -8 13 -4 14 14 1 13 -2 24 -7 24 -5 0 -9 5 -9 11 0 5 5 7
10 4 6 -3 10 -1 10 4 0 6 -4 11 -10 11 -5 0 -10 8 -10 18 0 14 2 15 10 2 8
-13 10 -13 10 2 0 9 -6 19 -12 21 -10 4 -10 6 0 6 6 1 12 6 12 12 0 5 -6 7
-12 3 -7 -4 -10 -4 -6 1 4 4 3 14 -3 21 -7 8 -6 14 2 20 7 4 9 3 5 -4 -3 -6
-2 -13 4 -17 5 -3 10 3 10 14 0 10 -6 22 -12 24 -10 4 -10 6 0 6 6 1 12 6 12
12 0 5 -6 7 -12 3 -7 -4 -10 -4 -6 1 4 4 3 14 -3 21 -7 8 -6 14 2 20 7 4 9 3
5 -4 -3 -6 -2 -13 4 -17 5 -3 10 3 10 14 0 10 -6 22 -12 24 -10 4 -10 6 0 6 6
1 12 6 12 12 0 5 -6 7 -12 3 -7 -4 -10 -4 -6 1 4 4 3 14 -3 21 -7 8 -6 14 2
20 7 4 9 3 5 -4 -3 -6 -2 -13 4 -17 5 -3 10 3 10 14 0 10 -6 22 -12 24 -10 4
-10 6 0 6 6 1 12 6 12 12 0 5 -6 7 -12 3 -7 -4 -10 -4 -6 1 4 4 3 14 -3 21 -7
8 -6 14 2 20 7 4 9 3 5 -4 -3 -6 -2 -13 4 -17 5 -3 10 3 10 14 0 10 -6 22 -12
24 -10 4 -10 6 0 6 6 1 12 6 12 12 0 5 -6 7 -12 3 -7 -4 -10 -4 -6 1 4 4 3 14
-3 21 -7 8 -6 14 2 20 7 4 9 3 5 -4 -3 -6 -2 -13 4 -17 5 -3 10 3 10 14 0 10
-6 22 -12 24 -10 4 -10 6 0 6 6 1 12 6 12 12 0 5 -6 7 -12 3 -7 -4 -10 -4 -6
1 4 4 3 14 -3 21 -7 8 -6 14 2 20 7 4 9 3 5 -4 -3 -6 -2 -13 4 -17 5 -3 10 3
10 14 0 10 -6 22 -12 24 -10 4 -10 6 0 6 6 1 12 6 12 12 0 5 -6 7 -12 3 -7 -4
-10 -4 -6 1 4 4 3 14 -3 21 -7 8 -6 14 2 20 7 4 9 3 5 -4 -3 -6 -2 -13 4 -17
5 -3 10 3 10 14 0 10 -6 22 -12 24 -10 4 -10 6 0 6 6 1 12 6 12 12 0 5 -6 7
-12 3 -7 -4 -10 -4 -6 1 4 4 3 14 -3 21 -7 8 -6 14 2 20 7 4 9 3 5 -4 -3 -6
-2 -13 4 -17 5 -3 10 3 10 14 0 10 -6 22 -12 24 -10 4 -10 6 0 6 6 1 12 6 12
12 0 5 -6 7 -12 3 -7 -4 -10 -4 -6 1 4 4 3 14 -3 21 -7 8 -6 14 2 20 7 4 9 3
5 -4 -3 -6 -2 -13 4 -17 5 -3 10 3 10 14 0 10 -6 22 -12 24 -10 4 -10 6 0 6 6
1 12 6 12 12 0 5 -6 7 -12 3 -7 -4 -10 -4 -6 1 4 4 3 14 -3 21 -7 8 -6 14 2
20 7 4 9 3 5 -4 -3 -6 -2 -13 4 -17 5 -3 10 3 10 14 0 10 -6 22 -12 24 -10 4
-10 6 0 6 6 1 12 6 12 12 0 5 -6 7 -12 3 -7 -4 -10 -4 -6 1 4 4 3 14 -3 21 -7
8 -6 14 2 20 7 4 9 3 5 -4 -3 -6 -2 -13 4 -17 5 -3 10 3 10 14 0 10 -6 22 -12
24 -10 4 -10 6 0 6 6 1 12 6 12 12 0 5 -6 7 -12 3 -7 -4 -10 -4 -6 1 4 4 3 14
-3 21 -7 8 -6 14 2 20 7 4 9 3 5 -4 -3 -6 -2 -13 4 -17 5 -3 10 3 10 14 0 10
-6 22 -12 24 -10 4 -10 6 0 6 6 1 12 6 12 12 0 5 -6 7 -12 3 -7 -4 -10 -4 -6
1 4 4 3 14 -3 21 -7 8 -6 14 2 20 7 4 9 3 5 -4 -3 -6 -2 -13 4 -17 5 -3 10 3
10 14 0 10 -6 22 -12 24 -10 4 -10 6 0 6 6 1 12 6 12 12 0 5 -6 7 -12 3 -7 -4
-10 -4 -6 1 4 4 3 14 -3 21 -7 8 -6 14 2 20 7 4 9 3 5 -4 -3 -6 -2 -13 4 -17
5 -3 10 3 10 14 0 10 -6 22 -12 24 -10 4 -10 6 0 6 6 1 12 6 12 12 0 5 -6 7
-12 3 -7 -4 -10 -4 -6 1 4 4 3 14 -3 21 -7 8 -6 14 2 20 7 4 9 3 5 -4 -3 -6
-2 -13 4 -17 5 -3 10 3 10 14 0 10 -6 22 -12 24 -10 4 -10 6 0 6 6 1 12 6 12
12 0 5 -6 7 -12 3 -7 -4 -10 -4 -6 1 4 4 2 15 -5 24 -11 14 -10 14 6 2 20 -15
23 -2 5 18 -10 11 -10 13 0 7 7 -5 12 -1 12 9 0 9 -4 13 -10 10 -5 -3 -10 1
-10 10 0 9 4 14 8 11 5 -3 8 8 8 25 0 16 -3 29 -8 29 -4 0 -8 8 -8 18 0 13 2
14 9 4 5 -9 8 3 7 32 0 25 -4 46 -7 46 -4 0 -10 7 -13 16 -5 13 -3 14 6 6 11
-8 13 8 14 84 1 52 -3 94 -8 94 -5 0 -6 -5 -2 -12 5 -7 3 -8 -6 -3 -10 6 -10
10 3 20 16 11 20 58 5 49 -10 -6 -11 10 -1 20 11 10 12 37 2 30 -5 -3 -9 0 -9
5 0 6 5 11 10 11 6 0 10 5 10 11 0 5 -6 7 -12 3 -9 -5 -9 -2 1 9 11 14 11 17
0 17 -11 0 -11 2 1 10 10 6 11 10 3 10 -7 0 -13 8 -13 18 0 14 2 15 10 2 9
-13 10 -13 10 0 0 8 -11 20 -25 27 -16 7 -23 7 -18 1 3 -7 1 -8 -5 -4 -7 4
-12 14 -12 23 0 11 -6 14 -21 10 -14 -4 -19 -2 -15 8 3 9 -3 12 -19 10 -13 -1
-23 3 -22 8 1 6 -5 11 -13 12 -8 1 -14 6 -13 11 1 6 -5 11 -13 12 -7 1 -21 3
-29 4 -8 1 -15 5 -15 9 0 4 -9 11 -20 14 -11 3 -27 13 -35 21 -8 8 -24 16 -34
17 -11 0 -18 4 -16 7 1 3 -9 14 -23 24 -14 11 -22 14 -18 8 5 -8 2 -10 -8 -6
-9 3 -14 9 -12 13 2 3 -7 11 -20 18 -18 8 -23 8 -18 0 3 -7 -2 -3 -10 7 -9 11
-16 16 -16 11 0 -5 -6 -1 -13 10 -8 10 -19 15 -24 12 -6 -4 -13 -1 -16 7 -6
15 -62 46 -83 46 -7 0 -19 9 -27 20 -8 11 -17 17 -20 13 -4 -3 -7 -1 -7 5 0 7
-3 11 -7 10 -12 -2 -46 14 -61 29 -8 7 -17 11 -21 9 -4 -3 -13 4 -21 14 -8 10
-17 17 -22 14 -4 -3 -8 0 -8 6 0 6 -4 8 -10 5 -5 -3 -10 -1 -10 5 0 6 -4 8
-10 5 -5 -3 -10 -1 -10 5 0 6 -4 8 -10 5 -5 -3 -10 -1 -10 4 0 6 -7 11 -16 11
-8 0 -12 5 -9 10 3 6 -3 10 -14 10 -12 0 -21 5 -21 11 0 5 -4 8 -9 5 -5 -3
-20 4 -35 15 -14 11 -31 17 -37 13 -8 -4 -9 -3 -5 4 7 11 -38 38 -56 34 -5 -1
-8 2 -8 8 0 5 -7 10 -15 10 -8 0 -15 7 -15 15 0 8 -5 15 -11 15 -5 0 -7 -4 -4
-10 3 -6 -1 -7 -9 -4 -9 3 -13 10 -10 15 3 5 -2 9 -10 9 -9 0 -16 5 -16 11 0
5 -4 7 -10 4 -5 -3 -10 -1 -10 5 0 6 -4 9 -9 6 -4 -3 -16 3 -26 14 -10 11 -21
17 -26 15 -4 -3 -10 -1 -14 5 -4 6 -11 8 -16 5 -5 -4 -9 1 -9 9 0 10 -6 13
-15 10 -8 -4 -15 -1 -15 5 0 6 -7 11 -15 11 -8 0 -15 5 -15 11 0 5 -4 8 -8 5
-5 -3 -16 4 -26 15 -9 12 -23 18 -31 15 -8 -3 -17 3 -21 16 -5 16 -8 18 -15 7
-5 -8 -9 -9 -9 -3 0 9 -55 41 -55 32 -1 -3 -22 14 -56 45 -12 10 -19 12 -19 5
0 -6 -6 -4 -13 7 -8 10 -18 16 -23 13 -12 -8 -35 18 -26 28 4 4 -1 4 -10 1
-10 -3 -24 0 -32 8 -8 8 -20 15 -26 15 -6 0 -8 5 -4 12 4 6 3 8 -4 4 -6 -3
-16 -1 -24 6 -7 7 -22 14 -32 16 -21 4 -48 27 -40 35 3 3 -3 4 -13 3 -11 0
-17 5 -15 13 3 12 1 12 -13 1 -14 -11 -17 -10 -22 9 -4 17 -8 19 -14 9 -7 -10
-9 -9 -9 5 0 10 -4 16 -9 12 -5 -3 -17 2 -25 11 -9 9 -23 13 -32 10 -8 -3 -12
-2 -9 4 3 6 1 10 -6 10 -6 0 -20 10 -30 22 -11 11 -19 16 -19 9 0 -9 -5 -8
-15 3 -8 8 -24 18 -35 21 -11 3 -20 11 -20 16 0 6 -4 7 -10 4 -5 -3 -10 -1
-10 5 0 6 -4 8 -10 5 -5 -3 -10 -1 -10 5 0 6 -5 8 -10 5 -6 -3 -13 1 -16 9 -3
9 -15 16 -26 16 -10 0 -16 5 -13 10 3 6 -1 10 -9 10 -9 0 -16 4 -16 10 0 5 -7
7 -15 4 -8 -4 -15 -1 -15 7 0 7 -3 9 -6 6 -4 -4 -15 2 -25 14 -12 14 -18 16
-22 7 -4 -8 -6 -7 -6 4 -1 10 -7 15 -14 12 -7 -2 -22 5 -34 16 -12 11 -27 20
-33 20 -6 0 -8 5 -5 11 4 6 1 9 -6 8 -18 -3 -69 21 -69 33 0 4 -9 8 -20 8 -11
0 -20 5 -20 10 0 6 -7 10 -15 10 -8 0 -15 5 -15 11 0 6 -7 9 -15 5 -8 -3 -20
3 -27 13 -7 9 -20 21 -28 26 -13 8 -13 7 0 -10 14 -18 14 -18 -12 0 -15 11
-28 23 -28 28 0 4 -6 7 -14 7 -7 0 -19 7 -26 15 -7 9 -20 13 -29 10 -8 -3 -12
-3 -8 1 9 9 -23 33 -45 34 -10 0 -18 5 -18 10 0 6 -7 10 -15 10 -8 0 -15 5
-15 10 0 6 -7 10 -15 10 -8 0 -15 5 -15 11 0 5 -4 8 -9 4 -5 -3 -12 -1 -16 5
-4 6 -11 8 -16 5 -5 -4 -12 1 -15 9 -3 9 -14 16 -25 16 -10 0 -25 10 -33 22
-9 12 -16 18 -16 13 0 -6 -7 -1 -15 9 -8 11 -15 14 -15 7 0 -7 -5 -9 -10 -6
-6 4 -7 11 -4 17 4 6 2 8 -3 5 -6 -4 -16 0 -23 8 -7 8 -23 15 -37 15 -14 0
-21 4 -18 10 3 6 -1 10 -9 10 -9 0 -16 5 -16 10 0 6 -9 10 -19 10 -11 0 -27
10 -35 22 -9 12 -16 19 -16 15 0 -4 -9 -3 -20 3 -11 6 -18 15 -15 20 3 6 -1 7
-9 4 -9 -3 -23 1 -32 10 -8 9 -19 14 -24 11 -4 -3 -11 2 -14 11 -3 8 -10 12
-16 9 -5 -3 -10 -1 -10 4 0 6 -6 10 -12 8 -7 -1 -12 4 -11 10 2 7 0 12 -5 11
-12 -2 -59 20 -67 31 -3 6 -15 11 -26 11 -13 0 -18 4 -13 12 5 8 0 9 -14 6
-15 -4 -22 -2 -22 9 0 8 -4 11 -10 8 -5 -3 -10 -1 -10 5 0 6 -4 8 -10 5 -5 -3
-10 -2 -10 3 0 5 -13 15 -30 22 -16 7 -30 17 -30 22 0 5 -4 7 -9 4 -5 -3 -14
1 -21 9 -7 8 -19 15 -26 15 -8 0 -14 5 -14 11 0 5 -4 8 -10 4 -5 -3 -18 3 -29
14 -12 12 -27 18 -36 15 -9 -4 -15 -3 -14 2 4 23 -3 32 -21 27 -12 -3 -20 0
-20 7 0 7 -7 10 -17 6 -10 -4 -14 -4 -11 0 10 10 -19 35 -42 37 -11 1 -20 4
-20 8 0 4 -9 9 -21 12 -12 3 -18 10 -14 16 4 7 0 8 -11 4 -12 -4 -15 -3 -10 5
5 8 1 10 -10 5 -12 -4 -15 -3 -10 5 4 8 2 10 -7 6 -8 -3 -17 2 -20 10 -4 10
-13 13 -23 9 -12 -4 -15 -3 -10 5 5 8 0 12 -13 12 -12 0 -21 5 -21 10 0 6 -7
10 -15 10 -9 0 -18 6 -21 14 -3 8 -14 13 -25 11 -10 -2 -25 5 -32 16 -8 10
-17 16 -20 12 -4 -3 -7 2 -7 13 0 16 -2 17 -10 4 -9 -13 -14 -8 -11 12 0 3
-11 5 -24 4 -13 -2 -24 0 -23 3 0 3 0 13 -1 21 -1 13 -2 13 -11 0 -7 -11 -10
-11 -10 -2 0 7 -13 18 -30 23 -18 7 -27 15 -23 22 4 7 -2 5 -12 -3 -10 -8 -16
-10 -12 -4 6 11 -26 28 -45 25 -5 -1 -7 5 -5 11 1 7 -8 14 -20 16 -13 2 -23 8
-23 13 0 5 -7 9 -15 9 -9 0 -18 7 -21 15 -4 8 -10 12 -15 9 -5 -3 -9 0 -9 5 0
6 -5 11 -11 11 -5 0 -7 -6 -3 -12 5 -9 2 -9 -9 1 -9 7 -17 21 -17 30 0 14 -2
14 -10 1 -5 -8 -10 -10 -10 -4 0 7 -8 14 -17 18 -16 5 -55 26 -93 51 -8 5 -19
10 -25 10 -5 1 -9 6 -8 12 2 7 -6 10 -17 8 -13 -2 -20 2 -20 11 0 8 -4 12 -10
9 -5 -3 -10 -1 -10 4 0 6 -6 11 -14 11 -8 0 -22 7 -30 16 -12 12 -16 12 -16 2
-1 -9 -4 -8 -10 3 -5 9 -21 20 -35 23 -14 4 -25 11 -25 16 0 6 -6 10 -14 10
-8 0 -16 5 -18 10 -2 6 -13 12 -25 13 -12 0 -19 5 -17 9 3 4 -2 8 -11 8 -9 0
-13 4 -10 10 4 6 -1 7 -11 3 -11 -4 -15 -3 -10 5 4 7 -1 10 -14 7 -11 -2 -18
0 -15 6 4 5 1 9 -5 9 -6 0 -18 7 -27 15 -8 8 -18 13 -23 10 -4 -3 -11 2 -14
11 -3 8 -10 13 -15 9 -5 -3 -12 -1 -16 5 -4 6 -11 8 -16 4 -5 -3 -8 0 -7 8 2
7 -7 14 -19 16 -13 2 -23 8 -23 13 0 5 -9 9 -21 9 -11 0 -17 5 -14 10 3 6 -3
10 -15 10 -11 0 -23 6 -26 14 -3 9 -12 12 -21 9 -10 -4 -14 -2 -10 4 4 6 0 14
-9 17 -10 4 -13 2 -8 -7 5 -8 2 -8 -9 2 -9 7 -14 18 -10 24 3 6 1 7 -5 3 -7
-4 -12 -1 -12 6 0 9 -3 9 -10 -2 -9 -14 -14 -7 -11 13 1 5 -3 6 -8 3 -5 -4
-15 0 -23 7 -7 8 -19 12 -27 9 -8 -3 -11 0 -7 7 6 10 -6 15 -26 12 -5 0 -8 3
-8 9 0 5 -7 10 -15 10 -9 0 -18 7 -22 16 -3 8 -12 13 -19 10 -8 -3 -14 -1 -14
4 0 6 -7 10 -15 10 -8 0 -15 5 -15 11 0 5 -4 7 -10 4 -5 -3 -10 -1 -10 6 0 7
-3 9 -7 6 -3 -4 -13 2 -20 13 -8 11 -18 18 -23 15 -4 -3 -23 7 -42 22 -18 15
-27 20 -19 10 12 -15 12 -17 -2 -11 -8 3 -18 12 -21 20 -3 9 -10 12 -16 9 -5
-3 -10 -1 -10 5 0 6 -4 8 -10 5 -5 -3 -10 1 -10 9 0 10 -7 13 -20 11 -11 -2
-19 -1 -16 3 2 4 -2 13 -10 20 -11 10 -14 10 -14 0 0 -7 -11 0 -24 15 -17 19
-26 24 -29 15 -4 -8 -6 -7 -6 5 -1 9 -6 17 -12 17 -5 0 -7 -6 -3 -12 7 -12
-12 2 -60 45 -11 9 -28 17 -38 17 -11 0 -17 4 -14 8 3 5 -1 9 -9 10 -8 1 -22
3 -30 4 -8 1 -13 3 -11 6 9 8 -19 30 -31 25 -7 -3 -16 2 -19 11 -3 9 -10 13
-15 10 -5 -3 -12 2 -15 10 -3 9 -10 13 -15 10 -5 -3 -9 -1 -9 3 0 5 -10 14
-21 22 -20 12 -21 11 -15 -6 5 -16 4 -16 -11 2 -18 21 -51 40 -65 37 -5 -1 -8
2 -8 7 0 5 -9 13 -20 16 -12 4 -17 11 -13 18 4 7 -1 6 -11 -2 -9 -8 -16 -10
-15 -5 4 23 -3 33 -21 29 -11 -2 -23 1 -26 7 -5 7 -2 8 6 3 9 -6 11 -4 6 4 -5
7 -10 10 -13 7 -9 -8 -63 23 -63 37 0 8 -4 7 -10 -3 -6 -10 -10 -11 -10 -2 0
6 -7 12 -15 12 -8 0 -15 4 -15 10 0 5 -6 9 -12 7 -7 -1 -12 4 -10 12 2 8 -3
11 -12 8 -9 -4 -20 1 -25 11 -5 9 -12 16 -15 15 -13 -6 -27 -3 -22 5 2 4 -5 9
-17 9 -12 1 -23 7 -25 13 -2 5 -10 10 -18 10 -8 0 -14 5 -14 10 0 6 -7 10 -15
10 -8 0 -15 5 -15 11 0 5 -4 8 -9 5 -5 -3 -12 1 -15 10 -5 14 -9 14 -23 3 -11
-10 -14 -10 -9 -2 4 9 -3 17 -21 25 -15 7 -34 20 -41 28 -8 8 -11 9 -7 3 4 -9
1 -11 -10 -7 -9 4 -13 9 -10 12 2 3 -4 12 -16 20 -11 8 -23 12 -26 8 -3 -3
-11 0 -19 7 -33 30 -42 35 -48 30 -3 -4 -6 0 -6 7 0 7 -3 10 -7 7 -3 -4 -12 1
-20 11 -8 9 -12 11 -8 5 4 -9 1 -11 -9 -7 -9 3 -16 10 -16 15 0 5 -7 9 -16 9
-8 0 -12 5 -9 10 4 6 3 10 -2 9 -25 -4 -43 2 -37 13 5 8 2 9 -10 5 -10 -4 -19
-1 -22 8 -4 8 -10 12 -15 9 -5 -3 -9 0 -9 6 0 6 -4 9 -8 6 -5 -3 -15 4 -22 15
-8 10 -22 19 -32 19 -10 0 -18 5 -18 11 0 5 -4 7 -10 4 -5 -3 -10 -1 -10 5 0
6 -4 8 -10 5 -5 -3 -10 -1 -10 4 0 6 -9 11 -21 11 -12 0 -18 4 -13 11 4 7 1
10 -7 7 -7 -2 -25 6 -39 19 -14 13 -37 27 -53 30 -15 3 -30 10 -34 16 -4 6 -1
7 8 2 8 -5 10 -4 6 0 -4 5 -15 10 -25 11 -9 2 -18 8 -20 13 -2 6 -12 11 -23
11 -10 0 -27 8 -37 18 -10 9 -25 18 -33 20 -8 2 -19 10 -26 19 -6 8 -16 12
-21 9 -6 -3 -12 -2 -14 3 -1 5 -9 11 -17 13 -8 2 -23 11 -33 21 -10 10 -23 15
-28 12 -6 -4 -10 1 -10 9 0 8 -5 18 -12 22 -7 4 -8 3 -4 -4 5 -8 2 -10 -8 -6
-9 3 -13 10 -10 15 3 5 -2 6 -10 3 -10 -4 -16 -1 -16 7 0 7 -3 10 -6 6 -4 -3
-13 1 -21 9 -9 8 -22 13 -29 10 -9 -3 -11 0 -7 11 4 10 2 14 -4 10 -6 -4 -19
0 -27 9 -12 11 -16 12 -16 2 0 -10 -3 -10 -9 2 -6 8 -7 18 -4 24 3 5 1 6 -5 2
-7 -4 -12 -2 -12 3 0 15 -47 14 -56 -1z m6771 -3888 c3 -5 1 -10 -4 -10 -6 0
-11 5 -11 10 0 6 2 10 4 10 3 0 8 -4 11 -10z m1192 -952 c-3 -8 -6 -5 -6 6 -1
11 2 17 5 13 3 -3 4 -12 1 -19z m1 -43 c-3 -3 -9 2 -12 12 -6 14 -5 15 5 6 7
-7 10 -15 7 -18z m-1 -30 c0 -8 -4 -12 -9 -9 -5 3 -6 10 -3 15 9 13 12 11 12
-6z m1 -130 c-3 -3 -9 2 -12 12 -6 14 -5 15 5 6 7 -7 10 -15 7 -18z m0 -80
c-3 -3 -9 2 -12 12 -6 14 -5 15 5 6 7 -7 10 -15 7 -18z m0 -1520 c-3 -3 -9 2
-12 12 -6 14 -5 15 5 6 7 -7 10 -15 7 -18z m0 -80 c-3 -3 -9 2 -12 12 -6 14
-5 15 5 6 7 -7 10 -15 7 -18z m0 -160 c-3 -3 -9 2 -12 12 -6 14 -5 15 5 6 7
-7 10 -15 7 -18z m-1 -37 c-3 -8 -6 -5 -6 6 -1 11 2 17 5 13 3 -3 4 -12 1 -19z
m1 -43 c-3 -3 -9 2 -12 12 -6 14 -5 15 5 6 7 -7 10 -15 7 -18z m-1 -30 c0 -8
-4 -12 -9 -9 -5 3 -6 10 -3 15 9 13 12 11 12 -6z m1 -130 c-3 -3 -9 2 -12 12
-6 14 -5 15 5 6 7 -7 10 -15 7 -18z m0 -80 c-3 -3 -9 2 -12 12 -6 14 -5 15 5
6 7 -7 10 -15 7 -18z m0 -160 c-3 -3 -9 2 -12 12 -6 14 -5 15 5 6 7 -7 10 -15
7 -18z m-1 -37 c-3 -8 -6 -5 -6 6 -1 11 2 17 5 13 3 -3 4 -12 1 -19z m1 -43
c-3 -3 -9 2 -12 12 -6 14 -5 15 5 6 7 -7 10 -15 7 -18z m-1 -30 c0 -8 -4 -12
-9 -9 -5 3 -6 10 -3 15 9 13 12 11 12 -6z m1 -130 c-3 -3 -9 2 -12 12 -6 14
-5 15 5 6 7 -7 10 -15 7 -18z m0 -80 c-3 -3 -9 2 -12 12 -6 14 -5 15 5 6 7 -7
10 -15 7 -18z m0 -1520 c-3 -3 -9 2 -12 12 -6 14 -5 15 5 6 7 -7 10 -15 7 -18z
m0 -80 c-3 -3 -9 2 -12 12 -6 14 -5 15 5 6 7 -7 10 -15 7 -18z m0 -160 c-3 -3
-9 2 -12 12 -6 14 -5 15 5 6 7 -7 10 -15 7 -18z m-1 -37 c-3 -8 -6 -5 -6 6 -1
11 2 17 5 13 3 -3 4 -12 1 -19z m1 -43 c-3 -3 -9 2 -12 12 -6 14 -5 15 5 6 7
-7 10 -15 7 -18z m-1 -30 c0 -8 -4 -12 -9 -9 -5 3 -6 10 -3 15 9 13 12 11 12
-6z m1 -130 c-3 -3 -9 2 -12 12 -6 14 -5 15 5 6 7 -7 10 -15 7 -18z m0 -80
c-3 -3 -9 2 -12 12 -6 14 -5 15 5 6 7 -7 10 -15 7 -18z m0 -160 c-3 -3 -9 2
-12 12 -6 14 -5 15 5 6 7 -7 10 -15 7 -18z m-1 -37 c-3 -8 -6 -5 -6 6 -1 11 2
17 5 13 3 -3 4 -12 1 -19z m1 -43 c-3 -3 -9 2 -12 12 -6 14 -5 15 5 6 7 -7 10
-15 7 -18z m-1 -30 c0 -8 -4 -12 -9 -9 -5 3 -6 10 -3 15 9 13 12 11 12 -6z m1
-130 c-3 -3 -9 2 -12 12 -6 14 -5 15 5 6 7 -7 10 -15 7 -18z m0 -80 c-3 -3 -9
2 -12 12 -6 14 -5 15 5 6 7 -7 10 -15 7 -18z m0 -1520 c-3 -3 -9 2 -12 12 -6
14 -5 15 5 6 7 -7 10 -15 7 -18z m0 -80 c-3 -3 -9 2 -12 12 -6 14 -5 15 5 6 7
-7 10 -15 7 -18z m0 -160 c-3 -3 -9 2 -12 12 -6 14 -5 15 5 6 7 -7 10 -15 7
-18z m-1 -37 c-3 -8 -6 -5 -6 6 -1 11 2 17 5 13 3 -3 4 -12 1 -19z m1 -43 c-3
-3 -9 2 -12 12 -6 14 -5 15 5 6 7 -7 10 -15 7 -18z m-1 -30 c0 -8 -4 -12 -9
-9 -5 3 -6 10 -3 15 9 13 12 11 12 -6z m1 -130 c-3 -3 -9 2 -12 12 -6 14 -5
15 5 6 7 -7 10 -15 7 -18z m0 -80 c-3 -3 -9 2 -12 12 -6 14 -5 15 5 6 7 -7 10
-15 7 -18z m0 -160 c-3 -3 -9 2 -12 12 -6 14 -5 15 5 6 7 -7 10 -15 7 -18z
m-1 -37 c-3 -8 -6 -5 -6 6 -1 11 2 17 5 13 3 -3 4 -12 1 -19z m1 -43 c-3 -3
-9 2 -12 12 -6 14 -5 15 5 6 7 -7 10 -15 7 -18z m-1 -30 c0 -8 -4 -12 -9 -9
-5 3 -6 10 -3 15 9 13 12 11 12 -6z m1 -130 c-3 -3 -9 2 -12 12 -6 14 -5 15 5
6 7 -7 10 -15 7 -18z m0 -80 c-3 -3 -9 2 -12 12 -6 14 -5 15 5 6 7 -7 10 -15
7 -18z m2 -875 c0 -5 -4 -10 -10 -10 -5 0 -10 5 -10 10 0 6 5 10 10 10 6 0 10
-4 10 -10z"/>
<path d="M4997 16303 c-4 -3 -7 -11 -7 -17 0 -6 5 -5 12 2 6 6 9 14 7 17 -3 3
-9 2 -12 -2z"/>
<path d="M3330 5491 c0 -5 7 -12 16 -15 14 -5 15 -4 4 9 -14 17 -20 19 -20 6z"/>
</g>
</svg>
